<?xml version="1.0" encoding="UTF-8"?>
<svg xmlns="http://www.w3.org/2000/svg" version="1.1" width="200" height="200" viewBox="0 0 200 200"><rect x="0" y="0" width="200" height="200" fill="#ffffff"/><g transform="scale(3.279)"><g transform="translate(0,0)"><path fill-rule="evenodd" d="M11 0L11 1L10 1L10 3L8 3L8 4L9 4L9 5L8 5L8 7L9 7L9 8L6 8L6 9L5 9L5 8L0 8L0 9L5 9L5 13L8 13L8 12L9 12L9 11L8 11L8 10L9 10L9 8L10 8L10 7L11 7L11 5L12 5L12 7L13 7L13 4L14 4L14 8L16 8L16 9L14 9L14 10L13 10L13 9L12 9L12 8L11 8L11 10L12 10L12 12L13 12L13 13L14 13L14 14L13 14L13 15L14 15L14 16L13 16L13 17L11 17L11 16L12 16L12 15L11 15L11 14L12 14L12 13L11 13L11 12L10 12L10 13L11 13L11 14L4 14L4 13L3 13L3 11L2 11L2 10L1 10L1 11L0 11L0 12L2 12L2 13L0 13L0 14L1 14L1 15L3 15L3 17L2 17L2 18L1 18L1 16L0 16L0 20L1 20L1 21L0 21L0 22L1 22L1 24L0 24L0 26L1 26L1 27L0 27L0 32L2 32L2 33L1 33L1 34L0 34L0 35L1 35L1 37L0 37L0 38L1 38L1 39L0 39L0 42L1 42L1 43L2 43L2 44L0 44L0 47L1 47L1 49L5 49L5 50L2 50L2 51L0 51L0 53L4 53L4 52L5 52L5 51L7 51L7 50L6 50L6 49L8 49L8 55L10 55L10 54L11 54L11 53L10 53L10 52L9 52L9 50L10 50L10 51L11 51L11 52L12 52L12 50L13 50L13 49L12 49L12 48L13 48L13 47L15 47L15 48L14 48L14 51L13 51L13 53L12 53L12 54L13 54L13 53L14 53L14 54L15 54L15 56L14 56L14 55L13 55L13 56L12 56L12 55L11 55L11 58L12 58L12 57L19 57L19 56L20 56L20 57L21 57L21 56L23 56L23 55L22 55L22 54L23 54L23 53L22 53L22 51L21 51L21 52L20 52L20 53L22 53L22 54L20 54L20 55L19 55L19 56L16 56L16 55L18 55L18 54L15 54L15 53L16 53L16 52L17 52L17 51L15 51L15 49L19 49L19 50L20 50L20 49L21 49L21 50L25 50L25 49L26 49L26 51L24 51L24 52L26 52L26 51L27 51L27 53L26 53L26 54L25 54L25 53L24 53L24 54L25 54L25 55L24 55L24 56L25 56L25 55L27 55L27 57L26 57L26 58L27 58L27 59L26 59L26 60L29 60L29 59L28 59L28 58L30 58L30 61L32 61L32 60L33 60L33 61L37 61L37 60L38 60L38 61L39 61L39 60L41 60L41 61L44 61L44 60L45 60L45 61L50 61L50 59L49 59L49 60L46 60L46 59L48 59L48 58L50 58L50 56L51 56L51 61L53 61L53 59L52 59L52 58L53 58L53 57L54 57L54 58L55 58L55 59L54 59L54 60L55 60L55 61L56 61L56 58L57 58L57 59L58 59L58 58L59 58L59 57L60 57L60 60L57 60L57 61L61 61L61 54L60 54L60 53L61 53L61 52L60 52L60 53L59 53L59 52L57 52L57 51L61 51L61 49L60 49L60 48L58 48L58 49L57 49L57 47L56 47L56 46L55 46L55 44L56 44L56 45L57 45L57 46L58 46L58 47L59 47L59 46L58 46L58 45L59 45L59 44L60 44L60 45L61 45L61 40L60 40L60 42L59 42L59 44L57 44L57 43L55 43L55 42L54 42L54 43L53 43L53 44L54 44L54 45L53 45L53 47L52 47L52 46L50 46L50 45L52 45L52 44L51 44L51 43L52 43L52 42L51 42L51 43L50 43L50 40L48 40L48 41L47 41L47 40L46 40L46 39L48 39L48 38L50 38L50 39L51 39L51 41L52 41L52 40L54 40L54 41L55 41L55 40L56 40L56 41L59 41L59 40L57 40L57 39L59 39L59 36L60 36L60 37L61 37L61 34L58 34L58 35L59 35L59 36L58 36L58 38L57 38L57 39L55 39L55 38L56 38L56 37L57 37L57 36L56 36L56 33L59 33L59 32L57 32L57 30L59 30L59 28L58 28L58 29L57 29L57 27L60 27L60 29L61 29L61 26L60 26L60 25L61 25L61 24L60 24L60 25L59 25L59 24L57 24L57 23L59 23L59 22L60 22L60 23L61 23L61 22L60 22L60 21L61 21L61 20L60 20L60 19L61 19L61 18L60 18L60 16L61 16L61 14L60 14L60 16L57 16L57 15L59 15L59 14L58 14L58 13L59 13L59 12L60 12L60 11L61 11L61 10L60 10L60 11L59 11L59 9L60 9L60 8L59 8L59 9L58 9L58 8L57 8L57 9L56 9L56 8L55 8L55 9L54 9L54 8L52 8L52 9L54 9L54 10L55 10L55 9L56 9L56 12L55 12L55 11L54 11L54 12L55 12L55 13L53 13L53 12L52 12L52 11L53 11L53 10L51 10L51 12L50 12L50 13L51 13L51 14L49 14L49 12L48 12L48 14L45 14L45 15L44 15L44 13L43 13L43 12L41 12L41 11L42 11L42 10L45 10L45 9L47 9L47 8L46 8L46 7L47 7L47 5L48 5L48 7L49 7L49 8L48 8L48 9L49 9L49 10L50 10L50 7L51 7L51 5L52 5L52 4L53 4L53 0L51 0L51 2L50 2L50 1L48 1L48 2L50 2L50 3L46 3L46 2L47 2L47 1L46 1L46 2L44 2L44 1L43 1L43 0L41 0L41 1L40 1L40 0L39 0L39 1L38 1L38 0L37 0L37 1L36 1L36 2L39 2L39 3L38 3L38 4L39 4L39 5L36 5L36 7L37 7L37 8L35 8L35 5L33 5L33 4L32 4L32 1L33 1L33 3L35 3L35 4L37 4L37 3L35 3L35 2L34 2L34 1L33 1L33 0L32 0L32 1L31 1L31 2L30 2L30 3L31 3L31 4L29 4L29 2L28 2L28 3L27 3L27 4L22 4L22 3L24 3L24 2L25 2L25 3L26 3L26 1L27 1L27 0L26 0L26 1L25 1L25 0L21 0L21 1L20 1L20 0L19 0L19 1L20 1L20 2L19 2L19 3L17 3L17 2L18 2L18 1L17 1L17 2L16 2L16 4L17 4L17 5L16 5L16 7L15 7L15 4L14 4L14 3L15 3L15 1L16 1L16 0L15 0L15 1L13 1L13 0ZM8 1L8 2L9 2L9 1ZM12 1L12 3L14 3L14 2L13 2L13 1ZM22 1L22 2L20 2L20 3L22 3L22 2L24 2L24 1ZM39 1L39 2L40 2L40 1ZM41 1L41 3L40 3L40 4L41 4L41 5L42 5L42 6L41 6L41 8L37 8L37 9L38 9L38 10L37 10L37 11L36 11L36 10L35 10L35 9L33 9L33 10L32 10L32 9L29 9L29 10L31 10L31 12L29 12L29 11L28 11L28 8L27 8L27 7L28 7L28 6L27 6L27 5L28 5L28 4L27 4L27 5L26 5L26 6L25 6L25 7L26 7L26 9L25 9L25 8L24 8L24 6L23 6L23 8L22 8L22 9L21 9L21 7L22 7L22 6L21 6L21 7L20 7L20 5L22 5L22 4L20 4L20 5L19 5L19 4L18 4L18 5L17 5L17 7L16 7L16 8L18 8L18 6L19 6L19 9L16 9L16 10L19 10L19 13L15 13L15 10L14 10L14 13L15 13L15 17L13 17L13 19L14 19L14 21L15 21L15 23L14 23L14 22L13 22L13 20L12 20L12 18L11 18L11 19L10 19L10 16L9 16L9 15L8 15L8 16L9 16L9 20L8 20L8 19L6 19L6 20L7 20L7 21L4 21L4 23L6 23L6 24L7 24L7 25L5 25L5 24L3 24L3 22L2 22L2 24L1 24L1 25L2 25L2 24L3 24L3 26L2 26L2 27L1 27L1 29L2 29L2 30L3 30L3 31L4 31L4 30L3 30L3 29L4 29L4 27L5 27L5 28L9 28L9 30L10 30L10 32L9 32L9 33L8 33L8 34L7 34L7 33L5 33L5 35L2 35L2 37L1 37L1 38L3 38L3 36L4 36L4 37L5 37L5 38L7 38L7 39L6 39L6 40L7 40L7 41L5 41L5 40L3 40L3 39L2 39L2 40L1 40L1 42L2 42L2 43L3 43L3 42L2 42L2 40L3 40L3 41L4 41L4 42L5 42L5 44L7 44L7 45L5 45L5 46L7 46L7 45L9 45L9 47L6 47L6 48L5 48L5 47L4 47L4 46L3 46L3 45L4 45L4 44L2 44L2 45L1 45L1 47L2 47L2 48L3 48L3 47L4 47L4 48L5 48L5 49L6 49L6 48L8 48L8 49L9 49L9 48L10 48L10 47L11 47L11 48L12 48L12 47L13 47L13 46L16 46L16 48L17 48L17 47L18 47L18 48L19 48L19 47L18 47L18 46L19 46L19 45L20 45L20 48L21 48L21 49L25 49L25 48L26 48L26 49L27 49L27 50L29 50L29 52L34 52L34 53L33 53L33 54L36 54L36 56L34 56L34 55L33 55L33 56L34 56L34 58L35 58L35 57L36 57L36 56L37 56L37 55L38 55L38 56L39 56L39 55L41 55L41 56L40 56L40 58L39 58L39 57L38 57L38 58L37 58L37 59L34 59L34 60L37 60L37 59L38 59L38 60L39 60L39 59L40 59L40 58L41 58L41 60L42 60L42 59L43 59L43 60L44 60L44 59L43 59L43 58L44 58L44 57L45 57L45 58L48 58L48 57L47 57L47 56L50 56L50 54L51 54L51 55L52 55L52 54L51 54L51 53L50 53L50 52L49 52L49 51L50 51L50 50L51 50L51 48L52 48L52 47L51 47L51 48L49 48L49 46L48 46L48 45L47 45L47 44L49 44L49 45L50 45L50 44L49 44L49 43L45 43L45 44L44 44L44 43L43 43L43 44L42 44L42 43L41 43L41 42L40 42L40 43L41 43L41 44L39 44L39 43L38 43L38 42L39 42L39 41L43 41L43 40L44 40L44 41L45 41L45 42L47 42L47 41L46 41L46 40L44 40L44 39L43 39L43 40L42 40L42 38L40 38L40 37L43 37L43 36L44 36L44 37L45 37L45 39L46 39L46 38L48 38L48 36L49 36L49 35L50 35L50 38L51 38L51 35L53 35L53 36L52 36L52 37L53 37L53 36L55 36L55 35L53 35L53 33L52 33L52 32L50 32L50 30L51 30L51 31L52 31L52 29L50 29L50 27L51 27L51 28L52 28L52 27L54 27L54 26L53 26L53 25L55 25L55 27L57 27L57 26L58 26L58 25L57 25L57 24L54 24L54 23L55 23L55 22L57 22L57 20L59 20L59 19L57 19L57 16L56 16L56 15L57 15L57 12L59 12L59 11L57 11L57 12L56 12L56 13L55 13L55 14L53 14L53 13L52 13L52 15L50 15L50 16L49 16L49 14L48 14L48 15L46 15L46 17L45 17L45 16L44 16L44 15L43 15L43 14L42 14L42 15L41 15L41 12L40 12L40 13L38 13L38 12L39 12L39 11L38 11L38 10L42 10L42 9L45 9L45 8L44 8L44 6L45 6L45 7L46 7L46 6L45 6L45 5L47 5L47 4L45 4L45 3L44 3L44 2L43 2L43 1ZM42 2L42 3L43 3L43 4L42 4L42 5L44 5L44 3L43 3L43 2ZM51 3L51 4L52 4L52 3ZM10 4L10 5L9 5L9 7L10 7L10 5L11 5L11 4ZM29 5L29 8L32 8L32 5ZM39 5L39 7L40 7L40 5ZM49 5L49 7L50 7L50 5ZM26 6L26 7L27 7L27 6ZM30 6L30 7L31 7L31 6ZM33 6L33 8L34 8L34 6ZM37 6L37 7L38 7L38 6ZM42 6L42 8L43 8L43 6ZM52 6L52 7L53 7L53 6ZM23 8L23 9L22 9L22 11L21 11L21 10L20 10L20 9L19 9L19 10L20 10L20 11L21 11L21 12L20 12L20 13L19 13L19 14L16 14L16 17L17 17L17 18L14 18L14 19L15 19L15 21L17 21L17 20L16 20L16 19L18 19L18 21L19 21L19 20L20 20L20 21L22 21L22 22L21 22L21 23L19 23L19 22L17 22L17 24L14 24L14 23L13 23L13 22L12 22L12 23L10 23L10 24L9 24L9 25L7 25L7 26L6 26L6 27L8 27L8 26L9 26L9 27L10 27L10 28L11 28L11 27L12 27L12 29L10 29L10 30L12 30L12 29L13 29L13 30L14 30L14 32L15 32L15 34L16 34L16 33L17 33L17 34L18 34L18 35L19 35L19 34L20 34L20 35L21 35L21 36L20 36L20 37L22 37L22 39L21 39L21 38L20 38L20 39L21 39L21 40L16 40L16 39L15 39L15 37L14 37L14 38L11 38L11 37L10 37L10 39L9 39L9 37L7 37L7 36L9 36L9 35L10 35L10 34L8 34L8 35L7 35L7 34L6 34L6 35L7 35L7 36L5 36L5 37L7 37L7 38L8 38L8 39L7 39L7 40L8 40L8 42L10 42L10 46L11 46L11 47L12 47L12 46L11 46L11 44L12 44L12 43L13 43L13 41L12 41L12 40L11 40L11 41L10 41L10 39L14 39L14 40L15 40L15 41L21 41L21 42L20 42L20 43L21 43L21 42L25 42L25 41L24 41L24 39L25 39L25 37L26 37L26 38L27 38L27 39L26 39L26 40L29 40L29 41L28 41L28 42L27 42L27 41L26 41L26 44L28 44L28 46L27 46L27 45L26 45L26 46L25 46L25 45L24 45L24 43L23 43L23 45L21 45L21 44L20 44L20 45L21 45L21 47L26 47L26 46L27 46L27 49L29 49L29 50L30 50L30 51L33 51L33 50L34 50L34 51L37 51L37 52L35 52L35 53L36 53L36 54L38 54L38 55L39 55L39 54L38 54L38 51L39 51L39 52L41 52L41 55L42 55L42 56L41 56L41 58L43 58L43 57L44 57L44 56L45 56L45 57L46 57L46 56L47 56L47 54L45 54L45 55L44 55L44 51L42 51L42 52L41 52L41 49L40 49L40 51L39 51L39 50L38 50L38 49L37 49L37 48L36 48L36 49L35 49L35 50L34 50L34 49L32 49L32 47L33 47L33 46L32 46L32 47L30 47L30 46L29 46L29 44L30 44L30 45L31 45L31 44L32 44L32 45L35 45L35 46L34 46L34 47L35 47L35 46L36 46L36 47L39 47L39 46L40 46L40 48L41 48L41 46L43 46L43 47L42 47L42 48L43 48L43 49L42 49L42 50L44 50L44 48L45 48L45 47L44 47L44 46L45 46L45 45L44 45L44 44L43 44L43 45L42 45L42 44L41 44L41 45L39 45L39 44L38 44L38 45L37 45L37 44L35 44L35 42L38 42L38 40L34 40L34 39L36 39L36 38L37 38L37 39L40 39L40 40L41 40L41 39L40 39L40 38L38 38L38 37L39 37L39 34L36 34L36 35L37 35L37 36L36 36L36 38L34 38L34 39L33 39L33 38L32 38L32 39L33 39L33 42L32 42L32 40L31 40L31 38L29 38L29 39L28 39L28 38L27 38L27 37L28 37L28 34L27 34L27 33L26 33L26 32L28 32L28 33L29 33L29 34L32 34L32 35L31 35L31 36L30 36L30 37L31 37L31 36L32 36L32 35L33 35L33 36L34 36L34 35L35 35L35 34L34 34L34 35L33 35L33 33L34 33L34 32L36 32L36 33L37 33L37 32L36 32L36 31L37 31L37 30L36 30L36 29L37 29L37 28L41 28L41 29L40 29L40 30L38 30L38 31L39 31L39 32L41 32L41 33L42 33L42 34L43 34L43 35L42 35L42 36L43 36L43 35L44 35L44 36L46 36L46 35L47 35L47 34L45 34L45 33L47 33L47 32L46 32L46 31L48 31L48 30L50 30L50 29L49 29L49 28L48 28L48 30L44 30L44 28L45 28L45 29L46 29L46 28L47 28L47 26L44 26L44 24L45 24L45 25L46 25L46 24L45 24L45 23L47 23L47 24L48 24L48 25L49 25L49 26L48 26L48 27L49 27L49 26L50 26L50 25L49 25L49 24L51 24L51 27L52 27L52 25L53 25L53 24L52 24L52 23L51 23L51 22L50 22L50 21L51 21L51 20L47 20L47 21L49 21L49 22L48 22L48 23L47 23L47 22L45 22L45 21L46 21L46 20L45 20L45 19L44 19L44 16L43 16L43 17L41 17L41 18L40 18L40 17L39 17L39 18L37 18L37 19L38 19L38 21L37 21L37 20L36 20L36 22L33 22L33 21L35 21L35 19L34 19L34 20L33 20L33 19L32 19L32 20L33 20L33 21L32 21L32 22L31 22L31 21L30 21L30 22L31 22L31 23L29 23L29 22L28 22L28 21L29 21L29 20L31 20L31 18L33 18L33 17L32 17L32 15L30 15L30 16L29 16L29 18L28 18L28 16L27 16L27 15L29 15L29 14L28 14L28 13L29 13L29 12L28 12L28 13L26 13L26 14L25 14L25 13L24 13L24 12L26 12L26 10L27 10L27 9L26 9L26 10L25 10L25 9L24 9L24 8ZM6 9L6 10L7 10L7 9ZM23 9L23 12L21 12L21 13L20 13L20 16L19 16L19 17L18 17L18 18L19 18L19 17L20 17L20 18L21 18L21 17L25 17L25 19L26 19L26 21L25 21L25 20L24 20L24 19L23 19L23 18L22 18L22 21L25 21L25 22L22 22L22 25L23 25L23 26L21 26L21 25L20 25L20 24L19 24L19 25L18 25L18 26L19 26L19 29L15 29L15 28L16 28L16 27L15 27L15 28L14 28L14 27L13 27L13 26L12 26L12 25L14 25L14 26L15 26L15 25L14 25L14 24L11 24L11 26L10 26L10 25L9 25L9 26L10 26L10 27L11 27L11 26L12 26L12 27L13 27L13 29L15 29L15 30L16 30L16 31L18 31L18 32L19 32L19 33L18 33L18 34L19 34L19 33L20 33L20 34L21 34L21 35L22 35L22 37L23 37L23 39L22 39L22 41L23 41L23 39L24 39L24 37L25 37L25 36L26 36L26 37L27 37L27 36L26 36L26 35L24 35L24 36L23 36L23 34L21 34L21 33L25 33L25 32L26 32L26 31L25 31L25 32L24 32L24 31L23 31L23 30L24 30L24 29L28 29L28 28L29 28L29 27L27 27L27 26L28 26L28 24L29 24L29 25L30 25L30 26L32 26L32 27L33 27L33 30L35 30L35 31L36 31L36 30L35 30L35 28L37 28L37 27L38 27L38 26L39 26L39 27L41 27L41 28L42 28L42 29L43 29L43 28L44 28L44 27L43 27L43 26L42 26L42 25L43 25L43 22L44 22L44 21L45 21L45 20L44 20L44 19L43 19L43 18L41 18L41 20L39 20L39 21L38 21L38 22L36 22L36 23L33 23L33 22L32 22L32 23L31 23L31 24L32 24L32 25L30 25L30 24L29 24L29 23L27 23L27 24L26 24L26 23L25 23L25 22L26 22L26 21L27 21L27 20L29 20L29 19L30 19L30 18L31 18L31 16L30 16L30 18L29 18L29 19L26 19L26 17L27 17L27 16L26 16L26 17L25 17L25 16L23 16L23 14L24 14L24 15L25 15L25 14L24 14L24 13L23 13L23 12L24 12L24 11L25 11L25 10L24 10L24 9ZM33 10L33 11L32 11L32 12L31 12L31 13L30 13L30 14L33 14L33 16L34 16L34 17L35 17L35 14L36 14L36 15L37 15L37 16L36 16L36 17L38 17L38 15L39 15L39 14L38 14L38 15L37 15L37 14L36 14L36 13L37 13L37 12L34 12L34 13L35 13L35 14L33 14L33 11L35 11L35 10ZM6 11L6 12L8 12L8 11ZM16 11L16 12L18 12L18 11ZM44 11L44 12L45 12L45 13L46 13L46 12L47 12L47 11L46 11L46 12L45 12L45 11ZM22 13L22 14L21 14L21 15L22 15L22 14L23 14L23 13ZM3 14L3 15L4 15L4 14ZM6 15L6 16L7 16L7 15ZM52 15L52 16L53 16L53 18L52 18L52 21L54 21L54 22L55 22L55 19L56 19L56 20L57 20L57 19L56 19L56 18L55 18L55 17L56 17L56 16L55 16L55 15ZM4 16L4 17L3 17L3 18L4 18L4 17L5 17L5 18L7 18L7 17L5 17L5 16ZM20 16L20 17L21 17L21 16ZM48 16L48 18L46 18L46 19L48 19L48 18L50 18L50 19L51 19L51 18L50 18L50 17L51 17L51 16L50 16L50 17L49 17L49 16ZM58 17L58 18L59 18L59 17ZM39 18L39 19L40 19L40 18ZM54 18L54 19L55 19L55 18ZM1 19L1 20L2 20L2 21L3 21L3 20L5 20L5 19ZM43 20L43 21L42 21L42 22L43 22L43 21L44 21L44 20ZM58 21L58 22L59 22L59 21ZM6 22L6 23L9 23L9 22ZM38 22L38 23L37 23L37 24L35 24L35 26L34 26L34 25L32 25L32 26L33 26L33 27L36 27L36 26L38 26L38 25L37 25L37 24L41 24L41 23L39 23L39 22ZM24 23L24 24L25 24L25 23ZM48 23L48 24L49 24L49 23ZM4 25L4 26L3 26L3 27L2 27L2 29L3 29L3 27L4 27L4 26L5 26L5 25ZM16 25L16 26L17 26L17 25ZM24 25L24 27L23 27L23 29L21 29L21 28L22 28L22 27L21 27L21 26L20 26L20 29L19 29L19 30L18 30L18 31L19 31L19 32L20 32L20 33L21 33L21 32L22 32L22 31L21 31L21 32L20 32L20 31L19 31L19 30L20 30L20 29L21 29L21 30L23 30L23 29L24 29L24 28L25 28L25 25ZM26 25L26 26L27 26L27 25ZM39 25L39 26L41 26L41 25ZM56 25L56 26L57 26L57 25ZM26 27L26 28L27 28L27 27ZM42 27L42 28L43 28L43 27ZM45 27L45 28L46 28L46 27ZM5 29L5 32L8 32L8 29ZM29 29L29 32L32 32L32 29ZM53 29L53 32L56 32L56 29ZM6 30L6 31L7 31L7 30ZM27 30L27 31L28 31L28 30ZM30 30L30 31L31 31L31 30ZM40 30L40 31L41 31L41 30ZM42 30L42 33L43 33L43 31L44 31L44 30ZM54 30L54 31L55 31L55 30ZM60 30L60 31L61 31L61 30ZM33 31L33 32L34 32L34 31ZM3 32L3 33L4 33L4 32ZM10 32L10 33L11 33L11 34L13 34L13 36L12 36L12 35L11 35L11 36L12 36L12 37L13 37L13 36L14 36L14 34L13 34L13 32L12 32L12 33L11 33L11 32ZM44 32L44 33L45 33L45 32ZM48 32L48 33L49 33L49 34L48 34L48 35L49 35L49 34L50 34L50 35L51 35L51 34L52 34L52 33L51 33L51 34L50 34L50 32ZM60 32L60 33L61 33L61 32ZM40 35L40 36L41 36L41 35ZM16 36L16 37L17 37L17 38L18 38L18 39L19 39L19 38L18 38L18 37L19 37L19 36L18 36L18 37L17 37L17 36ZM37 36L37 37L38 37L38 36ZM52 38L52 39L53 39L53 38ZM60 38L60 39L61 39L61 38ZM8 39L8 40L9 40L9 39ZM54 39L54 40L55 40L55 39ZM11 41L11 42L12 42L12 41ZM30 41L30 43L31 43L31 41ZM34 41L34 42L35 42L35 41ZM6 42L6 43L7 43L7 44L9 44L9 43L7 43L7 42ZM14 42L14 43L15 43L15 42ZM16 42L16 44L15 44L15 45L19 45L19 43L18 43L18 42ZM28 42L28 44L29 44L29 42ZM17 43L17 44L18 44L18 43ZM32 43L32 44L34 44L34 43ZM54 43L54 44L55 44L55 43ZM13 44L13 45L14 45L14 44ZM23 45L23 46L24 46L24 45ZM38 45L38 46L39 46L39 45ZM46 46L46 47L48 47L48 46ZM60 46L60 47L61 47L61 46ZM28 47L28 48L30 48L30 47ZM43 47L43 48L44 48L44 47ZM53 47L53 48L54 48L54 49L55 49L55 48L54 48L54 47ZM48 48L48 49L47 49L47 50L45 50L45 51L49 51L49 50L50 50L50 49L49 49L49 48ZM10 49L10 50L11 50L11 49ZM30 49L30 50L32 50L32 49ZM52 49L52 51L53 51L53 52L55 52L55 51L53 51L53 49ZM56 49L56 50L57 50L57 49ZM58 49L58 50L60 50L60 49ZM37 50L37 51L38 51L38 50ZM3 51L3 52L4 52L4 51ZM14 51L14 52L15 52L15 51ZM6 52L6 53L7 53L7 52ZM18 52L18 53L19 53L19 52ZM45 52L45 53L46 53L46 52ZM48 52L48 53L49 53L49 52ZM9 53L9 54L10 54L10 53ZM29 53L29 56L32 56L32 53ZM53 53L53 56L56 56L56 53ZM57 53L57 56L59 56L59 55L60 55L60 54L59 54L59 55L58 55L58 53ZM27 54L27 55L28 55L28 54ZM30 54L30 55L31 55L31 54ZM42 54L42 55L43 55L43 56L42 56L42 57L43 57L43 56L44 56L44 55L43 55L43 54ZM48 54L48 55L49 55L49 54ZM54 54L54 55L55 55L55 54ZM20 55L20 56L21 56L21 55ZM8 56L8 61L9 61L9 60L12 60L12 61L14 61L14 60L16 60L16 61L19 61L19 60L20 60L20 61L21 61L21 60L20 60L20 58L17 58L17 59L14 59L14 58L13 58L13 60L12 60L12 59L9 59L9 58L10 58L10 57L9 57L9 56ZM22 57L22 58L21 58L21 59L22 59L22 60L23 60L23 61L24 61L24 60L25 60L25 57ZM31 57L31 60L32 60L32 59L33 59L33 57ZM55 57L55 58L56 58L56 57ZM57 57L57 58L58 58L58 57ZM22 58L22 59L23 59L23 60L24 60L24 59L23 59L23 58ZM38 58L38 59L39 59L39 58ZM0 0L0 7L7 7L7 0ZM1 1L1 6L6 6L6 1ZM2 2L2 5L5 5L5 2ZM54 0L54 7L61 7L61 0ZM55 1L55 6L60 6L60 1ZM56 2L56 5L59 5L59 2ZM0 54L0 61L7 61L7 54ZM1 55L1 60L6 60L6 55ZM2 56L2 59L5 59L5 56Z" fill="#000000"/></g></g></svg>
