<?xml version="1.0" encoding="UTF-8"?>
<svg xmlns="http://www.w3.org/2000/svg" version="1.1" width="200" height="200" viewBox="0 0 200 200"><rect x="0" y="0" width="200" height="200" fill="#ffffff"/><g transform="scale(3.279)"><g transform="translate(0,0)"><path fill-rule="evenodd" d="M9 0L9 1L8 1L8 2L9 2L9 1L10 1L10 2L12 2L12 1L10 1L10 0ZM13 0L13 3L10 3L10 4L9 4L9 3L8 3L8 4L9 4L9 5L8 5L8 7L9 7L9 5L10 5L10 7L11 7L11 6L12 6L12 7L13 7L13 6L14 6L14 8L15 8L15 9L14 9L14 10L13 10L13 8L11 8L11 9L12 9L12 10L13 10L13 13L12 13L12 11L10 11L10 12L9 12L9 10L10 10L10 8L6 8L6 9L5 9L5 8L0 8L0 9L1 9L1 12L2 12L2 10L3 10L3 11L4 11L4 12L5 12L5 13L7 13L7 14L6 14L6 15L5 15L5 14L3 14L3 13L2 13L2 14L1 14L1 13L0 13L0 14L1 14L1 15L3 15L3 16L0 16L0 17L1 17L1 21L5 21L5 22L4 22L4 23L7 23L7 22L6 22L6 21L7 21L7 20L5 20L5 19L3 19L3 20L2 20L2 18L4 18L4 17L3 17L3 16L4 16L4 15L5 15L5 17L8 17L8 18L9 18L9 17L8 17L8 16L10 16L10 19L11 19L11 16L12 16L12 15L14 15L14 16L13 16L13 17L16 17L16 18L15 18L15 19L14 19L14 20L11 20L11 21L10 21L10 23L9 23L9 24L8 24L8 25L9 25L9 24L13 24L13 25L11 25L11 27L10 27L10 26L9 26L9 27L10 27L10 28L8 28L8 26L6 26L6 27L5 27L5 28L0 28L0 33L1 33L1 34L0 34L0 36L1 36L1 37L0 37L0 40L1 40L1 43L4 43L4 42L6 42L6 43L5 43L5 44L4 44L4 46L3 46L3 47L2 47L2 46L1 46L1 45L0 45L0 47L1 47L1 48L0 48L0 49L1 49L1 50L2 50L2 51L0 51L0 53L4 53L4 52L5 52L5 51L8 51L8 55L9 55L9 56L8 56L8 61L9 61L9 60L12 60L12 61L17 61L17 60L16 60L16 59L17 59L17 58L18 58L18 59L19 59L19 60L18 60L18 61L19 61L19 60L20 60L20 61L22 61L22 60L23 60L23 61L24 61L24 59L23 59L23 58L25 58L25 57L26 57L26 58L27 58L27 59L26 59L26 60L27 60L27 61L28 61L28 60L29 60L29 59L28 59L28 58L29 58L29 57L30 57L30 58L32 58L32 57L34 57L34 55L36 55L36 54L37 54L37 52L36 52L36 51L37 51L37 50L36 50L36 49L38 49L38 47L39 47L39 48L41 48L41 49L42 49L42 50L43 50L43 49L44 49L44 48L45 48L45 47L46 47L46 46L45 46L45 47L44 47L44 44L45 44L45 45L48 45L48 46L47 46L47 47L49 47L49 46L50 46L50 48L48 48L48 49L49 49L49 50L48 50L48 51L49 51L49 52L46 52L46 51L47 51L47 50L44 50L44 52L43 52L43 51L42 51L42 52L43 52L43 53L39 53L39 52L41 52L41 50L40 50L40 49L39 49L39 50L38 50L38 51L39 51L39 52L38 52L38 53L39 53L39 54L38 54L38 55L39 55L39 58L38 58L38 56L36 56L36 57L37 57L37 58L36 58L36 59L37 59L37 60L35 60L35 61L37 61L37 60L38 60L38 59L40 59L40 60L39 60L39 61L40 61L40 60L41 60L41 59L40 59L40 58L43 58L43 59L42 59L42 60L43 60L43 61L44 61L44 60L46 60L46 59L47 59L47 61L50 61L50 60L48 60L48 58L49 58L49 59L50 59L50 56L46 56L46 55L47 55L47 54L46 54L46 55L44 55L44 56L41 56L41 55L42 55L42 54L45 54L45 53L44 53L44 52L46 52L46 53L49 53L49 54L48 54L48 55L51 55L51 61L52 61L52 60L53 60L53 61L54 61L54 60L55 60L55 61L61 61L61 57L60 57L60 56L61 56L61 54L59 54L59 53L58 53L58 52L54 52L54 51L56 51L56 49L57 49L57 51L59 51L59 50L60 50L60 51L61 51L61 50L60 50L60 49L61 49L61 46L60 46L60 45L61 45L61 42L60 42L60 40L61 40L61 38L60 38L60 40L56 40L56 37L58 37L58 38L57 38L57 39L59 39L59 36L58 36L58 35L59 35L59 32L57 32L57 29L58 29L58 31L60 31L60 33L61 33L61 30L59 30L59 28L57 28L57 27L56 27L56 28L52 28L52 27L53 27L53 26L54 26L54 27L55 27L55 25L53 25L53 24L52 24L52 23L53 23L53 22L55 22L55 23L54 23L54 24L57 24L57 25L56 25L56 26L57 26L57 25L59 25L59 27L60 27L60 28L61 28L61 26L60 26L60 24L61 24L61 22L60 22L60 24L57 24L57 23L59 23L59 22L58 22L58 21L59 21L59 20L58 20L58 19L61 19L61 14L60 14L60 15L59 15L59 14L58 14L58 13L59 13L59 12L60 12L60 11L61 11L61 10L60 10L60 11L59 11L59 10L58 10L58 8L57 8L57 9L56 9L56 8L55 8L55 9L54 9L54 8L52 8L52 7L53 7L53 6L52 6L52 7L51 7L51 5L52 5L52 4L53 4L53 0L51 0L51 2L50 2L50 1L48 1L48 2L50 2L50 3L48 3L48 4L47 4L47 1L46 1L46 3L45 3L45 2L44 2L44 0L40 0L40 1L38 1L38 0L37 0L37 2L38 2L38 3L36 3L36 4L38 4L38 3L42 3L42 2L40 2L40 1L43 1L43 2L44 2L44 3L43 3L43 4L42 4L42 5L45 5L45 6L44 6L44 8L45 8L45 9L42 9L42 10L41 10L41 9L39 9L39 10L38 10L38 8L41 8L41 6L40 6L40 5L41 5L41 4L40 4L40 5L38 5L38 8L35 8L35 9L36 9L36 10L33 10L33 5L34 5L34 7L35 7L35 5L34 5L34 4L35 4L35 3L34 3L34 2L35 2L35 1L34 1L34 0L32 0L32 1L31 1L31 0L29 0L29 2L28 2L28 0L26 0L26 1L27 1L27 2L28 2L28 4L26 4L26 2L24 2L24 3L25 3L25 4L22 4L22 2L23 2L23 1L25 1L25 0L23 0L23 1L22 1L22 0L21 0L21 1L20 1L20 0L19 0L19 1L18 1L18 2L17 2L17 3L16 3L16 2L15 2L15 4L14 4L14 0ZM15 0L15 1L16 1L16 0ZM19 1L19 2L18 2L18 3L19 3L19 4L18 4L18 6L17 6L17 7L16 7L16 6L15 6L15 7L16 7L16 8L18 8L18 9L15 9L15 12L14 12L14 13L15 13L15 14L18 14L18 16L19 16L19 13L20 13L20 16L21 16L21 17L20 17L20 18L19 18L19 17L17 17L17 16L16 16L16 15L15 15L15 16L16 16L16 17L17 17L17 18L19 18L19 21L16 21L16 19L15 19L15 22L14 22L14 21L12 21L12 23L15 23L15 24L14 24L14 26L12 26L12 27L17 27L17 28L21 28L21 27L22 27L22 29L23 29L23 30L21 30L21 29L20 29L20 31L17 31L17 32L15 32L15 30L19 30L19 29L15 29L15 28L14 28L14 29L13 29L13 30L12 30L12 31L11 31L11 29L12 29L12 28L11 28L11 29L10 29L10 30L9 30L9 31L10 31L10 32L9 32L9 34L10 34L10 37L9 37L9 35L8 35L8 33L6 33L6 34L4 34L4 35L6 35L6 36L7 36L7 37L5 37L5 36L4 36L4 37L5 37L5 38L9 38L9 39L10 39L10 40L13 40L13 41L12 41L12 43L11 43L11 44L10 44L10 43L9 43L9 45L8 45L8 48L7 48L7 47L6 47L6 48L7 48L7 49L2 49L2 50L7 50L7 49L8 49L8 51L10 51L10 52L9 52L9 55L10 55L10 57L9 57L9 58L10 58L10 59L13 59L13 60L15 60L15 59L16 59L16 58L17 58L17 57L18 57L18 56L17 56L17 57L16 57L16 55L18 55L18 54L19 54L19 55L21 55L21 53L25 53L25 54L24 54L24 55L23 55L23 54L22 54L22 57L23 57L23 56L24 56L24 57L25 57L25 56L24 56L24 55L26 55L26 57L27 57L27 56L28 56L28 55L26 55L26 53L27 53L27 52L30 52L30 51L31 51L31 49L30 49L30 48L31 48L31 47L32 47L32 50L35 50L35 48L37 48L37 46L35 46L35 45L34 45L34 44L38 44L38 46L40 46L40 47L42 47L42 49L43 49L43 48L44 48L44 47L43 47L43 46L42 46L42 45L43 45L43 44L44 44L44 43L42 43L42 42L41 42L41 41L43 41L43 40L44 40L44 41L45 41L45 42L48 42L48 43L46 43L46 44L49 44L49 45L50 45L50 46L51 46L51 44L52 44L52 45L54 45L54 44L55 44L55 46L56 46L56 47L57 47L57 48L59 48L59 46L58 46L58 45L56 45L56 43L57 43L57 44L59 44L59 45L60 45L60 44L59 44L59 43L60 43L60 42L58 42L58 41L56 41L56 40L55 40L55 39L53 39L53 38L52 38L52 37L51 37L51 36L49 36L49 35L50 35L50 34L51 34L51 35L52 35L52 34L51 34L51 33L50 33L50 32L51 32L51 31L52 31L52 29L50 29L50 28L51 28L51 23L50 23L50 22L53 22L53 21L51 21L51 20L53 20L53 19L55 19L55 22L57 22L57 21L58 21L58 20L56 20L56 19L57 19L57 18L56 18L56 17L57 17L57 16L59 16L59 15L58 15L58 14L54 14L54 13L55 13L55 12L54 12L54 11L56 11L56 9L55 9L55 10L54 10L54 9L52 9L52 11L51 11L51 9L50 9L50 8L51 8L51 7L50 7L50 5L49 5L49 7L48 7L48 6L47 6L47 7L48 7L48 8L47 8L47 9L46 9L46 10L47 10L47 11L46 11L46 12L49 12L49 13L48 13L48 15L46 15L46 14L47 14L47 13L46 13L46 14L45 14L45 12L44 12L44 11L45 11L45 10L42 10L42 11L43 11L43 12L44 12L44 15L46 15L46 17L45 17L45 16L44 16L44 17L45 17L45 19L46 19L46 20L44 20L44 19L43 19L43 18L41 18L41 17L42 17L42 16L40 16L40 15L38 15L38 14L39 14L39 12L40 12L40 14L41 14L41 15L43 15L43 14L42 14L42 13L41 13L41 12L40 12L40 11L41 11L41 10L39 10L39 12L38 12L38 10L37 10L37 11L35 11L35 12L34 12L34 11L33 11L33 10L32 10L32 9L31 9L31 10L32 10L32 13L33 13L33 12L34 12L34 14L36 14L36 16L35 16L35 15L34 15L34 16L35 16L35 17L33 17L33 14L32 14L32 16L30 16L30 15L31 15L31 12L29 12L29 11L30 11L30 10L29 10L29 9L28 9L28 8L27 8L27 7L28 7L28 6L27 6L27 7L26 7L26 6L25 6L25 8L24 8L24 9L25 9L25 10L23 10L23 11L24 11L24 12L21 12L21 13L20 13L20 12L19 12L19 10L20 10L20 11L22 11L22 10L21 10L21 8L20 8L20 6L21 6L21 7L22 7L22 9L23 9L23 7L24 7L24 6L23 6L23 5L21 5L21 4L20 4L20 3L21 3L21 2L22 2L22 1L21 1L21 2L20 2L20 1ZM32 1L32 2L31 2L31 3L30 3L30 2L29 2L29 4L31 4L31 3L32 3L32 2L33 2L33 1ZM44 3L44 4L45 4L45 5L47 5L47 4L45 4L45 3ZM51 3L51 4L52 4L52 3ZM11 4L11 5L12 5L12 6L13 6L13 5L14 5L14 4ZM15 4L15 5L17 5L17 4ZM19 4L19 5L20 5L20 4ZM25 4L25 5L26 5L26 4ZM29 5L29 8L32 8L32 5ZM36 5L36 7L37 7L37 5ZM18 6L18 7L19 7L19 6ZM22 6L22 7L23 7L23 6ZM30 6L30 7L31 7L31 6ZM39 6L39 7L40 7L40 6ZM42 6L42 8L43 8L43 6ZM45 6L45 7L46 7L46 6ZM25 8L25 9L26 9L26 11L25 11L25 12L26 12L26 11L29 11L29 10L28 10L28 9L26 9L26 8ZM48 8L48 9L49 9L49 10L48 10L48 11L49 11L49 12L51 12L51 14L50 14L50 15L52 15L52 16L50 16L50 17L49 17L49 16L48 16L48 18L46 18L46 19L48 19L48 18L49 18L49 20L47 20L47 22L45 22L45 21L44 21L44 20L43 20L43 19L42 19L42 20L43 20L43 21L42 21L42 22L43 22L43 25L42 25L42 26L43 26L43 27L42 27L42 28L43 28L43 29L42 29L42 30L38 30L38 29L40 29L40 28L41 28L41 27L40 27L40 26L41 26L41 25L39 25L39 26L38 26L38 25L37 25L37 24L39 24L39 23L40 23L40 24L41 24L41 23L40 23L40 22L41 22L41 21L40 21L40 22L37 22L37 21L38 21L38 20L41 20L41 19L40 19L40 18L38 18L38 17L39 17L39 16L36 16L36 17L37 17L37 18L36 18L36 19L37 19L37 20L36 20L36 21L35 21L35 19L34 19L34 18L33 18L33 17L32 17L32 18L31 18L31 17L29 17L29 16L27 16L27 15L29 15L29 14L30 14L30 13L29 13L29 14L28 14L28 13L24 13L24 14L27 14L27 15L26 15L26 16L25 16L25 15L24 15L24 16L25 16L25 17L24 17L24 18L25 18L25 19L26 19L26 20L25 20L25 21L22 21L22 22L21 22L21 24L19 24L19 22L20 22L20 21L21 21L21 20L23 20L23 19L22 19L22 18L23 18L23 17L22 17L22 18L21 18L21 20L20 20L20 21L19 21L19 22L18 22L18 23L17 23L17 22L16 22L16 23L17 23L17 24L15 24L15 25L17 25L17 27L18 27L18 26L20 26L20 27L21 27L21 26L20 26L20 25L22 25L22 26L23 26L23 27L24 27L24 28L27 28L27 27L29 27L29 28L28 28L28 29L24 29L24 30L23 30L23 31L24 31L24 32L23 32L23 33L21 33L21 32L17 32L17 33L19 33L19 34L20 34L20 35L21 35L21 36L18 36L18 37L19 37L19 40L20 40L20 41L22 41L22 42L20 42L20 43L19 43L19 41L18 41L18 40L16 40L16 39L18 39L18 38L15 38L15 37L17 37L17 36L16 36L16 35L15 35L15 36L14 36L14 35L13 35L13 34L16 34L16 33L15 33L15 32L14 32L14 33L13 33L13 34L12 34L12 32L10 32L10 33L11 33L11 35L13 35L13 36L14 36L14 37L13 37L13 38L12 38L12 37L11 37L11 38L10 38L10 39L13 39L13 38L14 38L14 39L15 39L15 40L14 40L14 41L18 41L18 42L16 42L16 43L15 43L15 42L13 42L13 46L14 46L14 47L15 47L15 49L14 49L14 48L13 48L13 49L14 49L14 50L12 50L12 48L8 48L8 49L10 49L10 50L11 50L11 52L10 52L10 53L11 53L11 52L12 52L12 51L14 51L14 53L15 53L15 54L14 54L14 55L13 55L13 56L12 56L12 58L13 58L13 59L14 59L14 58L15 58L15 55L16 55L16 53L17 53L17 50L18 50L18 51L19 51L19 52L18 52L18 53L19 53L19 54L20 54L20 53L21 53L21 51L19 51L19 50L18 50L18 49L19 49L19 46L20 46L20 47L22 47L22 48L25 48L25 49L24 49L24 50L23 50L23 49L22 49L22 50L23 50L23 52L25 52L25 53L26 53L26 50L27 50L27 51L28 51L28 50L27 50L27 49L28 49L28 48L27 48L27 47L28 47L28 46L29 46L29 48L30 48L30 46L29 46L29 45L28 45L28 44L27 44L27 45L24 45L24 44L26 44L26 43L25 43L25 41L26 41L26 42L27 42L27 43L28 43L28 42L27 42L27 41L26 41L26 40L25 40L25 39L26 39L26 38L27 38L27 40L28 40L28 41L29 41L29 42L30 42L30 41L31 41L31 42L32 42L32 43L31 43L31 44L30 44L30 45L31 45L31 44L32 44L32 43L33 43L33 40L32 40L32 39L34 39L34 38L30 38L30 39L31 39L31 40L30 40L30 41L29 41L29 38L27 38L27 37L26 37L26 36L25 36L25 35L26 35L26 34L27 34L27 36L29 36L29 35L28 35L28 34L27 34L27 33L33 33L33 32L34 32L34 33L35 33L35 34L34 34L34 35L33 35L33 34L32 34L32 35L31 35L31 34L30 34L30 35L31 35L31 36L30 36L30 37L31 37L31 36L32 36L32 37L35 37L35 38L36 38L36 39L37 39L37 40L36 40L36 42L34 42L34 43L36 43L36 42L38 42L38 43L39 43L39 42L40 42L40 44L39 44L39 45L40 45L40 44L41 44L41 42L40 42L40 40L41 40L41 39L40 39L40 38L36 38L36 37L38 37L38 36L36 36L36 35L39 35L39 36L42 36L42 38L44 38L44 36L47 36L47 38L46 38L46 39L49 39L49 38L50 38L50 40L47 40L47 41L48 41L48 42L50 42L50 41L51 41L51 42L53 42L53 41L54 41L54 40L53 40L53 41L52 41L52 40L51 40L51 38L50 38L50 37L49 37L49 36L47 36L47 34L45 34L45 35L44 35L44 36L42 36L42 35L41 35L41 34L44 34L44 32L45 32L45 33L47 33L47 32L46 32L46 31L49 31L49 32L48 32L48 33L49 33L49 34L48 34L48 35L49 35L49 34L50 34L50 33L49 33L49 32L50 32L50 31L51 31L51 30L50 30L50 29L49 29L49 26L50 26L50 24L48 24L48 25L47 25L47 24L46 24L46 23L47 23L47 22L50 22L50 21L49 21L49 20L51 20L51 18L50 18L50 17L52 17L52 16L53 16L53 18L55 18L55 17L56 17L56 16L57 16L57 15L56 15L56 16L55 16L55 15L54 15L54 14L53 14L53 15L52 15L52 13L53 13L53 11L52 11L52 12L51 12L51 11L49 11L49 10L50 10L50 9L49 9L49 8ZM59 8L59 9L60 9L60 8ZM4 9L4 10L5 10L5 9ZM6 9L6 10L7 10L7 11L5 11L5 12L7 12L7 13L8 13L8 14L10 14L10 15L12 15L12 14L10 14L10 13L8 13L8 10L9 10L9 9ZM18 9L18 10L16 10L16 13L19 13L19 12L18 12L18 10L19 10L19 9ZM57 11L57 12L56 12L56 13L57 13L57 12L59 12L59 11ZM36 12L36 13L37 13L37 14L38 14L38 12ZM22 13L22 14L21 14L21 15L22 15L22 14L23 14L23 13ZM6 15L6 16L8 16L8 15ZM53 15L53 16L54 16L54 17L55 17L55 16L54 16L54 15ZM26 16L26 17L25 17L25 18L26 18L26 17L27 17L27 16ZM28 17L28 18L29 18L29 17ZM58 17L58 18L60 18L60 17ZM6 18L6 19L7 19L7 18ZM32 18L32 19L31 19L31 20L30 20L30 19L28 19L28 20L29 20L29 21L28 21L28 22L25 22L25 23L26 23L26 25L25 25L25 24L22 24L22 25L25 25L25 27L27 27L27 26L26 26L26 25L29 25L29 26L30 26L30 25L31 25L31 24L30 24L30 23L31 23L31 22L32 22L32 23L33 23L33 24L34 24L34 25L33 25L33 26L32 26L32 27L33 27L33 26L35 26L35 27L34 27L34 28L37 28L37 29L36 29L36 31L35 31L35 33L36 33L36 32L37 32L37 31L38 31L38 30L37 30L37 29L38 29L38 28L37 28L37 27L38 27L38 26L37 26L37 25L35 25L35 24L34 24L34 23L33 23L33 22L32 22L32 21L33 21L33 20L32 20L32 19L33 19L33 18ZM37 18L37 19L38 19L38 18ZM8 19L8 22L9 22L9 19ZM26 20L26 21L27 21L27 20ZM60 20L60 21L61 21L61 20ZM30 21L30 22L31 22L31 21ZM34 21L34 22L35 22L35 23L36 23L36 24L37 24L37 23L36 23L36 22L35 22L35 21ZM43 21L43 22L44 22L44 21ZM22 22L22 23L24 23L24 22ZM28 22L28 23L27 23L27 24L28 24L28 23L29 23L29 22ZM2 23L2 24L3 24L3 23ZM0 24L0 26L1 26L1 27L2 27L2 26L3 26L3 27L4 27L4 26L3 26L3 25L2 25L2 26L1 26L1 24ZM4 24L4 25L7 25L7 24ZM17 24L17 25L18 25L18 24ZM29 24L29 25L30 25L30 24ZM44 24L44 26L45 26L45 27L47 27L47 25L45 25L45 24ZM52 25L52 26L53 26L53 25ZM36 26L36 27L37 27L37 26ZM6 27L6 28L7 28L7 27ZM39 27L39 28L40 28L40 27ZM44 28L44 29L45 29L45 28ZM3 29L3 30L2 30L2 34L1 34L1 36L2 36L2 34L3 34L3 32L4 32L4 29ZM5 29L5 32L8 32L8 29ZM29 29L29 32L32 32L32 29ZM33 29L33 30L35 30L35 29ZM46 29L46 30L47 30L47 29ZM53 29L53 32L56 32L56 29ZM6 30L6 31L7 31L7 30ZM13 30L13 31L14 31L14 30ZM24 30L24 31L25 31L25 30ZM27 30L27 31L26 31L26 33L25 33L25 32L24 32L24 33L23 33L23 34L21 34L21 33L20 33L20 34L21 34L21 35L22 35L22 36L21 36L21 37L20 37L20 40L21 40L21 37L25 37L25 38L26 38L26 37L25 37L25 36L24 36L24 35L25 35L25 34L26 34L26 33L27 33L27 32L28 32L28 30ZM30 30L30 31L31 31L31 30ZM42 30L42 31L41 31L41 32L39 32L39 33L38 33L38 34L41 34L41 33L43 33L43 32L44 32L44 31L45 31L45 30ZM49 30L49 31L50 31L50 30ZM54 30L54 31L55 31L55 30ZM24 33L24 34L25 34L25 33ZM53 33L53 34L55 34L55 33ZM56 33L56 36L57 36L57 33ZM6 34L6 35L7 35L7 36L8 36L8 35L7 35L7 34ZM17 34L17 35L18 35L18 34ZM60 34L60 35L61 35L61 34ZM32 35L32 36L33 36L33 35ZM34 35L34 36L35 36L35 37L36 37L36 36L35 36L35 35ZM53 35L53 37L54 37L54 36L55 36L55 35ZM1 37L1 38L2 38L2 37ZM48 37L48 38L49 38L49 37ZM2 39L2 42L3 42L3 39ZM4 39L4 41L6 41L6 42L7 42L7 41L6 41L6 40L8 40L8 41L9 41L9 40L8 40L8 39L6 39L6 40L5 40L5 39ZM42 39L42 40L43 40L43 39ZM44 39L44 40L45 40L45 41L46 41L46 40L45 40L45 39ZM22 40L22 41L25 41L25 40ZM31 40L31 41L32 41L32 40ZM37 40L37 41L38 41L38 42L39 42L39 40ZM10 41L10 42L11 42L11 41ZM55 41L55 42L54 42L54 43L56 43L56 41ZM22 42L22 43L24 43L24 42ZM6 43L6 44L7 44L7 43ZM14 43L14 44L15 44L15 45L16 45L16 46L17 46L17 45L18 45L18 46L19 46L19 45L20 45L20 46L22 46L22 47L25 47L25 46L24 46L24 45L23 45L23 44L22 44L22 45L21 45L21 44L19 44L19 45L18 45L18 44L17 44L17 43L16 43L16 44L15 44L15 43ZM49 43L49 44L50 44L50 43ZM2 44L2 45L3 45L3 44ZM11 44L11 45L12 45L12 44ZM16 44L16 45L17 45L17 44ZM6 45L6 46L7 46L7 45ZM22 45L22 46L23 46L23 45ZM27 45L27 46L28 46L28 45ZM32 45L32 47L33 47L33 49L34 49L34 47L35 47L35 46L33 46L33 45ZM4 46L4 47L3 47L3 48L4 48L4 47L5 47L5 46ZM52 46L52 47L51 47L51 48L50 48L50 50L49 50L49 51L50 51L50 54L51 54L51 55L52 55L52 54L51 54L51 51L50 51L50 50L51 50L51 48L52 48L52 47L53 47L53 48L54 48L54 49L53 49L53 50L52 50L52 51L53 51L53 50L55 50L55 48L54 48L54 47L53 47L53 46ZM16 47L16 49L15 49L15 50L14 50L14 51L15 51L15 52L16 52L16 51L15 51L15 50L16 50L16 49L17 49L17 47ZM20 48L20 49L21 49L21 48ZM26 48L26 49L25 49L25 50L26 50L26 49L27 49L27 48ZM58 49L58 50L59 50L59 49ZM29 50L29 51L30 51L30 50ZM39 50L39 51L40 51L40 50ZM3 51L3 52L4 52L4 51ZM32 51L32 52L33 52L33 55L34 55L34 54L35 54L35 53L36 53L36 52L35 52L35 51L34 51L34 52L33 52L33 51ZM6 52L6 53L7 53L7 52ZM19 52L19 53L20 53L20 52ZM60 52L60 53L61 53L61 52ZM12 53L12 54L13 54L13 53ZM29 53L29 56L32 56L32 53ZM53 53L53 56L56 56L56 53ZM57 53L57 56L60 56L60 55L58 55L58 53ZM30 54L30 55L31 55L31 54ZM39 54L39 55L41 55L41 54ZM54 54L54 55L55 55L55 54ZM13 56L13 57L14 57L14 56ZM19 56L19 57L20 57L20 60L21 60L21 57L20 57L20 56ZM40 56L40 57L41 57L41 56ZM44 56L44 57L43 57L43 58L44 58L44 57L45 57L45 58L48 58L48 57L46 57L46 56ZM54 57L54 58L52 58L52 59L55 59L55 58L56 58L56 60L60 60L60 57L58 57L58 58L56 58L56 57ZM33 58L33 59L32 59L32 60L31 60L31 61L32 61L32 60L33 60L33 59L35 59L35 58ZM37 58L37 59L38 59L38 58ZM0 0L0 7L7 7L7 0ZM1 1L1 6L6 6L6 1ZM2 2L2 5L5 5L5 2ZM54 0L54 7L61 7L61 0ZM55 1L55 6L60 6L60 1ZM56 2L56 5L59 5L59 2ZM0 54L0 61L7 61L7 54ZM1 55L1 60L6 60L6 55ZM2 56L2 59L5 59L5 56Z" fill="#000000"/></g></g></svg>
