<?xml version="1.0" encoding="UTF-8"?>
<svg xmlns="http://www.w3.org/2000/svg" version="1.1" width="200" height="200" viewBox="0 0 200 200"><rect x="0" y="0" width="200" height="200" fill="#ffffff"/><g transform="scale(3.077)"><g transform="translate(0,0)"><path fill-rule="evenodd" d="M11 0L11 1L10 1L10 2L9 2L9 1L8 1L8 2L9 2L9 3L8 3L8 4L10 4L10 7L11 7L11 6L12 6L12 7L13 7L13 5L16 5L16 4L17 4L17 5L19 5L19 6L18 6L18 7L17 7L17 6L16 6L16 10L17 10L17 11L18 11L18 10L17 10L17 9L19 9L19 11L20 11L20 9L21 9L21 12L24 12L24 13L19 13L19 12L18 12L18 13L19 13L19 14L17 14L17 16L18 16L18 17L19 17L19 20L20 20L20 21L18 21L18 20L17 20L17 21L16 21L16 19L18 19L18 18L16 18L16 17L15 17L15 16L16 16L16 14L15 14L15 13L17 13L17 12L16 12L16 11L15 11L15 9L14 9L14 8L15 8L15 6L14 6L14 8L12 8L12 9L13 9L13 10L14 10L14 11L11 11L11 9L10 9L10 8L6 8L6 9L5 9L5 8L0 8L0 11L1 11L1 9L2 9L2 10L5 10L5 13L4 13L4 14L5 14L5 15L7 15L7 16L6 16L6 17L7 17L7 18L6 18L6 19L7 19L7 20L6 20L6 21L7 21L7 20L8 20L8 19L7 19L7 18L8 18L8 17L7 17L7 16L9 16L9 15L11 15L11 14L10 14L10 13L12 13L12 14L14 14L14 15L15 15L15 16L13 16L13 15L12 15L12 16L13 16L13 17L11 17L11 16L10 16L10 17L11 17L11 18L9 18L9 21L8 21L8 22L5 22L5 20L4 20L4 18L5 18L5 17L4 17L4 15L3 15L3 16L2 16L2 14L3 14L3 13L1 13L1 14L0 14L0 17L1 17L1 18L0 18L0 22L1 22L1 23L0 23L0 25L2 25L2 26L1 26L1 27L2 27L2 26L3 26L3 25L2 25L2 24L3 24L3 23L4 23L4 26L5 26L5 29L7 29L7 28L10 28L10 29L8 29L8 30L4 30L4 29L3 29L3 28L0 28L0 29L3 29L3 31L2 31L2 30L0 30L0 34L1 34L1 33L2 33L2 34L3 34L3 33L4 33L4 35L0 35L0 38L2 38L2 39L1 39L1 40L2 40L2 41L3 41L3 42L1 42L1 43L2 43L2 46L1 46L1 45L0 45L0 46L1 46L1 48L0 48L0 49L1 49L1 50L3 50L3 52L2 52L2 55L3 55L3 56L1 56L1 55L0 55L0 56L1 56L1 57L3 57L3 56L4 56L4 57L5 57L5 56L4 56L4 54L5 54L5 55L8 55L8 54L9 54L9 57L8 57L8 56L6 56L6 57L8 57L8 59L10 59L10 58L11 58L11 57L10 57L10 56L11 56L11 55L13 55L13 57L14 57L14 59L11 59L11 61L12 61L12 62L13 62L13 63L15 63L15 65L16 65L16 63L15 63L15 62L16 62L16 61L15 61L15 60L16 60L16 59L17 59L17 58L15 58L15 57L17 57L17 56L15 56L15 55L13 55L13 53L14 53L14 54L15 54L15 53L18 53L18 54L19 54L19 55L21 55L21 56L20 56L20 57L19 57L19 56L18 56L18 57L19 57L19 58L18 58L18 59L19 59L19 58L20 58L20 59L21 59L21 58L23 58L23 57L22 57L22 55L23 55L23 54L22 54L22 53L23 53L23 52L25 52L25 53L24 53L24 56L26 56L26 54L25 54L25 53L29 53L29 52L27 52L27 51L28 51L28 50L25 50L25 49L26 49L26 48L27 48L27 49L29 49L29 50L32 50L32 51L34 51L34 53L33 53L33 52L32 52L32 53L33 53L33 54L32 54L32 56L31 56L31 55L30 55L30 54L31 54L31 53L30 53L30 54L28 54L28 56L27 56L27 57L24 57L24 58L26 58L26 60L27 60L27 57L30 57L30 58L29 58L29 59L30 59L30 60L29 60L29 61L31 61L31 62L29 62L29 64L28 64L28 63L27 63L27 65L32 65L32 64L33 64L33 63L35 63L35 62L34 62L34 61L35 61L35 57L37 57L37 56L39 56L39 57L40 57L40 56L41 56L41 55L40 55L40 52L41 52L41 54L43 54L43 55L42 55L42 58L43 58L43 59L41 59L41 58L40 58L40 59L39 59L39 58L38 58L38 59L39 59L39 60L41 60L41 61L42 61L42 62L40 62L40 61L39 61L39 62L37 62L37 63L38 63L38 65L39 65L39 64L41 64L41 65L44 65L44 64L46 64L46 63L47 63L47 65L50 65L50 64L48 64L48 63L49 63L49 62L48 62L48 63L47 63L47 62L45 62L45 63L44 63L44 62L43 62L43 61L44 61L44 60L46 60L46 59L48 59L48 60L47 60L47 61L51 61L51 62L50 62L50 63L51 63L51 65L52 65L52 64L54 64L54 65L55 65L55 64L54 64L54 63L52 63L52 62L55 62L55 63L56 63L56 64L57 64L57 65L60 65L60 64L62 64L62 65L63 65L63 64L64 64L64 60L65 60L65 59L63 59L63 58L65 58L65 57L64 57L64 56L65 56L65 55L64 55L64 56L62 56L62 54L61 54L61 53L60 53L60 52L62 52L62 53L63 53L63 54L65 54L65 52L64 52L64 50L65 50L65 49L64 49L64 48L62 48L62 45L63 45L63 46L64 46L64 45L63 45L63 44L64 44L64 43L63 43L63 44L62 44L62 42L61 42L61 41L60 41L60 40L62 40L62 41L63 41L63 42L65 42L65 41L63 41L63 40L62 40L62 39L61 39L61 38L62 38L62 37L63 37L63 38L65 38L65 37L64 37L64 36L65 36L65 35L63 35L63 34L65 34L65 31L63 31L63 32L62 32L62 31L61 31L61 30L63 30L63 28L64 28L64 30L65 30L65 28L64 28L64 27L63 27L63 26L65 26L65 24L62 24L62 22L61 22L61 24L58 24L58 23L59 23L59 22L58 22L58 23L57 23L57 24L56 24L56 22L55 22L55 20L56 20L56 21L59 21L59 20L58 20L58 19L59 19L59 18L60 18L60 19L61 19L61 20L60 20L60 21L61 21L61 20L62 20L62 21L63 21L63 22L65 22L65 21L64 21L64 20L62 20L62 19L63 19L63 18L65 18L65 15L64 15L64 14L65 14L65 13L63 13L63 12L65 12L65 11L63 11L63 10L65 10L65 9L64 9L64 8L63 8L63 10L62 10L62 8L61 8L61 9L60 9L60 8L59 8L59 10L58 10L58 8L55 8L55 9L53 9L53 10L55 10L55 11L54 11L54 12L55 12L55 11L57 11L57 12L56 12L56 13L59 13L59 12L58 12L58 11L61 11L61 12L60 12L60 14L59 14L59 15L60 15L60 16L59 16L59 18L57 18L57 19L55 19L55 20L54 20L54 19L52 19L52 18L50 18L50 17L51 17L51 16L53 16L53 18L55 18L55 16L56 16L56 17L58 17L58 14L57 14L57 16L56 16L56 14L55 14L55 13L54 13L54 14L53 14L53 13L52 13L52 15L51 15L51 14L50 14L50 11L51 11L51 12L53 12L53 11L51 11L51 10L52 10L52 9L51 9L51 10L50 10L50 8L48 8L48 7L49 7L49 6L50 6L50 7L51 7L51 8L54 8L54 7L55 7L55 5L54 5L54 4L56 4L56 5L57 5L57 4L56 4L56 3L57 3L57 1L56 1L56 0L55 0L55 1L56 1L56 3L55 3L55 2L54 2L54 4L52 4L52 7L51 7L51 5L50 5L50 3L51 3L51 2L52 2L52 3L53 3L53 2L52 2L52 1L54 1L54 0L52 0L52 1L50 1L50 0L49 0L49 1L50 1L50 2L49 2L49 3L47 3L47 2L48 2L48 1L46 1L46 0L44 0L44 1L43 1L43 0L42 0L42 1L43 1L43 2L44 2L44 3L45 3L45 2L46 2L46 4L49 4L49 5L46 5L46 7L45 7L45 4L44 4L44 7L43 7L43 6L42 6L42 8L41 8L41 5L38 5L38 4L39 4L39 3L42 3L42 5L43 5L43 3L42 3L42 2L39 2L39 1L40 1L40 0L39 0L39 1L38 1L38 0L37 0L37 1L36 1L36 0L35 0L35 1L34 1L34 2L33 2L33 3L34 3L34 4L30 4L30 7L29 7L29 6L28 6L28 7L27 7L27 5L26 5L26 4L24 4L24 2L23 2L23 5L24 5L24 8L23 8L23 9L21 9L21 5L20 5L20 4L22 4L22 3L20 3L20 4L19 4L19 1L20 1L20 0L19 0L19 1L18 1L18 2L16 2L16 1L15 1L15 0ZM21 0L21 2L22 2L22 1L23 1L23 0ZM24 0L24 1L25 1L25 0ZM26 0L26 1L27 1L27 2L28 2L28 0ZM30 0L30 1L31 1L31 0ZM32 0L32 1L33 1L33 0ZM12 1L12 2L10 2L10 3L11 3L11 5L13 5L13 4L12 4L12 3L16 3L16 2L15 2L15 1L14 1L14 2L13 2L13 1ZM35 1L35 2L34 2L34 3L37 3L37 2L38 2L38 1L37 1L37 2L36 2L36 1ZM25 2L25 3L26 3L26 2ZM30 2L30 3L32 3L32 2ZM17 3L17 4L18 4L18 3ZM27 3L27 4L29 4L29 3ZM35 4L35 5L36 5L36 6L35 6L35 7L36 7L36 8L40 8L40 9L34 9L34 10L33 10L33 9L32 9L32 10L31 10L31 11L34 11L34 12L35 12L35 13L33 13L33 12L32 12L32 13L31 13L31 12L29 12L29 11L30 11L30 10L29 10L29 9L30 9L30 8L29 8L29 7L28 7L28 8L29 8L29 9L27 9L27 7L26 7L26 5L25 5L25 8L24 8L24 9L25 9L25 10L22 10L22 11L24 11L24 12L26 12L26 13L27 13L27 14L25 14L25 13L24 13L24 14L22 14L22 15L24 15L24 16L22 16L22 17L27 17L27 18L29 18L29 21L25 21L25 20L26 20L26 19L25 19L25 20L24 20L24 21L25 21L25 22L23 22L23 21L22 21L22 20L21 20L21 19L22 19L22 18L21 18L21 17L20 17L20 20L21 20L21 21L20 21L20 23L19 23L19 22L18 22L18 21L17 21L17 22L18 22L18 23L17 23L17 25L16 25L16 26L17 26L17 27L16 27L16 28L15 28L15 27L14 27L14 29L13 29L13 26L15 26L15 25L14 25L14 24L16 24L16 23L15 23L15 22L16 22L16 21L15 21L15 19L14 19L14 18L15 18L15 17L14 17L14 18L13 18L13 19L12 19L12 18L11 18L11 21L12 21L12 22L10 22L10 25L11 25L11 23L13 23L13 25L12 25L12 29L13 29L13 30L11 30L11 29L10 29L10 30L11 30L11 32L13 32L13 33L15 33L15 32L14 32L14 31L16 31L16 32L17 32L17 33L16 33L16 34L12 34L12 35L14 35L14 36L13 36L13 38L12 38L12 36L11 36L11 33L9 33L9 34L10 34L10 35L9 35L9 36L10 36L10 38L9 38L9 37L5 37L5 36L7 36L7 35L4 35L4 36L3 36L3 37L2 37L2 36L1 36L1 37L2 37L2 38L3 38L3 37L4 37L4 38L5 38L5 39L2 39L2 40L4 40L4 42L3 42L3 43L5 43L5 44L7 44L7 43L5 43L5 39L6 39L6 40L8 40L8 41L6 41L6 42L8 42L8 41L10 41L10 42L11 42L11 43L12 43L12 44L11 44L11 45L13 45L13 44L15 44L15 43L16 43L16 45L15 45L15 46L13 46L13 47L12 47L12 46L10 46L10 47L12 47L12 50L13 50L13 51L14 51L14 53L15 53L15 52L16 52L16 50L18 50L18 51L17 51L17 52L18 52L18 53L19 53L19 52L21 52L21 53L20 53L20 54L21 54L21 55L22 55L22 54L21 54L21 53L22 53L22 52L21 52L21 51L22 51L22 50L21 50L21 49L25 49L25 48L26 48L26 47L27 47L27 48L28 48L28 47L27 47L27 46L28 46L28 45L29 45L29 46L30 46L30 47L31 47L31 46L32 46L32 47L33 47L33 48L34 48L34 49L35 49L35 50L34 50L34 51L35 51L35 52L37 52L37 54L39 54L39 53L38 53L38 52L40 52L40 51L43 51L43 52L44 52L44 53L45 53L45 54L44 54L44 55L43 55L43 57L44 57L44 59L43 59L43 60L44 60L44 59L45 59L45 58L48 58L48 59L50 59L50 58L51 58L51 57L50 57L50 58L49 58L49 57L46 57L46 56L49 56L49 55L50 55L50 54L52 54L52 55L53 55L53 54L52 54L52 53L54 53L54 51L55 51L55 50L56 50L56 51L58 51L58 52L57 52L57 53L56 53L56 52L55 52L55 54L54 54L54 56L55 56L55 57L56 57L56 55L59 55L59 53L58 53L58 52L59 52L59 51L60 51L60 49L61 49L61 48L54 48L54 47L53 47L53 45L55 45L55 47L57 47L57 45L56 45L56 44L54 44L54 43L55 43L55 42L56 42L56 39L55 39L55 38L57 38L57 39L59 39L59 38L58 38L58 37L62 37L62 36L63 36L63 35L62 35L62 34L61 34L61 35L62 35L62 36L60 36L60 35L58 35L58 36L57 36L57 37L56 37L56 36L54 36L54 35L56 35L56 34L54 34L54 33L55 33L55 32L56 32L56 30L61 30L61 29L62 29L62 28L63 28L63 27L62 27L62 26L59 26L59 25L58 25L58 26L57 26L57 25L56 25L56 24L54 24L54 23L55 23L55 22L54 22L54 20L51 20L51 19L50 19L50 18L49 18L49 17L48 17L48 20L51 20L51 21L47 21L47 19L46 19L46 18L47 18L47 17L46 17L46 18L45 18L45 16L44 16L44 15L45 15L45 14L48 14L48 13L47 13L47 12L49 12L49 11L48 11L48 10L49 10L49 9L48 9L48 10L47 10L47 9L46 9L46 8L47 8L47 7L48 7L48 6L47 6L47 7L46 7L46 8L43 8L43 10L42 10L42 9L41 9L41 8L40 8L40 6L39 6L39 7L38 7L38 5L37 5L37 4ZM8 5L8 7L9 7L9 5ZM31 5L31 8L34 8L34 5ZM53 5L53 7L54 7L54 5ZM19 6L19 7L20 7L20 6ZM22 6L22 7L23 7L23 6ZM32 6L32 7L33 7L33 6ZM36 6L36 7L37 7L37 6ZM56 6L56 7L57 7L57 6ZM19 8L19 9L20 9L20 8ZM25 8L25 9L26 9L26 10L25 10L25 11L26 11L26 12L27 12L27 13L28 13L28 14L27 14L27 15L26 15L26 16L27 16L27 15L28 15L28 17L29 17L29 18L30 18L30 20L31 20L31 19L32 19L32 20L33 20L33 19L37 19L37 20L35 20L35 22L32 22L32 21L31 21L31 22L30 22L30 21L29 21L29 22L30 22L30 24L31 24L31 25L29 25L29 24L28 24L28 25L29 25L29 28L31 28L31 29L30 29L30 31L29 31L29 32L28 32L28 31L27 31L27 30L28 30L28 29L26 29L26 32L27 32L27 33L26 33L26 34L27 34L27 33L29 33L29 32L30 32L30 35L33 35L33 38L32 38L32 37L31 37L31 36L28 36L28 37L30 37L30 38L26 38L26 37L24 37L24 39L23 39L23 38L22 38L22 39L21 39L21 38L20 38L20 37L22 37L22 36L21 36L21 35L22 35L22 34L23 34L23 35L24 35L24 36L26 36L26 35L24 35L24 34L25 34L25 33L24 33L24 32L25 32L25 28L23 28L23 26L25 26L25 27L26 27L26 26L27 26L27 25L26 25L26 24L27 24L27 23L28 23L28 22L25 22L25 23L24 23L24 24L25 24L25 25L21 25L21 24L22 24L22 23L23 23L23 22L22 22L22 21L21 21L21 22L22 22L22 23L20 23L20 25L19 25L19 23L18 23L18 25L19 25L19 26L18 26L18 27L19 27L19 28L18 28L18 29L17 29L17 30L18 30L18 31L20 31L20 30L18 30L18 29L20 29L20 28L21 28L21 27L20 27L20 25L21 25L21 26L22 26L22 28L23 28L23 29L21 29L21 30L22 30L22 31L21 31L21 32L18 32L18 33L17 33L17 34L18 34L18 35L16 35L16 37L17 37L17 38L14 38L14 40L13 40L13 41L12 41L12 40L10 40L10 39L12 39L12 38L10 38L10 39L8 39L8 38L6 38L6 39L8 39L8 40L10 40L10 41L12 41L12 43L13 43L13 42L14 42L14 41L17 41L17 42L18 42L18 41L19 41L19 44L18 44L18 45L19 45L19 46L20 46L20 47L19 47L19 48L18 48L18 49L19 49L19 50L20 50L20 51L21 51L21 50L20 50L20 49L21 49L21 48L24 48L24 47L22 47L22 46L24 46L24 45L25 45L25 46L27 46L27 45L28 45L28 44L29 44L29 45L31 45L31 44L32 44L32 43L33 43L33 45L35 45L35 44L36 44L36 45L38 45L38 43L40 43L40 44L42 44L42 45L41 45L41 47L39 47L39 46L36 46L36 48L35 48L35 47L34 47L34 46L33 46L33 47L34 47L34 48L35 48L35 49L37 49L37 47L39 47L39 48L38 48L38 49L39 49L39 48L41 48L41 47L42 47L42 48L43 48L43 49L41 49L41 50L43 50L43 51L44 51L44 52L46 52L46 50L45 50L45 51L44 51L44 48L45 48L45 49L48 49L48 50L47 50L47 51L49 51L49 50L50 50L50 53L51 53L51 52L53 52L53 51L52 51L52 50L53 50L53 49L51 49L51 46L50 46L50 45L51 45L51 44L53 44L53 42L55 42L55 41L54 41L54 38L55 38L55 37L53 37L53 38L52 38L52 37L51 37L51 36L53 36L53 35L51 35L51 34L53 34L53 33L51 33L51 34L50 34L50 32L54 32L54 31L53 31L53 29L51 29L51 30L50 30L50 29L49 29L49 28L50 28L50 27L51 27L51 28L53 28L53 27L52 27L52 26L55 26L55 28L56 28L56 29L54 29L54 30L56 30L56 29L57 29L57 28L58 28L58 27L59 27L59 26L58 26L58 27L57 27L57 28L56 28L56 25L54 25L54 24L53 24L53 23L52 23L52 22L50 22L50 23L49 23L49 22L48 22L48 23L47 23L47 22L45 22L45 21L44 21L44 22L45 22L45 23L44 23L44 24L46 24L46 23L47 23L47 26L45 26L45 25L44 25L44 28L45 28L45 29L42 29L42 28L41 28L41 27L42 27L42 26L43 26L43 24L41 24L41 23L42 23L42 22L43 22L43 21L41 21L41 23L39 23L39 22L38 22L38 21L40 21L40 20L41 20L41 19L40 19L40 18L38 18L38 16L41 16L41 14L42 14L42 16L43 16L43 17L42 17L42 18L43 18L43 19L42 19L42 20L45 20L45 19L44 19L44 16L43 16L43 13L41 13L41 14L40 14L40 13L39 13L39 15L38 15L38 12L41 12L41 11L42 11L42 12L43 12L43 11L42 11L42 10L40 10L40 11L39 11L39 10L37 10L37 12L36 12L36 10L34 10L34 11L35 11L35 12L36 12L36 13L35 13L35 14L33 14L33 13L32 13L32 14L31 14L31 15L32 15L32 16L35 16L35 18L34 18L34 17L33 17L33 18L32 18L32 17L31 17L31 16L30 16L30 15L29 15L29 14L30 14L30 13L28 13L28 10L27 10L27 9L26 9L26 8ZM6 9L6 10L7 10L7 9ZM9 9L9 10L8 10L8 11L9 11L9 12L11 12L11 11L10 11L10 9ZM44 9L44 10L45 10L45 11L44 11L44 12L47 12L47 10L45 10L45 9ZM56 9L56 10L57 10L57 9ZM2 11L2 12L3 12L3 11ZM6 11L6 12L7 12L7 13L6 13L6 14L7 14L7 15L8 15L8 12L7 12L7 11ZM62 11L62 12L61 12L61 13L62 13L62 12L63 12L63 11ZM12 12L12 13L13 13L13 12ZM36 13L36 14L35 14L35 16L38 16L38 15L36 15L36 14L37 14L37 13ZM44 13L44 14L45 14L45 13ZM19 14L19 15L20 15L20 14ZM49 14L49 15L46 15L46 16L51 16L51 15L50 15L50 14ZM54 14L54 15L55 15L55 14ZM60 14L60 15L62 15L62 16L61 16L61 19L62 19L62 18L63 18L63 17L62 17L62 16L64 16L64 15L63 15L63 14ZM29 16L29 17L30 17L30 18L31 18L31 17L30 17L30 16ZM1 18L1 20L2 20L2 21L1 21L1 22L2 22L2 23L3 23L3 22L2 22L2 21L4 21L4 20L3 20L3 19L2 19L2 18ZM37 18L37 19L38 19L38 18ZM27 19L27 20L28 20L28 19ZM39 19L39 20L40 20L40 19ZM37 20L37 21L38 21L38 20ZM13 21L13 22L15 22L15 21ZM31 22L31 24L33 24L33 23L32 23L32 22ZM35 22L35 23L34 23L34 24L38 24L38 25L37 25L37 27L36 27L36 28L35 28L35 27L34 27L34 26L35 26L35 25L34 25L34 26L33 26L33 28L32 28L32 27L31 27L31 28L32 28L32 30L33 30L33 29L34 29L34 30L35 30L35 31L36 31L36 32L37 32L37 30L35 30L35 29L36 29L36 28L37 28L37 29L38 29L38 30L39 30L39 29L40 29L40 31L41 31L41 28L37 28L37 27L38 27L38 26L39 26L39 23L38 23L38 22ZM5 23L5 24L7 24L7 23ZM8 23L8 25L6 25L6 26L7 26L7 27L6 27L6 28L7 28L7 27L9 27L9 23ZM48 23L48 24L49 24L49 25L50 25L50 26L47 26L47 28L46 28L46 27L45 27L45 28L46 28L46 29L45 29L45 30L47 30L47 32L50 32L50 30L49 30L49 29L47 29L47 28L49 28L49 27L50 27L50 26L51 26L51 25L53 25L53 24L51 24L51 23L50 23L50 24L49 24L49 23ZM40 24L40 25L41 25L41 26L40 26L40 27L41 27L41 26L42 26L42 25L41 25L41 24ZM25 25L25 26L26 26L26 25ZM31 25L31 26L32 26L32 25ZM10 27L10 28L11 28L11 27ZM61 27L61 28L60 28L60 29L61 29L61 28L62 28L62 27ZM15 29L15 30L16 30L16 29ZM23 29L23 30L24 30L24 29ZM48 30L48 31L49 31L49 30ZM51 30L51 31L52 31L52 30ZM1 31L1 32L2 32L2 31ZM5 31L5 34L8 34L8 31ZM22 31L22 33L23 33L23 32L24 32L24 31ZM31 31L31 34L34 34L34 31ZM38 31L38 33L37 33L37 35L36 35L36 34L35 34L35 35L36 35L36 36L34 36L34 37L36 37L36 36L37 36L37 35L38 35L38 37L37 37L37 39L35 39L35 38L34 38L34 39L35 39L35 40L37 40L37 41L36 41L36 42L37 42L37 43L36 43L36 44L37 44L37 43L38 43L38 42L40 42L40 43L41 43L41 42L42 42L42 44L44 44L44 46L42 46L42 47L43 47L43 48L44 48L44 47L45 47L45 46L47 46L47 47L46 47L46 48L49 48L49 49L50 49L50 50L51 50L51 49L50 49L50 48L49 48L49 47L50 47L50 46L49 46L49 47L48 47L48 46L47 46L47 44L49 44L49 45L50 45L50 43L52 43L52 42L53 42L53 40L52 40L52 42L51 42L51 39L50 39L50 43L48 43L48 42L47 42L47 41L45 41L45 40L46 40L46 39L45 39L45 38L48 38L48 39L47 39L47 40L49 40L49 38L51 38L51 37L50 37L50 36L51 36L51 35L50 35L50 34L47 34L47 33L46 33L46 34L47 34L47 35L45 35L45 34L42 34L42 32L43 32L43 31L42 31L42 32L39 32L39 31ZM57 31L57 34L60 34L60 31ZM6 32L6 33L7 33L7 32ZM32 32L32 33L33 33L33 32ZM44 32L44 33L45 33L45 32ZM58 32L58 33L59 33L59 32ZM61 32L61 33L62 33L62 32ZM63 32L63 33L64 33L64 32ZM18 33L18 34L19 34L19 33ZM20 33L20 34L21 34L21 33ZM39 33L39 34L38 34L38 35L39 35L39 36L42 36L42 37L41 37L41 38L43 38L43 40L42 40L42 42L43 42L43 40L45 40L45 39L44 39L44 37L43 37L43 35L41 35L41 34L40 34L40 33ZM39 34L39 35L40 35L40 34ZM44 35L44 36L45 36L45 37L47 37L47 36L45 36L45 35ZM17 36L17 37L18 37L18 36ZM19 36L19 37L20 37L20 36ZM48 36L48 38L49 38L49 36ZM39 37L39 38L38 38L38 39L40 39L40 40L38 40L38 41L40 41L40 40L41 40L41 39L40 39L40 37ZM17 38L17 41L18 41L18 40L19 40L19 41L20 41L20 44L19 44L19 45L24 45L24 43L25 43L25 45L27 45L27 44L28 44L28 43L29 43L29 44L30 44L30 43L31 43L31 42L33 42L33 41L34 41L34 40L33 40L33 39L32 39L32 38L30 38L30 39L29 39L29 40L33 40L33 41L31 41L31 42L30 42L30 41L27 41L27 40L28 40L28 39L27 39L27 40L26 40L26 39L24 39L24 41L23 41L23 39L22 39L22 41L23 41L23 42L21 42L21 41L20 41L20 40L21 40L21 39L18 39L18 38ZM15 39L15 40L16 40L16 39ZM25 40L25 41L24 41L24 42L25 42L25 41L26 41L26 42L27 42L27 43L26 43L26 44L27 44L27 43L28 43L28 42L27 42L27 41L26 41L26 40ZM57 40L57 41L59 41L59 42L57 42L57 43L59 43L59 45L62 45L62 44L60 44L60 43L61 43L61 42L60 42L60 41L59 41L59 40ZM44 41L44 42L45 42L45 43L44 43L44 44L45 44L45 45L46 45L46 44L47 44L47 42L45 42L45 41ZM29 42L29 43L30 43L30 42ZM34 42L34 43L35 43L35 42ZM9 43L9 45L4 45L4 46L2 46L2 47L5 47L5 48L1 48L1 49L3 49L3 50L4 50L4 49L5 49L5 50L8 50L8 51L9 51L9 50L10 50L10 53L11 53L11 54L12 54L12 53L13 53L13 52L11 52L11 49L10 49L10 48L9 48L9 49L5 49L5 48L7 48L7 47L5 47L5 46L8 46L8 47L9 47L9 45L10 45L10 43ZM21 43L21 44L23 44L23 43ZM45 43L45 44L46 44L46 43ZM16 45L16 46L15 46L15 47L14 47L14 48L15 48L15 50L16 50L16 49L17 49L17 45ZM58 46L58 47L59 47L59 46ZM60 46L60 47L61 47L61 46ZM15 47L15 48L16 48L16 47ZM52 47L52 48L53 48L53 47ZM19 48L19 49L20 49L20 48ZM30 48L30 49L32 49L32 50L33 50L33 49L32 49L32 48ZM54 49L54 50L55 50L55 49ZM56 49L56 50L58 50L58 49ZM36 50L36 51L40 51L40 50ZM4 51L4 53L3 53L3 54L4 54L4 53L5 53L5 52L7 52L7 51ZM25 51L25 52L26 52L26 51ZM30 51L30 52L31 52L31 51ZM62 51L62 52L63 52L63 53L64 53L64 52L63 52L63 51ZM0 52L0 54L1 54L1 52ZM48 52L48 53L49 53L49 52ZM6 53L6 54L7 54L7 53ZM34 53L34 55L35 55L35 56L37 56L37 55L36 55L36 53ZM46 54L46 55L44 55L44 56L46 56L46 55L47 55L47 54ZM48 54L48 55L49 55L49 54ZM60 54L60 56L61 56L61 57L62 57L62 56L61 56L61 54ZM39 55L39 56L40 56L40 55ZM52 56L52 57L53 57L53 58L52 58L52 59L55 59L55 62L56 62L56 63L57 63L57 64L59 64L59 63L60 63L60 62L61 62L61 63L62 63L62 64L63 64L63 63L62 63L62 62L63 62L63 61L59 61L59 62L57 62L57 61L56 61L56 58L54 58L54 57L53 57L53 56ZM9 57L9 58L10 58L10 57ZM20 57L20 58L21 58L21 57ZM31 57L31 60L34 60L34 57ZM57 57L57 60L60 60L60 57ZM32 58L32 59L33 59L33 58ZM36 58L36 59L37 59L37 58ZM58 58L58 59L59 59L59 58ZM61 58L61 59L62 59L62 60L63 60L63 59L62 59L62 58ZM24 59L24 60L23 60L23 61L22 61L22 62L23 62L23 63L22 63L22 64L23 64L23 65L24 65L24 64L25 64L25 65L26 65L26 63L25 63L25 62L28 62L28 61L25 61L25 59ZM8 60L8 65L9 65L9 61L10 61L10 60ZM12 60L12 61L14 61L14 62L15 62L15 61L14 61L14 60ZM17 60L17 61L18 61L18 63L20 63L20 62L19 62L19 61L20 61L20 60ZM36 60L36 61L37 61L37 60ZM51 60L51 61L54 61L54 60ZM23 61L23 62L24 62L24 61ZM31 62L31 63L33 63L33 62ZM39 62L39 63L40 63L40 62ZM42 62L42 64L43 64L43 62ZM10 63L10 64L12 64L12 65L13 65L13 64L12 64L12 63ZM23 63L23 64L24 64L24 63ZM17 64L17 65L21 65L21 64ZM34 64L34 65L35 65L35 64ZM36 64L36 65L37 65L37 64ZM0 0L0 7L7 7L7 0ZM1 1L1 6L6 6L6 1ZM2 2L2 5L5 5L5 2ZM58 0L58 7L65 7L65 0ZM59 1L59 6L64 6L64 1ZM60 2L60 5L63 5L63 2ZM0 58L0 65L7 65L7 58ZM1 59L1 64L6 64L6 59ZM2 60L2 63L5 63L5 60Z" fill="#000000"/></g></g></svg>
