<?xml version="1.0" encoding="UTF-8"?>
<svg xmlns="http://www.w3.org/2000/svg" version="1.1" width="200" height="200" viewBox="0 0 200 200"><rect x="0" y="0" width="200" height="200" fill="#ffffff"/><g transform="scale(3.077)"><g transform="translate(0,0)"><path fill-rule="evenodd" d="M10 0L10 1L8 1L8 2L10 2L10 1L11 1L11 0ZM12 0L12 2L11 2L11 3L8 3L8 4L9 4L9 5L8 5L8 7L9 7L9 8L6 8L6 9L10 9L10 11L9 11L9 12L8 12L8 11L7 11L7 10L6 10L6 11L4 11L4 10L5 10L5 8L0 8L0 9L2 9L2 10L1 10L1 12L0 12L0 13L2 13L2 11L3 11L3 13L5 13L5 15L7 15L7 14L6 14L6 13L9 13L9 14L8 14L8 15L9 15L9 14L10 14L10 16L9 16L9 18L8 18L8 19L7 19L7 18L6 18L6 19L7 19L7 20L5 20L5 19L4 19L4 18L5 18L5 17L3 17L3 16L4 16L4 14L3 14L3 16L2 16L2 18L0 18L0 26L1 26L1 27L0 27L0 29L1 29L1 27L2 27L2 26L1 26L1 25L4 25L4 26L3 26L3 28L2 28L2 29L3 29L3 30L2 30L2 31L0 31L0 32L1 32L1 33L0 33L0 35L1 35L1 36L0 36L0 38L1 38L1 39L0 39L0 40L2 40L2 41L1 41L1 44L2 44L2 41L4 41L4 42L5 42L5 41L7 41L7 42L6 42L6 43L4 43L4 44L3 44L3 45L0 45L0 47L1 47L1 46L2 46L2 47L5 47L5 48L4 48L4 49L5 49L5 51L4 51L4 50L3 50L3 49L2 49L2 48L1 48L1 50L2 50L2 51L0 51L0 53L1 53L1 54L2 54L2 55L3 55L3 56L1 56L1 55L0 55L0 56L1 56L1 57L3 57L3 56L4 56L4 57L5 57L5 56L4 56L4 54L2 54L2 53L1 53L1 52L3 52L3 51L4 51L4 52L5 52L5 53L8 53L8 54L9 54L9 55L8 55L8 59L9 59L9 60L8 60L8 65L10 65L10 64L9 64L9 61L10 61L10 60L11 60L11 61L13 61L13 63L12 63L12 62L10 62L10 63L12 63L12 64L11 64L11 65L12 65L12 64L13 64L13 65L14 65L14 64L13 64L13 63L16 63L16 64L15 64L15 65L19 65L19 64L24 64L24 63L22 63L22 62L24 62L24 61L25 61L25 60L24 60L24 61L22 61L22 62L21 62L21 61L19 61L19 59L20 59L20 60L23 60L23 58L24 58L24 59L25 59L25 57L26 57L26 60L27 60L27 61L26 61L26 62L27 62L27 61L29 61L29 60L28 60L28 59L29 59L29 58L28 58L28 57L30 57L30 61L31 61L31 62L33 62L33 61L35 61L35 63L36 63L36 61L37 61L37 62L38 62L38 63L39 63L39 64L38 64L38 65L39 65L39 64L40 64L40 63L41 63L41 62L43 62L43 63L42 63L42 64L43 64L43 65L44 65L44 64L45 64L45 65L47 65L47 63L48 63L48 62L49 62L49 63L52 63L52 64L50 64L50 65L52 65L52 64L53 64L53 63L52 63L52 62L55 62L55 63L54 63L54 64L55 64L55 65L60 65L60 64L61 64L61 62L60 62L60 63L59 63L59 64L55 64L55 63L56 63L56 62L58 62L58 61L61 61L61 60L62 60L62 61L63 61L63 62L62 62L62 63L63 63L63 64L62 64L62 65L63 65L63 64L64 64L64 60L65 60L65 59L63 59L63 60L62 60L62 58L65 58L65 57L64 57L64 56L65 56L65 55L63 55L63 54L65 54L65 53L63 53L63 52L62 52L62 51L63 51L63 49L64 49L64 50L65 50L65 49L64 49L64 48L63 48L63 49L59 49L59 52L58 52L58 51L54 51L54 52L53 52L53 49L54 49L54 50L58 50L58 49L57 49L57 48L59 48L59 47L60 47L60 46L61 46L61 45L60 45L60 46L59 46L59 47L57 47L57 45L58 45L58 43L54 43L54 44L53 44L53 43L51 43L51 42L52 42L52 41L51 41L51 42L50 42L50 40L53 40L53 42L55 42L55 37L51 37L51 36L53 36L53 35L52 35L52 34L55 34L55 32L56 32L56 35L55 35L55 36L56 36L56 37L58 37L58 35L59 35L59 38L65 38L65 37L64 37L64 35L63 35L63 34L65 34L65 33L63 33L63 32L62 32L62 33L61 33L61 30L56 30L56 29L57 29L57 28L58 28L58 27L59 27L59 26L57 26L57 28L56 28L56 25L59 25L59 24L58 24L58 23L59 23L59 22L58 22L58 21L59 21L59 19L61 19L61 20L60 20L60 21L61 21L61 20L62 20L62 22L61 22L61 24L60 24L60 25L61 25L61 24L62 24L62 25L63 25L63 26L60 26L60 27L61 27L61 28L60 28L60 29L62 29L62 31L63 31L63 28L62 28L62 27L63 27L63 26L65 26L65 25L63 25L63 24L65 24L65 23L63 23L63 24L62 24L62 22L65 22L65 21L63 21L63 20L62 20L62 19L64 19L64 18L65 18L65 15L64 15L64 14L65 14L65 13L64 13L64 12L62 12L62 8L61 8L61 9L60 9L60 8L59 8L59 9L60 9L60 10L58 10L58 8L56 8L56 9L55 9L55 5L54 5L54 7L53 7L53 5L52 5L52 4L51 4L51 3L53 3L53 4L56 4L56 5L57 5L57 4L56 4L56 3L57 3L57 1L56 1L56 0L55 0L55 1L56 1L56 3L55 3L55 2L54 2L54 1L53 1L53 2L51 2L51 1L50 1L50 0L47 0L47 1L45 1L45 0L41 0L41 1L43 1L43 2L44 2L44 3L43 3L43 4L39 4L39 5L38 5L38 4L37 4L37 3L39 3L39 1L38 1L38 0L35 0L35 1L33 1L33 0L30 0L30 1L29 1L29 2L30 2L30 3L28 3L28 2L27 2L27 0L26 0L26 1L25 1L25 0L22 0L22 2L21 2L21 3L20 3L20 0L19 0L19 3L20 3L20 4L21 4L21 6L20 6L20 7L19 7L19 4L18 4L18 3L17 3L17 2L18 2L18 1L17 1L17 0L16 0L16 1L15 1L15 0L14 0L14 1L13 1L13 0ZM14 1L14 2L12 2L12 3L14 3L14 2L15 2L15 1ZM16 1L16 2L17 2L17 1ZM23 1L23 2L24 2L24 3L23 3L23 4L22 4L22 3L21 3L21 4L22 4L22 6L21 6L21 7L20 7L20 8L21 8L21 7L22 7L22 6L23 6L23 7L24 7L24 9L23 9L23 8L22 8L22 9L23 9L23 10L22 10L22 11L23 11L23 10L24 10L24 9L25 9L25 12L26 12L26 13L25 13L25 14L26 14L26 13L27 13L27 12L28 12L28 14L27 14L27 16L26 16L26 15L25 15L25 16L24 16L24 15L23 15L23 14L24 14L24 13L23 13L23 12L20 12L20 11L21 11L21 9L18 9L18 8L17 8L17 7L18 7L18 6L17 6L17 7L16 7L16 6L15 6L15 5L14 5L14 4L11 4L11 5L9 5L9 7L10 7L10 9L11 9L11 10L13 10L13 12L14 12L14 10L16 10L16 9L15 9L15 7L16 7L16 8L17 8L17 9L18 9L18 10L17 10L17 11L16 11L16 12L17 12L17 13L15 13L15 15L16 15L16 14L17 14L17 13L18 13L18 15L17 15L17 16L15 16L15 18L12 18L12 21L10 21L10 19L11 19L11 17L14 17L14 14L13 14L13 13L10 13L10 12L9 12L9 13L10 13L10 14L11 14L11 15L12 15L12 16L11 16L11 17L10 17L10 19L9 19L9 25L10 25L10 27L12 27L12 28L8 28L8 29L5 29L5 30L9 30L9 31L10 31L10 30L9 30L9 29L12 29L12 28L13 28L13 30L11 30L11 31L12 31L12 32L11 32L11 33L9 33L9 36L10 36L10 34L11 34L11 37L8 37L8 35L6 35L6 36L5 36L5 35L3 35L3 36L1 36L1 37L2 37L2 40L3 40L3 38L7 38L7 39L6 39L6 40L7 40L7 39L8 39L8 42L7 42L7 43L6 43L6 44L4 44L4 45L5 45L5 47L6 47L6 48L8 48L8 49L6 49L6 50L7 50L7 51L5 51L5 52L8 52L8 51L9 51L9 50L8 50L8 49L9 49L9 47L12 47L12 46L11 46L11 44L10 44L10 43L9 43L9 46L8 46L8 44L7 44L7 43L8 43L8 42L9 42L9 40L10 40L10 42L11 42L11 43L12 43L12 44L13 44L13 46L14 46L14 43L12 43L12 41L11 41L11 40L12 40L12 39L13 39L13 38L14 38L14 37L13 37L13 36L12 36L12 35L13 35L13 34L11 34L11 33L15 33L15 34L18 34L18 35L16 35L16 36L15 36L15 35L14 35L14 36L15 36L15 38L16 38L16 40L17 40L17 41L16 41L16 43L15 43L15 45L16 45L16 46L15 46L15 47L14 47L14 48L11 48L11 50L12 50L12 51L11 51L11 52L10 52L10 53L12 53L12 54L11 54L11 55L9 55L9 56L11 56L11 58L10 58L10 57L9 57L9 59L11 59L11 60L13 60L13 61L14 61L14 62L16 62L16 61L17 61L17 64L19 64L19 63L20 63L20 62L19 62L19 61L18 61L18 59L19 59L19 58L20 58L20 59L22 59L22 57L25 57L25 56L26 56L26 57L27 57L27 54L32 54L32 55L31 55L31 56L34 56L34 55L35 55L35 60L37 60L37 61L38 61L38 62L39 62L39 63L40 63L40 62L41 62L41 61L43 61L43 59L45 59L45 58L44 58L44 57L45 57L45 56L46 56L46 58L47 58L47 59L46 59L46 60L47 60L47 59L48 59L48 60L49 60L49 61L50 61L50 62L51 62L51 61L50 61L50 60L51 60L51 59L50 59L50 58L52 58L52 59L55 59L55 60L56 60L56 59L55 59L55 58L56 58L56 55L59 55L59 56L63 56L63 55L62 55L62 54L63 54L63 53L62 53L62 52L61 52L61 50L60 50L60 52L59 52L59 53L58 53L58 52L55 52L55 53L56 53L56 54L54 54L54 53L53 53L53 52L52 52L52 51L51 51L51 53L50 53L50 54L49 54L49 53L46 53L46 52L49 52L49 51L50 51L50 50L51 50L51 49L50 49L50 48L49 48L49 47L50 47L50 46L51 46L51 47L52 47L52 46L53 46L53 44L52 44L52 46L51 46L51 44L49 44L49 43L50 43L50 42L48 42L48 40L49 40L49 39L50 39L50 38L51 38L51 37L50 37L50 36L49 36L49 35L50 35L50 34L51 34L51 33L53 33L53 32L55 32L55 31L56 31L56 30L54 30L54 31L53 31L53 30L52 30L52 32L51 32L51 31L50 31L50 30L51 30L51 29L53 29L53 28L54 28L54 27L55 27L55 26L53 26L53 28L52 28L52 27L50 27L50 26L51 26L51 25L55 25L55 24L57 24L57 23L56 23L56 22L57 22L57 18L60 18L60 17L59 17L59 16L64 16L64 15L62 15L62 14L63 14L63 13L60 13L60 12L61 12L61 10L60 10L60 12L59 12L59 11L58 11L58 12L59 12L59 13L56 13L56 14L58 14L58 15L59 15L59 16L58 16L58 17L56 17L56 16L54 16L54 17L56 17L56 19L55 19L55 18L53 18L53 16L52 16L52 15L55 15L55 14L53 14L53 13L54 13L54 11L55 11L55 12L57 12L57 11L56 11L56 10L57 10L57 9L56 9L56 10L53 10L53 9L54 9L54 8L53 8L53 7L52 7L52 5L51 5L51 4L50 4L50 3L51 3L51 2L50 2L50 1L49 1L49 2L48 2L48 1L47 1L47 2L46 2L46 3L49 3L49 4L50 4L50 5L48 5L48 4L45 4L45 3L44 3L44 5L40 5L40 6L39 6L39 7L40 7L40 6L41 6L41 7L42 7L42 6L43 6L43 8L44 8L44 9L43 9L43 10L44 10L44 11L42 11L42 13L43 13L43 12L44 12L44 14L42 14L42 16L40 16L40 15L41 15L41 12L39 12L39 11L38 11L38 10L40 10L40 11L41 11L41 8L39 8L39 9L38 9L38 8L37 8L37 7L38 7L38 5L37 5L37 4L36 4L36 3L37 3L37 2L38 2L38 1L37 1L37 2L36 2L36 1L35 1L35 2L36 2L36 3L35 3L35 7L36 7L36 8L35 8L35 9L34 9L34 10L35 10L35 11L36 11L36 12L34 12L34 14L32 14L32 13L33 13L33 12L32 12L32 11L33 11L33 10L32 10L32 9L31 9L31 12L30 12L30 13L29 13L29 10L30 10L30 9L27 9L27 8L28 8L28 6L27 6L27 5L29 5L29 7L30 7L30 4L31 4L31 3L32 3L32 4L33 4L33 1L30 1L30 2L31 2L31 3L30 3L30 4L28 4L28 3L27 3L27 4L25 4L25 3L26 3L26 2L25 2L25 1ZM40 2L40 3L42 3L42 2ZM53 2L53 3L54 3L54 2ZM16 3L16 5L18 5L18 4L17 4L17 3ZM24 4L24 7L25 7L25 9L26 9L26 10L27 10L27 11L26 11L26 12L27 12L27 11L28 11L28 10L27 10L27 9L26 9L26 7L27 7L27 6L26 6L26 5L25 5L25 4ZM12 5L12 7L11 7L11 6L10 6L10 7L11 7L11 9L13 9L13 10L14 10L14 8L12 8L12 7L13 7L13 5ZM31 5L31 8L34 8L34 5ZM36 5L36 7L37 7L37 5ZM45 5L45 6L44 6L44 8L45 8L45 6L46 6L46 9L47 9L47 10L45 10L45 11L44 11L44 12L45 12L45 11L47 11L47 10L48 10L48 11L49 11L49 12L48 12L48 13L50 13L50 11L52 11L52 12L53 12L53 11L52 11L52 10L50 10L50 9L49 9L49 8L47 8L47 6L48 6L48 7L49 7L49 6L48 6L48 5L47 5L47 6L46 6L46 5ZM50 5L50 7L51 7L51 8L52 8L52 7L51 7L51 5ZM14 6L14 7L15 7L15 6ZM25 6L25 7L26 7L26 6ZM32 6L32 7L33 7L33 6ZM56 6L56 7L57 7L57 6ZM36 8L36 9L35 9L35 10L38 10L38 9L37 9L37 8ZM63 8L63 10L65 10L65 9L64 9L64 8ZM48 9L48 10L49 10L49 11L50 11L50 10L49 10L49 9ZM18 10L18 11L19 11L19 10ZM6 11L6 12L7 12L7 11ZM37 11L37 12L36 12L36 13L37 13L37 14L36 14L36 15L37 15L37 16L35 16L35 14L34 14L34 15L31 15L31 13L32 13L32 12L31 12L31 13L30 13L30 14L29 14L29 15L28 15L28 16L27 16L27 17L26 17L26 16L25 16L25 17L22 17L22 15L21 15L21 16L18 16L18 17L19 17L19 18L18 18L18 19L17 19L17 17L16 17L16 18L15 18L15 19L14 19L14 20L13 20L13 21L12 21L12 22L13 22L13 24L16 24L16 25L17 25L17 26L16 26L16 28L15 28L15 26L14 26L14 25L13 25L13 26L12 26L12 23L11 23L11 26L12 26L12 27L13 27L13 28L14 28L14 29L16 29L16 30L15 30L15 31L16 31L16 32L15 32L15 33L17 33L17 30L18 30L18 31L19 31L19 32L18 32L18 33L19 33L19 36L20 36L20 37L18 37L18 36L16 36L16 37L18 37L18 39L20 39L20 37L21 37L21 40L18 40L18 41L17 41L17 42L18 42L18 45L20 45L20 44L21 44L21 43L20 43L20 44L19 44L19 42L18 42L18 41L21 41L21 42L22 42L22 44L23 44L23 45L21 45L21 48L19 48L19 47L20 47L20 46L19 46L19 47L18 47L18 46L17 46L17 47L18 47L18 49L19 49L19 50L18 50L18 51L17 51L17 50L16 50L16 51L17 51L17 52L16 52L16 53L17 53L17 54L15 54L15 58L14 58L14 55L13 55L13 57L12 57L12 58L14 58L14 59L13 59L13 60L14 60L14 61L16 61L16 59L18 59L18 58L16 58L16 57L17 57L17 56L16 56L16 55L18 55L18 57L22 57L22 56L23 56L23 55L22 55L22 54L21 54L21 56L20 56L20 55L19 55L19 54L20 54L20 53L22 53L22 52L20 52L20 53L19 53L19 51L20 51L20 49L21 49L21 51L22 51L22 50L23 50L23 52L24 52L24 53L23 53L23 54L26 54L26 53L25 53L25 52L26 52L26 51L25 51L25 49L26 49L26 50L27 50L27 53L34 53L34 54L36 54L36 55L37 55L37 54L38 54L38 55L39 55L39 54L38 54L38 53L37 53L37 52L35 52L35 51L36 51L36 50L37 50L37 48L39 48L39 47L40 47L40 48L41 48L41 47L40 47L40 46L43 46L43 49L42 49L42 50L44 50L44 48L47 48L47 46L48 46L48 47L49 47L49 46L48 46L48 45L49 45L49 44L48 44L48 45L47 45L47 43L48 43L48 42L46 42L46 41L47 41L47 40L46 40L46 39L47 39L47 38L50 38L50 37L49 37L49 36L46 36L46 35L47 35L47 34L45 34L45 35L44 35L44 34L43 34L43 33L44 33L44 32L46 32L46 33L49 33L49 34L48 34L48 35L49 35L49 34L50 34L50 31L49 31L49 30L48 30L48 31L47 31L47 30L46 30L46 29L47 29L47 28L48 28L48 29L49 29L49 28L48 28L48 26L46 26L46 25L45 25L45 27L44 27L44 28L43 28L43 27L40 27L40 26L44 26L44 24L45 24L45 22L44 22L44 23L43 23L43 25L42 25L42 22L43 22L43 21L44 21L44 20L46 20L46 19L49 19L49 20L47 20L47 21L48 21L48 22L46 22L46 24L47 24L47 25L49 25L49 26L50 26L50 25L51 25L51 24L53 24L53 23L52 23L52 22L50 22L50 19L51 19L51 20L54 20L54 21L53 21L53 22L54 22L54 23L55 23L55 22L56 22L56 21L55 21L55 19L52 19L52 18L50 18L50 17L51 17L51 16L46 16L46 15L47 15L47 14L46 14L46 13L45 13L45 15L44 15L44 16L43 16L43 17L42 17L42 18L44 18L44 20L43 20L43 21L42 21L42 19L40 19L40 18L41 18L41 17L40 17L40 18L38 18L38 19L37 19L37 20L36 20L36 21L35 21L35 22L33 22L33 21L34 21L34 20L33 20L33 19L36 19L36 18L37 18L37 16L38 16L38 17L39 17L39 14L38 14L38 13L39 13L39 12L38 12L38 11ZM18 12L18 13L20 13L20 12ZM37 12L37 13L38 13L38 12ZM21 13L21 14L23 14L23 13ZM51 13L51 14L50 14L50 15L52 15L52 13ZM0 14L0 17L1 17L1 14ZM19 14L19 15L20 15L20 14ZM37 14L37 15L38 15L38 14ZM60 14L60 15L61 15L61 14ZM6 16L6 17L7 17L7 16ZM30 16L30 17L32 17L32 18L33 18L33 16ZM44 16L44 18L49 18L49 17L46 17L46 16ZM20 17L20 18L21 18L21 17ZM27 17L27 18L25 18L25 19L26 19L26 20L23 20L23 18L22 18L22 19L19 19L19 20L22 20L22 21L20 21L20 22L19 22L19 23L17 23L17 21L18 21L18 20L17 20L17 19L15 19L15 21L13 21L13 22L15 22L15 23L16 23L16 24L17 24L17 25L18 25L18 26L17 26L17 28L16 28L16 29L18 29L18 30L19 30L19 31L20 31L20 30L19 30L19 29L24 29L24 30L22 30L22 31L24 31L24 32L22 32L22 33L20 33L20 32L19 32L19 33L20 33L20 36L21 36L21 37L22 37L22 38L24 38L24 37L25 37L25 38L26 38L26 41L27 41L27 40L33 40L33 39L34 39L34 40L35 40L35 41L31 41L31 42L32 42L32 43L31 43L31 44L33 44L33 43L35 43L35 44L37 44L37 45L30 45L30 43L29 43L29 42L30 42L30 41L28 41L28 43L27 43L27 42L24 42L24 44L25 44L25 45L27 45L27 44L28 44L28 43L29 43L29 45L28 45L28 46L30 46L30 47L29 47L29 48L30 48L30 47L31 47L31 49L28 49L28 50L30 50L30 51L28 51L28 52L34 52L34 51L35 51L35 49L34 49L34 47L35 47L35 48L37 48L37 47L38 47L38 46L39 46L39 45L42 45L42 44L40 44L40 43L43 43L43 44L44 44L44 47L45 47L45 44L44 44L44 43L45 43L45 40L44 40L44 39L46 39L46 38L47 38L47 37L46 37L46 36L44 36L44 35L43 35L43 34L42 34L42 33L43 33L43 32L44 32L44 31L43 31L43 30L41 30L41 28L38 28L38 26L40 26L40 25L41 25L41 24L39 24L39 23L40 23L40 22L41 22L41 20L40 20L40 22L39 22L39 19L38 19L38 22L39 22L39 23L36 23L36 24L35 24L35 23L34 23L34 24L35 24L35 25L34 25L34 26L33 26L33 28L32 28L32 30L33 30L33 29L34 29L34 30L35 30L35 29L36 29L36 28L38 28L38 30L37 30L37 31L35 31L35 32L37 32L37 35L36 35L36 34L35 34L35 36L34 36L34 37L35 37L35 36L37 36L37 37L36 37L36 38L37 38L37 39L36 39L36 40L35 40L35 38L33 38L33 37L32 37L32 36L33 36L33 35L31 35L31 39L28 39L28 38L30 38L30 36L29 36L29 37L25 37L25 36L26 36L26 35L25 35L25 36L23 36L23 37L22 37L22 36L21 36L21 35L22 35L22 33L25 33L25 34L26 34L26 33L27 33L27 30L29 30L29 31L28 31L28 32L29 32L29 33L28 33L28 35L27 35L27 36L28 36L28 35L29 35L29 33L30 33L30 32L29 32L29 31L30 31L30 30L29 30L29 29L31 29L31 28L29 28L29 27L30 27L30 26L29 26L29 25L31 25L31 27L32 27L32 25L33 25L33 24L32 24L32 23L33 23L33 22L32 22L32 21L33 21L33 20L30 20L30 19L31 19L31 18L30 18L30 19L28 19L28 20L30 20L30 21L27 21L27 18L29 18L29 17ZM34 17L34 18L36 18L36 17ZM61 17L61 19L62 19L62 18L63 18L63 17ZM1 19L1 23L2 23L2 19ZM7 20L7 21L4 21L4 22L5 22L5 23L4 23L4 25L6 25L6 26L4 26L4 28L3 28L3 29L4 29L4 28L7 28L7 27L6 27L6 26L7 26L7 25L6 25L6 24L7 24L7 23L6 23L6 22L7 22L7 21L8 21L8 20ZM15 21L15 22L16 22L16 21ZM24 21L24 22L25 22L25 23L24 23L24 24L25 24L25 25L22 25L22 24L23 24L23 23L22 23L22 22L20 22L20 23L19 23L19 24L18 24L18 25L22 25L22 27L23 27L23 28L24 28L24 29L25 29L25 28L26 28L26 26L27 26L27 28L28 28L28 29L29 29L29 28L28 28L28 27L29 27L29 26L27 26L27 25L26 25L26 24L25 24L25 23L27 23L27 22L26 22L26 21ZM30 21L30 22L29 22L29 23L30 23L30 24L31 24L31 21ZM48 22L48 23L47 23L47 24L49 24L49 23L50 23L50 24L51 24L51 23L50 23L50 22ZM28 24L28 25L29 25L29 24ZM36 24L36 25L35 25L35 26L34 26L34 27L35 27L35 26L36 26L36 27L37 27L37 26L38 26L38 25L39 25L39 24ZM25 25L25 26L23 26L23 27L24 27L24 28L25 28L25 26L26 26L26 25ZM13 26L13 27L14 27L14 26ZM20 26L20 27L21 27L21 26ZM46 27L46 28L47 28L47 27ZM18 28L18 29L19 29L19 28ZM34 28L34 29L35 29L35 28ZM44 28L44 30L45 30L45 31L46 31L46 32L47 32L47 31L46 31L46 30L45 30L45 28ZM50 28L50 29L51 29L51 28ZM55 28L55 29L56 29L56 28ZM64 28L64 30L65 30L65 28ZM26 29L26 30L25 30L25 31L26 31L26 30L27 30L27 29ZM39 29L39 30L38 30L38 31L39 31L39 32L38 32L38 33L39 33L39 32L41 32L41 31L39 31L39 30L40 30L40 29ZM5 31L5 34L8 34L8 31ZM13 31L13 32L14 32L14 31ZM31 31L31 34L34 34L34 31ZM42 31L42 32L43 32L43 31ZM48 31L48 32L49 32L49 31ZM57 31L57 34L60 34L60 31ZM64 31L64 32L65 32L65 31ZM3 32L3 33L2 33L2 34L3 34L3 33L4 33L4 32ZM6 32L6 33L7 33L7 32ZM25 32L25 33L26 33L26 32ZM32 32L32 33L33 33L33 32ZM58 32L58 33L59 33L59 32ZM23 34L23 35L24 35L24 34ZM38 34L38 35L39 35L39 38L38 38L38 37L37 37L37 38L38 38L38 39L37 39L37 40L36 40L36 41L38 41L38 39L40 39L40 40L42 40L42 39L40 39L40 38L41 38L41 37L42 37L42 38L45 38L45 37L44 37L44 36L43 36L43 35L42 35L42 34L41 34L41 35L39 35L39 34ZM61 34L61 35L60 35L60 37L62 37L62 36L63 36L63 35L62 35L62 34ZM61 35L61 36L62 36L62 35ZM4 36L4 37L5 37L5 36ZM6 36L6 37L7 37L7 38L8 38L8 37L7 37L7 36ZM40 36L40 37L41 37L41 36ZM11 37L11 38L9 38L9 39L12 39L12 37ZM32 38L32 39L33 39L33 38ZM52 38L52 39L54 39L54 38ZM4 39L4 41L5 41L5 39ZM14 39L14 40L13 40L13 41L14 41L14 40L15 40L15 39ZM24 39L24 40L22 40L22 41L25 41L25 39ZM56 39L56 42L59 42L59 41L60 41L60 42L61 42L61 43L60 43L60 44L62 44L62 45L63 45L63 44L62 44L62 43L63 43L63 42L65 42L65 39L64 39L64 41L63 41L63 40L62 40L62 41L63 41L63 42L61 42L61 41L60 41L60 40L61 40L61 39L60 39L60 40L59 40L59 39ZM43 40L43 41L40 41L40 42L38 42L38 43L37 43L37 42L36 42L36 43L37 43L37 44L39 44L39 43L40 43L40 42L43 42L43 43L44 43L44 42L43 42L43 41L44 41L44 40ZM58 40L58 41L59 41L59 40ZM16 43L16 44L17 44L17 43ZM26 43L26 44L27 44L27 43ZM6 44L6 45L7 45L7 44ZM54 44L54 45L55 45L55 46L54 46L54 47L55 47L55 46L56 46L56 45L57 45L57 44ZM23 45L23 46L24 46L24 45ZM37 45L37 46L38 46L38 45ZM46 45L46 46L47 46L47 45ZM6 46L6 47L7 47L7 46ZM26 46L26 49L27 49L27 48L28 48L28 47L27 47L27 46ZM32 46L32 47L34 47L34 46ZM35 46L35 47L36 47L36 46ZM62 46L62 47L61 47L61 48L62 48L62 47L63 47L63 46ZM15 47L15 48L14 48L14 49L13 49L13 51L14 51L14 53L15 53L15 50L14 50L14 49L15 49L15 48L16 48L16 49L17 49L17 48L16 48L16 47ZM23 47L23 48L22 48L22 49L25 49L25 48L24 48L24 47ZM32 48L32 49L31 49L31 50L32 50L32 49L33 49L33 48ZM48 48L48 50L45 50L45 51L44 51L44 52L43 52L43 51L42 51L42 52L43 52L43 53L42 53L42 54L43 54L43 55L42 55L42 56L41 56L41 53L40 53L40 52L41 52L41 51L40 51L40 50L38 50L38 52L39 52L39 53L40 53L40 56L41 56L41 58L37 58L37 60L39 60L39 62L40 62L40 60L41 60L41 58L43 58L43 57L44 57L44 56L45 56L45 55L46 55L46 56L47 56L47 58L50 58L50 56L47 56L47 55L49 55L49 54L45 54L45 55L44 55L44 54L43 54L43 53L44 53L44 52L46 52L46 51L48 51L48 50L49 50L49 48ZM52 48L52 49L53 49L53 48ZM55 48L55 49L56 49L56 48ZM33 50L33 51L34 51L34 50ZM17 52L17 53L18 53L18 52ZM52 53L52 55L51 55L51 54L50 54L50 55L51 55L51 56L53 56L53 53ZM60 53L60 54L61 54L61 53ZM5 54L5 55L7 55L7 54ZM11 55L11 56L12 56L12 55ZM24 55L24 56L25 56L25 55ZM28 55L28 56L29 56L29 55ZM43 55L43 56L44 56L44 55ZM54 55L54 56L55 56L55 55ZM6 56L6 57L7 57L7 56ZM36 56L36 57L37 57L37 56ZM38 56L38 57L39 57L39 56ZM31 57L31 60L34 60L34 57ZM53 57L53 58L55 58L55 57ZM57 57L57 60L60 60L60 57ZM61 57L61 58L62 58L62 57ZM32 58L32 59L33 59L33 58ZM58 58L58 59L59 59L59 58ZM44 60L44 61L45 61L45 64L46 64L46 63L47 63L47 61L45 61L45 60ZM52 60L52 61L54 61L54 60ZM55 61L55 62L56 62L56 61ZM18 62L18 63L19 63L19 62ZM29 62L29 64L27 64L27 63L25 63L25 65L26 65L26 64L27 64L27 65L29 65L29 64L30 64L30 65L31 65L31 64L32 64L32 63L31 63L31 64L30 64L30 62ZM33 63L33 65L37 65L37 64L34 64L34 63ZM43 63L43 64L44 64L44 63ZM48 64L48 65L49 65L49 64ZM0 0L0 7L7 7L7 0ZM1 1L1 6L6 6L6 1ZM2 2L2 5L5 5L5 2ZM58 0L58 7L65 7L65 0ZM59 1L59 6L64 6L64 1ZM60 2L60 5L63 5L63 2ZM0 58L0 65L7 65L7 58ZM1 59L1 64L6 64L6 59ZM2 60L2 63L5 63L5 60Z" fill="#000000"/></g></g></svg>
