<?xml version="1.0" encoding="UTF-8"?>
<svg xmlns="http://www.w3.org/2000/svg" version="1.1" width="200" height="200" viewBox="0 0 200 200"><rect x="0" y="0" width="200" height="200" fill="#ffffff"/><g transform="scale(3.077)"><g transform="translate(0,0)"><path fill-rule="evenodd" d="M9 0L9 1L8 1L8 2L9 2L9 1L10 1L10 0ZM11 0L11 1L12 1L12 0ZM19 0L19 1L18 1L18 2L17 2L17 3L18 3L18 4L16 4L16 3L15 3L15 2L14 2L14 3L13 3L13 2L10 2L10 3L8 3L8 4L10 4L10 5L8 5L8 7L9 7L9 8L6 8L6 9L7 9L7 10L4 10L4 9L5 9L5 8L0 8L0 10L1 10L1 9L2 9L2 11L0 11L0 12L1 12L1 13L2 13L2 14L4 14L4 15L5 15L5 17L4 17L4 20L3 20L3 19L1 19L1 20L0 20L0 22L1 22L1 20L3 20L3 21L2 21L2 22L3 22L3 23L5 23L5 24L6 24L6 25L7 25L7 26L6 26L6 27L7 27L7 28L5 28L5 26L4 26L4 28L3 28L3 26L1 26L1 25L3 25L3 24L1 24L1 25L0 25L0 26L1 26L1 27L2 27L2 28L1 28L1 30L2 30L2 31L1 31L1 32L0 32L0 33L2 33L2 31L3 31L3 29L4 29L4 32L3 32L3 33L4 33L4 34L3 34L3 36L4 36L4 38L5 38L5 37L8 37L8 38L6 38L6 39L5 39L5 40L3 40L3 38L1 38L1 39L2 39L2 40L0 40L0 41L2 41L2 40L3 40L3 43L2 43L2 42L1 42L1 43L0 43L0 46L2 46L2 44L3 44L3 43L4 43L4 45L3 45L3 47L2 47L2 48L1 48L1 47L0 47L0 48L1 48L1 49L0 49L0 52L2 52L2 53L0 53L0 54L2 54L2 55L3 55L3 56L1 56L1 55L0 55L0 56L1 56L1 57L3 57L3 56L4 56L4 57L5 57L5 56L4 56L4 54L5 54L5 55L8 55L8 56L9 56L9 57L8 57L8 59L9 59L9 60L8 60L8 65L10 65L10 64L9 64L9 60L10 60L10 63L11 63L11 62L12 62L12 63L15 63L15 64L12 64L12 65L19 65L19 64L16 64L16 63L15 63L15 62L16 62L16 61L14 61L14 62L12 62L12 60L11 60L11 59L9 59L9 58L12 58L12 59L14 59L14 60L16 60L16 59L14 59L14 58L13 58L13 57L14 57L14 56L15 56L15 57L19 57L19 58L18 58L18 59L19 59L19 60L17 60L17 62L18 62L18 63L20 63L20 62L18 62L18 61L20 61L20 60L21 60L21 58L24 58L24 60L23 60L23 61L21 61L21 62L22 62L22 63L21 63L21 64L20 64L20 65L22 65L22 64L23 64L23 63L24 63L24 64L26 64L26 62L28 62L28 61L25 61L25 58L28 58L28 59L30 59L30 60L29 60L29 61L31 61L31 62L30 62L30 63L31 63L31 64L30 64L30 65L31 65L31 64L32 64L32 65L34 65L34 64L36 64L36 65L38 65L38 64L37 64L37 63L35 63L35 61L36 61L36 62L38 62L38 63L40 63L40 64L41 64L41 65L44 65L44 64L45 64L45 65L46 65L46 64L47 64L47 65L51 65L51 64L53 64L53 65L55 65L55 64L56 64L56 62L57 62L57 63L58 63L58 62L57 62L57 61L61 61L61 62L60 62L60 63L59 63L59 64L57 64L57 65L60 65L60 64L62 64L62 65L63 65L63 64L64 64L64 61L65 61L65 60L64 60L64 58L65 58L65 56L64 56L64 55L63 55L63 56L62 56L62 57L61 57L61 56L60 56L60 55L61 55L61 54L65 54L65 53L64 53L64 52L65 52L65 51L64 51L64 50L65 50L65 49L64 49L64 48L62 48L62 47L63 47L63 46L64 46L64 44L65 44L65 43L64 43L64 42L65 42L65 40L64 40L64 39L63 39L63 40L62 40L62 39L60 39L60 40L59 40L59 39L57 39L57 38L58 38L58 37L55 37L55 36L58 36L58 35L61 35L61 36L62 36L62 37L59 37L59 38L65 38L65 35L64 35L64 34L65 34L65 33L63 33L63 32L64 32L64 31L63 31L63 32L62 32L62 29L64 29L64 30L65 30L65 27L63 27L63 26L65 26L65 25L63 25L63 24L62 24L62 21L63 21L63 23L64 23L64 22L65 22L65 21L64 21L64 20L65 20L65 19L63 19L63 18L64 18L64 17L65 17L65 15L64 15L64 14L65 14L65 11L63 11L63 10L62 10L62 11L63 11L63 12L58 12L58 11L60 11L60 10L61 10L61 9L62 9L62 8L61 8L61 9L60 9L60 8L59 8L59 9L60 9L60 10L58 10L58 8L56 8L56 9L55 9L55 8L53 8L53 6L52 6L52 8L51 8L51 5L50 5L50 2L51 2L51 3L53 3L53 4L52 4L52 5L53 5L53 4L56 4L56 5L57 5L57 4L56 4L56 3L57 3L57 1L56 1L56 0L55 0L55 1L56 1L56 3L55 3L55 2L54 2L54 1L53 1L53 0L51 0L51 1L50 1L50 2L49 2L49 3L48 3L48 1L49 1L49 0L48 0L48 1L46 1L46 0L45 0L45 2L44 2L44 0L42 0L42 1L43 1L43 2L42 2L42 3L41 3L41 0L39 0L39 1L38 1L38 2L37 2L37 0L35 0L35 1L36 1L36 2L35 2L35 3L34 3L34 2L33 2L33 4L30 4L30 5L28 5L28 7L27 7L27 6L26 6L26 4L24 4L24 3L26 3L26 2L25 2L25 0L22 0L22 1L21 1L21 2L22 2L22 1L23 1L23 2L24 2L24 3L23 3L23 6L22 6L22 7L23 7L23 8L25 8L25 9L22 9L22 8L20 8L20 7L21 7L21 6L20 6L20 4L22 4L22 3L19 3L19 2L20 2L20 0ZM26 0L26 1L27 1L27 4L29 4L29 3L28 3L28 2L30 2L30 3L32 3L32 1L34 1L34 0L32 0L32 1L31 1L31 0L30 0L30 1L27 1L27 0ZM30 1L30 2L31 2L31 1ZM39 1L39 2L38 2L38 5L37 5L37 4L35 4L35 5L36 5L36 6L35 6L35 8L37 8L37 11L36 11L36 10L35 10L35 9L34 9L34 10L33 10L33 9L32 9L32 10L30 10L30 9L28 9L28 8L29 8L29 7L30 7L30 6L29 6L29 7L28 7L28 8L27 8L27 7L26 7L26 6L25 6L25 5L24 5L24 6L23 6L23 7L24 7L24 6L25 6L25 8L26 8L26 9L25 9L25 10L22 10L22 9L20 9L20 8L19 8L19 9L18 9L18 6L19 6L19 7L20 7L20 6L19 6L19 5L18 5L18 6L17 6L17 5L16 5L16 6L15 6L15 5L13 5L13 3L10 3L10 4L12 4L12 6L11 6L11 5L10 5L10 6L9 6L9 7L10 7L10 8L9 8L9 9L8 9L8 10L7 10L7 11L3 11L3 13L5 13L5 15L6 15L6 16L7 16L7 17L5 17L5 18L7 18L7 17L8 17L8 18L9 18L9 17L8 17L8 16L9 16L9 14L8 14L8 11L9 11L9 12L11 12L11 10L12 10L12 12L15 12L15 13L16 13L16 12L17 12L17 14L14 14L14 13L12 13L12 15L10 15L10 16L12 16L12 15L13 15L13 14L14 14L14 16L13 16L13 17L14 17L14 18L15 18L15 19L14 19L14 20L12 20L12 18L11 18L11 19L10 19L10 20L9 20L9 22L8 22L8 23L6 23L6 24L7 24L7 25L8 25L8 26L9 26L9 27L8 27L8 28L7 28L7 29L6 29L6 30L9 30L9 29L10 29L10 26L11 26L11 27L12 27L12 29L11 29L11 30L10 30L10 31L9 31L9 32L11 32L11 33L10 33L10 34L9 34L9 35L5 35L5 36L8 36L8 37L10 37L10 38L9 38L9 39L6 39L6 40L5 40L5 41L4 41L4 42L5 42L5 44L7 44L7 45L4 45L4 46L7 46L7 47L4 47L4 48L2 48L2 49L1 49L1 51L5 51L5 49L4 49L4 48L7 48L7 49L6 49L6 50L7 50L7 51L6 51L6 52L4 52L4 53L6 53L6 54L9 54L9 55L11 55L11 56L10 56L10 57L12 57L12 56L14 56L14 55L15 55L15 56L17 56L17 55L15 55L15 54L18 54L18 55L21 55L21 53L22 53L22 54L23 54L23 56L21 56L21 57L20 57L20 58L19 58L19 59L20 59L20 58L21 58L21 57L25 57L25 54L26 54L26 57L27 57L27 56L29 56L29 55L27 55L27 54L31 54L31 55L30 55L30 56L32 56L32 54L33 54L33 53L31 53L31 52L34 52L34 51L35 51L35 52L37 52L37 53L38 53L38 54L37 54L37 55L35 55L35 54L34 54L34 55L35 55L35 56L37 56L37 55L38 55L38 54L39 54L39 51L41 51L41 52L40 52L40 53L41 53L41 54L40 54L40 55L39 55L39 56L38 56L38 58L37 58L37 57L36 57L36 59L35 59L35 60L39 60L39 59L38 59L38 58L39 58L39 56L40 56L40 57L41 57L41 58L40 58L40 59L41 59L41 60L40 60L40 61L41 61L41 62L40 62L40 63L41 63L41 64L42 64L42 63L43 63L43 64L44 64L44 63L45 63L45 64L46 64L46 63L48 63L48 64L51 64L51 63L52 63L52 62L53 62L53 64L55 64L55 62L56 62L56 59L55 59L55 58L56 58L56 55L57 55L57 56L59 56L59 55L60 55L60 53L62 53L62 52L63 52L63 51L62 51L62 52L60 52L60 51L61 51L61 50L60 50L60 51L59 51L59 49L61 49L61 46L63 46L63 43L62 43L62 42L64 42L64 40L63 40L63 41L62 41L62 40L60 40L60 41L59 41L59 40L57 40L57 41L56 41L56 39L55 39L55 38L54 38L54 37L53 37L53 36L54 36L54 35L56 35L56 34L54 34L54 35L53 35L53 36L51 36L51 37L50 37L50 38L48 38L48 37L47 37L47 35L45 35L45 34L48 34L48 36L49 36L49 33L48 33L48 32L50 32L50 34L51 34L51 35L52 35L52 34L51 34L51 31L49 31L49 30L51 30L51 29L52 29L52 31L53 31L53 32L52 32L52 33L53 33L53 32L54 32L54 31L55 31L55 30L60 30L60 29L59 29L59 28L61 28L61 29L62 29L62 28L63 28L63 27L62 27L62 24L61 24L61 21L62 21L62 20L63 20L63 19L62 19L62 18L63 18L63 17L61 17L61 19L59 19L59 21L58 21L58 18L60 18L60 17L59 17L59 16L61 16L61 15L60 15L60 14L59 14L59 13L56 13L56 11L57 11L57 9L56 9L56 11L55 11L55 10L54 10L54 12L51 12L51 11L50 11L50 10L51 10L51 9L50 9L50 5L49 5L49 7L48 7L48 3L47 3L47 2L46 2L46 3L44 3L44 2L43 2L43 3L44 3L44 4L43 4L43 5L41 5L41 3L39 3L39 2L40 2L40 1ZM36 2L36 3L37 3L37 2ZM53 2L53 3L54 3L54 2ZM31 5L31 8L34 8L34 5ZM38 5L38 7L39 7L39 8L38 8L38 9L40 9L40 8L41 8L41 10L40 10L40 11L39 11L39 10L38 10L38 11L37 11L37 12L36 12L36 13L35 13L35 10L34 10L34 12L33 12L33 11L32 11L32 12L31 12L31 11L30 11L30 10L27 10L27 9L26 9L26 11L25 11L25 12L24 12L24 11L22 11L22 10L21 10L21 11L19 11L19 10L18 10L18 11L19 11L19 12L18 12L18 13L19 13L19 14L20 14L20 15L18 15L18 14L17 14L17 15L15 15L15 16L14 16L14 17L15 17L15 18L17 18L17 19L15 19L15 21L16 21L16 22L15 22L15 23L16 23L16 24L15 24L15 25L14 25L14 24L13 24L13 22L14 22L14 21L13 21L13 22L12 22L12 21L10 21L10 22L11 22L11 25L14 25L14 26L13 26L13 27L14 27L14 28L13 28L13 29L12 29L12 31L11 31L11 32L12 32L12 31L14 31L14 32L13 32L13 33L14 33L14 34L11 34L11 35L9 35L9 36L11 36L11 37L12 37L12 38L13 38L13 40L14 40L14 38L15 38L15 37L17 37L17 39L15 39L15 41L19 41L19 43L18 43L18 42L17 42L17 43L15 43L15 44L14 44L14 42L13 42L13 41L12 41L12 39L11 39L11 38L10 38L10 39L9 39L9 40L10 40L10 39L11 39L11 41L12 41L12 42L11 42L11 43L10 43L10 42L9 42L9 43L8 43L8 41L7 41L7 40L6 40L6 41L7 41L7 42L6 42L6 43L7 43L7 44L9 44L9 45L10 45L10 44L11 44L11 46L12 46L12 43L13 43L13 44L14 44L14 45L13 45L13 46L14 46L14 48L13 48L13 47L10 47L10 48L9 48L9 49L10 49L10 48L11 48L11 49L12 49L12 48L13 48L13 49L14 49L14 48L15 48L15 49L17 49L17 50L16 50L16 51L18 51L18 49L19 49L19 48L20 48L20 49L21 49L21 50L20 50L20 51L21 51L21 52L19 52L19 53L18 53L18 52L15 52L15 51L14 51L14 52L13 52L13 53L14 53L14 54L15 54L15 53L18 53L18 54L20 54L20 53L21 53L21 52L22 52L22 53L23 53L23 49L24 49L24 50L25 50L25 51L24 51L24 52L25 52L25 53L24 53L24 54L25 54L25 53L29 53L29 51L28 51L28 49L29 49L29 50L32 50L32 51L34 51L34 50L35 50L35 51L36 51L36 50L35 50L35 49L36 49L36 48L38 48L38 49L37 49L37 50L39 50L39 48L41 48L41 46L43 46L43 47L42 47L42 48L43 48L43 49L41 49L41 50L42 50L42 52L43 52L43 53L42 53L42 54L43 54L43 55L40 55L40 56L41 56L41 57L42 57L42 58L43 58L43 55L44 55L44 56L46 56L46 55L47 55L47 56L48 56L48 57L47 57L47 58L46 58L46 57L44 57L44 58L45 58L45 59L44 59L44 60L41 60L41 61L42 61L42 62L43 62L43 63L44 63L44 60L45 60L45 59L46 59L46 60L47 60L47 58L49 58L49 59L51 59L51 60L50 60L50 61L49 61L49 60L48 60L48 61L47 61L47 62L48 62L48 63L49 63L49 62L50 62L50 61L51 61L51 62L52 62L52 60L53 60L53 62L55 62L55 60L53 60L53 58L55 58L55 55L56 55L56 54L57 54L57 52L58 52L58 51L56 51L56 49L55 49L55 48L58 48L58 49L57 49L57 50L58 50L58 49L59 49L59 48L60 48L60 47L52 47L52 46L56 46L56 45L57 45L57 46L59 46L59 45L57 45L57 44L59 44L59 43L52 43L52 42L55 42L55 41L54 41L54 40L55 40L55 39L54 39L54 40L53 40L53 38L52 38L52 37L51 37L51 38L50 38L50 39L51 39L51 40L53 40L53 41L52 41L52 42L49 42L49 41L50 41L50 40L48 40L48 42L49 42L49 43L50 43L50 45L51 45L51 46L50 46L50 47L49 47L49 46L48 46L48 47L49 47L49 48L47 48L47 50L45 50L45 51L43 51L43 50L44 50L44 48L46 48L46 47L47 47L47 46L43 46L43 45L41 45L41 46L40 46L40 44L42 44L42 43L41 43L41 42L43 42L43 43L44 43L44 44L48 44L48 45L49 45L49 44L48 44L48 43L47 43L47 42L46 42L46 41L47 41L47 40L46 40L46 39L48 39L48 38L45 38L45 39L44 39L44 37L43 37L43 36L45 36L45 37L46 37L46 36L45 36L45 35L44 35L44 34L43 34L43 33L44 33L44 32L45 32L45 30L46 30L46 32L47 32L47 30L46 30L46 29L45 29L45 30L44 30L44 28L41 28L41 27L42 27L42 26L43 26L43 25L44 25L44 26L46 26L46 27L48 27L48 26L49 26L49 27L51 27L51 26L49 26L49 24L48 24L48 23L49 23L49 22L50 22L50 23L51 23L51 24L50 24L50 25L52 25L52 24L53 24L53 27L52 27L52 28L53 28L53 27L54 27L54 28L55 28L55 27L57 27L57 28L56 28L56 29L57 29L57 28L58 28L58 27L59 27L59 26L58 26L58 27L57 27L57 26L56 26L56 25L59 25L59 24L58 24L58 23L59 23L59 22L58 22L58 23L57 23L57 22L56 22L56 21L54 21L54 20L53 20L53 19L52 19L52 18L55 18L55 19L56 19L56 17L57 17L57 16L58 16L58 14L56 14L56 15L57 15L57 16L56 16L56 17L52 17L52 16L54 16L54 15L52 15L52 14L53 14L53 13L51 13L51 14L50 14L50 15L52 15L52 16L50 16L50 17L49 17L49 16L48 16L48 17L49 17L49 18L48 18L48 19L47 19L47 18L44 18L44 16L45 16L45 17L47 17L47 16L46 16L46 15L47 15L47 14L45 14L45 13L46 13L46 11L47 11L47 10L48 10L48 12L47 12L47 13L50 13L50 11L49 11L49 8L48 8L48 7L47 7L47 5L45 5L45 6L44 6L44 8L43 8L43 6L42 6L42 7L41 7L41 6L40 6L40 5ZM54 5L54 7L55 7L55 5ZM10 6L10 7L11 7L11 6ZM12 6L12 8L10 8L10 9L9 9L9 10L10 10L10 9L12 9L12 8L13 8L13 10L14 10L14 11L15 11L15 12L16 12L16 10L17 10L17 9L16 9L16 8L17 8L17 6L16 6L16 7L15 7L15 6L14 6L14 8L13 8L13 6ZM32 6L32 7L33 7L33 6ZM36 6L36 7L37 7L37 6ZM39 6L39 7L40 7L40 6ZM45 6L45 7L46 7L46 8L47 8L47 9L46 9L46 10L47 10L47 9L48 9L48 8L47 8L47 7L46 7L46 6ZM56 6L56 7L57 7L57 6ZM44 8L44 9L45 9L45 8ZM52 8L52 9L53 9L53 8ZM63 8L63 9L64 9L64 10L65 10L65 9L64 9L64 8ZM41 10L41 11L43 11L43 12L44 12L44 13L45 13L45 12L44 12L44 11L45 11L45 10L44 10L44 11L43 11L43 10ZM52 10L52 11L53 11L53 10ZM26 11L26 13L24 13L24 12L19 12L19 13L24 13L24 14L21 14L21 17L20 17L20 16L19 16L19 17L17 17L17 18L18 18L18 19L17 19L17 20L16 20L16 21L17 21L17 24L19 24L19 25L16 25L16 26L14 26L14 27L15 27L15 29L16 29L16 30L14 30L14 29L13 29L13 30L14 30L14 31L16 31L16 32L18 32L18 31L19 31L19 33L15 33L15 32L14 32L14 33L15 33L15 34L14 34L14 35L12 35L12 36L13 36L13 38L14 38L14 37L15 37L15 36L14 36L14 35L18 35L18 34L19 34L19 35L21 35L21 36L22 36L22 37L20 37L20 36L19 36L19 37L20 37L20 38L19 38L19 39L20 39L20 40L19 40L19 41L20 41L20 44L19 44L19 45L18 45L18 43L17 43L17 44L16 44L16 45L14 45L14 46L16 46L16 45L17 45L17 46L19 46L19 47L20 47L20 46L19 46L19 45L21 45L21 49L23 49L23 47L24 47L24 49L25 49L25 50L26 50L26 49L27 49L27 48L28 48L28 47L27 47L27 46L28 46L28 45L29 45L29 46L30 46L30 45L31 45L31 46L32 46L32 47L31 47L31 48L30 48L30 49L32 49L32 50L33 50L33 48L34 48L34 49L35 49L35 48L36 48L36 47L38 47L38 46L39 46L39 47L40 47L40 46L39 46L39 43L38 43L38 42L39 42L39 41L38 41L38 40L39 40L39 39L40 39L40 38L41 38L41 36L42 36L42 35L43 35L43 34L42 34L42 33L43 33L43 32L44 32L44 31L43 31L43 30L40 30L40 31L39 31L39 32L38 32L38 33L37 33L37 35L36 35L36 34L35 34L35 36L34 36L34 37L35 37L35 38L34 38L34 39L33 39L33 37L32 37L32 36L33 36L33 35L30 35L30 32L29 32L29 31L30 31L30 29L31 29L31 28L28 28L28 27L29 27L29 25L28 25L28 27L27 27L27 28L26 28L26 29L25 29L25 30L26 30L26 33L27 33L27 34L24 34L24 33L25 33L25 32L24 32L24 31L23 31L23 30L24 30L24 29L23 29L23 27L21 27L21 25L20 25L20 24L21 24L21 21L22 21L22 23L23 23L23 24L22 24L22 25L25 25L25 26L24 26L24 28L25 28L25 26L26 26L26 25L27 25L27 23L28 23L28 24L29 24L29 23L30 23L30 21L31 21L31 22L32 22L32 23L31 23L31 24L30 24L30 25L31 25L31 26L32 26L32 25L31 25L31 24L33 24L33 22L34 22L34 23L35 23L35 24L37 24L37 27L33 27L33 28L32 28L32 30L33 30L33 28L34 28L34 30L36 30L36 31L38 31L38 30L39 30L39 29L41 29L41 28L40 28L40 27L41 27L41 26L40 26L40 27L38 27L38 26L39 26L39 25L43 25L43 24L44 24L44 25L46 25L46 26L47 26L47 25L48 25L48 24L46 24L46 23L45 23L45 22L47 22L47 21L48 21L48 20L49 20L49 21L50 21L50 22L52 22L52 23L53 23L53 24L54 24L54 25L56 25L56 24L57 24L57 23L56 23L56 22L55 22L55 24L54 24L54 22L53 22L53 20L51 20L51 21L50 21L50 20L49 20L49 19L51 19L51 17L50 17L50 18L49 18L49 19L48 19L48 20L47 20L47 19L46 19L46 20L47 20L47 21L45 21L45 20L37 20L37 17L38 17L38 18L39 18L39 19L41 19L41 18L42 18L42 19L44 19L44 18L42 18L42 17L43 17L43 16L44 16L44 15L45 15L45 14L44 14L44 15L43 15L43 14L42 14L42 13L41 13L41 12L39 12L39 13L38 13L38 12L37 12L37 13L38 13L38 14L39 14L39 15L37 15L37 16L36 16L36 15L34 15L34 14L35 14L35 13L33 13L33 12L32 12L32 15L31 15L31 12L30 12L30 14L29 14L29 15L30 15L30 16L29 16L29 17L28 17L28 15L27 15L27 16L26 16L26 17L27 17L27 21L25 21L25 20L26 20L26 19L25 19L25 18L23 18L23 21L22 21L22 20L21 20L21 19L22 19L22 18L21 18L21 17L24 17L24 16L25 16L25 14L26 14L26 13L27 13L27 14L28 14L28 13L29 13L29 11L28 11L28 13L27 13L27 11ZM6 12L6 13L7 13L7 12ZM54 12L54 14L55 14L55 12ZM63 12L63 13L61 13L61 14L62 14L62 16L64 16L64 15L63 15L63 13L64 13L64 12ZM39 13L39 14L40 14L40 13ZM6 14L6 15L7 15L7 16L8 16L8 14ZM41 14L41 15L39 15L39 16L38 16L38 17L39 17L39 16L41 16L41 15L42 15L42 16L43 16L43 15L42 15L42 14ZM48 14L48 15L49 15L49 14ZM1 15L1 16L0 16L0 17L1 17L1 16L2 16L2 17L3 17L3 16L2 16L2 15ZM17 15L17 16L18 16L18 15ZM23 15L23 16L24 16L24 15ZM32 15L32 16L33 16L33 18L31 18L31 16L30 16L30 17L29 17L29 18L28 18L28 19L29 19L29 18L30 18L30 20L28 20L28 21L30 21L30 20L33 20L33 21L34 21L34 22L35 22L35 23L37 23L37 24L40 24L40 22L43 22L43 21L39 21L39 22L38 22L38 21L37 21L37 20L35 20L35 19L36 19L36 18L34 18L34 16L33 16L33 15ZM15 16L15 17L16 17L16 16ZM35 16L35 17L36 17L36 16ZM19 17L19 18L20 18L20 19L21 19L21 18L20 18L20 17ZM5 19L5 20L7 20L7 19ZM24 19L24 20L25 20L25 19ZM33 19L33 20L34 20L34 19ZM61 19L61 20L60 20L60 21L61 21L61 20L62 20L62 19ZM17 20L17 21L18 21L18 23L19 23L19 24L20 24L20 21L21 21L21 20L19 20L19 21L18 21L18 20ZM3 21L3 22L5 22L5 21ZM6 21L6 22L7 22L7 21ZM23 21L23 23L24 23L24 24L25 24L25 25L26 25L26 22L25 22L25 21ZM28 22L28 23L29 23L29 22ZM37 22L37 23L38 23L38 22ZM8 23L8 24L9 24L9 23ZM41 23L41 24L42 24L42 23ZM44 23L44 24L45 24L45 23ZM60 24L60 25L61 25L61 24ZM9 25L9 26L10 26L10 25ZM19 25L19 26L18 26L18 27L19 27L19 28L18 28L18 29L20 29L20 28L21 28L21 27L19 27L19 26L20 26L20 25ZM34 25L34 26L36 26L36 25ZM54 26L54 27L55 27L55 26ZM60 26L60 27L61 27L61 26ZM37 27L37 28L35 28L35 29L37 29L37 30L38 30L38 29L37 29L37 28L38 28L38 27ZM2 28L2 29L3 29L3 28ZM48 28L48 29L49 29L49 28ZM50 28L50 29L51 29L51 28ZM21 29L21 31L22 31L22 32L23 32L23 31L22 31L22 30L23 30L23 29ZM26 29L26 30L28 30L28 29ZM53 29L53 31L54 31L54 30L55 30L55 29ZM17 30L17 31L18 31L18 30ZM19 30L19 31L20 31L20 30ZM5 31L5 34L8 34L8 31ZM27 31L27 33L29 33L29 32L28 32L28 31ZM31 31L31 34L34 34L34 31ZM40 31L40 32L41 32L41 31ZM57 31L57 34L60 34L60 31ZM6 32L6 33L7 33L7 32ZM20 32L20 33L21 33L21 32ZM32 32L32 33L33 33L33 32ZM35 32L35 33L36 33L36 32ZM58 32L58 33L59 33L59 32ZM61 32L61 33L62 33L62 32ZM22 33L22 34L21 34L21 35L22 35L22 34L23 34L23 33ZM40 33L40 34L39 34L39 38L38 38L38 35L37 35L37 36L35 36L35 37L36 37L36 38L35 38L35 39L34 39L34 40L27 40L27 41L26 41L26 40L25 40L25 39L27 39L27 38L26 38L26 37L25 37L25 36L26 36L26 35L25 35L25 36L24 36L24 37L23 37L23 38L25 38L25 39L24 39L24 40L25 40L25 41L22 41L22 40L23 40L23 39L22 39L22 38L21 38L21 40L20 40L20 41L22 41L22 42L21 42L21 43L22 43L22 44L23 44L23 43L22 43L22 42L24 42L24 43L26 43L26 44L27 44L27 45L26 45L26 46L27 46L27 45L28 45L28 43L29 43L29 45L30 45L30 44L31 44L31 45L32 45L32 44L31 44L31 43L32 43L32 42L31 42L31 41L34 41L34 40L35 40L35 41L37 41L37 42L38 42L38 41L37 41L37 40L36 40L36 39L39 39L39 38L40 38L40 36L41 36L41 35L40 35L40 34L41 34L41 33ZM0 34L0 36L2 36L2 34ZM27 34L27 36L28 36L28 37L29 37L29 36L30 36L30 37L31 37L31 36L30 36L30 35L29 35L29 34ZM61 34L61 35L62 35L62 36L63 36L63 35L62 35L62 34ZM28 35L28 36L29 36L29 35ZM17 36L17 37L18 37L18 36ZM29 38L29 39L31 39L31 38ZM42 38L42 39L41 39L41 40L40 40L40 41L43 41L43 42L45 42L45 43L46 43L46 42L45 42L45 41L46 41L46 40L44 40L44 39L43 39L43 38ZM51 38L51 39L52 39L52 38ZM42 39L42 40L43 40L43 39ZM25 41L25 42L26 42L26 41ZM28 41L28 42L30 42L30 43L31 43L31 42L30 42L30 41ZM60 41L60 42L61 42L61 41ZM33 42L33 43L34 43L34 42ZM35 42L35 43L36 43L36 42ZM37 43L37 44L35 44L35 45L34 45L34 44L33 44L33 47L34 47L34 48L35 48L35 47L36 47L36 45L37 45L37 46L38 46L38 43ZM51 43L51 45L56 45L56 44L52 44L52 43ZM60 43L60 44L61 44L61 45L60 45L60 46L61 46L61 45L62 45L62 43ZM24 44L24 45L22 45L22 46L24 46L24 45L25 45L25 44ZM8 46L8 47L7 47L7 48L8 48L8 47L9 47L9 46ZM34 46L34 47L35 47L35 46ZM15 47L15 48L16 48L16 47ZM43 47L43 48L44 48L44 47ZM50 47L50 50L49 50L49 51L50 51L50 50L51 50L51 51L52 51L52 49L54 49L54 48L51 48L51 47ZM25 48L25 49L26 49L26 48ZM7 49L7 50L8 50L8 51L7 51L7 52L6 52L6 53L9 53L9 54L10 54L10 52L9 52L9 51L11 51L11 55L12 55L12 51L13 51L13 50L12 50L12 51L11 51L11 50L8 50L8 49ZM63 49L63 50L64 50L64 49ZM21 50L21 51L22 51L22 50ZM53 50L53 52L50 52L50 54L51 54L51 55L52 55L52 54L53 54L53 56L50 56L50 55L49 55L49 53L48 53L48 54L47 54L47 53L46 53L46 51L45 51L45 52L44 52L44 53L43 53L43 54L45 54L45 55L46 55L46 54L47 54L47 55L48 55L48 56L50 56L50 57L49 57L49 58L51 58L51 59L52 59L52 58L51 58L51 57L53 57L53 56L54 56L54 55L55 55L55 54L54 54L54 53L56 53L56 52L54 52L54 51L55 51L55 50ZM25 51L25 52L26 52L26 51ZM27 51L27 52L28 52L28 51ZM30 51L30 52L31 52L31 51ZM14 52L14 53L15 53L15 52ZM2 53L2 54L3 54L3 53ZM51 53L51 54L52 54L52 53ZM6 56L6 57L7 57L7 56ZM63 56L63 57L62 57L62 58L61 58L61 59L62 59L62 60L61 60L61 61L62 61L62 64L63 64L63 61L64 61L64 60L63 60L63 57L64 57L64 56ZM28 57L28 58L29 58L29 57ZM31 57L31 60L34 60L34 57ZM57 57L57 60L60 60L60 57ZM32 58L32 59L33 59L33 58ZM58 58L58 59L59 59L59 58ZM26 59L26 60L27 60L27 59ZM62 60L62 61L63 61L63 60ZM23 61L23 62L24 62L24 61ZM33 61L33 62L31 62L31 63L32 63L32 64L34 64L34 63L33 63L33 62L34 62L34 61ZM38 61L38 62L39 62L39 61ZM48 61L48 62L49 62L49 61ZM27 63L27 65L29 65L29 64L28 64L28 63ZM0 0L0 7L7 7L7 0ZM1 1L1 6L6 6L6 1ZM2 2L2 5L5 5L5 2ZM58 0L58 7L65 7L65 0ZM59 1L59 6L64 6L64 1ZM60 2L60 5L63 5L63 2ZM0 58L0 65L7 65L7 58ZM1 59L1 64L6 64L6 59ZM2 60L2 63L5 63L5 60Z" fill="#000000"/></g></g></svg>
