<?xml version="1.0" encoding="UTF-8"?>
<svg xmlns="http://www.w3.org/2000/svg" version="1.1" width="200" height="200" viewBox="0 0 200 200"><rect x="0" y="0" width="200" height="200" fill="#ffffff"/><g transform="scale(3.279)"><g transform="translate(0,0)"><path fill-rule="evenodd" d="M9 0L9 1L8 1L8 2L9 2L9 3L8 3L8 4L10 4L10 2L11 2L11 1L14 1L14 0L11 0L11 1L10 1L10 0ZM15 0L15 1L16 1L16 0ZM19 0L19 1L17 1L17 3L16 3L16 2L14 2L14 3L16 3L16 4L21 4L21 6L20 6L20 5L19 5L19 6L18 6L18 5L16 5L16 9L14 9L14 10L13 10L13 9L12 9L12 7L13 7L13 6L12 6L12 5L11 5L11 6L10 6L10 5L8 5L8 7L9 7L9 6L10 6L10 7L11 7L11 9L12 9L12 11L11 11L11 12L12 12L12 11L13 11L13 13L10 13L10 10L9 10L9 8L6 8L6 9L5 9L5 8L0 8L0 13L1 13L1 10L2 10L2 12L3 12L3 10L5 10L5 11L7 11L7 12L5 12L5 13L4 13L4 14L2 14L2 15L1 15L1 14L0 14L0 15L1 15L1 17L0 17L0 19L1 19L1 18L4 18L4 19L3 19L3 20L0 20L0 21L2 21L2 22L1 22L1 23L0 23L0 24L1 24L1 26L0 26L0 27L1 27L1 28L0 28L0 29L1 29L1 30L0 30L0 32L1 32L1 33L0 33L0 34L1 34L1 35L0 35L0 36L1 36L1 35L2 35L2 38L0 38L0 40L1 40L1 41L0 41L0 44L1 44L1 43L2 43L2 44L3 44L3 43L4 43L4 46L3 46L3 45L1 45L1 46L0 46L0 47L1 47L1 48L5 48L5 47L7 47L7 48L6 48L6 49L1 49L1 50L2 50L2 51L0 51L0 53L4 53L4 52L5 52L5 51L7 51L7 52L6 52L6 53L7 53L7 52L8 52L8 55L11 55L11 56L12 56L12 53L13 53L13 54L14 54L14 55L15 55L15 56L13 56L13 57L17 57L17 58L18 58L18 59L15 59L15 60L14 60L14 61L15 61L15 60L16 60L16 61L17 61L17 60L18 60L18 61L19 61L19 60L23 60L23 59L24 59L24 60L25 60L25 61L26 61L26 60L25 60L25 59L28 59L28 60L27 60L27 61L28 61L28 60L30 60L30 61L32 61L32 60L33 60L33 61L35 61L35 60L36 60L36 61L37 61L37 60L36 60L36 59L35 59L35 58L34 58L34 57L33 57L33 56L35 56L35 57L36 57L36 58L38 58L38 59L39 59L39 58L40 58L40 60L38 60L38 61L40 61L40 60L41 60L41 61L43 61L43 60L41 60L41 58L40 58L40 56L41 56L41 54L43 54L43 55L42 55L42 56L45 56L45 57L44 57L44 58L45 58L45 59L44 59L44 60L45 60L45 61L50 61L50 59L51 59L51 60L52 60L52 61L53 61L53 60L52 60L52 59L51 59L51 58L53 58L53 57L54 57L54 58L55 58L55 59L54 59L54 60L55 60L55 61L56 61L56 60L57 60L57 61L61 61L61 57L60 57L60 56L61 56L61 54L60 54L60 56L57 56L57 53L58 53L58 55L59 55L59 52L58 52L58 51L61 51L61 46L59 46L59 44L60 44L60 45L61 45L61 42L60 42L60 41L61 41L61 40L60 40L60 41L59 41L59 40L54 40L54 39L56 39L56 37L58 37L58 38L57 38L57 39L61 39L61 38L59 38L59 37L58 37L58 36L53 36L53 35L55 35L55 33L57 33L57 34L56 34L56 35L59 35L59 36L60 36L60 37L61 37L61 36L60 36L60 35L61 35L61 34L60 34L60 33L61 33L61 30L60 30L60 31L59 31L59 32L57 32L57 31L58 31L58 30L57 30L57 29L61 29L61 26L60 26L60 25L61 25L61 22L58 22L58 21L61 21L61 18L59 18L59 16L58 16L58 17L57 17L57 19L56 19L56 18L55 18L55 17L56 17L56 16L57 16L57 15L58 15L58 14L60 14L60 15L61 15L61 14L60 14L60 13L59 13L59 12L60 12L60 11L61 11L61 10L60 10L60 11L59 11L59 12L57 12L57 9L58 9L58 10L59 10L59 9L60 9L60 8L59 8L59 9L58 9L58 8L57 8L57 9L56 9L56 8L55 8L55 9L54 9L54 8L52 8L52 7L53 7L53 6L52 6L52 7L51 7L51 5L52 5L52 4L53 4L53 0L51 0L51 2L50 2L50 3L48 3L48 1L45 1L45 2L44 2L44 1L43 1L43 0L41 0L41 1L43 1L43 2L39 2L39 1L38 1L38 0L37 0L37 1L36 1L36 2L37 2L37 1L38 1L38 2L39 2L39 3L47 3L47 5L46 5L46 7L45 7L45 6L44 6L44 7L45 7L45 9L44 9L44 8L43 8L43 6L42 6L42 8L41 8L41 6L40 6L40 7L39 7L39 5L40 5L40 4L39 4L39 5L36 5L36 7L37 7L37 8L36 8L36 9L35 9L35 8L34 8L34 7L35 7L35 5L33 5L33 4L29 4L29 2L28 2L28 3L27 3L27 0L26 0L26 1L25 1L25 0L21 0L21 1L20 1L20 0ZM31 0L31 1L33 1L33 2L32 2L32 3L33 3L33 2L34 2L34 1L33 1L33 0ZM49 0L49 1L50 1L50 0ZM9 1L9 2L10 2L10 1ZM19 1L19 2L20 2L20 3L21 3L21 4L23 4L23 3L22 3L22 1L21 1L21 2L20 2L20 1ZM12 2L12 4L13 4L13 2ZM25 2L25 3L24 3L24 4L25 4L25 3L26 3L26 4L27 4L27 3L26 3L26 2ZM30 2L30 3L31 3L31 2ZM35 3L35 4L38 4L38 3ZM51 3L51 4L52 4L52 3ZM14 4L14 8L15 8L15 4ZM41 4L41 5L43 5L43 4ZM44 4L44 5L45 5L45 4ZM23 5L23 7L24 7L24 9L23 9L23 8L22 8L22 9L21 9L21 8L20 8L20 6L19 6L19 7L18 7L18 6L17 6L17 8L18 8L18 9L16 9L16 10L17 10L17 11L16 11L16 12L17 12L17 13L16 13L16 15L15 15L15 16L16 16L16 17L13 17L13 18L11 18L11 15L10 15L10 14L9 14L9 12L7 12L7 13L6 13L6 14L5 14L5 15L6 15L6 16L7 16L7 17L5 17L5 18L7 18L7 17L8 17L8 16L7 16L7 15L6 15L6 14L7 14L7 13L8 13L8 15L10 15L10 17L9 17L9 18L8 18L8 19L9 19L9 21L8 21L8 20L7 20L7 19L6 19L6 20L7 20L7 21L6 21L6 22L3 22L3 24L2 24L2 23L1 23L1 24L2 24L2 25L5 25L5 24L7 24L7 25L6 25L6 26L8 26L8 28L9 28L9 31L12 31L12 30L11 30L11 29L12 29L12 28L13 28L13 26L12 26L12 25L13 25L13 24L14 24L14 27L15 27L15 28L14 28L14 30L13 30L13 31L14 31L14 30L15 30L15 29L16 29L16 32L15 32L15 33L14 33L14 32L13 32L13 33L14 33L14 35L16 35L16 36L15 36L15 37L14 37L14 39L13 39L13 38L12 38L12 36L13 36L13 35L12 35L12 34L10 34L10 35L9 35L9 33L12 33L12 32L9 32L9 33L8 33L8 34L7 34L7 33L6 33L6 34L7 34L7 35L4 35L4 36L7 36L7 35L8 35L8 37L5 37L5 39L3 39L3 38L2 38L2 39L3 39L3 40L2 40L2 41L1 41L1 42L2 42L2 41L5 41L5 42L7 42L7 43L5 43L5 44L7 44L7 43L8 43L8 44L11 44L11 46L9 46L9 45L6 45L6 46L7 46L7 47L8 47L8 48L9 48L9 49L8 49L8 50L7 50L7 49L6 49L6 50L7 50L7 51L9 51L9 54L11 54L11 52L10 52L10 51L12 51L12 50L10 50L10 51L9 51L9 49L11 49L11 46L13 46L13 48L12 48L12 49L13 49L13 52L16 52L16 51L14 51L14 49L15 49L15 50L16 50L16 49L17 49L17 50L18 50L18 51L17 51L17 53L14 53L14 54L17 54L17 55L16 55L16 56L17 56L17 57L18 57L18 56L17 56L17 55L18 55L18 54L19 54L19 57L21 57L21 58L22 58L22 59L23 59L23 58L22 58L22 57L25 57L25 58L27 58L27 56L26 56L26 55L28 55L28 54L26 54L26 53L28 53L28 52L26 52L26 53L25 53L25 52L24 52L24 51L23 51L23 47L22 47L22 46L21 46L21 45L20 45L20 47L18 47L18 46L19 46L19 45L18 45L18 44L17 44L17 45L16 45L16 42L17 42L17 43L18 43L18 41L19 41L19 42L20 42L20 43L19 43L19 44L21 44L21 40L20 40L20 38L21 38L21 39L22 39L22 41L23 41L23 39L24 39L24 38L23 38L23 39L22 39L22 37L25 37L25 40L24 40L24 41L25 41L25 42L23 42L23 43L24 43L24 45L25 45L25 46L26 46L26 47L25 47L25 48L24 48L24 49L25 49L25 51L27 51L27 50L28 50L28 51L29 51L29 52L30 52L30 51L32 51L32 52L34 52L34 51L32 51L32 50L35 50L35 49L36 49L36 48L37 48L37 49L38 49L38 50L37 50L37 51L35 51L35 53L34 53L34 54L35 54L35 56L37 56L37 55L36 55L36 54L35 54L35 53L36 53L36 52L39 52L39 53L37 53L37 54L41 54L41 52L42 52L42 53L43 53L43 54L44 54L44 53L45 53L45 54L47 54L47 56L46 56L46 57L45 57L45 58L48 58L48 59L49 59L49 58L48 58L48 57L47 57L47 56L49 56L49 57L50 57L50 58L51 58L51 57L52 57L52 55L50 55L50 54L51 54L51 51L53 51L53 52L56 52L56 51L53 51L53 50L54 50L54 49L55 49L55 50L57 50L57 49L58 49L58 50L60 50L60 47L59 47L59 46L57 46L57 45L56 45L56 44L59 44L59 43L60 43L60 42L57 42L57 41L55 41L55 43L53 43L53 42L51 42L51 40L52 40L52 41L54 41L54 40L52 40L52 39L53 39L53 37L52 37L52 38L51 38L51 36L50 36L50 34L51 34L51 35L53 35L53 34L51 34L51 32L50 32L50 31L49 31L49 29L46 29L46 28L50 28L50 30L52 30L52 29L51 29L51 28L52 28L52 27L54 27L54 26L53 26L53 25L55 25L55 28L56 28L56 27L57 27L57 28L60 28L60 27L59 27L59 25L58 25L58 26L56 26L56 25L57 25L57 24L59 24L59 23L57 23L57 24L54 24L54 23L56 23L56 21L57 21L57 20L56 20L56 19L55 19L55 18L54 18L54 19L53 19L53 21L52 21L52 18L53 18L53 15L52 15L52 16L51 16L51 15L50 15L50 14L53 14L53 13L55 13L55 14L54 14L54 15L55 15L55 16L56 16L56 15L55 15L55 14L58 14L58 13L57 13L57 12L56 12L56 9L55 9L55 10L54 10L54 9L52 9L52 8L51 8L51 7L50 7L50 5L49 5L49 7L48 7L48 5L47 5L47 7L46 7L46 8L47 8L47 9L45 9L45 10L44 10L44 11L45 11L45 12L44 12L44 13L43 13L43 11L42 11L42 10L41 10L41 8L37 8L37 9L38 9L38 10L37 10L37 11L36 11L36 12L38 12L38 14L37 14L37 15L36 15L36 14L35 14L35 13L34 13L34 12L35 12L35 11L34 11L34 10L35 10L35 9L34 9L34 10L32 10L32 9L30 9L30 10L29 10L29 11L27 11L27 10L28 10L28 9L27 9L27 7L28 7L28 6L27 6L27 5L26 5L26 6L25 6L25 5ZM29 5L29 8L32 8L32 5ZM11 6L11 7L12 7L12 6ZM21 6L21 7L22 7L22 6ZM24 6L24 7L25 7L25 8L26 8L26 7L27 7L27 6L26 6L26 7L25 7L25 6ZM30 6L30 7L31 7L31 6ZM33 6L33 7L34 7L34 6ZM37 6L37 7L38 7L38 6ZM49 7L49 8L48 8L48 9L50 9L50 7ZM19 8L19 9L18 9L18 10L19 10L19 11L17 11L17 12L18 12L18 13L17 13L17 17L16 17L16 18L14 18L14 19L11 19L11 18L9 18L9 19L11 19L11 20L10 20L10 21L9 21L9 23L7 23L7 22L6 22L6 23L7 23L7 24L9 24L9 23L10 23L10 25L8 25L8 26L11 26L11 25L12 25L12 24L11 24L11 23L10 23L10 21L12 21L12 20L15 20L15 21L17 21L17 19L18 19L18 17L19 17L19 20L18 20L18 21L21 21L21 22L20 22L20 23L21 23L21 25L19 25L19 22L18 22L18 23L17 23L17 22L14 22L14 23L15 23L15 27L16 27L16 29L17 29L17 30L18 30L18 31L17 31L17 34L18 34L18 35L19 35L19 34L20 34L20 35L21 35L21 34L20 34L20 33L21 33L21 32L23 32L23 31L22 31L22 30L24 30L24 32L25 32L25 33L22 33L22 34L23 34L23 36L25 36L25 37L26 37L26 40L30 40L30 41L29 41L29 44L30 44L30 45L31 45L31 43L33 43L33 42L34 42L34 44L32 44L32 45L35 45L35 43L36 43L36 41L37 41L37 42L38 42L38 43L37 43L37 44L36 44L36 45L37 45L37 44L38 44L38 45L39 45L39 46L38 46L38 47L39 47L39 50L38 50L38 51L39 51L39 52L41 52L41 50L40 50L40 48L41 48L41 47L42 47L42 48L43 48L43 49L42 49L42 50L44 50L44 48L46 48L46 49L45 49L45 51L44 51L44 52L43 52L43 51L42 51L42 52L43 52L43 53L44 53L44 52L46 52L46 51L47 51L47 52L48 52L48 53L50 53L50 51L51 51L51 50L53 50L53 49L54 49L54 48L56 48L56 49L57 49L57 47L56 47L56 46L55 46L55 44L54 44L54 45L53 45L53 47L54 47L54 48L53 48L53 49L52 49L52 48L51 48L51 47L52 47L52 46L50 46L50 45L49 45L49 44L50 44L50 43L51 43L51 42L50 42L50 43L49 43L49 40L51 40L51 38L50 38L50 36L48 36L48 37L49 37L49 38L50 38L50 39L49 39L49 40L48 40L48 41L47 41L47 40L46 40L46 39L47 39L47 38L45 38L45 37L44 37L44 36L46 36L46 37L47 37L47 36L46 36L46 35L47 35L47 34L46 34L46 35L45 35L45 33L44 33L44 32L45 32L45 30L43 30L43 29L42 29L42 30L41 30L41 29L40 29L40 28L41 28L41 27L39 27L39 26L42 26L42 28L43 28L43 25L44 25L44 26L45 26L45 27L44 27L44 28L46 28L46 27L47 27L47 26L45 26L45 25L46 25L46 24L45 24L45 25L44 25L44 24L43 24L43 23L44 23L44 21L43 21L43 19L44 19L44 20L46 20L46 21L49 21L49 22L48 22L48 23L47 23L47 22L46 22L46 23L47 23L47 24L48 24L48 25L49 25L49 24L48 24L48 23L49 23L49 22L50 22L50 23L51 23L51 22L50 22L50 21L51 21L51 20L50 20L50 19L51 19L51 18L50 18L50 17L51 17L51 16L50 16L50 15L49 15L49 14L50 14L50 13L49 13L49 12L50 12L50 11L51 11L51 13L53 13L53 12L54 12L54 11L53 11L53 10L50 10L50 11L49 11L49 12L47 12L47 14L45 14L45 13L44 13L44 14L45 14L45 15L44 15L44 16L43 16L43 17L41 17L41 18L43 18L43 19L42 19L42 20L41 20L41 19L40 19L40 20L41 20L41 22L43 22L43 23L40 23L40 22L38 22L38 23L37 23L37 24L35 24L35 23L36 23L36 22L37 22L37 20L36 20L36 22L34 22L34 23L32 23L32 24L33 24L33 25L32 25L32 26L33 26L33 27L36 27L36 28L35 28L35 29L37 29L37 30L36 30L36 31L35 31L35 30L33 30L33 28L31 28L31 26L28 26L28 25L29 25L29 24L30 24L30 25L31 25L31 23L29 23L29 22L28 22L28 21L30 21L30 22L33 22L33 21L30 21L30 20L31 20L31 19L30 19L30 20L27 20L27 21L26 21L26 20L25 20L25 19L26 19L26 18L27 18L27 19L29 19L29 18L28 18L28 17L26 17L26 16L27 16L27 15L29 15L29 16L32 16L32 17L30 17L30 18L33 18L33 19L32 19L32 20L34 20L34 21L35 21L35 20L34 20L34 19L35 19L35 18L33 18L33 16L34 16L34 17L35 17L35 14L33 14L33 13L32 13L32 14L30 14L30 13L26 13L26 12L27 12L27 11L26 11L26 12L25 12L25 11L24 11L24 12L25 12L25 13L22 13L22 11L21 11L21 12L19 12L19 11L20 11L20 10L19 10L19 9L20 9L20 8ZM2 9L2 10L3 10L3 9ZM6 9L6 10L7 10L7 11L8 11L8 9ZM22 9L22 10L23 10L23 9ZM24 9L24 10L25 10L25 9ZM26 9L26 10L27 10L27 9ZM14 10L14 13L15 13L15 10ZM31 10L31 11L29 11L29 12L31 12L31 11L32 11L32 12L33 12L33 11L32 11L32 10ZM38 10L38 12L39 12L39 13L40 13L40 12L41 12L41 10ZM39 11L39 12L40 12L40 11ZM52 11L52 12L53 12L53 11ZM18 13L18 14L19 14L19 13ZM20 13L20 14L21 14L21 15L19 15L19 17L20 17L20 18L21 18L21 19L22 19L22 18L21 18L21 17L20 17L20 16L21 16L21 15L22 15L22 14L21 14L21 13ZM42 13L42 14L43 14L43 13ZM23 14L23 16L22 16L22 17L23 17L23 16L24 16L24 17L25 17L25 18L24 18L24 19L23 19L23 20L21 20L21 21L25 21L25 24L23 24L23 22L22 22L22 25L23 25L23 26L22 26L22 27L24 27L24 25L27 25L27 24L26 24L26 23L27 23L27 22L26 22L26 21L25 21L25 20L24 20L24 19L25 19L25 18L26 18L26 17L25 17L25 15L24 15L24 14ZM32 14L32 16L33 16L33 14ZM38 14L38 15L37 15L37 16L36 16L36 17L37 17L37 18L38 18L38 19L39 19L39 18L40 18L40 17L39 17L39 18L38 18L38 17L37 17L37 16L41 16L41 14L40 14L40 15L39 15L39 14ZM47 14L47 16L49 16L49 17L50 17L50 16L49 16L49 15L48 15L48 14ZM2 15L2 16L3 16L3 17L4 17L4 16L3 16L3 15ZM12 15L12 16L14 16L14 15ZM45 15L45 16L44 16L44 19L45 19L45 18L47 18L47 17L46 17L46 15ZM60 16L60 17L61 17L61 16ZM49 18L49 19L50 19L50 18ZM4 19L4 20L3 20L3 21L4 21L4 20L5 20L5 19ZM15 19L15 20L16 20L16 19ZM46 19L46 20L48 20L48 19ZM54 19L54 20L55 20L55 21L53 21L53 22L55 22L55 21L56 21L56 20L55 20L55 19ZM58 19L58 20L59 20L59 19ZM38 20L38 21L39 21L39 20ZM16 23L16 24L17 24L17 25L16 25L16 26L17 26L17 29L18 29L18 30L19 30L19 29L20 29L20 32L19 32L19 31L18 31L18 32L19 32L19 33L18 33L18 34L19 34L19 33L20 33L20 32L21 32L21 30L22 30L22 29L25 29L25 30L26 30L26 29L27 29L27 28L30 28L30 27L27 27L27 26L26 26L26 27L25 27L25 28L22 28L22 29L20 29L20 28L19 28L19 29L18 29L18 26L17 26L17 25L18 25L18 24L17 24L17 23ZM28 23L28 24L29 24L29 23ZM37 24L37 25L34 25L34 26L36 26L36 27L38 27L38 26L39 26L39 25L42 25L42 24ZM50 24L50 25L51 25L51 26L50 26L50 27L52 27L52 25L53 25L53 24ZM37 25L37 26L38 26L38 25ZM1 26L1 27L2 27L2 28L3 28L3 29L2 29L2 30L1 30L1 32L2 32L2 33L1 33L1 34L4 34L4 31L2 31L2 30L3 30L3 29L4 29L4 28L7 28L7 27L4 27L4 26L3 26L3 27L2 27L2 26ZM19 26L19 27L20 27L20 26ZM48 26L48 27L49 27L49 26ZM25 28L25 29L26 29L26 28ZM5 29L5 32L8 32L8 29ZM29 29L29 32L32 32L32 29ZM38 29L38 30L37 30L37 31L36 31L36 32L33 32L33 34L35 34L35 35L32 35L32 34L31 34L31 33L29 33L29 34L28 34L28 33L27 33L27 32L26 32L26 31L25 31L25 32L26 32L26 33L27 33L27 34L26 34L26 37L27 37L27 38L28 38L28 39L30 39L30 40L32 40L32 42L33 42L33 39L32 39L32 38L31 38L31 37L29 37L29 35L30 35L30 34L31 34L31 35L32 35L32 37L33 37L33 38L35 38L35 39L34 39L34 40L38 40L38 42L39 42L39 41L41 41L41 42L40 42L40 43L39 43L39 44L40 44L40 46L42 46L42 47L43 47L43 48L44 48L44 47L45 47L45 46L47 46L47 44L49 44L49 43L45 43L45 44L44 44L44 41L45 41L45 42L47 42L47 41L46 41L46 40L44 40L44 39L45 39L45 38L41 38L41 39L42 39L42 41L41 41L41 40L40 40L40 38L39 38L39 37L41 37L41 36L42 36L42 37L43 37L43 36L44 36L44 35L43 35L43 34L42 34L42 33L43 33L43 30L42 30L42 33L41 33L41 32L40 32L40 31L41 31L41 30L40 30L40 29ZM53 29L53 32L56 32L56 29ZM6 30L6 31L7 31L7 30ZM27 30L27 31L28 31L28 30ZM30 30L30 31L31 31L31 30ZM38 30L38 31L37 31L37 32L36 32L36 33L37 33L37 34L36 34L36 35L37 35L37 36L36 36L36 37L38 37L38 36L41 36L41 35L40 35L40 34L41 34L41 33L39 33L39 34L38 34L38 31L39 31L39 30ZM46 30L46 32L47 32L47 33L49 33L49 34L48 34L48 35L49 35L49 34L50 34L50 32L47 32L47 31L48 31L48 30ZM54 30L54 31L55 31L55 30ZM15 33L15 34L16 34L16 33ZM58 33L58 34L59 34L59 33ZM27 34L27 35L28 35L28 34ZM42 35L42 36L43 36L43 35ZM9 36L9 37L8 37L8 38L6 38L6 39L7 39L7 40L5 40L5 41L7 41L7 42L9 42L9 43L11 43L11 44L12 44L12 43L13 43L13 46L14 46L14 47L17 47L17 49L19 49L19 50L20 50L20 49L21 49L21 52L19 52L19 51L18 51L18 53L21 53L21 54L20 54L20 55L21 55L21 56L25 56L25 57L26 57L26 56L25 56L25 53L22 53L22 52L23 52L23 51L22 51L22 48L18 48L18 47L17 47L17 46L18 46L18 45L17 45L17 46L16 46L16 45L15 45L15 42L14 42L14 41L18 41L18 40L15 40L15 39L14 39L14 41L13 41L13 40L12 40L12 38L11 38L11 37L10 37L10 36ZM16 36L16 37L17 37L17 36ZM18 36L18 37L19 37L19 36ZM20 36L20 37L22 37L22 36ZM27 36L27 37L28 37L28 36ZM8 38L8 39L9 39L9 40L10 40L10 41L9 41L9 42L10 42L10 41L12 41L12 42L13 42L13 43L14 43L14 42L13 42L13 41L12 41L12 40L11 40L11 39L9 39L9 38ZM16 38L16 39L18 39L18 38ZM30 38L30 39L31 39L31 38ZM36 38L36 39L39 39L39 38ZM19 40L19 41L20 41L20 40ZM26 41L26 42L25 42L25 45L26 45L26 46L27 46L27 49L26 49L26 48L25 48L25 49L26 49L26 50L27 50L27 49L28 49L28 47L29 47L29 45L28 45L28 44L27 44L27 45L26 45L26 42L27 42L27 43L28 43L28 42L27 42L27 41ZM30 41L30 43L31 43L31 41ZM34 41L34 42L35 42L35 41ZM42 41L42 42L43 42L43 41ZM56 42L56 43L57 43L57 42ZM40 43L40 44L41 44L41 45L42 45L42 46L43 46L43 43L42 43L42 44L41 44L41 43ZM22 44L22 45L23 45L23 44ZM51 44L51 45L52 45L52 44ZM27 45L27 46L28 46L28 45ZM44 45L44 46L45 46L45 45ZM48 45L48 48L49 48L49 49L50 49L50 50L49 50L49 51L48 51L48 49L46 49L46 50L47 50L47 51L48 51L48 52L49 52L49 51L50 51L50 50L51 50L51 48L49 48L49 47L50 47L50 46L49 46L49 45ZM30 46L30 47L31 47L31 46ZM32 46L32 47L33 47L33 48L32 48L32 49L33 49L33 48L34 48L34 49L35 49L35 46L34 46L34 47L33 47L33 46ZM9 47L9 48L10 48L10 47ZM46 47L46 48L47 48L47 47ZM15 48L15 49L16 49L16 48ZM30 48L30 49L31 49L31 48ZM58 48L58 49L59 49L59 48ZM29 50L29 51L30 51L30 50ZM39 50L39 51L40 51L40 50ZM3 51L3 52L4 52L4 51ZM60 52L60 53L61 53L61 52ZM29 53L29 56L32 56L32 53ZM53 53L53 56L56 56L56 53ZM22 54L22 55L23 55L23 54ZM30 54L30 55L31 55L31 54ZM48 54L48 55L49 55L49 54ZM54 54L54 55L55 55L55 54ZM38 55L38 56L39 56L39 55ZM8 56L8 61L13 61L13 59L14 59L14 58L13 58L13 59L12 59L12 58L10 58L10 56ZM50 56L50 57L51 57L51 56ZM32 57L32 58L28 58L28 59L31 59L31 60L32 60L32 58L33 58L33 59L34 59L34 60L35 60L35 59L34 59L34 58L33 58L33 57ZM38 57L38 58L39 58L39 57ZM42 57L42 58L43 58L43 57ZM55 57L55 58L56 58L56 59L55 59L55 60L56 60L56 59L57 59L57 58L58 58L58 60L60 60L60 57L59 57L59 58L58 58L58 57L57 57L57 58L56 58L56 57ZM19 58L19 59L18 59L18 60L19 60L19 59L20 59L20 58ZM45 59L45 60L46 60L46 59ZM0 0L0 7L7 7L7 0ZM1 1L1 6L6 6L6 1ZM2 2L2 5L5 5L5 2ZM54 0L54 7L61 7L61 0ZM55 1L55 6L60 6L60 1ZM56 2L56 5L59 5L59 2ZM0 54L0 61L7 61L7 54ZM1 55L1 60L6 60L6 55ZM2 56L2 59L5 59L5 56Z" fill="#000000"/></g></g></svg>
