<?xml version="1.0" encoding="UTF-8"?>
<svg xmlns="http://www.w3.org/2000/svg" version="1.1" width="200" height="200" viewBox="0 0 200 200"><rect x="0" y="0" width="200" height="200" fill="#ffffff"/><g transform="scale(3.279)"><g transform="translate(0,0)"><path fill-rule="evenodd" d="M10 0L10 1L11 1L11 2L9 2L9 1L8 1L8 2L9 2L9 3L8 3L8 4L10 4L10 5L8 5L8 7L9 7L9 8L6 8L6 9L7 9L7 10L6 10L6 11L5 11L5 10L4 10L4 9L5 9L5 8L0 8L0 10L1 10L1 9L2 9L2 11L3 11L3 12L4 12L4 13L5 13L5 12L6 12L6 13L8 13L8 12L9 12L9 14L8 14L8 15L7 15L7 14L4 14L4 15L3 15L3 13L2 13L2 12L1 12L1 11L0 11L0 13L2 13L2 16L1 16L1 15L0 15L0 16L1 16L1 18L0 18L0 20L1 20L1 18L2 18L2 20L4 20L4 19L5 19L5 20L6 20L6 21L7 21L7 22L6 22L6 23L2 23L2 22L4 22L4 21L2 21L2 22L1 22L1 21L0 21L0 22L1 22L1 23L0 23L0 24L1 24L1 26L0 26L0 30L1 30L1 32L2 32L2 33L0 33L0 34L2 34L2 35L3 35L3 36L4 36L4 37L5 37L5 39L7 39L7 40L6 40L6 41L10 41L10 42L11 42L11 43L10 43L10 44L11 44L11 45L12 45L12 46L11 46L11 47L10 47L10 49L9 49L9 48L8 48L8 47L7 47L7 46L8 46L8 45L9 45L9 46L10 46L10 45L9 45L9 42L8 42L8 43L7 43L7 42L5 42L5 46L3 46L3 47L2 47L2 48L3 48L3 50L2 50L2 49L0 49L0 50L2 50L2 51L0 51L0 53L4 53L4 52L5 52L5 51L7 51L7 52L6 52L6 53L8 53L8 55L9 55L9 56L8 56L8 61L9 61L9 60L10 60L10 59L9 59L9 58L12 58L12 57L13 57L13 56L16 56L16 57L18 57L18 58L17 58L17 60L16 60L16 61L17 61L17 60L18 60L18 61L19 61L19 59L21 59L21 58L20 58L20 53L21 53L21 57L22 57L22 58L23 58L23 61L24 61L24 58L25 58L25 57L26 57L26 58L27 58L27 59L28 59L28 60L27 60L27 61L28 61L28 60L29 60L29 57L30 57L30 58L32 58L32 60L31 60L31 59L30 59L30 60L31 60L31 61L32 61L32 60L33 60L33 58L32 58L32 57L33 57L33 55L35 55L35 54L33 54L33 53L35 53L35 52L34 52L34 51L33 51L33 52L32 52L32 51L31 51L31 49L32 49L32 47L33 47L33 49L36 49L36 50L35 50L35 51L36 51L36 50L38 50L38 51L40 51L40 52L42 52L42 54L45 54L45 53L44 53L44 52L47 52L47 54L46 54L46 55L44 55L44 56L43 56L43 55L42 55L42 56L41 56L41 57L39 57L39 58L38 58L38 57L37 57L37 56L40 56L40 54L41 54L41 53L39 53L39 54L36 54L36 55L37 55L37 56L36 56L36 57L35 57L35 58L34 58L34 59L35 59L35 60L34 60L34 61L38 61L38 60L36 60L36 59L37 59L37 58L38 58L38 59L39 59L39 61L40 61L40 60L41 60L41 59L42 59L42 58L43 58L43 59L45 59L45 61L49 61L49 60L50 60L50 59L52 59L52 60L51 60L51 61L53 61L53 60L54 60L54 61L61 61L61 54L59 54L59 53L60 53L60 52L56 52L56 50L53 50L53 49L52 49L52 48L53 48L53 47L54 47L54 48L56 48L56 49L57 49L57 51L58 51L58 48L57 48L57 47L56 47L56 46L55 46L55 44L54 44L54 45L53 45L53 42L54 42L54 43L56 43L56 41L59 41L59 42L60 42L60 43L59 43L59 44L56 44L56 45L59 45L59 44L60 44L60 45L61 45L61 42L60 42L60 40L61 40L61 38L59 38L59 36L58 36L58 38L57 38L57 39L60 39L60 40L56 40L56 39L55 39L55 38L56 38L56 36L54 36L54 35L55 35L55 34L54 34L54 35L53 35L53 33L57 33L57 30L58 30L58 31L59 31L59 34L60 34L60 35L61 35L61 34L60 34L60 33L61 33L61 32L60 32L60 31L61 31L61 30L60 30L60 29L59 29L59 28L61 28L61 26L60 26L60 24L61 24L61 22L60 22L60 24L57 24L57 23L59 23L59 22L58 22L58 21L59 21L59 20L58 20L58 21L57 21L57 22L56 22L56 20L57 20L57 19L56 19L56 15L61 15L61 14L58 14L58 13L59 13L59 12L60 12L60 11L61 11L61 10L60 10L60 11L59 11L59 12L58 12L58 10L59 10L59 9L60 9L60 8L59 8L59 9L58 9L58 8L57 8L57 9L56 9L56 8L55 8L55 9L54 9L54 8L52 8L52 7L53 7L53 6L52 6L52 7L51 7L51 5L52 5L52 4L53 4L53 0L51 0L51 2L50 2L50 3L47 3L47 1L46 1L46 4L47 4L47 5L45 5L45 4L44 4L44 3L45 3L45 2L44 2L44 3L43 3L43 1L44 1L44 0L40 0L40 1L38 1L38 0L35 0L35 1L34 1L34 0L32 0L32 1L31 1L31 0L30 0L30 1L31 1L31 2L29 2L29 1L28 1L28 0L26 0L26 1L25 1L25 0L24 0L24 1L25 1L25 3L26 3L26 1L27 1L27 3L28 3L28 4L26 4L26 5L27 5L27 6L26 6L26 7L25 7L25 4L22 4L22 3L23 3L23 2L22 2L22 1L23 1L23 0L21 0L21 3L20 3L20 4L19 4L19 3L18 3L18 4L19 4L19 5L20 5L20 4L21 4L21 5L22 5L22 7L21 7L21 6L20 6L20 7L21 7L21 8L19 8L19 6L18 6L18 5L16 5L16 4L17 4L17 1L18 1L18 0L16 0L16 1L13 1L13 2L14 2L14 3L12 3L12 4L10 4L10 3L11 3L11 2L12 2L12 1L11 1L11 0ZM19 0L19 1L20 1L20 0ZM48 0L48 2L49 2L49 1L50 1L50 0ZM32 1L32 2L33 2L33 3L34 3L34 2L33 2L33 1ZM37 1L37 2L35 2L35 4L34 4L34 5L35 5L35 7L34 7L34 6L33 6L33 8L34 8L34 9L33 9L33 10L32 10L32 11L33 11L33 10L35 10L35 11L34 11L34 12L40 12L40 13L38 13L38 14L37 14L37 13L36 13L36 15L34 15L34 16L38 16L38 18L37 18L37 17L36 17L36 18L37 18L37 19L36 19L36 20L35 20L35 19L34 19L34 18L35 18L35 17L34 17L34 18L32 18L32 19L31 19L31 17L33 17L33 16L32 16L32 15L33 15L33 12L30 12L30 11L27 11L27 10L26 10L26 9L27 9L27 8L28 8L28 6L27 6L27 7L26 7L26 9L25 9L25 8L21 8L21 9L20 9L20 10L18 10L18 8L17 8L17 7L18 7L18 6L17 6L17 7L16 7L16 6L15 6L15 7L16 7L16 8L17 8L17 9L15 9L15 8L14 8L14 9L13 9L13 10L14 10L14 9L15 9L15 11L13 11L13 15L12 15L12 16L10 16L10 14L12 14L12 13L10 13L10 14L9 14L9 15L8 15L8 17L6 17L6 16L7 16L7 15L6 15L6 16L5 16L5 15L4 15L4 17L6 17L6 18L8 18L8 19L6 19L6 20L9 20L9 21L8 21L8 22L7 22L7 23L6 23L6 24L4 24L4 25L3 25L3 26L1 26L1 27L2 27L2 28L1 28L1 30L2 30L2 31L3 31L3 32L4 32L4 28L8 28L8 27L9 27L9 29L11 29L11 27L10 27L10 26L8 26L8 22L9 22L9 25L10 25L10 24L13 24L13 22L14 22L14 23L15 23L15 24L16 24L16 23L15 23L15 22L14 22L14 20L15 20L15 19L16 19L16 20L21 20L21 19L22 19L22 21L25 21L25 22L26 22L26 21L27 21L27 23L25 23L25 24L23 24L23 23L24 23L24 22L21 22L21 21L20 21L20 24L19 24L19 21L16 21L16 22L18 22L18 23L17 23L17 24L18 24L18 25L15 25L15 27L14 27L14 25L13 25L13 26L12 26L12 25L11 25L11 26L12 26L12 27L14 27L14 29L16 29L16 30L18 30L18 32L19 32L19 33L17 33L17 31L16 31L16 33L15 33L15 34L13 34L13 35L11 35L11 34L10 34L10 37L9 37L9 35L8 35L8 34L7 34L7 33L6 33L6 34L5 34L5 33L4 33L4 34L3 34L3 33L2 33L2 34L3 34L3 35L4 35L4 36L5 36L5 37L6 37L6 38L7 38L7 39L8 39L8 40L9 40L9 38L10 38L10 41L11 41L11 42L12 42L12 41L11 41L11 38L12 38L12 40L13 40L13 39L14 39L14 38L15 38L15 41L14 41L14 42L13 42L13 46L12 46L12 47L13 47L13 48L12 48L12 49L14 49L14 47L15 47L15 46L14 46L14 45L15 45L15 44L14 44L14 43L16 43L16 44L19 44L19 42L18 42L18 43L16 43L16 42L17 42L17 41L18 41L18 40L17 40L17 39L18 39L18 38L19 38L19 39L21 39L21 38L22 38L22 39L24 39L24 41L25 41L25 42L22 42L22 41L23 41L23 40L22 40L22 41L21 41L21 40L19 40L19 41L20 41L20 44L21 44L21 45L20 45L20 46L19 46L19 45L16 45L16 46L19 46L19 47L16 47L16 48L15 48L15 49L16 49L16 50L15 50L15 51L14 51L14 50L13 50L13 51L14 51L14 53L13 53L13 54L14 54L14 55L16 55L16 56L18 56L18 57L19 57L19 53L20 53L20 52L21 52L21 53L25 53L25 54L26 54L26 55L25 55L25 56L24 56L24 55L23 55L23 56L22 56L22 57L25 57L25 56L26 56L26 57L27 57L27 55L28 55L28 54L26 54L26 53L27 53L27 52L26 52L26 51L27 51L27 50L26 50L26 49L29 49L29 51L28 51L28 52L31 52L31 51L30 51L30 49L29 49L29 48L27 48L27 47L26 47L26 49L25 49L25 48L24 48L24 47L25 47L25 46L24 46L24 45L27 45L27 46L28 46L28 47L30 47L30 48L31 48L31 46L36 46L36 45L33 45L33 43L32 43L32 42L35 42L35 43L34 43L34 44L37 44L37 45L38 45L38 46L37 46L37 47L34 47L34 48L37 48L37 49L38 49L38 50L40 50L40 51L42 51L42 52L43 52L43 51L42 51L42 50L40 50L40 49L42 49L42 48L39 48L39 49L38 49L38 48L37 48L37 47L38 47L38 46L39 46L39 45L38 45L38 44L37 44L37 43L38 43L38 42L39 42L39 44L40 44L40 45L41 45L41 46L40 46L40 47L41 47L41 46L42 46L42 47L43 47L43 48L44 48L44 49L43 49L43 50L44 50L44 51L45 51L45 50L47 50L47 51L48 51L48 52L49 52L49 53L50 53L50 54L49 54L49 55L46 55L46 56L50 56L50 57L45 57L45 56L44 56L44 57L45 57L45 59L46 59L46 60L49 60L49 59L50 59L50 58L51 58L51 57L52 57L52 55L51 55L51 56L50 56L50 54L51 54L51 52L49 52L49 51L48 51L48 50L49 50L49 49L50 49L50 50L51 50L51 51L53 51L53 52L55 52L55 51L53 51L53 50L52 50L52 49L50 49L50 48L52 48L52 47L50 47L50 46L51 46L51 45L50 45L50 44L51 44L51 42L53 42L53 38L52 38L52 37L51 37L51 36L49 36L49 35L50 35L50 34L51 34L51 33L52 33L52 32L49 32L49 31L50 31L50 30L51 30L51 31L52 31L52 29L51 29L51 28L54 28L54 26L53 26L53 25L55 25L55 27L57 27L57 28L59 28L59 27L57 27L57 26L56 26L56 25L57 25L57 24L54 24L54 22L53 22L53 21L55 21L55 20L56 20L56 19L55 19L55 20L54 20L54 18L53 18L53 17L55 17L55 16L52 16L52 15L56 15L56 13L57 13L57 12L56 12L56 9L55 9L55 10L54 10L54 9L52 9L52 10L53 10L53 11L52 11L52 12L53 12L53 13L51 13L51 12L49 12L49 15L48 15L48 16L49 16L49 17L45 17L45 14L41 14L41 12L42 12L42 13L43 13L43 12L42 12L42 11L44 11L44 13L46 13L46 14L47 14L47 11L45 11L45 10L44 10L44 9L46 9L46 10L48 10L48 11L51 11L51 9L50 9L50 10L48 10L48 9L47 9L47 8L50 8L50 5L47 5L47 7L46 7L46 6L45 6L45 8L43 8L43 7L44 7L44 6L43 6L43 7L42 7L42 5L40 5L40 4L41 4L41 3L38 3L38 1ZM40 1L40 2L42 2L42 1ZM15 2L15 3L14 3L14 4L15 4L15 3L16 3L16 2ZM28 2L28 3L29 3L29 4L31 4L31 3L29 3L29 2ZM36 3L36 4L35 4L35 5L36 5L36 7L35 7L35 9L37 9L37 10L36 10L36 11L39 11L39 10L40 10L40 12L41 12L41 10L40 10L40 8L41 8L41 6L40 6L40 5L37 5L37 3ZM51 3L51 4L52 4L52 3ZM12 4L12 5L11 5L11 7L12 7L12 6L13 6L13 7L14 7L14 6L13 6L13 4ZM43 4L43 5L44 5L44 4ZM29 5L29 8L32 8L32 5ZM9 6L9 7L10 7L10 6ZM23 6L23 7L24 7L24 6ZM30 6L30 7L31 7L31 6ZM37 6L37 7L36 7L36 8L37 8L37 9L38 9L38 10L39 10L39 9L38 9L38 8L39 8L39 7L40 7L40 6L39 6L39 7L38 7L38 6ZM48 6L48 7L49 7L49 6ZM10 8L10 10L12 10L12 8ZM22 9L22 10L20 10L20 11L22 11L22 12L23 12L23 11L24 11L24 12L26 12L26 11L25 11L25 9ZM29 9L29 10L30 10L30 9ZM42 9L42 10L43 10L43 9ZM57 9L57 10L58 10L58 9ZM7 10L7 11L6 11L6 12L8 12L8 10ZM22 10L22 11L23 11L23 10ZM10 11L10 12L12 12L12 11ZM15 11L15 13L14 13L14 14L15 14L15 16L17 16L17 17L19 17L19 18L18 18L18 19L19 19L19 18L20 18L20 19L21 19L21 18L22 18L22 19L23 19L23 18L22 18L22 17L21 17L21 16L23 16L23 17L24 17L24 18L25 18L25 17L24 17L24 16L23 16L23 15L28 15L28 14L29 14L29 16L31 16L31 15L32 15L32 14L31 14L31 13L28 13L28 14L27 14L27 13L24 13L24 14L23 14L23 13L21 13L21 12L19 12L19 11L18 11L18 12L17 12L17 11ZM53 11L53 12L54 12L54 14L55 14L55 12L54 12L54 11ZM15 13L15 14L17 14L17 16L21 16L21 15L20 15L20 14L21 14L21 13ZM34 13L34 14L35 14L35 13ZM18 14L18 15L19 15L19 14ZM22 14L22 15L23 15L23 14ZM38 14L38 16L39 16L39 15L40 15L40 16L41 16L41 19L40 19L40 17L39 17L39 18L38 18L38 20L36 20L36 21L35 21L35 20L34 20L34 19L32 19L32 20L31 20L31 19L29 19L29 18L30 18L30 17L26 17L26 18L27 18L27 19L26 19L26 20L28 20L28 19L29 19L29 20L31 20L31 21L28 21L28 23L27 23L27 25L26 25L26 24L25 24L25 25L22 25L22 23L21 23L21 24L20 24L20 25L21 25L21 26L20 26L20 27L19 27L19 28L18 28L18 26L19 26L19 25L18 25L18 26L16 26L16 27L15 27L15 28L16 28L16 29L19 29L19 28L20 28L20 29L21 29L21 31L22 31L22 30L23 30L23 31L25 31L25 30L27 30L27 31L26 31L26 32L25 32L25 33L24 33L24 34L23 34L23 35L22 35L22 34L21 34L21 35L19 35L19 34L18 34L18 35L17 35L17 33L16 33L16 34L15 34L15 35L16 35L16 36L14 36L14 37L13 37L13 38L14 38L14 37L17 37L17 38L18 38L18 37L19 37L19 38L20 38L20 37L21 37L21 36L23 36L23 37L22 37L22 38L25 38L25 37L24 37L24 36L25 36L25 35L28 35L28 34L29 34L29 35L30 35L30 34L31 34L31 36L30 36L30 37L32 37L32 33L33 33L33 38L32 38L32 39L31 39L31 38L29 38L29 37L28 37L28 36L27 36L27 37L26 37L26 38L27 38L27 39L28 39L28 38L29 38L29 40L30 40L30 41L31 41L31 42L30 42L30 43L31 43L31 44L30 44L30 45L29 45L29 46L30 46L30 45L31 45L31 44L32 44L32 43L31 43L31 42L32 42L32 39L34 39L34 40L33 40L33 41L34 41L34 40L35 40L35 39L36 39L36 38L37 38L37 39L38 39L38 40L36 40L36 41L37 41L37 42L36 42L36 43L37 43L37 42L38 42L38 40L39 40L39 41L40 41L40 44L41 44L41 43L42 43L42 44L43 44L43 45L42 45L42 46L44 46L44 43L45 43L45 47L46 47L46 48L45 48L45 49L47 49L47 46L48 46L48 47L49 47L49 46L50 46L50 45L49 45L49 44L48 44L48 43L47 43L47 42L50 42L50 41L49 41L49 40L50 40L50 39L51 39L51 38L50 38L50 37L49 37L49 36L47 36L47 37L49 37L49 38L48 38L48 39L49 39L49 40L47 40L47 38L45 38L45 37L44 37L44 36L46 36L46 35L48 35L48 34L49 34L49 32L48 32L48 34L45 34L45 33L44 33L44 32L43 32L43 31L44 31L44 28L43 28L43 27L40 27L40 26L46 26L46 27L45 27L45 30L46 30L46 31L49 31L49 28L51 28L51 27L49 27L49 28L46 28L46 27L48 27L48 26L50 26L50 24L46 24L46 23L49 23L49 22L50 22L50 23L52 23L52 24L53 24L53 23L52 23L52 21L53 21L53 20L51 20L51 22L50 22L50 20L47 20L47 18L44 18L44 20L43 20L43 21L42 21L42 22L44 22L44 20L45 20L45 21L47 21L47 22L45 22L45 23L44 23L44 24L45 24L45 25L40 25L40 24L41 24L41 23L40 23L40 22L38 22L38 23L37 23L37 22L36 22L36 21L38 21L38 20L42 20L42 19L43 19L43 17L44 17L44 16L43 16L43 17L42 17L42 15L41 15L41 14ZM50 14L50 15L52 15L52 14ZM13 15L13 16L12 16L12 17L11 17L11 22L10 22L10 23L12 23L12 22L13 22L13 21L12 21L12 20L13 20L13 19L14 19L14 17L13 17L13 16L14 16L14 15ZM46 15L46 16L47 16L47 15ZM9 16L9 17L10 17L10 16ZM50 16L50 17L52 17L52 16ZM57 16L57 17L58 17L58 19L59 19L59 17L58 17L58 16ZM60 16L60 17L61 17L61 16ZM12 17L12 19L13 19L13 17ZM15 17L15 18L16 18L16 17ZM20 17L20 18L21 18L21 17ZM3 18L3 19L4 19L4 18ZM48 18L48 19L49 19L49 18ZM50 18L50 19L51 19L51 18ZM60 18L60 19L61 19L61 18ZM9 19L9 20L10 20L10 19ZM24 19L24 20L25 20L25 19ZM45 19L45 20L46 20L46 19ZM31 21L31 22L32 22L32 23L31 23L31 24L30 24L30 23L28 23L28 24L29 24L29 25L28 25L28 26L29 26L29 27L27 27L27 26L26 26L26 25L25 25L25 28L24 28L24 29L23 29L23 27L24 27L24 26L21 26L21 29L23 29L23 30L24 30L24 29L27 29L27 30L28 30L28 29L27 29L27 28L29 28L29 27L30 27L30 25L31 25L31 26L32 26L32 28L34 28L34 30L35 30L35 32L37 32L37 31L38 31L38 30L40 30L40 31L43 31L43 30L42 30L42 29L41 29L41 28L40 28L40 27L39 27L39 28L38 28L38 26L39 26L39 25L38 25L38 24L39 24L39 23L38 23L38 24L37 24L37 23L36 23L36 22L35 22L35 21L34 21L34 22L32 22L32 21ZM48 21L48 22L49 22L49 21ZM34 22L34 23L35 23L35 22ZM55 22L55 23L56 23L56 22ZM1 23L1 24L2 24L2 23ZM42 23L42 24L43 24L43 23ZM6 24L6 25L5 25L5 27L8 27L8 26L6 26L6 25L7 25L7 24ZM32 24L32 26L33 26L33 27L34 27L34 28L35 28L35 30L38 30L38 28L35 28L35 27L36 27L36 26L38 26L38 25L37 25L37 24L36 24L36 26L33 26L33 24ZM46 25L46 26L48 26L48 25ZM58 25L58 26L59 26L59 25ZM3 27L3 28L4 28L4 27ZM16 27L16 28L17 28L17 27ZM39 28L39 29L40 29L40 28ZM2 29L2 30L3 30L3 29ZM5 29L5 32L8 32L8 29ZM12 29L12 30L9 30L9 31L12 31L12 32L11 32L11 33L12 33L12 32L14 32L14 31L15 31L15 30L14 30L14 31L12 31L12 30L13 30L13 29ZM29 29L29 32L32 32L32 29ZM46 29L46 30L48 30L48 29ZM53 29L53 32L56 32L56 29ZM58 29L58 30L59 30L59 29ZM6 30L6 31L7 31L7 30ZM30 30L30 31L31 31L31 30ZM54 30L54 31L55 31L55 30ZM19 31L19 32L20 32L20 33L21 33L21 32L20 32L20 31ZM9 32L9 33L10 33L10 32ZM26 32L26 33L25 33L25 34L26 34L26 33L28 33L28 32ZM38 32L38 34L37 34L37 35L36 35L36 34L35 34L35 33L34 33L34 34L35 34L35 35L36 35L36 36L35 36L35 37L34 37L34 38L35 38L35 37L36 37L36 36L37 36L37 35L38 35L38 34L39 34L39 35L40 35L40 33L41 33L41 32L40 32L40 33L39 33L39 32ZM29 33L29 34L30 34L30 33ZM6 34L6 35L5 35L5 36L6 36L6 37L7 37L7 36L8 36L8 35L7 35L7 34ZM41 34L41 36L38 36L38 37L37 37L37 38L39 38L39 39L45 39L45 38L42 38L42 37L43 37L43 36L44 36L44 35L45 35L45 34L43 34L43 36L42 36L42 34ZM56 34L56 35L57 35L57 34ZM6 35L6 36L7 36L7 35ZM0 36L0 37L1 37L1 36ZM19 36L19 37L20 37L20 36ZM53 36L53 37L54 37L54 36ZM60 36L60 37L61 37L61 36ZM2 37L2 38L0 38L0 39L2 39L2 40L3 40L3 39L4 39L4 38L3 38L3 37ZM39 37L39 38L41 38L41 37ZM2 38L2 39L3 39L3 38ZM49 38L49 39L50 39L50 38ZM25 39L25 41L26 41L26 42L25 42L25 43L26 43L26 42L27 42L27 43L28 43L28 42L27 42L27 41L28 41L28 40L27 40L27 41L26 41L26 39ZM0 40L0 41L1 41L1 42L0 42L0 43L4 43L4 42L2 42L2 41L1 41L1 40ZM4 40L4 41L5 41L5 40ZM16 40L16 41L17 41L17 40ZM40 40L40 41L41 41L41 40ZM44 40L44 42L45 42L45 40ZM51 40L51 41L52 41L52 40ZM54 40L54 42L55 42L55 41L56 41L56 40ZM46 41L46 42L47 42L47 41ZM42 42L42 43L43 43L43 42ZM6 43L6 44L7 44L7 45L6 45L6 46L5 46L5 47L4 47L4 48L5 48L5 49L4 49L4 50L8 50L8 53L9 53L9 52L10 52L10 50L11 50L11 49L10 49L10 50L8 50L8 48L7 48L7 47L6 47L6 46L7 46L7 45L8 45L8 44L7 44L7 43ZM11 43L11 44L12 44L12 43ZM21 43L21 44L22 44L22 43ZM23 43L23 45L21 45L21 46L20 46L20 47L19 47L19 48L17 48L17 49L19 49L19 48L20 48L20 49L21 49L21 50L22 50L22 49L21 49L21 46L23 46L23 45L24 45L24 43ZM0 44L0 47L1 47L1 44ZM2 44L2 45L4 45L4 44ZM46 45L46 46L47 46L47 45ZM59 46L59 47L61 47L61 46ZM5 47L5 48L6 48L6 49L7 49L7 48L6 48L6 47ZM48 48L48 49L49 49L49 48ZM60 48L60 49L61 49L61 48ZM23 49L23 51L25 51L25 49ZM17 50L17 52L16 52L16 51L15 51L15 52L16 52L16 53L19 53L19 50ZM60 50L60 51L61 51L61 50ZM3 51L3 52L4 52L4 51ZM21 51L21 52L22 52L22 51ZM11 52L11 53L10 53L10 54L9 54L9 55L10 55L10 54L11 54L11 53L12 53L12 52ZM25 52L25 53L26 53L26 52ZM36 52L36 53L38 53L38 52ZM14 53L14 54L15 54L15 53ZM29 53L29 56L32 56L32 53ZM53 53L53 56L56 56L56 53ZM57 53L57 56L59 56L59 55L58 55L58 53ZM16 54L16 55L18 55L18 54ZM30 54L30 55L31 55L31 54ZM54 54L54 55L55 55L55 54ZM11 55L11 56L9 56L9 57L11 57L11 56L12 56L12 55ZM42 56L42 57L43 57L43 56ZM56 57L56 59L55 59L55 60L60 60L60 57L59 57L59 58L58 58L58 57ZM13 58L13 59L12 59L12 60L11 60L11 61L12 61L12 60L13 60L13 61L14 61L14 60L15 60L15 58ZM35 58L35 59L36 59L36 58ZM47 58L47 59L49 59L49 58ZM52 58L52 59L54 59L54 58ZM25 59L25 60L26 60L26 59ZM20 60L20 61L21 61L21 60ZM43 60L43 61L44 61L44 60ZM0 0L0 7L7 7L7 0ZM1 1L1 6L6 6L6 1ZM2 2L2 5L5 5L5 2ZM54 0L54 7L61 7L61 0ZM55 1L55 6L60 6L60 1ZM56 2L56 5L59 5L59 2ZM0 54L0 61L7 61L7 54ZM1 55L1 60L6 60L6 55ZM2 56L2 59L5 59L5 56Z" fill="#000000"/></g></g></svg>
