<?xml version="1.0" encoding="UTF-8"?>
<svg xmlns="http://www.w3.org/2000/svg" version="1.1" width="200" height="200" viewBox="0 0 200 200"><rect x="0" y="0" width="200" height="200" fill="#ffffff"/><g transform="scale(3.279)"><g transform="translate(0,0)"><path fill-rule="evenodd" d="M8 0L8 4L9 4L9 5L8 5L8 7L9 7L9 6L10 6L10 7L11 7L11 8L10 8L10 9L7 9L7 8L4 8L4 9L5 9L5 10L1 10L1 9L2 9L2 8L0 8L0 10L1 10L1 11L0 11L0 12L1 12L1 11L2 11L2 12L3 12L3 11L5 11L5 10L6 10L6 11L7 11L7 12L6 12L6 13L7 13L7 14L6 14L6 15L5 15L5 16L6 16L6 17L5 17L5 18L6 18L6 19L8 19L8 20L6 20L6 21L5 21L5 22L4 22L4 20L5 20L5 19L4 19L4 20L3 20L3 21L1 21L1 20L0 20L0 23L2 23L2 24L0 24L0 25L1 25L1 27L0 27L0 31L1 31L1 27L3 27L3 28L2 28L2 29L4 29L4 33L2 33L2 32L0 32L0 33L2 33L2 34L1 34L1 35L0 35L0 37L3 37L3 38L5 38L5 40L4 40L4 39L1 39L1 38L0 38L0 39L1 39L1 40L2 40L2 41L0 41L0 42L1 42L1 43L2 43L2 46L4 46L4 47L2 47L2 48L1 48L1 46L0 46L0 49L1 49L1 50L2 50L2 51L0 51L0 53L4 53L4 52L5 52L5 51L7 51L7 52L6 52L6 53L7 53L7 52L8 52L8 54L9 54L9 55L8 55L8 57L9 57L9 59L8 59L8 61L9 61L9 59L10 59L10 58L11 58L11 59L12 59L12 60L11 60L11 61L14 61L14 60L15 60L15 61L17 61L17 60L18 60L18 61L19 61L19 59L18 59L18 58L19 58L19 56L20 56L20 54L21 54L21 53L22 53L22 54L26 54L26 53L28 53L28 55L26 55L26 56L25 56L25 57L22 57L22 58L21 58L21 57L20 57L20 59L21 59L21 60L22 60L22 59L24 59L24 58L25 58L25 61L27 61L27 59L26 59L26 58L25 58L25 57L27 57L27 56L28 56L28 59L29 59L29 60L30 60L30 59L31 59L31 60L32 60L32 61L33 61L33 59L34 59L34 57L33 57L33 56L34 56L34 55L35 55L35 56L36 56L36 59L35 59L35 60L34 60L34 61L37 61L37 60L39 60L39 57L38 57L38 59L37 59L37 56L38 56L38 55L39 55L39 56L40 56L40 55L41 55L41 61L43 61L43 60L44 60L44 61L51 61L51 60L52 60L52 59L53 59L53 60L54 60L54 59L53 59L53 58L55 58L55 60L56 60L56 61L57 61L57 60L56 60L56 58L55 58L55 57L57 57L57 54L59 54L59 55L58 55L58 61L61 61L61 60L60 60L60 58L61 58L61 57L60 57L60 54L59 54L59 52L61 52L61 51L60 51L60 50L59 50L59 49L60 49L60 48L61 48L61 47L60 47L60 48L59 48L59 46L60 46L60 45L61 45L61 44L60 44L60 45L59 45L59 43L60 43L60 38L59 38L59 36L60 36L60 37L61 37L61 35L58 35L58 34L57 34L57 33L61 33L61 32L59 32L59 30L60 30L60 29L61 29L61 27L59 27L59 26L60 26L60 25L61 25L61 23L58 23L58 22L57 22L57 23L55 23L55 22L56 22L56 21L57 21L57 20L58 20L58 21L59 21L59 18L58 18L58 17L59 17L59 16L60 16L60 17L61 17L61 16L60 16L60 15L58 15L58 16L57 16L57 14L59 14L59 11L60 11L60 12L61 12L61 11L60 11L60 10L58 10L58 9L61 9L61 8L57 8L57 10L56 10L56 8L55 8L55 9L54 9L54 10L53 10L53 11L52 11L52 9L53 9L53 8L50 8L50 9L49 9L49 6L50 6L50 7L51 7L51 5L52 5L52 4L53 4L53 0L51 0L51 2L50 2L50 0L49 0L49 2L48 2L48 1L46 1L46 0L41 0L41 1L42 1L42 3L40 3L40 0L38 0L38 1L36 1L36 2L33 2L33 1L34 1L34 0L33 0L33 1L32 1L32 0L30 0L30 1L31 1L31 3L30 3L30 2L29 2L29 1L28 1L28 0L27 0L27 1L26 1L26 0L23 0L23 2L26 2L26 3L22 3L22 2L19 2L19 1L17 1L17 2L16 2L16 1L15 1L15 0L14 0L14 1L15 1L15 3L17 3L17 2L19 2L19 3L20 3L20 5L24 5L24 7L25 7L25 5L26 5L26 7L27 7L27 8L26 8L26 9L24 9L24 10L23 10L23 9L21 9L21 8L22 8L22 7L23 7L23 6L22 6L22 7L21 7L21 6L20 6L20 7L19 7L19 6L18 6L18 5L19 5L19 4L18 4L18 5L16 5L16 4L15 4L15 5L14 5L14 3L13 3L13 5L12 5L12 7L11 7L11 6L10 6L10 5L11 5L11 3L12 3L12 2L11 2L11 3L10 3L10 0ZM11 0L11 1L13 1L13 0ZM20 0L20 1L21 1L21 0ZM27 1L27 2L28 2L28 1ZM43 1L43 3L42 3L42 4L41 4L41 7L40 7L40 6L39 6L39 5L40 5L40 3L38 3L38 4L39 4L39 5L36 5L36 4L37 4L37 3L36 3L36 4L35 4L35 3L34 3L34 5L33 5L33 9L32 9L32 10L28 10L28 8L27 8L27 9L26 9L26 11L25 11L25 10L24 10L24 11L23 11L23 12L22 12L22 10L20 10L20 11L19 11L19 13L16 13L16 12L17 12L17 11L18 11L18 9L20 9L20 8L18 8L18 9L16 9L16 6L15 6L15 9L13 9L13 8L14 8L14 6L13 6L13 7L12 7L12 8L11 8L11 9L10 9L10 11L9 11L9 12L7 12L7 13L8 13L8 14L9 14L9 15L10 15L10 17L11 17L11 18L10 18L10 19L9 19L9 18L8 18L8 17L6 17L6 18L8 18L8 19L9 19L9 23L8 23L8 24L7 24L7 23L5 23L5 25L3 25L3 24L4 24L4 23L3 23L3 22L2 22L2 23L3 23L3 24L2 24L2 26L4 26L4 27L5 27L5 28L7 28L7 27L6 27L6 26L8 26L8 28L9 28L9 29L11 29L11 27L12 27L12 26L13 26L13 25L14 25L14 24L15 24L15 25L16 25L16 26L15 26L15 27L14 27L14 28L17 28L17 29L16 29L16 31L15 31L15 29L14 29L14 32L13 32L13 31L12 31L12 30L13 30L13 29L12 29L12 30L10 30L10 33L6 33L6 34L7 34L7 35L6 35L6 36L4 36L4 37L6 37L6 38L7 38L7 37L6 37L6 36L8 36L8 38L9 38L9 39L6 39L6 40L5 40L5 41L4 41L4 40L3 40L3 41L2 41L2 43L4 43L4 42L5 42L5 43L6 43L6 44L5 44L5 45L6 45L6 46L7 46L7 47L4 47L4 48L5 48L5 49L6 49L6 50L7 50L7 49L6 49L6 48L9 48L9 49L8 49L8 50L10 50L10 49L11 49L11 52L10 52L10 53L12 53L12 54L13 54L13 53L14 53L14 51L13 51L13 49L14 49L14 50L15 50L15 49L17 49L17 48L18 48L18 47L19 47L19 49L18 49L18 50L16 50L16 51L15 51L15 54L14 54L14 55L12 55L12 56L13 56L13 57L12 57L12 59L13 59L13 60L14 60L14 59L17 59L17 57L18 57L18 56L19 56L19 54L20 54L20 53L21 53L21 51L23 51L23 50L24 50L24 49L25 49L25 50L26 50L26 51L25 51L25 52L22 52L22 53L26 53L26 52L27 52L27 49L28 49L28 51L29 51L29 52L33 52L33 51L32 51L32 48L34 48L34 50L35 50L35 53L34 53L34 54L33 54L33 55L34 55L34 54L35 54L35 53L36 53L36 55L37 55L37 53L38 53L38 52L37 52L37 53L36 53L36 51L38 51L38 50L35 50L35 49L36 49L36 48L35 48L35 47L36 47L36 46L37 46L37 48L38 48L38 49L39 49L39 51L40 51L40 53L41 53L41 50L42 50L42 49L43 49L43 51L42 51L42 52L43 52L43 55L45 55L45 54L44 54L44 51L45 51L45 50L46 50L46 51L47 51L47 50L48 50L48 51L50 51L50 52L49 52L49 56L50 56L50 57L49 57L49 58L50 58L50 57L51 57L51 59L50 59L50 60L51 60L51 59L52 59L52 55L50 55L50 53L51 53L51 54L52 54L52 52L53 52L53 51L55 51L55 52L57 52L57 53L58 53L58 52L57 52L57 51L56 51L56 49L55 49L55 50L53 50L53 51L52 51L52 49L53 49L53 48L55 48L55 46L53 46L53 45L54 45L54 44L52 44L52 43L50 43L50 42L47 42L47 41L48 41L48 40L47 40L47 41L46 41L46 42L47 42L47 44L46 44L46 43L44 43L44 42L45 42L45 41L44 41L44 42L42 42L42 44L41 44L41 43L39 43L39 45L40 45L40 47L42 47L42 48L40 48L40 49L39 49L39 47L38 47L38 40L40 40L40 41L39 41L39 42L40 42L40 41L43 41L43 40L44 40L44 39L43 39L43 40L42 40L42 39L38 39L38 38L36 38L36 39L35 39L35 40L33 40L33 39L32 39L32 38L33 38L33 37L32 37L32 36L34 36L34 38L35 38L35 37L36 37L36 36L34 36L34 35L33 35L33 33L31 33L31 34L30 34L30 35L31 35L31 34L32 34L32 36L31 36L31 37L29 37L29 36L28 36L28 35L27 35L27 37L26 37L26 35L24 35L24 36L22 36L22 34L23 34L23 33L24 33L24 32L25 32L25 33L26 33L26 34L27 34L27 33L28 33L28 34L29 34L29 33L28 33L28 27L29 27L29 28L32 28L32 27L33 27L33 28L34 28L34 27L35 27L35 29L34 29L34 31L33 31L33 32L35 32L35 33L34 33L34 34L36 34L36 35L37 35L37 36L38 36L38 37L39 37L39 35L38 35L38 34L37 34L37 33L38 33L38 32L40 32L40 34L42 34L42 33L43 33L43 34L45 34L45 35L47 35L47 34L48 34L48 35L49 35L49 36L50 36L50 37L49 37L49 38L47 38L47 37L48 37L48 36L47 36L47 37L46 37L46 38L45 38L45 37L44 37L44 35L40 35L40 37L44 37L44 38L45 38L45 39L50 39L50 37L51 37L51 38L53 38L53 39L51 39L51 42L54 42L54 43L57 43L57 44L56 44L56 45L58 45L58 46L59 46L59 45L58 45L58 42L59 42L59 41L58 41L58 39L59 39L59 38L58 38L58 39L56 39L56 37L57 37L57 36L56 36L56 37L54 37L54 35L55 35L55 33L53 33L53 35L52 35L52 32L51 32L51 35L50 35L50 29L48 29L48 30L47 30L47 28L46 28L46 30L45 30L45 29L44 29L44 30L45 30L45 31L44 31L44 32L42 32L42 31L41 31L41 30L42 30L42 29L43 29L43 28L44 28L44 27L45 27L45 25L46 25L46 26L48 26L48 27L50 27L50 28L51 28L51 29L52 29L52 28L54 28L54 27L55 27L55 28L56 28L56 27L57 27L57 29L58 29L58 30L57 30L57 32L58 32L58 30L59 30L59 29L58 29L58 26L57 26L57 25L58 25L58 23L57 23L57 25L56 25L56 26L54 26L54 27L50 27L50 26L49 26L49 25L48 25L48 23L49 23L49 24L50 24L50 25L51 25L51 26L53 26L53 25L55 25L55 23L54 23L54 24L53 24L53 23L49 23L49 22L50 22L50 20L51 20L51 21L52 21L52 22L54 22L54 21L55 21L55 19L56 19L56 14L57 14L57 13L58 13L58 10L57 10L57 13L55 13L55 12L56 12L56 10L55 10L55 12L53 12L53 13L52 13L52 12L51 12L51 11L50 11L50 10L49 10L49 9L48 9L48 8L47 8L47 9L46 9L46 8L45 8L45 7L46 7L46 5L47 5L47 7L48 7L48 6L49 6L49 5L50 5L50 4L49 4L49 3L50 3L50 2L49 2L49 3L48 3L48 4L46 4L46 3L44 3L44 1ZM45 1L45 2L46 2L46 1ZM32 2L32 4L33 4L33 2ZM21 3L21 4L22 4L22 3ZM26 3L26 5L27 5L27 7L28 7L28 4L30 4L30 3ZM51 3L51 4L52 4L52 3ZM42 4L42 5L43 5L43 4ZM44 4L44 7L45 7L45 5L46 5L46 4ZM29 5L29 8L32 8L32 5ZM35 5L35 6L34 6L34 7L35 7L35 10L37 10L37 9L38 9L38 11L39 11L39 12L38 12L38 14L35 14L35 16L36 16L36 17L38 17L38 18L40 18L40 19L39 19L39 20L38 20L38 21L37 21L37 18L34 18L34 17L33 17L33 16L32 16L32 17L30 17L30 18L29 18L29 17L27 17L27 16L30 16L30 13L31 13L31 15L32 15L32 14L33 14L33 15L34 15L34 13L35 13L35 12L36 12L36 13L37 13L37 11L34 11L34 9L33 9L33 11L32 11L32 12L29 12L29 11L28 11L28 10L27 10L27 11L26 11L26 12L25 12L25 13L24 13L24 14L23 14L23 13L22 13L22 12L20 12L20 14L19 14L19 15L17 15L17 14L16 14L16 13L15 13L15 11L16 11L16 10L15 10L15 11L14 11L14 13L13 13L13 10L12 10L12 11L11 11L11 12L12 12L12 13L13 13L13 14L12 14L12 15L14 15L14 16L15 16L15 14L16 14L16 16L17 16L17 17L13 17L13 16L12 16L12 17L13 17L13 18L11 18L11 21L10 21L10 23L9 23L9 24L8 24L8 26L9 26L9 24L11 24L11 23L15 23L15 24L16 24L16 25L17 25L17 26L19 26L19 25L21 25L21 26L20 26L20 27L19 27L19 28L18 28L18 29L17 29L17 30L18 30L18 29L20 29L20 31L21 31L21 30L22 30L22 32L21 32L21 33L20 33L20 34L21 34L21 33L22 33L22 32L24 32L24 31L25 31L25 32L26 32L26 33L27 33L27 30L25 30L25 29L27 29L27 28L25 28L25 26L26 26L26 25L27 25L27 24L30 24L30 23L32 23L32 24L33 24L33 26L34 26L34 24L35 24L35 25L36 25L36 26L37 26L37 25L38 25L38 27L36 27L36 29L38 29L38 31L36 31L36 30L35 30L35 31L36 31L36 33L37 33L37 32L38 32L38 31L40 31L40 32L41 32L41 33L42 33L42 32L41 32L41 31L40 31L40 30L39 30L39 28L38 28L38 27L39 27L39 25L40 25L40 27L41 27L41 28L43 28L43 27L42 27L42 26L44 26L44 25L45 25L45 24L44 24L44 25L42 25L42 24L41 24L41 25L40 25L40 19L41 19L41 20L42 20L42 18L43 18L43 19L44 19L44 21L45 21L45 22L46 22L46 17L47 17L47 18L49 18L49 17L50 17L50 19L48 19L48 21L49 21L49 20L50 20L50 19L51 19L51 20L52 20L52 21L53 21L53 20L54 20L54 19L55 19L55 16L53 16L53 18L54 18L54 19L52 19L52 17L50 17L50 15L55 15L55 13L53 13L53 14L51 14L51 13L50 13L50 12L49 12L49 10L46 10L46 9L45 9L45 8L44 8L44 10L43 10L43 8L42 8L42 7L43 7L43 6L42 6L42 7L41 7L41 12L42 12L42 10L43 10L43 11L44 11L44 12L43 12L43 13L42 13L42 15L41 15L41 13L39 13L39 12L40 12L40 7L39 7L39 6L38 6L38 7L37 7L37 6L36 6L36 5ZM17 6L17 7L18 7L18 6ZM30 6L30 7L31 7L31 6ZM35 6L35 7L36 7L36 6ZM52 6L52 7L53 7L53 6ZM6 9L6 10L7 10L7 11L8 11L8 10L7 10L7 9ZM45 10L45 11L46 11L46 10ZM27 11L27 12L28 12L28 13L25 13L25 14L24 14L24 15L21 15L21 14L22 14L22 13L21 13L21 14L20 14L20 15L19 15L19 16L20 16L20 17L17 17L17 18L16 18L16 19L15 19L15 20L14 20L14 18L13 18L13 19L12 19L12 20L14 20L14 21L13 21L13 22L15 22L15 21L16 21L16 23L17 23L17 25L18 25L18 24L20 24L20 23L21 23L21 22L22 22L22 24L21 24L21 25L23 25L23 24L24 24L24 25L26 25L26 24L27 24L27 23L29 23L29 22L31 22L31 21L32 21L32 23L33 23L33 24L34 24L34 22L36 22L36 23L37 23L37 21L36 21L36 20L34 20L34 22L33 22L33 21L32 21L32 20L33 20L33 17L32 17L32 18L31 18L31 19L30 19L30 21L29 21L29 20L27 20L27 17L26 17L26 16L27 16L27 15L26 15L26 16L25 16L25 17L26 17L26 18L23 18L23 16L24 16L24 15L25 15L25 14L28 14L28 15L29 15L29 12L28 12L28 11ZM4 12L4 13L3 13L3 14L2 14L2 13L1 13L1 14L2 14L2 15L3 15L3 14L5 14L5 12ZM33 12L33 13L34 13L34 12ZM45 12L45 13L44 13L44 14L43 14L43 16L40 16L40 17L43 17L43 18L44 18L44 19L45 19L45 18L44 18L44 16L47 16L47 15L48 15L48 14L49 14L49 15L50 15L50 13L46 13L46 12ZM9 13L9 14L10 14L10 15L11 15L11 13ZM14 13L14 14L15 14L15 13ZM45 13L45 15L47 15L47 14L46 14L46 13ZM39 14L39 15L40 15L40 14ZM6 15L6 16L7 16L7 15ZM0 16L0 18L2 18L2 19L3 19L3 18L4 18L4 16L3 16L3 17L2 17L2 16ZM21 16L21 17L20 17L20 19L21 19L21 21L20 21L20 20L19 20L19 19L18 19L18 18L17 18L17 19L18 19L18 20L16 20L16 21L17 21L17 23L18 23L18 22L19 22L19 21L20 21L20 22L21 22L21 21L22 21L22 22L26 22L26 23L25 23L25 24L26 24L26 23L27 23L27 22L29 22L29 21L27 21L27 20L26 20L26 19L25 19L25 20L26 20L26 21L22 21L22 20L24 20L24 19L23 19L23 18L22 18L22 16ZM21 18L21 19L22 19L22 18ZM28 18L28 19L29 19L29 18ZM57 18L57 19L58 19L58 18ZM31 19L31 20L32 20L32 19ZM60 19L60 21L61 21L61 19ZM6 21L6 22L7 22L7 21ZM26 21L26 22L27 22L27 21ZM41 21L41 22L42 22L42 23L43 23L43 21ZM47 22L47 23L46 23L46 24L47 24L47 23L48 23L48 22ZM6 24L6 25L5 25L5 26L6 26L6 25L7 25L7 24ZM52 24L52 25L53 25L53 24ZM59 24L59 25L60 25L60 24ZM10 25L10 27L11 27L11 25ZM30 25L30 27L31 27L31 26L32 26L32 25ZM21 26L21 27L22 27L22 29L23 29L23 30L24 30L24 29L25 29L25 28L24 28L24 27L23 27L23 26ZM27 26L27 27L28 27L28 26ZM5 29L5 32L8 32L8 29ZM29 29L29 32L32 32L32 29ZM53 29L53 32L56 32L56 29ZM6 30L6 31L7 31L7 30ZM30 30L30 31L31 31L31 30ZM46 30L46 31L47 31L47 33L49 33L49 30L48 30L48 31L47 31L47 30ZM54 30L54 31L55 31L55 30ZM11 31L11 33L12 33L12 35L14 35L14 34L15 34L15 33L16 33L16 32L15 32L15 33L14 33L14 34L13 34L13 32L12 32L12 31ZM17 32L17 34L16 34L16 35L15 35L15 36L16 36L16 37L18 37L18 39L17 39L17 38L13 38L13 37L12 37L12 40L11 40L11 41L12 41L12 40L13 40L13 39L17 39L17 40L16 40L16 41L15 41L15 42L14 42L14 41L13 41L13 43L11 43L11 42L10 42L10 41L9 41L9 40L10 40L10 39L11 39L11 38L10 38L10 39L9 39L9 40L6 40L6 41L5 41L5 42L6 42L6 43L7 43L7 44L6 44L6 45L7 45L7 44L8 44L8 45L9 45L9 48L10 48L10 47L11 47L11 49L12 49L12 47L13 47L13 46L15 46L15 47L14 47L14 48L16 48L16 45L17 45L17 44L18 44L18 45L19 45L19 46L20 46L20 48L22 48L22 47L21 47L21 45L20 45L20 44L24 44L24 43L23 43L23 42L25 42L25 43L26 43L26 44L25 44L25 45L24 45L24 46L23 46L23 45L22 45L22 46L23 46L23 47L26 47L26 49L27 49L27 48L29 48L29 49L30 49L30 51L31 51L31 48L32 48L32 47L30 47L30 46L31 46L31 44L32 44L32 43L34 43L34 44L33 44L33 47L34 47L34 44L36 44L36 45L37 45L37 43L36 43L36 42L35 42L35 43L34 43L34 41L32 41L32 39L31 39L31 38L28 38L28 37L27 37L27 39L28 39L28 41L27 41L27 40L26 40L26 38L25 38L25 37L22 37L22 36L21 36L21 37L20 37L20 36L17 36L17 34L18 34L18 33L19 33L19 32ZM44 32L44 33L45 33L45 34L46 34L46 32ZM4 33L4 35L5 35L5 33ZM2 34L2 35L1 35L1 36L3 36L3 34ZM8 35L8 36L9 36L9 37L10 37L10 36L9 36L9 35ZM51 35L51 36L52 36L52 37L53 37L53 36L52 36L52 35ZM19 37L19 40L18 40L18 41L16 41L16 42L15 42L15 43L16 43L16 44L14 44L14 43L13 43L13 44L14 44L14 45L16 45L16 44L17 44L17 43L16 43L16 42L18 42L18 43L19 43L19 42L18 42L18 41L19 41L19 40L21 40L21 42L20 42L20 43L22 43L22 41L25 41L25 39L24 39L24 38L23 38L23 39L24 39L24 40L21 40L21 38L22 38L22 37L21 37L21 38L20 38L20 37ZM36 39L36 40L35 40L35 41L37 41L37 39ZM53 39L53 40L52 40L52 41L54 41L54 42L57 42L57 41L56 41L56 40L55 40L55 41L54 41L54 39ZM29 40L29 41L28 41L28 43L27 43L27 41L26 41L26 43L27 43L27 45L25 45L25 46L27 46L27 45L29 45L29 46L28 46L28 47L29 47L29 48L30 48L30 47L29 47L29 46L30 46L30 45L29 45L29 42L30 42L30 43L32 43L32 42L31 42L31 41L30 41L30 40ZM3 41L3 42L4 42L4 41ZM6 41L6 42L7 42L7 43L8 43L8 41ZM9 42L9 45L10 45L10 44L11 44L11 43L10 43L10 42ZM0 44L0 45L1 45L1 44ZM44 44L44 46L43 46L43 45L42 45L42 47L44 47L44 46L45 46L45 48L44 48L44 50L45 50L45 49L48 49L48 50L49 50L49 49L50 49L50 51L51 51L51 52L52 52L52 51L51 51L51 47L53 47L53 46L52 46L52 45L51 45L51 44L50 44L50 46L49 46L49 44L47 44L47 46L46 46L46 44ZM17 46L17 47L18 47L18 46ZM47 46L47 48L48 48L48 47L49 47L49 46ZM56 46L56 47L57 47L57 48L58 48L58 47L57 47L57 46ZM20 49L20 51L21 51L21 49ZM22 49L22 50L23 50L23 49ZM40 49L40 50L41 50L41 49ZM57 49L57 50L58 50L58 51L59 51L59 50L58 50L58 49ZM18 50L18 51L17 51L17 52L16 52L16 53L17 53L17 52L18 52L18 53L19 53L19 50ZM3 51L3 52L4 52L4 51ZM12 52L12 53L13 53L13 52ZM29 53L29 56L32 56L32 53ZM46 53L46 56L45 56L45 57L44 57L44 58L42 58L42 60L43 60L43 59L44 59L44 60L45 60L45 57L46 57L46 58L47 58L47 59L48 59L48 57L47 57L47 53ZM53 53L53 56L56 56L56 53ZM15 54L15 55L14 55L14 57L13 57L13 58L16 58L16 57L17 57L17 55L18 55L18 54L17 54L17 55L16 55L16 54ZM30 54L30 55L31 55L31 54ZM54 54L54 55L55 55L55 54ZM9 55L9 57L11 57L11 55ZM21 55L21 56L23 56L23 55ZM15 56L15 57L16 57L16 56ZM31 57L31 58L32 58L32 59L33 59L33 58L32 58L32 57ZM59 57L59 58L60 58L60 57ZM23 60L23 61L24 61L24 60ZM0 0L0 7L7 7L7 0ZM1 1L1 6L6 6L6 1ZM2 2L2 5L5 5L5 2ZM54 0L54 7L61 7L61 0ZM55 1L55 6L60 6L60 1ZM56 2L56 5L59 5L59 2ZM0 54L0 61L7 61L7 54ZM1 55L1 60L6 60L6 55ZM2 56L2 59L5 59L5 56Z" fill="#000000"/></g></g></svg>
