<?xml version="1.0" encoding="UTF-8"?>
<svg xmlns="http://www.w3.org/2000/svg" version="1.1" width="200" height="200" viewBox="0 0 200 200"><rect x="0" y="0" width="200" height="200" fill="#ffffff"/><g transform="scale(3.279)"><g transform="translate(0,0)"><path fill-rule="evenodd" d="M8 0L8 4L9 4L9 5L8 5L8 7L9 7L9 6L10 6L10 8L9 8L9 10L8 10L8 11L7 11L7 10L4 10L4 9L7 9L7 8L4 8L4 9L3 9L3 10L2 10L2 11L4 11L4 12L6 12L6 13L4 13L4 14L2 14L2 15L4 15L4 14L6 14L6 15L9 15L9 16L6 16L6 17L4 17L4 16L1 16L1 15L0 15L0 17L1 17L1 18L2 18L2 19L0 19L0 21L1 21L1 22L2 22L2 21L3 21L3 20L4 20L4 21L5 21L5 22L6 22L6 23L5 23L5 24L4 24L4 25L3 25L3 24L1 24L1 23L0 23L0 24L1 24L1 25L3 25L3 26L2 26L2 27L3 27L3 28L1 28L1 27L0 27L0 28L1 28L1 29L0 29L0 31L2 31L2 30L3 30L3 32L4 32L4 33L2 33L2 32L1 32L1 33L0 33L0 34L1 34L1 35L0 35L0 36L1 36L1 35L2 35L2 37L3 37L3 38L2 38L2 39L1 39L1 37L0 37L0 40L3 40L3 41L4 41L4 42L2 42L2 41L1 41L1 42L0 42L0 44L1 44L1 43L4 43L4 42L5 42L5 43L8 43L8 44L10 44L10 45L11 45L11 46L12 46L12 45L13 45L13 41L14 41L14 42L16 42L16 41L17 41L17 42L18 42L18 43L14 43L14 44L16 44L16 45L19 45L19 46L20 46L20 47L21 47L21 46L22 46L22 48L21 48L21 49L20 49L20 48L19 48L19 47L16 47L16 46L15 46L15 48L13 48L13 47L14 47L14 46L13 46L13 47L11 47L11 48L12 48L12 50L11 50L11 49L10 49L10 47L9 47L9 46L8 46L8 45L7 45L7 44L6 44L6 45L7 45L7 46L3 46L3 45L4 45L4 44L2 44L2 46L0 46L0 48L2 48L2 47L3 47L3 50L2 50L2 51L0 51L0 53L4 53L4 52L5 52L5 51L8 51L8 50L6 50L6 49L7 49L7 48L4 48L4 47L9 47L9 51L10 51L10 52L9 52L9 53L8 53L8 54L9 54L9 53L10 53L10 52L11 52L11 53L12 53L12 54L11 54L11 55L8 55L8 57L9 57L9 58L10 58L10 56L11 56L11 59L8 59L8 61L10 61L10 60L11 60L11 59L13 59L13 60L15 60L15 61L17 61L17 58L16 58L16 57L18 57L18 58L20 58L20 59L19 59L19 60L18 60L18 61L20 61L20 60L23 60L23 61L24 61L24 60L25 60L25 61L27 61L27 59L28 59L28 58L29 58L29 60L30 60L30 59L31 59L31 58L32 58L32 57L33 57L33 58L34 58L34 56L36 56L36 57L35 57L35 58L37 58L37 55L39 55L39 56L38 56L38 61L39 61L39 60L40 60L40 59L41 59L41 60L43 60L43 59L46 59L46 60L44 60L44 61L46 61L46 60L47 60L47 61L54 61L54 60L53 60L53 58L55 58L55 59L56 59L56 60L57 60L57 59L56 59L56 58L55 58L55 57L57 57L57 58L58 58L58 61L61 61L61 60L60 60L60 58L61 58L61 56L59 56L59 55L58 55L58 57L57 57L57 54L59 54L59 53L60 53L60 52L61 52L61 51L60 51L60 50L59 50L59 51L58 51L58 50L57 50L57 49L56 49L56 48L57 48L57 47L56 47L56 46L58 46L58 49L59 49L59 48L60 48L60 49L61 49L61 47L59 47L59 46L58 46L58 45L59 45L59 43L60 43L60 39L58 39L58 38L59 38L59 36L60 36L60 37L61 37L61 35L60 35L60 32L61 32L61 31L60 31L60 32L59 32L59 30L60 30L60 29L61 29L61 27L60 27L60 28L59 28L59 27L58 27L58 26L57 26L57 27L58 27L58 29L57 29L57 28L54 28L54 26L56 26L56 25L57 25L57 23L58 23L58 25L59 25L59 26L60 26L60 22L59 22L59 23L58 23L58 22L57 22L57 19L58 19L58 21L59 21L59 20L61 20L61 19L60 19L60 18L57 18L57 15L58 15L58 17L61 17L61 16L59 16L59 15L58 15L58 14L57 14L57 12L58 12L58 13L59 13L59 14L60 14L60 13L59 13L59 11L60 11L60 12L61 12L61 11L60 11L60 10L59 10L59 9L61 9L61 8L57 8L57 10L56 10L56 8L55 8L55 9L54 9L54 10L51 10L51 9L50 9L50 8L49 8L49 6L50 6L50 7L51 7L51 5L52 5L52 4L53 4L53 0L51 0L51 2L50 2L50 0L49 0L49 1L48 1L48 3L47 3L47 4L48 4L48 3L49 3L49 4L50 4L50 5L48 5L48 9L50 9L50 10L51 10L51 11L49 11L49 12L46 12L46 10L45 10L45 11L44 11L44 12L43 12L43 13L42 13L42 11L43 11L43 9L45 9L45 8L46 8L46 9L47 9L47 8L46 8L46 7L47 7L47 5L46 5L46 4L45 4L45 5L46 5L46 7L45 7L45 6L44 6L44 8L43 8L43 9L42 9L42 11L41 11L41 9L40 9L40 7L41 7L41 8L42 8L42 7L43 7L43 6L42 6L42 7L41 7L41 5L40 5L40 4L42 4L42 5L44 5L44 3L45 3L45 2L47 2L47 1L46 1L46 0L44 0L44 3L42 3L42 2L43 2L43 0L41 0L41 1L42 1L42 2L41 2L41 3L40 3L40 0L38 0L38 1L37 1L37 2L35 2L35 1L34 1L34 2L33 2L33 1L32 1L32 0L30 0L30 1L32 1L32 2L31 2L31 3L29 3L29 1L28 1L28 2L27 2L27 3L29 3L29 4L28 4L28 10L27 10L27 11L25 11L25 13L24 13L24 14L23 14L23 13L22 13L22 12L24 12L24 11L23 11L23 10L26 10L26 9L27 9L27 8L26 8L26 7L27 7L27 5L26 5L26 4L25 4L25 3L24 3L24 2L25 2L25 1L26 1L26 0L23 0L23 3L22 3L22 2L21 2L21 1L22 1L22 0L20 0L20 1L18 1L18 0L13 0L13 1L16 1L16 2L17 2L17 1L18 1L18 2L21 2L21 3L20 3L20 5L19 5L19 4L17 4L17 5L16 5L16 3L15 3L15 2L14 2L14 3L13 3L13 2L12 2L12 1L11 1L11 2L12 2L12 4L9 4L9 3L10 3L10 2L9 2L9 0ZM34 2L34 4L33 4L33 9L32 9L32 10L31 10L31 9L29 9L29 10L28 10L28 11L27 11L27 13L25 13L25 14L27 14L27 13L29 13L29 14L28 14L28 15L29 15L29 14L30 14L30 12L31 12L31 13L33 13L33 14L32 14L32 15L30 15L30 16L29 16L29 17L28 17L28 16L27 16L27 15L24 15L24 16L22 16L22 13L21 13L21 15L20 15L20 13L16 13L16 12L17 12L17 11L16 11L16 10L17 10L17 9L18 9L18 8L21 8L21 7L22 7L22 9L26 9L26 8L25 8L25 7L26 7L26 6L25 6L25 7L24 7L24 6L23 6L23 7L22 7L22 6L21 6L21 7L20 7L20 6L19 6L19 7L18 7L18 5L17 5L17 9L16 9L16 8L15 8L15 9L14 9L14 8L12 8L12 9L11 9L11 8L10 8L10 9L11 9L11 10L9 10L9 11L10 11L10 12L9 12L9 13L6 13L6 14L9 14L9 15L10 15L10 16L11 16L11 17L8 17L8 18L10 18L10 19L9 19L9 20L10 20L10 19L11 19L11 20L14 20L14 21L13 21L13 23L12 23L12 22L11 22L11 23L12 23L12 24L10 24L10 22L9 22L9 23L6 23L6 24L5 24L5 26L3 26L3 27L5 27L5 28L7 28L7 27L6 27L6 26L7 26L7 25L6 25L6 24L8 24L8 28L9 28L9 29L10 29L10 30L12 30L12 29L11 29L11 28L10 28L10 27L9 27L9 24L10 24L10 26L11 26L11 27L12 27L12 28L13 28L13 26L12 26L12 24L13 24L13 25L14 25L14 27L17 27L17 28L18 28L18 25L19 25L19 24L18 24L18 25L16 25L16 24L17 24L17 23L18 23L18 21L16 21L16 20L15 20L15 19L16 19L16 18L17 18L17 20L19 20L19 22L20 22L20 24L21 24L21 26L20 26L20 27L21 27L21 28L20 28L20 29L21 29L21 30L22 30L22 29L23 29L23 31L21 31L21 32L20 32L20 30L19 30L19 29L15 29L15 28L14 28L14 29L15 29L15 30L16 30L16 31L17 31L17 32L15 32L15 31L14 31L14 30L13 30L13 31L9 31L9 32L10 32L10 33L9 33L9 34L10 34L10 33L11 33L11 32L13 32L13 33L14 33L14 32L15 32L15 33L17 33L17 34L16 34L16 35L15 35L15 34L11 34L11 35L9 35L9 36L11 36L11 35L13 35L13 38L12 38L12 37L11 37L11 38L9 38L9 37L8 37L8 38L7 38L7 37L6 37L6 36L7 36L7 35L5 35L5 34L7 34L7 33L4 33L4 35L3 35L3 34L2 34L2 35L3 35L3 36L5 36L5 37L4 37L4 38L3 38L3 39L4 39L4 40L5 40L5 42L8 42L8 41L10 41L10 42L11 42L11 41L10 41L10 40L12 40L12 41L13 41L13 40L14 40L14 41L15 41L15 40L14 40L14 36L15 36L15 38L16 38L16 39L17 39L17 41L18 41L18 40L19 40L19 45L21 45L21 43L22 43L22 45L23 45L23 47L24 47L24 49L23 49L23 48L22 48L22 49L21 49L21 50L19 50L19 49L17 49L17 48L16 48L16 49L15 49L15 51L16 51L16 50L17 50L17 52L20 52L20 53L19 53L19 54L20 54L20 57L25 57L25 54L26 54L26 56L27 56L27 57L26 57L26 59L25 59L25 60L26 60L26 59L27 59L27 58L28 58L28 56L27 56L27 55L28 55L28 53L26 53L26 51L24 51L24 52L22 52L22 53L21 53L21 51L22 51L22 50L24 50L24 49L26 49L26 50L28 50L28 51L29 51L29 50L28 50L28 49L29 49L29 46L28 46L28 49L26 49L26 48L27 48L27 47L26 47L26 48L25 48L25 46L27 46L27 45L25 45L25 44L26 44L26 43L27 43L27 44L28 44L28 45L30 45L30 47L31 47L31 45L30 45L30 44L28 44L28 43L27 43L27 41L28 41L28 42L30 42L30 43L32 43L32 44L33 44L33 45L34 45L34 47L36 47L36 46L37 46L37 47L38 47L38 45L36 45L36 46L35 46L35 45L34 45L34 44L33 44L33 43L32 43L32 40L33 40L33 41L34 41L34 43L35 43L35 42L36 42L36 43L38 43L38 44L39 44L39 46L40 46L40 45L41 45L41 48L40 48L40 49L39 49L39 50L38 50L38 48L37 48L37 49L36 49L36 50L35 50L35 48L34 48L34 50L30 50L30 51L32 51L32 52L34 52L34 55L33 55L33 56L34 56L34 55L35 55L35 54L36 54L36 55L37 55L37 53L38 53L38 52L39 52L39 51L40 51L40 54L41 54L41 53L43 53L43 55L42 55L42 56L43 56L43 57L44 57L44 58L45 58L45 57L44 57L44 55L50 55L50 56L49 56L49 59L50 59L50 60L51 60L51 58L52 58L52 56L51 56L51 55L50 55L50 53L52 53L52 52L53 52L53 51L55 51L55 52L56 52L56 50L55 50L55 45L54 45L54 44L52 44L52 43L51 43L51 42L50 42L50 40L49 40L49 42L50 42L50 43L49 43L49 44L50 44L50 45L49 45L49 46L48 46L48 47L49 47L49 50L47 50L47 49L48 49L48 48L46 48L46 46L47 46L47 44L48 44L48 41L47 41L47 40L46 40L46 39L47 39L47 36L46 36L46 39L45 39L45 37L44 37L44 35L45 35L45 34L44 34L44 32L45 32L45 33L46 33L46 35L47 35L47 34L48 34L48 35L50 35L50 36L49 36L49 38L50 38L50 36L51 36L51 41L52 41L52 42L54 42L54 43L55 43L55 44L56 44L56 45L58 45L58 42L59 42L59 41L58 41L58 39L57 39L57 38L56 38L56 37L58 37L58 36L57 36L57 35L58 35L58 34L59 34L59 33L58 33L58 30L57 30L57 33L58 33L58 34L57 34L57 35L56 35L56 33L53 33L53 34L54 34L54 35L52 35L52 36L51 36L51 35L50 35L50 33L51 33L51 34L52 34L52 33L51 33L51 31L52 31L52 30L51 30L51 31L50 31L50 30L48 30L48 29L46 29L46 28L45 28L45 27L46 27L46 26L47 26L47 27L51 27L51 26L52 26L52 27L53 27L53 25L55 25L55 23L56 23L56 16L55 16L55 15L57 15L57 14L56 14L56 13L55 13L55 15L54 15L54 17L55 17L55 23L54 23L54 24L53 24L53 25L52 25L52 24L51 24L51 23L52 23L52 22L54 22L54 21L52 21L52 20L51 20L51 21L52 21L52 22L51 22L51 23L50 23L50 21L49 21L49 22L47 22L47 21L48 21L48 20L47 20L47 19L48 19L48 16L45 16L45 15L44 15L44 16L43 16L43 15L41 15L41 11L40 11L40 9L39 9L39 12L38 12L38 13L36 13L36 11L38 11L38 6L39 6L39 7L40 7L40 5L37 5L37 9L35 9L35 8L36 8L36 5L35 5L35 2ZM37 2L37 3L36 3L36 4L40 4L40 3L38 3L38 2ZM49 2L49 3L50 3L50 2ZM14 3L14 4L12 4L12 5L10 5L10 6L11 6L11 7L12 7L12 6L13 6L13 7L14 7L14 6L15 6L15 7L16 7L16 5L15 5L15 3ZM51 3L51 4L52 4L52 3ZM21 4L21 5L22 5L22 4ZM29 5L29 8L32 8L32 5ZM34 5L34 8L35 8L35 5ZM30 6L30 7L31 7L31 6ZM52 6L52 7L53 7L53 6ZM0 8L0 10L1 10L1 9L2 9L2 8ZM52 8L52 9L53 9L53 8ZM13 9L13 10L12 10L12 11L13 11L13 12L10 12L10 13L13 13L13 12L14 12L14 13L15 13L15 16L14 16L14 15L13 15L13 14L12 14L12 15L11 15L11 14L10 14L10 15L11 15L11 16L12 16L12 17L11 17L11 18L12 18L12 19L13 19L13 17L14 17L14 18L15 18L15 17L16 17L16 13L15 13L15 12L16 12L16 11L14 11L14 9ZM15 9L15 10L16 10L16 9ZM19 9L19 11L18 11L18 12L19 12L19 11L20 11L20 10L21 10L21 11L22 11L22 10L21 10L21 9ZM33 9L33 11L32 11L32 12L34 12L34 13L35 13L35 11L36 11L36 10L35 10L35 11L34 11L34 9ZM30 10L30 11L31 11L31 10ZM47 10L47 11L48 11L48 10ZM55 10L55 12L56 12L56 10ZM6 11L6 12L7 12L7 11ZM28 11L28 12L29 12L29 11ZM51 11L51 13L52 13L52 14L54 14L54 11ZM0 12L0 14L1 14L1 13L2 13L2 12ZM45 12L45 13L44 13L44 14L46 14L46 15L49 15L49 16L50 16L50 17L49 17L49 18L50 18L50 17L51 17L51 16L52 16L52 18L51 18L51 19L52 19L52 18L53 18L53 15L50 15L50 14L47 14L47 13L46 13L46 12ZM52 12L52 13L53 13L53 12ZM38 13L38 15L36 15L36 14L35 14L35 15L34 15L34 14L33 14L33 16L31 16L31 17L33 17L33 18L34 18L34 19L32 19L32 18L30 18L30 17L29 17L29 19L28 19L28 18L27 18L27 19L26 19L26 21L22 21L22 23L21 23L21 24L24 24L24 23L26 23L26 21L27 21L27 22L31 22L31 23L32 23L32 21L28 21L28 20L29 20L29 19L32 19L32 20L34 20L34 21L33 21L33 23L34 23L34 24L33 24L33 27L34 27L34 24L36 24L36 27L35 27L35 28L36 28L36 29L37 29L37 25L38 25L38 27L45 27L45 26L46 26L46 25L47 25L47 26L49 26L49 24L50 24L50 26L51 26L51 24L50 24L50 23L46 23L46 21L47 21L47 20L46 20L46 21L45 21L45 18L46 18L46 17L45 17L45 16L44 16L44 17L45 17L45 18L43 18L43 16L42 16L42 17L41 17L41 18L40 18L40 19L39 19L39 21L38 21L38 20L37 20L37 19L36 19L36 18L34 18L34 17L35 17L35 15L36 15L36 17L38 17L38 18L39 18L39 17L40 17L40 16L41 16L41 15L40 15L40 13ZM17 14L17 17L19 17L19 15L18 15L18 14ZM21 16L21 17L20 17L20 19L21 19L21 20L24 20L24 19L25 19L25 18L26 18L26 17L27 17L27 16L24 16L24 17L23 17L23 19L21 19L21 17L22 17L22 16ZM33 16L33 17L34 17L34 16ZM38 16L38 17L39 17L39 16ZM2 17L2 18L3 18L3 19L2 19L2 20L1 20L1 21L2 21L2 20L3 20L3 19L4 19L4 20L5 20L5 18L4 18L4 17ZM6 17L6 18L7 18L7 17ZM42 18L42 19L40 19L40 21L41 21L41 22L42 22L42 19L43 19L43 23L45 23L45 22L44 22L44 19L43 19L43 18ZM6 19L6 20L7 20L7 21L6 21L6 22L7 22L7 21L8 21L8 19ZM35 19L35 21L34 21L34 23L35 23L35 21L36 21L36 23L38 23L38 22L37 22L37 21L36 21L36 19ZM53 19L53 20L54 20L54 19ZM20 21L20 22L21 22L21 21ZM15 22L15 23L17 23L17 22ZM23 22L23 23L24 23L24 22ZM27 23L27 24L26 24L26 25L22 25L22 28L21 28L21 29L22 29L22 28L23 28L23 29L24 29L24 30L25 30L25 29L28 29L28 30L27 30L27 31L26 31L26 33L24 33L24 34L22 34L22 32L21 32L21 33L20 33L20 32L19 32L19 30L18 30L18 32L17 32L17 33L19 33L19 34L21 34L21 35L18 35L18 34L17 34L17 35L18 35L18 36L16 36L16 37L17 37L17 39L18 39L18 38L19 38L19 37L20 37L20 38L21 38L21 39L19 39L19 40L22 40L22 39L23 39L23 38L26 38L26 39L25 39L25 40L26 40L26 41L24 41L24 40L23 40L23 41L20 41L20 43L21 43L21 42L23 42L23 43L24 43L24 44L23 44L23 45L24 45L24 46L25 46L25 45L24 45L24 44L25 44L25 42L26 42L26 41L27 41L27 40L26 40L26 39L28 39L28 40L29 40L29 37L28 37L28 38L26 38L26 37L27 37L27 36L28 36L28 33L30 33L30 35L29 35L29 36L30 36L30 37L31 37L31 38L32 38L32 39L31 39L31 40L30 40L30 41L31 41L31 40L32 40L32 39L33 39L33 38L34 38L34 36L35 36L35 34L37 34L37 31L39 31L39 32L38 32L38 34L39 34L39 35L36 35L36 37L35 37L35 38L36 38L36 39L35 39L35 40L36 40L36 41L38 41L38 43L39 43L39 40L40 40L40 39L41 39L41 40L42 40L42 39L43 39L43 37L40 37L40 35L41 35L41 36L42 36L42 34L43 34L43 33L41 33L41 34L40 34L40 32L43 32L43 31L44 31L44 30L45 30L45 32L46 32L46 33L47 33L47 32L48 32L48 33L50 33L50 31L47 31L47 30L46 30L46 29L45 29L45 28L44 28L44 30L43 30L43 28L41 28L41 29L42 29L42 30L40 30L40 29L39 29L39 28L38 28L38 30L36 30L36 31L35 31L35 32L36 32L36 33L35 33L35 34L34 34L34 30L33 30L33 28L32 28L32 24L31 24L31 25L30 25L30 26L31 26L31 28L29 28L29 27L28 27L28 26L27 26L27 27L25 27L25 29L24 29L24 28L23 28L23 27L24 27L24 26L26 26L26 25L27 25L27 24L28 24L28 25L29 25L29 24L30 24L30 23ZM39 23L39 24L40 24L40 25L39 25L39 26L40 26L40 25L41 25L41 26L42 26L42 25L43 25L43 26L44 26L44 24L41 24L41 23ZM14 24L14 25L15 25L15 26L16 26L16 25L15 25L15 24ZM45 24L45 25L46 25L46 24ZM47 24L47 25L48 25L48 24ZM27 27L27 28L28 28L28 27ZM3 28L3 29L4 29L4 28ZM51 28L51 29L52 29L52 28ZM1 29L1 30L2 30L2 29ZM5 29L5 32L8 32L8 29ZM29 29L29 32L32 32L32 29ZM53 29L53 32L56 32L56 29ZM6 30L6 31L7 31L7 30ZM30 30L30 31L31 31L31 30ZM54 30L54 31L55 31L55 30ZM27 32L27 33L26 33L26 34L25 34L25 35L26 35L26 36L23 36L23 35L22 35L22 37L26 37L26 36L27 36L27 33L28 33L28 32ZM31 33L31 35L30 35L30 36L31 36L31 37L32 37L32 36L33 36L33 35L32 35L32 33ZM54 35L54 36L55 36L55 37L52 37L52 39L53 39L53 40L54 40L54 41L56 41L56 42L55 42L55 43L56 43L56 42L58 42L58 41L56 41L56 38L55 38L55 37L56 37L56 36L55 36L55 35ZM20 36L20 37L21 37L21 36ZM37 36L37 37L38 37L38 36ZM5 37L5 40L6 40L6 41L7 41L7 40L8 40L8 39L9 39L9 40L10 40L10 39L9 39L9 38L8 38L8 39L7 39L7 38L6 38L6 37ZM11 38L11 39L12 39L12 38ZM41 38L41 39L42 39L42 38ZM53 38L53 39L55 39L55 38ZM6 39L6 40L7 40L7 39ZM44 39L44 41L45 41L45 42L43 42L43 41L41 41L41 44L42 44L42 42L43 42L43 44L44 44L44 45L45 45L45 46L46 46L46 44L47 44L47 42L46 42L46 41L45 41L45 39ZM10 43L10 44L11 44L11 43ZM44 43L44 44L45 44L45 43ZM60 44L60 45L61 45L61 44ZM42 45L42 48L41 48L41 49L42 49L42 50L40 50L40 51L43 51L43 52L44 52L44 53L45 53L45 54L46 54L46 48L44 48L44 49L42 49L42 48L43 48L43 45ZM50 45L50 51L51 51L51 52L52 52L52 51L53 51L53 49L51 49L51 47L52 47L52 45ZM32 47L32 48L31 48L31 49L33 49L33 47ZM53 47L53 48L54 48L54 47ZM4 49L4 50L5 50L5 49ZM13 49L13 50L12 50L12 51L13 51L13 53L14 53L14 54L12 54L12 55L11 55L11 56L12 56L12 58L13 58L13 57L14 57L14 58L15 58L15 60L16 60L16 58L15 58L15 57L14 57L14 56L17 56L17 55L18 55L18 53L16 53L16 52L14 52L14 49ZM34 50L34 52L36 52L36 53L37 53L37 51L35 51L35 50ZM43 50L43 51L44 51L44 50ZM51 50L51 51L52 51L52 50ZM3 51L3 52L4 52L4 51ZM47 51L47 54L48 54L48 53L50 53L50 52L49 52L49 51ZM6 52L6 53L7 53L7 52ZM20 53L20 54L21 54L21 56L22 56L22 54L23 54L23 55L24 55L24 54L25 54L25 53L22 53L22 54L21 54L21 53ZM29 53L29 56L32 56L32 53ZM53 53L53 56L56 56L56 53ZM14 54L14 55L16 55L16 54ZM30 54L30 55L31 55L31 54ZM54 54L54 55L55 55L55 54ZM40 55L40 56L39 56L39 58L40 58L40 57L41 57L41 55ZM18 56L18 57L19 57L19 56ZM46 57L46 58L47 58L47 59L48 59L48 57ZM50 57L50 58L51 58L51 57ZM59 57L59 58L60 58L60 57ZM21 58L21 59L22 59L22 58ZM23 58L23 60L24 60L24 58ZM41 58L41 59L43 59L43 58ZM32 59L32 61L37 61L37 59L34 59L34 60L33 60L33 59ZM0 0L0 7L7 7L7 0ZM1 1L1 6L6 6L6 1ZM2 2L2 5L5 5L5 2ZM54 0L54 7L61 7L61 0ZM55 1L55 6L60 6L60 1ZM56 2L56 5L59 5L59 2ZM0 54L0 61L7 61L7 54ZM1 55L1 60L6 60L6 55ZM2 56L2 59L5 59L5 56Z" fill="#000000"/></g></g></svg>
