<?xml version="1.0" encoding="UTF-8"?>
<svg xmlns="http://www.w3.org/2000/svg" version="1.1" width="200" height="200" viewBox="0 0 200 200"><rect x="0" y="0" width="200" height="200" fill="#ffffff"/><g transform="scale(3.279)"><g transform="translate(0,0)"><path fill-rule="evenodd" d="M10 0L10 5L8 5L8 7L9 7L9 6L10 6L10 8L6 8L6 9L8 9L8 10L9 10L9 9L10 9L10 10L12 10L12 11L11 11L11 12L10 12L10 11L9 11L9 12L8 12L8 13L7 13L7 12L6 12L6 11L7 11L7 10L5 10L5 11L4 11L4 9L5 9L5 8L0 8L0 9L2 9L2 11L4 11L4 12L3 12L3 13L1 13L1 14L0 14L0 15L2 15L2 14L3 14L3 15L5 15L5 16L4 16L4 18L5 18L5 20L4 20L4 19L3 19L3 17L2 17L2 16L0 16L0 17L1 17L1 18L0 18L0 24L1 24L1 25L2 25L2 28L1 28L1 26L0 26L0 29L1 29L1 30L0 30L0 35L1 35L1 34L2 34L2 36L0 36L0 38L1 38L1 39L0 39L0 43L1 43L1 45L0 45L0 48L1 48L1 49L0 49L0 50L1 50L1 49L3 49L3 50L2 50L2 51L0 51L0 53L4 53L4 52L5 52L5 51L7 51L7 52L6 52L6 53L7 53L7 52L8 52L8 55L12 55L12 56L13 56L13 58L12 58L12 57L11 57L11 56L10 56L10 57L11 57L11 58L12 58L12 59L11 59L11 61L13 61L13 60L12 60L12 59L14 59L14 61L15 61L15 58L14 58L14 56L15 56L15 57L17 57L17 56L16 56L16 55L15 55L15 54L14 54L14 53L15 53L15 52L16 52L16 53L18 53L18 54L17 54L17 55L18 55L18 54L20 54L20 53L21 53L21 55L20 55L20 56L18 56L18 57L21 57L21 56L22 56L22 54L23 54L23 53L21 53L21 52L22 52L22 50L23 50L23 52L24 52L24 51L25 51L25 49L26 49L26 50L27 50L27 51L26 51L26 52L27 52L27 53L26 53L26 54L28 54L28 55L26 55L26 56L25 56L25 57L24 57L24 55L25 55L25 53L24 53L24 55L23 55L23 57L22 57L22 58L25 58L25 57L26 57L26 58L28 58L28 60L27 60L27 59L26 59L26 60L27 60L27 61L28 61L28 60L29 60L29 59L30 59L30 61L31 61L31 59L30 59L30 58L31 58L31 57L36 57L36 58L33 58L33 59L32 59L32 60L33 60L33 59L37 59L37 57L38 57L38 55L40 55L40 56L41 56L41 57L39 57L39 58L38 58L38 59L40 59L40 60L39 60L39 61L40 61L40 60L41 60L41 59L40 59L40 58L43 58L43 59L42 59L42 61L44 61L44 60L45 60L45 59L49 59L49 60L46 60L46 61L52 61L52 60L53 60L53 59L51 59L51 58L52 58L52 57L54 57L54 58L55 58L55 59L54 59L54 60L56 60L56 58L57 58L57 60L58 60L58 61L61 61L61 56L60 56L60 60L58 60L58 59L59 59L59 58L58 58L58 57L59 57L59 56L57 56L57 52L56 52L56 49L58 49L58 51L59 51L59 52L58 52L58 55L61 55L61 54L59 54L59 52L60 52L60 53L61 53L61 52L60 52L60 51L61 51L61 50L60 50L60 49L61 49L61 48L60 48L60 49L59 49L59 48L57 48L57 47L59 47L59 46L57 46L57 47L56 47L56 46L55 46L55 44L53 44L53 45L52 45L52 44L51 44L51 46L53 46L53 47L54 47L54 48L53 48L53 49L52 49L52 48L51 48L51 47L50 47L50 43L52 43L52 41L53 41L53 35L55 35L55 34L56 34L56 33L57 33L57 35L59 35L59 36L56 36L56 37L55 37L55 36L54 36L54 37L55 37L55 38L54 38L54 39L55 39L55 40L56 40L56 41L55 41L55 42L54 42L54 43L55 43L55 42L56 42L56 45L59 45L59 44L60 44L60 45L61 45L61 42L60 42L60 41L61 41L61 38L59 38L59 37L61 37L61 34L58 34L58 33L60 33L60 32L61 32L61 30L60 30L60 32L58 32L58 33L57 33L57 30L59 30L59 29L60 29L60 28L57 28L57 27L56 27L56 28L54 28L54 27L55 27L55 25L53 25L53 24L52 24L52 25L53 25L53 26L51 26L51 29L52 29L52 31L51 31L51 30L50 30L50 29L49 29L49 28L50 28L50 27L49 27L49 28L47 28L47 30L46 30L46 32L45 32L45 31L44 31L44 29L42 29L42 30L40 30L40 31L39 31L39 30L38 30L38 29L40 29L40 28L41 28L41 26L43 26L43 25L41 25L41 26L38 26L38 24L35 24L35 22L34 22L34 23L32 23L32 24L33 24L33 25L32 25L32 26L33 26L33 27L32 27L32 28L31 28L31 26L30 26L30 25L29 25L29 26L28 26L28 27L29 27L29 28L28 28L28 30L27 30L27 29L24 29L24 28L26 28L26 26L27 26L27 25L26 25L26 26L25 26L25 25L24 25L24 24L25 24L25 21L26 21L26 22L27 22L27 21L26 21L26 20L27 20L27 19L29 19L29 18L27 18L27 17L26 17L26 16L28 16L28 15L29 15L29 14L28 14L28 15L27 15L27 13L21 13L21 12L22 12L22 11L21 11L21 12L18 12L18 13L19 13L19 14L18 14L18 15L16 15L16 13L17 13L17 10L16 10L16 9L19 9L19 10L18 10L18 11L20 11L20 9L21 9L21 10L23 10L23 9L24 9L24 10L25 10L25 9L24 9L24 7L25 7L25 6L26 6L26 8L28 8L28 9L26 9L26 10L27 10L27 11L29 11L29 13L31 13L31 10L33 10L33 11L32 11L32 12L33 12L33 11L37 11L37 12L35 12L35 14L33 14L33 13L32 13L32 14L31 14L31 15L30 15L30 16L32 16L32 18L33 18L33 17L34 17L34 16L35 16L35 17L37 17L37 15L36 15L36 16L35 16L35 14L37 14L37 12L39 12L39 13L40 13L40 12L41 12L41 11L42 11L42 12L45 12L45 13L44 13L44 14L45 14L45 15L44 15L44 16L43 16L43 17L42 17L42 14L43 14L43 13L42 13L42 14L41 14L41 15L40 15L40 14L38 14L38 15L39 15L39 16L38 16L38 17L39 17L39 18L38 18L38 19L37 19L37 18L36 18L36 19L37 19L37 20L35 20L35 21L38 21L38 20L39 20L39 22L36 22L36 23L39 23L39 24L41 24L41 22L42 22L42 24L46 24L46 25L47 25L47 24L46 24L46 23L47 23L47 22L48 22L48 23L49 23L49 22L50 22L50 25L49 25L49 24L48 24L48 25L49 25L49 26L50 26L50 25L51 25L51 22L50 22L50 19L51 19L51 18L50 18L50 16L51 16L51 17L52 17L52 16L51 16L51 15L52 15L52 14L50 14L50 12L48 12L48 11L49 11L49 10L50 10L50 9L49 9L49 8L50 8L50 7L51 7L51 9L54 9L54 10L55 10L55 9L56 9L56 12L57 12L57 13L59 13L59 12L60 12L60 11L61 11L61 10L60 10L60 11L59 11L59 12L57 12L57 10L58 10L58 8L57 8L57 9L56 9L56 8L55 8L55 9L54 9L54 8L52 8L52 7L53 7L53 6L52 6L52 7L51 7L51 5L52 5L52 4L53 4L53 0L51 0L51 2L50 2L50 0L49 0L49 1L48 1L48 2L50 2L50 3L46 3L46 2L47 2L47 1L45 1L45 0L44 0L44 3L46 3L46 4L48 4L48 5L46 5L46 7L47 7L47 9L49 9L49 10L48 10L48 11L47 11L47 10L45 10L45 9L46 9L46 8L45 8L45 4L44 4L44 8L45 8L45 9L44 9L44 11L43 11L43 9L41 9L41 10L40 10L40 9L39 9L39 10L38 10L38 9L37 9L37 8L41 8L41 6L40 6L40 5L41 5L41 4L40 4L40 3L41 3L41 2L39 2L39 1L38 1L38 2L39 2L39 3L38 3L38 4L39 4L39 5L38 5L38 7L37 7L37 5L36 5L36 4L37 4L37 3L35 3L35 2L34 2L34 3L33 3L33 2L32 2L32 4L31 4L31 2L29 2L29 1L28 1L28 4L26 4L26 2L27 2L27 0L26 0L26 2L25 2L25 0L21 0L21 1L23 1L23 2L24 2L24 3L23 3L23 4L21 4L21 3L20 3L20 0L19 0L19 1L18 1L18 0L17 0L17 2L18 2L18 4L21 4L21 6L20 6L20 5L17 5L17 6L16 6L16 7L17 7L17 8L15 8L15 6L14 6L14 8L11 8L11 6L10 6L10 5L11 5L11 4L12 4L12 5L13 5L13 4L12 4L12 2L11 2L11 1L12 1L12 0ZM13 0L13 2L15 2L15 4L14 4L14 5L15 5L15 4L17 4L17 3L16 3L16 2L15 2L15 1L16 1L16 0L15 0L15 1L14 1L14 0ZM30 0L30 1L31 1L31 0ZM32 0L32 1L33 1L33 0ZM35 0L35 1L36 1L36 0ZM41 0L41 1L43 1L43 0ZM8 1L8 2L9 2L9 1ZM8 3L8 4L9 4L9 3ZM24 3L24 4L25 4L25 5L22 5L22 6L21 6L21 7L20 7L20 6L19 6L19 7L20 7L20 8L21 8L21 7L22 7L22 9L23 9L23 7L24 7L24 6L25 6L25 5L26 5L26 4L25 4L25 3ZM29 3L29 4L30 4L30 3ZM51 3L51 4L52 4L52 3ZM33 4L33 5L35 5L35 4ZM42 4L42 5L43 5L43 4ZM29 5L29 8L32 8L32 5ZM48 5L48 6L47 6L47 7L48 7L48 6L49 6L49 7L50 7L50 6L49 6L49 5ZM12 6L12 7L13 7L13 6ZM17 6L17 7L18 7L18 6ZM22 6L22 7L23 7L23 6ZM27 6L27 7L28 7L28 6ZM30 6L30 7L31 7L31 6ZM33 6L33 7L34 7L34 9L33 9L33 10L35 10L35 7L36 7L36 8L37 8L37 7L36 7L36 6L35 6L35 7L34 7L34 6ZM39 6L39 7L40 7L40 6ZM42 6L42 8L43 8L43 6ZM10 8L10 9L11 9L11 8ZM14 8L14 9L12 9L12 10L15 10L15 8ZM59 8L59 9L60 9L60 8ZM28 9L28 10L29 10L29 9ZM30 9L30 10L31 10L31 9ZM0 10L0 11L1 11L1 10ZM37 10L37 11L38 11L38 10ZM39 10L39 12L40 12L40 10ZM51 10L51 11L53 11L53 12L51 12L51 13L53 13L53 14L55 14L55 15L53 15L53 19L54 19L54 20L55 20L55 21L54 21L54 22L53 22L53 23L54 23L54 24L57 24L57 25L56 25L56 26L59 26L59 27L61 27L61 26L60 26L60 24L61 24L61 22L58 22L58 21L60 21L60 20L61 20L61 18L60 18L60 17L61 17L61 16L60 16L60 17L59 17L59 16L57 16L57 15L58 15L58 14L57 14L57 15L56 15L56 13L55 13L55 11L53 11L53 10ZM13 11L13 13L12 13L12 12L11 12L11 14L10 14L10 12L9 12L9 16L8 16L8 17L5 17L5 18L7 18L7 19L6 19L6 20L7 20L7 19L8 19L8 20L9 20L9 21L8 21L8 22L7 22L7 21L6 21L6 22L7 22L7 23L6 23L6 24L5 24L5 25L4 25L4 23L3 23L3 24L2 24L2 25L4 25L4 26L3 26L3 27L4 27L4 26L7 26L7 27L5 27L5 28L9 28L9 26L7 26L7 25L6 25L6 24L7 24L7 23L8 23L8 24L9 24L9 25L11 25L11 28L13 28L13 29L15 29L15 30L14 30L14 31L13 31L13 30L11 30L11 29L9 29L9 30L11 30L11 32L12 32L12 31L13 31L13 34L14 34L14 35L15 35L15 36L16 36L16 35L17 35L17 37L15 37L15 38L14 38L14 36L13 36L13 35L12 35L12 33L10 33L10 34L11 34L11 35L12 35L12 36L13 36L13 37L11 37L11 36L10 36L10 35L8 35L8 36L7 36L7 35L6 35L6 36L7 36L7 37L6 37L6 38L7 38L7 39L6 39L6 40L5 40L5 39L4 39L4 40L3 40L3 41L4 41L4 44L5 44L5 45L3 45L3 46L1 46L1 47L3 47L3 46L4 46L4 50L8 50L8 49L9 49L9 48L11 48L11 49L10 49L10 50L9 50L9 51L8 51L8 52L9 52L9 54L10 54L10 52L11 52L11 51L12 51L12 49L13 49L13 50L14 50L14 48L12 48L12 47L13 47L13 46L12 46L12 45L14 45L14 46L15 46L15 50L17 50L17 51L16 51L16 52L19 52L19 53L20 53L20 52L21 52L21 51L20 51L20 50L21 50L21 49L20 49L20 48L22 48L22 49L25 49L25 47L26 47L26 49L27 49L27 50L28 50L28 52L29 52L29 51L30 51L30 50L31 50L31 51L32 51L32 52L33 52L33 54L35 54L35 56L37 56L37 55L38 55L38 54L40 54L40 55L42 55L42 56L43 56L43 55L45 55L45 54L48 54L48 55L46 55L46 56L44 56L44 58L47 58L47 57L48 57L48 56L49 56L49 59L50 59L50 58L51 58L51 57L50 57L50 56L51 56L51 55L50 55L50 54L52 54L52 53L50 53L50 52L51 52L51 51L53 51L53 52L55 52L55 51L54 51L54 49L55 49L55 48L54 48L54 49L53 49L53 50L51 50L51 48L49 48L49 45L45 45L45 44L44 44L44 43L45 43L45 42L47 42L47 43L46 43L46 44L49 44L49 43L50 43L50 42L51 42L51 40L52 40L52 37L50 37L50 36L49 36L49 35L50 35L50 34L54 34L54 33L51 33L51 32L49 32L49 31L50 31L50 30L49 30L49 31L48 31L48 30L47 30L47 31L48 31L48 32L49 32L49 33L45 33L45 32L44 32L44 31L43 31L43 30L42 30L42 31L41 31L41 32L37 32L37 31L36 31L36 30L37 30L37 29L38 29L38 28L40 28L40 27L38 27L38 26L36 26L36 25L35 25L35 24L34 24L34 25L33 25L33 26L36 26L36 27L35 27L35 28L37 28L37 29L36 29L36 30L35 30L35 29L33 29L33 33L34 33L34 34L33 34L33 35L30 35L30 34L31 34L31 33L30 33L30 34L28 34L28 33L27 33L27 30L26 30L26 31L25 31L25 30L23 30L23 31L21 31L21 29L23 29L23 28L24 28L24 27L25 27L25 26L24 26L24 25L23 25L23 24L24 24L24 23L22 23L22 22L21 22L21 21L25 21L25 20L26 20L26 19L24 19L24 18L23 18L23 19L22 19L22 18L21 18L21 17L25 17L25 16L26 16L26 15L25 15L25 16L23 16L23 15L24 15L24 14L21 14L21 13L20 13L20 14L19 14L19 15L18 15L18 16L19 16L19 17L18 17L18 18L17 18L17 21L16 21L16 19L15 19L15 18L16 18L16 17L17 17L17 16L16 16L16 15L15 15L15 16L16 16L16 17L13 17L13 16L14 16L14 15L13 15L13 16L10 16L10 15L12 15L12 14L14 14L14 13L15 13L15 12L14 12L14 11ZM25 11L25 12L26 12L26 11ZM45 11L45 12L46 12L46 13L45 13L45 14L47 14L47 15L45 15L45 16L44 16L44 17L43 17L43 18L42 18L42 17L41 17L41 16L39 16L39 17L41 17L41 20L40 20L40 21L43 21L43 23L45 23L45 22L47 22L47 21L46 21L46 20L49 20L49 19L50 19L50 18L49 18L49 19L48 19L48 17L47 17L47 15L48 15L48 16L50 16L50 15L49 15L49 14L47 14L47 12L46 12L46 11ZM4 12L4 13L3 13L3 14L5 14L5 15L6 15L6 16L7 16L7 15L6 15L6 14L7 14L7 13L6 13L6 12ZM20 14L20 15L19 15L19 16L20 16L20 17L19 17L19 18L18 18L18 19L19 19L19 20L18 20L18 21L17 21L17 22L16 22L16 23L15 23L15 21L14 21L14 20L13 20L13 19L11 19L11 17L10 17L10 18L8 18L8 19L10 19L10 20L13 20L13 22L14 22L14 23L10 23L10 22L11 22L11 21L10 21L10 22L9 22L9 24L16 24L16 25L13 25L13 28L14 28L14 27L15 27L15 29L17 29L17 30L18 30L18 31L16 31L16 30L15 30L15 31L16 31L16 32L15 32L15 34L16 34L16 32L17 32L17 33L19 33L19 36L18 36L18 37L19 37L19 38L17 38L17 40L14 40L14 38L12 38L12 39L11 39L11 40L10 40L10 41L9 41L9 40L6 40L6 41L7 41L7 42L6 42L6 43L7 43L7 44L6 44L6 45L5 45L5 46L6 46L6 47L7 47L7 46L8 46L8 45L9 45L9 46L10 46L10 45L12 45L12 44L10 44L10 45L9 45L9 44L8 44L8 43L9 43L9 42L10 42L10 41L12 41L12 42L13 42L13 41L14 41L14 43L16 43L16 44L15 44L15 45L19 45L19 46L20 46L20 45L21 45L21 46L23 46L23 45L21 45L21 43L22 43L22 44L27 44L27 45L26 45L26 46L27 46L27 49L29 49L29 50L30 50L30 49L31 49L31 50L32 50L32 51L33 51L33 52L35 52L35 50L34 50L34 47L35 47L35 48L36 48L36 49L37 49L37 50L36 50L36 51L39 51L39 50L40 50L40 49L39 49L39 48L42 48L42 50L43 50L43 51L40 51L40 52L41 52L41 53L40 53L40 54L45 54L45 53L47 53L47 51L48 51L48 50L50 50L50 51L51 51L51 50L50 50L50 49L49 49L49 48L48 48L48 50L45 50L45 49L44 49L44 48L45 48L45 47L46 47L46 49L47 49L47 47L48 47L48 46L44 46L44 44L43 44L43 43L42 43L42 46L41 46L41 47L40 47L40 44L41 44L41 43L39 43L39 42L45 42L45 41L46 41L46 40L48 40L48 41L50 41L50 40L51 40L51 38L50 38L50 40L48 40L48 39L49 39L49 38L48 38L48 39L47 39L47 38L45 38L45 39L44 39L44 37L43 37L43 35L44 35L44 36L46 36L46 35L47 35L47 34L45 34L45 35L44 35L44 32L43 32L43 31L42 31L42 32L43 32L43 33L42 33L42 34L43 34L43 35L42 35L42 36L41 36L41 35L40 35L40 34L38 34L38 35L39 35L39 36L36 36L36 38L32 38L32 36L29 36L29 37L28 37L28 34L27 34L27 33L26 33L26 32L25 32L25 31L24 31L24 32L25 32L25 33L21 33L21 32L20 32L20 29L21 29L21 28L20 28L20 29L19 29L19 28L18 28L18 29L17 29L17 28L16 28L16 27L17 27L17 26L18 26L18 27L19 27L19 26L20 26L20 27L21 27L21 26L23 26L23 25L22 25L22 23L21 23L21 22L20 22L20 21L21 21L21 20L22 20L22 19L21 19L21 18L20 18L20 17L21 17L21 16L22 16L22 15L21 15L21 14ZM32 14L32 16L34 16L34 15L33 15L33 14ZM59 14L59 15L61 15L61 14ZM56 16L56 19L57 19L57 20L56 20L56 21L55 21L55 22L54 22L54 23L55 23L55 22L56 22L56 21L58 21L58 20L60 20L60 19L58 19L58 18L59 18L59 17L57 17L57 16ZM30 17L30 18L31 18L31 17ZM1 18L1 19L2 19L2 18ZM19 18L19 19L20 19L20 20L19 20L19 21L18 21L18 22L17 22L17 23L16 23L16 24L17 24L17 23L18 23L18 24L19 24L19 25L18 25L18 26L19 26L19 25L20 25L20 26L21 26L21 24L19 24L19 23L20 23L20 22L19 22L19 21L20 21L20 20L21 20L21 19L20 19L20 18ZM34 18L34 19L32 19L32 21L31 21L31 22L30 22L30 20L31 20L31 19L30 19L30 20L29 20L29 21L28 21L28 23L26 23L26 24L28 24L28 23L30 23L30 24L31 24L31 22L33 22L33 20L34 20L34 19L35 19L35 18ZM39 18L39 19L40 19L40 18ZM43 18L43 19L42 19L42 20L46 20L46 19L47 19L47 18L45 18L45 19L44 19L44 18ZM54 18L54 19L55 19L55 18ZM23 19L23 20L24 20L24 19ZM2 20L2 21L3 21L3 22L4 22L4 20ZM51 20L51 21L53 21L53 20ZM44 21L44 22L45 22L45 21ZM1 22L1 23L2 23L2 22ZM18 22L18 23L19 23L19 22ZM39 22L39 23L40 23L40 22ZM57 23L57 24L59 24L59 23ZM16 25L16 26L17 26L17 25ZM44 25L44 26L45 26L45 27L44 27L44 28L45 28L45 27L47 27L47 26L45 26L45 25ZM29 26L29 27L30 27L30 26ZM53 26L53 27L52 27L52 28L53 28L53 27L54 27L54 26ZM33 27L33 28L34 28L34 27ZM42 27L42 28L43 28L43 27ZM2 28L2 29L3 29L3 30L4 30L4 28ZM5 29L5 32L8 32L8 29ZM18 29L18 30L19 30L19 29ZM29 29L29 32L32 32L32 29ZM53 29L53 32L56 32L56 29ZM1 30L1 33L3 33L3 37L4 37L4 38L5 38L5 37L4 37L4 33L3 33L3 32L4 32L4 31L3 31L3 32L2 32L2 30ZM6 30L6 31L7 31L7 30ZM30 30L30 31L31 31L31 30ZM34 30L34 31L35 31L35 30ZM54 30L54 31L55 31L55 30ZM18 31L18 32L19 32L19 33L20 33L20 34L21 34L21 37L20 37L20 36L19 36L19 37L20 37L20 38L22 38L22 39L23 39L23 40L21 40L21 41L20 41L20 40L19 40L19 41L16 41L16 42L17 42L17 44L19 44L19 45L20 45L20 42L22 42L22 43L24 43L24 41L25 41L25 43L27 43L27 44L28 44L28 45L27 45L27 46L28 46L28 45L29 45L29 46L31 46L31 47L32 47L32 48L33 48L33 47L32 47L32 46L35 46L35 47L36 47L36 48L37 48L37 49L38 49L38 50L39 50L39 49L38 49L38 48L39 48L39 47L38 47L38 46L39 46L39 45L38 45L38 44L39 44L39 43L38 43L38 42L39 42L39 41L41 41L41 40L42 40L42 39L43 39L43 41L45 41L45 40L44 40L44 39L43 39L43 38L42 38L42 39L41 39L41 36L39 36L39 37L37 37L37 38L36 38L36 39L35 39L35 40L37 40L37 38L39 38L39 39L38 39L38 40L39 40L39 41L38 41L38 42L37 42L37 43L34 43L34 44L37 44L37 45L36 45L36 46L35 46L35 45L33 45L33 43L32 43L32 42L35 42L35 41L34 41L34 39L30 39L30 40L29 40L29 38L30 38L30 37L29 37L29 38L28 38L28 37L27 37L27 35L26 35L26 33L25 33L25 35L26 35L26 36L24 36L24 35L23 35L23 34L21 34L21 33L20 33L20 32L19 32L19 31ZM36 32L36 33L37 33L37 32ZM6 33L6 34L8 34L8 33ZM49 33L49 34L48 34L48 35L49 35L49 34L50 34L50 33ZM34 34L34 35L35 35L35 34ZM9 36L9 37L8 37L8 39L10 39L10 38L11 38L11 37L10 37L10 36ZM33 36L33 37L34 37L34 36ZM47 36L47 37L49 37L49 36ZM9 37L9 38L10 38L10 37ZM22 37L22 38L25 38L25 39L24 39L24 40L25 40L25 39L28 39L28 38L27 38L27 37L26 37L26 38L25 38L25 37ZM56 37L56 38L55 38L55 39L56 39L56 40L59 40L59 39L57 39L57 38L58 38L58 37ZM2 38L2 39L3 39L3 38ZM39 39L39 40L41 40L41 39ZM1 40L1 41L2 41L2 40ZM4 40L4 41L5 41L5 40ZM12 40L12 41L13 41L13 40ZM27 40L27 41L26 41L26 42L27 42L27 43L28 43L28 44L29 44L29 43L28 43L28 42L27 42L27 41L29 41L29 42L30 42L30 43L31 43L31 42L30 42L30 41L31 41L31 40L30 40L30 41L29 41L29 40ZM32 40L32 41L33 41L33 40ZM8 41L8 42L7 42L7 43L8 43L8 42L9 42L9 41ZM22 41L22 42L23 42L23 41ZM56 41L56 42L58 42L58 44L59 44L59 43L60 43L60 42L58 42L58 41ZM48 42L48 43L49 43L49 42ZM37 43L37 44L38 44L38 43ZM30 44L30 45L31 45L31 46L32 46L32 44ZM6 45L6 46L7 46L7 45ZM24 45L24 47L23 47L23 48L24 48L24 47L25 47L25 45ZM37 45L37 46L36 46L36 47L37 47L37 46L38 46L38 45ZM53 45L53 46L54 46L54 45ZM11 46L11 47L12 47L12 46ZM42 46L42 48L43 48L43 47L44 47L44 46ZM60 46L60 47L61 47L61 46ZM17 47L17 48L16 48L16 49L19 49L19 50L18 50L18 51L19 51L19 50L20 50L20 49L19 49L19 48L20 48L20 47ZM5 48L5 49L8 49L8 48ZM29 48L29 49L30 49L30 48ZM33 50L33 51L34 51L34 50ZM3 51L3 52L4 52L4 51ZM13 51L13 52L14 52L14 51ZM43 51L43 52L44 52L44 53L45 53L45 52L46 52L46 51L45 51L45 52L44 52L44 51ZM36 52L36 53L38 53L38 52ZM48 52L48 54L49 54L49 52ZM11 53L11 54L12 54L12 55L13 55L13 56L14 56L14 54L12 54L12 53ZM29 53L29 56L32 56L32 53ZM53 53L53 56L56 56L56 53ZM30 54L30 55L31 55L31 54ZM36 54L36 55L37 55L37 54ZM54 54L54 55L55 55L55 54ZM33 55L33 56L34 56L34 55ZM8 56L8 61L9 61L9 60L10 60L10 58L9 58L9 56ZM26 56L26 57L27 57L27 56ZM28 57L28 58L29 58L29 57ZM16 58L16 61L19 61L19 60L17 60L17 59L18 59L18 58ZM20 58L20 59L21 59L21 58ZM23 59L23 60L24 60L24 59ZM43 59L43 60L44 60L44 59ZM20 60L20 61L21 61L21 60ZM35 60L35 61L38 61L38 60ZM0 0L0 7L7 7L7 0ZM1 1L1 6L6 6L6 1ZM2 2L2 5L5 5L5 2ZM54 0L54 7L61 7L61 0ZM55 1L55 6L60 6L60 1ZM56 2L56 5L59 5L59 2ZM0 54L0 61L7 61L7 54ZM1 55L1 60L6 60L6 55ZM2 56L2 59L5 59L5 56Z" fill="#000000"/></g></g></svg>
