<?xml version="1.0" encoding="UTF-8"?>
<svg xmlns="http://www.w3.org/2000/svg" version="1.1" width="200" height="200" viewBox="0 0 200 200"><rect x="0" y="0" width="200" height="200" fill="#ffffff"/><g transform="scale(3.077)"><g transform="translate(0,0)"><path fill-rule="evenodd" d="M9 0L9 1L8 1L8 2L10 2L10 3L8 3L8 4L9 4L9 5L8 5L8 7L9 7L9 5L10 5L10 8L11 8L11 9L9 9L9 8L6 8L6 9L8 9L8 10L5 10L5 8L0 8L0 9L3 9L3 10L2 10L2 11L3 11L3 10L4 10L4 12L3 12L3 13L1 13L1 12L0 12L0 13L1 13L1 17L2 17L2 16L3 16L3 17L4 17L4 18L2 18L2 19L3 19L3 20L2 20L2 21L1 21L1 18L0 18L0 26L2 26L2 27L3 27L3 28L1 28L1 29L0 29L0 30L1 30L1 29L2 29L2 30L3 30L3 31L4 31L4 35L3 35L3 34L0 34L0 35L2 35L2 36L4 36L4 37L2 37L2 39L0 39L0 40L1 40L1 41L2 41L2 39L3 39L3 38L4 38L4 37L5 37L5 40L4 40L4 41L3 41L3 42L1 42L1 44L0 44L0 45L1 45L1 46L0 46L0 47L1 47L1 48L2 48L2 50L1 50L1 49L0 49L0 51L1 51L1 53L3 53L3 54L2 54L2 55L3 55L3 56L1 56L1 55L0 55L0 56L1 56L1 57L3 57L3 56L4 56L4 57L5 57L5 56L4 56L4 53L3 53L3 52L5 52L5 55L8 55L8 53L7 53L7 52L8 52L8 50L10 50L10 52L9 52L9 55L10 55L10 56L8 56L8 59L10 59L10 60L11 60L11 64L9 64L9 62L10 62L10 61L9 61L9 60L8 60L8 65L11 65L11 64L12 64L12 65L13 65L13 64L12 64L12 62L14 62L14 59L16 59L16 60L15 60L15 61L16 61L16 62L15 62L15 63L14 63L14 65L19 65L19 64L20 64L20 65L22 65L22 64L23 64L23 65L24 65L24 63L22 63L22 62L24 62L24 61L25 61L25 65L26 65L26 62L27 62L27 63L28 63L28 64L27 64L27 65L31 65L31 64L32 64L32 65L33 65L33 64L34 64L34 63L33 63L33 64L32 64L32 63L31 63L31 62L34 62L34 61L35 61L35 59L37 59L37 60L36 60L36 61L37 61L37 62L38 62L38 63L36 63L36 64L35 64L35 65L36 65L36 64L38 64L38 65L39 65L39 64L41 64L41 65L44 65L44 64L46 64L46 63L48 63L48 62L50 62L50 63L49 63L49 64L47 64L47 65L50 65L50 63L51 63L51 64L53 64L53 65L54 65L54 63L52 63L52 62L55 62L55 64L57 64L57 65L60 65L60 64L61 64L61 62L62 62L62 63L63 63L63 64L62 64L62 65L63 65L63 64L64 64L64 61L65 61L65 60L64 60L64 59L63 59L63 60L62 60L62 59L61 59L61 58L65 58L65 57L64 57L64 56L65 56L65 55L64 55L64 54L65 54L65 51L64 51L64 50L65 50L65 49L64 49L64 48L62 48L62 45L63 45L63 46L64 46L64 45L65 45L65 44L64 44L64 42L65 42L65 41L64 41L64 40L65 40L65 39L64 39L64 38L65 38L65 37L64 37L64 36L65 36L65 35L63 35L63 34L64 34L64 32L65 32L65 31L64 31L64 32L62 32L62 31L63 31L63 30L61 30L61 28L62 28L62 29L63 29L63 28L64 28L64 30L65 30L65 28L64 28L64 26L65 26L65 24L64 24L64 22L65 22L65 21L64 21L64 20L62 20L62 19L63 19L63 18L62 18L62 19L61 19L61 20L60 20L60 21L61 21L61 22L62 22L62 21L63 21L63 24L62 24L62 23L61 23L61 24L60 24L60 26L57 26L57 27L56 27L56 25L59 25L59 24L56 24L56 25L55 25L55 23L56 23L56 22L55 22L55 20L56 20L56 21L57 21L57 23L59 23L59 22L58 22L58 21L59 21L59 19L60 19L60 18L56 18L56 17L57 17L57 16L58 16L58 14L57 14L57 16L56 16L56 17L55 17L55 15L56 15L56 13L59 13L59 12L60 12L60 13L61 13L61 14L60 14L60 15L61 15L61 16L59 16L59 17L61 17L61 16L62 16L62 17L64 17L64 18L65 18L65 15L64 15L64 14L65 14L65 13L64 13L64 12L65 12L65 11L63 11L63 10L65 10L65 9L64 9L64 8L63 8L63 10L62 10L62 11L61 11L61 10L60 10L60 11L59 11L59 10L58 10L58 11L57 11L57 10L56 10L56 9L58 9L58 8L56 8L56 9L54 9L54 8L55 8L55 5L54 5L54 8L53 8L53 6L52 6L52 5L53 5L53 4L56 4L56 5L57 5L57 4L56 4L56 3L57 3L57 1L56 1L56 0L55 0L55 1L56 1L56 3L55 3L55 2L54 2L54 3L53 3L53 2L52 2L52 1L53 1L53 0L51 0L51 2L52 2L52 3L53 3L53 4L51 4L51 3L50 3L50 4L49 4L49 3L48 3L48 2L49 2L49 1L50 1L50 0L49 0L49 1L48 1L48 2L47 2L47 1L45 1L45 0L44 0L44 1L45 1L45 4L47 4L47 3L48 3L48 4L49 4L49 5L48 5L48 7L49 7L49 5L50 5L50 7L51 7L51 6L52 6L52 8L51 8L51 9L52 9L52 8L53 8L53 10L50 10L50 11L49 11L49 10L48 10L48 11L49 11L49 12L48 12L48 13L49 13L49 14L50 14L50 15L51 15L51 18L50 18L50 16L48 16L48 18L45 18L45 19L44 19L44 17L42 17L42 18L43 18L43 19L42 19L42 20L43 20L43 21L40 21L40 20L41 20L41 17L40 17L40 16L41 16L41 15L42 15L42 14L43 14L43 12L42 12L42 11L41 11L41 9L40 9L40 11L39 11L39 10L38 10L38 9L39 9L39 8L41 8L41 5L40 5L40 3L42 3L42 5L43 5L43 6L42 6L42 7L43 7L43 8L45 8L45 9L44 9L44 10L45 10L45 11L44 11L44 12L45 12L45 13L44 13L44 14L45 14L45 15L44 15L44 16L45 16L45 15L46 15L46 16L47 16L47 14L46 14L46 13L47 13L47 10L46 10L46 8L47 8L47 6L46 6L46 8L45 8L45 6L44 6L44 5L43 5L43 4L44 4L44 2L43 2L43 3L42 3L42 1L43 1L43 0L42 0L42 1L41 1L41 0L39 0L39 1L38 1L38 0L37 0L37 3L35 3L35 4L33 4L33 3L34 3L34 1L35 1L35 2L36 2L36 1L35 1L35 0L34 0L34 1L33 1L33 0L32 0L32 1L33 1L33 3L31 3L31 2L29 2L29 1L27 1L27 0L26 0L26 1L25 1L25 0L24 0L24 1L25 1L25 2L26 2L26 3L25 3L25 4L24 4L24 3L23 3L23 0L21 0L21 1L22 1L22 2L19 2L19 3L20 3L20 4L21 4L21 5L19 5L19 4L18 4L18 3L16 3L16 4L15 4L15 2L14 2L14 1L11 1L11 0ZM19 0L19 1L20 1L20 0ZM30 0L30 1L31 1L31 0ZM10 1L10 2L11 2L11 3L10 3L10 4L11 4L11 3L12 3L12 5L11 5L11 7L12 7L12 10L11 10L11 12L12 12L12 13L11 13L11 14L10 14L10 10L8 10L8 11L6 11L6 12L5 12L5 13L4 13L4 15L3 15L3 14L2 14L2 15L3 15L3 16L4 16L4 17L5 17L5 16L7 16L7 15L8 15L8 19L9 19L9 20L8 20L8 22L7 22L7 21L5 21L5 22L7 22L7 23L5 23L5 24L4 24L4 25L5 25L5 26L7 26L7 27L6 27L6 28L5 28L5 27L4 27L4 28L5 28L5 29L4 29L4 30L5 30L5 29L6 29L6 30L8 30L8 26L7 26L7 25L6 25L6 24L7 24L7 23L8 23L8 22L10 22L10 23L9 23L9 27L10 27L10 28L9 28L9 31L11 31L11 32L10 32L10 33L9 33L9 34L10 34L10 35L11 35L11 34L12 34L12 36L9 36L9 37L11 37L11 38L12 38L12 37L13 37L13 35L14 35L14 38L13 38L13 39L12 39L12 40L13 40L13 41L12 41L12 42L13 42L13 41L14 41L14 42L15 42L15 43L14 43L14 44L13 44L13 43L11 43L11 45L9 45L9 46L8 46L8 45L6 45L6 44L8 44L8 41L9 41L9 40L7 40L7 39L6 39L6 40L5 40L5 41L4 41L4 42L7 42L7 43L6 43L6 44L5 44L5 43L4 43L4 44L5 44L5 45L3 45L3 46L4 46L4 47L5 47L5 46L8 46L8 47L6 47L6 48L8 48L8 47L9 47L9 46L11 46L11 49L12 49L12 50L11 50L11 51L12 51L12 53L11 53L11 54L12 54L12 56L11 56L11 59L12 59L12 56L13 56L13 57L14 57L14 56L13 56L13 55L15 55L15 58L19 58L19 59L17 59L17 60L16 60L16 61L17 61L17 62L19 62L19 63L18 63L18 64L19 64L19 63L20 63L20 62L19 62L19 61L21 61L21 59L22 59L22 58L21 58L21 57L20 57L20 56L21 56L21 55L22 55L22 57L23 57L23 60L22 60L22 61L24 61L24 59L25 59L25 60L26 60L26 61L27 61L27 62L28 62L28 61L29 61L29 62L31 62L31 61L29 61L29 60L30 60L30 59L29 59L29 58L30 58L30 56L29 56L29 57L27 57L27 56L28 56L28 54L30 54L30 55L31 55L31 56L33 56L33 55L32 55L32 54L33 54L33 53L34 53L34 55L35 55L35 58L36 58L36 56L37 56L37 57L38 57L38 58L39 58L39 59L38 59L38 60L37 60L37 61L38 61L38 62L39 62L39 63L40 63L40 62L41 62L41 63L43 63L43 64L44 64L44 63L43 63L43 62L41 62L41 61L42 61L42 59L43 59L43 60L44 60L44 61L45 61L45 62L47 62L47 61L46 61L46 60L44 60L44 59L43 59L43 58L44 58L44 57L45 57L45 58L47 58L47 57L48 57L48 56L49 56L49 58L48 58L48 60L49 60L49 61L50 61L50 62L51 62L51 60L49 60L49 59L50 59L50 58L51 58L51 57L50 57L50 56L52 56L52 57L53 57L53 58L52 58L52 59L53 59L53 60L52 60L52 61L55 61L55 62L56 62L56 63L57 63L57 64L59 64L59 63L60 63L60 62L61 62L61 61L62 61L62 60L61 60L61 61L57 61L57 62L56 62L56 61L55 61L55 60L56 60L56 58L54 58L54 57L56 57L56 54L57 54L57 56L58 56L58 55L59 55L59 54L58 54L58 53L59 53L59 51L60 51L60 52L61 52L61 53L62 53L62 54L61 54L61 55L62 55L62 56L61 56L61 57L62 57L62 56L64 56L64 55L63 55L63 53L62 53L62 52L63 52L63 51L62 51L62 52L61 52L61 51L60 51L60 50L57 50L57 49L56 49L56 48L55 48L55 47L59 47L59 49L62 49L62 48L60 48L60 47L61 47L61 46L60 46L60 45L62 45L62 44L63 44L63 45L64 45L64 44L63 44L63 42L62 42L62 41L61 41L61 38L62 38L62 40L63 40L63 37L62 37L62 36L63 36L63 35L62 35L62 34L61 34L61 35L62 35L62 36L59 36L59 35L58 35L58 36L59 36L59 37L56 37L56 36L55 36L55 35L56 35L56 34L52 34L52 35L54 35L54 36L52 36L52 37L54 37L54 36L55 36L55 40L54 40L54 38L52 38L52 39L50 39L50 38L51 38L51 37L50 37L50 36L49 36L49 35L50 35L50 34L51 34L51 32L52 32L52 33L54 33L54 32L52 32L52 31L55 31L55 33L56 33L56 30L59 30L59 29L60 29L60 28L61 28L61 27L62 27L62 28L63 28L63 27L62 27L62 26L63 26L63 25L64 25L64 24L63 24L63 25L62 25L62 24L61 24L61 25L62 25L62 26L60 26L60 27L57 27L57 28L58 28L58 29L56 29L56 27L55 27L55 26L54 26L54 25L53 25L53 24L52 24L52 22L53 22L53 23L54 23L54 22L53 22L53 20L54 20L54 19L56 19L56 18L54 18L54 19L53 19L53 20L52 20L52 22L51 22L51 19L50 19L50 22L49 22L49 23L46 23L46 24L47 24L47 25L45 25L45 24L44 24L44 23L45 23L45 22L47 22L47 21L48 21L48 20L49 20L49 18L48 18L48 19L45 19L45 20L44 20L44 19L43 19L43 20L44 20L44 22L42 22L42 23L41 23L41 22L40 22L40 23L41 23L41 24L39 24L39 23L38 23L38 22L39 22L39 21L38 21L38 20L37 20L37 19L40 19L40 18L39 18L39 16L38 16L38 17L37 17L37 19L36 19L36 18L35 18L35 17L36 17L36 16L35 16L35 15L36 15L36 14L37 14L37 15L38 15L38 14L39 14L39 13L40 13L40 14L41 14L41 13L42 13L42 12L39 12L39 11L36 11L36 8L37 8L37 9L38 9L38 8L37 8L37 7L38 7L38 5L39 5L39 7L40 7L40 5L39 5L39 4L38 4L38 5L37 5L37 7L36 7L36 6L35 6L35 9L34 9L34 10L33 10L33 11L31 11L31 12L30 12L30 13L29 13L29 10L30 10L30 9L27 9L27 7L28 7L28 6L27 6L27 7L26 7L26 5L27 5L27 4L25 4L25 8L24 8L24 6L23 6L23 4L22 4L22 3L21 3L21 4L22 4L22 5L21 5L21 7L20 7L20 6L19 6L19 5L18 5L18 4L17 4L17 5L15 5L15 7L14 7L14 3L12 3L12 2L11 2L11 1ZM17 1L17 2L18 2L18 1ZM40 1L40 2L41 2L41 1ZM28 2L28 3L29 3L29 2ZM46 2L46 3L47 3L47 2ZM28 4L28 5L30 5L30 4ZM35 4L35 5L36 5L36 4ZM50 4L50 5L51 5L51 4ZM31 5L31 8L34 8L34 5ZM12 6L12 7L13 7L13 6ZM16 6L16 7L17 7L17 9L16 9L16 8L14 8L14 9L15 9L15 13L16 13L16 11L17 11L17 9L19 9L19 10L18 10L18 12L17 12L17 14L15 14L15 16L16 16L16 15L18 15L18 16L17 16L17 17L16 17L16 19L17 19L17 20L18 20L18 21L17 21L17 23L18 23L18 25L19 25L19 26L18 26L18 27L17 27L17 26L16 26L16 25L17 25L17 24L16 24L16 23L13 23L13 22L16 22L16 21L15 21L15 19L14 19L14 14L12 14L12 16L13 16L13 19L11 19L11 16L9 16L9 17L10 17L10 18L9 18L9 19L10 19L10 20L9 20L9 21L11 21L11 20L12 20L12 21L13 21L13 22L12 22L12 24L11 24L11 26L10 26L10 27L11 27L11 28L10 28L10 29L11 29L11 30L12 30L12 28L13 28L13 31L12 31L12 32L11 32L11 33L10 33L10 34L11 34L11 33L13 33L13 32L15 32L15 33L14 33L14 35L15 35L15 34L16 34L16 33L17 33L17 35L18 35L18 33L19 33L19 34L20 34L20 35L21 35L21 36L20 36L20 37L18 37L18 36L16 36L16 37L18 37L18 39L19 39L19 40L18 40L18 41L17 41L17 38L15 38L15 39L16 39L16 40L14 40L14 39L13 39L13 40L14 40L14 41L17 41L17 42L18 42L18 43L17 43L17 46L18 46L18 47L20 47L20 46L18 46L18 45L20 45L20 41L21 41L21 42L22 42L22 44L23 44L23 45L21 45L21 47L22 47L22 48L20 48L20 49L21 49L21 51L19 51L19 50L18 50L18 51L15 51L15 49L19 49L19 48L16 48L16 47L15 47L15 49L13 49L13 48L14 48L14 47L12 47L12 49L13 49L13 50L12 50L12 51L13 51L13 52L14 52L14 53L13 53L13 54L14 54L14 53L17 53L17 54L16 54L16 57L19 57L19 58L20 58L20 59L21 59L21 58L20 58L20 57L19 57L19 56L17 56L17 54L20 54L20 53L22 53L22 52L21 52L21 51L22 51L22 50L24 50L24 52L26 52L26 51L25 51L25 50L27 50L27 51L28 51L28 52L27 52L27 53L29 53L29 50L28 50L28 49L29 49L29 48L28 48L28 47L27 47L27 46L28 46L28 45L26 45L26 43L24 43L24 44L23 44L23 41L24 41L24 42L25 42L25 41L26 41L26 42L27 42L27 43L28 43L28 44L29 44L29 45L31 45L31 46L32 46L32 47L31 47L31 48L30 48L30 49L33 49L33 50L32 50L32 51L33 51L33 50L34 50L34 48L36 48L36 49L35 49L35 50L36 50L36 51L38 51L38 50L37 50L37 49L38 49L38 48L37 48L37 47L39 47L39 46L38 46L38 45L39 45L39 43L40 43L40 44L41 44L41 43L40 43L40 42L41 42L41 41L39 41L39 42L38 42L38 40L36 40L36 39L37 39L37 38L36 38L36 37L38 37L38 35L37 35L37 36L35 36L35 35L36 35L36 34L35 34L35 33L36 33L36 32L38 32L38 33L37 33L37 34L39 34L39 32L41 32L41 31L42 31L42 32L43 32L43 33L41 33L41 34L42 34L42 35L39 35L39 37L40 37L40 36L42 36L42 37L41 37L41 38L38 38L38 39L39 39L39 40L43 40L43 41L42 41L42 42L43 42L43 41L44 41L44 42L45 42L45 43L44 43L44 44L43 44L43 43L42 43L42 46L41 46L41 47L40 47L40 48L41 48L41 49L40 49L40 50L39 50L39 51L40 51L40 52L38 52L38 53L40 53L40 52L41 52L41 54L43 54L43 55L42 55L42 56L43 56L43 57L42 57L42 58L43 58L43 57L44 57L44 56L45 56L45 55L47 55L47 56L48 56L48 55L49 55L49 54L50 54L50 55L51 55L51 54L50 54L50 53L52 53L52 56L53 56L53 53L54 53L54 54L56 54L56 53L58 53L58 51L55 51L55 52L53 52L53 50L56 50L56 49L55 49L55 48L53 48L53 46L56 46L56 45L58 45L58 44L57 44L57 43L54 43L54 42L59 42L59 41L60 41L60 42L61 42L61 43L60 43L60 44L62 44L62 42L61 42L61 41L60 41L60 38L61 38L61 37L59 37L59 39L58 39L58 40L57 40L57 39L56 39L56 41L54 41L54 42L53 42L53 43L52 43L52 42L48 42L48 41L50 41L50 40L48 40L48 39L49 39L49 38L50 38L50 37L49 37L49 36L47 36L47 34L44 34L44 32L46 32L46 30L45 30L45 31L44 31L44 32L43 32L43 31L42 31L42 30L44 30L44 29L43 29L43 27L44 27L44 28L45 28L45 29L47 29L47 28L48 28L48 29L49 29L49 30L48 30L48 31L49 31L49 32L48 32L48 33L49 33L49 34L48 34L48 35L49 35L49 34L50 34L50 31L52 31L52 30L56 30L56 29L55 29L55 27L53 27L53 26L49 26L49 25L50 25L50 24L51 24L51 25L52 25L52 24L51 24L51 22L50 22L50 23L49 23L49 24L48 24L48 25L47 25L47 26L45 26L45 27L44 27L44 25L41 25L41 26L40 26L40 27L39 27L39 26L38 26L38 25L37 25L37 24L38 24L38 23L37 23L37 22L38 22L38 21L37 21L37 20L35 20L35 24L33 24L33 26L34 26L34 27L32 27L32 28L33 28L33 29L32 29L32 30L30 30L30 29L28 29L28 28L27 28L27 27L26 27L26 26L27 26L27 25L26 25L26 24L28 24L28 25L29 25L29 28L31 28L31 26L32 26L32 25L30 25L30 24L32 24L32 23L30 23L30 22L31 22L31 21L30 21L30 22L28 22L28 21L29 21L29 19L28 19L28 17L29 17L29 18L30 18L30 20L31 20L31 19L32 19L32 20L34 20L34 19L35 19L35 18L33 18L33 17L32 17L32 16L33 16L33 15L35 15L35 14L34 14L34 12L36 12L36 13L37 13L37 14L38 14L38 13L39 13L39 12L38 12L38 13L37 13L37 12L36 12L36 11L35 11L35 10L34 10L34 12L33 12L33 13L32 13L32 12L31 12L31 13L30 13L30 14L29 14L29 15L30 15L30 16L28 16L28 15L26 15L26 14L25 14L25 13L26 13L26 12L28 12L28 10L27 10L27 9L26 9L26 8L25 8L25 9L24 9L24 8L23 8L23 9L21 9L21 8L20 8L20 9L19 9L19 6L18 6L18 7L17 7L17 6ZM22 6L22 7L23 7L23 6ZM29 6L29 7L30 7L30 6ZM32 6L32 7L33 7L33 6ZM43 6L43 7L44 7L44 6ZM56 6L56 7L57 7L57 6ZM48 8L48 9L49 9L49 8ZM59 8L59 9L60 9L60 8ZM61 8L61 9L62 9L62 8ZM20 9L20 11L19 11L19 12L20 12L20 13L18 13L18 15L19 15L19 17L17 17L17 19L18 19L18 18L19 18L19 17L20 17L20 19L19 19L19 20L22 20L22 21L20 21L20 24L19 24L19 25L20 25L20 27L21 27L21 28L19 28L19 27L18 27L18 28L19 28L19 29L17 29L17 27L16 27L16 29L15 29L15 30L14 30L14 31L15 31L15 32L16 32L16 31L15 31L15 30L16 30L16 29L17 29L17 30L19 30L19 31L20 31L20 30L19 30L19 29L24 29L24 30L22 30L22 31L21 31L21 32L22 32L22 33L23 33L23 34L24 34L24 33L25 33L25 34L26 34L26 33L27 33L27 32L28 32L28 31L27 31L27 30L28 30L28 29L27 29L27 28L26 28L26 27L25 27L25 26L26 26L26 25L25 25L25 24L24 24L24 23L25 23L25 22L24 22L24 23L22 23L22 22L23 22L23 21L26 21L26 22L27 22L27 21L28 21L28 19L27 19L27 18L24 18L24 17L25 17L25 16L24 16L24 15L23 15L23 14L24 14L24 13L23 13L23 11L24 11L24 12L26 12L26 11L27 11L27 10L26 10L26 9L25 9L25 10L21 10L21 9ZM31 9L31 10L32 10L32 9ZM42 9L42 10L43 10L43 9ZM53 10L53 11L54 11L54 13L56 13L56 12L55 12L55 11L56 11L56 10ZM8 11L8 12L9 12L9 11ZM12 11L12 12L13 12L13 13L14 13L14 12L13 12L13 11ZM21 11L21 12L22 12L22 11ZM50 11L50 12L49 12L49 13L50 13L50 14L51 14L51 13L52 13L52 15L53 15L53 16L52 16L52 17L53 17L53 16L54 16L54 15L55 15L55 14L54 14L54 15L53 15L53 12L52 12L52 11ZM58 11L58 12L59 12L59 11ZM60 11L60 12L61 12L61 11ZM62 11L62 12L63 12L63 11ZM6 12L6 13L5 13L5 15L7 15L7 14L8 14L8 13L7 13L7 12ZM50 12L50 13L51 13L51 12ZM6 13L6 14L7 14L7 13ZM21 13L21 16L20 16L20 17L21 17L21 19L22 19L22 17L21 17L21 16L23 16L23 17L24 17L24 16L23 16L23 15L22 15L22 14L23 14L23 13ZM27 13L27 14L28 14L28 13ZM31 13L31 16L32 16L32 15L33 15L33 14L32 14L32 13ZM62 13L62 16L64 16L64 15L63 15L63 13ZM9 14L9 15L10 15L10 14ZM19 14L19 15L20 15L20 14ZM26 16L26 17L27 17L27 16ZM6 17L6 18L4 18L4 20L7 20L7 19L6 19L6 18L7 18L7 17ZM30 17L30 18L32 18L32 19L33 19L33 18L32 18L32 17ZM24 19L24 20L26 20L26 19ZM13 20L13 21L14 21L14 20ZM45 20L45 21L46 21L46 20ZM61 20L61 21L62 21L62 20ZM3 21L3 22L1 22L1 24L2 24L2 23L3 23L3 22L4 22L4 21ZM32 21L32 22L34 22L34 21ZM18 22L18 23L19 23L19 22ZM21 23L21 24L20 24L20 25L21 25L21 27L23 27L23 26L25 26L25 25L21 25L21 24L22 24L22 23ZM28 23L28 24L29 24L29 23ZM36 23L36 24L35 24L35 25L34 25L34 26L35 26L35 27L34 27L34 28L35 28L35 29L33 29L33 30L35 30L35 32L36 32L36 31L38 31L38 30L39 30L39 29L40 29L40 31L41 31L41 30L42 30L42 29L41 29L41 28L39 28L39 27L38 27L38 26L37 26L37 25L36 25L36 24L37 24L37 23ZM42 23L42 24L43 24L43 23ZM14 24L14 27L13 27L13 26L12 26L12 27L13 27L13 28L14 28L14 27L15 27L15 25L16 25L16 24ZM41 26L41 27L42 27L42 26ZM47 26L47 27L46 27L46 28L47 28L47 27L48 27L48 28L50 28L50 30L49 30L49 31L50 31L50 30L51 30L51 29L53 29L53 28L52 28L52 27L51 27L51 28L50 28L50 27L48 27L48 26ZM35 27L35 28L36 28L36 29L35 29L35 30L38 30L38 28L36 28L36 27ZM6 28L6 29L7 29L7 28ZM24 28L24 29L26 29L26 30L27 30L27 29L26 29L26 28ZM5 31L5 34L8 34L8 31ZM23 31L23 32L24 32L24 31ZM26 31L26 32L25 32L25 33L26 33L26 32L27 32L27 31ZM29 31L29 32L30 32L30 31ZM31 31L31 34L34 34L34 31ZM57 31L57 34L60 34L60 31ZM0 32L0 33L1 33L1 32ZM2 32L2 33L3 33L3 32ZM6 32L6 33L7 33L7 32ZM19 32L19 33L20 33L20 34L21 34L21 35L22 35L22 34L21 34L21 33L20 33L20 32ZM32 32L32 33L33 33L33 32ZM58 32L58 33L59 33L59 32ZM28 33L28 34L29 34L29 35L28 35L28 36L30 36L30 34L29 34L29 33ZM43 34L43 36L44 36L44 38L47 38L47 37L46 37L46 35L45 35L45 36L44 36L44 34ZM5 35L5 37L6 37L6 38L7 38L7 37L8 37L8 36L7 36L7 35ZM25 35L25 36L23 36L23 37L22 37L22 36L21 36L21 37L20 37L20 38L19 38L19 39L20 39L20 40L19 40L19 41L18 41L18 42L19 42L19 41L20 41L20 40L21 40L21 39L22 39L22 41L23 41L23 40L24 40L24 41L25 41L25 40L26 40L26 41L27 41L27 42L28 42L28 43L29 43L29 44L30 44L30 43L31 43L31 45L33 45L33 46L34 46L34 47L33 47L33 48L34 48L34 47L36 47L36 46L37 46L37 45L38 45L38 44L37 44L37 43L38 43L38 42L37 42L37 41L36 41L36 40L35 40L35 43L34 43L34 42L33 42L33 41L34 41L34 39L36 39L36 38L33 38L33 37L34 37L34 35L33 35L33 37L32 37L32 35L31 35L31 37L32 37L32 38L33 38L33 41L27 41L27 40L28 40L28 39L27 39L27 40L26 40L26 39L22 39L22 38L23 38L23 37L25 37L25 38L27 38L27 37L25 37L25 36L26 36L26 35ZM0 36L0 38L1 38L1 36ZM6 36L6 37L7 37L7 36ZM21 37L21 38L22 38L22 37ZM28 37L28 38L30 38L30 39L29 39L29 40L31 40L31 38L30 38L30 37ZM48 37L48 38L49 38L49 37ZM41 38L41 39L43 39L43 40L44 40L44 41L45 41L45 42L47 42L47 43L46 43L46 44L44 44L44 45L45 45L45 46L47 46L47 48L46 48L46 47L45 47L45 48L44 48L44 46L42 46L42 47L41 47L41 48L42 48L42 47L43 47L43 48L44 48L44 49L43 49L43 50L42 50L42 51L43 51L43 52L44 52L44 53L45 53L45 54L47 54L47 55L48 55L48 54L47 54L47 53L45 53L45 52L46 52L46 51L45 51L45 50L48 50L48 51L47 51L47 52L49 52L49 49L48 49L48 48L51 48L51 47L52 47L52 46L53 46L53 45L54 45L54 44L52 44L52 46L51 46L51 44L49 44L49 43L48 43L48 42L47 42L47 41L48 41L48 40L47 40L47 39L45 39L45 40L44 40L44 39L43 39L43 38ZM10 39L10 42L9 42L9 44L10 44L10 42L11 42L11 39ZM52 39L52 40L51 40L51 41L52 41L52 40L53 40L53 39ZM6 40L6 41L7 41L7 40ZM46 40L46 41L47 41L47 40ZM58 40L58 41L59 41L59 40ZM29 42L29 43L30 43L30 42ZM31 42L31 43L32 43L32 44L33 44L33 45L35 45L35 44L36 44L36 45L37 45L37 44L36 44L36 43L37 43L37 42L36 42L36 43L35 43L35 44L34 44L34 43L32 43L32 42ZM1 44L1 45L2 45L2 44ZM12 44L12 46L16 46L16 45L15 45L15 44L14 44L14 45L13 45L13 44ZM48 44L48 45L47 45L47 46L48 46L48 47L49 47L49 46L50 46L50 47L51 47L51 46L50 46L50 45L49 45L49 44ZM55 44L55 45L56 45L56 44ZM23 45L23 46L24 46L24 45ZM25 45L25 46L26 46L26 45ZM48 45L48 46L49 46L49 45ZM29 46L29 47L30 47L30 46ZM2 47L2 48L3 48L3 47ZM23 47L23 48L22 48L22 49L25 49L25 48L24 48L24 47ZM26 48L26 49L27 49L27 48ZM45 48L45 49L46 49L46 48ZM52 48L52 49L53 49L53 48ZM3 49L3 50L2 50L2 52L3 52L3 50L5 50L5 51L6 51L6 52L7 52L7 51L6 51L6 50L7 50L7 49L6 49L6 50L5 50L5 49ZM50 49L50 50L51 50L51 51L52 51L52 50L51 50L51 49ZM30 50L30 51L31 51L31 50ZM40 50L40 51L41 51L41 50ZM43 50L43 51L44 51L44 52L45 52L45 51L44 51L44 50ZM14 51L14 52L15 52L15 51ZM34 51L34 52L35 52L35 55L37 55L37 56L38 56L38 57L39 57L39 58L40 58L40 59L39 59L39 60L41 60L41 58L40 58L40 56L41 56L41 55L39 55L39 54L37 54L37 52L35 52L35 51ZM17 52L17 53L18 53L18 52ZM19 52L19 53L20 53L20 52ZM32 52L32 53L30 53L30 54L32 54L32 53L33 53L33 52ZM52 52L52 53L53 53L53 52ZM55 52L55 53L56 53L56 52ZM6 53L6 54L7 54L7 53ZM23 53L23 54L22 54L22 55L23 55L23 54L25 54L25 55L24 55L24 56L26 56L26 53ZM6 56L6 57L7 57L7 56ZM9 57L9 58L10 58L10 57ZM24 57L24 58L27 58L27 57ZM31 57L31 60L34 60L34 57ZM57 57L57 60L60 60L60 57ZM13 58L13 59L14 59L14 58ZM32 58L32 59L33 59L33 58ZM58 58L58 59L59 59L59 58ZM26 59L26 60L27 60L27 61L28 61L28 60L27 60L27 59ZM17 60L17 61L19 61L19 60ZM63 60L63 61L64 61L64 60ZM39 61L39 62L40 62L40 61ZM57 62L57 63L58 63L58 62ZM15 63L15 64L16 64L16 63ZM0 0L0 7L7 7L7 0ZM1 1L1 6L6 6L6 1ZM2 2L2 5L5 5L5 2ZM58 0L58 7L65 7L65 0ZM59 1L59 6L64 6L64 1ZM60 2L60 5L63 5L63 2ZM0 58L0 65L7 65L7 58ZM1 59L1 64L6 64L6 59ZM2 60L2 63L5 63L5 60Z" fill="#000000"/></g></g></svg>
