<?xml version="1.0" encoding="UTF-8"?>
<svg xmlns="http://www.w3.org/2000/svg" version="1.1" width="200" height="200" viewBox="0 0 200 200"><rect x="0" y="0" width="200" height="200" fill="#ffffff"/><g transform="scale(3.279)"><g transform="translate(0,0)"><path fill-rule="evenodd" d="M8 0L8 1L9 1L9 2L8 2L8 5L9 5L9 6L8 6L8 7L9 7L9 8L8 8L8 10L6 10L6 9L7 9L7 8L6 8L6 9L4 9L4 8L0 8L0 9L3 9L3 11L2 11L2 10L1 10L1 11L2 11L2 13L0 13L0 14L2 14L2 13L3 13L3 12L4 12L4 10L6 10L6 11L5 11L5 12L6 12L6 13L8 13L8 14L6 14L6 15L5 15L5 14L4 14L4 16L3 16L3 15L2 15L2 16L0 16L0 18L1 18L1 19L0 19L0 20L1 20L1 21L0 21L0 22L3 22L3 23L2 23L2 25L1 25L1 23L0 23L0 25L1 25L1 26L0 26L0 27L1 27L1 28L0 28L0 29L1 29L1 28L2 28L2 27L1 27L1 26L3 26L3 23L4 23L4 24L5 24L5 23L4 23L4 22L6 22L6 23L7 23L7 24L6 24L6 25L4 25L4 27L3 27L3 28L4 28L4 31L3 31L3 30L2 30L2 31L1 31L1 30L0 30L0 31L1 31L1 32L0 32L0 33L1 33L1 34L2 34L2 33L3 33L3 34L4 34L4 33L5 33L5 35L4 35L4 37L2 37L2 35L1 35L1 36L0 36L0 37L1 37L1 38L4 38L4 40L3 40L3 39L2 39L2 40L3 40L3 41L2 41L2 43L1 43L1 42L0 42L0 43L1 43L1 44L2 44L2 45L0 45L0 46L1 46L1 47L0 47L0 48L1 48L1 47L2 47L2 46L4 46L4 47L3 47L3 48L2 48L2 49L1 49L1 50L2 50L2 51L0 51L0 53L4 53L4 52L5 52L5 51L8 51L8 52L6 52L6 53L8 53L8 54L9 54L9 56L10 56L10 55L11 55L11 53L12 53L12 54L13 54L13 55L14 55L14 56L13 56L13 57L14 57L14 58L13 58L13 60L12 60L12 59L11 59L11 60L9 60L9 59L10 59L10 58L9 58L9 57L8 57L8 61L11 61L11 60L12 60L12 61L14 61L14 60L15 60L15 61L17 61L17 59L18 59L18 61L19 61L19 60L20 60L20 61L21 61L21 60L27 60L27 61L28 61L28 59L27 59L27 58L29 58L29 59L30 59L30 60L29 60L29 61L31 61L31 60L33 60L33 61L37 61L37 60L38 60L38 61L39 61L39 60L38 60L38 59L36 59L36 58L34 58L34 60L33 60L33 59L32 59L32 58L31 58L31 57L34 57L34 56L35 56L35 57L36 57L36 56L37 56L37 58L38 58L38 55L39 55L39 54L38 54L38 51L39 51L39 53L40 53L40 52L41 52L41 54L40 54L40 56L39 56L39 59L42 59L42 58L43 58L43 57L44 57L44 60L43 60L43 61L44 61L44 60L47 60L47 59L48 59L48 61L49 61L49 59L50 59L50 60L53 60L53 61L55 61L55 60L57 60L57 61L61 61L61 60L59 60L59 59L60 59L60 58L61 58L61 57L60 57L60 56L61 56L61 53L60 53L60 50L61 50L61 49L60 49L60 48L61 48L61 47L60 47L60 48L59 48L59 45L57 45L57 43L61 43L61 42L59 42L59 41L60 41L60 40L58 40L58 42L56 42L56 44L55 44L55 40L54 40L54 41L52 41L52 42L50 42L50 41L51 41L51 39L52 39L52 40L53 40L53 37L54 37L54 38L59 38L59 36L60 36L60 35L58 35L58 36L56 36L56 35L54 35L54 36L50 36L50 34L49 34L49 35L48 35L48 34L45 34L45 33L48 33L48 32L51 32L51 31L52 31L52 33L53 33L53 34L56 34L56 33L58 33L58 32L57 32L57 31L61 31L61 29L60 29L60 28L61 28L61 27L60 27L60 26L61 26L61 24L60 24L60 21L61 21L61 17L60 17L60 16L61 16L61 15L60 15L60 14L61 14L61 13L59 13L59 12L61 12L61 11L60 11L60 10L58 10L58 9L59 9L59 8L56 8L56 10L58 10L58 13L57 13L57 14L59 14L59 16L58 16L58 15L55 15L55 14L56 14L56 12L57 12L57 11L56 11L56 12L55 12L55 9L54 9L54 8L53 8L53 9L54 9L54 10L53 10L53 11L52 11L52 12L51 12L51 11L50 11L50 13L49 13L49 10L48 10L48 8L50 8L50 9L51 9L51 10L52 10L52 8L50 8L50 7L51 7L51 5L52 5L52 4L53 4L53 0L51 0L51 2L49 2L49 1L50 1L50 0L49 0L49 1L48 1L48 3L47 3L47 1L46 1L46 3L47 3L47 5L50 5L50 7L49 7L49 6L48 6L48 7L47 7L47 6L46 6L46 4L45 4L45 6L44 6L44 3L45 3L45 0L44 0L44 3L42 3L42 2L43 2L43 0L41 0L41 1L40 1L40 2L39 2L39 3L38 3L38 2L37 2L37 1L38 1L38 0L36 0L36 5L37 5L37 3L38 3L38 8L37 8L37 6L36 6L36 7L35 7L35 6L34 6L34 7L33 7L33 5L34 5L34 4L35 4L35 1L34 1L34 0L29 0L29 1L28 1L28 0L26 0L26 1L25 1L25 0L21 0L21 1L20 1L20 2L18 2L18 1L17 1L17 3L16 3L16 0L15 0L15 1L14 1L14 2L13 2L13 3L14 3L14 2L15 2L15 4L17 4L17 5L19 5L19 6L18 6L18 7L17 7L17 6L16 6L16 8L15 8L15 9L13 9L13 8L14 8L14 7L15 7L15 6L14 6L14 4L12 4L12 5L13 5L13 6L12 6L12 7L13 7L13 8L12 8L12 9L11 9L11 8L10 8L10 7L11 7L11 6L10 6L10 5L11 5L11 2L12 2L12 1L13 1L13 0L12 0L12 1L11 1L11 0ZM22 1L22 2L20 2L20 3L19 3L19 4L20 4L20 3L21 3L21 5L22 5L22 6L21 6L21 7L20 7L20 6L19 6L19 7L20 7L20 8L22 8L22 6L23 6L23 9L24 9L24 8L25 8L25 10L26 10L26 9L27 9L27 8L28 8L28 3L29 3L29 4L34 4L34 1L33 1L33 3L31 3L31 2L32 2L32 1L31 1L31 2L30 2L30 1L29 1L29 2L28 2L28 1L26 1L26 2L25 2L25 1ZM41 1L41 2L40 2L40 3L39 3L39 5L40 5L40 6L39 6L39 9L38 9L38 10L37 10L37 14L36 14L36 13L35 13L35 12L36 12L36 9L37 9L37 8L36 8L36 9L33 9L33 10L35 10L35 11L34 11L34 12L33 12L33 13L31 13L31 12L32 12L32 11L30 11L30 10L29 10L29 9L28 9L28 10L27 10L27 11L26 11L26 12L24 12L24 13L23 13L23 11L24 11L24 10L22 10L22 9L19 9L19 8L18 8L18 9L17 9L17 8L16 8L16 9L15 9L15 10L16 10L16 11L18 11L18 12L17 12L17 13L16 13L16 12L14 12L14 13L12 13L12 12L13 12L13 11L14 11L14 10L13 10L13 9L12 9L12 11L9 11L9 10L8 10L8 12L10 12L10 14L9 14L9 15L11 15L11 16L7 16L7 15L6 15L6 16L4 16L4 17L2 17L2 18L3 18L3 19L2 19L2 20L3 20L3 19L4 19L4 17L5 17L5 18L7 18L7 17L11 17L11 16L12 16L12 18L9 18L9 19L8 19L8 21L6 21L6 22L8 22L8 21L9 21L9 20L10 20L10 23L8 23L8 24L7 24L7 25L6 25L6 26L7 26L7 27L6 27L6 28L9 28L9 31L12 31L12 29L13 29L13 28L9 28L9 27L11 27L11 26L12 26L12 27L13 27L13 26L14 26L14 28L18 28L18 29L17 29L17 30L16 30L16 29L14 29L14 30L13 30L13 31L14 31L14 30L15 30L15 32L12 32L12 33L11 33L11 32L10 32L10 33L9 33L9 35L11 35L11 36L10 36L10 37L9 37L9 40L7 40L7 39L6 39L6 38L8 38L8 37L6 37L6 36L8 36L8 35L5 35L5 37L4 37L4 38L5 38L5 41L6 41L6 42L4 42L4 41L3 41L3 42L4 42L4 43L3 43L3 45L4 45L4 46L5 46L5 48L7 48L7 49L5 49L5 50L7 50L7 49L8 49L8 51L9 51L9 52L8 52L8 53L11 53L11 52L13 52L13 51L14 51L14 50L15 50L15 52L14 52L14 53L13 53L13 54L14 54L14 55L15 55L15 54L14 54L14 53L15 53L15 52L16 52L16 51L17 51L17 50L18 50L18 51L19 51L19 50L20 50L20 52L17 52L17 56L14 56L14 57L15 57L15 58L14 58L14 59L15 59L15 60L16 60L16 58L19 58L19 56L20 56L20 55L21 55L21 56L22 56L22 54L23 54L23 51L24 51L24 52L31 52L31 51L30 51L30 47L31 47L31 49L34 49L34 50L33 50L33 51L32 51L32 52L33 52L33 51L34 51L34 53L35 53L35 56L36 56L36 54L37 54L37 50L38 50L38 49L39 49L39 50L40 50L40 51L41 51L41 52L42 52L42 50L43 50L43 52L44 52L44 51L45 51L45 52L46 52L46 51L47 51L47 52L48 52L48 53L50 53L50 54L47 54L47 55L46 55L46 56L45 56L45 55L44 55L44 57L45 57L45 59L46 59L46 58L47 58L47 57L46 57L46 56L47 56L47 55L49 55L49 56L48 56L48 59L49 59L49 56L50 56L50 54L51 54L51 56L52 56L52 52L51 52L51 51L49 51L49 49L48 49L48 50L47 50L47 49L46 49L46 46L47 46L47 47L48 47L48 45L49 45L49 44L47 44L47 45L46 45L46 44L45 44L45 43L46 43L46 42L45 42L45 43L44 43L44 42L43 42L43 41L44 41L44 39L45 39L45 38L44 38L44 39L42 39L42 38L43 38L43 36L42 36L42 35L40 35L40 34L41 34L41 33L37 33L37 32L38 32L38 30L40 30L40 31L39 31L39 32L40 32L40 31L43 31L43 32L42 32L42 33L43 33L43 35L44 35L44 33L45 33L45 30L44 30L44 29L43 29L43 28L44 28L44 27L45 27L45 29L47 29L47 31L48 31L48 29L49 29L49 31L50 31L50 30L51 30L51 29L49 29L49 27L47 27L47 24L48 24L48 21L49 21L49 23L50 23L50 24L49 24L49 25L48 25L48 26L50 26L50 24L51 24L51 26L53 26L53 27L50 27L50 28L54 28L54 27L55 27L55 28L56 28L56 27L58 27L58 28L57 28L57 30L58 30L58 28L60 28L60 27L58 27L58 26L60 26L60 24L59 24L59 25L57 25L57 24L56 24L56 23L53 23L53 21L54 21L54 20L55 20L55 21L56 21L56 22L57 22L57 23L58 23L58 22L59 22L59 20L60 20L60 19L58 19L58 22L57 22L57 18L56 18L56 17L54 17L54 18L53 18L53 19L50 19L50 18L51 18L51 17L53 17L53 16L54 16L54 14L55 14L55 13L52 13L52 14L51 14L51 15L50 15L50 14L49 14L49 13L48 13L48 15L47 15L47 12L48 12L48 10L47 10L47 7L46 7L46 6L45 6L45 7L44 7L44 6L43 6L43 7L42 7L42 5L43 5L43 4L42 4L42 5L40 5L40 4L41 4L41 2L42 2L42 1ZM9 2L9 3L10 3L10 2ZM22 2L22 3L23 3L23 2ZM29 2L29 3L30 3L30 2ZM25 3L25 4L26 4L26 3ZM49 3L49 4L50 4L50 3ZM51 3L51 4L52 4L52 3ZM22 4L22 5L23 5L23 6L24 6L24 7L25 7L25 8L27 8L27 6L26 6L26 5L25 5L25 6L24 6L24 4ZM29 5L29 8L32 8L32 5ZM9 6L9 7L10 7L10 6ZM13 6L13 7L14 7L14 6ZM25 6L25 7L26 7L26 6ZM30 6L30 7L31 7L31 6ZM40 6L40 9L39 9L39 10L38 10L38 11L39 11L39 10L40 10L40 11L41 11L41 10L42 10L42 11L43 11L43 14L42 14L42 15L39 15L39 13L40 13L40 14L41 14L41 13L42 13L42 12L41 12L41 13L40 13L40 12L39 12L39 13L38 13L38 14L37 14L37 16L39 16L39 18L38 18L38 17L36 17L36 16L34 16L34 14L33 14L33 16L32 16L32 15L31 15L31 13L30 13L30 16L29 16L29 17L28 17L28 16L27 16L27 15L26 15L26 13L25 13L25 14L24 14L24 16L23 16L23 19L24 19L24 21L23 21L23 20L22 20L22 19L21 19L21 18L20 18L20 15L19 15L19 14L21 14L21 17L22 17L22 14L23 14L23 13L22 13L22 12L21 12L21 11L19 11L19 12L18 12L18 14L16 14L16 15L15 15L15 13L14 13L14 16L13 16L13 18L12 18L12 20L13 20L13 21L15 21L15 22L16 22L16 24L15 24L15 23L14 23L14 24L13 24L13 22L12 22L12 21L11 21L11 25L12 25L12 26L13 26L13 25L14 25L14 26L16 26L16 25L17 25L17 26L19 26L19 27L21 27L21 28L22 28L22 26L23 26L23 29L25 29L25 28L24 28L24 26L23 26L23 25L22 25L22 26L21 26L21 23L22 23L22 24L24 24L24 23L25 23L25 26L26 26L26 24L27 24L27 23L28 23L28 24L30 24L30 23L29 23L29 22L31 22L31 21L32 21L32 23L33 23L33 21L35 21L35 17L36 17L36 20L37 20L37 18L38 18L38 20L39 20L39 21L41 21L41 20L42 20L42 23L43 23L43 25L44 25L44 23L43 23L43 22L44 22L44 21L43 21L43 20L44 20L44 19L45 19L45 20L46 20L46 21L47 21L47 20L49 20L49 21L51 21L51 24L52 24L52 25L53 25L53 23L52 23L52 21L51 21L51 20L49 20L49 18L48 18L48 17L47 17L47 15L46 15L46 16L45 16L45 14L46 14L46 13L44 13L44 12L45 12L45 11L44 11L44 10L45 10L45 9L46 9L46 7L45 7L45 9L42 9L42 8L41 8L41 6ZM52 6L52 7L53 7L53 6ZM34 7L34 8L35 8L35 7ZM43 7L43 8L44 8L44 7ZM9 8L9 9L10 9L10 10L11 10L11 9L10 9L10 8ZM60 8L60 9L61 9L61 8ZM18 9L18 10L19 10L19 9ZM31 9L31 10L32 10L32 9ZM28 10L28 11L27 11L27 12L30 12L30 11L29 11L29 10ZM46 10L46 12L47 12L47 10ZM6 11L6 12L7 12L7 11ZM19 12L19 13L20 13L20 12ZM21 13L21 14L22 14L22 13ZM27 13L27 14L28 14L28 13ZM12 14L12 15L13 15L13 14ZM17 15L17 16L18 16L18 17L17 17L17 18L18 18L18 17L19 17L19 16L18 16L18 15ZM25 15L25 16L26 16L26 15ZM43 15L43 17L42 17L42 18L41 18L41 19L42 19L42 20L43 20L43 17L44 17L44 18L45 18L45 17L44 17L44 15ZM51 15L51 16L50 16L50 17L51 17L51 16L53 16L53 15ZM6 16L6 17L7 17L7 16ZM14 16L14 18L15 18L15 16ZM31 16L31 17L32 17L32 16ZM33 16L33 17L34 17L34 16ZM40 16L40 17L41 17L41 16ZM57 16L57 17L58 17L58 18L60 18L60 17L58 17L58 16ZM24 17L24 18L25 18L25 17ZM26 17L26 18L27 18L27 19L26 19L26 20L25 20L25 21L28 21L28 22L29 22L29 21L30 21L30 20L32 20L32 21L33 21L33 20L34 20L34 18L32 18L32 19L31 19L31 18L30 18L30 17L29 17L29 19L28 19L28 17ZM19 18L19 19L13 19L13 20L16 20L16 22L17 22L17 24L18 24L18 22L19 22L19 20L21 20L21 19L20 19L20 18ZM39 18L39 20L40 20L40 18ZM55 18L55 19L56 19L56 18ZM6 19L6 20L7 20L7 19ZM10 19L10 20L11 20L11 19ZM29 19L29 20L30 20L30 19ZM46 19L46 20L47 20L47 19ZM53 19L53 20L54 20L54 19ZM17 20L17 21L18 21L18 20ZM20 21L20 23L19 23L19 24L20 24L20 23L21 23L21 21ZM36 21L36 22L34 22L34 24L33 24L33 26L34 26L34 24L35 24L35 25L37 25L37 27L39 27L39 25L40 25L40 28L41 28L41 25L40 25L40 23L39 23L39 24L37 24L37 23L38 23L38 22L37 22L37 21ZM22 22L22 23L23 23L23 22ZM26 22L26 23L27 23L27 22ZM36 22L36 23L35 23L35 24L36 24L36 23L37 23L37 22ZM46 22L46 23L47 23L47 22ZM8 24L8 25L9 25L9 26L10 26L10 25L9 25L9 24ZM12 24L12 25L13 25L13 24ZM14 24L14 25L15 25L15 24ZM31 24L31 25L32 25L32 24ZM19 25L19 26L20 26L20 25ZM28 25L28 26L29 26L29 27L30 27L30 28L28 28L28 29L27 29L27 27L26 27L26 30L24 30L24 33L23 33L23 32L22 32L22 30L21 30L21 31L19 31L19 29L18 29L18 31L16 31L16 32L17 32L17 34L18 34L18 32L20 32L20 33L21 33L21 35L22 35L22 36L23 36L23 37L22 37L22 39L23 39L23 42L24 42L24 41L25 41L25 43L26 43L26 42L27 42L27 43L29 43L29 44L28 44L28 45L26 45L26 44L24 44L24 43L22 43L22 42L21 42L21 43L20 43L20 41L18 41L18 43L17 43L17 40L19 40L19 39L20 39L20 40L21 40L21 41L22 41L22 40L21 40L21 39L20 39L20 38L21 38L21 36L20 36L20 35L19 35L19 36L17 36L17 35L15 35L15 34L16 34L16 33L15 33L15 34L14 34L14 33L12 33L12 35L13 35L13 38L10 38L10 39L11 39L11 40L9 40L9 41L7 41L7 40L6 40L6 41L7 41L7 42L6 42L6 43L5 43L5 44L6 44L6 45L5 45L5 46L6 46L6 47L7 47L7 46L6 46L6 45L8 45L8 43L7 43L7 42L9 42L9 43L10 43L10 42L9 42L9 41L14 41L14 43L12 43L12 42L11 42L11 43L12 43L12 46L11 46L11 48L10 48L10 46L8 46L8 49L10 49L10 50L9 50L9 51L13 51L13 50L11 50L11 48L12 48L12 49L13 49L13 47L12 47L12 46L13 46L13 45L14 45L14 47L15 47L15 46L16 46L16 49L15 49L15 48L14 48L14 49L15 49L15 50L16 50L16 49L18 49L18 50L19 50L19 48L17 48L17 47L18 47L18 45L17 45L17 46L16 46L16 44L20 44L20 45L19 45L19 46L20 46L20 45L21 45L21 47L20 47L20 50L21 50L21 51L23 51L23 50L24 50L24 49L22 49L22 50L21 50L21 47L22 47L22 48L23 48L23 47L25 47L25 48L27 48L27 50L28 50L28 51L29 51L29 50L28 50L28 48L29 48L29 47L30 47L30 44L31 44L31 46L34 46L34 47L35 47L35 46L34 46L34 45L36 45L36 44L37 44L37 45L38 45L38 43L39 43L39 42L41 42L41 41L39 41L39 42L38 42L38 43L37 43L37 42L35 42L35 41L33 41L33 40L35 40L35 39L37 39L37 41L38 41L38 40L42 40L42 41L43 41L43 40L42 40L42 39L41 39L41 38L42 38L42 37L41 37L41 38L40 38L40 37L38 37L38 36L39 36L39 35L35 35L35 34L37 34L37 33L35 33L35 34L34 34L34 35L33 35L33 38L32 38L32 37L31 37L31 35L30 35L30 34L29 34L29 33L32 33L32 34L33 34L33 32L34 32L34 31L35 31L35 32L37 32L37 30L38 30L38 29L37 29L37 30L36 30L36 29L34 29L34 27L33 27L33 28L32 28L32 27L30 27L30 26L29 26L29 25ZM45 25L45 27L46 27L46 28L47 28L47 27L46 27L46 25ZM35 26L35 27L36 27L36 26ZM42 26L42 28L43 28L43 27L44 27L44 26ZM55 26L55 27L56 27L56 26ZM4 27L4 28L5 28L5 27ZM5 29L5 32L8 32L8 29ZM10 29L10 30L11 30L11 29ZM29 29L29 32L32 32L32 29ZM33 29L33 31L34 31L34 29ZM41 29L41 30L42 30L42 29ZM53 29L53 32L56 32L56 29ZM59 29L59 30L60 30L60 29ZM6 30L6 31L7 31L7 30ZM27 30L27 31L28 31L28 30ZM30 30L30 31L31 31L31 30ZM35 30L35 31L36 31L36 30ZM43 30L43 31L44 31L44 30ZM54 30L54 31L55 31L55 30ZM3 32L3 33L4 33L4 32ZM26 32L26 33L25 33L25 34L26 34L26 33L28 33L28 32ZM43 32L43 33L44 33L44 32ZM59 32L59 33L60 33L60 32ZM6 33L6 34L7 34L7 33ZM10 33L10 34L11 34L11 33ZM13 34L13 35L14 35L14 34ZM27 34L27 35L23 35L23 36L24 36L24 37L23 37L23 38L24 38L24 39L25 39L25 41L26 41L26 40L27 40L27 41L28 41L28 40L27 40L27 39L29 39L29 40L30 40L30 41L31 41L31 42L30 42L30 43L32 43L32 40L33 40L33 39L35 39L35 38L37 38L37 39L38 39L38 37L36 37L36 36L35 36L35 35L34 35L34 36L35 36L35 37L34 37L34 38L33 38L33 39L31 39L31 38L30 38L30 35L29 35L29 34ZM27 35L27 38L28 38L28 36L29 36L29 35ZM47 35L47 36L44 36L44 37L46 37L46 38L47 38L47 39L46 39L46 40L47 40L47 41L50 41L50 40L49 40L49 39L50 39L50 36L49 36L49 38L47 38L47 37L48 37L48 35ZM11 36L11 37L12 37L12 36ZM19 36L19 37L20 37L20 36ZM25 36L25 38L26 38L26 36ZM54 36L54 37L56 37L56 36ZM5 37L5 38L6 38L6 37ZM14 37L14 38L13 38L13 39L12 39L12 40L15 40L15 41L16 41L16 40L17 40L17 39L16 39L16 38L17 38L17 37ZM60 37L60 38L61 38L61 37ZM14 38L14 39L15 39L15 38ZM18 38L18 39L19 39L19 38ZM0 39L0 41L1 41L1 39ZM15 42L15 43L16 43L16 42ZM48 42L48 43L50 43L50 46L49 46L49 47L51 47L51 45L52 45L52 44L51 44L51 43L50 43L50 42ZM6 43L6 44L7 44L7 43ZM21 43L21 44L22 44L22 43ZM33 43L33 44L35 44L35 43ZM40 43L40 45L41 45L41 48L42 48L42 49L43 49L43 50L45 50L45 49L43 49L43 48L45 48L45 45L44 45L44 47L43 47L43 43L42 43L42 45L41 45L41 43ZM53 43L53 44L54 44L54 45L53 45L53 46L52 46L52 47L53 47L53 48L52 48L52 49L51 49L51 48L50 48L50 49L51 49L51 50L52 50L52 49L53 49L53 50L54 50L54 51L53 51L53 52L55 52L55 50L56 50L56 51L58 51L58 52L57 52L57 53L58 53L58 54L57 54L57 55L58 55L58 56L57 56L57 57L54 57L54 58L52 58L52 57L50 57L50 59L51 59L51 58L52 58L52 59L54 59L54 60L55 60L55 58L57 58L57 60L58 60L58 59L59 59L59 58L60 58L60 57L59 57L59 56L60 56L60 54L59 54L59 53L58 53L58 52L59 52L59 49L57 49L57 50L56 50L56 47L55 47L55 46L57 46L57 48L58 48L58 46L57 46L57 45L55 45L55 44L54 44L54 43ZM9 44L9 45L10 45L10 44ZM14 44L14 45L15 45L15 44ZM23 44L23 46L22 46L22 47L23 47L23 46L24 46L24 44ZM54 45L54 46L55 46L55 45ZM25 46L25 47L26 47L26 46ZM27 46L27 47L29 47L29 46ZM39 46L39 47L38 47L38 48L39 48L39 47L40 47L40 46ZM36 47L36 48L35 48L35 51L36 51L36 50L37 50L37 47ZM3 49L3 50L4 50L4 49ZM40 49L40 50L41 50L41 49ZM3 51L3 52L4 52L4 51ZM21 52L21 54L22 54L22 52ZM35 52L35 53L36 53L36 52ZM50 52L50 53L51 53L51 52ZM18 53L18 55L19 55L19 53ZM24 53L24 54L25 54L25 56L26 56L26 57L25 57L25 58L24 58L24 56L23 56L23 58L22 58L22 57L20 57L20 58L21 58L21 59L23 59L23 58L24 58L24 59L26 59L26 57L28 57L28 56L27 56L27 55L28 55L28 53L27 53L27 54L25 54L25 53ZM29 53L29 56L32 56L32 53ZM42 53L42 54L41 54L41 56L42 56L42 57L43 57L43 56L42 56L42 54L43 54L43 53ZM53 53L53 56L56 56L56 53ZM30 54L30 55L31 55L31 54ZM33 54L33 55L34 55L34 54ZM54 54L54 55L55 55L55 54ZM58 54L58 55L59 55L59 54ZM11 56L11 58L12 58L12 56ZM17 56L17 57L18 57L18 56ZM29 57L29 58L30 58L30 57ZM40 57L40 58L41 58L41 57ZM58 57L58 58L59 58L59 57ZM41 60L41 61L42 61L42 60ZM0 0L0 7L7 7L7 0ZM1 1L1 6L6 6L6 1ZM2 2L2 5L5 5L5 2ZM54 0L54 7L61 7L61 0ZM55 1L55 6L60 6L60 1ZM56 2L56 5L59 5L59 2ZM0 54L0 61L7 61L7 54ZM1 55L1 60L6 60L6 55ZM2 56L2 59L5 59L5 56Z" fill="#000000"/></g></g></svg>
