<?xml version="1.0" encoding="UTF-8"?>
<svg xmlns="http://www.w3.org/2000/svg" version="1.1" width="200" height="200" viewBox="0 0 200 200"><rect x="0" y="0" width="200" height="200" fill="#ffffff"/><g transform="scale(3.279)"><g transform="translate(0,0)"><path fill-rule="evenodd" d="M8 0L8 1L9 1L9 2L8 2L8 5L9 5L9 6L8 6L8 7L9 7L9 8L8 8L8 9L7 9L7 8L6 8L6 9L5 9L5 12L4 12L4 13L5 13L5 15L3 15L3 14L2 14L2 13L3 13L3 10L4 10L4 8L0 8L0 9L1 9L1 11L2 11L2 13L1 13L1 12L0 12L0 14L2 14L2 15L3 15L3 16L5 16L5 17L4 17L4 18L3 18L3 17L1 17L1 15L0 15L0 18L2 18L2 19L1 19L1 20L2 20L2 21L1 21L1 22L0 22L0 24L1 24L1 25L0 25L0 26L1 26L1 27L0 27L0 29L1 29L1 27L2 27L2 29L3 29L3 30L4 30L4 33L3 33L3 34L5 34L5 35L7 35L7 36L6 36L6 37L8 37L8 36L9 36L9 35L8 35L8 33L9 33L9 34L10 34L10 35L11 35L11 34L12 34L12 35L13 35L13 36L11 36L11 37L10 37L10 38L8 38L8 39L10 39L10 40L9 40L9 41L10 41L10 40L13 40L13 41L12 41L12 42L11 42L11 43L10 43L10 42L9 42L9 43L8 43L8 42L5 42L5 43L4 43L4 40L5 40L5 41L8 41L8 40L6 40L6 39L7 39L7 38L6 38L6 39L5 39L5 38L4 38L4 35L3 35L3 36L2 36L2 32L1 32L1 31L0 31L0 32L1 32L1 33L0 33L0 34L1 34L1 35L0 35L0 38L1 38L1 39L2 39L2 37L3 37L3 39L4 39L4 40L3 40L3 41L2 41L2 40L0 40L0 41L1 41L1 42L0 42L0 45L1 45L1 46L0 46L0 48L1 48L1 49L2 49L2 51L0 51L0 53L4 53L4 52L5 52L5 51L7 51L7 52L6 52L6 53L7 53L7 52L9 52L9 53L8 53L8 54L9 54L9 57L8 57L8 61L10 61L10 59L9 59L9 57L10 57L10 58L11 58L11 59L12 59L12 60L11 60L11 61L12 61L12 60L13 60L13 61L14 61L14 60L16 60L16 61L19 61L19 59L20 59L20 60L21 60L21 58L20 58L20 56L19 56L19 57L17 57L17 58L15 58L15 57L14 57L14 58L13 58L13 56L15 56L15 55L17 55L17 53L18 53L18 55L19 55L19 53L18 53L18 52L19 52L19 51L21 51L21 53L22 53L22 51L23 51L23 50L22 50L22 51L21 51L21 48L22 48L22 47L21 47L21 46L23 46L23 48L24 48L24 49L26 49L26 48L25 48L25 47L24 47L24 46L25 46L25 45L26 45L26 47L27 47L27 45L26 45L26 43L25 43L25 42L27 42L27 44L28 44L28 48L27 48L27 50L28 50L28 51L26 51L26 50L25 50L25 51L24 51L24 52L23 52L23 55L25 55L25 54L27 54L27 53L28 53L28 57L27 57L27 58L26 58L26 57L25 57L25 56L21 56L21 57L22 57L22 58L23 58L23 60L27 60L27 61L28 61L28 59L31 59L31 60L30 60L30 61L31 61L31 60L36 60L36 61L37 61L37 60L38 60L38 61L40 61L40 59L39 59L39 58L38 58L38 57L41 57L41 61L42 61L42 58L43 58L43 57L44 57L44 58L46 58L46 59L43 59L43 60L45 60L45 61L51 61L51 59L52 59L52 61L53 61L53 60L54 60L54 57L56 57L56 59L55 59L55 60L57 60L57 58L58 58L58 61L61 61L61 60L59 60L59 59L60 59L60 58L61 58L61 57L60 57L60 58L58 58L58 57L57 57L57 56L58 56L58 55L59 55L59 56L61 56L61 53L60 53L60 52L61 52L61 51L60 51L60 49L61 49L61 48L60 48L60 49L59 49L59 45L58 45L58 48L57 48L57 46L55 46L55 47L56 47L56 52L53 52L53 50L54 50L54 48L53 48L53 47L52 47L52 46L54 46L54 44L55 44L55 45L57 45L57 44L55 44L55 42L54 42L54 40L53 40L53 39L54 39L54 38L53 38L53 37L52 37L52 36L51 36L51 34L50 34L50 33L51 33L51 30L52 30L52 33L54 33L54 34L55 34L55 33L57 33L57 34L58 34L58 35L57 35L57 36L56 36L56 35L54 35L54 36L56 36L56 38L55 38L55 40L57 40L57 39L56 39L56 38L59 38L59 40L58 40L58 41L57 41L57 42L56 42L56 43L58 43L58 41L59 41L59 42L60 42L60 43L61 43L61 41L59 41L59 40L61 40L61 39L60 39L60 38L61 38L61 36L60 36L60 35L59 35L59 34L61 34L61 33L60 33L60 32L58 32L58 31L57 31L57 27L60 27L60 28L58 28L58 30L59 30L59 29L60 29L60 31L61 31L61 27L60 27L60 26L61 26L61 25L60 25L60 23L59 23L59 22L58 22L58 21L56 21L56 22L55 22L55 20L56 20L56 19L55 19L55 20L54 20L54 19L53 19L53 18L54 18L54 17L55 17L55 18L57 18L57 19L61 19L61 18L60 18L60 16L59 16L59 18L57 18L57 15L58 15L58 14L57 14L57 13L59 13L59 12L61 12L61 11L60 11L60 10L59 10L59 11L58 11L58 9L59 9L59 8L56 8L56 10L57 10L57 11L55 11L55 9L54 9L54 8L53 8L53 9L54 9L54 10L52 10L52 8L51 8L51 5L52 5L52 4L53 4L53 0L51 0L51 2L49 2L49 1L50 1L50 0L49 0L49 1L48 1L48 0L47 0L47 1L46 1L46 4L45 4L45 5L42 5L42 7L43 7L43 6L44 6L44 8L45 8L45 9L44 9L44 12L43 12L43 13L44 13L44 12L47 12L47 13L49 13L49 14L48 14L48 15L49 15L49 14L50 14L50 16L51 16L51 14L52 14L52 15L53 15L53 16L52 16L52 19L51 19L51 18L50 18L50 17L48 17L48 18L47 18L47 17L46 17L46 16L47 16L47 14L46 14L46 13L45 13L45 14L46 14L46 16L45 16L45 15L44 15L44 14L42 14L42 13L41 13L41 14L40 14L40 11L37 11L37 12L36 12L36 11L35 11L35 10L37 10L37 9L39 9L39 10L41 10L41 11L42 11L42 10L43 10L43 9L41 9L41 5L39 5L39 3L38 3L38 2L37 2L37 0L35 0L35 2L33 2L33 0L32 0L32 2L31 2L31 0L30 0L30 1L27 1L27 0L26 0L26 1L25 1L25 0L23 0L23 1L25 1L25 5L24 5L24 8L22 8L22 9L21 9L21 10L19 10L19 9L20 9L20 8L21 8L21 6L20 6L20 7L19 7L19 5L18 5L18 4L20 4L20 5L21 5L21 3L23 3L23 4L22 4L22 7L23 7L23 4L24 4L24 2L22 2L22 0L21 0L21 1L20 1L20 0L19 0L19 2L21 2L21 3L18 3L18 2L16 2L16 0L15 0L15 2L16 2L16 4L15 4L15 6L14 6L14 5L13 5L13 6L12 6L12 4L13 4L13 3L14 3L14 0L12 0L12 1L9 1L9 0ZM17 0L17 1L18 1L18 0ZM41 0L41 1L39 1L39 2L41 2L41 3L42 3L42 2L43 2L43 3L45 3L45 0L44 0L44 1L43 1L43 0ZM26 1L26 2L27 2L27 1ZM47 1L47 2L48 2L48 3L49 3L49 2L48 2L48 1ZM10 2L10 3L12 3L12 2ZM28 2L28 3L26 3L26 5L25 5L25 7L26 7L26 6L27 6L27 7L28 7L28 3L29 3L29 4L30 4L30 3L31 3L31 4L32 4L32 3L31 3L31 2L30 2L30 3L29 3L29 2ZM35 2L35 3L33 3L33 4L34 4L34 5L33 5L33 11L34 11L34 10L35 10L35 9L34 9L34 8L36 8L36 9L37 9L37 8L39 8L39 9L40 9L40 8L39 8L39 7L40 7L40 6L39 6L39 7L38 7L38 6L37 6L37 5L38 5L38 3L37 3L37 5L36 5L36 4L35 4L35 3L36 3L36 2ZM51 3L51 4L52 4L52 3ZM16 4L16 6L15 6L15 7L14 7L14 6L13 6L13 7L12 7L12 6L11 6L11 5L10 5L10 6L9 6L9 7L10 7L10 8L11 8L11 7L12 7L12 8L13 8L13 9L12 9L12 10L11 10L11 9L8 9L8 10L7 10L7 9L6 9L6 10L7 10L7 11L6 11L6 12L5 12L5 13L6 13L6 14L7 14L7 13L8 13L8 11L9 11L9 13L10 13L10 12L11 12L11 11L12 11L12 10L13 10L13 9L14 9L14 10L15 10L15 11L13 11L13 12L12 12L12 13L11 13L11 14L13 14L13 16L14 16L14 22L15 22L15 24L13 24L13 23L12 23L12 22L13 22L13 21L12 21L12 19L11 19L11 18L13 18L13 17L12 17L12 16L11 16L11 17L10 17L10 16L9 16L9 17L6 17L6 18L5 18L5 19L6 19L6 20L4 20L4 22L5 22L5 24L3 24L3 21L2 21L2 27L3 27L3 29L4 29L4 27L5 27L5 28L7 28L7 27L6 27L6 26L9 26L9 29L10 29L10 30L9 30L9 31L10 31L10 32L9 32L9 33L12 33L12 34L13 34L13 35L14 35L14 34L13 34L13 33L15 33L15 32L14 32L14 30L15 30L15 29L16 29L16 28L18 28L18 29L19 29L19 30L20 30L20 31L21 31L21 29L22 29L22 30L23 30L23 31L22 31L22 32L23 32L23 33L20 33L20 35L19 35L19 32L18 32L18 30L16 30L16 31L17 31L17 32L18 32L18 33L16 33L16 35L15 35L15 36L14 36L14 37L13 37L13 38L14 38L14 37L16 37L16 39L13 39L13 40L14 40L14 41L13 41L13 42L12 42L12 44L10 44L10 43L9 43L9 45L8 45L8 43L6 43L6 44L7 44L7 45L6 45L6 46L9 46L9 45L10 45L10 46L11 46L11 47L12 47L12 49L11 49L11 48L9 48L9 47L5 47L5 45L4 45L4 43L2 43L2 44L1 44L1 45L3 45L3 46L1 46L1 48L2 48L2 49L3 49L3 50L4 50L4 49L5 49L5 48L9 48L9 49L11 49L11 52L10 52L10 53L9 53L9 54L10 54L10 53L12 53L12 54L14 54L14 52L15 52L15 53L16 53L16 51L17 51L17 52L18 52L18 51L17 51L17 50L15 50L15 51L14 51L14 52L13 52L13 50L12 50L12 49L15 49L15 47L14 47L14 48L13 48L13 46L14 46L14 45L15 45L15 46L16 46L16 47L17 47L17 46L19 46L19 45L20 45L20 46L21 46L21 45L22 45L22 43L21 43L21 40L19 40L19 39L20 39L20 38L19 38L19 39L17 39L17 37L18 37L18 35L19 35L19 37L20 37L20 35L21 35L21 34L22 34L22 35L23 35L23 36L21 36L21 37L23 37L23 39L25 39L25 41L23 41L23 40L22 40L22 42L23 42L23 46L24 46L24 44L25 44L25 43L24 43L24 42L25 42L25 41L26 41L26 39L25 39L25 38L27 38L27 41L28 41L28 40L29 40L29 39L30 39L30 38L29 38L29 39L28 39L28 38L27 38L27 35L29 35L29 34L30 34L30 36L32 36L32 37L34 37L34 38L33 38L33 39L32 39L32 38L31 38L31 40L30 40L30 41L32 41L32 42L31 42L31 44L29 44L29 43L30 43L30 42L29 42L29 43L28 43L28 44L29 44L29 46L30 46L30 47L29 47L29 48L28 48L28 50L29 50L29 49L30 49L30 47L32 47L32 48L31 48L31 50L32 50L32 52L33 52L33 54L34 54L34 51L33 51L33 50L32 50L32 48L34 48L34 50L36 50L36 51L35 51L35 52L36 52L36 53L35 53L35 55L36 55L36 53L37 53L37 52L39 52L39 51L40 51L40 50L41 50L41 52L40 52L40 53L42 53L42 54L41 54L41 55L42 55L42 56L41 56L41 57L42 57L42 56L44 56L44 57L45 57L45 54L44 54L44 53L42 53L42 50L44 50L44 51L43 51L43 52L44 52L44 51L45 51L45 53L46 53L46 51L48 51L48 53L47 53L47 55L48 55L48 59L46 59L46 60L48 60L48 59L49 59L49 60L50 60L50 59L51 59L51 57L52 57L52 55L51 55L51 56L50 56L50 54L51 54L51 53L52 53L52 52L51 52L51 50L52 50L52 49L53 49L53 48L52 48L52 49L51 49L51 47L49 47L49 49L51 49L51 50L50 50L50 52L51 52L51 53L50 53L50 54L49 54L49 55L48 55L48 53L49 53L49 50L47 50L47 49L45 49L45 48L46 48L46 47L47 47L47 48L48 48L48 46L49 46L49 45L50 45L50 46L51 46L51 45L52 45L52 44L48 44L48 45L45 45L45 42L43 42L43 40L45 40L45 41L46 41L46 40L45 40L45 39L47 39L47 42L46 42L46 44L47 44L47 43L49 43L49 42L51 42L51 43L53 43L53 40L52 40L52 37L51 37L51 36L50 36L50 37L51 37L51 39L49 39L49 40L48 40L48 38L47 38L47 37L48 37L48 35L49 35L49 34L47 34L47 31L48 31L48 30L49 30L49 32L48 32L48 33L49 33L49 32L50 32L50 30L51 30L51 29L52 29L52 28L53 28L53 27L54 27L54 28L56 28L56 27L57 27L57 26L58 26L58 25L57 25L57 24L56 24L56 23L58 23L58 22L56 22L56 23L53 23L53 21L54 21L54 20L52 20L52 21L50 21L50 20L49 20L49 19L50 19L50 18L48 18L48 21L47 21L47 19L46 19L46 18L43 18L43 15L40 15L40 14L39 14L39 15L37 15L37 13L35 13L35 12L31 12L31 10L32 10L32 9L30 9L30 12L24 12L24 11L23 11L23 10L24 10L24 9L23 9L23 10L22 10L22 11L21 11L21 12L20 12L20 11L19 11L19 10L18 10L18 9L17 9L17 8L15 8L15 7L16 7L16 6L17 6L17 7L18 7L18 6L17 6L17 4ZM46 4L46 6L45 6L45 7L46 7L46 8L48 8L48 10L47 10L47 9L45 9L45 11L48 11L48 10L49 10L49 11L50 11L50 13L51 13L51 12L52 12L52 10L51 10L51 9L49 9L49 8L50 8L50 6L49 6L49 4ZM29 5L29 8L32 8L32 5ZM34 5L34 7L35 7L35 6L36 6L36 8L37 8L37 6L36 6L36 5ZM10 6L10 7L11 7L11 6ZM30 6L30 7L31 7L31 6ZM46 6L46 7L47 7L47 6ZM48 6L48 7L49 7L49 6ZM52 6L52 7L53 7L53 6ZM26 8L26 9L25 9L25 10L26 10L26 9L27 9L27 8ZM60 8L60 9L61 9L61 8ZM15 9L15 10L16 10L16 11L18 11L18 13L17 13L17 12L15 12L15 13L17 13L17 14L16 14L16 16L18 16L18 15L17 15L17 14L20 14L20 15L21 15L21 17L22 17L22 19L23 19L23 18L24 18L24 21L23 21L23 20L21 20L21 18L20 18L20 19L18 19L18 18L19 18L19 17L17 17L17 18L16 18L16 17L15 17L15 20L19 20L19 22L20 22L20 21L21 21L21 23L20 23L20 24L18 24L18 22L16 22L16 25L17 25L17 24L18 24L18 25L19 25L19 27L21 27L21 28L20 28L20 29L21 29L21 28L23 28L23 26L24 26L24 29L23 29L23 30L24 30L24 29L25 29L25 27L26 27L26 25L25 25L25 26L24 26L24 23L23 23L23 22L25 22L25 19L26 19L26 20L27 20L27 21L26 21L26 23L25 23L25 24L27 24L27 26L28 26L28 24L29 24L29 22L30 22L30 21L31 21L31 22L32 22L32 23L31 23L31 24L33 24L33 26L34 26L34 24L33 24L33 23L34 23L34 22L33 22L33 21L34 21L34 20L30 20L30 19L29 19L29 17L31 17L31 18L33 18L33 19L34 19L34 18L36 18L36 19L35 19L35 21L36 21L36 20L38 20L38 19L39 19L39 21L41 21L41 25L42 25L42 24L43 24L43 27L42 27L42 26L40 26L40 24L38 24L38 22L37 22L37 23L36 23L36 22L35 22L35 23L36 23L36 24L35 24L35 27L34 27L34 29L33 29L33 28L31 28L31 27L32 27L32 26L31 26L31 25L29 25L29 26L31 26L31 27L30 27L30 28L28 28L28 34L29 34L29 33L31 33L31 35L33 35L33 36L35 36L35 35L36 35L36 37L35 37L35 38L34 38L34 40L33 40L33 42L32 42L32 44L33 44L33 43L35 43L35 44L37 44L37 45L39 45L39 46L40 46L40 48L42 48L42 49L43 49L43 48L45 48L45 45L44 45L44 44L43 44L43 42L42 42L42 41L41 41L41 43L40 43L40 45L39 45L39 44L38 44L38 43L37 43L37 42L36 42L36 41L35 41L35 39L37 39L37 40L38 40L38 41L39 41L39 42L40 42L40 40L43 40L43 38L46 38L46 37L43 37L43 38L42 38L42 39L40 39L40 38L41 38L41 37L42 37L42 36L41 36L41 37L40 37L40 38L39 38L39 36L38 36L38 35L36 35L36 32L35 32L35 27L36 27L36 28L37 28L37 29L36 29L36 31L37 31L37 33L38 33L38 31L39 31L39 30L40 30L40 31L42 31L42 32L43 32L43 33L41 33L41 32L39 32L39 34L40 34L40 35L43 35L43 36L45 36L45 35L44 35L44 34L43 34L43 33L44 33L44 32L43 32L43 31L45 31L45 30L48 30L48 29L47 29L47 28L46 28L46 27L47 27L47 26L46 26L46 24L47 24L47 25L49 25L49 24L47 24L47 23L48 23L48 22L46 22L46 23L45 23L45 21L46 21L46 20L45 20L45 21L44 21L44 19L43 19L43 21L42 21L42 19L41 19L41 18L42 18L42 17L40 17L40 15L39 15L39 18L38 18L38 17L33 17L33 16L32 16L32 15L30 15L30 14L31 14L31 12L30 12L30 14L29 14L29 13L28 13L28 14L29 14L29 17L28 17L28 16L27 16L27 14L26 14L26 13L25 13L25 14L26 14L26 16L25 16L25 15L23 15L23 13L22 13L22 12L23 12L23 11L22 11L22 12L21 12L21 13L20 13L20 12L19 12L19 11L18 11L18 10L16 10L16 9ZM28 9L28 10L27 10L27 11L28 11L28 10L29 10L29 9ZM54 11L54 12L55 12L55 13L52 13L52 14L53 14L53 15L54 15L54 14L55 14L55 15L56 15L56 13L57 13L57 12L55 12L55 11ZM6 12L6 13L7 13L7 12ZM13 12L13 14L14 14L14 16L15 16L15 14L14 14L14 12ZM38 12L38 13L39 13L39 12ZM21 13L21 14L22 14L22 13ZM32 13L32 14L34 14L34 13ZM60 13L60 14L61 14L61 13ZM8 14L8 15L6 15L6 16L8 16L8 15L10 15L10 14ZM22 15L22 17L24 17L24 18L26 18L26 19L27 19L27 18L28 18L28 17L27 17L27 18L26 18L26 17L25 17L25 16L23 16L23 15ZM36 15L36 16L37 16L37 15ZM6 18L6 19L7 19L7 20L6 20L6 21L5 21L5 22L6 22L6 23L7 23L7 24L6 24L6 25L3 25L3 26L6 26L6 25L7 25L7 24L9 24L9 22L10 22L10 24L11 24L11 25L13 25L13 24L12 24L12 23L11 23L11 22L10 22L10 21L11 21L11 20L10 20L10 21L9 21L9 20L8 20L8 19L9 19L9 18L8 18L8 19L7 19L7 18ZM37 18L37 19L38 19L38 18ZM28 19L28 20L29 20L29 19ZM60 20L60 21L61 21L61 20ZM6 21L6 22L7 22L7 21ZM27 21L27 22L28 22L28 21ZM43 21L43 23L44 23L44 25L45 25L45 23L44 23L44 21ZM49 21L49 22L50 22L50 21ZM51 22L51 23L50 23L50 24L51 24L51 25L50 25L50 26L49 26L49 28L50 28L50 29L51 29L51 28L50 28L50 27L53 27L53 26L51 26L51 25L53 25L53 23L52 23L52 22ZM21 23L21 24L22 24L22 25L21 25L21 27L22 27L22 25L23 25L23 24L22 24L22 23ZM27 23L27 24L28 24L28 23ZM37 24L37 25L36 25L36 26L37 26L37 25L38 25L38 24ZM9 25L9 26L10 26L10 27L11 27L11 26L10 26L10 25ZM14 25L14 26L13 26L13 30L14 30L14 27L15 27L15 28L16 28L16 27L15 27L15 25ZM59 25L59 26L60 26L60 25ZM38 26L38 27L39 27L39 28L38 28L38 29L37 29L37 31L38 31L38 30L39 30L39 29L41 29L41 30L42 30L42 31L43 31L43 29L44 29L44 30L45 30L45 29L44 29L44 27L46 27L46 26L44 26L44 27L43 27L43 28L42 28L42 27L41 27L41 28L40 28L40 27L39 27L39 26ZM55 26L55 27L56 27L56 26ZM11 28L11 29L12 29L12 28ZM26 28L26 30L25 30L25 31L26 31L26 32L27 32L27 31L26 31L26 30L27 30L27 28ZM5 29L5 32L8 32L8 29ZM29 29L29 32L32 32L32 29ZM53 29L53 32L56 32L56 29ZM6 30L6 31L7 31L7 30ZM10 30L10 31L12 31L12 30ZM30 30L30 31L31 31L31 30ZM33 30L33 32L34 32L34 30ZM54 30L54 31L55 31L55 30ZM23 31L23 32L24 32L24 31ZM12 32L12 33L13 33L13 32ZM45 32L45 34L46 34L46 36L47 36L47 34L46 34L46 32ZM57 32L57 33L58 33L58 34L59 34L59 33L58 33L58 32ZM5 33L5 34L7 34L7 33ZM23 33L23 34L25 34L25 35L27 35L27 33L26 33L26 34L25 34L25 33ZM34 33L34 34L33 34L33 35L34 35L34 34L35 34L35 33ZM40 33L40 34L41 34L41 33ZM17 34L17 35L16 35L16 37L17 37L17 35L18 35L18 34ZM25 36L25 37L26 37L26 36ZM28 36L28 37L29 37L29 36ZM58 36L58 37L60 37L60 36ZM11 37L11 39L12 39L12 37ZM36 37L36 38L37 38L37 39L38 39L38 40L39 40L39 39L38 39L38 37ZM21 38L21 39L22 39L22 38ZM16 40L16 42L15 42L15 41L14 41L14 42L13 42L13 43L15 43L15 44L17 44L17 45L18 45L18 44L21 44L21 43L20 43L20 41L19 41L19 40L18 40L18 41L19 41L19 43L17 43L17 40ZM13 44L13 45L14 45L14 44ZM42 44L42 45L40 45L40 46L41 46L41 47L42 47L42 45L43 45L43 47L44 47L44 45L43 45L43 44ZM31 45L31 46L32 46L32 45ZM3 46L3 47L2 47L2 48L3 48L3 49L4 49L4 48L5 48L5 47L4 47L4 46ZM34 46L34 48L35 48L35 49L37 49L37 50L38 50L38 51L39 51L39 50L40 50L40 49L39 49L39 48L38 48L38 47L37 47L37 46ZM18 47L18 48L19 48L19 49L20 49L20 48L21 48L21 47L20 47L20 48L19 48L19 47ZM36 47L36 48L37 48L37 49L38 49L38 48L37 48L37 47ZM16 48L16 49L17 49L17 48ZM6 49L6 50L8 50L8 51L10 51L10 50L8 50L8 49ZM57 49L57 51L58 51L58 52L57 52L57 53L58 53L58 54L57 54L57 55L58 55L58 54L60 54L60 53L58 53L58 52L60 52L60 51L59 51L59 49ZM45 50L45 51L46 51L46 50ZM3 51L3 52L4 52L4 51ZM29 51L29 52L30 52L30 51ZM24 53L24 54L25 54L25 53ZM29 53L29 56L32 56L32 53ZM38 53L38 54L37 54L37 55L38 55L38 56L36 56L36 57L35 57L35 56L33 56L33 57L31 57L31 59L32 59L32 58L33 58L33 59L34 59L34 58L35 58L35 59L37 59L37 58L36 58L36 57L38 57L38 56L40 56L40 55L38 55L38 54L39 54L39 53ZM53 53L53 56L56 56L56 53ZM21 54L21 55L22 55L22 54ZM30 54L30 55L31 55L31 54ZM54 54L54 55L55 55L55 54ZM10 55L10 57L11 57L11 58L12 58L12 59L13 59L13 58L12 58L12 57L11 57L11 55ZM12 55L12 56L13 56L13 55ZM46 56L46 58L47 58L47 56ZM49 56L49 59L50 59L50 56ZM28 57L28 58L29 58L29 57ZM14 58L14 59L15 59L15 58ZM17 58L17 59L16 59L16 60L18 60L18 58ZM25 58L25 59L26 59L26 58ZM52 58L52 59L53 59L53 58ZM38 59L38 60L39 60L39 59ZM0 0L0 7L7 7L7 0ZM1 1L1 6L6 6L6 1ZM2 2L2 5L5 5L5 2ZM54 0L54 7L61 7L61 0ZM55 1L55 6L60 6L60 1ZM56 2L56 5L59 5L59 2ZM0 54L0 61L7 61L7 54ZM1 55L1 60L6 60L6 55ZM2 56L2 59L5 59L5 56Z" fill="#000000"/></g></g></svg>
