<?xml version="1.0" encoding="UTF-8"?>
<svg xmlns="http://www.w3.org/2000/svg" version="1.1" width="200" height="200" viewBox="0 0 200 200"><rect x="0" y="0" width="200" height="200" fill="#ffffff"/><g transform="scale(3.279)"><g transform="translate(0,0)"><path fill-rule="evenodd" d="M9 0L9 1L8 1L8 2L10 2L10 4L9 4L9 3L8 3L8 4L9 4L9 5L8 5L8 7L9 7L9 8L6 8L6 9L5 9L5 8L0 8L0 11L1 11L1 14L0 14L0 15L1 15L1 16L0 16L0 19L1 19L1 16L2 16L2 17L3 17L3 18L4 18L4 19L3 19L3 20L1 20L1 21L3 21L3 22L2 22L2 23L0 23L0 26L1 26L1 24L2 24L2 23L3 23L3 24L4 24L4 23L3 23L3 22L6 22L6 23L7 23L7 24L5 24L5 25L4 25L4 26L3 26L3 25L2 25L2 26L3 26L3 27L2 27L2 28L1 28L1 29L0 29L0 31L3 31L3 30L4 30L4 34L2 34L2 32L0 32L0 33L1 33L1 35L4 35L4 36L2 36L2 37L1 37L1 36L0 36L0 38L1 38L1 39L0 39L0 40L2 40L2 39L3 39L3 40L6 40L6 41L7 41L7 42L6 42L6 43L7 43L7 44L6 44L6 45L7 45L7 44L8 44L8 42L9 42L9 45L8 45L8 46L10 46L10 48L9 48L9 47L7 47L7 46L5 46L5 44L4 44L4 46L3 46L3 43L5 43L5 41L4 41L4 42L3 42L3 43L2 43L2 42L1 42L1 43L2 43L2 45L1 45L1 44L0 44L0 47L1 47L1 48L2 48L2 49L0 49L0 50L2 50L2 51L0 51L0 53L4 53L4 52L5 52L5 51L7 51L7 52L6 52L6 53L7 53L7 52L8 52L8 55L11 55L11 57L10 57L10 56L8 56L8 61L9 61L9 57L10 57L10 59L11 59L11 58L12 58L12 56L13 56L13 58L14 58L14 59L13 59L13 60L10 60L10 61L13 61L13 60L14 60L14 61L15 61L15 60L14 60L14 59L15 59L15 58L14 58L14 57L17 57L17 58L16 58L16 61L21 61L21 60L17 60L17 59L18 59L18 58L20 58L20 59L22 59L22 58L28 58L28 60L27 60L27 59L26 59L26 60L27 60L27 61L28 61L28 60L29 60L29 58L32 58L32 57L36 57L36 58L33 58L33 59L32 59L32 60L33 60L33 59L37 59L37 60L35 60L35 61L40 61L40 60L41 60L41 61L42 61L42 60L43 60L43 61L44 61L44 60L46 60L46 61L52 61L52 60L53 60L53 59L51 59L51 58L53 58L53 57L54 57L54 58L55 58L55 59L54 59L54 60L56 60L56 58L57 58L57 60L58 60L58 61L61 61L61 56L60 56L60 60L58 60L58 59L59 59L59 58L58 58L58 57L59 57L59 56L57 56L57 53L58 53L58 55L61 55L61 54L59 54L59 52L60 52L60 53L61 53L61 52L60 52L60 51L61 51L61 50L60 50L60 49L61 49L61 46L60 46L60 47L59 47L59 46L57 46L57 47L56 47L56 46L55 46L55 45L52 45L52 44L51 44L51 46L53 46L53 47L54 47L54 48L53 48L53 49L52 49L52 48L51 48L51 47L50 47L50 41L51 41L51 43L52 43L52 41L54 41L54 43L55 43L55 42L56 42L56 45L59 45L59 44L60 44L60 45L61 45L61 42L60 42L60 41L61 41L61 38L59 38L59 37L61 37L61 34L59 34L59 36L58 36L58 38L57 38L57 39L59 39L59 40L56 40L56 39L55 39L55 38L56 38L56 37L57 37L57 36L56 36L56 33L57 33L57 34L58 34L58 33L59 33L59 32L58 32L58 33L57 33L57 30L60 30L60 31L61 31L61 30L60 30L60 29L61 29L61 28L57 28L57 27L56 27L56 28L54 28L54 27L55 27L55 25L53 25L53 23L52 23L52 22L50 22L50 19L51 19L51 21L53 21L53 19L54 19L54 20L55 20L55 21L54 21L54 22L55 22L55 23L54 23L54 24L57 24L57 25L56 25L56 26L59 26L59 27L61 27L61 26L60 26L60 24L61 24L61 22L58 22L58 20L57 20L57 19L60 19L60 20L59 20L59 21L60 21L60 20L61 20L61 18L60 18L60 17L59 17L59 16L57 16L57 15L58 15L58 14L57 14L57 13L59 13L59 12L60 12L60 11L61 11L61 10L60 10L60 11L59 11L59 12L57 12L57 10L58 10L58 8L57 8L57 9L56 9L56 8L55 8L55 9L54 9L54 8L53 8L53 6L52 6L52 8L49 8L49 6L48 6L48 7L47 7L47 5L46 5L46 7L47 7L47 9L49 9L49 10L48 10L48 11L47 11L47 10L45 10L45 9L46 9L46 8L45 8L45 4L44 4L44 7L43 7L43 6L42 6L42 7L43 7L43 8L45 8L45 9L44 9L44 10L45 10L45 11L44 11L44 12L45 12L45 13L44 13L44 14L45 14L45 15L44 15L44 16L43 16L43 17L42 17L42 14L43 14L43 13L42 13L42 14L41 14L41 15L40 15L40 14L38 14L38 12L36 12L36 13L37 13L37 15L36 15L36 16L35 16L35 17L37 17L37 15L40 15L40 16L41 16L41 17L40 17L40 19L39 19L39 18L38 18L38 19L37 19L37 18L36 18L36 19L37 19L37 20L35 20L35 21L38 21L38 20L41 20L41 17L42 17L42 18L43 18L43 19L42 19L42 20L46 20L46 21L47 21L47 20L48 20L48 21L49 21L49 22L48 22L48 23L52 23L52 25L53 25L53 26L51 26L51 29L52 29L52 31L51 31L51 30L50 30L50 29L49 29L49 28L50 28L50 27L49 27L49 28L47 28L47 30L46 30L46 31L47 31L47 30L48 30L48 31L49 31L49 32L48 32L48 34L45 34L45 35L44 35L44 32L45 32L45 29L44 29L44 30L43 30L43 26L45 26L45 27L44 27L44 28L46 28L46 27L47 27L47 26L45 26L45 25L41 25L41 26L38 26L38 24L35 24L35 22L34 22L34 23L32 23L32 24L33 24L33 25L32 25L32 26L33 26L33 27L32 27L32 28L31 28L31 27L30 27L30 28L27 28L27 29L24 29L24 28L26 28L26 26L27 26L27 27L29 27L29 26L28 26L28 25L29 25L29 24L28 24L28 23L30 23L30 24L31 24L31 22L33 22L33 20L34 20L34 19L35 19L35 18L33 18L33 17L34 17L34 15L35 15L35 14L33 14L33 13L32 13L32 14L30 14L30 13L29 13L29 14L28 14L28 13L22 13L22 12L23 12L23 11L22 11L22 10L23 10L23 9L24 9L24 10L25 10L25 9L26 9L26 10L27 10L27 11L26 11L26 12L27 12L27 11L30 11L30 12L31 12L31 11L30 11L30 9L32 9L32 10L33 10L33 11L32 11L32 12L33 12L33 11L37 11L37 10L38 10L38 11L39 11L39 10L40 10L40 12L39 12L39 13L40 13L40 12L41 12L41 10L40 10L40 9L39 9L39 10L38 10L38 9L37 9L37 8L41 8L41 4L39 4L39 3L42 3L42 5L43 5L43 3L42 3L42 2L39 2L39 1L38 1L38 2L39 2L39 3L38 3L38 4L39 4L39 5L38 5L38 7L37 7L37 5L36 5L36 4L37 4L37 3L34 3L34 2L35 2L35 1L36 1L36 0L35 0L35 1L34 1L34 2L32 2L32 4L31 4L31 2L29 2L29 1L28 1L28 4L26 4L26 3L25 3L25 2L26 2L26 1L27 1L27 0L26 0L26 1L25 1L25 0L21 0L21 1L23 1L23 3L25 3L25 4L24 4L24 7L23 7L23 6L22 6L22 5L23 5L23 4L21 4L21 3L20 3L20 0L19 0L19 3L18 3L18 4L21 4L21 6L20 6L20 5L19 5L19 6L18 6L18 5L17 5L17 6L16 6L16 7L17 7L17 6L18 6L18 7L19 7L19 9L18 9L18 8L15 8L15 6L14 6L14 8L12 8L12 7L13 7L13 6L12 6L12 5L11 5L11 3L12 3L12 4L13 4L13 2L15 2L15 3L16 3L16 4L17 4L17 3L16 3L16 2L15 2L15 1L16 1L16 0L15 0L15 1L14 1L14 0L11 0L11 2L10 2L10 0ZM17 0L17 2L18 2L18 0ZM30 0L30 1L31 1L31 0ZM32 0L32 1L33 1L33 0ZM41 0L41 1L43 1L43 0ZM44 0L44 3L46 3L46 4L47 4L47 3L46 3L46 2L47 2L47 1L46 1L46 2L45 2L45 0ZM48 0L48 2L49 2L49 0ZM51 0L51 2L50 2L50 3L48 3L48 4L49 4L49 5L50 5L50 7L51 7L51 5L52 5L52 4L53 4L53 0ZM29 3L29 4L30 4L30 3ZM51 3L51 4L52 4L52 3ZM14 4L14 5L15 5L15 4ZM25 4L25 5L26 5L26 6L25 6L25 8L24 8L24 9L25 9L25 8L26 8L26 9L27 9L27 8L28 8L28 6L27 6L27 5L26 5L26 4ZM33 4L33 5L34 5L34 6L33 6L33 7L34 7L34 9L33 9L33 10L35 10L35 7L36 7L36 8L37 8L37 7L36 7L36 6L35 6L35 4ZM29 5L29 8L32 8L32 5ZM39 5L39 7L40 7L40 5ZM9 6L9 7L10 7L10 8L11 8L11 7L12 7L12 6L11 6L11 7L10 7L10 6ZM19 6L19 7L20 7L20 9L19 9L19 10L20 10L20 11L18 11L18 9L16 9L16 10L17 10L17 13L16 13L16 15L15 15L15 16L16 16L16 17L12 17L12 16L14 16L14 15L12 15L12 14L14 14L14 13L15 13L15 8L14 8L14 9L13 9L13 11L12 11L12 10L11 10L11 11L9 11L9 10L10 10L10 9L9 9L9 10L8 10L8 9L6 9L6 10L5 10L5 12L4 12L4 15L3 15L3 14L1 14L1 15L2 15L2 16L4 16L4 15L5 15L5 17L4 17L4 18L8 18L8 17L6 17L6 16L9 16L9 15L10 15L10 16L11 16L11 17L9 17L9 18L10 18L10 19L11 19L11 20L10 20L10 21L11 21L11 20L13 20L13 23L15 23L15 25L13 25L13 27L14 27L14 29L12 29L12 30L9 30L9 31L11 31L11 32L9 32L9 33L8 33L8 34L7 34L7 33L5 33L5 34L4 34L4 35L5 35L5 34L7 34L7 35L6 35L6 36L5 36L5 38L4 38L4 37L2 37L2 38L3 38L3 39L5 39L5 38L7 38L7 39L6 39L6 40L7 40L7 41L8 41L8 40L9 40L9 41L10 41L10 40L9 40L9 39L11 39L11 38L12 38L12 39L14 39L14 38L18 38L18 39L16 39L16 40L18 40L18 41L16 41L16 42L17 42L17 44L19 44L19 45L15 45L15 44L16 44L16 43L14 43L14 42L15 42L15 40L13 40L13 41L12 41L12 40L11 40L11 42L10 42L10 43L11 43L11 42L13 42L13 43L14 43L14 46L15 46L15 47L12 47L12 49L11 49L11 50L10 50L10 49L9 49L9 50L10 50L10 53L9 53L9 54L11 54L11 55L13 55L13 54L14 54L14 55L15 55L15 56L17 56L17 57L18 57L18 56L17 56L17 55L18 55L18 54L19 54L19 56L20 56L20 55L21 55L21 53L25 53L25 56L24 56L24 57L27 57L27 56L26 56L26 55L28 55L28 54L26 54L26 53L27 53L27 52L29 52L29 50L30 50L30 51L31 51L31 49L30 49L30 47L32 47L32 50L35 50L35 51L34 51L34 52L33 52L33 51L32 51L32 52L33 52L33 56L34 56L34 54L35 54L35 56L37 56L37 55L38 55L38 57L37 57L37 59L38 59L38 58L39 58L39 57L41 57L41 56L42 56L42 55L43 55L43 56L44 56L44 57L45 57L45 58L47 58L47 57L48 57L48 56L49 56L49 55L50 55L50 57L49 57L49 59L46 59L46 60L49 60L49 59L50 59L50 58L51 58L51 56L52 56L52 55L50 55L50 54L51 54L51 53L50 53L50 54L47 54L47 53L45 53L45 52L46 52L46 51L45 51L45 52L44 52L44 51L43 51L43 50L42 50L42 48L43 48L43 46L42 46L42 45L41 45L41 44L44 44L44 47L45 47L45 48L44 48L44 49L45 49L45 50L47 50L47 52L49 52L49 51L50 51L50 52L51 52L51 51L52 51L52 50L51 50L51 48L49 48L49 45L47 45L47 44L49 44L49 43L48 43L48 42L49 42L49 41L48 41L48 40L49 40L49 39L50 39L50 38L52 38L52 39L51 39L51 40L52 40L52 39L53 39L53 40L54 40L54 41L56 41L56 42L58 42L58 44L59 44L59 43L60 43L60 42L58 42L58 41L56 41L56 40L55 40L55 39L54 39L54 38L55 38L55 37L56 37L56 36L55 36L55 35L53 35L53 34L54 34L54 33L51 33L51 32L49 32L49 33L50 33L50 34L48 34L48 35L46 35L46 36L44 36L44 35L43 35L43 34L42 34L42 33L43 33L43 32L44 32L44 31L43 31L43 30L42 30L42 29L41 29L41 28L42 28L42 27L41 27L41 28L40 28L40 27L38 27L38 26L36 26L36 25L35 25L35 24L34 24L34 25L33 25L33 26L36 26L36 28L35 28L35 29L33 29L33 31L34 31L34 32L33 32L33 35L32 35L32 34L31 34L31 33L29 33L29 35L28 35L28 37L27 37L27 36L26 36L26 37L25 37L25 36L24 36L24 35L27 35L27 34L28 34L28 33L27 33L27 32L28 32L28 30L26 30L26 31L25 31L25 30L21 30L21 29L20 29L20 30L21 30L21 31L18 31L18 30L19 30L19 29L18 29L18 28L19 28L19 27L20 27L20 26L19 26L19 27L18 27L18 26L17 26L17 25L18 25L18 24L17 24L17 25L16 25L16 22L17 22L17 23L18 23L18 22L19 22L19 23L20 23L20 22L21 22L21 23L22 23L22 25L23 25L23 28L22 28L22 29L23 29L23 28L24 28L24 27L25 27L25 26L26 26L26 25L28 25L28 24L27 24L27 23L28 23L28 21L29 21L29 20L30 20L30 22L31 22L31 21L32 21L32 19L33 19L33 18L32 18L32 17L33 17L33 14L32 14L32 16L30 16L30 14L29 14L29 15L28 15L28 14L27 14L27 16L26 16L26 15L25 15L25 16L24 16L24 17L25 17L25 16L26 16L26 17L27 17L27 18L26 18L26 21L25 21L25 20L24 20L24 19L22 19L22 17L23 17L23 16L22 16L22 15L24 15L24 14L22 14L22 13L20 13L20 12L21 12L21 7L22 7L22 9L23 9L23 7L22 7L22 6L21 6L21 7L20 7L20 6ZM26 6L26 7L27 7L27 6ZM30 6L30 7L31 7L31 6ZM34 6L34 7L35 7L35 6ZM59 8L59 9L60 9L60 8ZM1 9L1 11L2 11L2 13L3 13L3 9ZM28 9L28 10L29 10L29 9ZM42 9L42 10L43 10L43 9ZM50 9L50 11L48 11L48 12L50 12L50 14L52 14L52 15L51 15L51 16L50 16L50 15L49 15L49 14L47 14L47 13L45 13L45 14L46 14L46 16L47 16L47 15L48 15L48 16L50 16L50 18L49 18L49 17L45 17L45 16L44 16L44 17L43 17L43 18L44 18L44 19L45 19L45 18L47 18L47 19L46 19L46 20L47 20L47 19L48 19L48 20L49 20L49 19L50 19L50 18L51 18L51 19L53 19L53 15L55 15L55 14L56 14L56 13L57 13L57 12L56 12L56 9L55 9L55 10L54 10L54 9ZM6 10L6 11L7 11L7 12L6 12L6 13L5 13L5 14L6 14L6 15L9 15L9 14L8 14L8 13L10 13L10 12L9 12L9 11L8 11L8 10ZM51 10L51 11L53 11L53 12L51 12L51 13L53 13L53 14L55 14L55 11L53 11L53 10ZM42 11L42 12L43 12L43 11ZM46 11L46 12L47 12L47 11ZM13 12L13 13L14 13L14 12ZM18 12L18 13L19 13L19 14L18 14L18 15L16 15L16 16L17 16L17 17L16 17L16 18L15 18L15 19L16 19L16 21L17 21L17 18L18 18L18 19L19 19L19 20L18 20L18 21L19 21L19 22L20 22L20 21L21 21L21 22L22 22L22 23L23 23L23 25L24 25L24 26L25 26L25 25L26 25L26 23L27 23L27 21L26 21L26 23L25 23L25 25L24 25L24 23L23 23L23 22L25 22L25 21L24 21L24 20L23 20L23 21L21 21L21 20L22 20L22 19L21 19L21 18L20 18L20 17L21 17L21 16L20 16L20 13L19 13L19 12ZM6 13L6 14L7 14L7 13ZM11 13L11 14L10 14L10 15L11 15L11 16L12 16L12 15L11 15L11 14L12 14L12 13ZM21 14L21 15L22 15L22 14ZM60 14L60 15L61 15L61 14ZM18 15L18 16L19 16L19 17L18 17L18 18L19 18L19 19L20 19L20 20L19 20L19 21L20 21L20 20L21 20L21 19L20 19L20 18L19 18L19 17L20 17L20 16L19 16L19 15ZM27 16L27 17L28 17L28 18L27 18L27 19L29 19L29 16ZM38 16L38 17L39 17L39 16ZM56 16L56 19L57 19L57 16ZM11 17L11 18L12 18L12 17ZM30 17L30 18L31 18L31 17ZM58 17L58 18L59 18L59 17ZM48 18L48 19L49 19L49 18ZM54 18L54 19L55 19L55 18ZM6 19L6 20L7 20L7 21L6 21L6 22L7 22L7 23L11 23L11 24L7 24L7 25L6 25L6 26L5 26L5 27L3 27L3 29L4 29L4 28L9 28L9 27L10 27L10 26L11 26L11 27L12 27L12 22L9 22L9 21L8 21L8 20L7 20L7 19ZM13 19L13 20L14 20L14 19ZM30 19L30 20L31 20L31 19ZM4 20L4 21L5 21L5 20ZM56 20L56 21L55 21L55 22L56 22L56 21L57 21L57 20ZM7 21L7 22L8 22L8 21ZM14 21L14 22L15 22L15 21ZM41 21L41 22L36 22L36 23L39 23L39 24L41 24L41 23L42 23L42 24L43 24L43 23L42 23L42 22L43 22L43 21ZM44 21L44 22L45 22L45 23L44 23L44 24L46 24L46 25L47 25L47 24L46 24L46 23L47 23L47 22L45 22L45 21ZM57 23L57 24L59 24L59 23ZM19 24L19 25L21 25L21 24ZM48 24L48 25L49 25L49 26L50 26L50 25L51 25L51 24ZM8 25L8 26L6 26L6 27L9 27L9 26L10 26L10 25ZM15 25L15 29L17 29L17 30L18 30L18 29L17 29L17 28L16 28L16 27L17 27L17 26L16 26L16 25ZM30 25L30 26L31 26L31 25ZM53 26L53 27L52 27L52 28L53 28L53 27L54 27L54 26ZM33 27L33 28L34 28L34 27ZM37 27L37 28L36 28L36 29L37 29L37 30L36 30L36 31L37 31L37 32L36 32L36 33L37 33L37 32L41 32L41 31L42 31L42 32L43 32L43 31L42 31L42 30L40 30L40 31L39 31L39 30L38 30L38 29L37 29L37 28L38 28L38 27ZM39 28L39 29L40 29L40 28ZM1 29L1 30L2 30L2 29ZM5 29L5 32L8 32L8 29ZM29 29L29 32L32 32L32 29ZM53 29L53 32L56 32L56 29ZM6 30L6 31L7 31L7 30ZM13 30L13 31L14 31L14 30ZM15 30L15 31L16 31L16 32L17 32L17 33L19 33L19 35L18 35L18 34L17 34L17 35L18 35L18 37L19 37L19 40L26 40L26 38L27 38L27 39L28 39L28 38L29 38L29 37L31 37L31 39L29 39L29 40L27 40L27 41L26 41L26 42L27 42L27 43L26 43L26 44L27 44L27 45L26 45L26 46L27 46L27 49L26 49L26 47L25 47L25 45L24 45L24 47L23 47L23 46L22 46L22 45L21 45L21 44L25 44L25 41L24 41L24 43L22 43L22 42L23 42L23 41L22 41L22 42L21 42L21 43L20 43L20 42L19 42L19 41L18 41L18 42L19 42L19 44L20 44L20 45L19 45L19 47L17 47L17 49L16 49L16 48L15 48L15 49L14 49L14 48L13 48L13 49L12 49L12 50L13 50L13 51L12 51L12 54L13 54L13 51L14 51L14 50L15 50L15 51L16 51L16 53L19 53L19 54L20 54L20 53L21 53L21 52L22 52L22 50L23 50L23 49L22 49L22 48L24 48L24 47L25 47L25 49L24 49L24 50L25 50L25 53L26 53L26 50L27 50L27 51L28 51L28 50L29 50L29 49L28 49L28 47L30 47L30 46L29 46L29 45L28 45L28 44L29 44L29 42L30 42L30 43L31 43L31 42L30 42L30 41L31 41L31 39L34 39L34 41L35 41L35 42L32 42L32 43L33 43L33 45L35 45L35 44L34 44L34 43L37 43L37 42L38 42L38 44L36 44L36 45L37 45L37 46L38 46L38 47L39 47L39 48L38 48L38 49L37 49L37 48L36 48L36 46L32 46L32 44L30 44L30 45L31 45L31 46L32 46L32 47L33 47L33 49L35 49L35 48L36 48L36 49L37 49L37 50L36 50L36 51L39 51L39 52L41 52L41 53L40 53L40 54L38 54L38 55L40 55L40 56L41 56L41 55L40 55L40 54L45 54L45 55L44 55L44 56L46 56L46 55L47 55L47 54L45 54L45 53L44 53L44 52L43 52L43 51L42 51L42 52L41 52L41 51L40 51L40 50L41 50L41 49L39 49L39 48L42 48L42 46L38 46L38 44L39 44L39 45L40 45L40 44L41 44L41 43L39 43L39 42L43 42L43 43L44 43L44 44L45 44L45 43L47 43L47 42L44 42L44 40L45 40L45 41L46 41L46 40L48 40L48 39L49 39L49 38L50 38L50 37L52 37L52 36L53 36L53 35L52 35L52 34L50 34L50 35L51 35L51 36L50 36L50 37L49 37L49 36L48 36L48 37L47 37L47 38L45 38L45 39L44 39L44 37L40 37L40 38L37 38L37 37L39 37L39 36L43 36L43 35L41 35L41 34L38 34L38 35L39 35L39 36L36 36L36 38L32 38L32 37L31 37L31 36L32 36L32 35L31 35L31 34L30 34L30 35L31 35L31 36L29 36L29 37L28 37L28 38L27 38L27 37L26 37L26 38L25 38L25 37L22 37L22 38L20 38L20 37L21 37L21 34L25 34L25 33L26 33L26 34L27 34L27 33L26 33L26 32L25 32L25 31L24 31L24 33L21 33L21 32L20 32L20 33L19 33L19 32L18 32L18 31L16 31L16 30ZM30 30L30 31L31 31L31 30ZM34 30L34 31L35 31L35 30ZM37 30L37 31L38 31L38 30ZM49 30L49 31L50 31L50 30ZM54 30L54 31L55 31L55 30ZM11 32L11 33L12 33L12 34L10 34L10 36L9 36L9 37L8 37L8 39L7 39L7 40L8 40L8 39L9 39L9 37L10 37L10 38L11 38L11 37L12 37L12 36L11 36L11 35L12 35L12 34L13 34L13 35L14 35L14 36L15 36L15 37L17 37L17 36L16 36L16 35L14 35L14 34L13 34L13 32ZM14 32L14 33L15 33L15 34L16 34L16 33L15 33L15 32ZM60 32L60 33L61 33L61 32ZM20 33L20 34L21 34L21 33ZM8 34L8 35L7 35L7 36L6 36L6 37L7 37L7 36L8 36L8 35L9 35L9 34ZM34 34L34 35L35 35L35 34ZM10 36L10 37L11 37L11 36ZM19 36L19 37L20 37L20 36ZM54 36L54 37L55 37L55 36ZM13 37L13 38L14 38L14 37ZM22 38L22 39L23 39L23 38ZM36 38L36 39L35 39L35 40L37 40L37 38ZM40 38L40 39L41 39L41 40L39 40L39 39L38 39L38 40L39 40L39 41L38 41L38 42L39 42L39 41L43 41L43 40L42 40L42 39L43 39L43 38ZM29 40L29 41L27 41L27 42L29 42L29 41L30 41L30 40ZM32 40L32 41L33 41L33 40ZM27 43L27 44L28 44L28 43ZM10 44L10 45L11 45L11 44ZM12 44L12 46L13 46L13 44ZM20 45L20 48L19 48L19 49L17 49L17 52L19 52L19 53L20 53L20 52L21 52L21 51L20 51L20 50L21 50L21 49L20 49L20 48L21 48L21 47L22 47L22 46L21 46L21 45ZM27 45L27 46L28 46L28 45ZM1 46L1 47L2 47L2 48L3 48L3 46ZM4 46L4 47L5 47L5 49L6 49L6 50L8 50L8 48L7 48L7 47L5 47L5 46ZM45 46L45 47L46 47L46 48L45 48L45 49L47 49L47 47L48 47L48 46ZM34 47L34 48L35 48L35 47ZM57 47L57 48L59 48L59 47ZM6 48L6 49L7 49L7 48ZM48 48L48 49L49 49L49 50L48 50L48 51L49 51L49 50L50 50L50 51L51 51L51 50L50 50L50 49L49 49L49 48ZM54 48L54 49L53 49L53 52L59 52L59 49L56 49L56 50L57 50L57 51L54 51L54 49L55 49L55 48ZM2 49L2 50L4 50L4 49ZM13 49L13 50L14 50L14 49ZM15 49L15 50L16 50L16 49ZM19 49L19 50L18 50L18 51L19 51L19 50L20 50L20 49ZM25 49L25 50L26 50L26 49ZM27 49L27 50L28 50L28 49ZM38 49L38 50L39 50L39 49ZM3 51L3 52L4 52L4 51ZM14 52L14 54L15 54L15 52ZM34 52L34 53L35 53L35 52ZM36 52L36 53L38 53L38 52ZM29 53L29 56L32 56L32 53ZM53 53L53 56L56 56L56 53ZM16 54L16 55L17 55L17 54ZM22 54L22 56L21 56L21 57L20 57L20 58L22 58L22 57L23 57L23 55L24 55L24 54ZM30 54L30 55L31 55L31 54ZM36 54L36 55L37 55L37 54ZM54 54L54 55L55 55L55 54ZM28 57L28 58L29 58L29 57ZM40 58L40 59L39 59L39 60L40 60L40 59L43 59L43 58ZM23 59L23 60L24 60L24 59ZM30 59L30 61L31 61L31 59ZM0 0L0 7L7 7L7 0ZM1 1L1 6L6 6L6 1ZM2 2L2 5L5 5L5 2ZM54 0L54 7L61 7L61 0ZM55 1L55 6L60 6L60 1ZM56 2L56 5L59 5L59 2ZM0 54L0 61L7 61L7 54ZM1 55L1 60L6 60L6 55ZM2 56L2 59L5 59L5 56Z" fill="#000000"/></g></g></svg>
