<?xml version="1.0" encoding="UTF-8"?>
<svg xmlns="http://www.w3.org/2000/svg" version="1.1" width="200" height="200" viewBox="0 0 200 200"><rect x="0" y="0" width="200" height="200" fill="#ffffff"/><g transform="scale(3.279)"><g transform="translate(0,0)"><path fill-rule="evenodd" d="M9 0L9 1L8 1L8 2L9 2L9 3L8 3L8 4L9 4L9 5L8 5L8 7L9 7L9 8L6 8L6 9L7 9L7 10L4 10L4 11L7 11L7 12L5 12L5 13L4 13L4 12L2 12L2 11L3 11L3 10L2 10L2 9L5 9L5 8L0 8L0 9L1 9L1 11L0 11L0 17L1 17L1 18L0 18L0 21L2 21L2 22L0 22L0 23L1 23L1 24L2 24L2 23L5 23L5 22L6 22L6 23L7 23L7 22L6 22L6 21L7 21L7 20L6 20L6 19L7 19L7 18L8 18L8 15L9 15L9 16L10 16L10 14L8 14L8 13L10 13L10 12L11 12L11 13L12 13L12 14L11 14L11 17L10 17L10 19L9 19L9 20L8 20L8 21L9 21L9 20L10 20L10 19L11 19L11 21L10 21L10 23L11 23L11 24L10 24L10 25L11 25L11 24L14 24L14 25L12 25L12 26L11 26L11 27L9 27L9 23L8 23L8 26L6 26L6 25L7 25L7 24L4 24L4 25L5 25L5 26L4 26L4 29L3 29L3 28L2 28L2 30L1 30L1 28L0 28L0 32L1 32L1 31L2 31L2 32L3 32L3 33L4 33L4 35L5 35L5 36L6 36L6 37L8 37L8 36L11 36L11 37L9 37L9 38L8 38L8 40L6 40L6 39L7 39L7 38L6 38L6 39L5 39L5 37L4 37L4 36L2 36L2 33L0 33L0 38L2 38L2 39L1 39L1 40L4 40L4 39L5 39L5 41L7 41L7 42L6 42L6 43L5 43L5 42L4 42L4 43L2 43L2 42L1 42L1 41L0 41L0 46L1 46L1 45L2 45L2 44L4 44L4 43L5 43L5 45L7 45L7 44L6 44L6 43L8 43L8 44L11 44L11 43L13 43L13 42L14 42L14 41L15 41L15 45L14 45L14 46L15 46L15 47L16 47L16 48L14 48L14 47L13 47L13 48L12 48L12 51L14 51L14 52L15 52L15 53L17 53L17 51L18 51L18 53L19 53L19 54L18 54L18 55L17 55L17 54L15 54L15 57L14 57L14 56L13 56L13 55L14 55L14 53L13 53L13 54L12 54L12 52L11 52L11 49L9 49L9 48L8 48L8 47L9 47L9 45L8 45L8 47L7 47L7 46L4 46L4 45L3 45L3 46L4 46L4 47L7 47L7 48L6 48L6 49L7 49L7 50L5 50L5 49L4 49L4 48L2 48L2 47L1 47L1 49L4 49L4 50L2 50L2 51L0 51L0 53L4 53L4 52L5 52L5 51L7 51L7 50L8 50L8 49L9 49L9 50L10 50L10 51L9 51L9 52L10 52L10 53L8 53L8 55L9 55L9 56L8 56L8 61L9 61L9 59L10 59L10 61L11 61L11 59L12 59L12 60L13 60L13 61L19 61L19 60L20 60L20 61L21 61L21 60L25 60L25 59L28 59L28 60L27 60L27 61L28 61L28 60L30 60L30 61L31 61L31 60L33 60L33 61L35 61L35 60L36 60L36 61L37 61L37 60L36 60L36 59L39 59L39 60L38 60L38 61L40 61L40 60L41 60L41 61L43 61L43 60L41 60L41 59L39 59L39 58L42 58L42 59L43 59L43 58L45 58L45 57L42 57L42 55L41 55L41 54L43 54L43 55L44 55L44 56L45 56L45 55L46 55L46 57L47 57L47 56L48 56L48 57L49 57L49 56L51 56L51 58L50 58L50 59L49 59L49 58L48 58L48 59L49 59L49 60L47 60L47 58L46 58L46 60L45 60L45 59L44 59L44 60L45 60L45 61L49 61L49 60L50 60L50 61L51 61L51 60L52 60L52 61L53 61L53 60L52 60L52 59L51 59L51 58L54 58L54 60L55 60L55 61L56 61L56 60L55 60L55 59L56 59L56 58L54 58L54 57L57 57L57 59L59 59L59 57L60 57L60 60L57 60L57 61L61 61L61 54L59 54L59 53L61 53L61 46L59 46L59 47L60 47L60 50L59 50L59 52L58 52L58 51L57 51L57 50L58 50L58 49L57 49L57 47L56 47L56 46L54 46L54 45L53 45L53 47L52 47L52 46L50 46L50 45L52 45L52 44L53 44L53 43L55 43L55 44L56 44L56 45L57 45L57 46L58 46L58 45L59 45L59 44L60 44L60 45L61 45L61 42L60 42L60 40L61 40L61 38L59 38L59 37L60 37L60 36L61 36L61 30L60 30L60 31L59 31L59 30L57 30L57 29L61 29L61 26L60 26L60 25L61 25L61 22L58 22L58 21L61 21L61 16L60 16L60 17L57 17L57 19L56 19L56 15L57 15L57 14L55 14L55 12L54 12L54 11L51 11L51 12L52 12L52 13L53 13L53 14L55 14L55 15L54 15L54 16L55 16L55 17L54 17L54 18L55 18L55 19L54 19L54 20L55 20L55 21L53 21L53 20L52 20L52 19L51 19L51 18L50 18L50 17L49 17L49 16L51 16L51 17L52 17L52 15L51 15L51 14L50 14L50 13L49 13L49 12L50 12L50 11L49 11L49 10L50 10L50 9L49 9L49 8L51 8L51 9L54 9L54 10L55 10L55 9L56 9L56 12L57 12L57 13L59 13L59 14L60 14L60 15L61 15L61 14L60 14L60 13L59 13L59 12L60 12L60 11L61 11L61 10L60 10L60 11L59 11L59 12L57 12L57 10L59 10L59 9L60 9L60 8L59 8L59 9L58 9L58 8L57 8L57 9L56 9L56 8L55 8L55 9L54 9L54 8L52 8L52 7L53 7L53 6L52 6L52 7L51 7L51 5L52 5L52 4L53 4L53 0L51 0L51 2L50 2L50 3L48 3L48 2L49 2L49 1L50 1L50 0L47 0L47 1L45 1L45 0L42 0L42 1L43 1L43 2L40 2L40 1L41 1L41 0L39 0L39 1L38 1L38 2L37 2L37 0L35 0L35 1L34 1L34 2L35 2L35 1L36 1L36 2L37 2L37 3L35 3L35 5L33 5L33 4L29 4L29 2L30 2L30 3L31 3L31 1L33 1L33 0L31 0L31 1L30 1L30 0L29 0L29 1L27 1L27 0L21 0L21 1L20 1L20 0L19 0L19 1L18 1L18 0L17 0L17 3L16 3L16 2L14 2L14 3L13 3L13 4L14 4L14 5L15 5L15 4L14 4L14 3L16 3L16 4L19 4L19 2L21 2L21 3L20 3L20 4L21 4L21 5L20 5L20 7L21 7L21 10L23 10L23 9L22 9L22 7L23 7L23 8L24 8L24 7L25 7L25 8L26 8L26 7L27 7L27 6L28 6L28 8L27 8L27 9L26 9L26 10L25 10L25 9L24 9L24 12L27 12L27 11L29 11L29 12L31 12L31 11L32 11L32 12L33 12L33 13L31 13L31 14L30 14L30 13L22 13L22 11L21 11L21 12L18 12L18 13L17 13L17 12L16 12L16 11L17 11L17 10L15 10L15 13L14 13L14 8L15 8L15 9L16 9L16 8L17 8L17 9L18 9L18 11L20 11L20 10L19 10L19 9L20 9L20 8L19 8L19 9L18 9L18 8L17 8L17 6L18 6L18 7L19 7L19 6L18 6L18 5L16 5L16 8L15 8L15 6L14 6L14 7L13 7L13 6L12 6L12 8L11 8L11 9L10 9L10 10L9 10L9 11L8 11L8 9L9 9L9 8L10 8L10 7L11 7L11 6L10 6L10 5L12 5L12 2L13 2L13 1L14 1L14 0L12 0L12 1L11 1L11 0ZM15 0L15 1L16 1L16 0ZM10 1L10 2L11 2L11 1ZM21 1L21 2L22 2L22 3L21 3L21 4L23 4L23 2L22 2L22 1ZM25 2L25 3L24 3L24 4L25 4L25 3L26 3L26 4L28 4L28 2L27 2L27 3L26 3L26 2ZM32 2L32 3L33 3L33 2ZM46 2L46 3L38 3L38 4L37 4L37 5L39 5L39 7L38 7L38 6L37 6L37 7L36 7L36 6L35 6L35 8L34 8L34 9L33 9L33 10L32 10L32 9L28 9L28 10L32 10L32 11L33 11L33 12L34 12L34 11L33 11L33 10L35 10L35 11L36 11L36 12L38 12L38 14L37 14L37 15L36 15L36 14L35 14L35 13L33 13L33 14L32 14L32 15L31 15L31 16L29 16L29 15L27 15L27 14L26 14L26 15L25 15L25 16L24 16L24 17L25 17L25 18L24 18L24 19L23 19L23 18L21 18L21 17L20 17L20 20L21 20L21 21L18 21L18 20L19 20L19 17L17 17L17 16L16 16L16 15L18 15L18 16L21 16L21 15L22 15L22 14L21 14L21 13L20 13L20 14L21 14L21 15L18 15L18 14L19 14L19 13L18 13L18 14L17 14L17 13L16 13L16 15L15 15L15 16L16 16L16 17L13 17L13 16L14 16L14 15L13 15L13 16L12 16L12 17L11 17L11 19L12 19L12 20L16 20L16 19L15 19L15 18L16 18L16 17L17 17L17 18L18 18L18 19L17 19L17 21L14 21L14 22L17 22L17 23L16 23L16 24L17 24L17 25L16 25L16 26L17 26L17 28L19 28L19 29L16 29L16 31L15 31L15 29L14 29L14 28L15 28L15 25L14 25L14 26L12 26L12 27L11 27L11 28L10 28L10 30L9 30L9 31L12 31L12 32L11 32L11 33L12 33L12 35L11 35L11 34L9 34L9 33L6 33L6 34L5 34L5 35L6 35L6 36L8 36L8 34L9 34L9 35L11 35L11 36L12 36L12 35L14 35L14 34L15 34L15 35L16 35L16 36L14 36L14 37L15 37L15 38L13 38L13 37L11 37L11 38L10 38L10 39L9 39L9 40L10 40L10 39L13 39L13 40L12 40L12 41L13 41L13 40L15 40L15 41L16 41L16 42L18 42L18 43L16 43L16 44L21 44L21 42L22 42L22 41L23 41L23 44L22 44L22 45L23 45L23 44L24 44L24 45L25 45L25 46L23 46L23 47L22 47L22 46L21 46L21 45L20 45L20 47L19 47L19 45L18 45L18 48L19 48L19 49L17 49L17 48L16 48L16 49L15 49L15 50L16 50L16 49L17 49L17 50L18 50L18 51L19 51L19 49L20 49L20 50L21 50L21 49L20 49L20 48L22 48L22 50L23 50L23 48L24 48L24 49L25 49L25 48L26 48L26 49L27 49L27 50L25 50L25 51L27 51L27 50L28 50L28 51L29 51L29 52L30 52L30 51L32 51L32 52L34 52L34 51L32 51L32 50L35 50L35 53L34 53L34 54L36 54L36 55L33 55L33 57L34 57L34 58L35 58L35 56L37 56L37 58L39 58L39 57L41 57L41 56L39 56L39 55L38 55L38 54L41 54L41 52L42 52L42 53L44 53L44 55L45 55L45 54L47 54L47 55L48 55L48 56L49 56L49 55L50 55L50 54L52 54L52 53L51 53L51 51L50 51L50 50L52 50L52 51L53 51L53 52L56 52L56 51L54 51L54 49L55 49L55 50L57 50L57 49L56 49L56 48L54 48L54 47L53 47L53 48L52 48L52 47L50 47L50 46L49 46L49 47L48 47L48 46L47 46L47 44L49 44L49 43L50 43L50 42L51 42L51 44L52 44L52 42L51 42L51 41L50 41L50 40L52 40L52 41L54 41L54 40L55 40L55 39L54 39L54 38L55 38L55 37L54 37L54 36L56 36L56 40L59 40L59 39L57 39L57 38L58 38L58 37L57 37L57 36L60 36L60 35L56 35L56 34L57 34L57 33L55 33L55 35L54 35L54 33L53 33L53 34L52 34L52 35L53 35L53 38L51 38L51 36L50 36L50 34L51 34L51 32L49 32L49 30L47 30L47 29L46 29L46 28L47 28L47 27L48 27L48 28L49 28L49 27L50 27L50 31L52 31L52 29L51 29L51 28L53 28L53 27L54 27L54 28L56 28L56 27L57 27L57 26L58 26L58 28L60 28L60 27L59 27L59 26L58 26L58 25L57 25L57 24L59 24L59 25L60 25L60 24L59 24L59 23L57 23L57 20L56 20L56 19L55 19L55 20L56 20L56 23L57 23L57 24L54 24L54 23L55 23L55 22L53 22L53 21L52 21L52 20L51 20L51 19L50 19L50 18L49 18L49 17L45 17L45 16L46 16L46 15L45 15L45 14L47 14L47 16L49 16L49 15L50 15L50 14L49 14L49 13L48 13L48 14L47 14L47 11L45 11L45 10L48 10L48 9L46 9L46 8L49 8L49 7L50 7L50 5L49 5L49 7L48 7L48 5L47 5L47 4L46 4L46 3L47 3L47 2ZM51 3L51 4L52 4L52 3ZM39 4L39 5L40 5L40 4ZM41 4L41 5L43 5L43 4ZM44 4L44 5L45 5L45 6L44 6L44 7L45 7L45 8L46 8L46 7L47 7L47 5L45 5L45 4ZM21 5L21 7L22 7L22 5ZM23 5L23 7L24 7L24 6L25 6L25 7L26 7L26 6L27 6L27 5L26 5L26 6L25 6L25 5ZM29 5L29 8L32 8L32 5ZM9 6L9 7L10 7L10 6ZM30 6L30 7L31 7L31 6ZM33 6L33 7L34 7L34 6ZM40 6L40 7L39 7L39 8L42 8L42 7L43 7L43 6L42 6L42 7L41 7L41 6ZM45 6L45 7L46 7L46 6ZM12 8L12 9L11 9L11 10L10 10L10 11L9 11L9 12L10 12L10 11L11 11L11 12L12 12L12 13L13 13L13 10L12 10L12 9L13 9L13 8ZM35 8L35 9L36 9L36 11L37 11L37 10L38 10L38 12L39 12L39 14L38 14L38 15L37 15L37 16L34 16L34 15L35 15L35 14L34 14L34 15L32 15L32 16L33 16L33 17L35 17L35 18L33 18L33 19L32 19L32 18L28 18L28 17L26 17L26 16L25 16L25 17L26 17L26 18L25 18L25 19L24 19L24 20L25 20L25 21L22 21L22 22L21 22L21 24L23 24L23 25L22 25L22 26L21 26L21 25L19 25L19 24L20 24L20 22L18 22L18 23L17 23L17 24L18 24L18 25L17 25L17 26L20 26L20 27L19 27L19 28L20 28L20 29L19 29L19 31L16 31L16 32L17 32L17 33L19 33L19 34L18 34L18 35L19 35L19 36L18 36L18 37L19 37L19 38L20 38L20 39L19 39L19 41L18 41L18 40L16 40L16 41L18 41L18 42L19 42L19 43L20 43L20 42L19 42L19 41L20 41L20 40L22 40L22 38L24 38L24 39L23 39L23 41L24 41L24 42L25 42L25 41L24 41L24 40L25 40L25 37L26 37L26 40L28 40L28 41L29 41L29 42L27 42L27 41L26 41L26 42L27 42L27 43L26 43L26 44L27 44L27 45L26 45L26 46L25 46L25 47L24 47L24 48L25 48L25 47L26 47L26 48L27 48L27 49L28 49L28 47L29 47L29 45L28 45L28 44L27 44L27 43L30 43L30 45L31 45L31 43L36 43L36 42L37 42L37 41L38 41L38 39L39 39L39 40L41 40L41 42L38 42L38 43L37 43L37 44L36 44L36 45L37 45L37 44L38 44L38 45L40 45L40 44L41 44L41 42L42 42L42 43L43 43L43 41L42 41L42 40L46 40L46 39L47 39L47 38L45 38L45 37L47 37L47 34L45 34L45 35L44 35L44 34L43 34L43 33L44 33L44 32L45 32L45 30L43 30L43 28L41 28L41 26L42 26L42 27L43 27L43 24L41 24L41 23L40 23L40 22L36 22L36 21L39 21L39 20L34 20L34 19L35 19L35 18L37 18L37 16L39 16L39 17L40 17L40 18L38 18L38 19L40 19L40 20L41 20L41 22L43 22L43 19L42 19L42 20L41 20L41 19L40 19L40 18L41 18L41 17L40 17L40 16L41 16L41 15L42 15L42 16L43 16L43 17L42 17L42 18L43 18L43 17L44 17L44 20L46 20L46 19L47 19L47 18L45 18L45 17L44 17L44 16L45 16L45 15L44 15L44 16L43 16L43 15L42 15L42 14L43 14L43 13L44 13L44 14L45 14L45 13L44 13L44 12L45 12L45 11L43 11L43 9L44 9L44 10L45 10L45 9L44 9L44 8L43 8L43 9L41 9L41 10L40 10L40 9L39 9L39 10L38 10L38 8ZM11 10L11 11L12 11L12 10ZM26 10L26 11L27 11L27 10ZM39 10L39 11L40 11L40 10ZM41 10L41 12L40 12L40 13L41 13L41 14L40 14L40 15L41 15L41 14L42 14L42 13L41 13L41 12L42 12L42 10ZM48 11L48 12L49 12L49 11ZM1 12L1 13L2 13L2 14L1 14L1 15L2 15L2 14L4 14L4 15L3 15L3 16L1 16L1 17L2 17L2 18L3 18L3 19L1 19L1 20L2 20L2 21L3 21L3 22L5 22L5 21L6 21L6 20L4 20L4 19L5 19L5 18L7 18L7 17L6 17L6 16L7 16L7 15L5 15L5 14L4 14L4 13L2 13L2 12ZM53 12L53 13L54 13L54 12ZM6 13L6 14L7 14L7 13ZM48 14L48 15L49 15L49 14ZM4 15L4 16L3 16L3 17L4 17L4 18L5 18L5 17L4 17L4 16L5 16L5 15ZM22 16L22 17L23 17L23 16ZM13 18L13 19L14 19L14 18ZM26 18L26 19L25 19L25 20L26 20L26 21L25 21L25 24L24 24L24 25L23 25L23 26L22 26L22 27L23 27L23 28L22 28L22 29L20 29L20 32L19 32L19 33L20 33L20 34L19 34L19 35L20 35L20 36L19 36L19 37L20 37L20 38L21 38L21 37L25 37L25 36L23 36L23 34L22 34L22 33L25 33L25 34L26 34L26 37L27 37L27 38L28 38L28 37L29 37L29 39L30 39L30 40L29 40L29 41L30 41L30 43L31 43L31 42L32 42L32 40L34 40L34 39L32 39L32 38L35 38L35 40L37 40L37 39L38 39L38 38L39 38L39 39L40 39L40 38L39 38L39 37L41 37L41 36L42 36L42 37L43 37L43 38L41 38L41 40L42 40L42 39L45 39L45 38L44 38L44 37L45 37L45 36L46 36L46 35L45 35L45 36L42 36L42 35L43 35L43 34L42 34L42 32L44 32L44 31L43 31L43 30L42 30L42 29L41 29L41 28L40 28L40 26L41 26L41 24L39 24L39 23L38 23L38 24L39 24L39 25L38 25L38 26L37 26L37 27L34 27L34 28L37 28L37 27L38 27L38 26L39 26L39 28L40 28L40 29L38 29L38 30L37 30L37 29L33 29L33 30L35 30L35 31L34 31L34 32L33 32L33 33L34 33L34 34L35 34L35 35L32 35L32 34L31 34L31 33L29 33L29 34L28 34L28 33L27 33L27 31L28 31L28 30L26 30L26 29L27 29L27 28L30 28L30 27L27 27L27 26L29 26L29 25L31 25L31 28L33 28L33 26L35 26L35 25L34 25L34 22L35 22L35 21L34 21L34 20L32 20L32 19L31 19L31 20L30 20L30 19L27 19L27 18ZM48 18L48 19L49 19L49 20L47 20L47 21L49 21L49 22L48 22L48 23L47 23L47 22L45 22L45 21L44 21L44 24L45 24L45 25L44 25L44 28L46 28L46 27L47 27L47 26L45 26L45 25L46 25L46 24L47 24L47 25L50 25L50 24L48 24L48 23L49 23L49 22L50 22L50 23L51 23L51 22L50 22L50 21L51 21L51 20L50 20L50 19L49 19L49 18ZM58 19L58 20L60 20L60 19ZM3 20L3 21L4 21L4 20ZM28 20L28 23L26 23L26 24L28 24L28 25L29 25L29 24L28 24L28 23L29 23L29 21L30 21L30 22L31 22L31 21L30 21L30 20ZM12 21L12 22L11 22L11 23L12 23L12 22L13 22L13 21ZM26 21L26 22L27 22L27 21ZM32 21L32 22L33 22L33 21ZM22 22L22 23L23 23L23 22ZM30 23L30 24L31 24L31 23ZM32 23L32 26L33 26L33 23ZM36 23L36 24L37 24L37 23ZM51 24L51 25L53 25L53 26L50 26L50 27L53 27L53 26L54 26L54 27L55 27L55 25L53 25L53 24ZM0 25L0 27L3 27L3 25ZM24 25L24 26L25 26L25 28L26 28L26 26L27 26L27 25ZM39 25L39 26L40 26L40 25ZM56 25L56 26L57 26L57 25ZM5 26L5 28L8 28L8 27L6 27L6 26ZM48 26L48 27L49 27L49 26ZM12 27L12 28L11 28L11 30L12 30L12 28L14 28L14 27ZM5 29L5 32L8 32L8 29ZM13 29L13 32L14 32L14 33L13 33L13 34L14 34L14 33L15 33L15 34L16 34L16 33L15 33L15 32L14 32L14 29ZM22 29L22 30L21 30L21 32L20 32L20 33L21 33L21 32L25 32L25 33L26 33L26 34L27 34L27 35L28 35L28 34L27 34L27 33L26 33L26 31L25 31L25 29ZM29 29L29 32L32 32L32 29ZM53 29L53 32L56 32L56 29ZM6 30L6 31L7 31L7 30ZM22 30L22 31L24 31L24 30ZM30 30L30 31L31 31L31 30ZM36 30L36 31L35 31L35 33L37 33L37 34L36 34L36 35L39 35L39 36L41 36L41 35L40 35L40 34L38 34L38 33L39 33L39 32L38 32L38 33L37 33L37 32L36 32L36 31L37 31L37 30ZM38 30L38 31L40 31L40 30ZM41 30L41 32L42 32L42 30ZM46 30L46 33L48 33L48 35L49 35L49 34L50 34L50 33L49 33L49 32L48 32L48 31L47 31L47 30ZM54 30L54 31L55 31L55 30ZM57 31L57 32L58 32L58 34L59 34L59 31ZM6 34L6 35L7 35L7 34ZM20 34L20 35L21 35L21 36L20 36L20 37L21 37L21 36L22 36L22 34ZM30 34L30 35L29 35L29 37L32 37L32 35L31 35L31 34ZM1 36L1 37L2 37L2 38L3 38L3 39L4 39L4 38L3 38L3 37L2 37L2 36ZM16 36L16 37L17 37L17 36ZM27 36L27 37L28 37L28 36ZM35 36L35 37L38 37L38 36ZM48 36L48 37L49 37L49 38L50 38L50 39L51 39L51 38L50 38L50 36ZM16 38L16 39L18 39L18 38ZM30 38L30 39L31 39L31 38ZM36 38L36 39L37 39L37 38ZM52 39L52 40L53 40L53 39ZM30 40L30 41L31 41L31 40ZM48 40L48 41L49 41L49 40ZM8 41L8 43L9 43L9 41ZM10 41L10 42L11 42L11 41ZM33 41L33 42L36 42L36 41ZM44 41L44 42L45 42L45 43L44 43L44 44L45 44L45 43L47 43L47 42L45 42L45 41ZM56 41L56 42L55 42L55 43L56 43L56 42L57 42L57 41ZM58 41L58 42L59 42L59 43L58 43L58 44L57 44L57 45L58 45L58 44L59 44L59 43L60 43L60 42L59 42L59 41ZM1 43L1 44L2 44L2 43ZM24 43L24 44L25 44L25 43ZM39 43L39 44L40 44L40 43ZM32 44L32 45L33 45L33 46L32 46L32 47L34 47L34 48L35 48L35 46L34 46L34 45L33 45L33 44ZM42 44L42 46L40 46L40 47L39 47L39 46L38 46L38 47L37 47L37 48L36 48L36 49L37 49L37 50L38 50L38 51L39 51L39 52L38 52L38 53L39 53L39 52L41 52L41 51L42 51L42 52L43 52L43 51L44 51L44 52L46 52L46 53L47 53L47 52L48 52L48 53L50 53L50 51L49 51L49 50L48 50L48 51L47 51L47 50L46 50L46 51L44 51L44 48L45 48L45 47L46 47L46 48L47 48L47 49L50 49L50 47L49 47L49 48L48 48L48 47L47 47L47 46L45 46L45 45L44 45L44 46L45 46L45 47L44 47L44 48L43 48L43 47L42 47L42 46L43 46L43 44ZM10 45L10 47L11 47L11 45ZM15 45L15 46L16 46L16 47L17 47L17 45ZM27 45L27 46L28 46L28 45ZM30 46L30 47L31 47L31 46ZM38 47L38 48L37 48L37 49L38 49L38 50L39 50L39 51L40 51L40 50L41 50L41 49L43 49L43 48L42 48L42 47L40 47L40 48L39 48L39 47ZM13 48L13 49L14 49L14 48ZM30 48L30 49L31 49L31 48ZM32 48L32 49L33 49L33 48ZM51 48L51 49L52 49L52 48ZM53 48L53 49L54 49L54 48ZM39 49L39 50L40 50L40 49ZM29 50L29 51L30 51L30 50ZM42 50L42 51L43 51L43 50ZM3 51L3 52L4 52L4 51ZM15 51L15 52L16 52L16 51ZM22 51L22 52L21 52L21 53L20 53L20 52L19 52L19 53L20 53L20 54L21 54L21 53L25 53L25 56L19 56L19 57L23 57L23 58L22 58L22 59L24 59L24 57L25 57L25 58L26 58L26 57L27 57L27 56L28 56L28 54L26 54L26 53L28 53L28 52L26 52L26 53L25 53L25 52L24 52L24 51ZM46 51L46 52L47 52L47 51ZM48 51L48 52L49 52L49 51ZM6 52L6 53L7 53L7 52ZM36 52L36 54L37 54L37 52ZM29 53L29 56L32 56L32 53ZM53 53L53 56L56 56L56 53ZM57 53L57 56L59 56L59 55L58 55L58 53ZM9 54L9 55L10 55L10 56L9 56L9 58L10 58L10 59L11 59L11 58L12 58L12 57L13 57L13 56L12 56L12 55L10 55L10 54ZM22 54L22 55L23 55L23 54ZM30 54L30 55L31 55L31 54ZM48 54L48 55L49 55L49 54ZM54 54L54 55L55 55L55 54ZM16 55L16 56L17 56L17 57L16 57L16 58L17 58L17 57L18 57L18 56L17 56L17 55ZM26 55L26 56L25 56L25 57L26 57L26 56L27 56L27 55ZM10 56L10 57L12 57L12 56ZM38 56L38 57L39 57L39 56ZM13 58L13 59L15 59L15 60L16 60L16 59L15 59L15 58ZM19 58L19 59L20 59L20 58ZM28 58L28 59L32 59L32 58ZM34 59L34 60L35 60L35 59ZM0 0L0 7L7 7L7 0ZM1 1L1 6L6 6L6 1ZM2 2L2 5L5 5L5 2ZM54 0L54 7L61 7L61 0ZM55 1L55 6L60 6L60 1ZM56 2L56 5L59 5L59 2ZM0 54L0 61L7 61L7 54ZM1 55L1 60L6 60L6 55ZM2 56L2 59L5 59L5 56Z" fill="#000000"/></g></g></svg>
