<?xml version="1.0" encoding="UTF-8"?>
<svg xmlns="http://www.w3.org/2000/svg" version="1.1" width="200" height="200" viewBox="0 0 200 200"><rect x="0" y="0" width="200" height="200" fill="#ffffff"/><g transform="scale(3.279)"><g transform="translate(0,0)"><path fill-rule="evenodd" d="M8 0L8 1L10 1L10 2L11 2L11 3L9 3L9 2L8 2L8 5L9 5L9 6L8 6L8 7L9 7L9 8L8 8L8 9L7 9L7 8L6 8L6 9L4 9L4 8L0 8L0 11L1 11L1 12L0 12L0 13L1 13L1 14L2 14L2 15L0 15L0 18L1 18L1 19L0 19L0 20L1 20L1 19L2 19L2 23L3 23L3 24L2 24L2 25L3 25L3 27L4 27L4 26L6 26L6 27L5 27L5 28L4 28L4 29L2 29L2 30L3 30L3 31L2 31L2 33L1 33L1 31L0 31L0 33L1 33L1 34L4 34L4 33L5 33L5 34L6 34L6 35L4 35L4 36L3 36L3 37L2 37L2 36L1 36L1 37L0 37L0 39L4 39L4 40L5 40L5 42L4 42L4 41L3 41L3 40L0 40L0 42L1 42L1 43L0 43L0 44L2 44L2 46L1 46L1 45L0 45L0 50L1 50L1 47L2 47L2 48L6 48L6 49L7 49L7 50L5 50L5 49L2 49L2 51L0 51L0 53L4 53L4 52L5 52L5 51L7 51L7 50L8 50L8 51L9 51L9 52L6 52L6 53L8 53L8 54L9 54L9 52L10 52L10 55L9 55L9 57L8 57L8 61L10 61L10 60L12 60L12 59L13 59L13 61L15 61L15 59L16 59L16 61L17 61L17 59L18 59L18 61L19 61L19 59L18 59L18 58L23 58L23 61L24 61L24 58L25 58L25 56L24 56L24 53L25 53L25 55L27 55L27 53L28 53L28 57L27 57L27 56L26 56L26 57L27 57L27 58L26 58L26 59L27 59L27 61L28 61L28 58L30 58L30 59L32 59L32 60L31 60L31 61L32 61L32 60L33 60L33 61L37 61L37 60L38 60L38 61L40 61L40 58L39 58L39 60L38 60L38 59L37 59L37 58L38 58L38 57L36 57L36 60L34 60L34 59L35 59L35 58L34 58L34 59L33 59L33 58L31 58L31 57L33 57L33 55L34 55L34 57L35 57L35 56L37 56L37 55L40 55L40 57L41 57L41 59L42 59L42 58L43 58L43 59L44 59L44 60L41 60L41 61L44 61L44 60L45 60L45 59L44 59L44 57L42 57L42 56L41 56L41 55L40 55L40 54L42 54L42 55L43 55L43 56L44 56L44 55L43 55L43 54L42 54L42 53L45 53L45 56L46 56L46 57L45 57L45 58L46 58L46 60L47 60L47 61L49 61L49 59L48 59L48 58L49 58L49 57L52 57L52 58L51 58L51 61L52 61L52 60L53 60L53 59L52 59L52 58L55 58L55 60L57 60L57 61L61 61L61 60L59 60L59 59L60 59L60 58L61 58L61 56L60 56L60 55L61 55L61 52L58 52L58 53L57 53L57 51L58 51L58 49L59 49L59 51L60 51L60 50L61 50L61 48L60 48L60 47L58 47L58 48L57 48L57 46L55 46L55 47L56 47L56 49L55 49L55 48L53 48L53 49L52 49L52 47L50 47L50 45L48 45L48 44L47 44L47 43L48 43L48 42L50 42L50 44L52 44L52 45L53 45L53 46L54 46L54 45L57 45L57 44L58 44L58 43L57 43L57 44L56 44L56 43L55 43L55 42L56 42L56 41L54 41L54 40L53 40L53 39L54 39L54 36L55 36L55 35L57 35L57 36L56 36L56 37L55 37L55 40L56 40L56 39L57 39L57 38L61 38L61 37L60 37L60 36L61 36L61 35L60 35L60 36L59 36L59 34L60 34L60 33L61 33L61 32L60 32L60 31L61 31L61 28L58 28L58 29L57 29L57 27L60 27L60 26L61 26L61 23L60 23L60 26L59 26L59 22L58 22L58 19L57 19L57 18L59 18L59 19L61 19L61 15L60 15L60 14L61 14L61 13L59 13L59 12L61 12L61 11L60 11L60 10L59 10L59 11L58 11L58 10L57 10L57 9L59 9L59 8L56 8L56 10L57 10L57 11L56 11L56 12L57 12L57 14L58 14L58 15L60 15L60 18L59 18L59 16L58 16L58 17L57 17L57 15L56 15L56 14L54 14L54 15L53 15L53 14L52 14L52 16L53 16L53 17L51 17L51 16L50 16L50 15L51 15L51 13L53 13L53 11L54 11L54 12L55 12L55 9L54 9L54 8L52 8L52 7L53 7L53 6L52 6L52 7L51 7L51 5L52 5L52 4L53 4L53 0L51 0L51 2L50 2L50 1L49 1L49 2L48 2L48 1L46 1L46 3L47 3L47 4L48 4L48 5L49 5L49 6L48 6L48 7L47 7L47 6L46 6L46 8L47 8L47 9L48 9L48 10L49 10L49 11L48 11L48 12L47 12L47 10L46 10L46 13L45 13L45 14L44 14L44 12L45 12L45 11L43 11L43 14L42 14L42 13L40 13L40 12L39 12L39 11L38 11L38 14L36 14L36 13L37 13L37 11L36 11L36 12L35 12L35 10L38 10L38 9L39 9L39 10L41 10L41 11L42 11L42 10L43 10L43 9L44 9L44 10L45 10L45 9L44 9L44 8L42 8L42 7L43 7L43 5L46 5L46 4L43 4L43 5L42 5L42 4L41 4L41 5L40 5L40 4L38 4L38 3L39 3L39 2L40 2L40 1L41 1L41 3L45 3L45 2L44 2L44 1L43 1L43 0L40 0L40 1L38 1L38 0L36 0L36 4L35 4L35 6L34 6L34 7L33 7L33 5L34 5L34 4L32 4L32 3L31 3L31 4L30 4L30 3L29 3L29 2L31 2L31 0L30 0L30 1L28 1L28 7L27 7L27 5L26 5L26 7L25 7L25 5L24 5L24 4L21 4L21 2L20 2L20 0L19 0L19 2L20 2L20 4L19 4L19 3L18 3L18 2L16 2L16 0L15 0L15 2L16 2L16 3L15 3L15 4L17 4L17 5L16 5L16 7L15 7L15 6L14 6L14 5L13 5L13 4L14 4L14 0L12 0L12 1L11 1L11 0ZM21 0L21 1L22 1L22 0ZM23 0L23 3L27 3L27 2L25 2L25 1L24 1L24 0ZM26 0L26 1L27 1L27 0ZM32 0L32 2L33 2L33 1L34 1L34 3L35 3L35 1L34 1L34 0ZM37 1L37 3L38 3L38 1ZM47 2L47 3L48 3L48 2ZM11 3L11 5L12 5L12 6L11 6L11 7L12 7L12 6L13 6L13 8L14 8L14 9L16 9L16 10L15 10L15 11L16 11L16 12L18 12L18 9L17 9L17 8L15 8L15 7L14 7L14 6L13 6L13 5L12 5L12 3ZM17 3L17 4L18 4L18 3ZM51 3L51 4L52 4L52 3ZM9 4L9 5L10 5L10 4ZM36 4L36 5L37 5L37 8L36 8L36 9L38 9L38 8L41 8L41 9L42 9L42 8L41 8L41 7L42 7L42 5L41 5L41 7L40 7L40 6L39 6L39 7L38 7L38 4ZM19 5L19 7L20 7L20 8L19 8L19 10L22 10L22 5L21 5L21 7L20 7L20 5ZM23 5L23 7L24 7L24 8L23 8L23 10L24 10L24 12L22 12L22 11L20 11L20 12L19 12L19 13L20 13L20 12L22 12L22 13L21 13L21 14L20 14L20 15L19 15L19 14L18 14L18 15L15 15L15 16L14 16L14 14L15 14L15 12L14 12L14 13L13 13L13 12L12 12L12 10L13 10L13 11L14 11L14 10L13 10L13 9L12 9L12 8L9 8L9 9L8 9L8 10L7 10L7 9L6 9L6 10L4 10L4 9L1 9L1 11L2 11L2 12L1 12L1 13L4 13L4 14L5 14L5 15L4 15L4 16L3 16L3 15L2 15L2 17L1 17L1 18L2 18L2 19L3 19L3 20L4 20L4 21L3 21L3 23L4 23L4 21L5 21L5 24L4 24L4 25L5 25L5 24L7 24L7 23L9 23L9 24L8 24L8 25L9 25L9 24L10 24L10 26L12 26L12 27L13 27L13 28L11 28L11 27L10 27L10 28L11 28L11 31L9 31L9 32L12 32L12 34L11 34L11 33L9 33L9 34L11 34L11 35L10 35L10 38L9 38L9 35L8 35L8 38L7 38L7 37L6 37L6 36L7 36L7 35L6 35L6 36L4 36L4 37L3 37L3 38L4 38L4 39L5 39L5 40L7 40L7 39L8 39L8 38L9 38L9 39L12 39L12 37L11 37L11 35L13 35L13 37L14 37L14 38L16 38L16 39L17 39L17 42L14 42L14 41L16 41L16 40L15 40L15 39L13 39L13 40L9 40L9 42L8 42L8 41L6 41L6 42L5 42L5 43L4 43L4 42L3 42L3 41L1 41L1 42L2 42L2 44L3 44L3 45L6 45L6 46L7 46L7 47L6 47L6 48L7 48L7 49L8 49L8 48L9 48L9 47L10 47L10 46L9 46L9 45L14 45L14 44L13 44L13 42L14 42L14 43L15 43L15 48L16 48L16 49L17 49L17 50L15 50L15 49L14 49L14 48L13 48L13 46L11 46L11 47L12 47L12 49L11 49L11 48L10 48L10 49L9 49L9 51L10 51L10 50L11 50L11 52L12 52L12 50L15 50L15 55L14 55L14 53L11 53L11 54L13 54L13 55L10 55L10 56L14 56L14 57L12 57L12 58L13 58L13 59L14 59L14 57L15 57L15 58L17 58L17 57L19 57L19 55L18 55L18 54L20 54L20 55L21 55L21 56L20 56L20 57L22 57L22 56L23 56L23 57L24 57L24 56L23 56L23 55L22 55L22 54L23 54L23 53L24 53L24 51L26 51L26 52L28 52L28 50L27 50L27 48L29 48L29 47L30 47L30 48L31 48L31 50L29 50L29 51L30 51L30 52L31 52L31 50L32 50L32 48L33 48L33 47L34 47L34 48L36 48L36 46L35 46L35 45L33 45L33 46L32 46L32 48L31 48L31 46L30 46L30 45L32 45L32 44L30 44L30 45L29 45L29 47L28 47L28 45L27 45L27 44L29 44L29 43L30 43L30 41L32 41L32 42L31 42L31 43L32 43L32 42L33 42L33 41L35 41L35 43L34 43L34 44L35 44L35 43L36 43L36 41L37 41L37 43L38 43L38 45L37 45L37 44L36 44L36 45L37 45L37 47L38 47L38 48L37 48L37 50L38 50L38 48L39 48L39 49L41 49L41 52L40 52L40 51L39 51L39 52L40 52L40 53L41 53L41 52L42 52L42 50L44 50L44 51L43 51L43 52L44 52L44 51L46 51L46 52L47 52L47 55L48 55L48 53L50 53L50 54L49 54L49 56L48 56L48 57L49 57L49 56L50 56L50 54L51 54L51 55L52 55L52 54L51 54L51 53L52 53L52 52L51 52L51 53L50 53L50 52L49 52L49 51L48 51L48 52L47 52L47 49L48 49L48 50L49 50L49 49L51 49L51 50L52 50L52 51L53 51L53 52L56 52L56 51L57 51L57 50L55 50L55 49L53 49L53 50L52 50L52 49L51 49L51 48L49 48L49 49L48 49L48 47L49 47L49 46L47 46L47 44L45 44L45 42L46 42L46 40L47 40L47 41L49 41L49 40L50 40L50 39L49 39L49 38L50 38L50 36L53 36L53 35L55 35L55 34L57 34L57 35L58 35L58 34L59 34L59 30L60 30L60 29L58 29L58 31L57 31L57 33L53 33L53 34L52 34L52 35L51 35L51 33L52 33L52 31L51 31L51 33L50 33L50 30L51 30L51 29L52 29L52 28L51 28L51 27L54 27L54 28L56 28L56 27L57 27L57 24L56 24L56 21L57 21L57 19L56 19L56 18L57 18L57 17L55 17L55 16L56 16L56 15L54 15L54 18L51 18L51 17L50 17L50 16L49 16L49 15L48 15L48 16L47 16L47 13L46 13L46 14L45 14L45 16L46 16L46 17L47 17L47 19L48 19L48 18L49 18L49 19L50 19L50 20L51 20L51 19L56 19L56 21L55 21L55 23L53 23L53 25L51 25L51 26L50 26L50 28L49 28L49 25L50 25L50 24L52 24L52 23L51 23L51 22L54 22L54 20L52 20L52 21L49 21L49 20L48 20L48 21L49 21L49 22L48 22L48 23L46 23L46 24L44 24L44 22L43 22L43 24L42 24L42 20L43 20L43 21L45 21L45 22L47 22L47 21L45 21L45 20L46 20L46 19L44 19L44 18L45 18L45 17L43 17L43 16L44 16L44 14L43 14L43 15L42 15L42 18L41 18L41 19L42 19L42 20L41 20L41 22L40 22L40 21L39 21L39 20L38 20L38 19L39 19L39 17L37 17L37 16L39 16L39 15L35 15L35 13L34 13L34 14L33 14L33 12L34 12L34 10L35 10L35 9L34 9L34 8L33 8L33 9L31 9L31 10L29 10L29 9L28 9L28 8L26 8L26 9L25 9L25 10L24 10L24 8L25 8L25 7L24 7L24 5ZM29 5L29 8L32 8L32 5ZM9 6L9 7L10 7L10 6ZM17 6L17 7L18 7L18 6ZM30 6L30 7L31 7L31 6ZM35 6L35 7L36 7L36 6ZM44 6L44 7L45 7L45 6ZM49 6L49 8L48 8L48 9L50 9L50 10L51 10L51 11L50 11L50 12L49 12L49 13L50 13L50 12L52 12L52 10L54 10L54 9L51 9L51 8L50 8L50 6ZM60 8L60 9L61 9L61 8ZM10 9L10 10L8 10L8 11L10 11L10 12L11 12L11 13L10 13L10 14L9 14L9 15L8 15L8 13L7 13L7 12L4 12L4 11L3 11L3 10L2 10L2 11L3 11L3 12L4 12L4 13L5 13L5 14L6 14L6 15L7 15L7 16L6 16L6 17L5 17L5 18L4 18L4 17L3 17L3 18L4 18L4 20L5 20L5 18L6 18L6 19L7 19L7 20L6 20L6 21L8 21L8 22L9 22L9 23L12 23L12 24L11 24L11 25L15 25L15 26L13 26L13 27L16 27L16 28L15 28L15 29L13 29L13 30L14 30L14 32L15 32L15 33L14 33L14 34L13 34L13 35L14 35L14 37L17 37L17 39L20 39L20 38L21 38L21 36L25 36L25 39L24 39L24 38L23 38L23 37L22 37L22 39L21 39L21 40L18 40L18 41L19 41L19 42L18 42L18 43L16 43L16 44L19 44L19 43L20 43L20 45L19 45L19 47L18 47L18 46L16 46L16 47L17 47L17 49L18 49L18 50L19 50L19 51L21 51L21 53L22 53L22 48L23 48L23 51L24 51L24 49L25 49L25 50L26 50L26 48L27 48L27 47L26 47L26 46L27 46L27 45L26 45L26 42L24 42L24 41L25 41L25 40L26 40L26 41L27 41L27 43L29 43L29 41L30 41L30 40L28 40L28 41L27 41L27 40L26 40L26 36L25 36L25 34L24 34L24 33L23 33L23 35L22 35L22 32L24 32L24 31L23 31L23 30L22 30L22 32L21 32L21 31L20 31L20 30L19 30L19 29L20 29L20 28L21 28L21 29L22 29L22 28L23 28L23 29L25 29L25 28L24 28L24 27L27 27L27 28L26 28L26 30L25 30L25 32L26 32L26 31L27 31L27 32L28 32L28 33L32 33L32 34L33 34L33 33L35 33L35 34L34 34L34 35L36 35L36 37L37 37L37 36L38 36L38 38L37 38L37 40L38 40L38 41L39 41L39 39L40 39L40 40L41 40L41 42L42 42L42 43L40 43L40 42L38 42L38 43L39 43L39 44L40 44L40 45L41 45L41 44L42 44L42 47L41 47L41 46L40 46L40 48L41 48L41 49L42 49L42 47L44 47L44 48L43 48L43 49L44 49L44 48L46 48L46 49L45 49L45 50L46 50L46 49L47 49L47 48L46 48L46 47L47 47L47 46L46 46L46 47L45 47L45 46L43 46L43 44L42 44L42 43L43 43L43 42L42 42L42 40L43 40L43 38L42 38L42 37L41 37L41 38L40 38L40 37L39 37L39 36L38 36L38 35L36 35L36 34L37 34L37 33L39 33L39 35L42 35L42 36L43 36L43 37L44 37L44 36L45 36L45 33L44 33L44 34L43 34L43 33L42 33L42 31L41 31L41 29L45 29L45 30L44 30L44 31L45 31L45 32L47 32L47 33L48 33L48 32L49 32L49 31L48 31L48 30L49 30L49 29L46 29L46 28L47 28L47 27L48 27L48 26L47 26L47 27L44 27L44 26L43 26L43 27L44 27L44 28L41 28L41 27L42 27L42 26L41 26L41 25L42 25L42 24L41 24L41 25L40 25L40 24L39 24L39 23L38 23L38 22L37 22L37 23L36 23L36 22L34 22L34 23L33 23L33 21L32 21L32 22L29 22L29 21L31 21L31 20L34 20L34 21L35 21L35 20L37 20L37 17L36 17L36 16L34 16L34 15L30 15L30 13L29 13L29 12L30 12L30 11L29 11L29 10L28 10L28 9L27 9L27 10L25 10L25 11L27 11L27 13L29 13L29 16L28 16L28 14L26 14L26 13L25 13L25 14L26 14L26 15L25 15L25 18L23 18L23 17L21 17L21 18L20 18L20 20L19 20L19 17L18 17L18 19L17 19L17 18L16 18L16 17L15 17L15 19L14 19L14 16L13 16L13 15L11 15L11 16L13 16L13 18L11 18L11 17L10 17L10 14L11 14L11 13L12 13L12 12L11 12L11 11L10 11L10 10L11 10L11 9ZM6 10L6 11L7 11L7 10ZM16 10L16 11L17 11L17 10ZM31 10L31 12L33 12L33 10ZM6 13L6 14L7 14L7 13ZM16 13L16 14L17 14L17 13ZM22 13L22 15L23 15L23 16L24 16L24 15L23 15L23 14L24 14L24 13ZM39 13L39 14L40 14L40 13ZM26 15L26 16L27 16L27 18L25 18L25 19L24 19L24 20L23 20L23 18L21 18L21 20L23 20L23 22L24 22L24 20L25 20L25 22L26 22L26 23L27 23L27 24L28 24L28 25L27 25L27 27L28 27L28 28L27 28L27 29L28 29L28 28L29 28L29 27L31 27L31 28L32 28L32 27L33 27L33 28L35 28L35 29L36 29L36 30L35 30L35 31L33 31L33 32L35 32L35 33L37 33L37 32L35 32L35 31L36 31L36 30L37 30L37 31L38 31L38 32L41 32L41 31L38 31L38 30L40 30L40 29L41 29L41 28L40 28L40 27L41 27L41 26L40 26L40 25L39 25L39 27L37 27L37 25L36 25L36 27L35 27L35 24L36 24L36 23L35 23L35 24L33 24L33 25L31 25L31 23L29 23L29 24L28 24L28 23L27 23L27 22L28 22L28 20L29 20L29 19L30 19L30 20L31 20L31 19L33 19L33 18L31 18L31 17L32 17L32 16L31 16L31 17L30 17L30 16L29 16L29 19L27 19L27 18L28 18L28 16L27 16L27 15ZM40 15L40 17L41 17L41 15ZM7 16L7 17L6 17L6 18L7 18L7 19L8 19L8 18L9 18L9 20L8 20L8 21L10 21L10 19L11 19L11 18L9 18L9 17L8 17L8 16ZM33 16L33 17L34 17L34 16ZM35 17L35 19L34 19L34 20L35 20L35 19L36 19L36 17ZM50 18L50 19L51 19L51 18ZM11 20L11 22L12 22L12 21L13 21L13 20ZM15 20L15 21L14 21L14 22L13 22L13 24L14 24L14 23L15 23L15 24L16 24L16 22L17 22L17 21L18 21L18 24L17 24L17 25L16 25L16 27L17 27L17 26L18 26L18 27L19 27L19 25L20 25L20 26L21 26L21 27L22 27L22 26L21 26L21 24L22 24L22 25L23 25L23 27L24 27L24 26L26 26L26 25L25 25L25 24L24 24L24 25L23 25L23 23L22 23L22 22L21 22L21 21L20 21L20 22L19 22L19 20ZM59 20L59 21L60 21L60 20ZM15 21L15 22L16 22L16 21ZM0 22L0 23L1 23L1 22ZM6 22L6 23L7 23L7 22ZM20 22L20 23L19 23L19 24L18 24L18 25L19 25L19 24L21 24L21 22ZM57 22L57 23L58 23L58 22ZM37 23L37 24L38 24L38 23ZM48 23L48 24L46 24L46 25L49 25L49 23ZM6 25L6 26L7 26L7 27L6 27L6 28L9 28L9 27L8 27L8 26L7 26L7 25ZM33 25L33 27L34 27L34 25ZM0 26L0 27L1 27L1 26ZM31 26L31 27L32 27L32 26ZM55 26L55 27L56 27L56 26ZM18 28L18 29L19 29L19 28ZM50 28L50 29L51 29L51 28ZM5 29L5 32L8 32L8 29ZM9 29L9 30L10 30L10 29ZM29 29L29 32L32 32L32 29ZM37 29L37 30L38 30L38 29ZM53 29L53 32L56 32L56 29ZM6 30L6 31L7 31L7 30ZM27 30L27 31L28 31L28 30ZM30 30L30 31L31 31L31 30ZM54 30L54 31L55 31L55 30ZM3 31L3 32L4 32L4 31ZM12 31L12 32L13 32L13 31ZM17 31L17 32L18 32L18 34L19 34L19 35L20 35L20 36L19 36L19 37L20 37L20 36L21 36L21 35L20 35L20 34L21 34L21 33L20 33L20 32L19 32L19 31ZM47 31L47 32L48 32L48 31ZM6 33L6 34L8 34L8 33ZM16 33L16 35L15 35L15 36L16 36L16 35L17 35L17 37L18 37L18 35L17 35L17 33ZM19 33L19 34L20 34L20 33ZM26 33L26 35L27 35L27 33ZM49 33L49 34L50 34L50 33ZM57 33L57 34L58 34L58 33ZM46 34L46 37L45 37L45 38L44 38L44 42L45 42L45 40L46 40L46 37L47 37L47 40L48 40L48 38L49 38L49 36L50 36L50 35L48 35L48 34ZM29 35L29 38L28 38L28 36L27 36L27 38L28 38L28 39L29 39L29 38L30 38L30 39L31 39L31 40L32 40L32 39L33 39L33 40L34 40L34 39L33 39L33 38L34 38L34 37L32 37L32 36L30 36L30 35ZM47 35L47 36L48 36L48 35ZM5 37L5 38L6 38L6 39L7 39L7 38L6 38L6 37ZM51 37L51 41L50 41L50 42L54 42L54 41L52 41L52 37ZM41 38L41 40L42 40L42 38ZM22 39L22 40L21 40L21 41L20 41L20 43L23 43L23 39ZM35 39L35 40L36 40L36 39ZM60 39L60 43L61 43L61 39ZM13 40L13 41L14 41L14 40ZM58 40L58 42L59 42L59 40ZM11 41L11 42L9 42L9 44L6 44L6 45L9 45L9 44L10 44L10 43L12 43L12 41ZM6 42L6 43L8 43L8 42ZM3 43L3 44L4 44L4 43ZM24 43L24 44L23 44L23 46L22 46L22 45L20 45L20 47L19 47L19 48L20 48L20 47L23 47L23 48L25 48L25 47L23 47L23 46L24 46L24 44L25 44L25 43ZM52 43L52 44L53 44L53 45L54 45L54 44L55 44L55 43L54 43L54 44L53 44L53 43ZM58 45L58 46L59 46L59 45ZM2 46L2 47L5 47L5 46ZM8 46L8 47L7 47L7 48L8 48L8 47L9 47L9 46ZM34 46L34 47L35 47L35 46ZM59 48L59 49L60 49L60 48ZM34 49L34 51L32 51L32 52L34 52L34 53L33 53L33 54L34 54L34 53L35 53L35 49ZM53 50L53 51L54 51L54 50ZM3 51L3 52L4 52L4 51ZM16 51L16 54L17 54L17 51ZM36 51L36 53L37 53L37 51ZM19 52L19 53L20 53L20 52ZM29 53L29 56L32 56L32 53ZM38 53L38 54L39 54L39 53ZM53 53L53 56L56 56L56 53ZM58 53L58 54L57 54L57 55L58 55L58 56L57 56L57 57L59 57L59 58L58 58L58 59L59 59L59 58L60 58L60 57L59 57L59 55L60 55L60 53ZM30 54L30 55L31 55L31 54ZM35 54L35 55L36 55L36 54ZM54 54L54 55L55 55L55 54ZM58 54L58 55L59 55L59 54ZM46 57L46 58L47 58L47 57ZM9 58L9 59L10 59L10 58ZM20 59L20 61L21 61L21 59ZM47 59L47 60L48 60L48 59ZM0 0L0 7L7 7L7 0ZM1 1L1 6L6 6L6 1ZM2 2L2 5L5 5L5 2ZM54 0L54 7L61 7L61 0ZM55 1L55 6L60 6L60 1ZM56 2L56 5L59 5L59 2ZM0 54L0 61L7 61L7 54ZM1 55L1 60L6 60L6 55ZM2 56L2 59L5 59L5 56Z" fill="#000000"/></g></g></svg>
