<?xml version="1.0" encoding="UTF-8"?>
<svg xmlns="http://www.w3.org/2000/svg" version="1.1" width="200" height="200" viewBox="0 0 200 200"><rect x="0" y="0" width="200" height="200" fill="#ffffff"/><g transform="scale(3.279)"><g transform="translate(0,0)"><path fill-rule="evenodd" d="M11 0L11 2L9 2L9 1L8 1L8 2L9 2L9 3L8 3L8 4L10 4L10 3L12 3L12 4L11 4L11 5L12 5L12 7L13 7L13 5L12 5L12 4L13 4L13 3L12 3L12 2L13 2L13 0ZM15 0L15 1L14 1L14 3L15 3L15 4L14 4L14 5L15 5L15 6L14 6L14 8L13 8L13 9L12 9L12 8L11 8L11 9L12 9L12 10L10 10L10 9L9 9L9 8L10 8L10 7L11 7L11 6L10 6L10 7L9 7L9 5L8 5L8 7L9 7L9 8L6 8L6 9L7 9L7 10L6 10L6 11L7 11L7 10L10 10L10 11L8 11L8 12L9 12L9 13L7 13L7 12L6 12L6 13L5 13L5 11L3 11L3 12L2 12L2 11L1 11L1 12L0 12L0 17L1 17L1 19L3 19L3 21L1 21L1 22L2 22L2 23L3 23L3 24L2 24L2 25L1 25L1 26L0 26L0 28L1 28L1 29L0 29L0 31L2 31L2 32L0 32L0 33L1 33L1 34L0 34L0 35L2 35L2 37L3 37L3 38L4 38L4 37L7 37L7 38L5 38L5 40L4 40L4 41L2 41L2 42L3 42L3 43L1 43L1 44L0 44L0 50L2 50L2 51L0 51L0 53L4 53L4 52L5 52L5 51L7 51L7 52L6 52L6 53L7 53L7 52L9 52L9 53L8 53L8 55L9 55L9 54L10 54L10 52L11 52L11 53L13 53L13 55L12 55L12 54L11 54L11 55L12 55L12 56L11 56L11 57L10 57L10 58L9 58L9 56L8 56L8 61L9 61L9 59L10 59L10 60L12 60L12 61L19 61L19 60L16 60L16 57L17 57L17 59L18 59L18 57L19 57L19 59L20 59L20 61L21 61L21 59L22 59L22 58L23 58L23 57L21 57L21 56L20 56L20 55L19 55L19 54L20 54L20 53L21 53L21 52L23 52L23 53L22 53L22 56L25 56L25 53L26 53L26 54L28 54L28 56L27 56L27 55L26 55L26 56L27 56L27 57L26 57L26 58L25 58L25 57L24 57L24 58L25 58L25 60L26 60L26 58L27 58L27 61L28 61L28 60L29 60L29 61L31 61L31 59L32 59L32 60L33 60L33 61L37 61L37 60L36 60L36 58L31 58L31 57L34 57L34 56L35 56L35 57L37 57L37 58L38 58L38 59L39 59L39 58L40 58L40 57L39 57L39 56L41 56L41 57L42 57L42 58L41 58L41 59L40 59L40 60L41 60L41 61L42 61L42 60L43 60L43 61L44 61L44 60L45 60L45 59L50 59L50 61L51 61L51 58L50 58L50 57L52 57L52 58L53 58L53 61L54 61L54 60L55 60L55 61L57 61L57 60L58 60L58 61L61 61L61 56L60 56L60 60L58 60L58 58L59 58L59 56L57 56L57 53L58 53L58 55L59 55L59 54L60 54L60 55L61 55L61 54L60 54L60 51L61 51L61 50L58 50L58 49L59 49L59 48L60 48L60 49L61 49L61 46L60 46L60 45L61 45L61 41L60 41L60 42L58 42L58 41L59 41L59 40L61 40L61 38L60 38L60 37L61 37L61 36L58 36L58 35L61 35L61 34L59 34L59 33L61 33L61 30L58 30L58 29L59 29L59 28L58 28L58 25L59 25L59 27L60 27L60 29L61 29L61 26L60 26L60 25L61 25L61 24L57 24L57 23L59 23L59 22L60 22L60 23L61 23L61 22L60 22L60 21L61 21L61 18L60 18L60 17L61 17L61 16L60 16L60 15L61 15L61 14L60 14L60 13L59 13L59 12L60 12L60 11L61 11L61 10L60 10L60 11L59 11L59 12L58 12L58 8L57 8L57 9L56 9L56 8L55 8L55 9L54 9L54 8L52 8L52 7L53 7L53 6L52 6L52 7L51 7L51 5L52 5L52 4L53 4L53 0L51 0L51 2L50 2L50 4L49 4L49 3L47 3L47 2L48 2L48 1L45 1L45 2L44 2L44 0L42 0L42 1L43 1L43 2L41 2L41 1L40 1L40 0L39 0L39 1L38 1L38 0L37 0L37 1L36 1L36 2L35 2L35 1L34 1L34 2L33 2L33 3L32 3L32 4L29 4L29 2L30 2L30 3L31 3L31 2L32 2L32 1L33 1L33 0L32 0L32 1L31 1L31 0L30 0L30 1L27 1L27 0L21 0L21 1L20 1L20 0L19 0L19 1L18 1L18 0L17 0L17 1L18 1L18 2L16 2L16 3L15 3L15 1L16 1L16 0ZM49 0L49 1L50 1L50 0ZM19 1L19 2L18 2L18 3L19 3L19 2L20 2L20 1ZM37 1L37 2L36 2L36 3L35 3L35 2L34 2L34 3L33 3L33 5L35 5L35 7L34 7L34 6L33 6L33 7L34 7L34 8L35 8L35 9L33 9L33 10L32 10L32 9L31 9L31 10L32 10L32 11L33 11L33 12L37 12L37 13L36 13L36 14L35 14L35 13L34 13L34 14L35 14L35 15L33 15L33 14L32 14L32 13L31 13L31 12L30 12L30 11L26 11L26 10L24 10L24 9L25 9L25 7L26 7L26 6L27 6L27 7L28 7L28 6L27 6L27 5L26 5L26 4L28 4L28 2L26 2L26 4L25 4L25 3L24 3L24 2L21 2L21 3L22 3L22 4L23 4L23 5L24 5L24 4L25 4L25 7L24 7L24 6L23 6L23 7L22 7L22 5L21 5L21 4L20 4L20 6L19 6L19 7L18 7L18 5L19 5L19 4L16 4L16 5L17 5L17 8L19 8L19 13L16 13L16 12L18 12L18 9L16 9L16 8L14 8L14 9L13 9L13 12L12 12L12 15L13 15L13 16L14 16L14 15L13 15L13 14L15 14L15 13L16 13L16 14L19 14L19 13L20 13L20 16L19 16L19 17L18 17L18 15L16 15L16 16L15 16L15 17L12 17L12 16L10 16L10 15L11 15L11 14L9 14L9 15L8 15L8 14L7 14L7 13L6 13L6 14L7 14L7 15L6 15L6 16L5 16L5 15L3 15L3 14L5 14L5 13L3 13L3 14L2 14L2 13L1 13L1 14L2 14L2 15L1 15L1 16L2 16L2 17L5 17L5 18L7 18L7 19L6 19L6 20L7 20L7 19L8 19L8 18L9 18L9 20L8 20L8 22L9 22L9 21L10 21L10 22L11 22L11 24L10 24L10 25L9 25L9 24L8 24L8 25L6 25L6 24L7 24L7 23L6 23L6 24L5 24L5 25L4 25L4 24L3 24L3 26L1 26L1 27L2 27L2 29L1 29L1 30L2 30L2 31L4 31L4 30L2 30L2 29L4 29L4 27L5 27L5 28L9 28L9 32L10 32L10 34L9 34L9 33L4 33L4 32L3 32L3 33L4 33L4 34L7 34L7 35L6 35L6 36L7 36L7 37L9 37L9 39L10 39L10 42L7 42L7 41L9 41L9 40L8 40L8 39L6 39L6 40L7 40L7 41L5 41L5 42L7 42L7 43L5 43L5 44L4 44L4 43L3 43L3 44L2 44L2 45L1 45L1 46L2 46L2 47L1 47L1 48L2 48L2 50L3 50L3 48L2 48L2 47L3 47L3 46L4 46L4 47L5 47L5 48L4 48L4 49L6 49L6 50L7 50L7 51L9 51L9 50L11 50L11 51L12 51L12 52L13 52L13 53L14 53L14 55L13 55L13 56L12 56L12 58L11 58L11 59L13 59L13 58L15 58L15 57L13 57L13 56L16 56L16 55L15 55L15 54L17 54L17 55L18 55L18 56L19 56L19 57L20 57L20 59L21 59L21 57L20 57L20 56L19 56L19 55L18 55L18 54L19 54L19 53L20 53L20 52L19 52L19 53L16 53L16 52L17 52L17 49L18 49L18 50L19 50L19 51L20 51L20 50L21 50L21 49L23 49L23 50L22 50L22 51L24 51L24 53L25 53L25 52L26 52L26 53L27 53L27 52L31 52L31 51L32 51L32 52L33 52L33 56L34 56L34 54L35 54L35 56L37 56L37 57L38 57L38 58L39 58L39 57L38 57L38 54L40 54L40 55L42 55L42 54L41 54L41 53L43 53L43 52L42 52L42 51L41 51L41 49L43 49L43 48L44 48L44 50L43 50L43 51L44 51L44 50L45 50L45 49L46 49L46 50L47 50L47 51L45 51L45 52L44 52L44 54L43 54L43 55L45 55L45 56L43 56L43 58L42 58L42 59L41 59L41 60L42 60L42 59L45 59L45 58L48 58L48 57L45 57L45 56L49 56L49 57L50 57L50 56L51 56L51 55L50 55L50 54L51 54L51 51L48 51L48 49L46 49L46 48L47 48L47 47L46 47L46 48L44 48L44 47L45 47L45 46L48 46L48 48L50 48L50 50L51 50L51 48L52 48L52 47L53 47L53 46L52 46L52 47L49 47L49 46L51 46L51 45L50 45L50 44L52 44L52 43L53 43L53 40L54 40L54 42L57 42L57 43L56 43L56 44L55 44L55 43L54 43L54 44L53 44L53 45L54 45L54 46L56 46L56 47L57 47L57 48L59 48L59 46L57 46L57 45L58 45L58 44L59 44L59 45L60 45L60 44L59 44L59 43L58 43L58 42L57 42L57 41L55 41L55 40L54 40L54 39L53 39L53 38L55 38L55 39L56 39L56 38L58 38L58 37L56 37L56 36L57 36L57 35L56 35L56 34L58 34L58 33L56 33L56 34L55 34L55 35L54 35L54 33L53 33L53 37L52 37L52 39L51 39L51 37L50 37L50 36L51 36L51 35L52 35L52 34L51 34L51 33L52 33L52 32L51 32L51 31L52 31L52 29L51 29L51 28L52 28L52 27L54 27L54 28L56 28L56 27L57 27L57 26L56 26L56 25L57 25L57 24L54 24L54 23L57 23L57 20L59 20L59 17L60 17L60 16L59 16L59 15L58 15L58 14L59 14L59 13L58 13L58 12L56 12L56 13L58 13L58 14L56 14L56 15L57 15L57 16L55 16L55 14L54 14L54 13L55 13L55 12L54 12L54 11L56 11L56 9L55 9L55 10L54 10L54 9L48 9L48 8L49 8L49 7L50 7L50 6L49 6L49 7L48 7L48 5L49 5L49 4L47 4L47 3L46 3L46 2L45 2L45 3L44 3L44 2L43 2L43 3L44 3L44 4L45 4L45 3L46 3L46 5L47 5L47 7L46 7L46 6L45 6L45 7L46 7L46 8L47 8L47 9L46 9L46 10L47 10L47 11L46 11L46 12L44 12L44 11L45 11L45 10L44 10L44 9L45 9L45 8L44 8L44 6L43 6L43 5L42 5L42 4L41 4L41 3L39 3L39 2L38 2L38 1ZM34 3L34 4L35 4L35 5L38 5L38 7L37 7L37 6L36 6L36 7L37 7L37 8L36 8L36 10L34 10L34 11L36 11L36 10L37 10L37 12L38 12L38 13L39 13L39 14L38 14L38 15L37 15L37 14L36 14L36 15L37 15L37 16L36 16L36 18L33 18L33 17L35 17L35 16L33 16L33 15L32 15L32 14L31 14L31 15L30 15L30 16L31 16L31 18L33 18L33 19L30 19L30 17L29 17L29 18L28 18L28 17L26 17L26 16L27 16L27 15L29 15L29 14L30 14L30 13L29 13L29 14L27 14L27 13L24 13L24 12L26 12L26 11L24 11L24 12L23 12L23 11L22 11L22 10L23 10L23 9L22 9L22 7L21 7L21 6L20 6L20 7L19 7L19 8L20 8L20 9L21 9L21 10L20 10L20 13L21 13L21 14L22 14L22 15L21 15L21 16L20 16L20 17L19 17L19 18L14 18L14 20L13 20L13 18L12 18L12 21L15 21L15 23L13 23L13 24L16 24L16 25L17 25L17 26L15 26L15 28L14 28L14 29L12 29L12 28L13 28L13 27L14 27L14 26L13 26L13 25L12 25L12 26L13 26L13 27L11 27L11 26L5 26L5 27L9 27L9 28L10 28L10 29L11 29L11 30L10 30L10 32L12 32L12 31L14 31L14 32L15 32L15 35L16 35L16 36L15 36L15 38L14 38L14 37L12 37L12 35L13 35L13 36L14 36L14 35L13 35L13 33L12 33L12 34L10 34L10 35L7 35L7 36L9 36L9 37L10 37L10 39L11 39L11 37L12 37L12 38L14 38L14 39L13 39L13 40L12 40L12 42L10 42L10 43L7 43L7 44L6 44L6 45L5 45L5 46L6 46L6 47L7 47L7 48L6 48L6 49L7 49L7 48L8 48L8 49L9 49L9 48L10 48L10 49L12 49L12 48L11 48L11 47L9 47L9 46L12 46L12 45L13 45L13 43L14 43L14 42L15 42L15 43L16 43L16 45L15 45L15 44L14 44L14 46L16 46L16 45L19 45L19 46L20 46L20 47L19 47L19 48L18 48L18 49L19 49L19 50L20 50L20 49L21 49L21 48L22 48L22 47L21 47L21 46L23 46L23 48L25 48L25 47L24 47L24 46L27 46L27 47L26 47L26 48L27 48L27 49L24 49L24 51L26 51L26 50L27 50L27 51L28 51L28 50L29 50L29 49L28 49L28 48L27 48L27 47L28 47L28 46L29 46L29 45L28 45L28 44L27 44L27 45L24 45L24 44L26 44L26 43L28 43L28 42L27 42L27 41L31 41L31 43L30 43L30 42L29 42L29 43L30 43L30 45L31 45L31 46L32 46L32 47L31 47L31 48L30 48L30 49L31 49L31 50L32 50L32 51L33 51L33 52L34 52L34 51L35 51L35 52L36 52L36 53L37 53L37 52L36 52L36 49L37 49L37 50L38 50L38 53L39 53L39 51L40 51L40 52L41 52L41 51L40 51L40 48L41 48L41 47L42 47L42 48L43 48L43 47L42 47L42 46L43 46L43 45L44 45L44 46L45 46L45 45L46 45L46 44L47 44L47 45L49 45L49 44L48 44L48 43L49 43L49 40L51 40L51 42L50 42L50 43L52 43L52 40L53 40L53 39L52 39L52 40L51 40L51 39L49 39L49 38L50 38L50 37L49 37L49 36L48 36L48 37L49 37L49 38L48 38L48 39L47 39L47 38L45 38L45 39L44 39L44 38L43 38L43 37L44 37L44 36L45 36L45 37L47 37L47 36L46 36L46 35L47 35L47 34L46 34L46 35L45 35L45 34L43 34L43 33L44 33L44 32L45 32L45 31L46 31L46 32L47 32L47 33L49 33L49 34L48 34L48 35L49 35L49 34L50 34L50 35L51 35L51 34L50 34L50 33L51 33L51 32L50 32L50 31L51 31L51 30L50 30L50 31L49 31L49 28L51 28L51 27L52 27L52 26L50 26L50 27L49 27L49 24L48 24L48 22L49 22L49 20L48 20L48 22L46 22L46 20L47 20L47 19L50 19L50 21L51 21L51 22L50 22L50 23L51 23L51 22L52 22L52 21L53 21L53 22L55 22L55 21L53 21L53 20L52 20L52 19L53 19L53 18L50 18L50 16L51 16L51 17L52 17L52 15L51 15L51 14L50 14L50 12L51 12L51 13L53 13L53 12L51 12L51 11L52 11L52 10L50 10L50 12L47 12L47 13L48 13L48 14L44 14L44 12L43 12L43 13L39 13L39 12L42 12L42 11L40 11L40 10L38 10L38 9L39 9L39 8L41 8L41 10L43 10L43 9L44 9L44 8L43 8L43 6L42 6L42 8L41 8L41 6L40 6L40 7L39 7L39 5L38 5L38 4L39 4L39 3L36 3L36 4L35 4L35 3ZM51 3L51 4L52 4L52 3ZM29 5L29 8L32 8L32 5ZM15 6L15 7L16 7L16 6ZM30 6L30 7L31 7L31 6ZM20 7L20 8L21 8L21 7ZM0 8L0 10L4 10L4 9L5 9L5 8ZM26 8L26 9L28 9L28 10L29 10L29 9L28 9L28 8ZM59 8L59 9L60 9L60 8ZM14 9L14 10L15 10L15 11L14 11L14 12L13 12L13 13L14 13L14 12L16 12L16 10L15 10L15 9ZM48 10L48 11L49 11L49 10ZM10 12L10 13L11 13L11 12ZM22 12L22 13L23 13L23 15L22 15L22 16L21 16L21 17L20 17L20 19L19 19L19 21L16 21L16 20L17 20L17 19L16 19L16 20L15 20L15 21L16 21L16 22L17 22L17 23L16 23L16 24L17 24L17 23L18 23L18 22L19 22L19 23L21 23L21 21L20 21L20 20L21 20L21 17L25 17L25 19L24 19L24 20L22 20L22 21L25 21L25 22L24 22L24 23L23 23L23 22L22 22L22 23L23 23L23 24L21 24L21 25L18 25L18 26L17 26L17 27L16 27L16 28L18 28L18 27L19 27L19 29L16 29L16 30L17 30L17 31L16 31L16 32L17 32L17 33L16 33L16 34L17 34L17 33L18 33L18 34L19 34L19 35L20 35L20 36L19 36L19 37L16 37L16 39L15 39L15 40L13 40L13 41L15 41L15 40L17 40L17 38L19 38L19 37L20 37L20 40L19 40L19 41L16 41L16 43L17 43L17 42L18 42L18 44L19 44L19 42L20 42L20 44L21 44L21 45L20 45L20 46L21 46L21 45L23 45L23 46L24 46L24 45L23 45L23 44L24 44L24 43L26 43L26 41L27 41L27 40L28 40L28 39L27 39L27 40L26 40L26 39L25 39L25 38L24 38L24 39L22 39L22 38L21 38L21 37L20 37L20 36L21 36L21 35L22 35L22 37L23 37L23 36L24 36L24 37L25 37L25 36L24 36L24 35L25 35L25 34L26 34L26 33L27 33L27 34L28 34L28 35L29 35L29 36L27 36L27 35L26 35L26 38L28 38L28 37L30 37L30 39L29 39L29 40L32 40L32 41L33 41L33 42L35 42L35 43L34 43L34 44L33 44L33 43L32 43L32 46L33 46L33 47L32 47L32 48L31 48L31 49L32 49L32 50L35 50L35 49L36 49L36 48L38 48L38 50L39 50L39 48L40 48L40 47L41 47L41 46L40 46L40 45L41 45L41 44L44 44L44 45L45 45L45 44L46 44L46 42L47 42L47 41L45 41L45 40L44 40L44 39L43 39L43 38L42 38L42 37L43 37L43 36L44 36L44 35L43 35L43 34L42 34L42 33L43 33L43 32L44 32L44 31L45 31L45 30L47 30L47 28L49 28L49 27L47 27L47 28L46 28L46 27L45 27L45 26L44 26L44 25L45 25L45 24L46 24L46 26L47 26L47 24L46 24L46 23L45 23L45 20L46 20L46 19L44 19L44 23L43 23L43 22L42 22L42 21L43 21L43 20L42 20L42 19L43 19L43 18L47 18L47 17L46 17L46 15L45 15L45 16L44 16L44 14L41 14L41 16L40 16L40 14L39 14L39 16L38 16L38 18L36 18L36 20L29 20L29 19L27 19L27 18L26 18L26 17L25 17L25 16L26 16L26 15L27 15L27 14L25 14L25 15L24 15L24 13L23 13L23 12ZM48 14L48 15L47 15L47 16L50 16L50 14ZM7 15L7 16L6 16L6 17L7 17L7 18L8 18L8 17L10 17L10 19L11 19L11 17L10 17L10 16L8 16L8 15ZM42 15L42 16L43 16L43 17L42 17L42 18L41 18L41 19L40 19L40 20L41 20L41 19L42 19L42 18L43 18L43 17L44 17L44 16L43 16L43 15ZM7 16L7 17L8 17L8 16ZM16 16L16 17L17 17L17 16ZM32 16L32 17L33 17L33 16ZM39 16L39 17L40 17L40 16ZM58 16L58 17L59 17L59 16ZM54 17L54 18L55 18L55 17ZM56 17L56 18L57 18L57 17ZM22 18L22 19L23 19L23 18ZM38 18L38 19L37 19L37 20L36 20L36 21L35 21L35 22L33 22L33 21L32 21L32 22L31 22L31 21L30 21L30 22L31 22L31 23L30 23L30 24L31 24L31 23L32 23L32 22L33 22L33 23L35 23L35 22L37 22L37 21L38 21L38 19L39 19L39 18ZM25 19L25 20L26 20L26 19ZM54 19L54 20L55 20L55 19ZM56 19L56 20L57 20L57 19ZM10 20L10 21L11 21L11 20ZM3 21L3 22L4 22L4 23L5 23L5 22L7 22L7 21L5 21L5 22L4 22L4 21ZM19 21L19 22L20 22L20 21ZM26 21L26 22L25 22L25 23L24 23L24 24L25 24L25 25L24 25L24 26L23 26L23 25L21 25L21 26L20 26L20 27L21 27L21 28L20 28L20 29L19 29L19 30L18 30L18 31L19 31L19 32L18 32L18 33L19 33L19 34L20 34L20 33L21 33L21 34L22 34L22 35L23 35L23 34L25 34L25 33L21 33L21 32L20 32L20 31L19 31L19 30L20 30L20 29L21 29L21 31L22 31L22 30L23 30L23 29L24 29L24 32L26 32L26 30L27 30L27 33L28 33L28 34L30 34L30 35L31 35L31 36L30 36L30 37L32 37L32 35L34 35L34 36L33 36L33 37L35 37L35 38L31 38L31 39L35 39L35 38L36 38L36 39L37 39L37 40L36 40L36 41L35 41L35 42L36 42L36 43L37 43L37 44L35 44L35 45L37 45L37 44L41 44L41 43L42 43L42 42L43 42L43 40L42 40L42 39L39 39L39 38L37 38L37 36L36 36L36 35L37 35L37 34L38 34L38 35L39 35L39 36L38 36L38 37L39 37L39 36L41 36L41 35L40 35L40 33L39 33L39 32L41 32L41 31L40 31L40 30L38 30L38 31L39 31L39 32L38 32L38 33L37 33L37 32L36 32L36 33L37 33L37 34L36 34L36 35L35 35L35 34L33 34L33 32L35 32L35 30L36 30L36 31L37 31L37 28L35 28L35 26L33 26L33 25L34 25L34 24L33 24L33 25L32 25L32 26L31 26L31 25L30 25L30 26L31 26L31 27L30 27L30 28L28 28L28 29L24 29L24 27L25 27L25 28L26 28L26 27L25 27L25 25L26 25L26 26L28 26L28 27L29 27L29 24L28 24L28 23L29 23L29 22L27 22L27 21ZM40 21L40 22L38 22L38 23L37 23L37 24L36 24L36 25L37 25L37 26L36 26L36 27L37 27L37 26L38 26L38 27L39 27L39 28L38 28L38 29L39 29L39 28L41 28L41 30L43 30L43 31L44 31L44 30L45 30L45 29L46 29L46 28L45 28L45 27L44 27L44 28L43 28L43 25L44 25L44 24L43 24L43 23L42 23L42 22L41 22L41 21ZM58 21L58 22L59 22L59 21ZM26 22L26 25L27 25L27 22ZM40 22L40 23L41 23L41 22ZM38 23L38 26L39 26L39 25L40 25L40 26L41 26L41 25L42 25L42 24L39 24L39 23ZM50 24L50 25L51 25L51 24ZM52 24L52 25L53 25L53 26L54 26L54 27L55 27L55 25L53 25L53 24ZM21 26L21 27L22 27L22 29L23 29L23 27L22 27L22 26ZM32 26L32 28L33 28L33 29L34 29L34 30L33 30L33 31L34 31L34 30L35 30L35 28L34 28L34 27L33 27L33 26ZM10 27L10 28L11 28L11 27ZM41 27L41 28L42 28L42 27ZM44 28L44 29L45 29L45 28ZM57 28L57 29L58 29L58 28ZM5 29L5 32L8 32L8 29ZM14 29L14 31L15 31L15 29ZM29 29L29 32L32 32L32 29ZM53 29L53 32L56 32L56 29ZM6 30L6 31L7 31L7 30ZM11 30L11 31L12 31L12 30ZM30 30L30 31L31 31L31 30ZM54 30L54 31L55 31L55 30ZM57 30L57 32L59 32L59 31L58 31L58 30ZM47 31L47 32L49 32L49 33L50 33L50 32L49 32L49 31ZM19 32L19 33L20 33L20 32ZM30 33L30 34L31 34L31 35L32 35L32 33ZM38 33L38 34L39 34L39 33ZM4 35L4 36L3 36L3 37L4 37L4 36L5 36L5 35ZM17 35L17 36L18 36L18 35ZM0 36L0 37L1 37L1 36ZM10 36L10 37L11 37L11 36ZM35 36L35 37L36 37L36 36ZM54 36L54 37L55 37L55 36ZM0 38L0 39L1 39L1 40L0 40L0 41L1 41L1 40L3 40L3 39L2 39L2 38ZM59 38L59 39L57 39L57 40L59 40L59 39L60 39L60 38ZM24 39L24 41L21 41L21 40L20 40L20 41L21 41L21 44L23 44L23 43L22 43L22 42L25 42L25 39ZM38 39L38 40L37 40L37 41L38 41L38 42L37 42L37 43L38 43L38 42L40 42L40 43L41 43L41 42L40 42L40 41L42 41L42 40L39 40L39 39ZM46 39L46 40L47 40L47 39ZM48 39L48 40L49 40L49 39ZM44 41L44 44L45 44L45 41ZM11 43L11 44L9 44L9 45L8 45L8 44L7 44L7 45L6 45L6 46L7 46L7 47L8 47L8 48L9 48L9 47L8 47L8 46L9 46L9 45L11 45L11 44L12 44L12 43ZM57 43L57 44L56 44L56 45L57 45L57 44L58 44L58 43ZM7 45L7 46L8 46L8 45ZM33 45L33 46L34 46L34 48L33 48L33 49L34 49L34 48L35 48L35 47L37 47L37 46L34 46L34 45ZM38 46L38 47L40 47L40 46ZM13 47L13 48L15 48L15 49L14 49L14 51L15 51L15 49L17 49L17 48L15 48L15 47ZM53 48L53 50L52 50L52 51L53 51L53 52L55 52L55 51L57 51L57 49L56 49L56 48L55 48L55 49L54 49L54 48ZM53 50L53 51L55 51L55 50ZM3 51L3 52L4 52L4 51ZM58 51L58 52L59 52L59 51ZM45 52L45 53L46 53L46 52ZM48 52L48 53L47 53L47 54L45 54L45 55L47 55L47 54L48 54L48 53L50 53L50 52ZM29 53L29 56L32 56L32 53ZM53 53L53 56L56 56L56 53ZM30 54L30 55L31 55L31 54ZM36 54L36 55L37 55L37 54ZM54 54L54 55L55 55L55 54ZM29 57L29 58L28 58L28 59L31 59L31 58L30 58L30 57ZM44 57L44 58L45 58L45 57ZM53 57L53 58L54 58L54 59L55 59L55 58L56 58L56 59L57 59L57 58L56 58L56 57L55 57L55 58L54 58L54 57ZM34 59L34 60L35 60L35 59ZM23 60L23 61L24 61L24 60ZM38 60L38 61L39 61L39 60ZM47 60L47 61L49 61L49 60ZM0 0L0 7L7 7L7 0ZM1 1L1 6L6 6L6 1ZM2 2L2 5L5 5L5 2ZM54 0L54 7L61 7L61 0ZM55 1L55 6L60 6L60 1ZM56 2L56 5L59 5L59 2ZM0 54L0 61L7 61L7 54ZM1 55L1 60L6 60L6 55ZM2 56L2 59L5 59L5 56Z" fill="#000000"/></g></g></svg>
