<?xml version="1.0" encoding="UTF-8"?>
<svg xmlns="http://www.w3.org/2000/svg" version="1.1" width="200" height="200" viewBox="0 0 200 200"><rect x="0" y="0" width="200" height="200" fill="#ffffff"/><g transform="scale(3.279)"><g transform="translate(0,0)"><path fill-rule="evenodd" d="M9 0L9 1L8 1L8 2L10 2L10 1L11 1L11 0ZM13 0L13 1L12 1L12 2L11 2L11 3L8 3L8 4L10 4L10 5L8 5L8 7L9 7L9 8L6 8L6 9L8 9L8 10L9 10L9 11L8 11L8 12L10 12L10 14L11 14L11 16L9 16L9 15L8 15L8 14L9 14L9 13L8 13L8 14L6 14L6 13L7 13L7 12L6 12L6 13L5 13L5 8L0 8L0 11L1 11L1 12L0 12L0 14L3 14L3 13L2 13L2 12L3 12L3 10L4 10L4 14L6 14L6 15L8 15L8 16L6 16L6 17L5 17L5 15L4 15L4 16L3 16L3 15L1 15L1 16L0 16L0 17L1 17L1 18L0 18L0 19L2 19L2 20L3 20L3 21L4 21L4 22L3 22L3 23L2 23L2 22L1 22L1 24L2 24L2 25L0 25L0 27L1 27L1 26L2 26L2 27L3 27L3 26L4 26L4 27L5 27L5 28L4 28L4 30L3 30L3 31L2 31L2 30L0 30L0 31L1 31L1 32L0 32L0 38L1 38L1 39L0 39L0 40L1 40L1 39L2 39L2 38L1 38L1 37L3 37L3 36L4 36L4 37L5 37L5 38L4 38L4 39L3 39L3 42L4 42L4 43L3 43L3 44L2 44L2 46L3 46L3 48L2 48L2 47L1 47L1 46L0 46L0 47L1 47L1 48L2 48L2 49L1 49L1 50L2 50L2 51L0 51L0 53L4 53L4 52L5 52L5 51L7 51L7 52L6 52L6 53L8 53L8 55L9 55L9 56L8 56L8 61L10 61L10 60L12 60L12 61L13 61L13 60L15 60L15 57L14 57L14 58L10 58L10 56L11 56L11 53L12 53L12 56L15 56L15 54L14 54L14 55L13 55L13 53L14 53L14 52L15 52L15 53L17 53L17 54L18 54L18 55L17 55L17 56L16 56L16 57L17 57L17 60L16 60L16 61L17 61L17 60L18 60L18 61L21 61L21 60L23 60L23 61L24 61L24 58L25 58L25 59L26 59L26 60L27 60L27 61L28 61L28 60L29 60L29 57L30 57L30 58L31 58L31 57L32 57L32 58L33 58L33 52L34 52L34 51L36 51L36 50L38 50L38 48L35 48L35 46L37 46L37 47L39 47L39 48L40 48L40 46L41 46L41 48L42 48L42 49L39 49L39 52L41 52L41 51L40 51L40 50L43 50L43 51L42 51L42 52L43 52L43 53L39 53L39 54L36 54L36 55L38 55L38 56L36 56L36 57L35 57L35 58L34 58L34 59L36 59L36 57L37 57L37 58L38 58L38 59L37 59L37 60L34 60L34 61L37 61L37 60L38 60L38 59L39 59L39 61L40 61L40 60L41 60L41 59L43 59L43 61L44 61L44 60L46 60L46 59L45 59L45 57L50 57L50 56L46 56L46 55L47 55L47 54L46 54L46 55L44 55L44 56L43 56L43 55L42 55L42 54L45 54L45 53L44 53L44 52L47 52L47 53L49 53L49 54L48 54L48 55L51 55L51 58L50 58L50 59L49 59L49 58L47 58L47 59L49 59L49 60L47 60L47 61L49 61L49 60L50 60L50 59L51 59L51 61L52 61L52 60L55 60L55 61L61 61L61 54L59 54L59 53L60 53L60 52L58 52L58 51L57 51L57 50L56 50L56 51L57 51L57 52L53 52L53 51L55 51L55 50L53 50L53 49L52 49L52 48L55 48L55 49L61 49L61 48L60 48L60 47L61 47L61 46L60 46L60 45L61 45L61 42L60 42L60 40L61 40L61 38L59 38L59 36L57 36L57 35L58 35L58 33L59 33L59 34L60 34L60 35L61 35L61 34L60 34L60 33L61 33L61 32L60 32L60 33L59 33L59 32L58 32L58 33L57 33L57 30L58 30L58 31L61 31L61 30L58 30L58 29L59 29L59 28L57 28L57 27L60 27L60 28L61 28L61 26L60 26L60 24L61 24L61 22L60 22L60 24L57 24L57 23L59 23L59 22L58 22L58 21L59 21L59 20L58 20L58 21L57 21L57 22L56 22L56 20L57 20L57 18L56 18L56 16L57 16L57 17L58 17L58 16L57 16L57 15L59 15L59 17L60 17L60 15L61 15L61 14L60 14L60 13L59 13L59 12L60 12L60 11L61 11L61 10L60 10L60 11L59 11L59 12L58 12L58 10L59 10L59 9L60 9L60 8L59 8L59 9L58 9L58 8L57 8L57 9L56 9L56 8L55 8L55 9L54 9L54 8L52 8L52 7L53 7L53 6L52 6L52 7L51 7L51 5L52 5L52 4L53 4L53 0L51 0L51 2L50 2L50 1L49 1L49 0L48 0L48 2L50 2L50 3L48 3L48 4L47 4L47 1L46 1L46 4L47 4L47 5L45 5L45 4L44 4L44 3L45 3L45 2L44 2L44 3L43 3L43 4L42 4L42 5L43 5L43 6L42 6L42 7L43 7L43 8L45 8L45 6L46 6L46 7L47 7L47 6L48 6L48 7L49 7L49 5L50 5L50 7L51 7L51 11L48 11L48 10L50 10L50 8L47 8L47 9L48 9L48 10L46 10L46 9L44 9L44 10L45 10L45 11L44 11L44 12L43 12L43 11L42 11L42 12L41 12L41 11L40 11L40 10L41 10L41 9L40 9L40 8L41 8L41 6L40 6L40 5L41 5L41 4L40 4L40 5L37 5L37 4L39 4L39 3L42 3L42 2L41 2L41 1L44 1L44 0L39 0L39 1L40 1L40 2L39 2L39 3L38 3L38 2L37 2L37 1L38 1L38 0L37 0L37 1L36 1L36 0L35 0L35 1L33 1L33 0L32 0L32 1L31 1L31 0L30 0L30 1L31 1L31 2L29 2L29 1L28 1L28 0L26 0L26 1L27 1L27 2L26 2L26 3L28 3L28 4L26 4L26 5L25 5L25 4L22 4L22 3L23 3L23 2L22 2L22 0L21 0L21 3L20 3L20 4L19 4L19 3L16 3L16 2L15 2L15 1L16 1L16 0L15 0L15 1L14 1L14 0ZM17 0L17 1L18 1L18 2L19 2L19 1L20 1L20 0L19 0L19 1L18 1L18 0ZM23 0L23 1L25 1L25 0ZM32 1L32 2L33 2L33 1ZM13 2L13 3L14 3L14 4L15 4L15 3L14 3L14 2ZM24 2L24 3L25 3L25 2ZM28 2L28 3L29 3L29 4L31 4L31 3L29 3L29 2ZM34 2L34 3L35 3L35 4L34 4L34 5L33 5L33 8L34 8L34 9L33 9L33 10L32 10L32 9L31 9L31 10L32 10L32 13L31 13L31 12L30 12L30 14L29 14L29 11L27 11L27 10L26 10L26 9L27 9L27 8L28 8L28 6L27 6L27 7L26 7L26 6L25 6L25 5L24 5L24 6L23 6L23 8L21 8L21 7L22 7L22 5L21 5L21 4L20 4L20 5L18 5L18 4L16 4L16 6L15 6L15 8L14 8L14 9L12 9L12 10L11 10L11 11L10 11L10 12L11 12L11 11L12 11L12 13L11 13L11 14L14 14L14 13L15 13L15 14L17 14L17 16L16 16L16 17L12 17L12 16L14 16L14 15L12 15L12 16L11 16L11 18L10 18L10 19L9 19L9 16L8 16L8 17L6 17L6 18L3 18L3 16L1 16L1 17L2 17L2 18L3 18L3 19L4 19L4 20L5 20L5 22L4 22L4 24L5 24L5 23L6 23L6 24L7 24L7 25L5 25L5 26L7 26L7 25L10 25L10 26L8 26L8 27L6 27L6 28L10 28L10 30L11 30L11 31L12 31L12 32L11 32L11 34L10 34L10 33L8 33L8 35L11 35L11 34L13 34L13 35L12 35L12 36L11 36L11 37L12 37L12 36L13 36L13 35L14 35L14 34L13 34L13 33L12 33L12 32L13 32L13 31L14 31L14 33L16 33L16 34L15 34L15 35L16 35L16 36L17 36L17 34L19 34L19 35L21 35L21 33L23 33L23 34L22 34L22 35L23 35L23 36L21 36L21 37L20 37L20 36L19 36L19 37L16 37L16 38L18 38L18 39L17 39L17 40L18 40L18 41L16 41L16 39L14 39L14 38L15 38L15 36L14 36L14 38L11 38L11 39L9 39L9 37L6 37L6 38L8 38L8 40L9 40L9 41L6 41L6 40L7 40L7 39L4 39L4 42L5 42L5 41L6 41L6 42L8 42L8 44L10 44L10 42L11 42L11 41L13 41L13 39L14 39L14 42L13 42L13 43L12 43L12 44L11 44L11 45L10 45L10 46L11 46L11 47L13 47L13 50L12 50L12 48L8 48L8 49L9 49L9 50L8 50L8 52L12 52L12 51L13 51L13 52L14 52L14 51L15 51L15 52L16 52L16 51L15 51L15 50L16 50L16 49L17 49L17 51L18 51L18 52L19 52L19 53L18 53L18 54L19 54L19 53L20 53L20 56L19 56L19 57L20 57L20 60L21 60L21 59L22 59L22 57L25 57L25 58L26 58L26 59L27 59L27 60L28 60L28 59L27 59L27 58L26 58L26 57L27 57L27 55L28 55L28 54L27 54L27 55L26 55L26 53L27 53L27 50L28 50L28 51L29 51L29 52L30 52L30 51L32 51L32 52L33 52L33 47L32 47L32 46L35 46L35 45L33 45L33 43L32 43L32 42L35 42L35 43L34 43L34 44L38 44L38 46L39 46L39 44L40 44L40 45L41 45L41 46L42 46L42 47L43 47L43 48L44 48L44 49L43 49L43 50L44 50L44 51L45 51L45 50L47 50L47 52L49 52L49 51L48 51L48 50L49 50L49 49L50 49L50 50L51 50L51 51L50 51L50 54L51 54L51 51L53 51L53 50L52 50L52 49L50 49L50 48L52 48L52 47L50 47L50 46L51 46L51 45L50 45L50 44L52 44L52 42L51 42L51 40L52 40L52 41L54 41L54 42L53 42L53 45L54 45L54 46L56 46L56 47L57 47L57 48L59 48L59 45L60 45L60 44L59 44L59 43L60 43L60 42L59 42L59 41L56 41L56 40L60 40L60 39L57 39L57 38L58 38L58 37L56 37L56 34L57 34L57 33L53 33L53 34L52 34L52 35L54 35L54 36L53 36L53 37L54 37L54 36L55 36L55 37L56 37L56 38L55 38L55 39L54 39L54 40L53 40L53 38L52 38L52 39L51 39L51 40L50 40L50 38L51 38L51 36L49 36L49 35L50 35L50 34L51 34L51 33L52 33L52 32L49 32L49 31L50 31L50 30L51 30L51 31L52 31L52 29L51 29L51 28L54 28L54 26L53 26L53 25L55 25L55 28L56 28L56 27L57 27L57 26L56 26L56 25L57 25L57 24L54 24L54 23L56 23L56 22L54 22L54 21L55 21L55 20L56 20L56 18L53 18L53 17L55 17L55 16L52 16L52 15L57 15L57 14L56 14L56 13L57 13L57 11L56 11L56 9L55 9L55 10L54 10L54 9L52 9L52 10L53 10L53 11L52 11L52 12L53 12L53 13L51 13L51 12L49 12L49 15L48 15L48 16L49 16L49 17L45 17L45 16L44 16L44 15L46 15L46 16L47 16L47 15L46 15L46 14L47 14L47 13L46 13L46 14L45 14L45 12L44 12L44 15L43 15L43 14L41 14L41 12L40 12L40 11L39 11L39 12L38 12L38 10L39 10L39 8L37 8L37 7L38 7L38 6L37 6L37 7L36 7L36 5L35 5L35 4L36 4L36 3L37 3L37 2ZM51 3L51 4L52 4L52 3ZM11 4L11 8L10 8L10 9L11 9L11 8L13 8L13 7L14 7L14 6L13 6L13 4ZM43 4L43 5L44 5L44 4ZM17 5L17 6L16 6L16 8L15 8L15 9L14 9L14 10L15 10L15 9L18 9L18 10L19 10L19 11L18 11L18 12L17 12L17 11L14 11L14 12L13 12L13 13L14 13L14 12L15 12L15 13L19 13L19 12L20 12L20 13L21 13L21 14L20 14L20 16L17 16L17 17L16 17L16 18L15 18L15 19L14 19L14 18L12 18L12 19L10 19L10 20L9 20L9 19L8 19L8 20L6 20L6 21L7 21L7 22L6 22L6 23L7 23L7 24L10 24L10 25L11 25L11 26L10 26L10 27L11 27L11 26L12 26L12 28L11 28L11 29L12 29L12 30L13 30L13 29L14 29L14 30L15 30L15 32L16 32L16 31L17 31L17 33L19 33L19 32L18 32L18 30L16 30L16 29L21 29L21 30L20 30L20 31L21 31L21 30L23 30L23 29L24 29L24 32L23 32L23 33L24 33L24 34L25 34L25 33L26 33L26 34L27 34L27 35L26 35L26 36L25 36L25 35L24 35L24 36L25 36L25 37L22 37L22 38L21 38L21 39L19 39L19 40L20 40L20 41L22 41L22 42L25 42L25 41L26 41L26 43L28 43L28 42L27 42L27 41L28 41L28 40L27 40L27 41L26 41L26 40L25 40L25 39L26 39L26 38L27 38L27 39L28 39L28 38L29 38L29 40L30 40L30 41L31 41L31 42L30 42L30 43L31 43L31 44L30 44L30 45L28 45L28 46L27 46L27 45L24 45L24 43L23 43L23 45L21 45L21 42L20 42L20 43L19 43L19 44L16 44L16 43L18 43L18 42L19 42L19 41L18 41L18 42L16 42L16 43L15 43L15 42L14 42L14 43L13 43L13 44L12 44L12 46L15 46L15 47L14 47L14 48L15 48L15 49L14 49L14 50L13 50L13 51L14 51L14 50L15 50L15 49L16 49L16 47L19 47L19 48L17 48L17 49L19 49L19 48L20 48L20 49L21 49L21 48L20 48L20 47L19 47L19 46L16 46L16 45L19 45L19 44L20 44L20 45L21 45L21 47L22 47L22 48L25 48L25 49L24 49L24 50L23 50L23 49L22 49L22 50L23 50L23 53L21 53L21 52L22 52L22 51L21 51L21 52L20 52L20 53L21 53L21 56L20 56L20 57L22 57L22 56L24 56L24 55L23 55L23 54L25 54L25 53L26 53L26 51L25 51L25 49L26 49L26 50L27 50L27 49L28 49L28 50L29 50L29 51L30 51L30 49L31 49L31 50L32 50L32 47L31 47L31 46L30 46L30 45L31 45L31 44L32 44L32 43L31 43L31 42L32 42L32 39L34 39L34 40L33 40L33 41L34 41L34 40L35 40L35 39L36 39L36 38L37 38L37 40L36 40L36 41L37 41L37 42L36 42L36 43L37 43L37 42L38 42L38 43L39 43L39 42L38 42L38 41L39 41L39 40L41 40L41 41L40 41L40 44L41 44L41 43L42 43L42 44L43 44L43 45L42 45L42 46L43 46L43 47L44 47L44 48L45 48L45 49L47 49L47 47L46 47L46 46L45 46L45 47L44 47L44 44L45 44L45 45L47 45L47 46L48 46L48 47L49 47L49 46L50 46L50 45L49 45L49 44L48 44L48 43L47 43L47 42L50 42L50 40L47 40L47 39L49 39L49 38L50 38L50 37L49 37L49 36L47 36L47 38L45 38L45 37L44 37L44 36L46 36L46 35L48 35L48 34L49 34L49 32L48 32L48 34L45 34L45 33L44 33L44 32L45 32L45 31L49 31L49 28L51 28L51 27L49 27L49 28L47 28L47 27L48 27L48 26L50 26L50 25L51 25L51 24L52 24L52 25L53 25L53 24L52 24L52 23L53 23L53 22L50 22L50 21L49 21L49 20L51 20L51 21L54 21L54 19L52 19L52 18L50 18L50 19L49 19L49 18L48 18L48 19L49 19L49 20L47 20L47 18L44 18L44 20L43 20L43 19L42 19L42 18L43 18L43 17L44 17L44 16L43 16L43 17L42 17L42 15L41 15L41 14L38 14L38 12L36 12L36 13L37 13L37 14L38 14L38 15L37 15L37 16L35 16L35 18L34 18L34 17L31 17L31 19L29 19L29 18L30 18L30 17L29 17L29 16L28 16L28 15L29 15L29 14L28 14L28 13L24 13L24 14L25 14L25 15L24 15L24 16L25 16L25 15L27 15L27 16L28 16L28 18L27 18L27 17L26 17L26 18L25 18L25 17L24 17L24 18L25 18L25 19L27 19L27 20L28 20L28 19L29 19L29 20L31 20L31 21L28 21L28 23L27 23L27 25L26 25L26 23L25 23L25 21L22 21L22 19L23 19L23 17L22 17L22 19L21 19L21 18L20 18L20 17L21 17L21 15L22 15L22 14L23 14L23 13L21 13L21 11L20 11L20 10L19 10L19 9L18 9L18 8L17 8L17 6L18 6L18 7L19 7L19 6L18 6L18 5ZM29 5L29 8L32 8L32 5ZM34 5L34 7L35 7L35 9L37 9L37 8L36 8L36 7L35 7L35 5ZM9 6L9 7L10 7L10 6ZM12 6L12 7L13 7L13 6ZM20 6L20 7L21 7L21 6ZM24 6L24 8L25 8L25 9L22 9L22 10L23 10L23 11L24 11L24 12L25 12L25 9L26 9L26 8L25 8L25 6ZM30 6L30 7L31 7L31 6ZM39 6L39 7L40 7L40 6ZM43 6L43 7L44 7L44 6ZM1 9L1 11L2 11L2 9ZM29 9L29 10L30 10L30 9ZM42 9L42 10L43 10L43 9ZM57 9L57 10L58 10L58 9ZM6 10L6 11L7 11L7 10ZM12 10L12 11L13 11L13 10ZM33 10L33 13L32 13L32 14L31 14L31 15L30 15L30 16L31 16L31 15L32 15L32 14L33 14L33 15L36 15L36 14L34 14L34 13L35 13L35 12L34 12L34 11L35 11L35 10ZM36 10L36 11L37 11L37 10ZM46 11L46 12L47 12L47 11ZM53 11L53 12L54 12L54 14L55 14L55 13L56 13L56 12L54 12L54 11ZM39 12L39 13L40 13L40 12ZM42 12L42 13L43 13L43 12ZM58 13L58 14L59 14L59 13ZM18 14L18 15L19 15L19 14ZM50 14L50 15L52 15L52 14ZM38 15L38 16L39 16L39 17L38 17L38 18L37 18L37 19L36 19L36 18L35 18L35 19L36 19L36 20L35 20L35 21L34 21L34 22L35 22L35 23L33 23L33 22L32 22L32 21L31 21L31 22L32 22L32 23L31 23L31 24L30 24L30 23L28 23L28 24L29 24L29 25L28 25L28 26L29 26L29 27L27 27L27 26L26 26L26 25L25 25L25 24L23 24L23 22L21 22L21 21L20 21L20 24L21 24L21 23L22 23L22 25L25 25L25 27L27 27L27 28L24 28L24 29L28 29L28 28L29 28L29 27L31 27L31 26L30 26L30 25L32 25L32 24L33 24L33 26L32 26L32 27L33 27L33 28L34 28L34 30L35 30L35 28L37 28L37 29L36 29L36 31L34 31L34 32L37 32L37 33L38 33L38 34L36 34L36 33L34 33L34 34L33 34L33 33L29 33L29 35L28 35L28 37L29 37L29 38L31 38L31 39L32 39L32 37L30 37L30 36L31 36L31 35L30 35L30 34L33 34L33 35L32 35L32 36L33 36L33 35L34 35L34 36L35 36L35 37L33 37L33 38L34 38L34 39L35 39L35 37L36 37L36 36L37 36L37 35L40 35L40 33L41 33L41 32L40 32L40 33L38 33L38 32L39 32L39 31L38 31L38 30L40 30L40 31L43 31L43 32L44 32L44 31L45 31L45 30L42 30L42 29L41 29L41 28L40 28L40 27L42 27L42 26L41 26L41 25L45 25L45 24L44 24L44 23L45 23L45 22L47 22L47 23L46 23L46 24L49 24L49 25L50 25L50 24L51 24L51 23L50 23L50 22L47 22L47 21L45 21L45 20L46 20L46 19L45 19L45 20L44 20L44 22L42 22L42 21L43 21L43 20L42 20L42 19L41 19L41 15L40 15L40 16L39 16L39 15ZM50 16L50 17L52 17L52 16ZM17 17L17 19L18 19L18 18L19 18L19 20L21 20L21 19L20 19L20 18L19 18L19 17ZM39 17L39 20L38 20L38 19L37 19L37 20L36 20L36 21L35 21L35 22L36 22L36 23L37 23L37 22L36 22L36 21L37 21L37 20L38 20L38 21L39 21L39 20L41 20L41 19L40 19L40 17ZM6 18L6 19L7 19L7 18ZM32 18L32 19L31 19L31 20L32 20L32 19L33 19L33 18ZM60 18L60 19L61 19L61 18ZM13 19L13 21L11 21L11 20L10 20L10 21L11 21L11 23L12 23L12 22L13 22L13 21L14 21L14 19ZM15 19L15 20L16 20L16 19ZM51 19L51 20L52 20L52 19ZM8 21L8 22L7 22L7 23L8 23L8 22L9 22L9 23L10 23L10 22L9 22L9 21ZM16 21L16 22L17 22L17 23L16 23L16 24L17 24L17 25L14 25L14 26L13 26L13 24L11 24L11 25L12 25L12 26L13 26L13 27L16 27L16 28L14 28L14 29L16 29L16 28L17 28L17 27L16 27L16 26L17 26L17 25L18 25L18 24L17 24L17 23L18 23L18 22L19 22L19 21L18 21L18 22L17 22L17 21ZM26 21L26 22L27 22L27 21ZM40 21L40 22L38 22L38 23L39 23L39 24L38 24L38 25L37 25L37 24L36 24L36 26L33 26L33 27L34 27L34 28L35 28L35 27L36 27L36 26L37 26L37 28L38 28L38 29L37 29L37 30L38 30L38 29L40 29L40 28L39 28L39 27L40 27L40 26L38 26L38 25L40 25L40 24L41 24L41 23L40 23L40 22L41 22L41 21ZM14 23L14 24L15 24L15 23ZM42 23L42 24L43 24L43 23ZM49 23L49 24L50 24L50 23ZM2 25L2 26L3 26L3 25ZM20 25L20 26L18 26L18 28L21 28L21 29L23 29L23 27L24 27L24 26L21 26L21 25ZM46 25L46 26L43 26L43 27L46 27L46 26L48 26L48 25ZM58 25L58 26L59 26L59 25ZM20 26L20 27L21 27L21 28L22 28L22 27L21 27L21 26ZM0 28L0 29L1 29L1 28ZM12 28L12 29L13 29L13 28ZM44 28L44 29L45 29L45 28ZM5 29L5 32L8 32L8 29ZM29 29L29 32L32 32L32 29ZM46 29L46 30L48 30L48 29ZM53 29L53 32L56 32L56 29ZM6 30L6 31L7 31L7 30ZM25 30L25 32L24 32L24 33L25 33L25 32L26 32L26 33L27 33L27 34L28 34L28 33L27 33L27 32L28 32L28 30ZM30 30L30 31L31 31L31 30ZM54 30L54 31L55 31L55 30ZM26 31L26 32L27 32L27 31ZM2 32L2 34L3 34L3 33L4 33L4 34L5 34L5 35L4 35L4 36L7 36L7 35L6 35L6 34L7 34L7 33L4 33L4 32ZM20 32L20 33L21 33L21 32ZM34 34L34 35L35 35L35 36L36 36L36 34ZM41 34L41 35L42 35L42 36L38 36L38 37L37 37L37 38L40 38L40 39L42 39L42 41L43 41L43 39L45 39L45 38L42 38L42 36L44 36L44 35L45 35L45 34ZM54 34L54 35L55 35L55 34ZM2 35L2 36L3 36L3 35ZM26 36L26 37L25 37L25 38L26 38L26 37L27 37L27 36ZM60 36L60 37L61 37L61 36ZM19 37L19 38L20 38L20 37ZM48 37L48 38L49 38L49 37ZM22 38L22 39L24 39L24 38ZM38 39L38 40L37 40L37 41L38 41L38 40L39 40L39 39ZM55 39L55 40L56 40L56 39ZM22 40L22 41L23 41L23 40ZM24 40L24 41L25 41L25 40ZM44 40L44 42L45 42L45 40ZM0 41L0 42L1 42L1 43L2 43L2 41ZM46 41L46 42L47 42L47 41ZM55 41L55 42L54 42L54 43L56 43L56 41ZM6 43L6 44L4 44L4 45L5 45L5 46L4 46L4 48L3 48L3 49L4 49L4 50L5 50L5 49L4 49L4 48L7 48L7 47L6 47L6 46L7 46L7 45L6 45L6 44L7 44L7 43ZM43 43L43 44L44 44L44 43ZM46 43L46 44L47 44L47 43ZM0 44L0 45L1 45L1 44ZM56 44L56 45L59 45L59 44ZM8 45L8 46L9 46L9 45ZM23 45L23 46L22 46L22 47L25 47L25 46L24 46L24 45ZM28 46L28 47L26 47L26 49L27 49L27 48L28 48L28 49L29 49L29 47L30 47L30 46ZM45 47L45 48L46 48L46 47ZM48 48L48 49L49 49L49 48ZM6 49L6 50L7 50L7 49ZM10 49L10 50L9 50L9 51L11 51L11 49ZM34 49L34 50L36 50L36 49ZM18 50L18 51L19 51L19 50ZM60 50L60 51L61 51L61 50ZM3 51L3 52L4 52L4 51ZM24 52L24 53L25 53L25 52ZM36 52L36 53L38 53L38 52ZM29 53L29 56L32 56L32 53ZM53 53L53 56L56 56L56 53ZM57 53L57 56L59 56L59 55L58 55L58 53ZM30 54L30 55L31 55L31 54ZM34 54L34 55L35 55L35 54ZM39 54L39 55L41 55L41 54ZM54 54L54 55L55 55L55 54ZM25 55L25 57L26 57L26 55ZM17 56L17 57L18 57L18 56ZM38 56L38 58L39 58L39 57L41 57L41 56ZM44 56L44 57L45 57L45 56ZM57 57L57 58L56 58L56 59L55 59L55 60L60 60L60 57L59 57L59 58L58 58L58 57ZM9 58L9 60L10 60L10 58ZM52 58L52 59L54 59L54 58ZM30 59L30 60L31 60L31 61L32 61L32 60L33 60L33 59L32 59L32 60L31 60L31 59ZM0 0L0 7L7 7L7 0ZM1 1L1 6L6 6L6 1ZM2 2L2 5L5 5L5 2ZM54 0L54 7L61 7L61 0ZM55 1L55 6L60 6L60 1ZM56 2L56 5L59 5L59 2ZM0 54L0 61L7 61L7 54ZM1 55L1 60L6 60L6 55ZM2 56L2 59L5 59L5 56Z" fill="#000000"/></g></g></svg>
