<?xml version="1.0" encoding="UTF-8"?>
<svg xmlns="http://www.w3.org/2000/svg" version="1.1" width="200" height="200" viewBox="0 0 200 200"><rect x="0" y="0" width="200" height="200" fill="#ffffff"/><g transform="scale(3.279)"><g transform="translate(0,0)"><path fill-rule="evenodd" d="M9 0L9 1L8 1L8 2L9 2L9 1L10 1L10 3L8 3L8 4L10 4L10 5L8 5L8 7L9 7L9 6L10 6L10 7L11 7L11 8L6 8L6 9L5 9L5 8L0 8L0 10L1 10L1 9L2 9L2 10L3 10L3 11L8 11L8 12L5 12L5 13L7 13L7 14L5 14L5 15L4 15L4 14L3 14L3 12L2 12L2 11L1 11L1 12L0 12L0 13L1 13L1 14L0 14L0 16L1 16L1 14L3 14L3 15L2 15L2 17L3 17L3 16L5 16L5 15L8 15L8 16L6 16L6 17L4 17L4 19L2 19L2 18L1 18L1 17L0 17L0 19L2 19L2 20L4 20L4 23L5 23L5 24L4 24L4 25L3 25L3 24L0 24L0 29L1 29L1 28L2 28L2 30L3 30L3 31L4 31L4 32L2 32L2 33L3 33L3 34L1 34L1 35L0 35L0 36L1 36L1 35L3 35L3 36L2 36L2 37L3 37L3 38L4 38L4 39L3 39L3 40L2 40L2 43L1 43L1 45L0 45L0 47L1 47L1 49L2 49L2 51L0 51L0 53L4 53L4 52L5 52L5 51L11 51L11 54L12 54L12 55L11 55L11 56L12 56L12 57L10 57L10 59L9 59L9 56L10 56L10 55L9 55L9 54L10 54L10 52L8 52L8 55L9 55L9 56L8 56L8 61L9 61L9 60L10 60L10 61L12 61L12 59L13 59L13 61L14 61L14 59L13 59L13 57L14 57L14 56L16 56L16 57L17 57L17 58L15 58L15 61L17 61L17 60L16 60L16 59L17 59L17 58L18 58L18 59L19 59L19 58L18 58L18 57L19 57L19 56L20 56L20 57L21 57L21 58L20 58L20 61L21 61L21 58L23 58L23 61L24 61L24 59L25 59L25 57L26 57L26 58L27 58L27 57L29 57L29 58L31 58L31 60L34 60L34 61L39 61L39 60L41 60L41 61L44 61L44 60L47 60L47 61L50 61L50 59L51 59L51 61L52 61L52 60L53 60L53 61L54 61L54 60L55 60L55 58L58 58L58 59L56 59L56 60L57 60L57 61L61 61L61 57L60 57L60 60L58 60L58 59L59 59L59 58L58 58L58 57L59 57L59 56L61 56L61 54L60 54L60 53L61 53L61 50L60 50L60 49L61 49L61 46L59 46L59 44L60 44L60 45L61 45L61 42L60 42L60 41L61 41L61 38L60 38L60 37L61 37L61 36L60 36L60 35L61 35L61 34L60 34L60 32L57 32L57 28L58 28L58 31L59 31L59 29L60 29L60 28L61 28L61 26L60 26L60 25L61 25L61 22L60 22L60 21L61 21L61 20L60 20L60 19L61 19L61 18L59 18L59 16L57 16L57 17L56 17L56 16L55 16L55 15L56 15L56 12L58 12L58 13L57 13L57 14L59 14L59 12L60 12L60 11L61 11L61 10L60 10L60 11L59 11L59 10L58 10L58 8L57 8L57 9L56 9L56 8L55 8L55 9L54 9L54 8L52 8L52 7L53 7L53 6L52 6L52 7L51 7L51 5L52 5L52 4L53 4L53 0L51 0L51 2L50 2L50 1L49 1L49 2L50 2L50 4L49 4L49 3L46 3L46 2L48 2L48 1L45 1L45 0L44 0L44 3L43 3L43 2L42 2L42 3L43 3L43 4L41 4L41 5L40 5L40 3L41 3L41 1L39 1L39 3L38 3L38 4L39 4L39 5L37 5L37 3L36 3L36 2L35 2L35 1L38 1L38 0L35 0L35 1L33 1L33 0L32 0L32 1L30 1L30 0L29 0L29 1L30 1L30 3L31 3L31 4L29 4L29 3L28 3L28 4L27 4L27 6L26 6L26 8L28 8L28 9L26 9L26 10L27 10L27 11L24 11L24 12L27 12L27 13L24 13L24 14L27 14L27 15L26 15L26 16L27 16L27 17L21 17L21 16L20 16L20 15L19 15L19 16L18 16L18 17L17 17L17 19L18 19L18 17L19 17L19 16L20 16L20 17L21 17L21 20L20 20L20 19L19 19L19 20L16 20L16 19L15 19L15 18L16 18L16 17L15 17L15 18L14 18L14 17L13 17L13 18L12 18L12 17L11 17L11 18L10 18L10 19L7 19L7 18L9 18L9 17L10 17L10 16L9 16L9 15L8 15L8 13L12 13L12 12L13 12L13 14L15 14L15 16L16 16L16 15L17 15L17 14L16 14L16 13L19 13L19 14L20 14L20 13L21 13L21 15L23 15L23 13L21 13L21 12L20 12L20 9L21 9L21 11L22 11L22 10L25 10L25 9L21 9L21 6L20 6L20 9L19 9L19 8L18 8L18 7L19 7L19 5L20 5L20 4L21 4L21 5L22 5L22 7L23 7L23 5L26 5L26 1L28 1L28 0L26 0L26 1L25 1L25 0L21 0L21 1L20 1L20 2L21 2L21 3L20 3L20 4L19 4L19 1L18 1L18 0L16 0L16 1L14 1L14 2L13 2L13 3L14 3L14 2L16 2L16 3L15 3L15 4L13 4L13 5L12 5L12 2L11 2L11 1L10 1L10 0ZM42 0L42 1L43 1L43 0ZM21 1L21 2L22 2L22 4L25 4L25 3L23 3L23 2L24 2L24 1L23 1L23 2L22 2L22 1ZM32 1L32 2L31 2L31 3L32 3L32 2L33 2L33 1ZM34 2L34 3L33 3L33 10L32 10L32 9L28 9L28 10L29 10L29 11L28 11L28 12L29 12L29 14L28 14L28 13L27 13L27 14L28 14L28 15L27 15L27 16L28 16L28 17L30 17L30 16L29 16L29 15L31 15L31 20L30 20L30 19L27 19L27 18L25 18L25 20L24 20L24 19L23 19L23 18L22 18L22 19L23 19L23 20L21 20L21 21L20 21L20 20L19 20L19 21L18 21L18 22L19 22L19 24L21 24L21 25L20 25L20 27L19 27L19 25L13 25L13 24L14 24L14 23L16 23L16 24L17 24L17 21L16 21L16 20L14 20L14 19L13 19L13 21L14 21L14 23L13 23L13 22L12 22L12 20L11 20L11 21L10 21L10 20L9 20L9 22L11 22L11 24L12 24L12 26L11 26L11 25L10 25L10 23L8 23L8 25L10 25L10 26L9 26L9 27L10 27L10 26L11 26L11 27L12 27L12 26L13 26L13 30L12 30L12 28L11 28L11 29L10 29L10 30L9 30L9 31L11 31L11 33L12 33L12 34L13 34L13 36L14 36L14 37L15 37L15 38L13 38L13 39L12 39L12 35L11 35L11 36L10 36L10 37L11 37L11 38L10 38L10 39L8 39L8 37L9 37L9 36L8 36L8 37L5 37L5 35L6 35L6 36L7 36L7 35L6 35L6 34L9 34L9 33L10 33L10 32L9 32L9 33L5 33L5 35L4 35L4 34L3 34L3 35L4 35L4 36L3 36L3 37L5 37L5 41L3 41L3 43L2 43L2 44L3 44L3 43L6 43L6 44L5 44L5 45L6 45L6 46L5 46L5 47L4 47L4 48L3 48L3 47L2 47L2 46L4 46L4 45L2 45L2 46L1 46L1 47L2 47L2 49L3 49L3 50L4 50L4 49L5 49L5 50L8 50L8 49L9 49L9 47L8 47L8 46L10 46L10 42L12 42L12 43L11 43L11 44L12 44L12 43L13 43L13 42L14 42L14 41L12 41L12 40L13 40L13 39L14 39L14 40L15 40L15 42L16 42L16 44L15 44L15 43L14 43L14 44L13 44L13 46L12 46L12 45L11 45L11 46L12 46L12 48L13 48L13 47L14 47L14 49L13 49L13 51L12 51L12 49L11 49L11 47L10 47L10 49L11 49L11 51L12 51L12 53L13 53L13 55L12 55L12 56L14 56L14 55L15 55L15 52L16 52L16 51L17 51L17 53L16 53L16 54L17 54L17 56L19 56L19 55L22 55L22 56L21 56L21 57L23 57L23 58L24 58L24 57L25 57L25 56L23 56L23 54L24 54L24 53L25 53L25 54L27 54L27 55L26 55L26 57L27 57L27 56L28 56L28 54L27 54L27 53L28 53L28 52L27 52L27 48L28 48L28 49L29 49L29 50L28 50L28 51L29 51L29 50L30 50L30 49L29 49L29 47L30 47L30 46L31 46L31 49L32 49L32 48L33 48L33 50L36 50L36 52L35 52L35 53L34 53L34 51L32 51L32 50L31 50L31 51L32 51L32 52L33 52L33 54L35 54L35 55L34 55L34 57L33 57L33 58L32 58L32 59L33 59L33 58L35 58L35 59L34 59L34 60L39 60L39 59L38 59L38 58L39 58L39 57L40 57L40 58L41 58L41 60L42 60L42 58L41 58L41 56L39 56L39 55L41 55L41 52L42 52L42 53L43 53L43 52L42 52L42 51L43 51L43 50L45 50L45 49L46 49L46 50L47 50L47 51L44 51L44 55L45 55L45 56L43 56L43 54L42 54L42 56L43 56L43 60L44 60L44 59L45 59L45 58L47 58L47 56L46 56L46 55L45 55L45 54L47 54L47 55L48 55L48 56L49 56L49 57L50 57L50 58L52 58L52 59L54 59L54 58L55 58L55 57L54 57L54 58L52 58L52 57L50 57L50 56L51 56L51 55L50 55L50 54L52 54L52 53L51 53L51 52L49 52L49 51L48 51L48 49L46 49L46 48L47 48L47 47L46 47L46 48L44 48L44 47L45 47L45 46L48 46L48 48L49 48L49 46L48 46L48 45L46 45L46 44L49 44L49 45L50 45L50 46L51 46L51 45L50 45L50 44L49 44L49 43L50 43L50 42L51 42L51 44L52 44L52 45L53 45L53 46L52 46L52 47L50 47L50 50L51 50L51 48L52 48L52 47L53 47L53 48L54 48L54 49L56 49L56 50L55 50L55 51L53 51L53 49L52 49L52 51L53 51L53 52L57 52L57 56L59 56L59 55L60 55L60 54L59 54L59 55L58 55L58 52L59 52L59 51L58 51L58 50L59 50L59 49L56 49L56 48L54 48L54 47L53 47L53 46L54 46L54 45L55 45L55 46L56 46L56 47L57 47L57 46L58 46L58 44L59 44L59 43L60 43L60 42L59 42L59 41L60 41L60 38L59 38L59 39L57 39L57 40L59 40L59 41L58 41L58 42L57 42L57 41L56 41L56 38L58 38L58 37L56 37L56 36L55 36L55 35L53 35L53 33L52 33L52 32L51 32L51 31L52 31L52 29L50 29L50 26L51 26L51 27L54 27L54 26L53 26L53 25L55 25L55 27L57 27L57 26L59 26L59 25L60 25L60 24L59 24L59 23L60 23L60 22L59 22L59 21L60 21L60 20L59 20L59 18L58 18L58 17L57 17L57 18L56 18L56 17L55 17L55 16L54 16L54 15L55 15L55 14L53 14L53 13L55 13L55 12L54 12L54 11L56 11L56 9L55 9L55 10L54 10L54 9L51 9L51 7L50 7L50 5L48 5L48 4L45 4L45 3L44 3L44 5L43 5L43 7L44 7L44 11L41 11L41 8L42 8L42 9L43 9L43 8L42 8L42 5L41 5L41 8L39 8L39 7L40 7L40 5L39 5L39 7L38 7L38 6L37 6L37 5L36 5L36 6L35 6L35 7L34 7L34 5L35 5L35 4L36 4L36 3L35 3L35 2ZM10 3L10 4L11 4L11 3ZM51 3L51 4L52 4L52 3ZM15 4L15 5L14 5L14 6L13 6L13 8L11 8L11 9L12 9L12 10L11 10L11 11L9 11L9 9L8 9L8 11L9 11L9 12L12 12L12 11L15 11L15 12L14 12L14 13L16 13L16 10L17 10L17 9L15 9L15 8L17 8L17 7L18 7L18 5L19 5L19 4ZM29 5L29 8L32 8L32 5ZM45 5L45 6L44 6L44 7L45 7L45 9L47 9L47 8L46 8L46 7L47 7L47 6L48 6L48 7L49 7L49 6L48 6L48 5ZM11 6L11 7L12 7L12 6ZM14 6L14 8L13 8L13 9L14 9L14 10L15 10L15 9L14 9L14 8L15 8L15 6ZM16 6L16 7L17 7L17 6ZM24 6L24 8L25 8L25 6ZM27 6L27 7L28 7L28 6ZM30 6L30 7L31 7L31 6ZM36 6L36 7L37 7L37 8L35 8L35 9L36 9L36 10L33 10L33 11L32 11L32 13L30 13L30 14L34 14L34 16L33 16L33 15L32 15L32 16L33 16L33 17L32 17L32 18L33 18L33 19L32 19L32 20L33 20L33 21L32 21L32 22L31 22L31 21L30 21L30 22L31 22L31 23L29 23L29 22L28 22L28 21L29 21L29 20L27 20L27 19L26 19L26 20L25 20L25 21L24 21L24 23L23 23L23 21L22 21L22 24L24 24L24 23L27 23L27 24L28 24L28 23L29 23L29 24L31 24L31 25L30 25L30 26L33 26L33 27L32 27L32 28L31 28L31 27L29 27L29 25L26 25L26 26L25 26L25 25L24 25L24 27L23 27L23 25L21 25L21 26L22 26L22 27L21 27L21 28L20 28L20 29L19 29L19 28L16 28L16 27L18 27L18 26L14 26L14 28L15 28L15 29L14 29L14 30L13 30L13 31L12 31L12 30L11 30L11 31L12 31L12 32L14 32L14 30L15 30L15 33L13 33L13 34L14 34L14 35L16 35L16 36L15 36L15 37L16 37L16 36L17 36L17 35L18 35L18 37L19 37L19 40L18 40L18 41L19 41L19 42L17 42L17 44L16 44L16 45L15 45L15 44L14 44L14 45L15 45L15 46L14 46L14 47L15 47L15 50L14 50L14 51L13 51L13 53L14 53L14 52L15 52L15 50L16 50L16 47L18 47L18 49L19 49L19 50L18 50L18 51L20 51L20 49L22 49L22 50L23 50L23 51L24 51L24 52L25 52L25 53L26 53L26 52L25 52L25 51L26 51L26 50L25 50L25 49L26 49L26 48L27 48L27 47L29 47L29 45L31 45L31 44L32 44L32 43L33 43L33 42L32 42L32 43L31 43L31 42L30 42L30 41L32 41L32 40L30 40L30 41L29 41L29 39L28 39L28 38L30 38L30 39L31 39L31 38L32 38L32 39L35 39L35 38L32 38L32 36L31 36L31 33L34 33L34 32L35 32L35 33L37 33L37 34L36 34L36 35L35 35L35 34L32 34L32 35L33 35L33 36L36 36L36 38L37 38L37 40L36 40L36 42L34 42L34 44L35 44L35 46L34 46L34 45L32 45L32 47L33 47L33 48L34 48L34 47L35 47L35 46L36 46L36 47L37 47L37 48L36 48L36 50L37 50L37 49L38 49L38 47L39 47L39 48L40 48L40 47L41 47L41 46L43 46L43 47L42 47L42 48L41 48L41 49L40 49L40 50L38 50L38 51L39 51L39 52L41 52L41 50L43 50L43 49L44 49L44 48L43 48L43 47L44 47L44 45L42 45L42 44L43 44L43 43L42 43L42 44L41 44L41 43L40 43L40 42L38 42L38 43L39 43L39 44L41 44L41 45L39 45L39 46L38 46L38 44L35 44L35 43L36 43L36 42L37 42L37 41L39 41L39 40L41 40L41 41L42 41L42 42L43 42L43 41L42 41L42 39L41 39L41 38L43 38L43 39L44 39L44 40L47 40L47 38L48 38L48 39L49 39L49 40L48 40L48 41L49 41L49 40L51 40L51 41L52 41L52 40L51 40L51 38L50 38L50 39L49 39L49 36L47 36L47 38L46 38L46 39L45 39L45 37L44 37L44 36L46 36L46 35L47 35L47 34L46 34L46 35L44 35L44 33L43 33L43 31L42 31L42 30L43 30L43 29L42 29L42 28L45 28L45 29L44 29L44 30L45 30L45 31L44 31L44 32L45 32L45 31L46 31L46 32L47 32L47 33L49 33L49 34L48 34L48 35L49 35L49 34L50 34L50 35L51 35L51 36L50 36L50 37L52 37L52 38L53 38L53 39L55 39L55 36L53 36L53 35L51 35L51 34L52 34L52 33L51 33L51 34L50 34L50 33L49 33L49 32L50 32L50 31L51 31L51 30L50 30L50 29L49 29L49 28L48 28L48 30L45 30L45 29L47 29L47 28L46 28L46 27L47 27L47 26L45 26L45 25L47 25L47 24L45 24L45 25L44 25L44 24L43 24L43 23L48 23L48 22L49 22L49 21L52 21L52 20L51 20L51 19L52 19L52 18L50 18L50 16L47 16L47 15L48 15L48 14L49 14L49 15L52 15L52 16L51 16L51 17L52 17L52 16L53 16L53 19L54 19L54 21L53 21L53 22L50 22L50 23L51 23L51 24L50 24L50 25L51 25L51 24L52 24L52 25L53 25L53 24L52 24L52 23L53 23L53 22L55 22L55 23L54 23L54 24L57 24L57 25L56 25L56 26L57 26L57 25L59 25L59 24L57 24L57 23L59 23L59 22L58 22L58 21L59 21L59 20L58 20L58 18L57 18L57 19L56 19L56 20L57 20L57 22L55 22L55 19L54 19L54 18L55 18L55 17L54 17L54 16L53 16L53 15L52 15L52 13L53 13L53 12L50 12L50 13L51 13L51 14L49 14L49 12L48 12L48 14L46 14L46 17L47 17L47 18L45 18L45 17L44 17L44 18L45 18L45 19L44 19L44 20L43 20L43 17L41 17L41 19L38 19L38 21L39 21L39 22L38 22L38 25L37 25L37 24L36 24L36 23L35 23L35 22L33 22L33 21L34 21L34 20L33 20L33 19L37 19L37 18L38 18L38 17L37 17L37 16L38 16L38 15L39 15L39 16L40 16L40 15L39 15L39 14L38 14L38 13L40 13L40 12L41 12L41 15L42 15L42 16L45 16L45 13L44 13L44 15L42 15L42 14L43 14L43 12L41 12L41 11L39 11L39 10L38 10L38 9L37 9L37 8L38 8L38 7L37 7L37 6ZM45 6L45 7L46 7L46 6ZM48 8L48 10L46 10L46 11L48 11L48 10L49 10L49 9L50 9L50 8ZM59 8L59 9L60 9L60 8ZM4 9L4 10L5 10L5 9ZM6 9L6 10L7 10L7 9ZM18 9L18 12L19 12L19 13L20 13L20 12L19 12L19 9ZM37 10L37 11L34 11L34 12L33 12L33 13L34 13L34 14L36 14L36 15L35 15L35 16L34 16L34 17L33 17L33 18L37 18L37 17L35 17L35 16L37 16L37 13L38 13L38 12L39 12L39 11L38 11L38 10ZM50 10L50 11L53 11L53 10ZM57 10L57 11L58 11L58 12L59 12L59 11L58 11L58 10ZM30 11L30 12L31 12L31 11ZM44 11L44 12L45 12L45 11ZM1 12L1 13L2 13L2 12ZM35 12L35 13L37 13L37 12ZM10 14L10 15L11 15L11 16L12 16L12 15L11 15L11 14ZM60 14L60 15L61 15L61 14ZM13 15L13 16L14 16L14 15ZM24 15L24 16L25 16L25 15ZM60 16L60 17L61 17L61 16ZM6 17L6 18L7 18L7 17ZM39 17L39 18L40 18L40 17ZM4 19L4 20L7 20L7 21L5 21L5 22L8 22L8 20L7 20L7 19ZM41 19L41 20L40 20L40 21L41 21L41 20L42 20L42 19ZM45 19L45 20L44 20L44 21L43 21L43 22L42 22L42 23L41 23L41 22L40 22L40 23L39 23L39 25L38 25L38 26L37 26L37 25L35 25L35 24L34 24L34 23L33 23L33 22L32 22L32 23L33 23L33 24L34 24L34 25L33 25L33 26L35 26L35 27L34 27L34 28L37 28L37 29L38 29L38 30L35 30L35 29L34 29L34 30L35 30L35 31L36 31L36 32L37 32L37 31L38 31L38 30L40 30L40 32L39 32L39 33L38 33L38 35L36 35L36 36L37 36L37 38L39 38L39 39L40 39L40 38L39 38L39 37L38 37L38 36L39 36L39 35L43 35L43 36L44 36L44 35L43 35L43 34L41 34L41 33L42 33L42 32L41 32L41 30L40 30L40 29L41 29L41 28L42 28L42 26L41 26L41 28L39 28L39 27L40 27L40 25L41 25L41 24L42 24L42 25L43 25L43 27L45 27L45 26L44 26L44 25L43 25L43 24L42 24L42 23L43 23L43 22L44 22L44 21L45 21L45 22L48 22L48 21L47 21L47 20L50 20L50 19ZM26 20L26 21L25 21L25 22L27 22L27 23L28 23L28 22L27 22L27 20ZM36 20L36 22L37 22L37 20ZM45 20L45 21L46 21L46 20ZM0 21L0 23L1 23L1 22L2 22L2 23L3 23L3 21ZM19 21L19 22L20 22L20 21ZM6 23L6 24L5 24L5 25L4 25L4 28L3 28L3 27L2 27L2 26L3 26L3 25L2 25L2 26L1 26L1 27L2 27L2 28L3 28L3 29L4 29L4 28L5 28L5 27L6 27L6 28L7 28L7 27L6 27L6 26L7 26L7 25L6 25L6 24L7 24L7 23ZM12 23L12 24L13 24L13 23ZM40 23L40 24L41 24L41 23ZM48 24L48 25L49 25L49 24ZM26 26L26 27L27 27L27 28L25 28L25 27L24 27L24 28L21 28L21 29L20 29L20 32L22 32L22 33L25 33L25 35L24 35L24 34L21 34L21 33L20 33L20 34L19 34L19 33L18 33L18 30L19 30L19 29L16 29L16 30L17 30L17 32L16 32L16 33L15 33L15 34L16 34L16 33L17 33L17 34L19 34L19 35L20 35L20 34L21 34L21 35L22 35L22 36L21 36L21 37L20 37L20 40L19 40L19 41L20 41L20 42L19 42L19 45L18 45L18 44L17 44L17 45L16 45L16 46L17 46L17 45L18 45L18 47L19 47L19 49L20 49L20 48L21 48L21 47L19 47L19 45L20 45L20 46L21 46L21 45L23 45L23 46L22 46L22 47L23 47L23 48L22 48L22 49L25 49L25 48L26 48L26 47L27 47L27 46L28 46L28 45L27 45L27 44L29 44L29 41L28 41L28 39L27 39L27 38L28 38L28 37L27 37L27 35L26 35L26 33L27 33L27 32L26 32L26 30L25 30L25 32L23 32L23 31L24 31L24 29L28 29L28 28L29 28L29 27L27 27L27 26ZM36 26L36 27L37 27L37 28L38 28L38 29L39 29L39 28L38 28L38 27L39 27L39 26L38 26L38 27L37 27L37 26ZM48 26L48 27L49 27L49 26ZM58 27L58 28L59 28L59 27ZM5 29L5 32L8 32L8 29ZM22 29L22 30L23 30L23 29ZM29 29L29 32L32 32L32 29ZM53 29L53 32L56 32L56 29ZM6 30L6 31L7 31L7 30ZM27 30L27 31L28 31L28 30ZM30 30L30 31L31 31L31 30ZM48 30L48 31L47 31L47 32L49 32L49 31L50 31L50 30ZM54 30L54 31L55 31L55 30ZM60 30L60 31L61 31L61 30ZM33 31L33 32L34 32L34 31ZM29 33L29 35L30 35L30 33ZM56 33L56 34L57 34L57 33ZM58 33L58 34L59 34L59 33ZM23 35L23 36L24 36L24 35ZM25 35L25 37L24 37L24 38L25 38L25 37L26 37L26 35ZM57 35L57 36L59 36L59 37L60 37L60 36L59 36L59 35ZM40 36L40 37L41 37L41 36ZM52 36L52 37L53 37L53 36ZM21 37L21 38L22 38L22 39L21 39L21 40L23 40L23 37ZM30 37L30 38L31 38L31 37ZM0 38L0 40L1 40L1 38ZM6 38L6 39L7 39L7 38ZM15 38L15 40L16 40L16 41L17 41L17 40L16 40L16 39L18 39L18 38ZM11 39L11 40L12 40L12 39ZM24 39L24 40L25 40L25 41L24 41L24 42L25 42L25 43L24 43L24 44L23 44L23 45L24 45L24 47L25 47L25 46L27 46L27 45L24 45L24 44L27 44L27 43L28 43L28 42L27 42L27 41L26 41L26 40L27 40L27 39L26 39L26 40L25 40L25 39ZM6 40L6 41L5 41L5 42L6 42L6 43L7 43L7 44L6 44L6 45L8 45L8 44L9 44L9 43L7 43L7 42L6 42L6 41L7 41L7 40ZM53 40L53 42L54 42L54 43L55 43L55 40ZM8 41L8 42L9 42L9 41ZM22 41L22 42L23 42L23 41ZM25 41L25 42L26 42L26 43L27 43L27 42L26 42L26 41ZM44 41L44 44L45 44L45 43L47 43L47 42L45 42L45 41ZM20 42L20 43L21 43L21 44L20 44L20 45L21 45L21 44L22 44L22 43L21 43L21 42ZM48 42L48 43L49 43L49 42ZM56 42L56 43L57 43L57 44L56 44L56 45L57 45L57 44L58 44L58 43L57 43L57 42ZM30 43L30 44L31 44L31 43ZM52 43L52 44L53 44L53 45L54 45L54 44L53 44L53 43ZM36 45L36 46L37 46L37 47L38 47L38 46L37 46L37 45ZM6 46L6 47L5 47L5 49L8 49L8 47L7 47L7 46ZM33 46L33 47L34 47L34 46ZM39 46L39 47L40 47L40 46ZM6 47L6 48L7 48L7 47ZM58 47L58 48L59 48L59 47ZM42 48L42 49L43 49L43 48ZM56 50L56 51L57 51L57 50ZM3 51L3 52L4 52L4 51ZM6 52L6 53L7 53L7 52ZM18 52L18 53L17 53L17 54L18 54L18 55L19 55L19 54L20 54L20 53L21 53L21 54L23 54L23 53L21 53L21 52L20 52L20 53L19 53L19 52ZM36 52L36 53L35 53L35 54L37 54L37 55L39 55L39 54L37 54L37 53L38 53L38 52ZM45 52L45 53L46 53L46 52ZM47 52L47 53L49 53L49 52ZM18 53L18 54L19 54L19 53ZM29 53L29 56L32 56L32 53ZM53 53L53 56L56 56L56 53ZM30 54L30 55L31 55L31 54ZM48 54L48 55L49 55L49 54ZM54 54L54 55L55 55L55 54ZM36 56L36 57L37 57L37 56ZM38 56L38 57L39 57L39 56ZM45 56L45 57L44 57L44 58L45 58L45 57L46 57L46 56ZM11 58L11 59L12 59L12 58ZM36 58L36 59L37 59L37 58ZM26 59L26 60L27 60L27 61L28 61L28 60L29 60L29 59ZM47 59L47 60L49 60L49 59ZM18 60L18 61L19 61L19 60ZM0 0L0 7L7 7L7 0ZM1 1L1 6L6 6L6 1ZM2 2L2 5L5 5L5 2ZM54 0L54 7L61 7L61 0ZM55 1L55 6L60 6L60 1ZM56 2L56 5L59 5L59 2ZM0 54L0 61L7 61L7 54ZM1 55L1 60L6 60L6 55ZM2 56L2 59L5 59L5 56Z" fill="#000000"/></g></g></svg>
