<?xml version="1.0" encoding="UTF-8"?>
<svg xmlns="http://www.w3.org/2000/svg" version="1.1" width="200" height="200" viewBox="0 0 200 200"><rect x="0" y="0" width="200" height="200" fill="#ffffff"/><g transform="scale(3.279)"><g transform="translate(0,0)"><path fill-rule="evenodd" d="M12 0L12 1L11 1L11 2L10 2L10 1L8 1L8 2L9 2L9 3L8 3L8 4L9 4L9 5L8 5L8 7L9 7L9 5L11 5L11 6L10 6L10 7L11 7L11 9L12 9L12 8L13 8L13 6L12 6L12 3L13 3L13 2L15 2L15 3L16 3L16 4L19 4L19 5L20 5L20 7L19 7L19 6L18 6L18 5L16 5L16 7L17 7L17 6L18 6L18 7L19 7L19 9L18 9L18 8L16 8L16 9L14 9L14 10L15 10L15 11L14 11L14 12L13 12L13 10L11 10L11 11L9 11L9 12L10 12L10 15L11 15L11 17L8 17L8 16L9 16L9 15L8 15L8 16L6 16L6 17L5 17L5 15L4 15L4 14L5 14L5 13L8 13L8 11L7 11L7 10L10 10L10 8L6 8L6 9L7 9L7 10L5 10L5 12L4 12L4 11L3 11L3 10L4 10L4 9L5 9L5 8L0 8L0 13L2 13L2 14L0 14L0 15L2 15L2 14L3 14L3 15L4 15L4 17L3 17L3 16L0 16L0 17L3 17L3 18L2 18L2 20L3 20L3 19L4 19L4 17L5 17L5 20L4 20L4 21L5 21L5 23L4 23L4 25L2 25L2 24L1 24L1 23L0 23L0 25L2 25L2 26L1 26L1 27L0 27L0 29L1 29L1 30L0 30L0 31L1 31L1 33L0 33L0 34L2 34L2 35L3 35L3 36L2 36L2 39L3 39L3 38L4 38L4 37L5 37L5 42L2 42L2 43L0 43L0 46L1 46L1 44L2 44L2 43L3 43L3 45L2 45L2 47L3 47L3 48L5 48L5 47L4 47L4 46L5 46L5 45L7 45L7 46L6 46L6 47L7 47L7 48L6 48L6 49L5 49L5 50L3 50L3 49L2 49L2 48L0 48L0 49L2 49L2 51L0 51L0 53L4 53L4 52L5 52L5 51L7 51L7 52L6 52L6 53L7 53L7 52L9 52L9 53L8 53L8 55L10 55L10 53L11 53L11 55L12 55L12 56L13 56L13 58L14 58L14 55L15 55L15 57L17 57L17 58L20 58L20 59L21 59L21 60L17 60L17 59L13 59L13 60L14 60L14 61L22 61L22 60L23 60L23 59L24 59L24 60L25 60L25 58L27 58L27 59L28 59L28 60L27 60L27 61L28 61L28 60L29 60L29 61L32 61L32 60L33 60L33 61L40 61L40 60L41 60L41 61L44 61L44 60L46 60L46 61L50 61L50 59L51 59L51 61L52 61L52 60L53 60L53 59L51 59L51 58L53 58L53 57L54 57L54 58L55 58L55 59L54 59L54 60L55 60L55 59L56 59L56 60L57 60L57 61L61 61L61 57L60 57L60 56L61 56L61 54L60 54L60 56L57 56L57 53L58 53L58 55L59 55L59 52L58 52L58 51L61 51L61 50L59 50L59 49L60 49L60 47L61 47L61 46L60 46L60 45L61 45L61 42L60 42L60 41L61 41L61 40L60 40L60 41L59 41L59 40L57 40L57 39L61 39L61 38L59 38L59 36L60 36L60 37L61 37L61 36L60 36L60 35L61 35L61 34L58 34L58 33L61 33L61 30L60 30L60 29L61 29L61 28L57 28L57 27L56 27L56 28L55 28L55 25L53 25L53 23L52 23L52 22L50 22L50 19L51 19L51 18L52 18L52 20L51 20L51 21L53 21L53 18L54 18L54 20L55 20L55 21L54 21L54 22L55 22L55 21L56 21L56 23L54 23L54 24L57 24L57 25L56 25L56 26L58 26L58 25L59 25L59 27L61 27L61 26L60 26L60 25L61 25L61 22L58 22L58 21L60 21L60 19L61 19L61 18L60 18L60 17L61 17L61 14L59 14L59 15L60 15L60 17L59 17L59 16L58 16L58 17L59 17L59 20L58 20L58 19L56 19L56 16L57 16L57 13L59 13L59 12L60 12L60 11L61 11L61 10L60 10L60 11L59 11L59 12L57 12L57 9L58 9L58 10L59 10L59 9L60 9L60 8L59 8L59 9L58 9L58 8L57 8L57 9L56 9L56 8L55 8L55 9L54 9L54 8L53 8L53 6L52 6L52 8L50 8L50 9L54 9L54 10L55 10L55 9L56 9L56 12L57 12L57 13L53 13L53 12L54 12L54 11L53 11L53 10L50 10L50 11L49 11L49 10L48 10L48 11L49 11L49 12L46 12L46 10L45 10L45 11L44 11L44 12L45 12L45 13L44 13L44 14L45 14L45 15L46 15L46 16L47 16L47 17L49 17L49 18L50 18L50 19L49 19L49 20L48 20L48 18L46 18L46 19L44 19L44 18L43 18L43 17L44 17L44 16L43 16L43 17L42 17L42 15L41 15L41 14L40 14L40 15L41 15L41 17L40 17L40 18L38 18L38 19L39 19L39 20L38 20L38 21L39 21L39 20L41 20L41 19L40 19L40 18L41 18L41 17L42 17L42 18L43 18L43 19L42 19L42 20L43 20L43 19L44 19L44 20L46 20L46 21L47 21L47 20L48 20L48 21L49 21L49 22L48 22L48 23L49 23L49 24L48 24L48 25L49 25L49 24L51 24L51 23L52 23L52 25L53 25L53 26L50 26L50 27L51 27L51 29L52 29L52 30L50 30L50 28L47 28L47 29L49 29L49 32L46 32L46 31L48 31L48 30L46 30L46 31L45 31L45 29L44 29L44 30L43 30L43 29L42 29L42 30L41 30L41 29L40 29L40 28L41 28L41 26L42 26L42 28L43 28L43 27L44 27L44 28L46 28L46 26L44 26L44 24L43 24L43 23L44 23L44 21L41 21L41 22L38 22L38 23L39 23L39 24L41 24L41 26L38 26L38 24L35 24L35 26L33 26L33 25L34 25L34 23L36 23L36 22L37 22L37 20L36 20L36 22L34 22L34 23L33 23L33 25L32 25L32 23L29 23L29 22L28 22L28 21L29 21L29 20L27 20L27 21L26 21L26 19L25 19L25 17L26 17L26 18L27 18L27 19L29 19L29 17L28 17L28 15L29 15L29 14L30 14L30 16L31 16L31 18L33 18L33 19L32 19L32 20L34 20L34 19L35 19L35 18L33 18L33 17L32 17L32 16L31 16L31 15L32 15L32 14L33 14L33 16L34 16L34 15L35 15L35 14L33 14L33 13L32 13L32 14L30 14L30 12L31 12L31 9L32 9L32 10L33 10L33 6L34 6L34 7L35 7L35 5L33 5L33 4L38 4L38 3L34 3L34 2L36 2L36 1L38 1L38 0L36 0L36 1L33 1L33 0L31 0L31 1L33 1L33 2L32 2L32 3L33 3L33 4L29 4L29 2L28 2L28 4L26 4L26 3L27 3L27 2L26 2L26 3L25 3L25 0L21 0L21 1L20 1L20 0L19 0L19 1L17 1L17 3L16 3L16 2L15 2L15 1L16 1L16 0L15 0L15 1L14 1L14 0ZM26 0L26 1L27 1L27 0ZM40 0L40 1L39 1L39 3L42 3L42 5L43 5L43 3L47 3L47 2L48 2L48 0L47 0L47 1L45 1L45 0L44 0L44 2L43 2L43 0ZM51 0L51 2L50 2L50 3L48 3L48 4L49 4L49 5L50 5L50 7L51 7L51 5L52 5L52 4L53 4L53 0ZM12 1L12 2L11 2L11 3L12 3L12 2L13 2L13 1ZM19 1L19 2L20 2L20 3L19 3L19 4L20 4L20 5L21 5L21 4L25 4L25 5L26 5L26 6L25 6L25 8L24 8L24 9L23 9L23 8L22 8L22 9L21 9L21 8L20 8L20 9L19 9L19 10L20 10L20 11L19 11L19 12L21 12L21 13L20 13L20 15L19 15L19 17L18 17L18 18L17 18L17 19L18 19L18 20L19 20L19 21L18 21L18 22L17 22L17 21L14 21L14 20L11 20L11 19L12 19L12 18L10 18L10 19L9 19L9 18L8 18L8 19L6 19L6 20L5 20L5 21L6 21L6 22L7 22L7 21L6 21L6 20L8 20L8 23L6 23L6 24L8 24L8 25L4 25L4 26L7 26L7 27L5 27L5 28L8 28L8 27L10 27L10 28L9 28L9 31L11 31L11 32L12 32L12 30L10 30L10 29L11 29L11 28L12 28L12 29L13 29L13 31L14 31L14 32L13 32L13 34L12 34L12 35L11 35L11 34L10 34L10 36L9 36L9 37L6 37L6 36L7 36L7 35L4 35L4 34L3 34L3 35L4 35L4 36L5 36L5 37L6 37L6 38L9 38L9 40L10 40L10 41L8 41L8 39L6 39L6 40L7 40L7 41L6 41L6 42L5 42L5 44L4 44L4 45L3 45L3 46L4 46L4 45L5 45L5 44L7 44L7 45L8 45L8 42L9 42L9 43L10 43L10 42L11 42L11 43L12 43L12 44L11 44L11 46L9 46L9 47L10 47L10 48L11 48L11 50L9 50L9 48L8 48L8 51L10 51L10 52L11 52L11 53L12 53L12 55L14 55L14 54L13 54L13 53L15 53L15 52L16 52L16 51L14 51L14 50L16 50L16 49L17 49L17 50L18 50L18 51L17 51L17 53L16 53L16 54L17 54L17 55L16 55L16 56L17 56L17 57L18 57L18 56L17 56L17 55L18 55L18 54L19 54L19 56L21 56L21 57L20 57L20 58L22 58L22 59L23 59L23 58L22 58L22 57L27 57L27 56L26 56L26 55L28 55L28 54L26 54L26 53L28 53L28 52L29 52L29 51L28 51L28 52L27 52L27 50L30 50L30 51L31 51L31 52L33 52L33 57L31 57L31 58L28 58L28 59L29 59L29 60L32 60L32 59L33 59L33 58L35 58L35 59L34 59L34 60L37 60L37 59L38 59L38 58L39 58L39 57L41 57L41 58L40 58L40 59L39 59L39 60L40 60L40 59L41 59L41 60L43 60L43 59L44 59L44 57L45 57L45 58L46 58L46 60L47 60L47 57L48 57L48 56L49 56L49 57L50 57L50 58L51 58L51 57L52 57L52 56L51 56L51 55L50 55L50 54L52 54L52 53L50 53L50 54L47 54L47 52L49 52L49 51L50 51L50 52L51 52L51 51L53 51L53 52L57 52L57 51L56 51L56 50L57 50L57 49L58 49L58 48L59 48L59 45L60 45L60 44L59 44L59 43L60 43L60 42L57 42L57 41L55 41L55 40L56 40L56 39L57 39L57 38L58 38L58 36L59 36L59 35L58 35L58 36L57 36L57 33L58 33L58 32L59 32L59 29L57 29L57 30L58 30L58 31L57 31L57 33L55 33L55 34L56 34L56 35L53 35L53 34L51 34L51 32L49 32L49 33L50 33L50 34L49 34L49 35L46 35L46 36L44 36L44 35L45 35L45 33L46 33L46 34L47 34L47 33L46 33L46 32L45 32L45 31L43 31L43 30L42 30L42 31L41 31L41 30L40 30L40 31L38 31L38 30L39 30L39 27L38 27L38 26L37 26L37 27L36 27L36 28L35 28L35 27L33 27L33 26L32 26L32 25L31 25L31 26L30 26L30 24L29 24L29 23L28 23L28 22L27 22L27 23L26 23L26 21L25 21L25 20L24 20L24 19L23 19L23 18L22 18L22 17L23 17L23 16L24 16L24 17L25 17L25 16L24 16L24 15L25 15L25 14L22 14L22 15L21 15L21 13L23 13L23 12L24 12L24 13L28 13L28 14L29 14L29 11L27 11L27 10L29 10L29 9L28 9L28 8L27 8L27 7L28 7L28 6L27 6L27 5L26 5L26 4L25 4L25 3L23 3L23 1L21 1L21 2L20 2L20 1ZM40 1L40 2L42 2L42 3L43 3L43 2L42 2L42 1ZM21 2L21 3L20 3L20 4L21 4L21 3L22 3L22 2ZM30 2L30 3L31 3L31 2ZM9 3L9 4L10 4L10 3ZM51 3L51 4L52 4L52 3ZM14 4L14 8L15 8L15 4ZM39 4L39 5L36 5L36 7L37 7L37 8L35 8L35 9L36 9L36 10L34 10L34 11L36 11L36 10L38 10L38 11L39 11L39 10L40 10L40 12L39 12L39 13L40 13L40 12L41 12L41 11L43 11L43 10L44 10L44 7L45 7L45 6L44 6L44 7L43 7L43 6L42 6L42 8L41 8L41 4ZM44 4L44 5L45 5L45 4ZM23 5L23 7L24 7L24 5ZM29 5L29 8L32 8L32 5ZM39 5L39 7L40 7L40 5ZM46 5L46 7L47 7L47 9L49 9L49 6L48 6L48 7L47 7L47 5ZM11 6L11 7L12 7L12 6ZM21 6L21 7L22 7L22 6ZM26 6L26 7L27 7L27 6ZM30 6L30 7L31 7L31 6ZM37 6L37 7L38 7L38 6ZM25 8L25 9L24 9L24 10L25 10L25 11L24 11L24 12L27 12L27 11L26 11L26 10L27 10L27 9L26 9L26 8ZM37 8L37 9L38 9L38 10L39 10L39 9L40 9L40 10L41 10L41 8ZM42 8L42 9L43 9L43 8ZM45 8L45 9L46 9L46 8ZM2 9L2 10L3 10L3 9ZM16 9L16 10L18 10L18 9ZM22 9L22 10L23 10L23 9ZM25 9L25 10L26 10L26 9ZM1 11L1 12L2 12L2 13L3 13L3 11ZM6 11L6 12L7 12L7 11ZM11 11L11 13L13 13L13 14L14 14L14 13L15 13L15 14L16 14L16 15L15 15L15 16L16 16L16 17L13 17L13 19L15 19L15 20L16 20L16 19L15 19L15 18L16 18L16 17L17 17L17 16L16 16L16 15L17 15L17 13L18 13L18 14L19 14L19 13L18 13L18 12L17 12L17 11L16 11L16 12L17 12L17 13L15 13L15 12L14 12L14 13L13 13L13 12L12 12L12 11ZM32 11L32 12L33 12L33 11ZM50 11L50 12L49 12L49 13L50 13L50 14L49 14L49 15L48 15L48 14L47 14L47 13L45 13L45 14L47 14L47 16L50 16L50 18L51 18L51 16L50 16L50 14L53 14L53 13L51 13L51 12L53 12L53 11ZM34 12L34 13L35 13L35 12ZM36 12L36 13L37 13L37 16L35 16L35 17L39 17L39 14L38 14L38 12ZM42 13L42 14L43 14L43 13ZM6 14L6 15L7 15L7 14ZM11 14L11 15L12 15L12 14ZM54 14L54 15L52 15L52 16L53 16L53 17L52 17L52 18L53 18L53 17L55 17L55 16L54 16L54 15L56 15L56 14ZM13 15L13 16L14 16L14 15ZM22 15L22 16L23 16L23 15ZM20 16L20 17L19 17L19 18L18 18L18 19L19 19L19 20L20 20L20 21L19 21L19 22L18 22L18 23L17 23L17 22L15 22L15 24L14 24L14 25L11 25L11 27L12 27L12 28L14 28L14 29L17 29L17 26L18 26L18 27L19 27L19 28L18 28L18 29L19 29L19 30L18 30L18 31L17 31L17 36L16 36L16 35L14 35L14 34L16 34L16 33L14 33L14 34L13 34L13 35L12 35L12 36L11 36L11 37L10 37L10 39L12 39L12 40L14 40L14 41L13 41L13 44L14 44L14 45L13 45L13 46L12 46L12 47L11 47L11 48L12 48L12 49L13 49L13 46L14 46L14 45L15 45L15 41L18 41L18 43L19 43L19 44L18 44L18 45L17 45L17 42L16 42L16 45L17 45L17 46L15 46L15 47L14 47L14 48L15 48L15 49L16 49L16 48L17 48L17 49L19 49L19 50L20 50L20 49L21 49L21 50L23 50L23 49L22 49L22 48L23 48L23 45L22 45L22 43L20 43L20 42L19 42L19 41L18 41L18 40L17 40L17 39L18 39L18 38L17 38L17 39L16 39L16 37L19 37L19 38L20 38L20 37L21 37L21 38L22 38L22 39L20 39L20 40L21 40L21 42L25 42L25 44L27 44L27 45L24 45L24 46L25 46L25 47L24 47L24 48L25 48L25 49L24 49L24 50L25 50L25 51L26 51L26 50L27 50L27 49L28 49L28 47L29 47L29 49L31 49L31 50L32 50L32 51L33 51L33 52L34 52L34 53L35 53L35 54L34 54L34 57L38 57L38 55L40 55L40 56L41 56L41 55L40 55L40 54L43 54L43 55L42 55L42 58L43 58L43 55L44 55L44 56L46 56L46 55L47 55L47 54L45 54L45 53L44 53L44 52L46 52L46 51L47 51L47 50L46 50L46 49L49 49L49 50L48 50L48 51L49 51L49 50L50 50L50 51L51 51L51 50L53 50L53 51L55 51L55 50L56 50L56 49L57 49L57 47L56 47L56 46L55 46L55 45L54 45L54 44L53 44L53 45L52 45L52 44L51 44L51 46L50 46L50 45L49 45L49 44L50 44L50 43L52 43L52 41L54 41L54 43L55 43L55 41L54 41L54 40L53 40L53 39L52 39L52 40L50 40L50 41L49 41L49 40L48 40L48 39L49 39L49 38L50 38L50 39L51 39L51 38L54 38L54 39L56 39L56 37L57 37L57 36L56 36L56 37L55 37L55 36L53 36L53 35L51 35L51 34L50 34L50 35L51 35L51 36L50 36L50 37L49 37L49 36L48 36L48 37L47 37L47 36L46 36L46 37L47 37L47 38L45 38L45 37L44 37L44 36L43 36L43 35L44 35L44 32L43 32L43 31L42 31L42 32L43 32L43 33L42 33L42 34L43 34L43 35L39 35L39 34L38 34L38 35L37 35L37 36L36 36L36 37L38 37L38 36L43 36L43 37L40 37L40 38L36 38L36 39L37 39L37 40L35 40L35 38L33 38L33 37L32 37L32 35L35 35L35 34L33 34L33 31L34 31L34 32L35 32L35 30L33 30L33 27L32 27L32 28L31 28L31 27L30 27L30 26L29 26L29 25L28 25L28 23L27 23L27 25L26 25L26 23L25 23L25 21L21 21L21 18L20 18L20 17L21 17L21 16ZM26 16L26 17L27 17L27 18L28 18L28 17L27 17L27 16ZM6 17L6 18L7 18L7 17ZM0 18L0 19L1 19L1 18ZM36 18L36 19L37 19L37 18ZM8 19L8 20L9 20L9 19ZM30 19L30 20L31 20L31 19ZM46 19L46 20L47 20L47 19ZM55 19L55 20L56 20L56 21L57 21L57 20L56 20L56 19ZM0 21L0 22L2 22L2 21ZM9 21L9 22L10 22L10 21ZM11 21L11 22L12 22L12 21ZM13 21L13 22L14 22L14 21ZM20 21L20 22L21 22L21 21ZM30 21L30 22L31 22L31 21ZM32 21L32 22L33 22L33 21ZM22 22L22 25L23 25L23 27L24 27L24 25L25 25L25 28L21 28L21 29L20 29L20 28L19 28L19 29L20 29L20 30L19 30L19 31L18 31L18 32L19 32L19 33L18 33L18 34L19 34L19 37L20 37L20 36L21 36L21 37L25 37L25 36L26 36L26 37L27 37L27 38L26 38L26 40L24 40L24 39L25 39L25 38L24 38L24 39L22 39L22 41L23 41L23 40L24 40L24 41L25 41L25 42L26 42L26 43L27 43L27 44L28 44L28 45L27 45L27 46L26 46L26 47L25 47L25 48L26 48L26 49L25 49L25 50L26 50L26 49L27 49L27 46L28 46L28 45L29 45L29 47L30 47L30 48L31 48L31 47L32 47L32 50L33 50L33 49L34 49L34 50L35 50L35 51L34 51L34 52L35 52L35 53L36 53L36 52L39 52L39 53L37 53L37 54L40 54L40 53L41 53L41 52L42 52L42 51L43 51L43 52L44 52L44 51L43 51L43 50L42 50L42 48L43 48L43 46L42 46L42 45L41 45L41 44L42 44L42 43L43 43L43 44L44 44L44 49L45 49L45 46L47 46L47 44L49 44L49 43L48 43L48 42L49 42L49 41L48 41L48 40L46 40L46 41L45 41L45 38L40 38L40 39L41 39L41 40L39 40L39 39L38 39L38 40L39 40L39 41L38 41L38 42L37 42L37 43L35 43L35 45L33 45L33 47L32 47L32 46L31 46L31 45L32 45L32 44L34 44L34 43L32 43L32 42L36 42L36 41L35 41L35 40L34 40L34 41L33 41L33 39L32 39L32 38L31 38L31 37L29 37L29 36L31 36L31 35L30 35L30 34L31 34L31 33L30 33L30 34L29 34L29 33L27 33L27 32L28 32L28 30L27 30L27 32L26 32L26 31L24 31L24 29L27 29L27 28L29 28L29 27L26 27L26 25L25 25L25 24L23 24L23 22ZM42 22L42 23L41 23L41 24L42 24L42 25L43 25L43 24L42 24L42 23L43 23L43 22ZM46 22L46 23L45 23L45 24L46 24L46 25L47 25L47 24L46 24L46 23L47 23L47 22ZM10 23L10 24L9 24L9 25L10 25L10 24L13 24L13 23ZM16 23L16 24L17 24L17 25L16 25L16 26L17 26L17 25L18 25L18 24L17 24L17 23ZM57 23L57 24L59 24L59 23ZM19 24L19 25L21 25L21 24ZM14 25L14 26L12 26L12 27L14 27L14 28L16 28L16 27L14 27L14 26L15 26L15 25ZM2 26L2 27L1 27L1 28L2 28L2 30L1 30L1 31L2 31L2 30L3 30L3 31L4 31L4 28L2 28L2 27L3 27L3 26ZM19 26L19 27L20 27L20 26ZM21 26L21 27L22 27L22 26ZM53 26L53 27L52 27L52 28L53 28L53 27L54 27L54 26ZM37 27L37 28L36 28L36 29L37 29L37 30L36 30L36 31L37 31L37 30L38 30L38 29L37 29L37 28L38 28L38 27ZM5 29L5 32L8 32L8 29ZM22 29L22 30L23 30L23 29ZM29 29L29 32L32 32L32 29ZM53 29L53 32L56 32L56 29ZM6 30L6 31L7 31L7 30ZM14 30L14 31L15 31L15 30ZM20 30L20 31L21 31L21 30ZM30 30L30 31L31 31L31 30ZM54 30L54 31L55 31L55 30ZM23 31L23 32L24 32L24 31ZM2 32L2 33L3 33L3 32ZM9 32L9 33L6 33L6 34L9 34L9 33L10 33L10 32ZM20 32L20 33L19 33L19 34L20 34L20 35L21 35L21 36L22 36L22 35L23 35L23 34L25 34L25 35L24 35L24 36L25 36L25 35L26 35L26 36L27 36L27 37L28 37L28 36L27 36L27 35L28 35L28 34L27 34L27 33L26 33L26 32L25 32L25 33L21 33L21 32ZM36 32L36 33L37 33L37 32ZM38 32L38 33L39 33L39 32ZM20 33L20 34L21 34L21 35L22 35L22 34L21 34L21 33ZM0 36L0 37L1 37L1 36ZM12 36L12 37L15 37L15 36ZM52 36L52 37L53 37L53 36ZM50 37L50 38L51 38L51 37ZM12 38L12 39L13 39L13 38ZM27 38L27 40L28 40L28 41L29 41L29 42L27 42L27 41L26 41L26 42L27 42L27 43L29 43L29 44L30 44L30 45L31 45L31 44L32 44L32 43L30 43L30 41L31 41L31 42L32 42L32 40L30 40L30 41L29 41L29 39L28 39L28 38ZM30 38L30 39L31 39L31 38ZM15 39L15 40L16 40L16 39ZM42 39L42 40L41 40L41 41L39 41L39 42L38 42L38 44L36 44L36 45L37 45L37 46L38 46L38 47L37 47L37 48L36 48L36 46L34 46L34 49L35 49L35 48L36 48L36 49L37 49L37 48L40 48L40 47L41 47L41 48L42 48L42 46L40 46L40 44L41 44L41 43L40 43L40 44L39 44L39 42L41 42L41 41L42 41L42 42L43 42L43 41L44 41L44 42L45 42L45 43L44 43L44 44L45 44L45 43L46 43L46 42L45 42L45 41L44 41L44 40L43 40L43 39ZM2 40L2 41L3 41L3 40ZM11 41L11 42L12 42L12 41ZM50 41L50 42L51 42L51 41ZM6 42L6 43L7 43L7 42ZM56 42L56 43L57 43L57 42ZM23 43L23 44L24 44L24 43ZM9 44L9 45L10 45L10 44ZM19 44L19 45L18 45L18 46L17 46L17 47L18 47L18 48L20 48L20 46L21 46L21 47L22 47L22 46L21 46L21 45L20 45L20 44ZM38 44L38 46L39 46L39 44ZM56 44L56 45L59 45L59 44ZM48 45L48 47L46 47L46 48L49 48L49 49L50 49L50 50L51 50L51 48L52 48L52 49L53 49L53 50L54 50L54 49L56 49L56 48L54 48L54 47L53 47L53 46L51 46L51 48L49 48L49 47L50 47L50 46L49 46L49 45ZM7 46L7 47L8 47L8 46ZM18 46L18 47L19 47L19 46ZM30 46L30 47L31 47L31 46ZM15 47L15 48L16 48L16 47ZM53 48L53 49L54 49L54 48ZM6 49L6 50L7 50L7 49ZM36 50L36 51L37 51L37 50ZM38 50L38 51L39 51L39 52L41 52L41 50L40 50L40 51L39 51L39 50ZM45 50L45 51L46 51L46 50ZM3 51L3 52L4 52L4 51ZM11 51L11 52L12 52L12 51ZM13 51L13 52L14 52L14 51ZM18 52L18 53L19 53L19 54L20 54L20 53L21 53L21 52L20 52L20 53L19 53L19 52ZM25 52L25 53L22 53L22 54L21 54L21 56L25 56L25 53L26 53L26 52ZM60 52L60 53L61 53L61 52ZM29 53L29 56L32 56L32 53ZM43 53L43 54L44 54L44 53ZM53 53L53 56L56 56L56 53ZM22 54L22 55L23 55L23 54ZM30 54L30 55L31 55L31 54ZM35 54L35 55L36 55L36 56L37 56L37 55L36 55L36 54ZM54 54L54 55L55 55L55 54ZM8 56L8 61L9 61L9 57L10 57L10 59L12 59L12 58L11 58L11 57L10 57L10 56ZM55 57L55 58L56 58L56 59L57 59L57 58L58 58L58 60L60 60L60 57L59 57L59 58L58 58L58 57L57 57L57 58L56 58L56 57ZM36 58L36 59L37 59L37 58ZM0 0L0 7L7 7L7 0ZM1 1L1 6L6 6L6 1ZM2 2L2 5L5 5L5 2ZM54 0L54 7L61 7L61 0ZM55 1L55 6L60 6L60 1ZM56 2L56 5L59 5L59 2ZM0 54L0 61L7 61L7 54ZM1 55L1 60L6 60L6 55ZM2 56L2 59L5 59L5 56Z" fill="#000000"/></g></g></svg>
