<?xml version="1.0" encoding="UTF-8"?>
<svg xmlns="http://www.w3.org/2000/svg" version="1.1" width="200" height="200" viewBox="0 0 200 200"><rect x="0" y="0" width="200" height="200" fill="#ffffff"/><g transform="scale(3.279)"><g transform="translate(0,0)"><path fill-rule="evenodd" d="M14 0L14 1L15 1L15 2L14 2L14 4L13 4L13 3L12 3L12 2L13 2L13 1L9 1L9 3L8 3L8 5L9 5L9 6L8 6L8 7L9 7L9 10L6 10L6 9L8 9L8 8L5 8L5 10L6 10L6 11L9 11L9 12L8 12L8 14L6 14L6 13L7 13L7 12L6 12L6 13L5 13L5 12L4 12L4 13L5 13L5 15L7 15L7 16L5 16L5 17L7 17L7 16L8 16L8 15L9 15L9 14L10 14L10 11L9 11L9 10L10 10L10 8L12 8L12 10L13 10L13 9L14 9L14 8L15 8L15 6L14 6L14 7L13 7L13 5L15 5L15 3L16 3L16 4L19 4L19 5L20 5L20 4L19 4L19 3L22 3L22 5L21 5L21 6L20 6L20 7L19 7L19 6L18 6L18 5L16 5L16 7L17 7L17 6L18 6L18 7L19 7L19 9L18 9L18 8L16 8L16 9L15 9L15 10L16 10L16 11L17 11L17 12L18 12L18 13L17 13L17 14L15 14L15 13L16 13L16 12L15 12L15 11L14 11L14 12L13 12L13 11L11 11L11 15L10 15L10 17L9 17L9 19L10 19L10 20L9 20L9 22L8 22L8 21L7 21L7 20L8 20L8 19L7 19L7 18L6 18L6 19L7 19L7 20L6 20L6 21L7 21L7 22L6 22L6 23L7 23L7 22L8 22L8 23L10 23L10 25L7 25L7 24L5 24L5 21L3 21L3 23L2 23L2 22L0 22L0 23L1 23L1 24L2 24L2 26L1 26L1 25L0 25L0 26L1 26L1 27L0 27L0 28L1 28L1 27L2 27L2 30L3 30L3 25L4 25L4 26L5 26L5 27L4 27L4 32L2 32L2 31L1 31L1 32L0 32L0 33L1 33L1 35L0 35L0 36L1 36L1 37L0 37L0 39L1 39L1 37L2 37L2 40L1 40L1 41L0 41L0 48L1 48L1 47L2 47L2 46L4 46L4 47L3 47L3 48L2 48L2 49L0 49L0 50L2 50L2 51L0 51L0 53L4 53L4 52L5 52L5 51L7 51L7 52L6 52L6 53L7 53L7 52L9 52L9 53L8 53L8 56L9 56L9 57L10 57L10 58L9 58L9 59L8 59L8 61L11 61L11 60L9 60L9 59L10 59L10 58L11 58L11 59L12 59L12 57L13 57L13 59L14 59L14 60L12 60L12 61L14 61L14 60L15 60L15 61L16 61L16 60L18 60L18 61L20 61L20 60L21 60L21 61L23 61L23 59L22 59L22 58L20 58L20 57L19 57L19 55L20 55L20 53L22 53L22 55L24 55L24 54L25 54L25 55L26 55L26 56L25 56L25 57L23 57L23 58L26 58L26 59L24 59L24 60L25 60L25 61L27 61L27 60L26 60L26 59L27 59L27 58L29 58L29 57L30 57L30 58L31 58L31 59L32 59L32 60L31 60L31 61L35 61L35 58L36 58L36 61L37 61L37 60L38 60L38 61L41 61L41 60L42 60L42 61L43 61L43 59L44 59L44 61L45 61L45 59L46 59L46 58L47 58L47 57L49 57L49 58L48 58L48 59L49 59L49 60L47 60L47 61L51 61L51 60L52 60L52 61L54 61L54 60L56 60L56 61L58 61L58 59L59 59L59 56L58 56L58 55L57 55L57 54L59 54L59 52L61 52L61 50L59 50L59 49L60 49L60 47L61 47L61 46L60 46L60 47L59 47L59 46L58 46L58 45L59 45L59 44L60 44L60 45L61 45L61 42L59 42L59 41L60 41L60 40L59 40L59 39L61 39L61 38L60 38L60 37L58 37L58 35L57 35L57 40L56 40L56 39L55 39L55 38L56 38L56 34L57 34L57 33L58 33L58 34L59 34L59 36L60 36L60 35L61 35L61 34L59 34L59 32L58 32L58 30L59 30L59 31L61 31L61 30L59 30L59 29L60 29L60 28L59 28L59 27L61 27L61 26L60 26L60 25L61 25L61 22L59 22L59 21L60 21L60 20L58 20L58 18L57 18L57 19L56 19L56 20L55 20L55 19L54 19L54 18L55 18L55 16L54 16L54 15L53 15L53 14L55 14L55 11L54 11L54 13L53 13L53 14L52 14L52 13L51 13L51 12L53 12L53 11L52 11L52 10L53 10L53 8L51 8L51 5L52 5L52 4L53 4L53 0L51 0L51 2L50 2L50 3L48 3L48 5L46 5L46 7L47 7L47 6L48 6L48 8L47 8L47 9L44 9L44 8L45 8L45 6L44 6L44 7L43 7L43 6L42 6L42 5L45 5L45 1L46 1L46 2L48 2L48 1L49 1L49 0L41 0L41 1L39 1L39 0L38 0L38 1L37 1L37 0L36 0L36 1L37 1L37 2L38 2L38 1L39 1L39 3L36 3L36 2L35 2L35 3L36 3L36 4L35 4L35 5L34 5L34 7L33 7L33 3L34 3L34 2L33 2L33 3L32 3L32 4L27 4L27 3L28 3L28 2L29 2L29 3L31 3L31 2L32 2L32 0L30 0L30 1L29 1L29 0L28 0L28 2L27 2L27 3L26 3L26 1L27 1L27 0L25 0L25 3L24 3L24 2L19 2L19 1L23 1L23 0L19 0L19 1L18 1L18 0ZM34 0L34 1L35 1L35 0ZM16 1L16 3L19 3L19 2L18 2L18 1ZM41 1L41 2L40 2L40 3L42 3L42 2L43 2L43 3L44 3L44 2L43 2L43 1ZM10 2L10 3L9 3L9 4L10 4L10 3L11 3L11 7L12 7L12 8L13 8L13 7L12 7L12 5L13 5L13 4L12 4L12 3L11 3L11 2ZM23 3L23 4L24 4L24 3ZM46 3L46 4L47 4L47 3ZM51 3L51 4L52 4L52 3ZM25 4L25 7L26 7L26 6L27 6L27 8L26 8L26 9L27 9L27 10L23 10L23 7L24 7L24 6L23 6L23 5L22 5L22 6L21 6L21 8L20 8L20 9L19 9L19 10L20 10L20 11L19 11L19 13L18 13L18 14L17 14L17 16L16 16L16 15L11 15L11 17L13 17L13 18L12 18L12 19L13 19L13 18L14 18L14 19L15 19L15 17L13 17L13 16L16 16L16 17L17 17L17 16L19 16L19 17L18 17L18 18L16 18L16 19L18 19L18 20L19 20L19 21L18 21L18 22L17 22L17 23L18 23L18 22L19 22L19 21L20 21L20 20L22 20L22 21L21 21L21 22L20 22L20 24L21 24L21 27L20 27L20 26L19 26L19 27L20 27L20 28L19 28L19 29L16 29L16 28L15 28L15 31L16 31L16 32L15 32L15 33L14 33L14 29L12 29L12 30L13 30L13 31L12 31L12 32L13 32L13 34L12 34L12 35L13 35L13 36L12 36L12 37L10 37L10 36L11 36L11 33L10 33L10 32L11 32L11 31L9 31L9 34L8 34L8 35L9 35L9 36L7 36L7 35L4 35L4 34L7 34L7 33L3 33L3 34L2 34L2 36L7 36L7 37L5 37L5 38L7 38L7 39L6 39L6 40L8 40L8 41L5 41L5 39L4 39L4 40L3 40L3 44L2 44L2 43L1 43L1 44L2 44L2 45L3 45L3 44L4 44L4 45L5 45L5 44L4 44L4 43L6 43L6 44L8 44L8 45L6 45L6 46L7 46L7 47L6 47L6 48L3 48L3 50L7 50L7 49L6 49L6 48L7 48L7 47L8 47L8 48L9 48L9 52L11 52L11 53L9 53L9 54L10 54L10 55L9 55L9 56L10 56L10 57L12 57L12 55L11 55L11 54L14 54L14 53L12 53L12 52L15 52L15 51L13 51L13 49L12 49L12 48L11 48L11 47L10 47L10 46L11 46L11 45L10 45L10 44L11 44L11 42L12 42L12 41L13 41L13 42L15 42L15 41L13 41L13 38L12 38L12 37L13 37L13 36L14 36L14 40L16 40L16 39L15 39L15 38L17 38L17 37L18 37L18 39L17 39L17 40L18 40L18 41L16 41L16 44L18 44L18 43L19 43L19 45L17 45L17 51L16 51L16 52L18 52L18 50L19 50L19 52L20 52L20 50L21 50L21 52L22 52L22 53L23 53L23 54L24 54L24 53L27 53L27 56L26 56L26 58L27 58L27 56L28 56L28 53L27 53L27 50L26 50L26 49L25 49L25 51L24 51L24 52L22 52L22 50L24 50L24 49L22 49L22 50L21 50L21 48L19 48L19 47L21 47L21 46L22 46L22 48L24 48L24 47L25 47L25 48L27 48L27 47L25 47L25 46L24 46L24 45L26 45L26 46L28 46L28 48L29 48L29 52L32 52L32 50L35 50L35 51L34 51L34 56L33 56L33 57L35 57L35 56L36 56L36 55L37 55L37 57L38 57L38 56L39 56L39 58L37 58L37 59L38 59L38 60L40 60L40 57L43 57L43 56L44 56L44 57L45 57L45 56L44 56L44 55L43 55L43 54L42 54L42 55L41 55L41 54L40 54L40 53L41 53L41 51L42 51L42 53L43 53L43 52L44 52L44 54L45 54L45 51L44 51L44 48L46 48L46 50L47 50L47 51L46 51L46 52L48 52L48 50L49 50L49 52L50 52L50 50L51 50L51 48L50 48L50 45L51 45L51 47L52 47L52 48L53 48L53 49L52 49L52 50L53 50L53 51L51 51L51 52L55 52L55 51L56 51L56 52L57 52L57 49L59 49L59 47L58 47L58 48L56 48L56 50L55 50L55 51L54 51L54 49L55 49L55 48L53 48L53 47L52 47L52 45L51 45L51 44L49 44L49 43L48 43L48 41L47 41L47 40L48 40L48 39L49 39L49 41L50 41L50 42L51 42L51 41L50 41L50 40L51 40L51 37L50 37L50 36L52 36L52 35L53 35L53 36L55 36L55 35L53 35L53 34L51 34L51 35L50 35L50 36L49 36L49 34L50 34L50 32L52 32L52 30L51 30L51 25L50 25L50 26L49 26L49 25L48 25L48 22L49 22L49 21L48 21L48 20L50 20L50 21L51 21L51 22L50 22L50 24L52 24L52 28L55 28L55 27L56 27L56 28L58 28L58 27L59 27L59 26L58 26L58 27L57 27L57 26L56 26L56 25L55 25L55 24L54 24L54 23L55 23L55 22L53 22L53 24L52 24L52 23L51 23L51 22L52 22L52 21L51 21L51 19L53 19L53 18L54 18L54 16L53 16L53 15L52 15L52 16L53 16L53 17L51 17L51 16L50 16L50 17L48 17L48 16L49 16L49 15L50 15L50 14L51 14L51 13L50 13L50 12L51 12L51 10L48 10L48 9L47 9L47 10L46 10L46 11L45 11L45 12L46 12L46 14L45 14L45 15L43 15L43 14L44 14L44 11L43 11L43 10L42 10L42 9L43 9L43 8L42 8L42 6L41 6L41 5L39 5L39 4L37 4L37 5L36 5L36 6L35 6L35 8L34 8L34 9L30 9L30 10L29 10L29 9L28 9L28 5L26 5L26 4ZM49 4L49 5L48 5L48 6L49 6L49 7L50 7L50 4ZM29 5L29 8L32 8L32 5ZM37 5L37 6L36 6L36 7L37 7L37 8L36 8L36 9L38 9L38 11L39 11L39 12L38 12L38 13L37 13L37 12L35 12L35 13L36 13L36 14L34 14L34 15L32 15L32 14L33 14L33 13L32 13L32 10L31 10L31 11L29 11L29 12L28 12L28 10L27 10L27 11L26 11L26 12L25 12L25 13L24 13L24 14L25 14L25 15L22 15L22 13L23 13L23 12L24 12L24 11L22 11L22 10L21 10L21 9L20 9L20 10L21 10L21 12L22 12L22 13L21 13L21 14L20 14L20 13L19 13L19 14L18 14L18 15L19 15L19 16L20 16L20 17L21 17L21 18L19 18L19 19L23 19L23 18L22 18L22 16L23 16L23 17L24 17L24 20L23 20L23 23L24 23L24 24L22 24L22 22L21 22L21 24L22 24L22 26L23 26L23 27L21 27L21 28L20 28L20 29L19 29L19 30L16 30L16 31L18 31L18 32L17 32L17 33L16 33L16 34L17 34L17 36L18 36L18 37L19 37L19 38L20 38L20 36L21 36L21 37L22 37L22 39L23 39L23 38L25 38L25 39L24 39L24 40L25 40L25 39L27 39L27 41L26 41L26 42L25 42L25 41L21 41L21 42L20 42L20 43L21 43L21 42L24 42L24 43L22 43L22 44L20 44L20 46L21 46L21 45L22 45L22 44L23 44L23 45L24 45L24 43L25 43L25 44L26 44L26 43L28 43L28 44L27 44L27 45L28 45L28 44L29 44L29 45L31 45L31 46L29 46L29 48L30 48L30 49L31 49L31 48L32 48L32 49L34 49L34 48L32 48L32 47L36 47L36 49L35 49L35 50L36 50L36 51L35 51L35 52L36 52L36 53L35 53L35 54L37 54L37 55L38 55L38 54L37 54L37 52L39 52L39 53L40 53L40 52L39 52L39 51L37 51L37 50L38 50L38 46L39 46L39 48L40 48L40 49L39 49L39 50L40 50L40 49L41 49L41 50L43 50L43 48L42 48L42 49L41 49L41 48L40 48L40 46L39 46L39 45L40 45L40 44L41 44L41 46L44 46L44 44L45 44L45 43L47 43L47 42L46 42L46 41L44 41L44 40L43 40L43 41L42 41L42 42L41 42L41 43L39 43L39 44L36 44L36 45L37 45L37 47L36 47L36 46L35 46L35 44L33 44L33 45L34 45L34 46L32 46L32 45L31 45L31 44L32 44L32 42L29 42L29 43L28 43L28 40L29 40L29 41L31 41L31 40L32 40L32 41L33 41L33 43L34 43L34 40L35 40L35 41L37 41L37 39L40 39L40 38L44 38L44 39L45 39L45 40L47 40L47 39L48 39L48 38L46 38L46 37L45 37L45 36L47 36L47 37L49 37L49 38L50 38L50 37L49 37L49 36L47 36L47 34L49 34L49 32L48 32L48 33L46 33L46 32L45 32L45 31L46 31L46 29L48 29L48 31L50 31L50 29L49 29L49 28L50 28L50 27L49 27L49 26L48 26L48 25L47 25L47 26L48 26L48 27L49 27L49 28L47 28L47 27L45 27L45 26L46 26L46 25L45 25L45 24L47 24L47 23L44 23L44 25L42 25L42 24L43 24L43 23L42 23L42 24L41 24L41 22L44 22L44 20L46 20L46 19L45 19L45 18L46 18L46 17L47 17L47 14L48 14L48 15L49 15L49 14L50 14L50 13L49 13L49 12L50 12L50 11L49 11L49 12L48 12L48 11L47 11L47 12L48 12L48 13L47 13L47 14L46 14L46 16L45 16L45 17L44 17L44 18L43 18L43 17L39 17L39 15L40 15L40 16L41 16L41 15L40 15L40 14L43 14L43 11L42 11L42 13L41 13L41 11L39 11L39 10L40 10L40 9L38 9L38 7L39 7L39 5ZM9 6L9 7L10 7L10 6ZM22 6L22 7L23 7L23 6ZM30 6L30 7L31 7L31 6ZM37 6L37 7L38 7L38 6ZM40 6L40 8L41 8L41 9L42 9L42 8L41 8L41 6ZM52 6L52 7L53 7L53 6ZM0 8L0 9L1 9L1 10L0 10L0 11L1 11L1 10L2 10L2 8ZM24 8L24 9L25 9L25 8ZM50 8L50 9L51 9L51 8ZM56 8L56 9L57 9L57 10L56 10L56 14L57 14L57 15L58 15L58 17L60 17L60 16L61 16L61 14L60 14L60 16L59 16L59 14L57 14L57 13L58 13L58 8ZM3 9L3 11L2 11L2 12L0 12L0 13L1 13L1 14L0 14L0 19L1 19L1 20L0 20L0 21L2 21L2 20L3 20L3 19L5 19L5 18L4 18L4 14L3 14L3 11L4 11L4 9ZM17 9L17 10L18 10L18 9ZM34 9L34 10L33 10L33 11L35 11L35 9ZM54 9L54 10L55 10L55 9ZM36 10L36 11L37 11L37 10ZM60 10L60 11L59 11L59 13L60 13L60 11L61 11L61 10ZM27 12L27 13L28 13L28 14L29 14L29 13L31 13L31 14L32 14L32 13L31 13L31 12L29 12L29 13L28 13L28 12ZM12 13L12 14L14 14L14 13ZM38 13L38 15L39 15L39 14L40 14L40 13ZM1 14L1 18L2 18L2 19L3 19L3 17L2 17L2 14ZM36 14L36 15L35 15L35 16L34 16L34 18L35 18L35 16L36 16L36 15L37 15L37 14ZM29 15L29 16L28 16L28 19L27 19L27 18L26 18L26 17L27 17L27 16L25 16L25 20L26 20L26 24L24 24L24 25L25 25L25 26L24 26L24 29L23 29L23 28L21 28L21 29L20 29L20 31L19 31L19 32L21 32L21 34L22 34L22 35L21 35L21 36L22 36L22 35L24 35L24 36L28 36L28 39L29 39L29 36L31 36L31 35L32 35L32 37L30 37L30 40L31 40L31 39L32 39L32 38L33 38L33 37L34 37L34 38L35 38L35 40L36 40L36 38L35 38L35 37L34 37L34 36L35 36L35 35L32 35L32 34L31 34L31 33L28 33L28 34L29 34L29 36L28 36L28 35L27 35L27 32L28 32L28 31L27 31L27 32L26 32L26 31L23 31L23 30L24 30L24 29L27 29L27 30L28 30L28 28L25 28L25 27L26 27L26 26L27 26L27 27L30 27L30 26L29 26L29 25L31 25L31 26L32 26L32 27L31 27L31 28L32 28L32 27L33 27L33 30L34 30L34 32L33 32L33 34L34 34L34 33L35 33L35 32L36 32L36 31L35 31L35 30L37 30L37 29L36 29L36 28L37 28L37 27L36 27L36 26L35 26L35 24L38 24L38 25L37 25L37 26L39 26L39 25L40 25L40 27L39 27L39 28L38 28L38 30L40 30L40 32L39 32L39 31L37 31L37 32L38 32L38 33L40 33L40 35L41 35L41 37L42 37L42 36L43 36L43 37L44 37L44 38L45 38L45 37L44 37L44 36L43 36L43 34L41 34L41 33L44 33L44 34L45 34L45 35L46 35L46 34L45 34L45 32L44 32L44 31L45 31L45 27L43 27L43 26L42 26L42 25L40 25L40 23L36 23L36 22L38 22L38 21L39 21L39 22L41 22L41 21L42 21L42 20L40 20L40 19L39 19L39 20L38 20L38 19L35 19L35 20L32 20L32 24L29 24L29 23L31 23L31 20L29 20L29 18L31 18L31 19L32 19L32 17L33 17L33 16L30 16L30 15ZM42 15L42 16L43 16L43 15ZM38 17L38 18L39 18L39 17ZM41 18L41 19L43 19L43 18ZM47 18L47 19L50 19L50 18ZM59 18L59 19L61 19L61 18ZM26 19L26 20L27 20L27 21L29 21L29 22L28 22L28 23L29 23L29 22L30 22L30 21L29 21L29 20L27 20L27 19ZM10 20L10 22L11 22L11 23L13 23L13 22L12 22L12 21L13 21L13 20L12 20L12 21L11 21L11 20ZM36 20L36 21L38 21L38 20ZM39 20L39 21L40 21L40 20ZM54 20L54 21L55 21L55 20ZM56 20L56 21L57 21L57 22L58 22L58 21L57 21L57 20ZM14 21L14 22L16 22L16 21ZM33 21L33 23L35 23L35 21ZM45 21L45 22L47 22L47 21ZM3 23L3 24L4 24L4 25L5 25L5 26L7 26L7 27L5 27L5 28L7 28L7 27L8 27L8 26L7 26L7 25L5 25L5 24L4 24L4 23ZM14 23L14 24L12 24L12 25L10 25L10 26L9 26L9 27L11 27L11 28L9 28L9 30L11 30L11 28L13 28L13 26L14 26L14 27L17 27L17 28L18 28L18 26L17 26L17 24L16 24L16 23ZM58 23L58 25L60 25L60 24L59 24L59 23ZM14 24L14 25L15 25L15 26L16 26L16 25L15 25L15 24ZM26 24L26 25L28 25L28 24ZM32 24L32 26L34 26L34 28L35 28L35 26L34 26L34 24ZM53 24L53 26L54 26L54 27L55 27L55 25L54 25L54 24ZM41 26L41 28L42 28L42 26ZM39 28L39 29L40 29L40 30L41 30L41 32L43 32L43 31L44 31L44 28L43 28L43 29L40 29L40 28ZM0 29L0 30L1 30L1 29ZM5 29L5 32L8 32L8 29ZM29 29L29 32L32 32L32 29ZM53 29L53 32L56 32L56 29ZM57 29L57 30L58 30L58 29ZM6 30L6 31L7 31L7 30ZM30 30L30 31L31 31L31 30ZM42 30L42 31L43 31L43 30ZM54 30L54 31L55 31L55 30ZM22 31L22 34L24 34L24 33L25 33L25 32L24 32L24 33L23 33L23 31ZM1 32L1 33L2 33L2 32ZM60 32L60 33L61 33L61 32ZM18 33L18 34L19 34L19 36L20 36L20 33ZM13 34L13 35L15 35L15 34ZM25 34L25 35L26 35L26 34ZM30 34L30 35L31 35L31 34ZM36 34L36 36L38 36L38 35L39 35L39 34L38 34L38 35L37 35L37 34ZM3 37L3 38L4 38L4 37ZM9 37L9 38L8 38L8 40L10 40L10 41L8 41L8 42L6 42L6 43L8 43L8 44L10 44L10 43L8 43L8 42L11 42L11 41L12 41L12 40L11 40L11 39L12 39L12 38L11 38L11 39L9 39L9 38L10 38L10 37ZM25 37L25 38L26 38L26 37ZM37 37L37 38L40 38L40 37ZM52 37L52 38L55 38L55 37ZM19 39L19 41L18 41L18 42L17 42L17 43L18 43L18 42L19 42L19 41L20 41L20 40L21 40L21 39ZM54 39L54 40L52 40L52 42L53 42L53 44L54 44L54 46L56 46L56 47L57 47L57 46L56 46L56 44L59 44L59 43L56 43L56 42L57 42L57 41L56 41L56 40L55 40L55 39ZM38 40L38 41L39 41L39 40ZM1 41L1 42L2 42L2 41ZM43 41L43 42L42 42L42 43L41 43L41 44L42 44L42 45L43 45L43 44L44 44L44 43L45 43L45 42L44 42L44 41ZM53 41L53 42L54 42L54 43L55 43L55 44L56 44L56 43L55 43L55 42L56 42L56 41ZM37 42L37 43L38 43L38 42ZM29 43L29 44L31 44L31 43ZM42 43L42 44L43 44L43 43ZM47 44L47 45L45 45L45 47L47 47L47 45L49 45L49 44ZM9 45L9 46L10 46L10 45ZM12 46L12 47L13 47L13 46ZM14 46L14 49L15 49L15 46ZM18 46L18 47L19 47L19 46ZM31 46L31 47L32 47L32 46ZM48 46L48 49L50 49L50 48L49 48L49 46ZM18 48L18 49L19 49L19 48ZM10 49L10 51L12 51L12 49ZM58 50L58 51L59 51L59 50ZM3 51L3 52L4 52L4 51ZM36 51L36 52L37 52L37 51ZM15 53L15 55L13 55L13 57L14 57L14 59L16 59L16 58L15 58L15 57L14 57L14 56L15 56L15 55L16 55L16 56L17 56L17 57L18 57L18 56L17 56L17 55L16 55L16 54L19 54L19 53ZM29 53L29 56L32 56L32 53ZM46 53L46 57L47 57L47 55L48 55L48 54L47 54L47 53ZM50 53L50 54L49 54L49 55L50 55L50 57L51 57L51 58L50 58L50 59L51 59L51 58L52 58L52 60L53 60L53 59L55 59L55 58L56 58L56 60L57 60L57 58L58 58L58 57L55 57L55 58L53 58L53 57L51 57L51 55L50 55L50 54L51 54L51 53ZM53 53L53 56L56 56L56 53ZM30 54L30 55L31 55L31 54ZM54 54L54 55L55 55L55 54ZM60 54L60 55L61 55L61 54ZM40 55L40 56L41 56L41 55ZM42 55L42 56L43 56L43 55ZM21 56L21 57L22 57L22 56ZM31 57L31 58L32 58L32 57ZM60 57L60 61L61 61L61 57ZM18 58L18 60L19 60L19 59L20 59L20 58ZM41 58L41 59L42 59L42 58ZM44 58L44 59L45 59L45 58ZM21 59L21 60L22 60L22 59ZM28 59L28 61L30 61L30 59ZM0 0L0 7L7 7L7 0ZM1 1L1 6L6 6L6 1ZM2 2L2 5L5 5L5 2ZM54 0L54 7L61 7L61 0ZM55 1L55 6L60 6L60 1ZM56 2L56 5L59 5L59 2ZM0 54L0 61L7 61L7 54ZM1 55L1 60L6 60L6 55ZM2 56L2 59L5 59L5 56Z" fill="#000000"/></g></g></svg>
