<?xml version="1.0" encoding="UTF-8"?>
<svg xmlns="http://www.w3.org/2000/svg" version="1.1" width="200" height="200" viewBox="0 0 200 200"><rect x="0" y="0" width="200" height="200" fill="#ffffff"/><g transform="scale(3.077)"><g transform="translate(0,0)"><path fill-rule="evenodd" d="M9 0L9 1L8 1L8 2L9 2L9 3L8 3L8 4L9 4L9 5L8 5L8 7L9 7L9 6L10 6L10 8L11 8L11 9L10 9L10 10L9 10L9 8L6 8L6 9L5 9L5 8L0 8L0 13L1 13L1 12L2 12L2 11L1 11L1 9L2 9L2 10L3 10L3 14L4 14L4 12L5 12L5 14L6 14L6 15L4 15L4 16L6 16L6 17L7 17L7 18L5 18L5 17L4 17L4 19L7 19L7 20L6 20L6 21L7 21L7 22L4 22L4 23L7 23L7 24L3 24L3 23L2 23L2 24L3 24L3 27L2 27L2 25L1 25L1 26L0 26L0 27L2 27L2 28L3 28L3 29L1 29L1 30L0 30L0 31L2 31L2 30L3 30L3 31L4 31L4 32L2 32L2 33L1 33L1 32L0 32L0 33L1 33L1 34L3 34L3 35L0 35L0 37L1 37L1 38L0 38L0 41L1 41L1 39L3 39L3 38L4 38L4 35L7 35L7 36L5 36L5 40L2 40L2 41L5 41L5 40L6 40L6 41L8 41L8 43L7 43L7 42L5 42L5 46L4 46L4 45L2 45L2 44L4 44L4 42L1 42L1 44L0 44L0 45L2 45L2 47L1 47L1 46L0 46L0 47L1 47L1 48L0 48L0 49L1 49L1 48L2 48L2 47L4 47L4 48L5 48L5 50L6 50L6 51L5 51L5 52L6 52L6 53L4 53L4 52L3 52L3 51L4 51L4 50L3 50L3 49L2 49L2 50L1 50L1 51L2 51L2 53L1 53L1 52L0 52L0 54L2 54L2 55L3 55L3 56L1 56L1 55L0 55L0 56L1 56L1 57L3 57L3 56L4 56L4 57L5 57L5 56L4 56L4 54L5 54L5 55L9 55L9 56L6 56L6 57L8 57L8 59L9 59L9 58L10 58L10 60L8 60L8 65L10 65L10 64L12 64L12 61L13 61L13 58L14 58L14 59L15 59L15 60L14 60L14 63L16 63L16 64L14 64L14 65L17 65L17 62L18 62L18 63L19 63L19 64L18 64L18 65L21 65L21 62L24 62L24 61L25 61L25 59L28 59L28 58L27 58L27 57L29 57L29 58L30 58L30 60L29 60L29 61L28 61L28 60L27 60L27 61L26 61L26 62L25 62L25 65L26 65L26 62L27 62L27 63L28 63L28 65L31 65L31 64L33 64L33 63L34 63L34 62L35 62L35 60L36 60L36 61L37 61L37 62L36 62L36 63L37 63L37 64L34 64L34 65L37 65L37 64L41 64L41 65L44 65L44 64L45 64L45 63L44 63L44 64L43 64L43 63L42 63L42 62L46 62L46 63L48 63L48 61L49 61L49 64L47 64L47 65L51 65L51 64L53 64L53 65L55 65L55 64L57 64L57 65L60 65L60 64L61 64L61 63L62 63L62 61L63 61L63 64L62 64L62 65L63 65L63 64L64 64L64 61L63 61L63 60L64 60L64 59L63 59L63 60L62 60L62 61L61 61L61 58L65 58L65 56L61 56L61 55L63 55L63 54L65 54L65 52L64 52L64 51L63 51L63 50L65 50L65 49L64 49L64 48L62 48L62 46L63 46L63 45L64 45L64 44L62 44L62 46L61 46L61 45L60 45L60 44L61 44L61 43L60 43L60 44L59 44L59 43L56 43L56 42L58 42L58 41L60 41L60 42L61 42L61 41L63 41L63 42L62 42L62 43L63 43L63 42L65 42L65 39L63 39L63 38L65 38L65 36L64 36L64 35L63 35L63 34L65 34L65 33L64 33L64 32L62 32L62 31L63 31L63 30L62 30L62 29L63 29L63 28L62 28L62 29L61 29L61 28L59 28L59 26L58 26L58 29L61 29L61 30L56 30L56 31L54 31L54 32L56 32L56 33L52 33L52 34L50 34L50 33L49 33L49 32L50 32L50 31L51 31L51 32L53 32L53 30L55 30L55 29L54 29L54 28L56 28L56 29L57 29L57 26L56 26L56 27L54 27L54 28L53 28L53 27L52 27L52 26L50 26L50 25L51 25L51 22L52 22L52 21L51 21L51 20L53 20L53 22L54 22L54 23L52 23L52 24L53 24L53 25L54 25L54 26L55 26L55 24L56 24L56 25L57 25L57 24L58 24L58 23L59 23L59 22L57 22L57 23L56 23L56 20L55 20L55 19L58 19L58 20L57 20L57 21L58 21L58 20L59 20L59 19L61 19L61 20L60 20L60 21L61 21L61 20L62 20L62 21L63 21L63 22L65 22L65 21L63 21L63 20L62 20L62 19L63 19L63 18L62 18L62 19L61 19L61 18L60 18L60 17L61 17L61 16L62 16L62 17L64 17L64 18L65 18L65 15L64 15L64 14L65 14L65 13L64 13L64 12L65 12L65 11L63 11L63 12L62 12L62 8L61 8L61 10L60 10L60 11L61 11L61 12L58 12L58 10L56 10L56 11L57 11L57 13L59 13L59 14L61 14L61 13L63 13L63 14L62 14L62 15L61 15L61 16L59 16L59 15L58 15L58 14L56 14L56 12L55 12L55 11L52 11L52 12L54 12L54 13L51 13L51 11L50 11L50 7L51 7L51 8L53 8L53 10L55 10L55 9L54 9L54 7L55 7L55 8L56 8L56 9L58 9L58 8L56 8L56 7L57 7L57 6L56 6L56 7L55 7L55 5L54 5L54 7L53 7L53 4L56 4L56 5L57 5L57 4L56 4L56 3L57 3L57 1L56 1L56 0L55 0L55 1L56 1L56 3L55 3L55 2L54 2L54 3L53 3L53 0L51 0L51 1L50 1L50 0L49 0L49 1L48 1L48 2L49 2L49 1L50 1L50 2L51 2L51 3L53 3L53 4L51 4L51 5L50 5L50 4L49 4L49 3L47 3L47 2L46 2L46 1L45 1L45 0L44 0L44 1L45 1L45 2L42 2L42 3L43 3L43 4L42 4L42 5L43 5L43 6L42 6L42 7L43 7L43 8L41 8L41 6L40 6L40 7L39 7L39 5L38 5L38 4L37 4L37 3L36 3L36 5L35 5L35 4L32 4L32 3L34 3L34 2L35 2L35 1L34 1L34 0L33 0L33 1L34 1L34 2L32 2L32 1L31 1L31 0L30 0L30 1L31 1L31 2L30 2L30 3L31 3L31 4L30 4L30 5L29 5L29 6L28 6L28 4L29 4L29 3L28 3L28 2L29 2L29 1L25 1L25 0L21 0L21 1L20 1L20 3L19 3L19 4L18 4L18 3L17 3L17 4L18 4L18 7L17 7L17 6L16 6L16 4L15 4L15 3L16 3L16 2L14 2L14 1L15 1L15 0L12 0L12 1L10 1L10 0ZM16 0L16 1L17 1L17 2L18 2L18 1L17 1L17 0ZM36 0L36 2L38 2L38 3L39 3L39 4L40 4L40 3L41 3L41 2L40 2L40 1L43 1L43 0L39 0L39 1L37 1L37 0ZM9 1L9 2L10 2L10 5L11 5L11 4L13 4L13 5L12 5L12 6L11 6L11 8L12 8L12 9L11 9L11 10L12 10L12 11L13 11L13 12L11 12L11 13L10 13L10 11L8 11L8 10L7 10L7 9L6 9L6 10L5 10L5 9L4 9L4 10L5 10L5 11L6 11L6 12L8 12L8 13L6 13L6 14L7 14L7 15L6 15L6 16L7 16L7 17L8 17L8 18L7 18L7 19L8 19L8 20L7 20L7 21L8 21L8 22L7 22L7 23L8 23L8 22L9 22L9 21L8 21L8 20L10 20L10 21L11 21L11 24L8 24L8 26L9 26L9 27L5 27L5 28L4 28L4 27L3 27L3 28L4 28L4 29L3 29L3 30L4 30L4 29L5 29L5 30L8 30L8 28L9 28L9 27L10 27L10 26L11 26L11 25L13 25L13 24L15 24L15 23L16 23L16 24L17 24L17 23L20 23L20 22L21 22L21 25L20 25L20 24L19 24L19 25L15 25L15 26L14 26L14 27L11 27L11 28L10 28L10 29L9 29L9 30L10 30L10 31L9 31L9 35L11 35L11 36L7 36L7 37L6 37L6 38L7 38L7 39L6 39L6 40L7 40L7 39L8 39L8 41L9 41L9 39L10 39L10 40L12 40L12 39L13 39L13 38L16 38L16 39L14 39L14 41L13 41L13 42L14 42L14 41L15 41L15 42L17 42L17 43L16 43L16 44L14 44L14 43L13 43L13 44L12 44L12 41L11 41L11 44L12 44L12 47L13 47L13 48L14 48L14 50L15 50L15 48L14 48L14 47L16 47L16 48L17 48L17 49L16 49L16 51L15 51L15 52L13 52L13 50L12 50L12 48L11 48L11 46L9 46L9 45L10 45L10 44L7 44L7 43L6 43L6 44L7 44L7 45L6 45L6 46L5 46L5 48L7 48L7 49L6 49L6 50L7 50L7 51L6 51L6 52L7 52L7 53L6 53L6 54L9 54L9 55L11 55L11 57L10 57L10 58L12 58L12 55L11 55L11 54L10 54L10 53L11 53L11 50L12 50L12 52L13 52L13 53L12 53L12 54L13 54L13 55L14 55L14 54L17 54L17 55L16 55L16 56L17 56L17 57L16 57L16 58L17 58L17 59L18 59L18 58L19 58L19 59L21 59L21 60L19 60L19 61L18 61L18 62L19 62L19 63L20 63L20 62L19 62L19 61L24 61L24 60L22 60L22 59L23 59L23 58L24 58L24 57L25 57L25 58L26 58L26 57L27 57L27 56L29 56L29 54L30 54L30 56L31 56L31 54L32 54L32 55L33 55L33 56L34 56L34 55L35 55L35 56L37 56L37 55L38 55L38 56L39 56L39 55L38 55L38 54L41 54L41 56L40 56L40 57L41 57L41 58L40 58L40 59L41 59L41 58L42 58L42 59L43 59L43 60L44 60L44 61L45 61L45 60L44 60L44 57L45 57L45 56L44 56L44 53L45 53L45 55L46 55L46 56L47 56L47 55L46 55L46 54L49 54L49 55L48 55L48 56L50 56L50 58L47 58L47 57L46 57L46 58L45 58L45 59L46 59L46 60L49 60L49 61L50 61L50 62L52 62L52 63L53 63L53 64L54 64L54 63L55 63L55 62L53 62L53 60L54 60L54 59L55 59L55 61L56 61L56 59L55 59L55 58L56 58L56 55L60 55L60 54L59 54L59 53L60 53L60 51L61 51L61 50L59 50L59 48L60 48L60 49L62 49L62 48L60 48L60 47L61 47L61 46L60 46L60 45L59 45L59 44L57 44L57 47L56 47L56 44L55 44L55 42L54 42L54 41L56 41L56 40L57 40L57 41L58 41L58 40L57 40L57 39L59 39L59 40L60 40L60 41L61 41L61 40L63 40L63 41L64 41L64 40L63 40L63 39L61 39L61 40L60 40L60 38L59 38L59 37L61 37L61 38L63 38L63 37L64 37L64 36L63 36L63 35L62 35L62 34L61 34L61 35L62 35L62 36L59 36L59 35L57 35L57 36L54 36L54 37L57 37L57 38L56 38L56 40L54 40L54 38L53 38L53 36L51 36L51 35L50 35L50 34L49 34L49 33L48 33L48 32L49 32L49 31L50 31L50 30L51 30L51 31L52 31L52 30L53 30L53 28L52 28L52 30L51 30L51 29L50 29L50 28L51 28L51 27L50 27L50 26L49 26L49 25L48 25L48 26L47 26L47 25L46 25L46 24L49 24L49 23L50 23L50 22L51 22L51 21L50 21L50 20L51 20L51 19L49 19L49 17L48 17L48 16L50 16L50 18L53 18L53 20L54 20L54 19L55 19L55 18L54 18L54 16L55 16L55 17L56 17L56 18L59 18L59 16L58 16L58 15L56 15L56 14L52 14L52 15L54 15L54 16L51 16L51 15L50 15L50 14L51 14L51 13L48 13L48 12L49 12L49 11L48 11L48 10L47 10L47 9L45 9L45 8L46 8L46 6L45 6L45 8L43 8L43 9L44 9L44 10L42 10L42 9L41 9L41 8L40 8L40 9L38 9L38 8L39 8L39 7L38 7L38 5L36 5L36 6L35 6L35 9L34 9L34 10L32 10L32 9L31 9L31 12L29 12L29 9L30 9L30 8L29 8L29 7L30 7L30 6L29 6L29 7L28 7L28 6L27 6L27 4L25 4L25 3L26 3L26 2L25 2L25 1L23 1L23 4L22 4L22 3L21 3L21 4L19 4L19 9L16 9L16 8L17 8L17 7L16 7L16 6L15 6L15 7L16 7L16 8L14 8L14 9L15 9L15 10L13 10L13 7L14 7L14 6L13 6L13 5L15 5L15 4L14 4L14 3L13 3L13 2L12 2L12 3L11 3L11 2L10 2L10 1ZM21 1L21 2L22 2L22 1ZM51 1L51 2L52 2L52 1ZM24 2L24 3L25 3L25 2ZM39 2L39 3L40 3L40 2ZM44 3L44 4L43 4L43 5L45 5L45 3ZM21 4L21 5L20 5L20 7L21 7L21 8L20 8L20 9L19 9L19 12L18 12L18 13L20 13L20 12L23 12L23 13L21 13L21 14L23 14L23 15L22 15L22 16L23 16L23 15L24 15L24 16L25 16L25 17L24 17L24 19L23 19L23 20L24 20L24 19L25 19L25 20L26 20L26 19L25 19L25 18L27 18L27 20L28 20L28 21L29 21L29 22L26 22L26 21L23 21L23 22L26 22L26 23L28 23L28 24L27 24L27 25L26 25L26 24L25 24L25 23L24 23L24 24L23 24L23 25L21 25L21 26L23 26L23 25L24 25L24 26L25 26L25 25L26 25L26 28L27 28L27 29L25 29L25 27L24 27L24 29L22 29L22 30L21 30L21 29L19 29L19 28L20 28L20 25L19 25L19 26L18 26L18 27L19 27L19 28L17 28L17 29L16 29L16 27L15 27L15 29L13 29L13 28L12 28L12 29L11 29L11 30L15 30L15 31L16 31L16 32L15 32L15 33L13 33L13 34L15 34L15 35L13 35L13 37L14 37L14 36L15 36L15 37L18 37L18 38L17 38L17 39L18 39L18 41L19 41L19 42L20 42L20 43L22 43L22 44L23 44L23 45L22 45L22 48L23 48L23 47L24 47L24 48L25 48L25 49L24 49L24 50L27 50L27 51L28 51L28 49L29 49L29 48L28 48L28 47L25 47L25 43L24 43L24 44L23 44L23 43L22 43L22 42L23 42L23 41L21 41L21 40L22 40L22 39L23 39L23 38L24 38L24 40L25 40L25 41L24 41L24 42L25 42L25 41L26 41L26 42L27 42L27 41L30 41L30 40L31 40L31 41L33 41L33 40L35 40L35 41L37 41L37 42L38 42L38 43L37 43L37 44L36 44L36 45L38 45L38 43L39 43L39 44L41 44L41 43L42 43L42 45L41 45L41 46L40 46L40 45L39 45L39 46L37 46L37 47L34 47L34 44L35 44L35 43L36 43L36 42L35 42L35 43L34 43L34 42L31 42L31 43L30 43L30 42L29 42L29 43L30 43L30 44L31 44L31 43L34 43L34 44L32 44L32 45L31 45L31 46L32 46L32 47L34 47L34 48L32 48L32 49L31 49L31 47L30 47L30 46L29 46L29 47L30 47L30 49L31 49L31 50L30 50L30 51L31 51L31 52L27 52L27 53L30 53L30 54L31 54L31 52L32 52L32 53L33 53L33 54L35 54L35 55L36 55L36 54L35 54L35 53L38 53L38 51L39 51L39 52L42 52L42 53L41 53L41 54L43 54L43 51L44 51L44 52L46 52L46 53L49 53L49 54L50 54L50 55L51 55L51 56L54 56L54 58L55 58L55 56L54 56L54 55L56 55L56 54L57 54L57 53L59 53L59 52L57 52L57 53L56 53L56 54L55 54L55 53L52 53L52 55L51 55L51 54L50 54L50 53L51 53L51 51L52 51L52 52L53 52L53 51L52 51L52 50L56 50L56 49L52 49L52 50L50 50L50 48L56 48L56 47L52 47L52 46L55 46L55 44L54 44L54 45L52 45L52 44L53 44L53 43L51 43L51 42L52 42L52 41L51 41L51 40L53 40L53 39L51 39L51 38L50 38L50 35L49 35L49 34L48 34L48 35L49 35L49 36L47 36L47 34L45 34L45 33L44 33L44 34L45 34L45 36L47 36L47 38L46 38L46 39L47 39L47 42L46 42L46 41L44 41L44 42L45 42L45 43L44 43L44 44L43 44L43 43L42 43L42 42L43 42L43 40L45 40L45 39L43 39L43 40L42 40L42 38L43 38L43 37L44 37L44 38L45 38L45 37L44 37L44 36L43 36L43 35L42 35L42 36L43 36L43 37L41 37L41 38L40 38L40 40L38 40L38 41L37 41L37 40L36 40L36 39L33 39L33 38L32 38L32 39L33 39L33 40L31 40L31 37L30 37L30 38L29 38L29 40L28 40L28 39L27 39L27 38L25 38L25 37L29 37L29 36L32 36L32 37L34 37L34 36L35 36L35 35L36 35L36 34L37 34L37 36L36 36L36 37L35 37L35 38L38 38L38 39L39 39L39 38L38 38L38 37L39 37L39 35L41 35L41 34L43 34L43 31L44 31L44 32L45 32L45 31L47 31L47 32L48 32L48 31L49 31L49 30L48 30L48 29L49 29L49 28L48 28L48 29L47 29L47 28L46 28L46 29L47 29L47 30L45 30L45 29L44 29L44 28L45 28L45 27L47 27L47 26L45 26L45 27L42 27L42 30L41 30L41 31L39 31L39 30L38 30L38 29L37 29L37 28L36 28L36 27L37 27L37 26L36 26L36 27L35 27L35 26L34 26L34 24L35 24L35 25L37 25L37 24L39 24L39 25L40 25L40 26L38 26L38 27L40 27L40 28L41 28L41 27L40 27L40 26L41 26L41 25L40 25L40 24L46 24L46 22L45 22L45 21L48 21L48 22L47 22L47 23L48 23L48 22L50 22L50 21L49 21L49 20L46 20L46 19L47 19L47 18L46 18L46 19L45 19L45 18L43 18L43 16L42 16L42 14L43 14L43 15L44 15L44 16L46 16L46 15L47 15L47 14L45 14L45 15L44 15L44 13L43 13L43 11L42 11L42 10L41 10L41 11L40 11L40 10L38 10L38 11L39 11L39 12L41 12L41 13L42 13L42 14L41 14L41 15L40 15L40 13L39 13L39 14L37 14L37 12L36 12L36 11L37 11L37 8L36 8L36 9L35 9L35 10L34 10L34 11L32 11L32 12L31 12L31 14L30 14L30 13L29 13L29 15L30 15L30 18L31 18L31 19L30 19L30 20L33 20L33 21L31 21L31 22L30 22L30 21L29 21L29 18L28 18L28 17L29 17L29 16L28 16L28 15L27 15L27 17L26 17L26 15L25 15L25 14L28 14L28 13L25 13L25 12L23 12L23 11L20 11L20 9L21 9L21 8L24 8L24 7L25 7L25 6L24 6L24 5L25 5L25 4L23 4L23 5L22 5L22 4ZM46 4L46 5L48 5L48 6L47 6L47 8L49 8L49 7L50 7L50 6L49 6L49 5L48 5L48 4ZM21 5L21 7L22 7L22 5ZM31 5L31 8L34 8L34 5ZM12 6L12 7L13 7L13 6ZM23 6L23 7L24 7L24 6ZM26 6L26 7L27 7L27 6ZM32 6L32 7L33 7L33 6ZM36 6L36 7L37 7L37 6ZM43 6L43 7L44 7L44 6ZM48 6L48 7L49 7L49 6ZM51 6L51 7L52 7L52 6ZM25 8L25 9L22 9L22 10L25 10L25 9L26 9L26 10L27 10L27 9L26 9L26 8ZM28 8L28 9L29 9L29 8ZM59 8L59 9L60 9L60 8ZM63 8L63 10L65 10L65 9L64 9L64 8ZM51 9L51 10L52 10L52 9ZM6 10L6 11L7 11L7 10ZM16 10L16 13L15 13L15 11L14 11L14 12L13 12L13 13L12 13L12 14L11 14L11 15L13 15L13 16L14 16L14 15L13 15L13 13L15 13L15 14L17 14L17 10ZM44 10L44 12L46 12L46 11L47 11L47 12L48 12L48 11L47 11L47 10ZM26 11L26 12L27 12L27 11ZM34 11L34 12L35 12L35 13L34 13L34 14L31 14L31 18L35 18L35 17L36 17L36 16L37 16L37 19L34 19L34 21L33 21L33 22L31 22L31 24L29 24L29 25L27 25L27 26L28 26L28 27L27 27L27 28L28 28L28 29L27 29L27 30L26 30L26 33L25 33L25 29L24 29L24 30L22 30L22 31L24 31L24 32L21 32L21 33L20 33L20 32L19 32L19 31L20 31L20 30L18 30L18 29L17 29L17 30L18 30L18 32L17 32L17 33L15 33L15 34L18 34L18 35L16 35L16 36L18 36L18 37L20 37L20 38L21 38L21 39L22 39L22 38L23 38L23 37L22 37L22 36L21 36L21 35L22 35L22 34L21 34L21 33L23 33L23 36L24 36L24 37L25 37L25 36L26 36L26 35L25 35L25 34L26 34L26 33L28 33L28 34L29 34L29 35L28 35L28 36L29 36L29 35L30 35L30 34L29 34L29 33L28 33L28 31L27 31L27 30L28 30L28 29L30 29L30 30L31 30L31 28L32 28L32 30L33 30L33 28L32 28L32 27L34 27L34 26L33 26L33 24L32 24L32 23L33 23L33 22L35 22L35 24L37 24L37 23L38 23L38 22L39 22L39 24L40 24L40 22L41 22L41 23L44 23L44 22L42 22L42 20L43 20L43 18L41 18L41 16L40 16L40 17L38 17L38 15L37 15L37 14L35 14L35 13L36 13L36 12L35 12L35 11ZM32 12L32 13L33 13L33 12ZM8 13L8 15L7 15L7 16L9 16L9 18L10 18L10 17L11 17L11 16L10 16L10 13ZM23 13L23 14L24 14L24 13ZM1 14L1 15L2 15L2 16L3 16L3 15L2 15L2 14ZM18 14L18 15L20 15L20 14ZM34 14L34 15L32 15L32 16L33 16L33 17L35 17L35 16L36 16L36 15L35 15L35 14ZM48 14L48 15L49 15L49 14ZM34 15L34 16L35 16L35 15ZM62 15L62 16L64 16L64 15ZM15 16L15 17L12 17L12 18L11 18L11 19L10 19L10 20L12 20L12 24L13 24L13 21L14 21L14 23L15 23L15 22L16 22L16 21L14 21L14 20L18 20L18 21L17 21L17 22L19 22L19 17L21 17L21 16L17 16L17 17L18 17L18 19L17 19L17 18L15 18L15 17L16 17L16 16ZM56 16L56 17L57 17L57 16ZM1 17L1 19L0 19L0 24L1 24L1 22L3 22L3 21L5 21L5 20L3 20L3 19L2 19L2 18L3 18L3 17ZM22 17L22 18L20 18L20 19L22 19L22 18L23 18L23 17ZM38 18L38 19L37 19L37 20L36 20L36 21L37 21L37 22L36 22L36 23L37 23L37 22L38 22L38 21L39 21L39 22L40 22L40 21L39 21L39 18ZM1 19L1 20L2 20L2 21L3 21L3 20L2 20L2 19ZM13 19L13 20L14 20L14 19ZM40 19L40 20L42 20L42 19ZM44 19L44 21L45 21L45 19ZM20 20L20 21L22 21L22 20ZM61 22L61 23L62 23L62 22ZM54 23L54 24L55 24L55 23ZM24 24L24 25L25 25L25 24ZM60 24L60 25L63 25L63 26L62 26L62 27L63 27L63 26L65 26L65 24ZM4 25L4 26L5 26L5 25ZM6 25L6 26L7 26L7 25ZM9 25L9 26L10 26L10 25ZM29 25L29 26L30 26L30 27L28 27L28 28L31 28L31 27L32 27L32 25ZM42 25L42 26L44 26L44 25ZM48 26L48 27L49 27L49 26ZM64 27L64 28L65 28L65 27ZM5 28L5 29L7 29L7 28ZM35 28L35 29L34 29L34 30L35 30L35 31L36 31L36 32L37 32L37 33L38 33L38 35L39 35L39 34L41 34L41 32L42 32L42 31L43 31L43 30L42 30L42 31L41 31L41 32L39 32L39 31L38 31L38 30L37 30L37 29L36 29L36 28ZM15 29L15 30L16 30L16 29ZM64 29L64 30L65 30L65 29ZM36 30L36 31L37 31L37 30ZM47 30L47 31L48 31L48 30ZM5 31L5 34L8 34L8 31ZM10 31L10 32L13 32L13 31ZM29 31L29 32L30 32L30 31ZM31 31L31 34L34 34L34 31ZM57 31L57 34L60 34L60 31ZM6 32L6 33L7 33L7 32ZM18 32L18 33L19 33L19 32ZM32 32L32 33L33 33L33 32ZM38 32L38 33L39 33L39 32ZM58 32L58 33L59 33L59 32ZM61 32L61 33L62 33L62 32ZM11 33L11 35L12 35L12 33ZM24 33L24 34L25 34L25 33ZM35 33L35 34L36 34L36 33ZM19 34L19 36L20 36L20 37L21 37L21 38L22 38L22 37L21 37L21 36L20 36L20 34ZM52 34L52 35L53 35L53 34ZM54 34L54 35L56 35L56 34ZM24 35L24 36L25 36L25 35ZM32 35L32 36L33 36L33 35ZM1 36L1 37L2 37L2 38L3 38L3 36ZM11 36L11 37L10 37L10 39L11 39L11 38L12 38L12 36ZM37 36L37 37L38 37L38 36ZM57 36L57 37L58 37L58 36ZM62 36L62 37L63 37L63 36ZM8 37L8 38L9 38L9 37ZM18 38L18 39L19 39L19 38ZM47 38L47 39L48 39L48 40L49 40L49 41L48 41L48 42L47 42L47 43L45 43L45 44L44 44L44 46L41 46L41 47L42 47L42 48L39 48L39 47L40 47L40 46L39 46L39 47L38 47L38 50L37 50L37 49L36 49L36 50L33 50L33 49L32 49L32 50L31 50L31 51L32 51L32 52L33 52L33 53L34 53L34 52L37 52L37 51L38 51L38 50L39 50L39 51L43 51L43 50L44 50L44 49L45 49L45 51L46 51L46 52L49 52L49 53L50 53L50 52L49 52L49 51L50 51L50 50L49 50L49 49L48 49L48 48L50 48L50 46L51 46L51 44L49 44L49 43L50 43L50 42L51 42L51 41L50 41L50 40L49 40L49 39L50 39L50 38ZM16 40L16 41L17 41L17 40ZM19 40L19 41L20 41L20 42L21 42L21 41L20 41L20 40ZM26 40L26 41L27 41L27 40ZM40 40L40 41L38 41L38 42L39 42L39 43L40 43L40 42L42 42L42 41L41 41L41 40ZM49 41L49 42L48 42L48 43L47 43L47 46L46 46L46 45L45 45L45 47L44 47L44 48L46 48L46 49L47 49L47 48L46 48L46 47L48 47L48 46L49 46L49 44L48 44L48 43L49 43L49 42L50 42L50 41ZM13 44L13 45L14 45L14 44ZM17 44L17 45L20 45L20 44ZM7 45L7 46L6 46L6 47L7 47L7 48L8 48L8 49L7 49L7 50L9 50L9 51L7 51L7 52L8 52L8 53L10 53L10 50L11 50L11 49L9 49L9 48L10 48L10 47L9 47L9 48L8 48L8 47L7 47L7 46L8 46L8 45ZM15 45L15 46L16 46L16 45ZM23 45L23 46L24 46L24 45ZM26 45L26 46L28 46L28 45ZM32 45L32 46L33 46L33 45ZM13 46L13 47L14 47L14 46ZM19 46L19 47L20 47L20 46ZM17 47L17 48L18 48L18 49L19 49L19 50L18 50L18 51L16 51L16 52L15 52L15 53L17 53L17 54L18 54L18 55L20 55L20 57L21 57L21 59L22 59L22 58L23 58L23 57L24 57L24 56L25 56L25 57L26 57L26 56L27 56L27 55L28 55L28 54L26 54L26 53L24 53L24 51L23 51L23 54L22 54L22 55L20 55L20 53L22 53L22 52L20 52L20 53L19 53L19 50L20 50L20 49L21 49L21 48L20 48L20 49L19 49L19 48L18 48L18 47ZM57 47L57 48L59 48L59 47ZM26 48L26 49L27 49L27 48ZM34 48L34 49L35 49L35 48ZM42 48L42 49L41 49L41 50L43 50L43 48ZM22 49L22 50L21 50L21 51L22 51L22 50L23 50L23 49ZM39 49L39 50L40 50L40 49ZM36 50L36 51L37 51L37 50ZM46 50L46 51L48 51L48 50ZM25 51L25 52L26 52L26 51ZM33 51L33 52L34 52L34 51ZM54 51L54 52L56 52L56 51ZM62 51L62 52L61 52L61 54L63 54L63 53L64 53L64 52L63 52L63 51ZM17 52L17 53L18 53L18 52ZM62 52L62 53L63 53L63 52ZM2 53L2 54L3 54L3 53ZM13 53L13 54L14 54L14 53ZM23 54L23 55L22 55L22 57L23 57L23 56L24 56L24 55L25 55L25 56L26 56L26 55L25 55L25 54ZM53 54L53 55L54 55L54 54ZM42 55L42 56L41 56L41 57L42 57L42 58L43 58L43 55ZM13 56L13 57L14 57L14 58L15 58L15 57L14 57L14 56ZM18 56L18 57L17 57L17 58L18 58L18 57L19 57L19 56ZM31 57L31 60L34 60L34 57ZM38 57L38 58L37 58L37 59L36 59L36 60L38 60L38 62L37 62L37 63L38 63L38 62L39 62L39 63L41 63L41 64L42 64L42 63L41 63L41 62L42 62L42 61L41 61L41 60L38 60L38 58L39 58L39 57ZM51 57L51 58L50 58L50 59L51 59L51 60L50 60L50 61L52 61L52 60L53 60L53 59L52 59L52 58L53 58L53 57ZM57 57L57 60L60 60L60 57ZM32 58L32 59L33 59L33 58ZM46 58L46 59L47 59L47 58ZM58 58L58 59L59 59L59 58ZM11 59L11 60L12 60L12 59ZM16 60L16 61L15 61L15 62L16 62L16 61L17 61L17 60ZM9 61L9 62L10 62L10 63L9 63L9 64L10 64L10 63L11 63L11 62L10 62L10 61ZM27 61L27 62L28 62L28 61ZM30 61L30 63L29 63L29 64L31 64L31 63L33 63L33 62L31 62L31 61ZM46 61L46 62L47 62L47 61ZM57 61L57 62L56 62L56 63L58 63L58 64L59 64L59 63L60 63L60 62L61 62L61 61ZM23 63L23 64L24 64L24 63ZM0 0L0 7L7 7L7 0ZM1 1L1 6L6 6L6 1ZM2 2L2 5L5 5L5 2ZM58 0L58 7L65 7L65 0ZM59 1L59 6L64 6L64 1ZM60 2L60 5L63 5L63 2ZM0 58L0 65L7 65L7 58ZM1 59L1 64L6 64L6 59ZM2 60L2 63L5 63L5 60Z" fill="#000000"/></g></g></svg>
