<?xml version="1.0" encoding="UTF-8"?>
<svg xmlns="http://www.w3.org/2000/svg" version="1.1" width="200" height="200" viewBox="0 0 200 200"><rect x="0" y="0" width="200" height="200" fill="#ffffff"/><g transform="scale(3.279)"><g transform="translate(0,0)"><path fill-rule="evenodd" d="M8 0L8 4L9 4L9 5L8 5L8 7L9 7L9 8L11 8L11 9L10 9L10 11L9 11L9 12L6 12L6 13L8 13L8 15L10 15L10 16L12 16L12 18L11 18L11 17L10 17L10 18L9 18L9 19L10 19L10 20L9 20L9 21L8 21L8 20L6 20L6 21L5 21L5 18L6 18L6 19L7 19L7 18L8 18L8 17L9 17L9 16L8 16L8 17L7 17L7 16L6 16L6 15L7 15L7 14L6 14L6 15L5 15L5 16L6 16L6 17L5 17L5 18L3 18L3 17L4 17L4 15L3 15L3 14L5 14L5 13L3 13L3 14L0 14L0 15L1 15L1 16L0 16L0 18L1 18L1 16L2 16L2 19L1 19L1 20L3 20L3 19L4 19L4 21L2 21L2 22L0 22L0 23L1 23L1 24L2 24L2 23L3 23L3 25L4 25L4 26L3 26L3 27L2 27L2 25L1 25L1 26L0 26L0 27L2 27L2 28L0 28L0 29L2 29L2 28L3 28L3 31L4 31L4 33L3 33L3 32L2 32L2 31L1 31L1 30L0 30L0 32L1 32L1 33L3 33L3 34L4 34L4 35L2 35L2 34L1 34L1 35L0 35L0 37L1 37L1 36L2 36L2 39L3 39L3 38L4 38L4 39L5 39L5 41L4 41L4 40L2 40L2 42L0 42L0 46L1 46L1 49L0 49L0 50L1 50L1 49L2 49L2 51L0 51L0 53L4 53L4 52L5 52L5 51L12 51L12 49L13 49L13 50L14 50L14 52L12 52L12 53L15 53L15 56L14 56L14 58L13 58L13 56L12 56L12 55L11 55L11 54L9 54L9 53L11 53L11 52L9 52L9 53L8 53L8 54L9 54L9 55L8 55L8 57L9 57L9 58L10 58L10 59L8 59L8 61L11 61L11 60L10 60L10 59L12 59L12 61L14 61L14 60L13 60L13 59L15 59L15 60L16 60L16 61L22 61L22 60L23 60L23 61L24 61L24 60L25 60L25 61L28 61L28 59L30 59L30 60L29 60L29 61L30 61L30 60L31 60L31 61L33 61L33 60L34 60L34 61L38 61L38 60L36 60L36 58L37 58L37 56L38 56L38 55L39 55L39 56L40 56L40 55L41 55L41 56L42 56L42 55L44 55L44 58L43 58L43 57L41 57L41 61L42 61L42 58L43 58L43 59L44 59L44 60L43 60L43 61L45 61L45 59L47 59L47 60L48 60L48 61L52 61L52 60L54 60L54 59L56 59L56 60L55 60L55 61L57 61L57 60L58 60L58 61L61 61L61 60L60 60L60 58L61 58L61 55L60 55L60 53L61 53L61 51L60 51L60 53L59 53L59 51L58 51L58 50L57 50L57 49L56 49L56 48L58 48L58 49L59 49L59 48L60 48L60 49L61 49L61 47L60 47L60 45L61 45L61 44L60 44L60 45L59 45L59 43L60 43L60 41L59 41L59 40L61 40L61 39L58 39L58 38L59 38L59 35L57 35L57 33L58 33L58 34L59 34L59 32L61 32L61 31L60 31L60 30L59 30L59 31L58 31L58 30L57 30L57 27L58 27L58 29L59 29L59 28L60 28L60 29L61 29L61 27L59 27L59 26L60 26L60 24L61 24L61 23L58 23L58 22L57 22L57 20L58 20L58 21L59 21L59 22L60 22L60 20L61 20L61 19L60 19L60 20L59 20L59 19L58 19L58 18L57 18L57 16L58 16L58 17L59 17L59 16L60 16L60 17L61 17L61 15L58 15L58 14L59 14L59 11L60 11L60 12L61 12L61 11L60 11L60 10L58 10L58 9L61 9L61 8L57 8L57 10L56 10L56 8L55 8L55 9L54 9L54 10L53 10L53 11L52 11L52 9L53 9L53 8L52 8L52 7L53 7L53 6L52 6L52 7L51 7L51 5L52 5L52 4L53 4L53 0L51 0L51 2L50 2L50 3L49 3L49 4L50 4L50 5L48 5L48 4L47 4L47 2L48 2L48 1L50 1L50 0L48 0L48 1L46 1L46 2L45 2L45 0L41 0L41 1L42 1L42 2L41 2L41 3L40 3L40 2L39 2L39 1L40 1L40 0L38 0L38 2L39 2L39 3L38 3L38 4L37 4L37 5L36 5L36 7L35 7L35 6L34 6L34 7L33 7L33 5L34 5L34 4L36 4L36 3L37 3L37 1L36 1L36 2L34 2L34 4L32 4L32 2L33 2L33 1L34 1L34 0L33 0L33 1L32 1L32 2L31 2L31 3L29 3L29 4L28 4L28 7L27 7L27 6L26 6L26 2L27 2L27 3L28 3L28 2L30 2L30 1L31 1L31 0L29 0L29 1L28 1L28 2L27 2L27 1L26 1L26 0L19 0L19 1L18 1L18 2L16 2L16 1L15 1L15 0L14 0L14 1L13 1L13 0L12 0L12 3L11 3L11 0ZM21 1L21 2L19 2L19 3L18 3L18 4L17 4L17 3L16 3L16 5L15 5L15 3L14 3L14 2L13 2L13 3L12 3L12 4L11 4L11 5L9 5L9 7L10 7L10 6L11 6L11 7L12 7L12 6L13 6L13 7L14 7L14 6L13 6L13 5L12 5L12 4L14 4L14 5L15 5L15 7L16 7L16 6L17 6L17 7L18 7L18 6L19 6L19 7L20 7L20 8L18 8L18 9L16 9L16 10L15 10L15 9L14 9L14 8L12 8L12 9L11 9L11 10L12 10L12 9L13 9L13 10L14 10L14 12L16 12L16 10L17 10L17 11L18 11L18 12L20 12L20 13L21 13L21 16L19 16L19 15L20 15L20 14L19 14L19 13L14 13L14 14L15 14L15 16L14 16L14 15L13 15L13 13L12 13L12 12L11 12L11 11L10 11L10 12L11 12L11 14L10 14L10 13L9 13L9 14L10 14L10 15L11 15L11 14L12 14L12 16L13 16L13 17L17 17L17 18L16 18L16 19L15 19L15 20L14 20L14 19L13 19L13 18L12 18L12 20L10 20L10 21L12 21L12 20L13 20L13 21L14 21L14 22L15 22L15 24L14 24L14 26L13 26L13 27L12 27L12 26L11 26L11 25L12 25L12 23L11 23L11 22L10 22L10 23L9 23L9 22L7 22L7 21L6 21L6 22L7 22L7 23L6 23L6 24L8 24L8 23L9 23L9 24L11 24L11 25L10 25L10 26L9 26L9 25L6 25L6 26L5 26L5 27L3 27L3 28L5 28L5 27L6 27L6 28L9 28L9 32L11 32L11 29L12 29L12 33L11 33L11 35L9 35L9 34L10 34L10 33L5 33L5 34L8 34L8 36L9 36L9 37L4 37L4 36L7 36L7 35L4 35L4 36L3 36L3 37L4 37L4 38L9 38L9 37L10 37L10 39L6 39L6 40L9 40L9 41L10 41L10 39L12 39L12 38L11 38L11 37L12 37L12 36L11 36L11 35L12 35L12 33L13 33L13 32L14 32L14 33L15 33L15 35L16 35L16 34L17 34L17 29L16 29L16 27L17 27L17 28L19 28L19 27L20 27L20 26L22 26L22 25L26 25L26 23L27 23L27 22L28 22L28 23L29 23L29 24L28 24L28 27L29 27L29 25L30 25L30 28L31 28L31 25L32 25L32 28L33 28L33 26L34 26L34 27L35 27L35 25L36 25L36 28L38 28L38 29L39 29L39 30L40 30L40 29L41 29L41 27L42 27L42 28L43 28L43 29L44 29L44 32L42 32L42 31L41 31L41 32L40 32L40 34L42 34L42 33L43 33L43 34L45 34L45 36L46 36L46 38L44 38L44 35L43 35L43 40L41 40L41 39L40 39L40 38L41 38L41 35L40 35L40 37L39 37L39 39L37 39L37 42L36 42L36 41L34 41L34 40L33 40L33 39L32 39L32 37L29 37L29 36L31 36L31 35L32 35L32 36L33 36L33 38L34 38L34 39L36 39L36 38L35 38L35 37L36 37L36 35L37 35L37 37L38 37L38 35L37 35L37 34L38 34L38 33L36 33L36 31L37 31L37 30L35 30L35 29L33 29L33 32L34 32L34 34L36 34L36 35L35 35L35 37L34 37L34 36L33 36L33 33L29 33L29 34L30 34L30 35L27 35L27 33L26 33L26 36L25 36L25 34L23 34L23 33L24 33L24 32L26 32L26 31L28 31L28 29L25 29L25 28L26 28L26 27L27 27L27 26L23 26L23 27L22 27L22 29L21 29L21 30L20 30L20 29L18 29L18 31L19 31L19 30L20 30L20 32L19 32L19 33L18 33L18 35L19 35L19 37L16 37L16 38L15 38L15 41L14 41L14 39L13 39L13 41L12 41L12 40L11 40L11 42L13 42L13 43L11 43L11 44L9 44L9 46L7 46L7 45L8 45L8 43L10 43L10 42L8 42L8 41L6 41L6 42L5 42L5 43L6 43L6 44L4 44L4 41L3 41L3 44L2 44L2 43L1 43L1 46L3 46L3 45L6 45L6 46L7 46L7 47L6 47L6 48L9 48L9 49L5 49L5 48L4 48L4 47L5 47L5 46L4 46L4 47L3 47L3 48L2 48L2 49L3 49L3 50L9 50L9 49L11 49L11 48L13 48L13 49L17 49L17 46L18 46L18 48L20 48L20 49L22 49L22 50L23 50L23 51L22 51L22 52L21 52L21 50L19 50L19 49L18 49L18 50L16 50L16 51L15 51L15 53L16 53L16 55L17 55L17 57L16 57L16 56L15 56L15 57L16 57L16 59L17 59L17 57L18 57L18 56L19 56L19 55L22 55L22 57L23 57L23 58L24 58L24 59L23 59L23 60L24 60L24 59L25 59L25 60L27 60L27 58L28 58L28 52L27 52L27 49L26 49L26 51L24 51L24 50L23 50L23 48L22 48L22 47L19 47L19 46L20 46L20 44L22 44L22 46L23 46L23 47L25 47L25 48L26 48L26 47L27 47L27 45L25 45L25 43L26 43L26 44L28 44L28 45L29 45L29 43L30 43L30 42L31 42L31 43L32 43L32 44L31 44L31 45L30 45L30 47L32 47L32 49L33 49L33 47L32 47L32 44L33 44L33 43L35 43L35 44L34 44L34 45L33 45L33 46L34 46L34 47L35 47L35 44L38 44L38 45L40 45L40 46L39 46L39 47L38 47L38 46L36 46L36 47L38 47L38 48L37 48L37 49L38 49L38 48L39 48L39 47L40 47L40 46L41 46L41 45L44 45L44 46L43 46L43 47L42 47L42 48L40 48L40 49L39 49L39 50L40 50L40 51L38 51L38 52L37 52L37 53L39 53L39 52L40 52L40 54L41 54L41 53L44 53L44 54L45 54L45 53L44 53L44 51L45 51L45 52L47 52L47 49L46 49L46 48L45 48L45 46L46 46L46 47L48 47L48 48L49 48L49 47L50 47L50 45L49 45L49 47L48 47L48 44L47 44L47 45L46 45L46 44L45 44L45 45L44 45L44 44L42 44L42 43L40 43L40 44L38 44L38 40L40 40L40 41L39 41L39 42L40 42L40 41L41 41L41 42L42 42L42 41L44 41L44 42L45 42L45 41L44 41L44 39L46 39L46 38L47 38L47 36L50 36L50 37L52 37L52 38L53 38L53 39L51 39L51 40L49 40L49 42L47 42L47 41L48 41L48 40L47 40L47 41L46 41L46 42L47 42L47 43L49 43L49 42L50 42L50 43L51 43L51 45L52 45L52 46L53 46L53 48L52 48L52 47L51 47L51 51L52 51L52 52L50 52L50 49L48 49L48 52L50 52L50 53L52 53L52 52L53 52L53 51L57 51L57 50L52 50L52 49L55 49L55 44L56 44L56 45L57 45L57 46L56 46L56 47L57 47L57 46L58 46L58 47L59 47L59 46L58 46L58 44L57 44L57 43L56 43L56 41L58 41L58 39L57 39L57 38L56 38L56 36L57 36L57 37L58 37L58 36L57 36L57 35L56 35L56 33L55 33L55 34L53 34L53 33L52 33L52 32L51 32L51 33L52 33L52 34L53 34L53 35L52 35L52 36L51 36L51 35L50 35L50 28L53 28L53 27L51 27L51 26L53 26L53 25L55 25L55 23L54 23L54 24L53 24L53 25L52 25L52 23L53 23L53 21L54 21L54 19L55 19L55 22L56 22L56 23L57 23L57 25L56 25L56 26L54 26L54 28L56 28L56 27L57 27L57 25L58 25L58 23L57 23L57 22L56 22L56 19L57 19L57 18L56 18L56 16L57 16L57 14L56 14L56 10L55 10L55 15L54 15L54 17L55 17L55 18L53 18L53 17L52 17L52 16L53 16L53 13L52 13L52 12L50 12L50 13L49 13L49 14L48 14L48 13L47 13L47 12L46 12L46 10L49 10L49 11L51 11L51 10L50 10L50 8L49 8L49 9L48 9L48 8L47 8L47 9L46 9L46 8L45 8L45 9L46 9L46 10L45 10L45 12L46 12L46 14L47 14L47 15L49 15L49 14L50 14L50 13L52 13L52 16L51 16L51 15L50 15L50 17L48 17L48 16L47 16L47 17L46 17L46 16L45 16L45 14L44 14L44 11L42 11L42 13L43 13L43 16L40 16L40 17L39 17L39 15L38 15L38 14L37 14L37 13L36 13L36 15L38 15L38 16L37 16L37 17L36 17L36 16L34 16L34 18L38 18L38 19L37 19L37 21L38 21L38 20L39 20L39 19L40 19L40 25L39 25L39 27L38 27L38 25L36 25L36 23L37 23L37 22L36 22L36 23L35 23L35 21L36 21L36 19L33 19L33 17L32 17L32 16L33 16L33 15L35 15L35 12L37 12L37 11L38 11L38 9L37 9L37 11L35 11L35 10L36 10L36 8L35 8L35 9L34 9L34 8L33 8L33 9L32 9L32 12L34 12L34 13L32 13L32 14L31 14L31 11L30 11L30 12L29 12L29 13L28 13L28 12L27 12L27 13L26 13L26 14L24 14L24 13L25 13L25 12L26 12L26 10L27 10L27 11L29 11L29 10L30 10L30 9L26 9L26 10L25 10L25 12L24 12L24 10L22 10L22 12L21 12L21 10L20 10L20 11L18 11L18 9L20 9L20 8L21 8L21 7L22 7L22 9L25 9L25 8L26 8L26 6L25 6L25 5L24 5L24 3L25 3L25 2L26 2L26 1ZM43 1L43 2L42 2L42 3L41 3L41 4L42 4L42 3L43 3L43 2L44 2L44 1ZM23 2L23 3L20 3L20 7L21 7L21 6L22 6L22 7L23 7L23 8L24 8L24 7L25 7L25 6L24 6L24 7L23 7L23 3L24 3L24 2ZM9 3L9 4L10 4L10 3ZM39 3L39 4L40 4L40 3ZM44 3L44 4L43 4L43 5L41 5L41 7L40 7L40 6L39 6L39 5L37 5L37 7L38 7L38 6L39 6L39 7L40 7L40 12L38 12L38 13L39 13L39 14L40 14L40 15L41 15L41 14L40 14L40 13L41 13L41 10L42 10L42 9L43 9L43 10L44 10L44 8L43 8L43 7L44 7L44 6L43 6L43 5L45 5L45 4L46 4L46 5L47 5L47 7L48 7L48 5L47 5L47 4L46 4L46 3ZM51 3L51 4L52 4L52 3ZM17 5L17 6L18 6L18 5ZM29 5L29 8L32 8L32 5ZM30 6L30 7L31 7L31 6ZM42 6L42 7L41 7L41 9L42 9L42 7L43 7L43 6ZM45 6L45 7L46 7L46 6ZM49 6L49 7L50 7L50 6ZM0 8L0 9L2 9L2 12L1 12L1 10L0 10L0 13L2 13L2 12L4 12L4 11L5 11L5 9L7 9L7 8L4 8L4 9L2 9L2 8ZM8 9L8 10L6 10L6 11L8 11L8 10L9 10L9 9ZM3 10L3 11L4 11L4 10ZM33 10L33 11L34 11L34 10ZM57 10L57 13L58 13L58 10ZM53 11L53 12L54 12L54 11ZM23 12L23 13L22 13L22 14L23 14L23 13L24 13L24 12ZM29 13L29 15L28 15L28 14L27 14L27 15L26 15L26 17L24 17L24 18L21 18L21 17L19 17L19 16L18 16L18 15L19 15L19 14L18 14L18 15L17 15L17 14L16 14L16 16L18 16L18 17L19 17L19 18L18 18L18 19L17 19L17 20L15 20L15 22L16 22L16 25L15 25L15 26L14 26L14 29L13 29L13 28L12 28L12 27L11 27L11 26L10 26L10 27L11 27L11 28L10 28L10 29L11 29L11 28L12 28L12 29L13 29L13 31L16 31L16 29L15 29L15 27L16 27L16 25L17 25L17 26L19 26L19 25L22 25L22 24L23 24L23 23L24 23L24 22L26 22L26 21L27 21L27 20L28 20L28 21L29 21L29 22L31 22L31 23L32 23L32 21L33 21L33 19L32 19L32 17L30 17L30 18L29 18L29 19L25 19L25 18L28 18L28 17L27 17L27 15L28 15L28 16L29 16L29 15L30 15L30 13ZM60 13L60 14L61 14L61 13ZM2 15L2 16L3 16L3 15ZM22 15L22 16L23 16L23 15ZM31 15L31 16L32 16L32 15ZM44 16L44 18L43 18L43 17L41 17L41 24L42 24L42 23L43 23L43 21L42 21L42 18L43 18L43 20L44 20L44 25L45 25L45 26L43 26L43 25L42 25L42 27L44 27L44 29L45 29L45 27L47 27L47 28L46 28L46 29L49 29L49 28L50 28L50 27L48 27L48 26L46 26L46 25L45 25L45 23L46 23L46 24L47 24L47 23L46 23L46 21L45 21L45 19L44 19L44 18L46 18L46 17L45 17L45 16ZM6 17L6 18L7 18L7 17ZM38 17L38 18L39 18L39 17ZM50 17L50 19L49 19L49 20L48 20L48 18L47 18L47 19L46 19L46 20L47 20L47 22L50 22L50 23L51 23L51 22L52 22L52 21L53 21L53 20L52 20L52 21L51 21L51 20L50 20L50 19L51 19L51 17ZM10 18L10 19L11 19L11 18ZM19 18L19 19L18 19L18 20L17 20L17 21L16 21L16 22L18 22L18 23L17 23L17 25L18 25L18 24L19 24L19 23L20 23L20 24L21 24L21 23L22 23L22 22L20 22L20 21L23 21L23 22L24 22L24 21L26 21L26 20L24 20L24 19L22 19L22 20L20 20L20 18ZM30 18L30 19L29 19L29 21L31 21L31 20L32 20L32 19L31 19L31 18ZM55 18L55 19L56 19L56 18ZM18 20L18 21L20 21L20 20ZM34 20L34 21L35 21L35 20ZM49 20L49 21L50 21L50 20ZM4 22L4 23L5 23L5 22ZM33 22L33 23L34 23L34 22ZM48 23L48 25L50 25L50 26L51 26L51 25L50 25L50 24L49 24L49 23ZM40 25L40 27L41 27L41 25ZM6 26L6 27L7 27L7 26ZM24 27L24 28L23 28L23 29L24 29L24 30L23 30L23 31L26 31L26 30L25 30L25 29L24 29L24 28L25 28L25 27ZM5 29L5 32L8 32L8 29ZM14 29L14 30L15 30L15 29ZM29 29L29 32L32 32L32 29ZM53 29L53 32L56 32L56 29ZM6 30L6 31L7 31L7 30ZM30 30L30 31L31 31L31 30ZM45 30L45 32L44 32L44 33L45 33L45 34L46 34L46 33L45 33L45 32L48 32L48 33L47 33L47 35L46 35L46 36L47 36L47 35L49 35L49 31L48 31L48 30L47 30L47 31L46 31L46 30ZM54 30L54 31L55 31L55 30ZM21 31L21 33L19 33L19 34L20 34L20 35L21 35L21 36L22 36L22 35L23 35L23 34L21 34L21 33L23 33L23 32L22 32L22 31ZM15 32L15 33L16 33L16 32ZM41 32L41 33L42 33L42 32ZM13 35L13 38L14 38L14 35ZM53 35L53 38L55 38L55 39L56 39L56 38L55 38L55 35ZM23 36L23 37L22 37L22 38L21 38L21 37L20 37L20 39L22 39L22 40L20 40L20 41L18 41L18 40L19 40L19 38L18 38L18 39L17 39L17 40L16 40L16 41L15 41L15 42L14 42L14 43L13 43L13 44L14 44L14 46L16 46L16 45L19 45L19 44L18 44L18 42L19 42L19 43L20 43L20 42L21 42L21 43L22 43L22 44L23 44L23 45L24 45L24 46L25 46L25 45L24 45L24 43L25 43L25 41L22 41L22 40L23 40L23 39L24 39L24 40L26 40L26 43L29 43L29 41L33 41L33 42L32 42L32 43L33 43L33 42L34 42L34 41L33 41L33 40L30 40L30 39L31 39L31 38L29 38L29 41L27 41L27 40L28 40L28 36L26 36L26 37L24 37L24 36ZM26 37L26 38L25 38L25 39L26 39L26 40L27 40L27 37ZM48 38L48 39L49 39L49 38ZM0 39L0 41L1 41L1 39ZM53 39L53 41L54 41L54 42L55 42L55 41L56 41L56 40L55 40L55 41L54 41L54 39ZM16 41L16 42L15 42L15 43L14 43L14 44L15 44L15 45L16 45L16 44L17 44L17 42L18 42L18 41ZM21 41L21 42L22 42L22 41ZM50 41L50 42L51 42L51 43L52 43L52 44L53 44L53 46L54 46L54 44L55 44L55 43L53 43L53 42L52 42L52 41ZM6 42L6 43L8 43L8 42ZM35 42L35 43L36 43L36 42ZM6 44L6 45L7 45L7 44ZM11 44L11 45L10 45L10 46L9 46L9 48L11 48L11 47L13 47L13 45L12 45L12 44ZM28 46L28 47L29 47L29 46ZM14 47L14 48L15 48L15 47ZM3 48L3 49L4 49L4 48ZM28 48L28 49L29 49L29 50L28 50L28 51L30 51L30 52L31 52L31 51L32 51L32 52L33 52L33 54L34 54L34 55L33 55L33 57L34 57L34 59L35 59L35 58L36 58L36 55L37 55L37 54L36 54L36 55L35 55L35 53L36 53L36 52L35 52L35 51L37 51L37 50L35 50L35 49L36 49L36 48L34 48L34 50L35 50L35 51L33 51L33 50L31 50L31 49L29 49L29 48ZM44 48L44 50L45 50L45 51L46 51L46 49L45 49L45 48ZM42 49L42 50L41 50L41 51L42 51L42 52L43 52L43 49ZM3 51L3 52L4 52L4 51ZM18 51L18 52L16 52L16 53L17 53L17 55L18 55L18 53L19 53L19 54L21 54L21 53L20 53L20 51ZM23 51L23 52L24 52L24 51ZM6 52L6 53L7 53L7 52ZM26 52L26 53L22 53L22 54L25 54L25 56L26 56L26 57L24 57L24 58L27 58L27 56L26 56L26 53L27 53L27 52ZM57 52L57 53L58 53L58 52ZM29 53L29 56L32 56L32 53ZM46 53L46 56L45 56L45 57L46 57L46 58L47 58L47 59L48 59L48 57L47 57L47 54L48 54L48 55L49 55L49 58L50 58L50 59L51 59L51 60L52 60L52 58L50 58L50 57L52 57L52 55L50 55L50 54L49 54L49 53ZM53 53L53 56L56 56L56 53ZM30 54L30 55L31 55L31 54ZM54 54L54 55L55 55L55 54ZM57 54L57 57L58 57L58 55L59 55L59 54ZM9 55L9 57L11 57L11 56L10 56L10 55ZM34 55L34 56L35 56L35 55ZM59 56L59 58L60 58L60 56ZM19 57L19 59L18 59L18 60L19 60L19 59L20 59L20 58L21 58L21 60L22 60L22 58L21 58L21 57ZM31 57L31 60L32 60L32 57ZM38 57L38 59L39 59L39 61L40 61L40 59L39 59L39 57ZM54 57L54 58L55 58L55 57ZM12 58L12 59L13 59L13 58ZM44 58L44 59L45 59L45 58ZM56 58L56 59L57 59L57 58ZM0 0L0 7L7 7L7 0ZM1 1L1 6L6 6L6 1ZM2 2L2 5L5 5L5 2ZM54 0L54 7L61 7L61 0ZM55 1L55 6L60 6L60 1ZM56 2L56 5L59 5L59 2ZM0 54L0 61L7 61L7 54ZM1 55L1 60L6 60L6 55ZM2 56L2 59L5 59L5 56Z" fill="#000000"/></g></g></svg>
