<?xml version="1.0" encoding="UTF-8"?>
<svg xmlns="http://www.w3.org/2000/svg" version="1.1" width="200" height="200" viewBox="0 0 200 200"><rect x="0" y="0" width="200" height="200" fill="#ffffff"/><g transform="scale(3.279)"><g transform="translate(0,0)"><path fill-rule="evenodd" d="M9 0L9 1L8 1L8 2L9 2L9 3L8 3L8 4L9 4L9 5L8 5L8 7L9 7L9 5L10 5L10 7L11 7L11 8L12 8L12 11L13 11L13 13L12 13L12 12L10 12L10 8L6 8L6 9L5 9L5 8L0 8L0 9L1 9L1 12L0 12L0 13L1 13L1 15L3 15L3 16L1 16L1 17L0 17L0 18L1 18L1 19L2 19L2 18L1 18L1 17L3 17L3 18L4 18L4 19L5 19L5 18L4 18L4 17L3 17L3 16L5 16L5 14L6 14L6 15L7 15L7 16L6 16L6 17L7 17L7 18L6 18L6 19L7 19L7 20L6 20L6 21L4 21L4 22L3 22L3 21L2 21L2 20L0 20L0 21L2 21L2 22L1 22L1 24L0 24L0 25L1 25L1 26L3 26L3 28L2 28L2 29L0 29L0 30L1 30L1 31L2 31L2 32L1 32L1 33L3 33L3 31L4 31L4 33L10 33L10 34L11 34L11 33L10 33L10 31L9 31L9 28L10 28L10 30L11 30L11 31L12 31L12 30L11 30L11 28L10 28L10 25L11 25L11 24L10 24L10 25L9 25L9 26L8 26L8 27L7 27L7 26L6 26L6 25L7 25L7 24L9 24L9 23L11 23L11 22L12 22L12 23L13 23L13 24L15 24L15 25L18 25L18 26L17 26L17 27L16 27L16 26L13 26L13 25L12 25L12 26L11 26L11 27L12 27L12 29L13 29L13 28L14 28L14 30L15 30L15 33L16 33L16 34L14 34L14 35L16 35L16 36L13 36L13 37L12 37L12 35L13 35L13 32L14 32L14 31L13 31L13 32L12 32L12 35L11 35L11 37L9 37L9 35L8 35L8 36L4 36L4 35L5 35L5 34L2 34L2 35L3 35L3 39L5 39L5 40L6 40L6 41L7 41L7 40L8 40L8 39L7 39L7 38L5 38L5 37L9 37L9 38L10 38L10 40L9 40L9 41L8 41L8 43L7 43L7 42L5 42L5 41L4 41L4 42L5 42L5 44L6 44L6 45L8 45L8 48L6 48L6 47L7 47L7 46L6 46L6 47L5 47L5 46L4 46L4 44L3 44L3 42L1 42L1 43L0 43L0 49L1 49L1 50L2 50L2 51L0 51L0 53L4 53L4 52L5 52L5 51L7 51L7 52L6 52L6 53L7 53L7 52L8 52L8 51L9 51L9 52L10 52L10 51L9 51L9 49L11 49L11 50L12 50L12 49L13 49L13 52L11 52L11 53L8 53L8 55L9 55L9 56L8 56L8 61L9 61L9 59L10 59L10 57L11 57L11 55L9 55L9 54L12 54L12 58L13 58L13 59L11 59L11 60L13 60L13 59L14 59L14 61L15 61L15 59L16 59L16 61L17 61L17 60L18 60L18 61L19 61L19 59L20 59L20 58L19 58L19 57L20 57L20 53L21 53L21 54L23 54L23 53L21 53L21 52L22 52L22 51L21 51L21 50L22 50L22 49L23 49L23 50L24 50L24 49L25 49L25 50L27 50L27 51L26 51L26 52L27 52L27 53L26 53L26 54L27 54L27 53L28 53L28 56L27 56L27 58L26 58L26 57L24 57L24 60L23 60L23 61L24 61L24 60L25 60L25 58L26 58L26 59L27 59L27 58L28 58L28 60L27 60L27 61L28 61L28 60L29 60L29 58L31 58L31 59L30 59L30 60L31 60L31 59L32 59L32 60L33 60L33 59L32 59L32 58L31 58L31 57L33 57L33 55L37 55L37 56L36 56L36 57L35 57L35 58L34 58L34 60L35 60L35 61L38 61L38 60L35 60L35 59L37 59L37 56L39 56L39 55L40 55L40 56L41 56L41 55L40 55L40 54L45 54L45 53L44 53L44 52L47 52L47 54L46 54L46 55L44 55L44 56L43 56L43 55L42 55L42 56L43 56L43 57L41 57L41 58L42 58L42 59L44 59L44 60L43 60L43 61L44 61L44 60L45 60L45 59L46 59L46 61L49 61L49 60L50 60L50 59L49 59L49 58L50 58L50 57L51 57L51 58L53 58L53 57L55 57L55 58L54 58L54 59L53 59L53 60L55 60L55 58L57 58L57 57L58 57L58 58L59 58L59 57L60 57L60 60L57 60L57 59L56 59L56 60L57 60L57 61L61 61L61 54L59 54L59 52L58 52L58 51L61 51L61 50L60 50L60 49L61 49L61 48L60 48L60 49L59 49L59 48L58 48L58 47L56 47L56 46L54 46L54 43L56 43L56 41L60 41L60 40L61 40L61 38L59 38L59 37L61 37L61 36L58 36L58 35L61 35L61 34L58 34L58 33L61 33L61 32L60 32L60 31L61 31L61 30L59 30L59 28L61 28L61 26L60 26L60 24L61 24L61 22L60 22L60 24L57 24L57 23L59 23L59 22L58 22L58 21L59 21L59 20L61 20L61 18L59 18L59 20L58 20L58 19L56 19L56 20L55 20L55 19L53 19L53 18L55 18L55 17L56 17L56 18L57 18L57 17L59 17L59 16L61 16L61 14L59 14L59 12L60 12L60 11L61 11L61 10L60 10L60 11L59 11L59 12L58 12L58 10L59 10L59 9L60 9L60 8L59 8L59 9L58 9L58 8L57 8L57 9L56 9L56 8L55 8L55 9L54 9L54 8L53 8L53 6L52 6L52 8L51 8L51 9L54 9L54 10L55 10L55 9L56 9L56 11L55 11L55 12L54 12L54 11L53 11L53 12L51 12L51 11L49 11L49 10L50 10L50 9L49 9L49 8L47 8L47 6L48 6L48 7L49 7L49 6L48 6L48 5L45 5L45 4L44 4L44 3L45 3L45 2L46 2L46 4L49 4L49 5L50 5L50 7L51 7L51 5L52 5L52 4L53 4L53 0L51 0L51 2L50 2L50 4L49 4L49 3L47 3L47 2L48 2L48 1L49 1L49 0L48 0L48 1L46 1L46 0L44 0L44 3L43 3L43 2L42 2L42 3L43 3L43 4L40 4L40 3L41 3L41 0L39 0L39 1L38 1L38 0L36 0L36 1L33 1L33 0L32 0L32 1L31 1L31 0L30 0L30 1L31 1L31 2L29 2L29 1L27 1L27 0L24 0L24 1L23 1L23 2L22 2L22 1L20 1L20 0L19 0L19 1L18 1L18 2L19 2L19 3L18 3L18 4L19 4L19 5L18 5L18 7L17 7L17 6L16 6L16 5L15 5L15 4L17 4L17 0L16 0L16 1L12 1L12 0ZM42 0L42 1L43 1L43 0ZM9 1L9 2L11 2L11 4L12 4L12 1ZM25 1L25 2L27 2L27 3L26 3L26 4L28 4L28 2L27 2L27 1ZM32 1L32 2L33 2L33 1ZM37 1L37 2L35 2L35 3L33 3L33 5L35 5L35 4L36 4L36 3L37 3L37 7L36 7L36 6L35 6L35 7L34 7L34 6L33 6L33 8L34 8L34 9L33 9L33 10L32 10L32 13L33 13L33 10L35 10L35 11L34 11L34 12L37 12L37 15L36 15L36 16L38 16L38 18L40 18L40 19L41 19L41 20L40 20L40 21L41 21L41 20L42 20L42 18L41 18L41 17L43 17L43 20L44 20L44 22L42 22L42 23L41 23L41 24L40 24L40 22L39 22L39 20L37 20L37 17L35 17L35 15L34 15L34 14L36 14L36 13L34 13L34 14L32 14L32 15L31 15L31 16L29 16L29 15L27 15L27 14L28 14L28 13L31 13L31 12L30 12L30 10L29 10L29 9L28 9L28 6L27 6L27 9L25 9L25 8L26 8L26 6L25 6L25 5L22 5L22 6L21 6L21 4L20 4L20 3L19 3L19 4L20 4L20 5L19 5L19 9L23 9L23 8L24 8L24 9L25 9L25 12L24 12L24 10L23 10L23 12L22 12L22 10L21 10L21 12L19 12L19 13L15 13L15 12L16 12L16 11L17 11L17 12L18 12L18 11L20 11L20 10L17 10L17 9L18 9L18 8L17 8L17 9L16 9L16 11L15 11L15 10L14 10L14 9L15 9L15 8L16 8L16 6L15 6L15 7L14 7L14 6L13 6L13 7L12 7L12 5L11 5L11 7L12 7L12 8L13 8L13 10L14 10L14 13L15 13L15 14L13 14L13 15L14 15L14 16L13 16L13 17L14 17L14 22L16 22L16 23L15 23L15 24L16 24L16 23L17 23L17 24L18 24L18 25L19 25L19 26L18 26L18 28L19 28L19 29L16 29L16 27L14 27L14 28L15 28L15 29L16 29L16 30L17 30L17 31L16 31L16 33L18 33L18 34L17 34L17 37L15 37L15 39L16 39L16 40L17 40L17 41L14 41L14 40L12 40L12 39L13 39L13 38L14 38L14 37L13 37L13 38L12 38L12 39L11 39L11 42L10 42L10 43L8 43L8 44L10 44L10 43L12 43L12 44L11 44L11 45L9 45L9 46L10 46L10 47L9 47L9 48L8 48L8 49L6 49L6 48L5 48L5 47L4 47L4 46L3 46L3 44L1 44L1 45L2 45L2 46L3 46L3 47L1 47L1 49L2 49L2 50L3 50L3 49L5 49L5 50L8 50L8 49L9 49L9 48L10 48L10 47L12 47L12 48L13 48L13 49L14 49L14 50L15 50L15 51L14 51L14 52L13 52L13 53L12 53L12 54L13 54L13 55L14 55L14 54L18 54L18 55L16 55L16 56L14 56L14 57L13 57L13 58L18 58L18 57L19 57L19 53L20 53L20 52L21 52L21 51L19 51L19 49L17 49L17 48L21 48L21 49L20 49L20 50L21 50L21 49L22 49L22 48L21 48L21 47L22 47L22 46L21 46L21 45L23 45L23 47L24 47L24 45L27 45L27 46L28 46L28 47L27 47L27 48L26 48L26 46L25 46L25 49L29 49L29 50L28 50L28 51L27 51L27 52L29 52L29 50L31 50L31 51L32 51L32 52L33 52L33 51L32 51L32 50L35 50L35 52L37 52L37 51L36 51L36 50L37 50L37 49L35 49L35 48L37 48L37 47L38 47L38 46L39 46L39 47L40 47L40 46L39 46L39 45L41 45L41 46L42 46L42 47L41 47L41 48L39 48L39 49L38 49L38 50L41 50L41 51L43 51L43 50L41 50L41 49L42 49L42 47L43 47L43 48L44 48L44 49L45 49L45 50L44 50L44 51L45 51L45 50L47 50L47 52L50 52L50 54L49 54L49 53L48 53L48 54L47 54L47 55L46 55L46 56L44 56L44 59L45 59L45 58L47 58L47 60L49 60L49 59L48 59L48 58L49 58L49 57L48 57L48 56L49 56L49 55L50 55L50 54L52 54L52 53L51 53L51 51L52 51L52 49L53 49L53 50L55 50L55 51L53 51L53 52L57 52L57 51L56 51L56 50L57 50L57 48L52 48L52 47L51 47L51 48L52 48L52 49L45 49L45 48L44 48L44 47L43 47L43 46L44 46L44 45L45 45L45 46L47 46L47 47L46 47L46 48L48 48L48 46L47 46L47 44L44 44L44 43L43 43L43 42L44 42L44 41L45 41L45 42L48 42L48 44L49 44L49 45L50 45L50 46L49 46L49 47L50 47L50 46L51 46L51 45L50 45L50 44L52 44L52 43L53 43L53 42L52 42L52 41L54 41L54 42L55 42L55 41L56 41L56 38L58 38L58 36L57 36L57 33L56 33L56 35L54 35L54 34L55 34L55 33L53 33L53 34L52 34L52 35L54 35L54 36L52 36L52 37L50 37L50 36L51 36L51 35L50 35L50 34L51 34L51 33L52 33L52 32L51 32L51 33L50 33L50 30L51 30L51 31L52 31L52 29L51 29L51 28L52 28L52 26L53 26L53 28L54 28L54 26L53 26L53 25L55 25L55 27L57 27L57 28L59 28L59 27L57 27L57 26L56 26L56 25L57 25L57 24L54 24L54 23L56 23L56 22L57 22L57 20L56 20L56 22L53 22L53 21L52 21L52 22L53 22L53 23L52 23L52 24L51 24L51 23L50 23L50 24L49 24L49 22L47 22L47 21L45 21L45 20L46 20L46 18L47 18L47 20L49 20L49 21L50 21L50 22L51 22L51 21L50 21L50 20L52 20L52 18L53 18L53 17L54 17L54 16L53 16L53 17L52 17L52 18L51 18L51 16L52 16L52 15L55 15L55 14L54 14L54 12L53 12L53 13L51 13L51 12L49 12L49 15L46 15L46 14L47 14L47 11L46 11L46 12L44 12L44 11L43 11L43 10L42 10L42 9L43 9L43 8L42 8L42 5L40 5L40 6L39 6L39 7L38 7L38 5L39 5L39 3L37 3L37 2L38 2L38 1ZM39 1L39 2L40 2L40 1ZM13 2L13 3L14 3L14 4L15 4L15 3L16 3L16 2L15 2L15 3L14 3L14 2ZM23 2L23 3L22 3L22 4L25 4L25 3L24 3L24 2ZM9 3L9 4L10 4L10 3ZM29 3L29 4L31 4L31 3ZM51 3L51 4L52 4L52 3ZM43 4L43 5L44 5L44 4ZM29 5L29 8L32 8L32 5ZM20 6L20 7L21 7L21 8L23 8L23 6L22 6L22 7L21 7L21 6ZM24 6L24 8L25 8L25 6ZM30 6L30 7L31 7L31 6ZM40 6L40 7L39 7L39 8L41 8L41 9L42 9L42 8L41 8L41 6ZM43 6L43 7L44 7L44 6ZM45 6L45 7L46 7L46 6ZM35 7L35 9L37 9L37 10L36 10L36 11L37 11L37 12L41 12L41 14L40 14L40 13L39 13L39 14L38 14L38 15L39 15L39 16L41 16L41 14L43 14L43 13L42 13L42 12L43 12L43 11L42 11L42 12L41 12L41 11L39 11L39 10L40 10L40 9L39 9L39 10L38 10L38 8L36 8L36 7ZM44 8L44 10L49 10L49 9L47 9L47 8ZM4 9L4 10L2 10L2 12L1 12L1 13L2 13L2 14L3 14L3 12L4 12L4 14L5 14L5 13L6 13L6 14L8 14L8 15L9 15L9 14L8 14L8 13L9 13L9 9L8 9L8 11L6 11L6 10L7 10L7 9L6 9L6 10L5 10L5 9ZM57 9L57 10L58 10L58 9ZM27 10L27 12L28 12L28 10ZM37 10L37 11L38 11L38 10ZM5 11L5 12L6 12L6 13L8 13L8 12L6 12L6 11ZM56 12L56 17L57 17L57 16L59 16L59 14L58 14L58 13L57 13L57 12ZM10 13L10 14L11 14L11 15L10 15L10 16L11 16L11 15L12 15L12 13ZM19 13L19 14L20 14L20 15L21 15L21 16L20 16L20 17L19 17L19 16L18 16L18 17L19 17L19 19L20 19L20 20L18 20L18 19L17 19L17 20L16 20L16 19L15 19L15 21L17 21L17 20L18 20L18 21L19 21L19 25L20 25L20 21L21 21L21 22L22 22L22 24L23 24L23 25L21 25L21 26L26 26L26 27L27 27L27 26L28 26L28 27L29 27L29 26L28 26L28 25L29 25L29 24L31 24L31 23L32 23L32 22L33 22L33 23L35 23L35 22L34 22L34 21L33 21L33 20L31 20L31 19L29 19L29 18L30 18L30 17L29 17L29 18L27 18L27 17L26 17L26 18L25 18L25 21L24 21L24 19L23 19L23 18L24 18L24 17L25 17L25 15L26 15L26 14L27 14L27 13L24 13L24 14L23 14L23 13L22 13L22 15L21 15L21 14L20 14L20 13ZM44 13L44 15L42 15L42 16L45 16L45 17L44 17L44 18L45 18L45 17L47 17L47 16L46 16L46 15L45 15L45 13ZM15 14L15 16L17 16L17 15L18 15L18 14ZM24 14L24 15L23 15L23 17L22 17L22 16L21 16L21 17L20 17L20 19L22 19L22 21L23 21L23 19L22 19L22 18L23 18L23 17L24 17L24 15L25 15L25 14ZM39 14L39 15L40 15L40 14ZM50 14L50 15L49 15L49 16L48 16L48 17L49 17L49 18L48 18L48 19L49 19L49 18L50 18L50 19L51 19L51 18L50 18L50 17L49 17L49 16L50 16L50 15L52 15L52 14ZM57 14L57 15L58 15L58 14ZM32 15L32 16L31 16L31 17L32 17L32 18L33 18L33 19L36 19L36 18L33 18L33 15ZM8 17L8 18L7 18L7 19L8 19L8 21L6 21L6 22L4 22L4 23L3 23L3 24L4 24L4 23L6 23L6 24L7 24L7 23L8 23L8 22L10 22L10 21L12 21L12 22L13 22L13 20L11 20L11 19L12 19L12 17L11 17L11 19L10 19L10 17ZM15 17L15 18L16 18L16 17ZM21 17L21 18L22 18L22 17ZM8 18L8 19L9 19L9 18ZM26 18L26 21L25 21L25 22L24 22L24 23L26 23L26 24L24 24L24 25L26 25L26 26L27 26L27 23L28 23L28 24L29 24L29 23L28 23L28 22L29 22L29 21L30 21L30 22L32 22L32 21L31 21L31 20L29 20L29 19L27 19L27 18ZM44 19L44 20L45 20L45 19ZM9 20L9 21L10 21L10 20ZM35 20L35 21L37 21L37 20ZM26 21L26 22L28 22L28 21ZM6 22L6 23L7 23L7 22ZM17 22L17 23L18 23L18 22ZM36 22L36 23L37 23L37 24L36 24L36 26L33 26L33 24L32 24L32 25L30 25L30 26L31 26L31 27L30 27L30 28L27 28L27 29L24 29L24 28L25 28L25 27L24 27L24 28L23 28L23 29L22 29L22 30L20 30L20 33L19 33L19 32L18 32L18 33L19 33L19 34L18 34L18 35L21 35L21 36L20 36L20 37L19 37L19 36L18 36L18 37L19 37L19 38L18 38L18 39L17 39L17 40L18 40L18 41L17 41L17 43L18 43L18 42L20 42L20 43L19 43L19 44L15 44L15 48L16 48L16 47L17 47L17 46L16 46L16 45L21 45L21 44L22 44L22 42L23 42L23 41L19 41L19 40L23 40L23 39L19 39L19 38L20 38L20 37L21 37L21 36L23 36L23 35L24 35L24 36L25 36L25 35L26 35L26 36L27 36L27 37L26 37L26 38L25 38L25 37L22 37L22 38L25 38L25 39L24 39L24 40L25 40L25 41L24 41L24 43L23 43L23 45L24 45L24 43L25 43L25 44L27 44L27 43L28 43L28 42L27 42L27 43L25 43L25 41L28 41L28 40L30 40L30 41L31 41L31 38L32 38L32 39L33 39L33 38L34 38L34 40L32 40L32 41L34 41L34 40L35 40L35 39L36 39L36 38L34 38L34 37L37 37L37 38L38 38L38 39L39 39L39 40L38 40L38 41L39 41L39 42L38 42L38 43L37 43L37 42L36 42L36 43L37 43L37 44L34 44L34 43L35 43L35 42L32 42L32 43L31 43L31 44L30 44L30 42L29 42L29 45L31 45L31 44L32 44L32 43L33 43L33 45L36 45L36 46L35 46L35 47L36 47L36 46L38 46L38 44L39 44L39 43L40 43L40 44L41 44L41 43L40 43L40 42L41 42L41 41L39 41L39 40L41 40L41 39L42 39L42 38L45 38L45 39L44 39L44 40L43 40L43 41L42 41L42 42L43 42L43 41L44 41L44 40L45 40L45 41L46 41L46 40L47 40L47 38L48 38L48 39L49 39L49 38L50 38L50 41L49 41L49 40L48 40L48 42L50 42L50 41L52 41L52 40L51 40L51 39L52 39L52 38L50 38L50 37L49 37L49 36L50 36L50 35L49 35L49 36L47 36L47 38L45 38L45 37L44 37L44 36L46 36L46 35L48 35L48 33L49 33L49 34L50 34L50 33L49 33L49 32L48 32L48 33L47 33L47 34L46 34L46 35L44 35L44 33L42 33L42 32L41 32L41 31L39 31L39 30L38 30L38 29L39 29L39 28L41 28L41 29L42 29L42 30L43 30L43 28L45 28L45 29L44 29L44 30L45 30L45 31L44 31L44 32L45 32L45 33L46 33L46 31L49 31L49 28L51 28L51 27L49 27L49 26L50 26L50 25L49 25L49 24L48 24L48 23L47 23L47 22L45 22L45 23L44 23L44 24L43 24L43 23L42 23L42 24L43 24L43 25L42 25L42 26L41 26L41 27L40 27L40 26L38 26L38 27L39 27L39 28L38 28L38 29L37 29L37 28L35 28L35 27L36 27L36 26L37 26L37 25L39 25L39 22L38 22L38 23L37 23L37 22ZM45 23L45 24L44 24L44 25L45 25L45 26L47 26L47 27L45 27L45 28L46 28L46 29L45 29L45 30L48 30L48 29L47 29L47 28L49 28L49 27L48 27L48 26L49 26L49 25L47 25L47 24L46 24L46 23ZM45 24L45 25L46 25L46 24ZM52 24L52 25L53 25L53 24ZM58 25L58 26L59 26L59 25ZM19 26L19 27L20 27L20 26ZM32 26L32 28L33 28L33 26ZM42 26L42 27L43 27L43 26ZM0 27L0 28L1 28L1 27ZM4 27L4 28L3 28L3 30L2 30L2 31L3 31L3 30L4 30L4 28L5 28L5 27ZM6 27L6 28L7 28L7 27ZM8 27L8 28L9 28L9 27ZM20 28L20 29L21 29L21 28ZM5 29L5 32L8 32L8 29ZM23 29L23 30L22 30L22 31L21 31L21 32L22 32L22 33L20 33L20 34L22 34L22 35L23 35L23 34L24 34L24 33L23 33L23 32L25 32L25 33L27 33L27 34L28 34L28 32L26 32L26 31L27 31L27 30L28 30L28 29L27 29L27 30L25 30L25 31L24 31L24 29ZM29 29L29 32L32 32L32 29ZM34 29L34 30L35 30L35 31L34 31L34 32L33 32L33 33L30 33L30 34L29 34L29 35L28 35L28 37L27 37L27 38L28 38L28 39L29 39L29 38L28 38L28 37L29 37L29 35L30 35L30 36L31 36L31 35L32 35L32 38L33 38L33 35L32 35L32 34L35 34L35 35L34 35L34 36L35 36L35 35L36 35L36 36L37 36L37 37L38 37L38 38L39 38L39 39L41 39L41 36L39 36L39 35L40 35L40 34L41 34L41 32L39 32L39 31L38 31L38 30L37 30L37 31L36 31L36 30L35 30L35 29ZM53 29L53 32L56 32L56 29ZM57 29L57 30L58 30L58 31L57 31L57 32L59 32L59 30L58 30L58 29ZM6 30L6 31L7 31L7 30ZM18 30L18 31L19 31L19 30ZM30 30L30 31L31 31L31 30ZM54 30L54 31L55 31L55 30ZM37 31L37 32L34 32L34 33L35 33L35 34L36 34L36 35L37 35L37 34L38 34L38 35L39 35L39 34L38 34L38 33L37 33L37 32L38 32L38 31ZM6 34L6 35L7 35L7 34ZM30 34L30 35L31 35L31 34ZM42 34L42 35L43 35L43 36L44 36L44 35L43 35L43 34ZM1 36L1 37L0 37L0 39L1 39L1 40L2 40L2 41L3 41L3 40L2 40L2 38L1 38L1 37L2 37L2 36ZM38 36L38 37L39 37L39 36ZM54 36L54 37L53 37L53 39L55 39L55 38L54 38L54 37L55 37L55 36ZM56 36L56 37L57 37L57 36ZM30 37L30 38L31 38L31 37ZM48 37L48 38L49 38L49 37ZM6 39L6 40L7 40L7 39ZM25 39L25 40L26 40L26 39ZM45 39L45 40L46 40L46 39ZM57 39L57 40L60 40L60 39ZM36 40L36 41L37 41L37 40ZM54 40L54 41L55 41L55 40ZM12 41L12 42L13 42L13 41ZM14 42L14 43L15 43L15 42ZM60 42L60 43L59 43L59 44L56 44L56 45L59 45L59 44L60 44L60 45L61 45L61 42ZM6 43L6 44L7 44L7 43ZM42 43L42 44L43 44L43 43ZM12 44L12 47L13 47L13 46L14 46L14 44ZM42 45L42 46L43 46L43 45ZM52 45L52 46L53 46L53 45ZM20 46L20 47L21 47L21 46ZM33 46L33 47L34 47L34 46ZM59 46L59 47L61 47L61 46ZM3 47L3 48L4 48L4 47ZM28 47L28 48L29 48L29 47ZM31 47L31 48L30 48L30 49L31 49L31 48L32 48L32 49L33 49L33 48L32 48L32 47ZM23 48L23 49L24 49L24 48ZM15 49L15 50L16 50L16 49ZM55 49L55 50L56 50L56 49ZM17 50L17 51L18 51L18 53L19 53L19 51L18 51L18 50ZM48 50L48 51L49 51L49 50ZM50 50L50 51L51 51L51 50ZM3 51L3 52L4 52L4 51ZM15 51L15 52L14 52L14 53L17 53L17 52L16 52L16 51ZM23 51L23 52L24 52L24 51ZM38 51L38 52L39 52L39 53L38 53L38 54L37 54L37 55L38 55L38 54L40 54L40 53L41 53L41 52L40 52L40 51ZM60 52L60 53L61 53L61 52ZM24 53L24 55L23 55L23 56L24 56L24 55L25 55L25 56L26 56L26 55L25 55L25 53ZM29 53L29 56L32 56L32 53ZM34 53L34 54L35 54L35 53ZM53 53L53 56L56 56L56 53ZM57 53L57 56L59 56L59 55L58 55L58 53ZM30 54L30 55L31 55L31 54ZM48 54L48 55L49 55L49 54ZM54 54L54 55L55 55L55 54ZM51 55L51 56L52 56L52 55ZM9 56L9 57L10 57L10 56ZM16 56L16 57L18 57L18 56ZM22 57L22 58L23 58L23 57ZM38 58L38 59L39 59L39 60L41 60L41 59L40 59L40 58ZM20 60L20 61L22 61L22 60ZM0 0L0 7L7 7L7 0ZM1 1L1 6L6 6L6 1ZM2 2L2 5L5 5L5 2ZM54 0L54 7L61 7L61 0ZM55 1L55 6L60 6L60 1ZM56 2L56 5L59 5L59 2ZM0 54L0 61L7 61L7 54ZM1 55L1 60L6 60L6 55ZM2 56L2 59L5 59L5 56Z" fill="#000000"/></g></g></svg>
