<?xml version="1.0" encoding="UTF-8"?>
<svg xmlns="http://www.w3.org/2000/svg" version="1.1" width="200" height="200" viewBox="0 0 200 200"><rect x="0" y="0" width="200" height="200" fill="#ffffff"/><g transform="scale(3.279)"><g transform="translate(0,0)"><path fill-rule="evenodd" d="M10 0L10 1L11 1L11 2L12 2L12 1L11 1L11 0ZM16 0L16 1L15 1L15 2L14 2L14 3L15 3L15 2L16 2L16 4L19 4L19 5L18 5L18 7L17 7L17 6L16 6L16 7L15 7L15 6L14 6L14 7L13 7L13 6L12 6L12 7L11 7L11 6L10 6L10 7L9 7L9 5L8 5L8 7L9 7L9 8L6 8L6 9L7 9L7 10L6 10L6 11L5 11L5 8L0 8L0 9L1 9L1 10L0 10L0 12L2 12L2 14L3 14L3 17L1 17L1 16L2 16L2 15L1 15L1 16L0 16L0 17L1 17L1 18L4 18L4 19L3 19L3 20L2 20L2 22L3 22L3 23L0 23L0 24L2 24L2 25L0 25L0 28L1 28L1 27L2 27L2 29L0 29L0 31L1 31L1 30L2 30L2 29L3 29L3 28L4 28L4 33L5 33L5 36L6 36L6 37L5 37L5 39L7 39L7 40L6 40L6 41L5 41L5 40L2 40L2 41L3 41L3 42L5 42L5 43L7 43L7 42L6 42L6 41L8 41L8 39L10 39L10 40L9 40L9 41L12 41L12 42L13 42L13 41L14 41L14 40L15 40L15 41L17 41L17 42L15 42L15 43L13 43L13 44L14 44L14 45L19 45L19 46L18 46L18 47L19 47L19 48L17 48L17 46L15 46L15 47L16 47L16 48L15 48L15 50L13 50L13 51L12 51L12 52L10 52L10 51L9 51L9 52L10 52L10 53L8 53L8 55L10 55L10 57L9 57L9 56L8 56L8 61L10 61L10 60L11 60L11 61L12 61L12 59L10 59L10 60L9 60L9 58L10 58L10 57L11 57L11 58L13 58L13 61L19 61L19 60L20 60L20 61L21 61L21 60L22 60L22 59L21 59L21 60L20 60L20 58L19 58L19 60L18 60L18 58L16 58L16 60L14 60L14 58L13 58L13 57L19 57L19 54L20 54L20 55L21 55L21 56L20 56L20 57L21 57L21 58L25 58L25 57L22 57L22 55L21 55L21 54L23 54L23 55L24 55L24 56L25 56L25 55L27 55L27 57L26 57L26 58L27 58L27 57L29 57L29 58L30 58L30 59L27 59L27 60L30 60L30 59L32 59L32 60L33 60L33 61L34 61L34 60L35 60L35 61L37 61L37 60L38 60L38 61L40 61L40 60L41 60L41 61L44 61L44 60L45 60L45 61L47 61L47 60L46 60L46 59L47 59L47 58L49 58L49 60L48 60L48 61L49 61L49 60L51 60L51 59L52 59L52 58L53 58L53 57L54 57L54 59L53 59L53 60L55 60L55 61L56 61L56 60L57 60L57 61L61 61L61 57L60 57L60 60L57 60L57 59L59 59L59 58L58 58L58 57L59 57L59 56L57 56L57 53L58 53L58 55L61 55L61 54L59 54L59 52L61 52L61 50L58 50L58 49L57 49L57 47L59 47L59 48L60 48L60 49L61 49L61 48L60 48L60 47L61 47L61 46L60 46L60 45L61 45L61 42L60 42L60 40L56 40L56 37L58 37L58 38L57 38L57 39L61 39L61 38L60 38L60 35L61 35L61 34L59 34L59 33L61 33L61 30L59 30L59 29L60 29L60 27L61 27L61 26L60 26L60 25L61 25L61 22L58 22L58 21L60 21L60 20L58 20L58 19L59 19L59 18L58 18L58 17L60 17L60 16L58 16L58 15L59 15L59 14L58 14L58 13L59 13L59 12L60 12L60 11L61 11L61 10L60 10L60 11L59 11L59 12L57 12L57 11L58 11L58 10L59 10L59 9L60 9L60 8L59 8L59 9L58 9L58 8L57 8L57 9L56 9L56 8L55 8L55 9L54 9L54 8L52 8L52 7L53 7L53 6L52 6L52 7L51 7L51 5L52 5L52 4L53 4L53 0L51 0L51 2L50 2L50 3L47 3L47 5L45 5L45 4L46 4L46 3L45 3L45 2L47 2L47 1L46 1L46 0L45 0L45 2L44 2L44 0L42 0L42 1L43 1L43 2L42 2L42 3L43 3L43 4L42 4L42 5L41 5L41 4L40 4L40 3L41 3L41 1L40 1L40 2L39 2L39 1L38 1L38 0L37 0L37 1L36 1L36 2L35 2L35 1L34 1L34 2L33 2L33 3L36 3L36 4L35 4L35 5L33 5L33 4L29 4L29 3L31 3L31 2L32 2L32 1L33 1L33 0L32 0L32 1L31 1L31 0L29 0L29 1L27 1L27 4L26 4L26 2L25 2L25 0L21 0L21 2L19 2L19 1L17 1L17 0ZM49 0L49 1L48 1L48 2L49 2L49 1L50 1L50 0ZM8 1L8 2L9 2L9 3L8 3L8 4L10 4L10 5L11 5L11 3L10 3L10 2L9 2L9 1ZM23 1L23 2L21 2L21 3L22 3L22 4L20 4L20 3L19 3L19 4L20 4L20 5L19 5L19 7L20 7L20 6L21 6L21 7L22 7L22 8L19 8L19 9L18 9L18 10L19 10L19 13L18 13L18 14L17 14L17 13L16 13L16 14L17 14L17 15L16 15L16 18L15 18L15 14L14 14L14 13L15 13L15 11L16 11L16 12L17 12L17 11L16 11L16 10L17 10L17 9L16 9L16 8L17 8L17 7L16 7L16 8L14 8L14 9L13 9L13 10L12 10L12 11L10 11L10 9L8 9L8 10L7 10L7 11L6 11L6 12L5 12L5 11L4 11L4 10L3 10L3 11L2 11L2 10L1 10L1 11L2 11L2 12L3 12L3 13L5 13L5 14L4 14L4 16L5 16L5 17L4 17L4 18L7 18L7 19L4 19L4 21L3 21L3 22L4 22L4 24L3 24L3 25L2 25L2 27L5 27L5 26L7 26L7 25L9 25L9 24L10 24L10 25L13 25L13 26L12 26L12 27L11 27L11 26L8 26L8 27L6 27L6 28L10 28L10 30L9 30L9 31L10 31L10 32L9 32L9 34L8 34L8 33L6 33L6 34L8 34L8 35L9 35L9 36L10 36L10 32L11 32L11 31L10 31L10 30L12 30L12 32L14 32L14 34L13 34L13 33L12 33L12 34L11 34L11 35L12 35L12 37L11 37L11 38L12 38L12 40L14 40L14 39L15 39L15 38L14 38L14 36L13 36L13 35L15 35L15 34L17 34L17 33L16 33L16 32L18 32L18 30L19 30L19 29L20 29L20 30L21 30L21 31L19 31L19 32L21 32L21 33L18 33L18 35L16 35L16 36L19 36L19 37L18 37L18 38L17 38L17 37L16 37L16 38L17 38L17 39L18 39L18 40L19 40L19 39L20 39L20 40L21 40L21 41L18 41L18 42L17 42L17 43L15 43L15 44L18 44L18 43L19 43L19 45L20 45L20 48L21 48L21 49L16 49L16 50L19 50L19 52L21 52L21 51L22 51L22 53L25 53L25 54L26 54L26 53L27 53L27 52L31 52L31 51L32 51L32 52L34 52L34 53L33 53L33 54L35 54L35 53L36 53L36 52L37 52L37 49L36 49L36 48L37 48L37 47L36 47L36 46L35 46L35 45L34 45L34 46L35 46L35 48L34 48L34 47L32 47L32 46L31 46L31 45L33 45L33 43L32 43L32 42L35 42L35 43L34 43L34 44L37 44L37 45L38 45L38 46L39 46L39 45L38 45L38 44L40 44L40 45L41 45L41 44L42 44L42 45L43 45L43 44L44 44L44 45L45 45L45 46L44 46L44 47L43 47L43 46L40 46L40 48L39 48L39 47L38 47L38 48L39 48L39 49L38 49L38 50L39 50L39 49L43 49L43 48L44 48L44 50L43 50L43 52L44 52L44 54L42 54L42 55L41 55L41 52L42 52L42 51L41 51L41 50L40 50L40 51L41 51L41 52L39 52L39 51L38 51L38 52L39 52L39 53L37 53L37 54L36 54L36 55L33 55L33 57L31 57L31 58L35 58L35 56L37 56L37 57L38 57L38 58L37 58L37 59L35 59L35 60L37 60L37 59L38 59L38 60L39 60L39 59L43 59L43 60L44 60L44 59L45 59L45 58L47 58L47 57L45 57L45 56L49 56L49 55L50 55L50 54L52 54L52 53L48 53L48 52L50 52L50 50L53 50L53 52L55 52L55 51L54 51L54 49L55 49L55 48L54 48L54 49L53 49L53 47L50 47L50 46L51 46L51 44L52 44L52 45L53 45L53 44L54 44L54 46L56 46L56 47L57 47L57 45L56 45L56 44L57 44L57 42L58 42L58 44L59 44L59 45L58 45L58 46L59 46L59 45L60 45L60 44L59 44L59 43L60 43L60 42L58 42L58 41L56 41L56 40L55 40L55 39L54 39L54 38L53 38L53 36L55 36L55 37L56 37L56 36L57 36L57 35L56 35L56 34L58 34L58 36L59 36L59 34L58 34L58 33L56 33L56 34L55 34L55 35L53 35L53 33L50 33L50 34L49 34L49 35L47 35L47 37L46 37L46 34L48 34L48 33L45 33L45 32L44 32L44 30L48 30L48 29L47 29L47 28L49 28L49 29L50 29L50 30L49 30L49 32L51 32L51 31L52 31L52 29L51 29L51 28L56 28L56 27L57 27L57 26L58 26L58 28L59 28L59 26L58 26L58 25L57 25L57 24L59 24L59 23L57 23L57 24L54 24L54 23L55 23L55 22L54 22L54 23L53 23L53 25L52 25L52 24L51 24L51 20L52 20L52 18L53 18L53 19L55 19L55 20L56 20L56 22L57 22L57 20L56 20L56 19L55 19L55 18L56 18L56 17L58 17L58 16L56 16L56 17L55 17L55 18L53 18L53 17L54 17L54 16L53 16L53 17L52 17L52 18L51 18L51 16L52 16L52 15L50 15L50 14L53 14L53 15L55 15L55 14L53 14L53 13L52 13L52 12L54 12L54 11L56 11L56 9L55 9L55 10L54 10L54 9L52 9L52 10L51 10L51 7L50 7L50 4L49 4L49 7L48 7L48 5L47 5L47 7L46 7L46 6L45 6L45 5L42 5L42 6L41 6L41 7L42 7L42 8L44 8L44 9L45 9L45 8L44 8L44 6L45 6L45 7L46 7L46 8L47 8L47 9L46 9L46 10L47 10L47 11L48 11L48 12L49 12L49 11L50 11L50 14L49 14L49 15L48 15L48 14L47 14L47 12L46 12L46 11L45 11L45 12L44 12L44 11L43 11L43 10L42 10L42 11L41 11L41 8L39 8L39 9L38 9L38 10L40 10L40 11L36 11L36 10L37 10L37 9L36 9L36 8L37 8L37 7L38 7L38 6L37 6L37 5L39 5L39 7L40 7L40 5L39 5L39 2L38 2L38 1L37 1L37 2L36 2L36 3L38 3L38 4L37 4L37 5L36 5L36 6L35 6L35 8L34 8L34 6L33 6L33 8L34 8L34 10L35 10L35 11L34 11L34 12L33 12L33 13L34 13L34 14L32 14L32 13L31 13L31 12L32 12L32 11L33 11L33 10L32 10L32 9L31 9L31 12L30 12L30 11L28 11L28 10L26 10L26 9L28 9L28 8L27 8L27 7L28 7L28 6L27 6L27 5L26 5L26 6L25 6L25 7L24 7L24 4L25 4L25 2L24 2L24 1ZM17 2L17 3L18 3L18 2ZM23 2L23 3L24 3L24 2ZM28 2L28 3L29 3L29 2ZM43 2L43 3L44 3L44 4L45 4L45 3L44 3L44 2ZM12 3L12 4L13 4L13 5L15 5L15 4L13 4L13 3ZM51 3L51 4L52 4L52 3ZM22 4L22 5L23 5L23 4ZM29 5L29 8L32 8L32 5ZM22 6L22 7L23 7L23 9L21 9L21 10L20 10L20 9L19 9L19 10L20 10L20 11L21 11L21 12L20 12L20 13L19 13L19 14L18 14L18 15L19 15L19 16L17 16L17 19L16 19L16 20L12 20L12 17L13 17L13 18L14 18L14 17L13 17L13 16L14 16L14 15L13 15L13 14L12 14L12 17L11 17L11 20L10 20L10 22L9 22L9 21L8 21L8 20L9 20L9 19L10 19L10 18L9 18L9 19L7 19L7 20L5 20L5 21L4 21L4 22L5 22L5 23L7 23L7 24L4 24L4 26L5 26L5 25L7 25L7 24L9 24L9 23L10 23L10 24L11 24L11 23L10 23L10 22L11 22L11 20L12 20L12 23L13 23L13 25L14 25L14 28L12 28L12 30L13 30L13 31L14 31L14 28L15 28L15 24L16 24L16 25L19 25L19 24L20 24L20 25L21 25L21 26L20 26L20 29L21 29L21 30L23 30L23 31L24 31L24 32L25 32L25 30L28 30L28 31L26 31L26 32L28 32L28 34L27 34L27 33L26 33L26 34L27 34L27 35L29 35L29 34L30 34L30 33L31 33L31 34L32 34L32 35L31 35L31 36L30 36L30 37L32 37L32 35L33 35L33 36L34 36L34 35L35 35L35 36L36 36L36 37L35 37L35 38L34 38L34 39L35 39L35 42L38 42L38 43L40 43L40 44L41 44L41 43L42 43L42 44L43 44L43 43L44 43L44 44L45 44L45 43L44 43L44 40L45 40L45 41L47 41L47 42L46 42L46 43L48 43L48 41L49 41L49 42L50 42L50 41L52 41L52 40L50 40L50 39L53 39L53 38L50 38L50 39L49 39L49 40L46 40L46 39L48 39L48 38L49 38L49 36L48 36L48 38L44 38L44 36L45 36L45 34L43 34L43 33L44 33L44 32L43 32L43 33L42 33L42 34L43 34L43 35L42 35L42 36L43 36L43 37L40 37L40 38L37 38L37 37L38 37L38 36L39 36L39 35L40 35L40 36L41 36L41 35L40 35L40 34L38 34L38 31L39 31L39 33L40 33L40 32L41 32L41 30L44 30L44 28L45 28L45 29L46 29L46 28L47 28L47 27L48 27L48 26L46 26L46 24L47 24L47 25L49 25L49 26L50 26L50 24L48 24L48 23L49 23L49 22L50 22L50 20L47 20L47 21L49 21L49 22L48 22L48 23L46 23L46 24L45 24L45 23L44 23L44 24L43 24L43 23L42 23L42 24L41 24L41 23L39 23L39 22L36 22L36 23L37 23L37 24L36 24L36 25L35 25L35 24L34 24L34 23L35 23L35 22L33 22L33 21L35 21L35 19L36 19L36 18L37 18L37 19L38 19L38 20L36 20L36 21L38 21L38 20L41 20L41 19L42 19L42 18L43 18L43 21L42 21L42 22L45 22L45 21L44 21L44 20L45 20L45 19L47 19L47 18L48 18L48 19L51 19L51 18L50 18L50 17L49 17L49 16L48 16L48 17L47 17L47 18L46 18L46 16L47 16L47 14L45 14L45 15L44 15L44 13L43 13L43 11L42 11L42 12L41 12L41 11L40 11L40 12L38 12L38 13L39 13L39 14L38 14L38 15L37 15L37 14L36 14L36 13L37 13L37 12L34 12L34 13L35 13L35 14L34 14L34 15L35 15L35 14L36 14L36 15L37 15L37 16L36 16L36 18L33 18L33 17L35 17L35 16L33 16L33 15L32 15L32 14L31 14L31 13L30 13L30 14L31 14L31 15L30 15L30 16L29 16L29 17L30 17L30 16L31 16L31 17L32 17L32 18L30 18L30 19L29 19L29 18L28 18L28 16L27 16L27 17L26 17L26 18L27 18L27 19L26 19L26 20L25 20L25 17L21 17L21 16L20 16L20 13L21 13L21 15L22 15L22 14L23 14L23 15L24 15L24 16L26 16L26 15L29 15L29 14L28 14L28 13L29 13L29 12L28 12L28 13L24 13L24 11L22 11L22 10L25 10L25 9L26 9L26 7L27 7L27 6L26 6L26 7L25 7L25 9L24 9L24 7L23 7L23 6ZM30 6L30 7L31 7L31 6ZM36 6L36 7L37 7L37 6ZM42 6L42 7L43 7L43 6ZM11 8L11 9L12 9L12 8ZM48 8L48 9L47 9L47 10L48 10L48 11L49 11L49 10L50 10L50 9L49 9L49 8ZM14 9L14 10L13 10L13 13L14 13L14 10L15 10L15 9ZM48 9L48 10L49 10L49 9ZM57 9L57 10L58 10L58 9ZM52 10L52 11L51 11L51 12L52 12L52 11L53 11L53 10ZM7 11L7 12L6 12L6 13L7 13L7 14L6 14L6 15L5 15L5 16L6 16L6 17L10 17L10 15L11 15L11 13L12 13L12 12L11 12L11 13L10 13L10 11L9 11L9 13L8 13L8 11ZM26 11L26 12L27 12L27 11ZM21 12L21 13L23 13L23 14L24 14L24 13L23 13L23 12ZM40 12L40 13L41 13L41 12ZM45 12L45 13L46 13L46 12ZM56 12L56 13L57 13L57 12ZM0 13L0 14L1 14L1 13ZM9 13L9 14L7 14L7 15L6 15L6 16L7 16L7 15L9 15L9 14L10 14L10 13ZM40 14L40 16L39 16L39 17L38 17L38 18L39 18L39 19L40 19L40 18L39 18L39 17L41 17L41 18L42 18L42 17L43 17L43 18L45 18L45 16L46 16L46 15L45 15L45 16L44 16L44 15L43 15L43 14ZM60 14L60 15L61 15L61 14ZM42 15L42 16L43 16L43 17L44 17L44 16L43 16L43 15ZM19 16L19 17L18 17L18 18L19 18L19 21L17 21L17 20L16 20L16 21L13 21L13 23L14 23L14 24L15 24L15 23L14 23L14 22L19 22L19 21L20 21L20 24L21 24L21 25L25 25L25 26L24 26L24 29L23 29L23 26L22 26L22 27L21 27L21 29L23 29L23 30L24 30L24 29L28 29L28 28L30 28L30 27L31 27L31 26L32 26L32 27L34 27L34 28L33 28L33 29L34 29L34 30L35 30L35 32L33 32L33 34L35 34L35 35L36 35L36 36L38 36L38 34L37 34L37 33L36 33L36 32L37 32L37 31L38 31L38 30L39 30L39 28L37 28L37 27L38 27L38 26L39 26L39 25L40 25L40 26L41 26L41 27L42 27L42 28L40 28L40 29L43 29L43 28L44 28L44 27L43 27L43 26L44 26L44 25L45 25L45 24L44 24L44 25L43 25L43 24L42 24L42 25L41 25L41 24L39 24L39 23L38 23L38 26L37 26L37 25L36 25L36 26L35 26L35 25L33 25L33 22L32 22L32 25L31 25L31 24L30 24L30 25L28 25L28 26L29 26L29 27L27 27L27 26L26 26L26 25L27 25L27 24L26 24L26 23L25 23L25 22L26 22L26 21L27 21L27 20L26 20L26 21L25 21L25 20L24 20L24 19L23 19L23 18L22 18L22 21L23 21L23 22L22 22L22 23L21 23L21 21L20 21L20 20L21 20L21 17L20 17L20 16ZM32 16L32 17L33 17L33 16ZM32 18L32 19L33 19L33 20L32 20L32 21L33 21L33 20L34 20L34 19L33 19L33 18ZM60 18L60 19L61 19L61 18ZM0 19L0 21L1 21L1 19ZM28 19L28 20L29 20L29 21L30 21L30 22L29 22L29 23L28 23L28 22L27 22L27 23L28 23L28 24L29 24L29 23L31 23L31 20L29 20L29 19ZM5 21L5 22L8 22L8 23L9 23L9 22L8 22L8 21ZM24 21L24 22L25 22L25 21ZM52 21L52 22L53 22L53 21ZM16 23L16 24L17 24L17 23ZM24 23L24 24L25 24L25 23ZM30 25L30 26L31 26L31 25ZM32 25L32 26L33 26L33 25ZM42 25L42 26L43 26L43 25ZM53 25L53 26L54 26L54 27L55 27L55 25ZM56 25L56 26L57 26L57 25ZM18 26L18 28L16 28L16 29L15 29L15 30L16 30L16 29L19 29L19 26ZM25 26L25 28L27 28L27 27L26 27L26 26ZM34 26L34 27L35 27L35 26ZM36 26L36 27L37 27L37 26ZM10 27L10 28L11 28L11 27ZM45 27L45 28L46 28L46 27ZM49 27L49 28L51 28L51 27ZM35 28L35 30L36 30L36 31L37 31L37 30L36 30L36 29L37 29L37 28ZM5 29L5 32L8 32L8 29ZM29 29L29 32L32 32L32 29ZM53 29L53 32L56 32L56 29ZM6 30L6 31L7 31L7 30ZM30 30L30 31L31 31L31 30ZM50 30L50 31L51 31L51 30ZM54 30L54 31L55 31L55 30ZM2 31L2 32L0 32L0 33L1 33L1 34L0 34L0 36L1 36L1 35L2 35L2 36L4 36L4 35L2 35L2 34L3 34L3 33L2 33L2 32L3 32L3 31ZM21 31L21 32L22 32L22 31ZM46 31L46 32L48 32L48 31ZM58 31L58 32L59 32L59 31ZM21 33L21 34L20 34L20 37L19 37L19 38L18 38L18 39L19 39L19 38L20 38L20 37L21 37L21 38L22 38L22 39L21 39L21 40L24 40L24 38L27 38L27 39L26 39L26 40L27 40L27 41L26 41L26 42L27 42L27 45L24 45L24 43L25 43L25 41L22 41L22 43L21 43L21 42L20 42L20 43L21 43L21 44L20 44L20 45L21 45L21 44L23 44L23 45L22 45L22 46L21 46L21 47L23 47L23 48L25 48L25 47L27 47L27 49L26 49L26 50L25 50L25 49L21 49L21 50L20 50L20 51L21 51L21 50L22 50L22 51L23 51L23 50L25 50L25 51L24 51L24 52L25 52L25 53L26 53L26 52L25 52L25 51L26 51L26 50L27 50L27 51L28 51L28 50L29 50L29 49L28 49L28 47L29 47L29 45L31 45L31 44L32 44L32 43L31 43L31 42L30 42L30 43L31 43L31 44L29 44L29 42L27 42L27 41L28 41L28 40L27 40L27 39L28 39L28 38L27 38L27 37L26 37L26 35L25 35L25 33ZM12 34L12 35L13 35L13 34ZM22 34L22 35L23 35L23 34ZM36 34L36 35L37 35L37 34ZM50 34L50 35L51 35L51 36L50 36L50 37L52 37L52 36L53 36L53 35L51 35L51 34ZM6 35L6 36L7 36L7 37L6 37L6 38L8 38L8 36L7 36L7 35ZM24 35L24 36L22 36L22 37L23 37L23 38L24 38L24 37L25 37L25 35ZM28 36L28 37L29 37L29 36ZM3 37L3 38L2 38L2 39L4 39L4 37ZM9 37L9 38L10 38L10 37ZM12 37L12 38L13 38L13 39L14 39L14 38L13 38L13 37ZM29 38L29 41L31 41L31 40L32 40L32 41L34 41L34 40L32 40L32 39L33 39L33 38L32 38L32 39L31 39L31 40L30 40L30 38ZM35 38L35 39L36 39L36 40L37 40L37 41L38 41L38 42L40 42L40 43L41 43L41 42L42 42L42 43L43 43L43 42L42 42L42 41L43 41L43 40L44 40L44 38L43 38L43 40L42 40L42 38L40 38L40 39L41 39L41 40L39 40L39 39L38 39L38 40L37 40L37 39L36 39L36 38ZM54 40L54 42L53 42L53 43L52 43L52 42L51 42L51 43L49 43L49 44L47 44L47 45L49 45L49 44L51 44L51 43L52 43L52 44L53 44L53 43L55 43L55 44L56 44L56 41L55 41L55 40ZM40 41L40 42L41 42L41 41ZM0 42L0 43L1 43L1 45L3 45L3 46L1 46L1 47L2 47L2 49L1 49L1 50L2 50L2 51L0 51L0 53L4 53L4 52L5 52L5 51L7 51L7 52L6 52L6 53L7 53L7 52L8 52L8 51L7 51L7 50L8 50L8 49L9 49L9 50L11 50L11 49L10 49L10 48L11 48L11 46L10 46L10 47L9 47L9 46L6 46L6 45L7 45L7 44L2 44L2 43L1 43L1 42ZM10 42L10 43L9 43L9 44L8 44L8 45L10 45L10 44L12 44L12 43L11 43L11 42ZM23 45L23 47L25 47L25 46L24 46L24 45ZM27 45L27 46L28 46L28 45ZM4 46L4 47L5 47L5 50L7 50L7 49L6 49L6 48L7 48L7 47L6 47L6 46ZM12 46L12 47L14 47L14 46ZM46 46L46 47L44 47L44 48L45 48L45 49L46 49L46 47L47 47L47 46ZM48 46L48 48L47 48L47 50L46 50L46 52L45 52L45 50L44 50L44 52L45 52L45 53L47 53L47 51L49 51L49 50L50 50L50 48L49 48L49 46ZM31 47L31 48L30 48L30 49L32 49L32 51L35 51L35 52L36 52L36 49L35 49L35 50L33 50L33 49L34 49L34 48L33 48L33 49L32 49L32 47ZM42 47L42 48L43 48L43 47ZM3 48L3 50L4 50L4 48ZM12 48L12 49L13 49L13 48ZM51 48L51 49L52 49L52 48ZM56 49L56 50L57 50L57 49ZM30 50L30 51L31 51L31 50ZM3 51L3 52L4 52L4 51ZM13 51L13 52L12 52L12 54L11 54L11 53L10 53L10 54L11 54L11 56L12 56L12 57L13 57L13 56L15 56L15 54L14 54L14 55L13 55L13 53L16 53L16 54L19 54L19 53L18 53L18 51L17 51L17 53L16 53L16 51L15 51L15 52L14 52L14 51ZM56 51L56 52L59 52L59 51ZM20 53L20 54L21 54L21 53ZM29 53L29 56L32 56L32 53ZM53 53L53 56L56 56L56 53ZM27 54L27 55L28 55L28 54ZM30 54L30 55L31 55L31 54ZM38 54L38 57L39 57L39 58L38 58L38 59L39 59L39 58L40 58L40 57L39 57L39 56L41 56L41 55L39 55L39 54ZM45 54L45 55L44 55L44 56L43 56L43 57L42 57L42 58L43 58L43 57L44 57L44 58L45 58L45 57L44 57L44 56L45 56L45 55L47 55L47 54ZM48 54L48 55L49 55L49 54ZM54 54L54 55L55 55L55 54ZM12 55L12 56L13 56L13 55ZM16 55L16 56L17 56L17 55ZM51 55L51 56L52 56L52 55ZM50 57L50 59L51 59L51 57ZM55 57L55 58L56 58L56 59L55 59L55 60L56 60L56 59L57 59L57 58L56 58L56 57ZM24 59L24 60L23 60L23 61L24 61L24 60L25 60L25 59ZM33 59L33 60L34 60L34 59ZM0 0L0 7L7 7L7 0ZM1 1L1 6L6 6L6 1ZM2 2L2 5L5 5L5 2ZM54 0L54 7L61 7L61 0ZM55 1L55 6L60 6L60 1ZM56 2L56 5L59 5L59 2ZM0 54L0 61L7 61L7 54ZM1 55L1 60L6 60L6 55ZM2 56L2 59L5 59L5 56Z" fill="#000000"/></g></g></svg>
