<?xml version="1.0" encoding="UTF-8"?>
<svg xmlns="http://www.w3.org/2000/svg" version="1.1" width="200" height="200" viewBox="0 0 200 200"><rect x="0" y="0" width="200" height="200" fill="#ffffff"/><g transform="scale(3.279)"><g transform="translate(0,0)"><path fill-rule="evenodd" d="M11 0L11 1L12 1L12 0ZM16 0L16 1L15 1L15 2L16 2L16 3L15 3L15 4L14 4L14 2L11 2L11 3L10 3L10 1L8 1L8 2L9 2L9 3L8 3L8 4L9 4L9 5L8 5L8 7L9 7L9 5L11 5L11 6L10 6L10 7L11 7L11 8L10 8L10 9L9 9L9 8L6 8L6 9L5 9L5 8L0 8L0 12L1 12L1 13L2 13L2 14L0 14L0 15L1 15L1 16L0 16L0 17L1 17L1 18L2 18L2 19L3 19L3 20L2 20L2 21L1 21L1 19L0 19L0 21L1 21L1 24L2 24L2 26L1 26L1 25L0 25L0 26L1 26L1 27L0 27L0 29L1 29L1 30L0 30L0 32L1 32L1 35L3 35L3 36L4 36L4 35L5 35L5 34L4 34L4 33L8 33L8 34L9 34L9 31L10 31L10 34L11 34L11 35L10 35L10 36L9 36L9 35L8 35L8 36L9 36L9 38L11 38L11 39L9 39L9 40L8 40L8 39L7 39L7 38L6 38L6 39L5 39L5 37L3 37L3 39L2 39L2 37L1 37L1 36L0 36L0 37L1 37L1 38L0 38L0 40L1 40L1 41L0 41L0 42L1 42L1 43L0 43L0 45L2 45L2 46L1 46L1 48L0 48L0 49L2 49L2 48L3 48L3 47L2 47L2 46L4 46L4 47L7 47L7 48L4 48L4 49L3 49L3 50L2 50L2 51L0 51L0 53L4 53L4 52L5 52L5 51L7 51L7 52L6 52L6 53L7 53L7 52L8 52L8 55L10 55L10 54L11 54L11 59L9 59L9 56L8 56L8 61L10 61L10 60L11 60L11 61L13 61L13 60L12 60L12 58L13 58L13 59L14 59L14 61L17 61L17 60L16 60L16 59L18 59L18 61L21 61L21 60L23 60L23 57L22 57L22 59L21 59L21 60L19 60L19 59L20 59L20 57L21 57L21 56L19 56L19 57L18 57L18 56L17 56L17 57L18 57L18 58L15 58L15 59L14 59L14 58L13 58L13 56L15 56L15 57L16 57L16 56L15 56L15 53L17 53L17 55L18 55L18 53L19 53L19 52L18 52L18 51L21 51L21 50L23 50L23 53L22 53L22 52L20 52L20 53L22 53L22 54L25 54L25 53L26 53L26 55L25 55L25 57L24 57L24 60L25 60L25 61L26 61L26 58L28 58L28 60L27 60L27 61L28 61L28 60L31 60L31 59L29 59L29 57L30 57L30 58L32 58L32 60L33 60L33 58L34 58L34 60L35 60L35 61L37 61L37 60L38 60L38 59L39 59L39 61L40 61L40 60L41 60L41 57L42 57L42 58L43 58L43 55L42 55L42 54L43 54L43 53L39 53L39 52L41 52L41 51L40 51L40 50L43 50L43 51L42 51L42 52L45 52L45 53L44 53L44 54L45 54L45 55L44 55L44 56L45 56L45 57L44 57L44 59L42 59L42 60L43 60L43 61L44 61L44 60L46 60L46 59L45 59L45 57L49 57L49 58L47 58L47 61L52 61L52 60L55 60L55 61L56 61L56 59L52 59L52 58L55 58L55 57L56 57L56 58L57 58L57 59L58 59L58 58L59 58L59 56L61 56L61 54L59 54L59 52L60 52L60 53L61 53L61 52L60 52L60 51L61 51L61 50L60 50L60 49L61 49L61 48L60 48L60 47L61 47L61 46L60 46L60 45L61 45L61 42L60 42L60 40L61 40L61 38L60 38L60 40L57 40L57 39L59 39L59 37L61 37L61 34L59 34L59 36L57 36L57 35L58 35L58 33L59 33L59 32L58 32L58 33L57 33L57 27L59 27L59 28L58 28L58 29L59 29L59 28L60 28L60 27L61 27L61 26L60 26L60 25L61 25L61 24L60 24L60 25L59 25L59 24L57 24L57 23L59 23L59 22L60 22L60 23L61 23L61 22L60 22L60 20L61 20L61 18L60 18L60 15L61 15L61 14L60 14L60 13L59 13L59 12L60 12L60 11L61 11L61 10L60 10L60 11L59 11L59 9L60 9L60 8L59 8L59 9L58 9L58 8L57 8L57 9L56 9L56 8L55 8L55 9L54 9L54 8L52 8L52 7L53 7L53 6L52 6L52 7L51 7L51 5L52 5L52 4L53 4L53 0L51 0L51 2L50 2L50 1L49 1L49 2L50 2L50 3L48 3L48 4L47 4L47 3L46 3L46 2L48 2L48 0L47 0L47 1L45 1L45 2L43 2L43 3L46 3L46 4L47 4L47 5L44 5L44 4L42 4L42 5L44 5L44 8L43 8L43 6L42 6L42 7L41 7L41 6L40 6L40 5L41 5L41 4L40 4L40 5L38 5L38 7L39 7L39 8L38 8L38 9L37 9L37 8L35 8L35 9L37 9L37 11L38 11L38 12L36 12L36 13L37 13L37 14L38 14L38 15L37 15L37 16L34 16L34 15L36 15L36 14L34 14L34 13L35 13L35 12L34 12L34 11L36 11L36 10L34 10L34 9L33 9L33 5L34 5L34 7L35 7L35 6L36 6L36 7L37 7L37 3L36 3L36 4L35 4L35 3L34 3L34 2L37 2L37 1L38 1L38 2L39 2L39 3L38 3L38 4L39 4L39 3L42 3L42 2L39 2L39 1L40 1L40 0L39 0L39 1L38 1L38 0L35 0L35 1L34 1L34 0L30 0L30 1L33 1L33 2L32 2L32 3L31 3L31 2L29 2L29 1L27 1L27 0L23 0L23 1L22 1L22 0L21 0L21 1L20 1L20 0L19 0L19 1L18 1L18 2L19 2L19 3L17 3L17 0ZM41 0L41 1L44 1L44 0ZM23 1L23 2L22 2L22 3L21 3L21 4L20 4L20 5L19 5L19 7L20 7L20 5L21 5L21 4L25 4L25 5L24 5L24 6L23 6L23 5L22 5L22 6L21 6L21 7L22 7L22 6L23 6L23 8L21 8L21 9L20 9L20 8L19 8L19 9L18 9L18 8L17 8L17 9L15 9L15 8L16 8L16 6L17 6L17 7L18 7L18 6L17 6L17 5L18 5L18 4L16 4L16 6L15 6L15 7L14 7L14 4L13 4L13 7L14 7L14 9L13 9L13 12L11 12L11 10L12 10L12 8L11 8L11 10L8 10L8 11L5 11L5 12L8 12L8 13L6 13L6 14L5 14L5 13L4 13L4 9L2 9L2 10L1 10L1 12L2 12L2 13L4 13L4 15L3 15L3 14L2 14L2 15L3 15L3 16L5 16L5 17L3 17L3 19L4 19L4 20L5 20L5 21L3 21L3 22L7 22L7 23L6 23L6 24L8 24L8 23L9 23L9 21L10 21L10 23L13 23L13 24L14 24L14 25L13 25L13 26L12 26L12 29L11 29L11 28L10 28L10 27L6 27L6 26L8 26L8 25L6 25L6 26L5 26L5 27L4 27L4 26L3 26L3 27L4 27L4 28L5 28L5 27L6 27L6 28L10 28L10 29L9 29L9 30L10 30L10 29L11 29L11 31L13 31L13 30L14 30L14 32L13 32L13 35L11 35L11 36L10 36L10 37L11 37L11 38L12 38L12 39L11 39L11 40L10 40L10 41L8 41L8 42L7 42L7 41L6 41L6 40L7 40L7 39L6 39L6 40L5 40L5 41L4 41L4 42L3 42L3 40L2 40L2 42L3 42L3 43L4 43L4 44L3 44L3 45L4 45L4 44L5 44L5 43L6 43L6 44L7 44L7 45L5 45L5 46L8 46L8 44L9 44L9 45L10 45L10 43L11 43L11 46L9 46L9 47L8 47L8 49L6 49L6 50L8 50L8 49L9 49L9 51L8 51L8 52L9 52L9 53L10 53L10 49L11 49L11 50L12 50L12 52L11 52L11 54L12 54L12 56L13 56L13 55L14 55L14 53L13 53L13 52L15 52L15 51L16 51L16 52L17 52L17 51L18 51L18 50L19 50L19 49L18 49L18 48L19 48L19 47L20 47L20 48L21 48L21 49L20 49L20 50L21 50L21 49L23 49L23 50L24 50L24 49L27 49L27 50L25 50L25 51L26 51L26 53L27 53L27 55L26 55L26 57L25 57L25 58L26 58L26 57L27 57L27 56L28 56L28 52L27 52L27 50L28 50L28 51L29 51L29 52L30 52L30 51L31 51L31 49L29 49L29 47L30 47L30 46L31 46L31 47L32 47L32 50L34 50L34 52L33 52L33 51L32 51L32 52L33 52L33 55L34 55L34 56L37 56L37 57L38 57L38 58L37 58L37 59L36 59L36 57L34 57L34 58L35 58L35 60L37 60L37 59L38 59L38 58L39 58L39 57L41 57L41 56L37 56L37 55L38 55L38 54L39 54L39 55L41 55L41 54L39 54L39 53L38 53L38 54L37 54L37 55L34 55L34 54L35 54L35 52L37 52L37 50L36 50L36 49L33 49L33 47L32 47L32 45L33 45L33 46L34 46L34 48L37 48L37 46L35 46L35 45L33 45L33 43L31 43L31 42L33 42L33 41L32 41L32 40L33 40L33 39L32 39L32 38L34 38L34 39L35 39L35 40L38 40L38 42L36 42L36 41L34 41L34 42L35 42L35 43L34 43L34 44L38 44L38 46L39 46L39 47L38 47L38 50L39 50L39 47L40 47L40 46L42 46L42 47L43 47L43 48L44 48L44 49L43 49L43 50L44 50L44 51L46 51L46 50L47 50L47 52L49 52L49 51L48 51L48 50L49 50L49 49L50 49L50 50L51 50L51 49L50 49L50 48L52 48L52 49L54 49L54 48L55 48L55 47L53 47L53 46L54 46L54 44L55 44L55 46L56 46L56 47L57 47L57 48L59 48L59 47L57 47L57 45L56 45L56 44L55 44L55 43L57 43L57 44L59 44L59 45L58 45L58 46L59 46L59 45L60 45L60 44L59 44L59 43L60 43L60 42L59 42L59 41L56 41L56 40L55 40L55 39L54 39L54 40L53 40L53 37L52 37L52 38L51 38L51 36L52 36L52 35L53 35L53 36L55 36L55 37L56 37L56 39L57 39L57 38L58 38L58 37L57 37L57 36L56 36L56 34L57 34L57 33L55 33L55 35L53 35L53 34L54 34L54 33L53 33L53 34L52 34L52 35L51 35L51 36L49 36L49 35L50 35L50 34L51 34L51 33L52 33L52 32L49 32L49 31L50 31L50 30L51 30L51 31L52 31L52 30L51 30L51 29L52 29L52 28L53 28L53 27L52 27L52 26L53 26L53 25L55 25L55 28L56 28L56 27L57 27L57 26L58 26L58 25L57 25L57 24L54 24L54 23L55 23L55 22L57 22L57 21L58 21L58 22L59 22L59 21L58 21L58 20L60 20L60 19L59 19L59 17L58 17L58 16L59 16L59 13L57 13L57 12L59 12L59 11L56 11L56 9L55 9L55 10L54 10L54 9L52 9L52 10L51 10L51 9L50 9L50 8L51 8L51 7L50 7L50 5L49 5L49 7L48 7L48 6L47 6L47 7L46 7L46 6L45 6L45 8L44 8L44 10L41 10L41 9L43 9L43 8L40 8L40 10L39 10L39 9L38 9L38 10L39 10L39 11L40 11L40 10L41 10L41 12L40 12L40 13L39 13L39 12L38 12L38 14L40 14L40 15L38 15L38 18L37 18L37 17L36 17L36 18L37 18L37 19L35 19L35 20L37 20L37 21L34 21L34 22L35 22L35 23L34 23L34 24L37 24L37 25L36 25L36 27L35 27L35 28L37 28L37 29L36 29L36 31L35 31L35 32L37 32L37 33L38 33L38 34L37 34L37 35L36 35L36 34L35 34L35 33L34 33L34 34L35 34L35 35L34 35L34 36L35 36L35 35L36 35L36 36L37 36L37 37L33 37L33 35L32 35L32 34L33 34L33 33L29 33L29 35L28 35L28 37L27 37L27 36L26 36L26 35L27 35L27 34L28 34L28 33L27 33L27 32L28 32L28 30L25 30L25 32L24 32L24 33L23 33L23 30L21 30L21 29L23 29L23 28L24 28L24 29L25 29L25 28L26 28L26 29L28 29L28 28L29 28L29 27L27 27L27 26L26 26L26 25L28 25L28 26L29 26L29 25L33 25L33 22L31 22L31 20L33 20L33 19L34 19L34 18L35 18L35 17L34 17L34 18L32 18L32 17L33 17L33 15L34 15L34 14L32 14L32 13L33 13L33 10L32 10L32 9L30 9L30 10L29 10L29 9L28 9L28 8L27 8L27 7L28 7L28 6L27 6L27 7L26 7L26 6L25 6L25 5L26 5L26 4L27 4L27 3L28 3L28 2L27 2L27 1ZM24 2L24 3L25 3L25 2ZM26 2L26 3L27 3L27 2ZM29 3L29 4L31 4L31 3ZM32 3L32 4L33 4L33 3ZM51 3L51 4L52 4L52 3ZM11 4L11 5L12 5L12 4ZM34 4L34 5L35 5L35 4ZM29 5L29 8L32 8L32 5ZM11 6L11 7L12 7L12 6ZM24 6L24 8L23 8L23 9L21 9L21 10L24 10L24 12L25 12L25 11L29 11L29 12L31 12L31 13L32 13L32 10L31 10L31 11L29 11L29 10L28 10L28 9L26 9L26 8L25 8L25 6ZM30 6L30 7L31 7L31 6ZM39 6L39 7L40 7L40 6ZM24 8L24 9L25 9L25 10L26 10L26 9L25 9L25 8ZM47 8L47 9L48 9L48 10L46 10L46 9L45 9L45 11L44 11L44 12L43 12L43 11L42 11L42 12L43 12L43 13L42 13L42 14L43 14L43 15L44 15L44 16L43 16L43 17L42 17L42 15L40 15L40 16L41 16L41 17L39 17L39 18L38 18L38 19L37 19L37 20L41 20L41 19L42 19L42 20L45 20L45 18L44 18L44 19L42 19L42 18L43 18L43 17L44 17L44 16L45 16L45 15L44 15L44 12L45 12L45 14L46 14L46 16L47 16L47 17L49 17L49 16L47 16L47 15L48 15L48 14L46 14L46 13L49 13L49 14L50 14L50 15L51 15L51 14L50 14L50 13L53 13L53 14L52 14L52 16L50 16L50 17L51 17L51 18L50 18L50 19L49 19L49 20L47 20L47 22L46 22L46 21L45 21L45 22L44 22L44 21L42 21L42 22L44 22L44 24L41 24L41 23L40 23L40 22L41 22L41 21L40 21L40 22L38 22L38 23L37 23L37 22L36 22L36 23L37 23L37 24L38 24L38 25L37 25L37 26L38 26L38 27L37 27L37 28L38 28L38 29L37 29L37 30L38 30L38 31L37 31L37 32L39 32L39 34L38 34L38 35L39 35L39 36L38 36L38 37L37 37L37 38L38 38L38 40L39 40L39 41L40 41L40 44L39 44L39 45L40 45L40 44L41 44L41 45L42 45L42 46L43 46L43 47L44 47L44 48L45 48L45 50L46 50L46 49L49 49L49 48L46 48L46 46L45 46L45 47L44 47L44 44L45 44L45 45L47 45L47 46L48 46L48 47L52 47L52 48L53 48L53 47L52 47L52 45L53 45L53 43L52 43L52 44L51 44L51 42L54 42L54 43L55 43L55 42L54 42L54 41L52 41L52 40L50 40L50 41L49 41L49 40L47 40L47 39L49 39L49 38L50 38L50 39L51 39L51 38L50 38L50 37L49 37L49 36L46 36L46 35L49 35L49 32L46 32L46 31L47 31L47 30L48 30L48 31L49 31L49 30L50 30L50 28L47 28L47 27L48 27L48 26L49 26L49 24L51 24L51 25L53 25L53 24L52 24L52 23L53 23L53 22L50 22L50 21L49 21L49 20L51 20L51 21L53 21L53 19L51 19L51 18L52 18L52 17L53 17L53 18L55 18L55 19L54 19L54 20L55 20L55 19L56 19L56 20L57 20L57 19L56 19L56 16L57 16L57 15L58 15L58 14L57 14L57 13L56 13L56 12L55 12L55 11L54 11L54 12L55 12L55 13L53 13L53 12L51 12L51 10L50 10L50 11L49 11L49 12L46 12L46 11L48 11L48 10L49 10L49 8ZM6 9L6 10L7 10L7 9ZM14 9L14 10L15 10L15 11L14 11L14 12L13 12L13 13L14 13L14 14L15 14L15 13L19 13L19 12L20 12L20 13L21 13L21 14L20 14L20 17L19 17L19 16L18 16L18 17L19 17L19 18L18 18L18 19L17 19L17 20L16 20L16 19L15 19L15 18L16 18L16 17L15 17L15 18L14 18L14 17L13 17L13 16L14 16L14 15L13 15L13 14L12 14L12 16L11 16L11 17L10 17L10 16L9 16L9 14L10 14L10 15L11 15L11 14L10 14L10 13L11 13L11 12L10 12L10 11L9 11L9 12L10 12L10 13L8 13L8 16L6 16L6 17L7 17L7 18L6 18L6 19L7 19L7 20L6 20L6 21L7 21L7 22L8 22L8 21L7 21L7 20L8 20L8 19L13 19L13 20L14 20L14 23L15 23L15 24L16 24L16 25L17 25L17 26L16 26L16 27L18 27L18 28L15 28L15 29L14 29L14 28L13 28L13 29L14 29L14 30L15 30L15 29L21 29L21 28L22 28L22 27L20 27L20 25L21 25L21 26L25 26L25 25L26 25L26 23L25 23L25 21L21 21L21 19L20 19L20 17L21 17L21 18L22 18L22 20L23 20L23 17L21 17L21 16L22 16L22 15L23 15L23 14L24 14L24 16L25 16L25 15L26 15L26 14L27 14L27 17L26 17L26 18L25 18L25 17L24 17L24 18L25 18L25 19L29 19L29 16L28 16L28 15L29 15L29 14L30 14L30 13L29 13L29 14L28 14L28 13L26 13L26 14L25 14L25 13L21 13L21 12L20 12L20 11L19 11L19 10L20 10L20 9L19 9L19 10L15 10L15 9ZM2 10L2 11L3 11L3 10ZM16 11L16 12L17 12L17 11ZM14 12L14 13L15 13L15 12ZM49 12L49 13L50 13L50 12ZM55 13L55 14L53 14L53 15L54 15L54 16L53 16L53 17L54 17L54 16L56 16L56 15L57 15L57 14L56 14L56 13ZM6 14L6 15L7 15L7 14ZM17 14L17 15L16 15L16 16L17 16L17 15L18 15L18 14ZM31 14L31 15L30 15L30 16L32 16L32 14ZM1 16L1 17L2 17L2 16ZM8 17L8 18L9 18L9 17ZM11 17L11 18L12 18L12 17ZM27 17L27 18L28 18L28 17ZM30 17L30 18L31 18L31 17ZM4 18L4 19L5 19L5 18ZM40 18L40 19L41 19L41 18ZM46 18L46 19L48 19L48 18ZM19 19L19 21L18 21L18 22L17 22L17 21L16 21L16 22L17 22L17 23L16 23L16 24L20 24L20 22L21 22L21 25L23 25L23 24L22 24L22 22L21 22L21 21L20 21L20 19ZM30 19L30 20L29 20L29 22L28 22L28 21L26 21L26 22L27 22L27 24L28 24L28 25L29 25L29 24L31 24L31 22L30 22L30 20L31 20L31 19ZM11 20L11 22L13 22L13 21L12 21L12 20ZM19 21L19 22L18 22L18 23L19 23L19 22L20 22L20 21ZM54 21L54 22L55 22L55 21ZM47 22L47 23L46 23L46 24L49 24L49 23L50 23L50 22ZM3 23L3 25L4 25L4 24L5 24L5 23ZM28 23L28 24L29 24L29 23ZM38 23L38 24L39 24L39 23ZM10 24L10 26L11 26L11 25L12 25L12 24ZM24 24L24 25L25 25L25 24ZM40 24L40 25L41 25L41 24ZM44 24L44 25L43 25L43 26L40 26L40 27L39 27L39 28L40 28L40 29L38 29L38 30L40 30L40 31L41 31L41 30L42 30L42 31L43 31L43 32L44 32L44 33L46 33L46 34L47 34L47 33L46 33L46 32L44 32L44 31L45 31L45 30L42 30L42 29L41 29L41 28L40 28L40 27L42 27L42 28L43 28L43 27L46 27L46 26L48 26L48 25L46 25L46 26L44 26L44 25L45 25L45 24ZM18 25L18 27L19 27L19 28L20 28L20 27L19 27L19 25ZM34 25L34 26L32 26L32 27L34 27L34 26L35 26L35 25ZM38 25L38 26L39 26L39 25ZM56 25L56 26L57 26L57 25ZM14 26L14 27L15 27L15 26ZM30 26L30 27L31 27L31 26ZM50 26L50 27L51 27L51 26ZM24 27L24 28L25 28L25 27ZM26 27L26 28L27 28L27 27ZM1 28L1 29L2 29L2 33L3 33L3 32L4 32L4 29L2 29L2 28ZM44 28L44 29L45 29L45 28ZM5 29L5 32L8 32L8 29ZM29 29L29 32L32 32L32 29ZM34 29L34 30L35 30L35 29ZM40 29L40 30L41 30L41 29ZM46 29L46 30L47 30L47 29ZM53 29L53 32L56 32L56 29ZM6 30L6 31L7 31L7 30ZM18 30L18 31L19 31L19 30ZM20 30L20 31L21 31L21 30ZM30 30L30 31L31 31L31 30ZM54 30L54 31L55 31L55 30ZM59 30L59 31L61 31L61 30ZM26 31L26 32L27 32L27 31ZM15 32L15 33L16 33L16 34L14 34L14 35L16 35L16 36L15 36L15 38L14 38L14 36L13 36L13 38L14 38L14 39L13 39L13 40L14 40L14 41L12 41L12 40L11 40L11 41L10 41L10 42L8 42L8 43L10 43L10 42L11 42L11 41L12 41L12 42L13 42L13 43L12 43L12 44L14 44L14 42L15 42L15 41L17 41L17 40L18 40L18 42L17 42L17 43L18 43L18 45L19 45L19 44L20 44L20 45L21 45L21 48L22 48L22 46L24 46L24 47L23 47L23 48L24 48L24 47L25 47L25 45L26 45L26 48L27 48L27 49L28 49L28 50L29 50L29 51L30 51L30 50L29 50L29 49L28 49L28 48L27 48L27 47L28 47L28 46L29 46L29 45L32 45L32 44L30 44L30 41L31 41L31 40L30 40L30 39L31 39L31 38L29 38L29 37L28 37L28 38L27 38L27 37L26 37L26 36L25 36L25 35L24 35L24 36L25 36L25 37L21 37L21 36L23 36L23 33L22 33L22 35L21 35L21 34L20 34L20 33L21 33L21 32L20 32L20 33L19 33L19 32L18 32L18 33L16 33L16 32ZM40 32L40 34L39 34L39 35L40 35L40 34L41 34L41 35L42 35L42 36L39 36L39 37L38 37L38 38L40 38L40 39L42 39L42 41L43 41L43 42L42 42L42 43L41 43L41 44L42 44L42 43L43 43L43 44L44 44L44 43L45 43L45 42L44 42L44 41L45 41L45 39L46 39L46 38L47 38L47 37L46 37L46 38L45 38L45 36L43 36L43 35L45 35L45 34L41 34L41 32ZM60 32L60 33L61 33L61 32ZM11 33L11 34L12 34L12 33ZM18 33L18 34L19 34L19 33ZM24 33L24 34L27 34L27 33ZM6 34L6 35L7 35L7 34ZM30 34L30 35L31 35L31 36L30 36L30 37L31 37L31 36L32 36L32 35L31 35L31 34ZM19 35L19 36L21 36L21 35ZM6 36L6 37L7 37L7 36ZM11 36L11 37L12 37L12 36ZM42 36L42 38L44 38L44 37L43 37L43 36ZM16 37L16 38L18 38L18 39L19 39L19 41L20 41L20 42L18 42L18 43L20 43L20 44L21 44L21 45L25 45L25 44L26 44L26 45L27 45L27 46L28 46L28 45L29 45L29 43L27 43L27 42L29 42L29 41L30 41L30 40L29 40L29 41L27 41L27 38L26 38L26 37L25 37L25 38L26 38L26 39L25 39L25 40L21 40L21 39L24 39L24 38L21 38L21 37ZM48 37L48 38L49 38L49 37ZM20 38L20 39L21 39L21 38ZM28 38L28 39L29 39L29 38ZM35 38L35 39L36 39L36 38ZM15 39L15 40L16 40L16 39ZM43 39L43 41L44 41L44 39ZM20 40L20 41L21 41L21 42L23 42L23 41L21 41L21 40ZM25 40L25 41L24 41L24 43L23 43L23 44L24 44L24 43L26 43L26 42L27 42L27 41L26 41L26 40ZM40 40L40 41L41 41L41 40ZM25 41L25 42L26 42L26 41ZM46 41L46 42L47 42L47 43L46 43L46 44L50 44L50 46L51 46L51 44L50 44L50 43L49 43L49 42L47 42L47 41ZM50 41L50 42L51 42L51 41ZM4 42L4 43L5 43L5 42ZM6 42L6 43L7 43L7 42ZM38 42L38 43L39 43L39 42ZM15 43L15 45L13 45L13 46L14 46L14 48L13 48L13 47L12 47L12 48L13 48L13 51L14 51L14 50L16 50L16 49L14 49L14 48L16 48L16 47L17 47L17 46L15 46L15 45L17 45L17 44L16 44L16 43ZM27 44L27 45L28 45L28 44ZM48 45L48 46L49 46L49 45ZM40 48L40 49L42 49L42 48ZM4 49L4 50L5 50L5 49ZM55 49L55 51L54 51L54 52L57 52L57 51L58 51L58 52L59 52L59 49ZM35 50L35 51L36 51L36 50ZM56 50L56 51L57 51L57 50ZM3 51L3 52L4 52L4 51ZM38 51L38 52L39 52L39 51ZM50 51L50 54L51 54L51 55L48 55L48 54L49 54L49 53L46 53L46 54L47 54L47 55L46 55L46 56L49 56L49 57L50 57L50 58L51 58L51 57L52 57L52 53L51 53L51 52L52 52L52 51ZM24 52L24 53L25 53L25 52ZM29 53L29 56L32 56L32 53ZM53 53L53 56L56 56L56 53ZM57 53L57 56L59 56L59 55L58 55L58 53ZM20 54L20 55L21 55L21 54ZM30 54L30 55L31 55L31 54ZM54 54L54 55L55 55L55 54ZM23 55L23 56L24 56L24 55ZM57 57L57 58L58 58L58 57ZM60 57L60 60L57 60L57 61L61 61L61 57ZM18 58L18 59L19 59L19 58ZM48 59L48 60L51 60L51 59ZM0 0L0 7L7 7L7 0ZM1 1L1 6L6 6L6 1ZM2 2L2 5L5 5L5 2ZM54 0L54 7L61 7L61 0ZM55 1L55 6L60 6L60 1ZM56 2L56 5L59 5L59 2ZM0 54L0 61L7 61L7 54ZM1 55L1 60L6 60L6 55ZM2 56L2 59L5 59L5 56Z" fill="#000000"/></g></g></svg>
