<?xml version="1.0" encoding="UTF-8"?>
<svg xmlns="http://www.w3.org/2000/svg" version="1.1" width="200" height="200" viewBox="0 0 200 200"><rect x="0" y="0" width="200" height="200" fill="#ffffff"/><g transform="scale(3.279)"><g transform="translate(0,0)"><path fill-rule="evenodd" d="M9 0L9 3L8 3L8 5L9 5L9 6L8 6L8 7L9 7L9 8L10 8L10 7L11 7L11 9L10 9L10 10L8 10L8 8L5 8L5 9L4 9L4 10L3 10L3 9L2 9L2 8L0 8L0 12L1 12L1 15L0 15L0 18L2 18L2 19L0 19L0 21L2 21L2 23L0 23L0 26L1 26L1 29L0 29L0 30L2 30L2 29L3 29L3 28L4 28L4 30L3 30L3 31L4 31L4 33L7 33L7 34L3 34L3 32L1 32L1 31L0 31L0 34L1 34L1 33L2 33L2 35L1 35L1 36L0 36L0 38L1 38L1 39L0 39L0 40L3 40L3 36L2 36L2 35L5 35L5 36L4 36L4 38L5 38L5 39L4 39L4 40L6 40L6 41L8 41L8 43L9 43L9 46L8 46L8 45L7 45L7 44L6 44L6 45L7 45L7 46L4 46L4 48L3 48L3 46L1 46L1 45L4 45L4 42L5 42L5 43L7 43L7 42L5 42L5 41L3 41L3 42L1 42L1 43L0 43L0 44L1 44L1 45L0 45L0 46L1 46L1 47L2 47L2 48L3 48L3 49L4 49L4 50L2 50L2 51L0 51L0 53L4 53L4 52L5 52L5 51L7 51L7 52L6 52L6 53L8 53L8 56L9 56L9 57L10 57L10 59L11 59L11 58L16 58L16 59L14 59L14 60L13 60L13 59L12 59L12 60L13 60L13 61L15 61L15 60L17 60L17 59L18 59L18 58L19 58L19 59L20 59L20 58L22 58L22 61L24 61L24 59L23 59L23 58L25 58L25 57L26 57L26 56L25 56L25 57L24 57L24 54L25 54L25 53L26 53L26 54L27 54L27 53L28 53L28 56L27 56L27 57L28 57L28 59L26 59L26 60L25 60L25 61L33 61L33 60L34 60L34 61L35 61L35 60L34 60L34 59L37 59L37 58L38 58L38 61L41 61L41 60L43 60L43 61L46 61L46 60L45 60L45 59L47 59L47 57L49 57L49 56L48 56L48 55L46 55L46 53L48 53L48 54L49 54L49 55L50 55L50 52L51 52L51 55L52 55L52 56L50 56L50 59L49 59L49 58L48 58L48 59L49 59L49 60L48 60L48 61L49 61L49 60L51 60L51 61L54 61L54 60L56 60L56 61L57 61L57 60L56 60L56 59L55 59L55 57L58 57L58 58L57 58L57 59L59 59L59 56L58 56L58 55L57 55L57 54L59 54L59 53L61 53L61 50L59 50L59 51L58 51L58 52L57 52L57 50L58 50L58 47L59 47L59 48L60 48L60 49L61 49L61 48L60 48L60 47L61 47L61 46L60 46L60 45L61 45L61 42L60 42L60 41L61 41L61 38L59 38L59 37L58 37L58 34L59 34L59 35L60 35L60 36L61 36L61 34L59 34L59 32L58 32L58 31L59 31L59 30L58 30L58 31L57 31L57 29L59 29L59 28L60 28L60 27L61 27L61 26L60 26L60 25L58 25L58 23L59 23L59 24L61 24L61 22L59 22L59 21L61 21L61 18L60 18L60 15L61 15L61 14L60 14L60 11L61 11L61 10L60 10L60 11L59 11L59 14L58 14L58 11L57 11L57 10L56 10L56 11L57 11L57 12L56 12L56 14L57 14L57 17L56 17L56 16L55 16L55 17L54 17L54 15L52 15L52 12L54 12L54 13L53 13L53 14L55 14L55 11L52 11L52 10L53 10L53 8L50 8L50 7L51 7L51 5L52 5L52 4L53 4L53 0L51 0L51 2L50 2L50 4L49 4L49 3L47 3L47 4L49 4L49 5L48 5L48 7L49 7L49 8L47 8L47 5L45 5L45 4L46 4L46 2L47 2L47 1L48 1L48 2L49 2L49 1L48 1L48 0L46 0L46 2L45 2L45 0L42 0L42 1L44 1L44 8L45 8L45 10L44 10L44 11L43 11L43 9L41 9L41 10L42 10L42 12L41 12L41 11L40 11L40 10L39 10L39 9L40 9L40 8L41 8L41 6L40 6L40 5L43 5L43 2L40 2L40 1L41 1L41 0L40 0L40 1L39 1L39 0L37 0L37 1L35 1L35 0L34 0L34 2L32 2L32 3L33 3L33 4L31 4L31 2L29 2L29 1L32 1L32 0L28 0L28 1L27 1L27 2L26 2L26 5L28 5L28 7L27 7L27 6L26 6L26 8L25 8L25 6L24 6L24 5L25 5L25 4L23 4L23 3L25 3L25 1L26 1L26 0L23 0L23 3L21 3L21 5L23 5L23 6L22 6L22 7L23 7L23 6L24 6L24 8L23 8L23 9L24 9L24 10L25 10L25 13L24 13L24 12L22 12L22 11L21 11L21 12L22 12L22 14L20 14L20 15L22 15L22 14L24 14L24 15L23 15L23 16L25 16L25 17L22 17L22 16L20 16L20 17L19 17L19 16L18 16L18 15L19 15L19 14L18 14L18 15L17 15L17 18L16 18L16 19L17 19L17 20L15 20L15 18L14 18L14 17L13 17L13 16L16 16L16 14L15 14L15 13L16 13L16 12L17 12L17 13L20 13L20 10L21 10L21 9L22 9L22 8L20 8L20 7L21 7L21 6L20 6L20 5L19 5L19 4L20 4L20 1L21 1L21 2L22 2L22 0L20 0L20 1L18 1L18 2L19 2L19 3L17 3L17 1L16 1L16 3L17 3L17 4L18 4L18 5L17 5L17 6L16 6L16 7L15 7L15 6L14 6L14 8L13 8L13 4L12 4L12 7L11 7L11 6L10 6L10 5L9 5L9 3L10 3L10 4L11 4L11 3L13 3L13 2L15 2L15 0L12 0L12 1L11 1L11 0ZM10 1L10 3L11 3L11 1ZM37 1L37 2L35 2L35 3L37 3L37 4L36 4L36 5L37 5L37 7L36 7L36 6L35 6L35 7L34 7L34 5L35 5L35 4L33 4L33 8L34 8L34 9L35 9L35 7L36 7L36 8L37 8L37 11L34 11L34 12L33 12L33 9L32 9L32 12L33 12L33 13L34 13L34 14L36 14L36 12L37 12L37 13L38 13L38 14L37 14L37 15L35 15L35 16L32 16L32 15L33 15L33 14L32 14L32 13L31 13L31 12L29 12L29 11L27 11L27 9L28 9L28 8L26 8L26 9L25 9L25 8L24 8L24 9L25 9L25 10L26 10L26 11L27 11L27 12L29 12L29 13L31 13L31 14L32 14L32 15L31 15L31 16L29 16L29 18L28 18L28 20L27 20L27 18L25 18L25 19L24 19L24 18L21 18L21 17L20 17L20 20L19 20L19 21L18 21L18 22L17 22L17 23L15 23L15 22L16 22L16 21L14 21L14 19L13 19L13 17L12 17L12 15L15 15L15 14L14 14L14 11L15 11L15 12L16 12L16 11L15 11L15 10L16 10L16 9L15 9L15 8L14 8L14 9L12 9L12 12L13 12L13 13L11 13L11 12L10 12L10 13L9 13L9 12L7 12L7 11L8 11L8 10L7 10L7 9L5 9L5 11L3 11L3 10L2 10L2 9L1 9L1 10L2 10L2 11L1 11L1 12L2 12L2 13L6 13L6 14L4 14L4 16L5 16L5 15L6 15L6 16L7 16L7 15L6 15L6 14L7 14L7 13L8 13L8 14L9 14L9 15L8 15L8 17L6 17L6 18L5 18L5 17L2 17L2 16L3 16L3 14L2 14L2 16L1 16L1 17L2 17L2 18L5 18L5 19L6 19L6 20L7 20L7 21L6 21L6 22L5 22L5 20L4 20L4 21L3 21L3 20L2 20L2 21L3 21L3 22L4 22L4 23L5 23L5 25L6 25L6 26L4 26L4 27L6 27L6 28L8 28L8 27L9 27L9 25L10 25L10 27L11 27L11 24L12 24L12 22L13 22L13 23L15 23L15 24L13 24L13 26L12 26L12 27L14 27L14 26L17 26L17 29L16 29L16 30L17 30L17 29L18 29L18 30L20 30L20 31L18 31L18 32L19 32L19 33L17 33L17 32L16 32L16 34L19 34L19 33L20 33L20 32L22 32L22 33L21 33L21 35L22 35L22 36L20 36L20 38L21 38L21 37L22 37L22 36L23 36L23 35L24 35L24 34L23 34L23 33L25 33L25 36L24 36L24 37L25 37L25 39L27 39L27 38L26 38L26 35L27 35L27 36L29 36L29 37L30 37L30 38L28 38L28 39L31 39L31 41L30 41L30 40L29 40L29 41L28 41L28 42L29 42L29 41L30 41L30 42L32 42L32 43L27 43L27 44L23 44L23 43L22 43L22 42L21 42L21 41L23 41L23 42L24 42L24 41L25 41L25 42L26 42L26 41L27 41L27 40L26 40L26 41L25 41L25 40L23 40L23 39L24 39L24 38L22 38L22 39L20 39L20 40L19 40L19 41L20 41L20 42L18 42L18 40L17 40L17 39L16 39L16 40L17 40L17 41L15 41L15 39L14 39L14 38L18 38L18 39L19 39L19 37L18 37L18 36L16 36L16 37L14 37L14 38L13 38L13 39L12 39L12 37L11 37L11 36L14 36L14 35L15 35L15 33L14 33L14 30L15 30L15 28L16 28L16 27L15 27L15 28L10 28L10 30L9 30L9 33L11 33L11 34L10 34L10 35L11 35L11 36L9 36L9 35L8 35L8 34L7 34L7 35L6 35L6 36L7 36L7 37L6 37L6 38L7 38L7 39L6 39L6 40L8 40L8 39L9 39L9 37L10 37L10 38L11 38L11 39L12 39L12 40L13 40L13 41L11 41L11 40L10 40L10 41L11 41L11 42L12 42L12 45L13 45L13 44L15 44L15 42L16 42L16 43L17 43L17 44L19 44L19 45L17 45L17 46L13 46L13 47L11 47L11 48L10 48L10 49L11 49L11 52L10 52L10 51L8 51L8 53L9 53L9 54L12 54L12 55L14 55L14 51L13 51L13 50L15 50L15 52L16 52L16 51L18 51L18 52L19 52L19 53L18 53L18 54L17 54L17 53L16 53L16 54L15 54L15 55L16 55L16 56L18 56L18 57L17 57L17 58L18 58L18 57L19 57L19 56L20 56L20 55L19 55L19 53L20 53L20 54L22 54L22 53L23 53L23 52L24 52L24 53L25 53L25 52L24 52L24 51L23 51L23 49L22 49L22 47L24 47L24 49L25 49L25 51L27 51L27 52L26 52L26 53L27 53L27 52L29 52L29 50L28 50L28 51L27 51L27 50L26 50L26 48L27 48L27 49L28 49L28 48L27 48L27 45L29 45L29 46L28 46L28 47L30 47L30 46L31 46L31 48L32 48L32 49L30 49L30 48L29 48L29 49L30 49L30 50L31 50L31 51L33 51L33 52L34 52L34 51L33 51L33 50L36 50L36 51L35 51L35 53L33 53L33 55L35 55L35 56L38 56L38 57L39 57L39 59L43 59L43 58L40 58L40 57L42 57L42 56L40 56L40 55L39 55L39 54L40 54L40 53L41 53L41 54L42 54L42 55L43 55L43 54L42 54L42 53L43 53L43 52L44 52L44 53L45 53L45 50L44 50L44 48L45 48L45 49L46 49L46 50L48 50L48 51L46 51L46 52L50 52L50 50L51 50L51 52L56 52L56 50L57 50L57 48L54 48L54 47L53 47L53 46L52 46L52 45L51 45L51 42L52 42L52 41L51 41L51 40L50 40L50 41L45 41L45 40L46 40L46 39L45 39L45 37L46 37L46 38L48 38L48 39L47 39L47 40L49 40L49 39L50 39L50 38L51 38L51 39L52 39L52 40L55 40L55 41L56 41L56 43L54 43L54 42L53 42L53 45L54 45L54 46L56 46L56 47L58 47L58 46L56 46L56 43L57 43L57 44L59 44L59 45L60 45L60 44L59 44L59 43L57 43L57 41L56 41L56 39L57 39L57 37L56 37L56 33L55 33L55 35L53 35L53 34L54 34L54 33L53 33L53 34L52 34L52 35L50 35L50 32L52 32L52 30L51 30L51 28L49 28L49 26L47 26L47 25L48 25L48 24L49 24L49 25L50 25L50 27L51 27L51 24L49 24L49 23L50 23L50 21L51 21L51 22L52 22L52 21L51 21L51 20L52 20L52 18L53 18L53 16L52 16L52 18L51 18L51 16L50 16L50 17L49 17L49 18L50 18L50 19L51 19L51 20L49 20L49 19L48 19L48 20L49 20L49 23L46 23L46 24L45 24L45 26L44 26L44 25L43 25L43 26L41 26L41 27L40 27L40 26L39 26L39 24L40 24L40 23L41 23L41 24L43 24L43 23L45 23L45 21L46 21L46 20L47 20L47 18L48 18L48 17L47 17L47 16L45 16L45 13L46 13L46 14L47 14L47 15L48 15L48 16L49 16L49 14L47 14L47 13L48 13L48 12L49 12L49 13L50 13L50 14L51 14L51 13L50 13L50 12L51 12L51 10L48 10L48 9L47 9L47 8L46 8L46 9L47 9L47 10L48 10L48 12L47 12L47 11L46 11L46 12L45 12L45 13L44 13L44 12L42 12L42 13L40 13L40 16L39 16L39 17L38 17L38 14L39 14L39 13L38 13L38 12L39 12L39 11L38 11L38 9L39 9L39 8L40 8L40 6L39 6L39 8L37 8L37 7L38 7L38 5L39 5L39 2L38 2L38 1ZM27 2L27 3L28 3L28 4L30 4L30 3L28 3L28 2ZM14 3L14 5L16 5L16 4L15 4L15 3ZM51 3L51 4L52 4L52 3ZM18 5L18 6L17 6L17 12L19 12L19 11L18 11L18 10L19 10L19 9L20 9L20 8L19 8L19 7L20 7L20 6L19 6L19 5ZM29 5L29 8L32 8L32 5ZM49 5L49 7L50 7L50 5ZM9 6L9 7L10 7L10 6ZM18 6L18 7L19 7L19 6ZM30 6L30 7L31 7L31 6ZM42 6L42 8L43 8L43 6ZM45 6L45 7L46 7L46 6ZM52 6L52 7L53 7L53 6ZM18 8L18 9L19 9L19 8ZM49 8L49 9L50 9L50 8ZM56 8L56 9L58 9L58 10L59 10L59 9L58 9L58 8ZM14 9L14 10L15 10L15 9ZM29 9L29 10L30 10L30 9ZM54 9L54 10L55 10L55 9ZM6 10L6 11L7 11L7 10ZM6 12L6 13L7 13L7 12ZM34 12L34 13L35 13L35 12ZM10 13L10 16L9 16L9 17L8 17L8 18L6 18L6 19L9 19L9 20L8 20L8 21L9 21L9 20L10 20L10 22L6 22L6 23L9 23L9 24L8 24L8 25L7 25L7 24L6 24L6 25L7 25L7 26L6 26L6 27L8 27L8 25L9 25L9 24L11 24L11 22L12 22L12 21L11 21L11 19L12 19L12 17L11 17L11 13ZM42 13L42 14L41 14L41 15L42 15L42 16L41 16L41 17L39 17L39 18L41 18L41 19L38 19L38 18L37 18L37 16L35 16L35 19L34 19L34 18L33 18L33 17L32 17L32 18L31 18L31 17L30 17L30 18L29 18L29 19L30 19L30 20L29 20L29 22L28 22L28 21L27 21L27 22L25 22L25 21L23 21L23 22L22 22L22 23L23 23L23 24L21 24L21 20L20 20L20 21L19 21L19 22L18 22L18 23L19 23L19 24L18 24L18 25L17 25L17 26L18 26L18 27L20 27L20 28L18 28L18 29L21 29L21 26L20 26L20 25L19 25L19 24L21 24L21 25L22 25L22 26L23 26L23 24L26 24L26 26L27 26L27 27L28 27L28 28L27 28L27 29L24 29L24 28L26 28L26 27L24 27L24 28L23 28L23 27L22 27L22 28L23 28L23 29L22 29L22 30L21 30L21 31L22 31L22 32L23 32L23 31L24 31L24 32L25 32L25 33L26 33L26 32L25 32L25 31L24 31L24 30L26 30L26 31L28 31L28 32L27 32L27 35L29 35L29 36L30 36L30 37L31 37L31 36L32 36L32 35L33 35L33 37L32 37L32 38L31 38L31 39L32 39L32 41L33 41L33 43L34 43L34 41L35 41L35 42L36 42L36 43L38 43L38 41L39 41L39 38L37 38L37 36L35 36L35 35L36 35L36 34L37 34L37 32L39 32L39 31L38 31L38 29L39 29L39 30L40 30L40 27L39 27L39 26L38 26L38 24L36 24L36 26L34 26L34 25L35 25L35 21L38 21L38 22L36 22L36 23L40 23L40 22L39 22L39 21L38 21L38 20L41 20L41 23L42 23L42 22L43 22L43 21L42 21L42 20L45 20L45 19L46 19L46 17L44 17L44 16L43 16L43 15L42 15L42 14L44 14L44 13ZM25 15L25 16L26 16L26 17L28 17L28 15ZM10 17L10 18L9 18L9 19L10 19L10 18L11 18L11 17ZM18 17L18 18L19 18L19 17ZM55 17L55 18L54 18L54 19L53 19L53 20L54 20L54 19L56 19L56 17ZM58 17L58 18L57 18L57 19L58 19L58 20L56 20L56 21L55 21L55 22L54 22L54 23L53 23L53 24L52 24L52 28L53 28L53 24L54 24L54 25L55 25L55 27L54 27L54 28L57 28L57 27L59 27L59 26L58 26L58 25L57 25L57 26L56 26L56 25L55 25L55 24L54 24L54 23L55 23L55 22L58 22L58 20L59 20L59 19L60 19L60 18L59 18L59 17ZM30 18L30 19L31 19L31 20L30 20L30 22L31 22L31 24L30 24L30 23L28 23L28 22L27 22L27 23L26 23L26 24L30 24L30 25L29 25L29 27L31 27L31 28L33 28L33 25L31 25L31 24L32 24L32 23L33 23L33 24L34 24L34 23L33 23L33 21L34 21L34 20L33 20L33 21L32 21L32 19L31 19L31 18ZM42 18L42 19L41 19L41 20L42 20L42 19L43 19L43 18ZM58 18L58 19L59 19L59 18ZM35 19L35 20L37 20L37 19ZM31 21L31 22L32 22L32 21ZM19 22L19 23L20 23L20 22ZM3 24L3 25L4 25L4 24ZM46 24L46 25L47 25L47 24ZM1 25L1 26L2 26L2 28L3 28L3 26L2 26L2 25ZM18 25L18 26L19 26L19 25ZM24 25L24 26L25 26L25 25ZM27 25L27 26L28 26L28 25ZM30 25L30 26L31 26L31 27L32 27L32 26L31 26L31 25ZM36 26L36 28L38 28L38 27L37 27L37 26ZM45 26L45 27L44 27L44 28L43 28L43 27L42 27L42 28L41 28L41 29L42 29L42 30L43 30L43 31L44 31L44 32L43 32L43 33L42 33L42 31L40 31L40 32L41 32L41 33L40 33L40 36L39 36L39 37L41 37L41 38L40 38L40 39L41 39L41 38L43 38L43 39L42 39L42 40L41 40L41 41L40 41L40 42L39 42L39 43L40 43L40 44L33 44L33 45L32 45L32 44L30 44L30 45L31 45L31 46L32 46L32 47L34 47L34 48L33 48L33 49L32 49L32 50L33 50L33 49L34 49L34 48L35 48L35 47L36 47L36 46L35 46L35 45L37 45L37 46L38 46L38 47L40 47L40 49L39 49L39 50L38 50L38 48L36 48L36 50L37 50L37 51L38 51L38 52L36 52L36 53L38 53L38 52L39 52L39 53L40 53L40 52L39 52L39 51L41 51L41 52L42 52L42 51L41 51L41 50L43 50L43 48L44 48L44 47L45 47L45 48L47 48L47 49L48 49L48 50L49 50L49 49L52 49L52 50L53 50L53 48L52 48L52 47L50 47L50 46L51 46L51 45L50 45L50 42L48 42L48 43L49 43L49 44L47 44L47 45L46 45L46 46L44 46L44 47L42 47L42 46L43 46L43 44L41 44L41 43L42 43L42 42L43 42L43 43L44 43L44 44L46 44L46 43L45 43L45 41L43 41L43 39L44 39L44 37L45 37L45 35L47 35L47 33L49 33L49 32L48 32L48 31L50 31L50 29L49 29L49 28L47 28L47 31L46 31L46 29L44 29L44 28L45 28L45 27L47 27L47 26ZM34 27L34 28L35 28L35 27ZM5 29L5 32L8 32L8 29ZM29 29L29 32L32 32L32 29ZM34 29L34 30L33 30L33 32L37 32L37 31L35 31L35 29ZM43 29L43 30L44 30L44 29ZM53 29L53 32L56 32L56 29ZM6 30L6 31L7 31L7 30ZM10 30L10 32L11 32L11 33L12 33L12 34L11 34L11 35L12 35L12 34L13 34L13 35L14 35L14 33L13 33L13 30ZM22 30L22 31L23 31L23 30ZM30 30L30 31L31 31L31 30ZM54 30L54 31L55 31L55 30ZM60 30L60 31L61 31L61 30ZM11 31L11 32L12 32L12 31ZM44 32L44 33L43 33L43 34L42 34L42 35L43 35L43 36L44 36L44 35L45 35L45 34L44 34L44 33L45 33L45 32ZM60 32L60 33L61 33L61 32ZM28 33L28 34L29 34L29 35L30 35L30 36L31 36L31 35L30 35L30 34L32 34L32 33ZM33 33L33 35L34 35L34 33ZM35 33L35 34L36 34L36 33ZM38 33L38 35L39 35L39 33ZM57 33L57 34L58 34L58 33ZM43 34L43 35L44 35L44 34ZM48 34L48 35L49 35L49 34ZM7 35L7 36L8 36L8 35ZM52 35L52 36L51 36L51 37L52 37L52 38L53 38L53 39L55 39L55 38L56 38L56 37L54 37L54 38L53 38L53 35ZM34 36L34 37L33 37L33 38L36 38L36 39L34 39L34 40L33 40L33 41L34 41L34 40L37 40L37 41L38 41L38 40L37 40L37 38L36 38L36 37L35 37L35 36ZM41 36L41 37L42 37L42 36ZM46 36L46 37L47 37L47 36ZM48 36L48 38L50 38L50 36ZM1 37L1 38L2 38L2 37ZM7 37L7 38L8 38L8 37ZM13 39L13 40L14 40L14 39ZM20 40L20 41L21 41L21 40ZM9 42L9 43L10 43L10 45L11 45L11 43L10 43L10 42ZM13 42L13 43L14 43L14 42ZM17 42L17 43L18 43L18 42ZM20 42L20 43L19 43L19 44L20 44L20 46L21 46L21 47L22 47L22 46L21 46L21 44L22 44L22 43L21 43L21 42ZM40 42L40 43L41 43L41 42ZM20 43L20 44L21 44L21 43ZM40 44L40 45L41 45L41 46L42 46L42 45L41 45L41 44ZM54 44L54 45L55 45L55 44ZM24 45L24 47L25 47L25 48L26 48L26 47L25 47L25 45ZM47 45L47 46L48 46L48 47L47 47L47 48L49 48L49 45ZM7 46L7 47L6 47L6 48L4 48L4 49L6 49L6 50L8 50L8 49L9 49L9 47L10 47L10 46L9 46L9 47L8 47L8 46ZM14 47L14 48L13 48L13 49L12 49L12 50L13 50L13 49L14 49L14 48L16 48L16 49L17 49L17 48L18 48L18 49L19 49L19 50L18 50L18 51L19 51L19 50L20 50L20 53L21 53L21 51L22 51L22 52L23 52L23 51L22 51L22 50L20 50L20 47L17 47L17 48L16 48L16 47ZM0 48L0 50L1 50L1 48ZM6 48L6 49L8 49L8 48ZM41 48L41 49L40 49L40 50L41 50L41 49L42 49L42 48ZM54 49L54 51L55 51L55 49ZM3 51L3 52L4 52L4 51ZM12 51L12 52L13 52L13 51ZM12 53L12 54L13 54L13 53ZM29 53L29 56L32 56L32 53ZM53 53L53 56L56 56L56 53ZM16 54L16 55L17 55L17 54ZM30 54L30 55L31 55L31 54ZM35 54L35 55L38 55L38 56L39 56L39 55L38 55L38 54ZM54 54L54 55L55 55L55 54ZM60 54L60 55L61 55L61 54ZM9 55L9 56L10 56L10 57L11 57L11 55ZM21 55L21 57L22 57L22 58L23 58L23 55ZM45 55L45 56L44 56L44 57L45 57L45 58L46 58L46 57L45 57L45 56L46 56L46 55ZM60 56L60 61L61 61L61 56ZM31 57L31 58L29 58L29 60L30 60L30 59L31 59L31 60L32 60L32 59L33 59L33 57ZM35 57L35 58L36 58L36 57ZM52 57L52 58L51 58L51 59L53 59L53 58L54 58L54 57ZM8 59L8 61L11 61L11 60L9 60L9 59ZM18 60L18 61L19 61L19 60ZM36 60L36 61L37 61L37 60ZM0 0L0 7L7 7L7 0ZM1 1L1 6L6 6L6 1ZM2 2L2 5L5 5L5 2ZM54 0L54 7L61 7L61 0ZM55 1L55 6L60 6L60 1ZM56 2L56 5L59 5L59 2ZM0 54L0 61L7 61L7 54ZM1 55L1 60L6 60L6 55ZM2 56L2 59L5 59L5 56Z" fill="#000000"/></g></g></svg>
