<?xml version="1.0" encoding="UTF-8"?>
<svg xmlns="http://www.w3.org/2000/svg" version="1.1" width="200" height="200" viewBox="0 0 200 200"><rect x="0" y="0" width="200" height="200" fill="#ffffff"/><g transform="scale(3.279)"><g transform="translate(0,0)"><path fill-rule="evenodd" d="M8 0L8 4L9 4L9 5L8 5L8 7L9 7L9 10L8 10L8 9L7 9L7 8L4 8L4 10L3 10L3 9L2 9L2 8L0 8L0 11L1 11L1 12L0 12L0 15L1 15L1 16L0 16L0 18L1 18L1 16L2 16L2 14L3 14L3 13L4 13L4 15L3 15L3 16L4 16L4 17L5 17L5 19L4 19L4 20L5 20L5 21L7 21L7 22L5 22L5 26L4 26L4 28L3 28L3 26L0 26L0 28L2 28L2 29L1 29L1 30L0 30L0 32L2 32L2 33L0 33L0 36L1 36L1 37L0 37L0 38L1 38L1 39L2 39L2 40L0 40L0 41L2 41L2 40L3 40L3 42L1 42L1 45L0 45L0 47L1 47L1 46L2 46L2 47L3 47L3 46L4 46L4 48L6 48L6 49L8 49L8 54L9 54L9 55L8 55L8 57L9 57L9 55L10 55L10 54L9 54L9 53L10 53L10 52L11 52L11 51L12 51L12 52L13 52L13 51L14 51L14 52L15 52L15 51L16 51L16 50L15 50L15 46L16 46L16 49L17 49L17 48L18 48L18 49L20 49L20 50L21 50L21 49L22 49L22 51L23 51L23 52L24 52L24 53L19 53L19 52L20 52L20 51L19 51L19 50L18 50L18 51L17 51L17 52L16 52L16 53L17 53L17 54L15 54L15 53L11 53L11 56L10 56L10 57L11 57L11 58L10 58L10 59L11 59L11 60L10 60L10 61L15 61L15 60L13 60L13 58L12 58L12 57L11 57L11 56L13 56L13 57L14 57L14 55L13 55L13 54L15 54L15 55L16 55L16 57L19 57L19 58L18 58L18 59L17 59L17 58L14 58L14 59L17 59L17 60L16 60L16 61L19 61L19 60L20 60L20 58L23 58L23 60L24 60L24 59L25 59L25 58L26 58L26 60L25 60L25 61L28 61L28 60L27 60L27 58L28 58L28 59L30 59L30 58L31 58L31 57L32 57L32 58L33 58L33 59L31 59L31 60L29 60L29 61L34 61L34 60L33 60L33 59L34 59L34 58L33 58L33 56L34 56L34 57L37 57L37 58L36 58L36 59L35 59L35 61L38 61L38 59L39 59L39 61L40 61L40 59L41 59L41 61L42 61L42 59L43 59L43 58L45 58L45 59L44 59L44 61L45 61L45 60L46 60L46 61L50 61L50 60L53 60L53 58L56 58L56 57L57 57L57 58L58 58L58 61L61 61L61 60L60 60L60 58L61 58L61 57L60 57L60 56L61 56L61 55L58 55L58 57L57 57L57 54L59 54L59 53L61 53L61 51L59 51L59 49L61 49L61 48L59 48L59 47L58 47L58 49L56 49L56 48L57 48L57 47L56 47L56 46L59 46L59 43L60 43L60 41L61 41L61 40L59 40L59 39L60 39L60 37L61 37L61 36L59 36L59 35L58 35L58 34L57 34L57 27L58 27L58 33L59 33L59 34L60 34L60 33L61 33L61 31L60 31L60 33L59 33L59 30L60 30L60 28L61 28L61 27L60 27L60 28L59 28L59 27L58 27L58 26L60 26L60 25L61 25L61 23L60 23L60 22L59 22L59 23L58 23L58 22L57 22L57 20L58 20L58 21L59 21L59 19L58 19L58 18L60 18L60 17L61 17L61 16L59 16L59 15L58 15L58 17L57 17L57 15L56 15L56 16L55 16L55 17L53 17L53 18L52 18L52 17L50 17L50 15L51 15L51 16L52 16L52 15L53 15L53 16L54 16L54 15L55 15L55 14L56 14L56 13L59 13L59 11L60 11L60 12L61 12L61 11L60 11L60 10L59 10L59 11L58 11L58 10L56 10L56 8L55 8L55 9L54 9L54 10L52 10L52 9L53 9L53 8L52 8L52 7L53 7L53 6L52 6L52 7L51 7L51 5L52 5L52 4L53 4L53 0L51 0L51 2L50 2L50 1L49 1L49 2L48 2L48 0L47 0L47 1L46 1L46 2L47 2L47 3L45 3L45 1L44 1L44 0L42 0L42 1L41 1L41 3L40 3L40 2L39 2L39 4L38 4L38 1L40 1L40 0L38 0L38 1L34 1L34 0L33 0L33 1L32 1L32 0L30 0L30 1L32 1L32 2L33 2L33 3L34 3L34 4L32 4L32 3L30 3L30 2L29 2L29 1L28 1L28 0L27 0L27 1L26 1L26 0L22 0L22 1L24 1L24 3L20 3L20 2L21 2L21 0L19 0L19 1L17 1L17 0L12 0L12 1L11 1L11 0L10 0L10 1L9 1L9 0ZM13 1L13 2L12 2L12 3L11 3L11 4L10 4L10 3L9 3L9 4L10 4L10 5L12 5L12 6L11 6L11 7L10 7L10 6L9 6L9 7L10 7L10 9L12 9L12 10L11 10L11 11L10 11L10 10L9 10L9 11L8 11L8 10L7 10L7 9L5 9L5 10L4 10L4 11L3 11L3 10L2 10L2 9L1 9L1 11L2 11L2 12L1 12L1 13L3 13L3 12L7 12L7 13L6 13L6 14L5 14L5 15L6 15L6 16L5 16L5 17L6 17L6 18L7 18L7 19L6 19L6 20L7 20L7 21L10 21L10 22L12 22L12 23L11 23L11 25L10 25L10 24L9 24L9 22L8 22L8 23L6 23L6 24L7 24L7 25L6 25L6 26L5 26L5 27L6 27L6 28L9 28L9 29L10 29L10 27L6 27L6 26L7 26L7 25L8 25L8 24L9 24L9 26L11 26L11 25L12 25L12 23L13 23L13 27L11 27L11 29L12 29L12 28L13 28L13 27L14 27L14 28L15 28L15 29L13 29L13 30L14 30L14 32L15 32L15 29L16 29L16 30L20 30L20 33L18 33L18 32L17 32L17 33L16 33L16 35L17 35L17 36L20 36L20 37L23 37L23 36L24 36L24 35L25 35L25 34L28 34L28 35L29 35L29 34L31 34L31 35L32 35L32 36L31 36L31 37L30 37L30 36L28 36L28 37L29 37L29 38L28 38L28 40L27 40L27 41L26 41L26 42L24 42L24 41L25 41L25 40L26 40L26 39L27 39L27 38L26 38L26 36L25 36L25 38L21 38L21 39L20 39L20 38L19 38L19 37L15 37L15 34L14 34L14 33L13 33L13 32L12 32L12 31L10 31L10 30L9 30L9 32L10 32L10 33L9 33L9 35L8 35L8 33L3 33L3 34L1 34L1 35L2 35L2 36L3 36L3 37L4 37L4 38L5 38L5 39L3 39L3 40L5 40L5 41L4 41L4 42L3 42L3 44L4 44L4 46L7 46L7 47L6 47L6 48L8 48L8 49L9 49L9 52L10 52L10 51L11 51L11 50L10 50L10 48L11 48L11 49L12 49L12 51L13 51L13 47L14 47L14 46L13 46L13 45L12 45L12 46L10 46L10 45L8 45L8 44L9 44L9 43L8 43L8 44L7 44L7 43L6 43L6 44L7 44L7 45L5 45L5 44L4 44L4 43L5 43L5 41L6 41L6 42L9 42L9 41L12 41L12 42L13 42L13 43L12 43L12 44L14 44L14 43L15 43L15 40L13 40L13 41L12 41L12 39L13 39L13 38L14 38L14 39L15 39L15 38L16 38L16 39L17 39L17 40L18 40L18 39L19 39L19 41L18 41L18 42L17 42L17 41L16 41L16 43L17 43L17 44L20 44L20 45L16 45L16 46L18 46L18 48L19 48L19 47L20 47L20 49L21 49L21 48L22 48L22 49L25 49L25 48L26 48L26 46L27 46L27 45L28 45L28 44L27 44L27 45L25 45L25 44L26 44L26 43L27 43L27 41L29 41L29 42L30 42L30 43L31 43L31 44L33 44L33 45L29 45L29 46L28 46L28 47L29 47L29 46L30 46L30 47L32 47L32 48L31 48L31 49L32 49L32 50L30 50L30 49L29 49L29 48L27 48L27 49L26 49L26 52L25 52L25 51L24 51L24 52L25 52L25 53L26 53L26 52L29 52L29 51L27 51L27 50L28 50L28 49L29 49L29 50L30 50L30 51L32 51L32 52L33 52L33 53L34 53L34 55L35 55L35 56L37 56L37 57L39 57L39 56L37 56L37 54L36 54L36 55L35 55L35 53L36 53L36 51L37 51L37 52L38 52L38 53L39 53L39 51L38 51L38 48L39 48L39 50L40 50L40 54L39 54L39 55L40 55L40 54L41 54L41 55L42 55L42 56L40 56L40 57L41 57L41 59L42 59L42 57L44 57L44 56L43 56L43 55L42 55L42 54L41 54L41 50L40 50L40 49L42 49L42 48L43 48L43 49L44 49L44 47L48 47L48 48L49 48L49 47L50 47L50 48L51 48L51 51L52 51L52 52L50 52L50 49L46 49L46 48L45 48L45 49L46 49L46 50L45 50L45 51L47 51L47 50L49 50L49 53L48 53L48 52L46 52L46 54L44 54L44 55L46 55L46 59L47 59L47 60L48 60L48 59L52 59L52 55L50 55L50 54L49 54L49 53L52 53L52 52L53 52L53 51L55 51L55 52L57 52L57 53L58 53L58 52L57 52L57 51L56 51L56 49L55 49L55 50L53 50L53 51L52 51L52 48L53 48L53 47L54 47L54 48L55 48L55 45L54 45L54 43L57 43L57 44L56 44L56 45L57 45L57 44L58 44L58 43L59 43L59 42L58 42L58 43L57 43L57 42L56 42L56 41L58 41L58 39L59 39L59 38L58 38L58 39L56 39L56 38L55 38L55 37L58 37L58 36L57 36L57 35L56 35L56 36L55 36L55 37L54 37L54 36L53 36L53 35L55 35L55 34L56 34L56 33L51 33L51 34L53 34L53 35L52 35L52 36L51 36L51 35L49 35L49 36L50 36L50 37L52 37L52 38L53 38L53 40L54 40L54 39L55 39L55 40L56 40L56 41L55 41L55 42L52 42L52 39L50 39L50 38L49 38L49 40L51 40L51 42L50 42L50 41L49 41L49 42L47 42L47 41L46 41L46 39L47 39L47 40L48 40L48 36L46 36L46 35L48 35L48 34L50 34L50 32L51 32L51 31L52 31L52 30L51 30L51 31L48 31L48 29L47 29L47 26L48 26L48 27L49 27L49 28L50 28L50 29L52 29L52 27L50 27L50 26L49 26L49 25L50 25L50 23L51 23L51 22L52 22L52 23L54 23L54 24L53 24L53 25L52 25L52 24L51 24L51 25L52 25L52 26L53 26L53 27L54 27L54 28L55 28L55 27L57 27L57 26L58 26L58 23L57 23L57 25L56 25L56 26L53 26L53 25L55 25L55 23L54 23L54 22L53 22L53 21L51 21L51 19L52 19L52 18L51 18L51 19L50 19L50 17L46 17L46 16L45 16L45 18L44 18L44 17L43 17L43 16L44 16L44 15L45 15L45 14L44 14L44 13L43 13L43 14L44 14L44 15L43 15L43 16L41 16L41 15L40 15L40 18L39 18L39 19L38 19L38 17L35 17L35 16L36 16L36 15L37 15L37 16L38 16L38 14L37 14L37 13L36 13L36 15L35 15L35 10L36 10L36 11L37 11L37 12L38 12L38 13L39 13L39 11L40 11L40 13L41 13L41 10L38 10L38 8L40 8L40 9L41 9L41 8L42 8L42 9L44 9L44 10L46 10L46 11L45 11L45 13L46 13L46 15L48 15L48 16L49 16L49 15L50 15L50 14L49 14L49 15L48 15L48 12L47 12L47 10L48 10L48 11L52 11L52 12L51 12L51 13L52 13L52 14L51 14L51 15L52 15L52 14L54 14L54 11L52 11L52 10L50 10L50 9L51 9L51 7L50 7L50 6L49 6L49 8L50 8L50 9L48 9L48 8L47 8L47 7L48 7L48 5L47 5L47 4L49 4L49 5L50 5L50 2L49 2L49 3L47 3L47 4L45 4L45 3L44 3L44 2L43 2L43 1L42 1L42 3L44 3L44 5L42 5L42 4L41 4L41 5L42 5L42 6L41 6L41 8L40 8L40 6L39 6L39 5L40 5L40 4L39 4L39 5L38 5L38 6L37 6L37 7L38 7L38 8L37 8L37 10L36 10L36 6L35 6L35 8L33 8L33 9L32 9L32 10L31 10L31 11L30 11L30 13L26 13L26 11L25 11L25 10L24 10L24 9L26 9L26 10L27 10L27 12L28 12L28 11L29 11L29 10L30 10L30 9L29 9L29 10L27 10L27 9L26 9L26 8L28 8L28 5L27 5L27 7L26 7L26 5L24 5L24 4L23 4L23 5L21 5L21 7L22 7L22 9L21 9L21 11L20 11L20 9L18 9L18 11L19 11L19 12L20 12L20 13L18 13L18 15L19 15L19 17L18 17L18 16L17 16L17 15L16 15L16 16L15 16L15 13L16 13L16 14L17 14L17 13L16 13L16 12L15 12L15 9L16 9L16 11L17 11L17 9L16 9L16 8L15 8L15 9L14 9L14 8L13 8L13 9L12 9L12 8L11 8L11 7L12 7L12 6L13 6L13 7L14 7L14 6L15 6L15 7L16 7L16 5L17 5L17 8L19 8L19 7L20 7L20 6L19 6L19 7L18 7L18 5L19 5L19 4L20 4L20 3L19 3L19 2L16 2L16 1ZM27 1L27 2L28 2L28 1ZM33 1L33 2L34 2L34 3L35 3L35 2L34 2L34 1ZM13 2L13 4L12 4L12 5L14 5L14 3L15 3L15 5L16 5L16 4L17 4L17 3L15 3L15 2ZM25 2L25 3L26 3L26 4L27 4L27 3L26 3L26 2ZM28 3L28 4L29 4L29 3ZM36 3L36 5L37 5L37 3ZM51 3L51 4L52 4L52 3ZM34 4L34 5L33 5L33 7L34 7L34 5L35 5L35 4ZM29 5L29 8L32 8L32 5ZM46 5L46 7L47 7L47 5ZM22 6L22 7L23 7L23 8L24 8L24 7L25 7L25 8L26 8L26 7L25 7L25 6L24 6L24 7L23 7L23 6ZM30 6L30 7L31 7L31 6ZM38 6L38 7L39 7L39 6ZM42 6L42 8L43 8L43 6ZM44 6L44 9L45 9L45 6ZM57 8L57 9L61 9L61 8ZM13 9L13 10L12 10L12 11L11 11L11 12L10 12L10 13L9 13L9 12L8 12L8 11L7 11L7 10L5 10L5 11L7 11L7 12L8 12L8 14L6 14L6 15L7 15L7 16L6 16L6 17L7 17L7 18L8 18L8 20L9 20L9 18L8 18L8 17L9 17L9 14L10 14L10 15L11 15L11 16L10 16L10 20L14 20L14 21L12 21L12 22L14 22L14 21L15 21L15 20L14 20L14 19L15 19L15 16L14 16L14 15L11 15L11 14L13 14L13 12L14 12L14 13L15 13L15 12L14 12L14 11L13 11L13 10L14 10L14 9ZM22 9L22 10L23 10L23 11L21 11L21 12L23 12L23 13L22 13L22 14L21 14L21 13L20 13L20 14L19 14L19 15L22 15L22 16L21 16L21 17L20 17L20 19L19 19L19 20L18 20L18 19L17 19L17 18L18 18L18 17L17 17L17 18L16 18L16 19L17 19L17 20L16 20L16 21L19 21L19 22L20 22L20 23L21 23L21 22L23 22L23 23L22 23L22 24L21 24L21 25L20 25L20 24L16 24L16 22L15 22L15 25L14 25L14 26L15 26L15 28L16 28L16 29L20 29L20 30L21 30L21 29L22 29L22 31L21 31L21 33L20 33L20 34L19 34L19 35L20 35L20 34L21 34L21 36L23 36L23 35L22 35L22 34L25 34L25 33L27 33L27 32L28 32L28 34L29 34L29 33L33 33L33 34L32 34L32 35L33 35L33 37L32 37L32 38L30 38L30 39L29 39L29 41L31 41L31 42L32 42L32 43L33 43L33 44L34 44L34 45L35 45L35 48L36 48L36 49L37 49L37 48L38 48L38 47L39 47L39 48L40 48L40 47L41 47L41 46L42 46L42 47L44 47L44 46L43 46L43 45L42 45L42 43L43 43L43 42L44 42L44 41L45 41L45 43L44 43L44 45L45 45L45 46L46 46L46 44L47 44L47 46L49 46L49 45L50 45L50 47L51 47L51 45L50 45L50 44L51 44L51 43L52 43L52 42L51 42L51 43L50 43L50 44L49 44L49 43L46 43L46 41L45 41L45 39L46 39L46 37L45 37L45 36L44 36L44 35L46 35L46 34L45 34L45 31L46 31L46 29L45 29L45 27L44 27L44 26L46 26L46 25L47 25L47 24L48 24L48 25L49 25L49 23L48 23L48 22L47 22L47 23L46 23L46 21L50 21L50 22L51 22L51 21L50 21L50 20L49 20L49 19L48 19L48 18L47 18L47 19L46 19L46 18L45 18L45 19L44 19L44 18L43 18L43 17L42 17L42 18L41 18L41 20L43 20L43 19L44 19L44 21L45 21L45 22L43 22L43 21L42 21L42 22L40 22L40 19L39 19L39 21L38 21L38 20L37 20L37 19L36 19L36 18L35 18L35 19L36 19L36 21L35 21L35 20L34 20L34 21L33 21L33 20L32 20L32 19L31 19L31 21L33 21L33 23L32 23L32 22L31 22L31 23L32 23L32 24L31 24L31 26L29 26L29 25L28 25L28 26L27 26L27 27L28 27L28 28L26 28L26 25L27 25L27 23L28 23L28 24L30 24L30 21L29 21L29 19L28 19L28 21L27 21L27 20L26 20L26 19L25 19L25 20L26 20L26 21L24 21L24 22L23 22L23 21L20 21L20 20L24 20L24 19L22 19L22 18L26 18L26 17L27 17L27 18L28 18L28 17L29 17L29 18L32 18L32 17L33 17L33 19L34 19L34 15L33 15L33 16L32 16L32 15L31 15L31 14L32 14L32 13L30 13L30 14L27 14L27 15L28 15L28 16L26 16L26 13L24 13L24 12L25 12L25 11L24 11L24 10L23 10L23 9ZM33 9L33 11L32 11L32 12L33 12L33 13L34 13L34 12L33 12L33 11L34 11L34 9ZM55 10L55 13L56 13L56 10ZM23 11L23 12L24 12L24 11ZM42 11L42 12L44 12L44 11ZM52 12L52 13L53 13L53 12ZM10 13L10 14L11 14L11 13ZM23 13L23 15L24 15L24 16L22 16L22 17L21 17L21 18L22 18L22 17L25 17L25 15L24 15L24 13ZM30 15L30 17L32 17L32 16L31 16L31 15ZM11 16L11 19L14 19L14 17L13 17L13 18L12 18L12 16ZM56 17L56 18L54 18L54 19L53 19L53 20L54 20L54 21L55 21L55 20L56 20L56 18L57 18L57 17ZM2 18L2 19L3 19L3 18ZM54 19L54 20L55 20L55 19ZM60 19L60 21L61 21L61 19ZM0 20L0 21L1 21L1 23L0 23L0 24L1 24L1 25L3 25L3 24L4 24L4 23L3 23L3 24L1 24L1 23L2 23L2 20ZM45 20L45 21L46 21L46 20ZM34 21L34 23L33 23L33 24L34 24L34 25L32 25L32 27L39 27L39 26L38 26L38 25L37 25L37 26L35 26L35 25L36 25L36 23L37 23L37 21L36 21L36 22L35 22L35 21ZM24 22L24 23L23 23L23 24L22 24L22 25L21 25L21 26L22 26L22 25L23 25L23 26L24 26L24 25L25 25L25 24L26 24L26 23L25 23L25 22ZM28 22L28 23L29 23L29 22ZM39 22L39 23L38 23L38 24L39 24L39 23L40 23L40 22ZM34 23L34 24L35 24L35 23ZM41 23L41 24L40 24L40 26L41 26L41 27L40 27L40 29L39 29L39 31L42 31L42 32L40 32L40 33L39 33L39 32L37 32L37 34L38 34L38 33L39 33L39 34L40 34L40 33L44 33L44 27L43 27L43 31L42 31L42 30L40 30L40 29L41 29L41 27L42 27L42 26L41 26L41 24L42 24L42 23ZM43 23L43 26L44 26L44 23ZM45 24L45 25L46 25L46 24ZM59 24L59 25L60 25L60 24ZM16 25L16 26L17 26L17 27L18 27L18 28L20 28L20 29L21 29L21 28L20 28L20 26L19 26L19 25ZM28 26L28 27L29 27L29 26ZM22 27L22 29L23 29L23 31L25 31L25 32L22 32L22 33L21 33L21 34L22 34L22 33L25 33L25 32L26 32L26 31L28 31L28 29L26 29L26 30L24 30L24 29L25 29L25 27L24 27L24 29L23 29L23 27ZM30 27L30 28L31 28L31 27ZM34 28L34 29L33 29L33 33L34 33L34 35L35 35L35 36L34 36L34 38L33 38L33 39L30 39L30 40L31 40L31 41L33 41L33 42L34 42L34 43L36 43L36 41L35 41L35 40L36 40L36 39L35 39L35 37L36 37L36 32L35 32L35 28ZM3 29L3 30L1 30L1 31L2 31L2 32L4 32L4 31L3 31L3 30L4 30L4 29ZM5 29L5 32L8 32L8 29ZM29 29L29 32L32 32L32 29ZM36 29L36 31L38 31L38 30L37 30L37 29ZM53 29L53 32L56 32L56 29ZM6 30L6 31L7 31L7 30ZM30 30L30 31L31 31L31 30ZM54 30L54 31L55 31L55 30ZM47 31L47 34L48 34L48 33L49 33L49 32L48 32L48 31ZM10 33L10 36L12 36L12 35L13 35L13 36L14 36L14 35L13 35L13 34L11 34L11 33ZM17 33L17 34L18 34L18 33ZM6 34L6 35L7 35L7 36L5 36L5 35L4 35L4 36L5 36L5 37L7 37L7 36L8 36L8 35L7 35L7 34ZM41 34L41 35L39 35L39 36L38 36L38 35L37 35L37 36L38 36L38 37L39 37L39 36L40 36L40 37L43 37L43 38L42 38L42 41L41 41L41 40L40 40L40 41L39 41L39 40L38 40L38 38L37 38L37 40L38 40L38 41L37 41L37 44L38 44L38 45L37 45L37 46L36 46L36 47L37 47L37 46L38 46L38 45L39 45L39 42L40 42L40 46L41 46L41 42L42 42L42 41L44 41L44 39L45 39L45 38L44 38L44 36L43 36L43 34ZM41 35L41 36L42 36L42 35ZM1 37L1 38L2 38L2 37ZM9 37L9 38L10 38L10 39L8 39L8 38L6 38L6 39L8 39L8 40L6 40L6 41L9 41L9 40L11 40L11 39L12 39L12 38L13 38L13 37L11 37L11 38L10 38L10 37ZM14 37L14 38L15 38L15 37ZM53 37L53 38L54 38L54 37ZM17 38L17 39L18 39L18 38ZM43 38L43 39L44 39L44 38ZM33 39L33 41L34 41L34 39ZM21 40L21 41L19 41L19 42L20 42L20 43L22 43L22 44L21 44L21 45L20 45L20 46L21 46L21 47L22 47L22 48L24 48L24 47L25 47L25 45L24 45L24 44L25 44L25 43L24 43L24 44L23 44L23 41L22 41L22 40ZM21 41L21 42L22 42L22 41ZM38 41L38 42L39 42L39 41ZM10 43L10 44L11 44L11 43ZM45 43L45 44L46 44L46 43ZM22 44L22 45L21 45L21 46L22 46L22 47L23 47L23 46L24 46L24 45L23 45L23 44ZM60 44L60 45L61 45L61 44ZM7 45L7 46L8 46L8 47L9 47L9 48L10 48L10 46L8 46L8 45ZM22 45L22 46L23 46L23 45ZM52 45L52 47L53 47L53 46L54 46L54 45ZM12 46L12 47L13 47L13 46ZM32 46L32 47L34 47L34 46ZM2 48L2 49L1 49L1 50L2 50L2 51L0 51L0 53L4 53L4 52L5 52L5 51L7 51L7 50L4 50L4 49L3 49L3 48ZM32 48L32 49L33 49L33 50L32 50L32 51L34 51L34 52L35 52L35 51L36 51L36 50L35 50L35 51L34 51L34 49L33 49L33 48ZM2 49L2 50L3 50L3 49ZM14 50L14 51L15 51L15 50ZM42 50L42 52L43 52L43 53L44 53L44 51L43 51L43 50ZM3 51L3 52L4 52L4 51ZM6 52L6 53L7 53L7 52ZM18 53L18 54L17 54L17 56L20 56L20 57L21 57L21 55L22 55L22 57L24 57L24 56L27 56L27 57L26 57L26 58L27 58L27 57L28 57L28 53L27 53L27 55L25 55L25 54L24 54L24 55L23 55L23 54L20 54L20 55L19 55L19 53ZM29 53L29 56L32 56L32 53ZM53 53L53 56L56 56L56 53ZM30 54L30 55L31 55L31 54ZM47 54L47 55L48 55L48 56L47 56L47 58L49 58L49 57L50 57L50 58L51 58L51 56L50 56L50 55L48 55L48 54ZM54 54L54 55L55 55L55 54ZM58 57L58 58L60 58L60 57ZM11 58L11 59L12 59L12 58ZM37 58L37 59L38 59L38 58ZM8 59L8 61L9 61L9 59ZM18 59L18 60L19 60L19 59ZM21 59L21 61L22 61L22 59ZM56 59L56 60L57 60L57 59ZM0 0L0 7L7 7L7 0ZM1 1L1 6L6 6L6 1ZM2 2L2 5L5 5L5 2ZM54 0L54 7L61 7L61 0ZM55 1L55 6L60 6L60 1ZM56 2L56 5L59 5L59 2ZM0 54L0 61L7 61L7 54ZM1 55L1 60L6 60L6 55ZM2 56L2 59L5 59L5 56Z" fill="#000000"/></g></g></svg>
