<?xml version="1.0" encoding="UTF-8"?>
<svg xmlns="http://www.w3.org/2000/svg" version="1.1" width="200" height="200" viewBox="0 0 200 200"><rect x="0" y="0" width="200" height="200" fill="#ffffff"/><g transform="scale(3.279)"><g transform="translate(0,0)"><path fill-rule="evenodd" d="M10 0L10 1L8 1L8 3L9 3L9 2L11 2L11 3L10 3L10 4L8 4L8 8L6 8L6 9L7 9L7 10L5 10L5 9L4 9L4 8L3 8L3 9L2 9L2 8L0 8L0 9L2 9L2 10L0 10L0 11L2 11L2 12L0 12L0 13L1 13L1 14L0 14L0 15L1 15L1 17L2 17L2 15L1 15L1 14L4 14L4 15L3 15L3 19L0 19L0 22L1 22L1 23L0 23L0 24L1 24L1 26L0 26L0 27L1 27L1 28L2 28L2 31L1 31L1 32L2 32L2 33L1 33L1 34L4 34L4 35L3 35L3 36L2 36L2 37L1 37L1 39L4 39L4 38L5 38L5 39L7 39L7 40L5 40L5 41L7 41L7 42L4 42L4 41L1 41L1 40L0 40L0 41L1 41L1 42L0 42L0 43L1 43L1 44L2 44L2 45L1 45L1 47L0 47L0 50L1 50L1 48L3 48L3 49L2 49L2 51L0 51L0 53L4 53L4 52L5 52L5 51L7 51L7 50L9 50L9 49L10 49L10 51L11 51L11 53L8 53L8 52L6 52L6 53L8 53L8 55L10 55L10 56L11 56L11 57L8 57L8 58L10 58L10 59L8 59L8 61L9 61L9 60L10 60L10 61L12 61L12 60L14 60L14 59L15 59L15 60L17 60L17 61L20 61L20 60L21 60L21 61L23 61L23 59L25 59L25 60L26 60L26 61L27 61L27 58L29 58L29 57L34 57L34 56L33 56L33 55L34 55L34 53L35 53L35 54L36 54L36 57L35 57L35 58L34 58L34 59L33 59L33 58L32 58L32 59L31 59L31 58L30 58L30 60L29 60L29 59L28 59L28 61L33 61L33 60L34 60L34 59L35 59L35 58L36 58L36 60L35 60L35 61L39 61L39 60L37 60L37 59L39 59L39 58L41 58L41 56L42 56L42 57L43 57L43 59L42 59L42 60L41 60L41 59L40 59L40 61L45 61L45 60L44 60L44 59L47 59L47 60L46 60L46 61L54 61L54 60L51 60L51 59L52 59L52 57L53 57L53 58L54 58L54 57L55 57L55 58L56 58L56 59L55 59L55 61L57 61L57 60L58 60L58 59L57 59L57 55L58 55L58 56L60 56L60 55L61 55L61 53L60 53L60 52L61 52L61 49L60 49L60 48L59 48L59 49L60 49L60 51L59 51L59 50L58 50L58 48L57 48L57 51L59 51L59 52L58 52L58 54L57 54L57 52L55 52L55 51L56 51L56 50L54 50L54 48L52 48L52 49L51 49L51 47L52 47L52 46L51 46L51 47L50 47L50 46L49 46L49 44L50 44L50 43L49 43L49 42L51 42L51 40L52 40L52 41L53 41L53 42L52 42L52 45L54 45L54 46L53 46L53 47L55 47L55 46L56 46L56 47L57 47L57 46L58 46L58 47L61 47L61 44L59 44L59 40L60 40L60 43L61 43L61 36L60 36L60 35L61 35L61 33L59 33L59 34L57 34L57 35L56 35L56 33L57 33L57 32L60 32L60 31L61 31L61 29L60 29L60 30L59 30L59 28L58 28L58 31L57 31L57 27L59 27L59 25L60 25L60 27L61 27L61 24L60 24L60 23L61 23L61 21L59 21L59 22L58 22L58 21L56 21L56 20L57 20L57 19L56 19L56 18L58 18L58 17L60 17L60 18L59 18L59 19L58 19L58 20L60 20L60 19L61 19L61 16L58 16L58 15L59 15L59 14L58 14L58 15L57 15L57 12L56 12L56 10L57 10L57 11L58 11L58 10L60 10L60 11L59 11L59 12L61 12L61 9L60 9L60 8L58 8L58 10L57 10L57 8L54 8L54 9L53 9L53 8L52 8L52 9L53 9L53 10L54 10L54 9L55 9L55 11L53 11L53 12L56 12L56 15L54 15L54 17L53 17L53 18L54 18L54 17L55 17L55 19L56 19L56 20L55 20L55 22L54 22L54 23L56 23L56 22L58 22L58 23L59 23L59 25L57 25L57 24L56 24L56 26L57 26L57 27L56 27L56 28L52 28L52 27L51 27L51 26L50 26L50 27L49 27L49 26L48 26L48 25L49 25L49 24L51 24L51 25L52 25L52 26L53 26L53 24L51 24L51 23L52 23L52 22L51 22L51 23L50 23L50 21L51 21L51 20L50 20L50 21L49 21L49 18L48 18L48 17L49 17L49 16L50 16L50 15L51 15L51 17L50 17L50 19L52 19L52 18L51 18L51 17L52 17L52 15L51 15L51 14L50 14L50 13L51 13L51 11L50 11L50 7L51 7L51 5L52 5L52 4L53 4L53 0L51 0L51 2L50 2L50 3L49 3L49 4L50 4L50 5L49 5L49 6L48 6L48 7L47 7L47 5L48 5L48 4L47 4L47 5L46 5L46 4L45 4L45 5L44 5L44 3L45 3L45 2L46 2L46 1L47 1L47 0L44 0L44 1L43 1L43 0L41 0L41 4L40 4L40 3L39 3L39 4L37 4L37 5L39 5L39 4L40 4L40 7L39 7L39 6L38 6L38 7L37 7L37 6L36 6L36 7L35 7L35 5L34 5L34 3L36 3L36 1L35 1L35 0L33 0L33 2L32 2L32 3L31 3L31 1L32 1L32 0L31 0L31 1L29 1L29 0L27 0L27 1L28 1L28 2L26 2L26 3L28 3L28 5L27 5L27 4L25 4L25 2L23 2L23 0L19 0L19 1L20 1L20 2L19 2L19 4L20 4L20 5L19 5L19 6L18 6L18 7L19 7L19 8L17 8L17 5L18 5L18 1L17 1L17 3L16 3L16 0L14 0L14 1L13 1L13 0ZM24 0L24 1L25 1L25 0ZM37 0L37 2L39 2L39 1L40 1L40 0ZM49 0L49 1L48 1L48 2L47 2L47 3L48 3L48 2L49 2L49 1L50 1L50 0ZM11 1L11 2L12 2L12 5L13 5L13 3L14 3L14 6L13 6L13 8L10 8L10 9L9 9L9 8L8 8L8 10L7 10L7 11L3 11L3 10L4 10L4 9L3 9L3 10L2 10L2 11L3 11L3 12L8 12L8 13L6 13L6 14L5 14L5 16L8 16L8 17L9 17L9 16L10 16L10 18L9 18L9 19L8 19L8 20L9 20L9 19L10 19L10 21L9 21L9 22L7 22L7 21L6 21L6 22L5 22L5 21L4 21L4 19L6 19L6 20L7 20L7 19L6 19L6 18L7 18L7 17L6 17L6 18L4 18L4 19L3 19L3 20L1 20L1 21L3 21L3 22L2 22L2 23L1 23L1 24L4 24L4 23L5 23L5 24L7 24L7 25L5 25L5 27L4 27L4 26L3 26L3 27L4 27L4 28L5 28L5 27L6 27L6 28L8 28L8 26L9 26L9 30L10 30L10 31L9 31L9 32L10 32L10 31L13 31L13 30L17 30L17 36L16 36L16 31L14 31L14 32L15 32L15 34L14 34L14 33L13 33L13 32L11 32L11 35L10 35L10 36L9 36L9 35L8 35L8 33L5 33L5 34L7 34L7 35L5 35L5 36L4 36L4 37L6 37L6 38L7 38L7 39L8 39L8 40L7 40L7 41L9 41L9 39L11 39L11 40L10 40L10 42L8 42L8 45L6 45L6 44L7 44L7 43L5 43L5 45L4 45L4 42L2 42L2 44L3 44L3 45L4 45L4 46L3 46L3 48L4 48L4 49L3 49L3 50L4 50L4 49L5 49L5 50L7 50L7 49L5 49L5 48L4 48L4 47L6 47L6 48L8 48L8 45L10 45L10 44L9 44L9 43L11 43L11 45L12 45L12 47L14 47L14 46L15 46L15 48L16 48L16 46L17 46L17 47L18 47L18 45L17 45L17 43L18 43L18 42L19 42L19 43L22 43L22 44L24 44L24 46L23 46L23 48L22 48L22 49L23 49L23 50L24 50L24 51L21 51L21 48L20 48L20 46L21 46L21 45L19 45L19 48L20 48L20 50L19 50L19 51L16 51L16 52L14 52L14 53L13 53L13 55L12 55L12 53L11 53L11 54L10 54L10 55L12 55L12 56L13 56L13 57L12 57L12 58L13 58L13 59L14 59L14 58L16 58L16 59L17 59L17 60L18 60L18 59L20 59L20 58L22 58L22 57L21 57L21 55L22 55L22 56L24 56L24 57L23 57L23 58L27 58L27 57L28 57L28 56L27 56L27 55L26 55L26 51L28 51L28 49L27 49L27 50L26 50L26 49L25 49L25 50L24 50L24 48L25 48L25 47L26 47L26 45L27 45L27 48L28 48L28 47L29 47L29 48L30 48L30 47L31 47L31 46L32 46L32 47L33 47L33 48L31 48L31 51L30 51L30 49L29 49L29 52L33 52L33 53L34 53L34 52L35 52L35 53L36 53L36 54L37 54L37 53L39 53L39 54L38 54L38 56L37 56L37 58L39 58L39 57L40 57L40 56L41 56L41 55L39 55L39 54L41 54L41 50L40 50L40 53L39 53L39 51L38 51L38 50L39 50L39 49L38 49L38 48L39 48L39 47L40 47L40 46L41 46L41 45L42 45L42 48L43 48L43 46L44 46L44 48L45 48L45 46L48 46L48 47L49 47L49 46L48 46L48 44L47 44L47 45L45 45L45 44L44 44L44 43L47 43L47 40L46 40L46 39L47 39L47 38L49 38L49 39L48 39L48 40L50 40L50 38L51 38L51 39L53 39L53 38L55 38L55 37L56 37L56 39L57 39L57 40L55 40L55 41L54 41L54 40L53 40L53 41L54 41L54 42L55 42L55 43L53 43L53 44L55 44L55 45L56 45L56 46L57 46L57 45L58 45L58 46L59 46L59 44L58 44L58 43L57 43L57 42L55 42L55 41L58 41L58 40L59 40L59 39L60 39L60 38L59 38L59 35L57 35L57 36L55 36L55 37L53 37L53 38L52 38L52 36L51 36L51 35L49 35L49 37L47 37L47 36L48 36L48 34L47 34L47 33L48 33L48 32L47 32L47 30L48 30L48 31L49 31L49 34L51 34L51 33L52 33L52 32L50 32L50 31L52 31L52 28L51 28L51 27L50 27L50 28L49 28L49 30L48 30L48 29L46 29L46 27L48 27L48 26L44 26L44 25L40 25L40 26L39 26L39 25L38 25L38 26L37 26L37 25L35 25L35 26L34 26L34 24L36 24L36 23L37 23L37 21L38 21L38 23L39 23L39 22L40 22L40 24L41 24L41 23L42 23L42 24L43 24L43 23L44 23L44 24L45 24L45 25L47 25L47 24L49 24L49 23L48 23L48 20L46 20L46 21L45 21L45 20L44 20L44 19L47 19L47 17L45 17L45 18L44 18L44 19L43 19L43 17L44 17L44 16L43 16L43 14L44 14L44 12L45 12L45 11L46 11L46 10L47 10L47 12L48 12L48 11L49 11L49 13L47 13L47 14L46 14L46 13L45 13L45 16L46 16L46 15L47 15L47 14L49 14L49 15L50 15L50 14L49 14L49 13L50 13L50 11L49 11L49 10L47 10L47 9L48 9L48 8L49 8L49 7L50 7L50 6L49 6L49 7L48 7L48 8L47 8L47 7L46 7L46 5L45 5L45 8L44 8L44 6L43 6L43 8L42 8L42 6L41 6L41 9L39 9L39 8L38 8L38 9L36 9L36 8L35 8L35 9L26 9L26 10L25 10L25 8L26 8L26 6L27 6L27 8L28 8L28 6L27 6L27 5L24 5L24 4L23 4L23 3L22 3L22 1L21 1L21 2L20 2L20 3L21 3L21 5L20 5L20 6L19 6L19 7L20 7L20 6L21 6L21 7L22 7L22 8L19 8L19 9L17 9L17 8L16 8L16 10L15 10L15 11L16 11L16 12L15 12L15 14L14 14L14 13L13 13L13 15L9 15L9 14L10 14L10 13L11 13L11 11L13 11L13 12L14 12L14 11L13 11L13 8L14 8L14 9L15 9L15 8L14 8L14 6L15 6L15 7L16 7L16 6L15 6L15 2L13 2L13 1ZM34 1L34 2L35 2L35 1ZM28 2L28 3L29 3L29 2ZM32 3L32 4L33 4L33 3ZM51 3L51 4L52 4L52 3ZM10 4L10 6L9 6L9 7L10 7L10 6L11 6L11 7L12 7L12 6L11 6L11 4ZM16 4L16 5L17 5L17 4ZM22 4L22 5L21 5L21 6L22 6L22 7L23 7L23 4ZM41 4L41 5L42 5L42 4ZM29 5L29 8L32 8L32 5ZM24 6L24 8L25 8L25 6ZM30 6L30 7L31 7L31 6ZM33 6L33 8L34 8L34 6ZM52 6L52 7L53 7L53 6ZM22 8L22 10L24 10L24 9L23 9L23 8ZM43 8L43 9L44 9L44 8ZM45 8L45 10L46 10L46 8ZM10 9L10 10L8 10L8 12L10 12L10 11L11 11L11 9ZM20 9L20 10L16 10L16 11L17 11L17 12L18 12L18 15L20 15L20 14L19 14L19 12L18 12L18 11L20 11L20 10L21 10L21 9ZM35 9L35 10L32 10L32 14L30 14L30 15L32 15L32 14L33 14L33 13L34 13L34 14L35 14L35 16L36 16L36 17L37 17L37 18L39 18L39 20L38 20L38 21L41 21L41 22L42 22L42 20L43 20L43 19L40 19L40 18L39 18L39 17L40 17L40 16L41 16L41 18L42 18L42 17L43 17L43 16L42 16L42 13L41 13L41 11L42 11L42 12L44 12L44 11L42 11L42 10L41 10L41 11L40 11L40 14L38 14L38 15L39 15L39 16L38 16L38 17L37 17L37 14L35 14L35 13L37 13L37 12L39 12L39 10L37 10L37 11L36 11L36 9ZM26 10L26 11L27 11L27 12L26 12L26 13L25 13L25 15L26 15L26 17L25 17L25 16L24 16L24 14L23 14L23 15L22 15L22 13L24 13L24 12L23 12L23 11L21 11L21 17L20 17L20 16L17 16L17 13L16 13L16 16L13 16L13 17L12 17L12 18L10 18L10 19L13 19L13 17L14 17L14 19L15 19L15 20L12 20L12 22L13 22L13 23L14 23L14 24L15 24L15 22L16 22L16 21L15 21L15 20L17 20L17 23L16 23L16 24L17 24L17 25L14 25L14 27L13 27L13 28L12 28L12 26L13 26L13 25L12 25L12 23L11 23L11 21L10 21L10 22L9 22L9 23L8 23L8 25L7 25L7 26L6 26L6 27L7 27L7 26L8 26L8 25L9 25L9 26L10 26L10 27L11 27L11 28L12 28L12 29L10 29L10 30L13 30L13 28L14 28L14 27L15 27L15 26L17 26L17 27L16 27L16 29L17 29L17 28L18 28L18 36L17 36L17 37L14 37L14 38L17 38L17 39L19 39L19 40L18 40L18 41L17 41L17 40L16 40L16 39L14 39L14 40L16 40L16 41L17 41L17 42L18 42L18 41L21 41L21 42L22 42L22 43L23 43L23 42L24 42L24 40L27 40L27 41L25 41L25 43L24 43L24 44L25 44L25 43L26 43L26 44L27 44L27 41L29 41L29 43L28 43L28 45L29 45L29 47L30 47L30 46L31 46L31 44L32 44L32 46L33 46L33 47L35 47L35 46L33 46L33 44L32 44L32 43L31 43L31 44L29 44L29 43L30 43L30 42L31 42L31 40L32 40L32 42L33 42L33 40L35 40L35 41L37 41L37 40L38 40L38 43L39 43L39 42L42 42L42 41L43 41L43 42L44 42L44 41L45 41L45 42L46 42L46 41L45 41L45 39L43 39L43 38L45 38L45 37L46 37L46 38L47 38L47 37L46 37L46 35L47 35L47 34L45 34L45 36L44 36L44 34L43 34L43 38L40 38L40 39L39 39L39 38L37 38L37 37L41 37L41 36L37 36L37 35L38 35L38 33L41 33L41 32L40 32L40 31L42 31L42 30L39 30L39 28L42 28L42 27L41 27L41 26L40 26L40 27L38 27L38 28L37 28L37 26L36 26L36 27L35 27L35 29L37 29L37 30L39 30L39 32L38 32L38 33L37 33L37 31L36 31L36 30L35 30L35 34L33 34L33 35L32 35L32 33L33 33L33 29L34 29L34 28L33 28L33 27L32 27L32 26L30 26L30 27L31 27L31 28L28 28L28 31L26 31L26 30L24 30L24 33L23 33L23 29L22 29L22 28L23 28L23 27L25 27L25 29L27 29L27 28L26 28L26 25L27 25L27 27L28 27L28 26L29 26L29 24L30 24L30 25L33 25L33 24L34 24L34 23L36 23L36 21L37 21L37 19L36 19L36 18L35 18L35 20L34 20L34 19L33 19L33 18L32 18L32 20L33 20L33 21L31 21L31 23L32 23L32 24L30 24L30 23L29 23L29 22L30 22L30 19L28 19L28 20L29 20L29 22L28 22L28 21L27 21L27 22L25 22L25 23L26 23L26 25L25 25L25 26L24 26L24 25L23 25L23 24L22 24L22 23L21 23L21 24L19 24L19 23L18 23L18 22L19 22L19 20L20 20L20 21L21 21L21 22L24 22L24 20L25 20L25 21L26 21L26 19L27 19L27 18L29 18L29 16L28 16L28 15L27 15L27 13L29 13L29 12L30 12L30 11L31 11L31 10L30 10L30 11L29 11L29 12L28 12L28 11L27 11L27 10ZM33 11L33 12L34 12L34 13L35 13L35 12L36 12L36 11ZM8 13L8 14L9 14L9 13ZM52 13L52 14L53 14L53 13ZM60 13L60 15L61 15L61 13ZM6 14L6 15L7 15L7 14ZM40 14L40 15L41 15L41 14ZM33 15L33 16L32 16L32 17L34 17L34 15ZM16 16L16 18L17 18L17 19L19 19L19 18L20 18L20 19L21 19L21 20L22 20L22 19L21 19L21 18L20 18L20 17L19 17L19 18L17 18L17 16ZM23 16L23 17L22 17L22 18L23 18L23 20L24 20L24 19L26 19L26 18L27 18L27 17L28 17L28 16L27 16L27 17L26 17L26 18L23 18L23 17L24 17L24 16ZM30 16L30 18L31 18L31 16ZM55 16L55 17L56 17L56 16ZM57 16L57 17L58 17L58 16ZM53 19L53 20L52 20L52 21L54 21L54 19ZM13 21L13 22L15 22L15 21ZM33 21L33 23L34 23L34 22L35 22L35 21ZM3 22L3 23L4 23L4 22ZM6 22L6 23L7 23L7 22ZM44 22L44 23L45 23L45 24L46 24L46 23L47 23L47 22ZM10 23L10 26L12 26L12 25L11 25L11 23ZM17 23L17 24L18 24L18 26L20 26L20 29L19 29L19 34L20 34L20 35L21 35L21 34L23 34L23 33L22 33L22 29L21 29L21 28L22 28L22 27L21 27L21 25L22 25L22 26L23 26L23 25L22 25L22 24L21 24L21 25L19 25L19 24L18 24L18 23ZM28 23L28 24L27 24L27 25L28 25L28 24L29 24L29 23ZM54 26L54 27L55 27L55 26ZM43 27L43 28L44 28L44 29L45 29L45 27ZM50 28L50 30L49 30L49 31L50 31L50 30L51 30L51 28ZM0 29L0 30L1 30L1 29ZM5 29L5 32L8 32L8 29ZM20 29L20 31L21 31L21 29ZM29 29L29 32L32 32L32 29ZM53 29L53 32L56 32L56 29ZM6 30L6 31L7 31L7 30ZM30 30L30 31L31 31L31 30ZM43 30L43 31L44 31L44 32L43 32L43 33L44 33L44 32L45 32L45 33L47 33L47 32L45 32L45 31L44 31L44 30ZM54 30L54 31L55 31L55 30ZM2 31L2 32L4 32L4 31ZM25 31L25 32L26 32L26 33L24 33L24 34L25 34L25 35L22 35L22 36L23 36L23 37L22 37L22 40L21 40L21 41L23 41L23 40L24 40L24 39L25 39L25 38L27 38L27 39L28 39L28 36L29 36L29 35L30 35L30 34L29 34L29 33L27 33L27 32L26 32L26 31ZM20 32L20 33L21 33L21 32ZM12 33L12 36L11 36L11 38L13 38L13 36L15 36L15 35L13 35L13 33ZM26 33L26 36L25 36L25 37L27 37L27 33ZM53 33L53 34L52 34L52 35L53 35L53 36L54 36L54 35L53 35L53 34L55 34L55 33ZM35 34L35 35L33 35L33 36L32 36L32 35L31 35L31 36L32 36L32 37L29 37L29 38L31 38L31 39L32 39L32 40L33 40L33 39L35 39L35 38L33 38L33 36L35 36L35 37L36 37L36 34ZM40 34L40 35L41 35L41 34ZM0 35L0 36L1 36L1 35ZM7 35L7 36L6 36L6 37L7 37L7 36L8 36L8 37L9 37L9 38L8 38L8 39L9 39L9 38L10 38L10 37L9 37L9 36L8 36L8 35ZM19 36L19 37L20 37L20 38L19 38L19 39L21 39L21 36ZM50 36L50 37L51 37L51 36ZM23 37L23 39L24 39L24 37ZM32 38L32 39L33 39L33 38ZM41 39L41 40L39 40L39 41L42 41L42 40L43 40L43 39ZM12 40L12 41L13 41L13 42L11 42L11 43L13 43L13 44L12 44L12 45L13 45L13 44L14 44L14 45L16 45L16 44L15 44L15 43L16 43L16 42L15 42L15 41L13 41L13 40ZM29 40L29 41L30 41L30 40ZM48 41L48 42L49 42L49 41ZM14 42L14 43L15 43L15 42ZM35 42L35 44L36 44L36 45L37 45L37 42ZM41 43L41 44L40 44L40 45L41 45L41 44L42 44L42 45L44 45L44 44L42 44L42 43ZM38 44L38 45L39 45L39 44ZM56 44L56 45L57 45L57 44ZM6 46L6 47L7 47L7 46ZM10 46L10 47L11 47L11 46ZM36 46L36 49L37 49L37 47L38 47L38 46ZM46 47L46 49L47 49L47 47ZM10 48L10 49L11 49L11 51L13 51L13 50L14 50L14 49L13 49L13 50L12 50L12 48ZM34 48L34 50L35 50L35 48ZM32 49L32 51L33 51L33 52L34 52L34 51L33 51L33 49ZM42 49L42 52L43 52L43 53L42 53L42 54L43 54L43 53L44 53L44 55L47 55L47 56L43 56L43 55L42 55L42 56L43 56L43 57L45 57L45 58L48 58L48 60L50 60L50 59L51 59L51 57L52 57L52 52L51 52L51 49L50 49L50 50L49 50L49 49L48 49L48 50L49 50L49 51L50 51L50 53L49 53L49 54L50 54L50 55L47 55L47 54L48 54L48 53L47 53L47 50L44 50L44 49ZM52 49L52 50L53 50L53 51L54 51L54 50L53 50L53 49ZM36 50L36 51L35 51L35 52L36 52L36 53L37 53L37 52L38 52L38 51L37 51L37 50ZM43 50L43 52L44 52L44 53L46 53L46 51L44 51L44 50ZM3 51L3 52L4 52L4 51ZM19 51L19 52L18 52L18 54L17 54L17 56L19 56L19 58L20 58L20 56L19 56L19 55L18 55L18 54L19 54L19 53L20 53L20 55L21 55L21 53L22 53L22 55L25 55L25 56L26 56L26 55L25 55L25 54L24 54L24 53L25 53L25 51L24 51L24 53L22 53L22 52L21 52L21 53L20 53L20 51ZM16 52L16 53L15 53L15 56L14 56L14 55L13 55L13 56L14 56L14 57L13 57L13 58L14 58L14 57L15 57L15 56L16 56L16 53L17 53L17 52ZM27 52L27 53L28 53L28 52ZM29 53L29 56L32 56L32 53ZM50 53L50 54L51 54L51 53ZM53 53L53 56L56 56L56 53ZM59 53L59 54L58 54L58 55L60 55L60 53ZM30 54L30 55L31 55L31 54ZM54 54L54 55L55 55L55 54ZM48 56L48 58L49 58L49 56ZM50 56L50 57L51 57L51 56ZM17 57L17 58L18 58L18 57ZM58 57L58 58L60 58L60 59L61 59L61 58L60 58L60 57ZM21 59L21 60L22 60L22 59ZM32 59L32 60L33 60L33 59ZM56 59L56 60L57 60L57 59ZM59 60L59 61L61 61L61 60ZM0 0L0 7L7 7L7 0ZM1 1L1 6L6 6L6 1ZM2 2L2 5L5 5L5 2ZM54 0L54 7L61 7L61 0ZM55 1L55 6L60 6L60 1ZM56 2L56 5L59 5L59 2ZM0 54L0 61L7 61L7 54ZM1 55L1 60L6 60L6 55ZM2 56L2 59L5 59L5 56Z" fill="#000000"/></g></g></svg>
