<?xml version="1.0" encoding="UTF-8"?>
<svg xmlns="http://www.w3.org/2000/svg" version="1.1" width="200" height="200" viewBox="0 0 200 200"><rect x="0" y="0" width="200" height="200" fill="#ffffff"/><g transform="scale(3.279)"><g transform="translate(0,0)"><path fill-rule="evenodd" d="M8 0L8 4L9 4L9 5L8 5L8 7L9 7L9 6L10 6L10 9L8 9L8 10L9 10L9 11L7 11L7 10L6 10L6 9L7 9L7 8L4 8L4 9L3 9L3 10L4 10L4 12L2 12L2 15L1 15L1 14L0 14L0 15L1 15L1 16L2 16L2 15L3 15L3 14L5 14L5 15L7 15L7 16L4 16L4 17L0 17L0 20L1 20L1 18L3 18L3 20L4 20L4 21L0 21L0 23L1 23L1 24L3 24L3 25L4 25L4 24L3 24L3 23L2 23L2 22L4 22L4 23L5 23L5 22L6 22L6 23L9 23L9 22L11 22L11 23L14 23L14 24L13 24L13 25L14 25L14 24L16 24L16 25L15 25L15 26L14 26L14 27L13 27L13 26L11 26L11 25L10 25L10 24L9 24L9 25L10 25L10 26L8 26L8 25L7 25L7 24L6 24L6 25L5 25L5 26L6 26L6 27L7 27L7 26L8 26L8 27L13 27L13 28L14 28L14 29L15 29L15 28L16 28L16 29L17 29L17 30L15 30L15 31L14 31L14 30L11 30L11 32L12 32L12 31L13 31L13 33L12 33L12 35L8 35L8 37L9 37L9 38L6 38L6 37L7 37L7 36L4 36L4 34L3 34L3 32L4 32L4 33L5 33L5 35L7 35L7 34L6 34L6 33L8 33L8 34L9 34L9 33L10 33L10 34L11 34L11 33L10 33L10 29L9 29L9 28L4 28L4 26L3 26L3 28L2 28L2 29L3 29L3 30L4 30L4 31L0 31L0 32L2 32L2 34L0 34L0 35L2 35L2 36L0 36L0 37L2 37L2 36L3 36L3 37L4 37L4 38L1 38L1 39L4 39L4 40L3 40L3 41L0 41L0 48L1 48L1 50L2 50L2 51L0 51L0 53L4 53L4 52L5 52L5 51L9 51L9 52L6 52L6 53L8 53L8 54L9 54L9 53L11 53L11 56L12 56L12 57L10 57L10 58L9 58L9 59L8 59L8 61L9 61L9 60L10 60L10 61L12 61L12 60L13 60L13 61L14 61L14 60L16 60L16 61L19 61L19 60L21 60L21 61L22 61L22 60L21 60L21 59L23 59L23 61L24 61L24 59L25 59L25 58L26 58L26 57L27 57L27 58L28 58L28 57L29 57L29 60L30 60L30 61L33 61L33 60L34 60L34 61L35 61L35 60L34 60L34 59L32 59L32 60L30 60L30 59L31 59L31 57L32 57L32 58L33 58L33 56L34 56L34 57L36 57L36 61L38 61L38 60L37 60L37 58L38 58L38 59L40 59L40 51L41 51L41 56L42 56L42 55L43 55L43 54L44 54L44 53L46 53L46 52L47 52L47 51L48 51L48 53L49 53L49 54L50 54L50 55L48 55L48 54L47 54L47 55L46 55L46 54L45 54L45 55L44 55L44 56L43 56L43 57L41 57L41 58L43 58L43 57L45 57L45 59L44 59L44 60L43 60L43 59L42 59L42 60L41 60L41 61L45 61L45 59L47 59L47 60L46 60L46 61L49 61L49 58L50 58L50 59L51 59L51 60L50 60L50 61L54 61L54 60L53 60L53 59L55 59L55 60L56 60L56 61L61 61L61 60L60 60L60 58L61 58L61 57L60 57L60 56L59 56L59 55L58 55L58 57L57 57L57 54L59 54L59 53L60 53L60 51L59 51L59 50L60 50L60 49L59 49L59 48L61 48L61 47L60 47L60 46L58 46L58 45L59 45L59 43L60 43L60 41L61 41L61 40L60 40L60 41L59 41L59 39L58 39L58 38L59 38L59 37L61 37L61 36L60 36L60 35L58 35L58 36L57 36L57 37L56 37L56 38L55 38L55 37L54 37L54 36L55 36L55 35L54 35L54 34L56 34L56 35L57 35L57 33L59 33L59 32L60 32L60 33L61 33L61 31L59 31L59 30L58 30L58 32L57 32L57 29L61 29L61 28L60 28L60 27L58 27L58 26L57 26L57 27L56 27L56 28L55 28L55 27L54 27L54 28L52 28L52 27L53 27L53 26L56 26L56 25L57 25L57 23L58 23L58 25L59 25L59 26L60 26L60 25L59 25L59 23L58 23L58 22L57 22L57 19L56 19L56 21L53 21L53 20L54 20L54 19L55 19L55 18L56 18L56 17L57 17L57 18L58 18L58 21L59 21L59 18L60 18L60 17L61 17L61 16L60 16L60 17L59 17L59 15L58 15L58 13L59 13L59 14L60 14L60 13L59 13L59 11L60 11L60 12L61 12L61 11L60 11L60 10L59 10L59 9L61 9L61 8L57 8L57 10L56 10L56 8L55 8L55 9L54 9L54 10L52 10L52 9L53 9L53 6L52 6L52 7L51 7L51 5L52 5L52 4L53 4L53 0L51 0L51 2L50 2L50 1L49 1L49 0L47 0L47 1L46 1L46 0L45 0L45 1L44 1L44 0L42 0L42 1L43 1L43 3L40 3L40 2L41 2L41 1L39 1L39 0L35 0L35 1L36 1L36 3L37 3L37 5L39 5L39 6L38 6L38 7L37 7L37 6L36 6L36 5L34 5L34 4L35 4L35 2L34 2L34 0L33 0L33 1L31 1L31 0L30 0L30 1L31 1L31 3L30 3L30 2L28 2L28 3L29 3L29 4L28 4L28 7L27 7L27 5L26 5L26 3L27 3L27 1L28 1L28 0L27 0L27 1L26 1L26 0L22 0L22 1L21 1L21 0L20 0L20 1L21 1L21 2L22 2L22 4L21 4L21 3L19 3L19 6L18 6L18 5L17 5L17 6L16 6L16 5L14 5L14 2L15 2L15 4L16 4L16 3L17 3L17 4L18 4L18 1L17 1L17 2L16 2L16 1L15 1L15 0L14 0L14 2L13 2L13 4L12 4L12 5L11 5L11 3L12 3L12 1L11 1L11 2L10 2L10 0ZM22 1L22 2L23 2L23 3L25 3L25 2L23 2L23 1ZM38 1L38 2L37 2L37 3L39 3L39 5L40 5L40 6L39 6L39 7L38 7L38 8L37 8L37 14L36 14L36 16L38 16L38 17L37 17L37 18L36 18L36 17L34 17L34 16L33 16L33 17L32 17L32 18L30 18L30 17L31 17L31 16L32 16L32 15L33 15L33 13L34 13L34 15L35 15L35 13L34 13L34 12L33 12L33 13L32 13L32 14L31 14L31 12L32 12L32 11L33 11L33 9L32 9L32 11L31 11L31 9L30 9L30 12L28 12L28 11L29 11L29 10L28 10L28 8L27 8L27 7L26 7L26 5L24 5L24 4L23 4L23 5L20 5L20 6L19 6L19 8L18 8L18 9L16 9L16 10L15 10L15 9L14 9L14 8L16 8L16 6L15 6L15 7L14 7L14 5L13 5L13 7L12 7L12 6L11 6L11 5L10 5L10 6L11 6L11 9L12 9L12 10L10 10L10 12L9 12L9 13L8 13L8 12L7 12L7 11L6 11L6 10L5 10L5 9L4 9L4 10L5 10L5 11L6 11L6 12L7 12L7 13L5 13L5 12L4 12L4 13L5 13L5 14L7 14L7 15L8 15L8 16L7 16L7 17L6 17L6 18L4 18L4 20L5 20L5 21L6 21L6 22L9 22L9 21L11 21L11 22L12 22L12 21L11 21L11 20L14 20L14 21L13 21L13 22L15 22L15 21L16 21L16 22L18 22L18 23L17 23L17 25L16 25L16 27L18 27L18 26L17 26L17 25L18 25L18 24L21 24L21 23L20 23L20 22L19 22L19 21L16 21L16 20L17 20L17 18L18 18L18 19L19 19L19 20L20 20L20 21L21 21L21 22L22 22L22 21L23 21L23 22L24 22L24 21L26 21L26 22L25 22L25 23L24 23L24 24L22 24L22 25L23 25L23 26L24 26L24 28L22 28L22 27L21 27L21 28L20 28L20 29L21 29L21 28L22 28L22 29L25 29L25 28L26 28L26 27L27 27L27 29L26 29L26 30L27 30L27 31L28 31L28 27L29 27L29 28L34 28L34 29L33 29L33 30L34 30L34 31L35 31L35 32L34 32L34 34L33 34L33 33L29 33L29 34L30 34L30 35L28 35L28 36L27 36L27 33L28 33L28 32L27 32L27 33L26 33L26 31L25 31L25 30L23 30L23 31L22 31L22 33L25 33L25 34L22 34L22 35L23 35L23 36L22 36L22 37L21 37L21 34L20 34L20 33L21 33L21 32L19 32L19 33L17 33L17 32L18 32L18 30L19 30L19 31L20 31L20 30L19 30L19 29L18 29L18 30L17 30L17 31L15 31L15 32L16 32L16 33L13 33L13 34L15 34L15 35L16 35L16 34L17 34L17 36L18 36L18 35L19 35L19 34L20 34L20 36L19 36L19 37L18 37L18 38L17 38L17 37L16 37L16 38L14 38L14 39L13 39L13 38L12 38L12 36L11 36L11 37L10 37L10 36L9 36L9 37L10 37L10 38L11 38L11 40L9 40L9 41L8 41L8 40L7 40L7 39L6 39L6 38L5 38L5 39L6 39L6 40L7 40L7 41L6 41L6 42L7 42L7 43L4 43L4 44L2 44L2 43L1 43L1 45L4 45L4 46L5 46L5 50L7 50L7 49L8 49L8 50L9 50L9 51L10 51L10 52L11 52L11 51L12 51L12 53L15 53L15 52L17 52L17 50L18 50L18 51L20 51L20 53L16 53L16 54L15 54L15 56L17 56L17 57L14 57L14 54L13 54L13 55L12 55L12 56L13 56L13 57L12 57L12 59L13 59L13 60L14 60L14 58L16 58L16 59L18 59L18 60L19 60L19 59L20 59L20 58L22 58L22 57L23 57L23 58L24 58L24 57L26 57L26 55L27 55L27 57L28 57L28 53L26 53L26 52L29 52L29 51L30 51L30 52L31 52L31 51L32 51L32 52L33 52L33 54L34 54L34 55L35 55L35 54L36 54L36 55L37 55L37 56L38 56L38 57L39 57L39 56L38 56L38 54L37 54L37 53L34 53L34 52L35 52L35 51L33 51L33 50L31 50L31 49L29 49L29 51L27 51L27 49L28 49L28 48L27 48L27 45L29 45L29 46L28 46L28 47L29 47L29 48L32 48L32 49L34 49L34 50L36 50L36 51L38 51L38 48L39 48L39 47L38 47L38 46L37 46L37 45L36 45L36 44L35 44L35 45L34 45L34 44L33 44L33 43L32 43L32 42L31 42L31 41L30 41L30 40L31 40L31 39L32 39L32 41L33 41L33 42L34 42L34 43L37 43L37 42L35 42L35 40L36 40L36 39L37 39L37 40L38 40L38 41L39 41L39 44L38 44L38 45L40 45L40 46L42 46L42 44L44 44L44 43L45 43L45 44L46 44L46 47L45 47L45 45L44 45L44 46L43 46L43 47L41 47L41 48L40 48L40 49L39 49L39 51L40 51L40 50L41 50L41 49L44 49L44 48L46 48L46 50L44 50L44 51L45 51L45 52L46 52L46 51L47 51L47 50L48 50L48 51L49 51L49 49L47 49L47 48L48 48L48 47L47 47L47 44L48 44L48 43L50 43L50 42L49 42L49 41L46 41L46 42L45 42L45 41L44 41L44 42L41 42L41 40L43 40L43 39L44 39L44 38L45 38L45 37L44 37L44 38L43 38L43 39L41 39L41 38L40 38L40 37L41 37L41 35L42 35L42 37L43 37L43 36L44 36L44 34L45 34L45 33L44 33L44 32L48 32L48 31L50 31L50 32L49 32L49 33L50 33L50 32L51 32L51 31L52 31L52 30L51 30L51 31L50 31L50 29L51 29L51 28L49 28L49 29L48 29L48 31L47 31L47 29L46 29L46 30L45 30L45 31L42 31L42 28L41 28L41 27L43 27L43 28L44 28L44 26L45 26L45 25L44 25L44 26L41 26L41 24L42 24L42 25L43 25L43 24L44 24L44 23L45 23L45 21L46 21L46 23L47 23L47 22L48 22L48 24L49 24L49 25L50 25L50 21L51 21L51 19L52 19L52 18L54 18L54 17L55 17L55 16L56 16L56 15L54 15L54 16L52 16L52 15L51 15L51 14L50 14L50 12L51 12L51 13L52 13L52 14L54 14L54 11L51 11L51 10L50 10L50 9L52 9L52 8L51 8L51 7L50 7L50 6L49 6L49 7L48 7L48 5L47 5L47 4L49 4L49 5L50 5L50 4L49 4L49 3L50 3L50 2L49 2L49 3L48 3L48 2L47 2L47 4L46 4L46 3L43 3L43 5L41 5L41 4L40 4L40 3L39 3L39 1ZM45 1L45 2L46 2L46 1ZM9 2L9 4L10 4L10 2ZM33 2L33 3L32 3L32 4L34 4L34 2ZM51 3L51 4L52 4L52 3ZM44 4L44 5L43 5L43 6L42 6L42 8L41 8L41 10L40 10L40 7L41 7L41 6L40 6L40 7L39 7L39 9L38 9L38 15L39 15L39 16L40 16L40 15L39 15L39 14L40 14L40 13L39 13L39 11L41 11L41 13L42 13L42 18L41 18L41 17L40 17L40 18L39 18L39 17L38 17L38 18L37 18L37 19L36 19L36 18L34 18L34 17L33 17L33 22L34 22L34 21L35 21L35 22L38 22L38 23L35 23L35 24L34 24L34 25L33 25L33 23L32 23L32 24L31 24L31 25L30 25L30 26L29 26L29 27L31 27L31 26L32 26L32 25L33 25L33 27L34 27L34 28L35 28L35 29L37 29L37 28L40 28L40 27L39 27L39 25L40 25L40 23L42 23L42 24L43 24L43 22L44 22L44 21L45 21L45 19L46 19L46 17L50 17L50 19L48 19L48 18L47 18L47 20L46 20L46 21L49 21L49 20L50 20L50 19L51 19L51 18L52 18L52 17L51 17L51 15L50 15L50 14L49 14L49 15L48 15L48 13L49 13L49 12L50 12L50 11L48 11L48 9L50 9L50 8L48 8L48 7L47 7L47 5L46 5L46 4ZM29 5L29 8L32 8L32 5ZM33 5L33 8L35 8L35 7L36 7L36 6L35 6L35 7L34 7L34 5ZM45 5L45 7L44 7L44 6L43 6L43 9L44 9L44 10L42 10L42 11L45 11L45 12L46 12L46 15L45 15L45 13L44 13L44 12L43 12L43 13L44 13L44 14L43 14L43 16L44 16L44 15L45 15L45 17L43 17L43 18L45 18L45 17L46 17L46 16L47 16L47 12L46 12L46 11L45 11L45 9L46 9L46 10L47 10L47 7L46 7L46 5ZM17 6L17 7L18 7L18 6ZM20 6L20 7L21 7L21 8L20 8L20 9L18 9L18 10L17 10L17 11L14 11L14 12L13 12L13 11L11 11L11 12L10 12L10 14L9 14L9 15L10 15L10 16L11 16L11 17L10 17L10 18L9 18L9 16L8 16L8 17L7 17L7 18L6 18L6 19L8 19L8 21L9 21L9 19L10 19L10 18L12 18L12 19L13 19L13 18L14 18L14 20L15 20L15 19L16 19L16 18L17 18L17 17L19 17L19 16L17 16L17 15L19 15L19 14L20 14L20 15L21 15L21 16L22 16L22 15L21 15L21 13L22 13L22 14L23 14L23 15L24 15L24 16L23 16L23 17L22 17L22 18L21 18L21 17L20 17L20 18L19 18L19 19L21 19L21 21L22 21L22 20L23 20L23 21L24 21L24 19L25 19L25 20L26 20L26 21L27 21L27 22L29 22L29 23L26 23L26 24L25 24L25 25L24 25L24 26L25 26L25 25L27 25L27 27L28 27L28 25L29 25L29 24L30 24L30 18L29 18L29 19L28 19L28 21L27 21L27 20L26 20L26 17L27 17L27 18L28 18L28 16L29 16L29 15L28 15L28 14L30 14L30 13L28 13L28 12L26 12L26 9L27 9L27 8L26 8L26 7L25 7L25 6L24 6L24 7L23 7L23 6L22 6L22 7L21 7L21 6ZM30 6L30 7L31 7L31 6ZM13 7L13 8L12 8L12 9L13 9L13 10L14 10L14 9L13 9L13 8L14 8L14 7ZM22 7L22 9L23 9L23 10L24 10L24 11L22 11L22 13L25 13L25 12L24 12L24 11L25 11L25 10L24 10L24 9L25 9L25 8L23 8L23 7ZM45 7L45 8L44 8L44 9L45 9L45 8L46 8L46 7ZM0 8L0 13L1 13L1 10L2 10L2 8ZM34 9L34 11L35 11L35 12L36 12L36 11L35 11L35 10L36 10L36 9ZM20 10L20 11L19 11L19 12L20 12L20 13L21 13L21 10ZM27 10L27 11L28 11L28 10ZM55 10L55 12L56 12L56 10ZM15 12L15 13L13 13L13 14L15 14L15 13L16 13L16 15L17 15L17 14L19 14L19 13L16 13L16 12ZM52 12L52 13L53 13L53 12ZM57 12L57 13L58 13L58 12ZM26 13L26 14L24 14L24 15L26 15L26 16L24 16L24 17L26 17L26 16L28 16L28 15L27 15L27 14L28 14L28 13ZM10 14L10 15L11 15L11 16L12 16L12 18L13 18L13 17L17 17L17 16L14 16L14 15L13 15L13 16L12 16L12 15L11 15L11 14ZM57 15L57 17L58 17L58 18L59 18L59 17L58 17L58 15ZM23 18L23 19L24 19L24 18ZM31 19L31 20L32 20L32 19ZM37 19L37 21L38 21L38 20L40 20L40 22L41 22L41 19ZM42 19L42 20L43 20L43 19ZM6 20L6 21L7 21L7 20ZM52 21L52 22L51 22L51 25L52 25L52 26L51 26L51 27L52 27L52 26L53 26L53 25L55 25L55 23L54 23L54 24L53 24L53 25L52 25L52 22L53 22L53 21ZM38 23L38 24L37 24L37 25L38 25L38 24L39 24L39 23ZM27 24L27 25L28 25L28 24ZM46 24L46 26L47 26L47 28L48 28L48 27L50 27L50 26L48 26L48 25L47 25L47 24ZM0 25L0 27L2 27L2 25ZM6 25L6 26L7 26L7 25ZM19 25L19 27L20 27L20 26L21 26L21 25ZM34 25L34 27L35 27L35 26L36 26L36 27L38 27L38 26L36 26L36 25ZM3 28L3 29L4 29L4 28ZM0 29L0 30L1 30L1 29ZM5 29L5 32L8 32L8 29ZM29 29L29 32L32 32L32 29ZM38 29L38 31L37 31L37 32L35 32L35 34L34 34L34 36L33 36L33 39L34 39L34 40L33 40L33 41L34 41L34 40L35 40L35 39L34 39L34 36L35 36L35 38L36 38L36 37L37 37L37 38L38 38L38 39L39 39L39 41L40 41L40 39L39 39L39 37L40 37L40 35L41 35L41 34L42 34L42 35L43 35L43 34L44 34L44 33L41 33L41 34L40 34L40 33L39 33L39 32L40 32L40 31L41 31L41 32L42 32L42 31L41 31L41 29L40 29L40 30L39 30L39 29ZM53 29L53 32L56 32L56 29ZM6 30L6 31L7 31L7 30ZM30 30L30 31L31 31L31 30ZM35 30L35 31L36 31L36 30ZM54 30L54 31L55 31L55 30ZM38 31L38 32L39 32L39 31ZM36 33L36 34L37 34L37 36L38 36L38 37L39 37L39 35L38 35L38 33ZM46 33L46 35L47 35L47 34L48 34L48 35L49 35L49 37L48 37L48 36L47 36L47 37L46 37L46 39L45 39L45 40L50 40L50 41L51 41L51 44L50 44L50 45L49 45L49 48L50 48L50 49L51 49L51 50L52 50L52 49L53 49L53 51L52 51L52 52L51 52L51 51L50 51L50 52L49 52L49 53L50 53L50 52L51 52L51 53L52 53L52 52L53 52L53 51L56 51L56 50L55 50L55 49L54 49L54 48L55 48L55 45L54 45L54 44L53 44L53 43L55 43L55 42L56 42L56 45L58 45L58 43L59 43L59 42L58 42L58 39L57 39L57 38L56 38L56 41L55 41L55 42L53 42L53 43L52 43L52 41L54 41L54 40L53 40L53 39L50 39L50 34L48 34L48 33ZM51 33L51 34L54 34L54 33ZM2 34L2 35L3 35L3 34ZM25 34L25 35L26 35L26 34ZM32 34L32 35L33 35L33 34ZM52 35L52 36L51 36L51 37L52 37L52 38L54 38L54 39L55 39L55 38L54 38L54 37L53 37L53 35ZM26 36L26 37L24 37L24 38L23 38L23 37L22 37L22 38L21 38L21 37L19 37L19 38L18 38L18 39L17 39L17 38L16 38L16 41L18 41L18 42L19 42L19 43L20 43L20 42L21 42L21 41L22 41L22 44L21 44L21 45L20 45L20 44L16 44L16 42L15 42L15 40L14 40L14 41L13 41L13 40L12 40L12 42L13 42L13 43L14 43L14 44L12 44L12 43L11 43L11 42L10 42L10 43L8 43L8 44L6 44L6 45L9 45L9 47L8 47L8 46L6 46L6 47L7 47L7 48L6 48L6 49L7 49L7 48L8 48L8 49L9 49L9 47L11 47L11 48L10 48L10 49L11 49L11 48L12 48L12 49L13 49L13 50L14 50L14 49L13 49L13 48L12 48L12 47L13 47L13 46L14 46L14 45L15 45L15 44L16 44L16 45L20 45L20 46L18 46L18 47L17 47L17 46L15 46L15 47L14 47L14 48L15 48L15 47L17 47L17 48L18 48L18 49L20 49L20 51L21 51L21 49L20 49L20 46L21 46L21 45L22 45L22 46L23 46L23 47L22 47L22 48L23 48L23 50L25 50L25 52L26 52L26 49L27 49L27 48L25 48L25 49L24 49L24 48L23 48L23 47L24 47L24 46L25 46L25 47L26 47L26 45L27 45L27 44L25 44L25 43L28 43L28 44L29 44L29 45L31 45L31 46L32 46L32 47L33 47L33 46L32 46L32 44L31 44L31 43L30 43L30 41L29 41L29 40L30 40L30 38L29 38L29 37L31 37L31 36L29 36L29 37L27 37L27 36ZM26 37L26 38L24 38L24 39L22 39L22 41L23 41L23 42L24 42L24 41L25 41L25 40L26 40L26 38L27 38L27 37ZM20 38L20 40L18 40L18 41L20 41L20 40L21 40L21 38ZM28 38L28 39L27 39L27 40L29 40L29 38ZM47 38L47 39L49 39L49 38ZM23 40L23 41L24 41L24 40ZM3 41L3 42L5 42L5 41ZM7 41L7 42L8 42L8 41ZM26 41L26 42L27 42L27 41ZM28 41L28 43L29 43L29 41ZM56 41L56 42L57 42L57 43L58 43L58 42L57 42L57 41ZM14 42L14 43L15 43L15 42ZM46 42L46 44L47 44L47 43L48 43L48 42ZM9 44L9 45L10 45L10 46L11 46L11 47L12 47L12 46L13 46L13 45L10 45L10 44ZM22 44L22 45L25 45L25 44ZM60 44L60 45L61 45L61 44ZM50 45L50 47L53 47L53 48L54 48L54 47L53 47L53 46L54 46L54 45ZM2 46L2 47L3 47L3 48L2 48L2 49L3 49L3 50L4 50L4 47L3 47L3 46ZM29 46L29 47L30 47L30 46ZM35 46L35 47L34 47L34 48L35 48L35 49L37 49L37 48L38 48L38 47L37 47L37 46ZM56 46L56 47L57 47L57 48L56 48L56 49L58 49L58 50L57 50L57 53L58 53L58 50L59 50L59 49L58 49L58 47L57 47L57 46ZM36 47L36 48L37 48L37 47ZM15 49L15 51L16 51L16 50L17 50L17 49ZM30 50L30 51L31 51L31 50ZM3 51L3 52L4 52L4 51ZM23 51L23 53L22 53L22 52L21 52L21 53L20 53L20 55L19 55L19 56L18 56L18 57L17 57L17 58L18 58L18 59L19 59L19 57L22 57L22 56L21 56L21 53L22 53L22 54L23 54L23 55L24 55L24 56L23 56L23 57L24 57L24 56L25 56L25 54L26 54L26 53L24 53L24 51ZM42 51L42 53L43 53L43 51ZM29 53L29 56L32 56L32 53ZM53 53L53 56L56 56L56 53ZM17 54L17 55L18 55L18 54ZM30 54L30 55L31 55L31 54ZM54 54L54 55L55 55L55 54ZM8 55L8 57L9 57L9 55ZM45 55L45 56L46 56L46 58L49 58L49 57L48 57L48 56L46 56L46 55ZM51 57L51 59L52 59L52 57ZM53 57L53 58L54 58L54 57ZM55 57L55 58L56 58L56 60L58 60L58 59L59 59L59 58L60 58L60 57L59 57L59 58L58 58L58 59L57 59L57 57ZM10 58L10 60L11 60L11 58ZM26 59L26 61L27 61L27 59ZM0 0L0 7L7 7L7 0ZM1 1L1 6L6 6L6 1ZM2 2L2 5L5 5L5 2ZM54 0L54 7L61 7L61 0ZM55 1L55 6L60 6L60 1ZM56 2L56 5L59 5L59 2ZM0 54L0 61L7 61L7 54ZM1 55L1 60L6 60L6 55ZM2 56L2 59L5 59L5 56Z" fill="#000000"/></g></g></svg>
