<?xml version="1.0" encoding="UTF-8"?>
<svg xmlns="http://www.w3.org/2000/svg" version="1.1" width="200" height="200" viewBox="0 0 200 200"><rect x="0" y="0" width="200" height="200" fill="#ffffff"/><g transform="scale(3.279)"><g transform="translate(0,0)"><path fill-rule="evenodd" d="M8 0L8 4L9 4L9 5L8 5L8 7L9 7L9 5L10 5L10 8L11 8L11 6L12 6L12 8L14 8L14 9L13 9L13 11L12 11L12 10L11 10L11 9L10 9L10 10L8 10L8 9L7 9L7 8L4 8L4 9L2 9L2 8L0 8L0 9L1 9L1 10L2 10L2 15L3 15L3 12L4 12L4 13L5 13L5 14L4 14L4 16L3 16L3 17L1 17L1 19L0 19L0 21L1 21L1 22L0 22L0 24L1 24L1 26L0 26L0 29L1 29L1 31L0 31L0 32L4 32L4 33L2 33L2 34L3 34L3 35L4 35L4 34L5 34L5 35L10 35L10 34L8 34L8 33L9 33L9 32L10 32L10 33L11 33L11 32L13 32L13 33L12 33L12 35L11 35L11 36L6 36L6 37L5 37L5 39L4 39L4 36L2 36L2 35L1 35L1 33L0 33L0 37L2 37L2 39L1 39L1 38L0 38L0 39L1 39L1 40L0 40L0 42L1 42L1 41L2 41L2 42L3 42L3 43L1 43L1 44L0 44L0 47L2 47L2 51L0 51L0 53L4 53L4 52L5 52L5 51L7 51L7 52L6 52L6 53L8 53L8 54L9 54L9 55L8 55L8 57L9 57L9 56L10 56L10 57L11 57L11 58L9 58L9 59L8 59L8 61L10 61L10 60L11 60L11 61L12 61L12 60L11 60L11 59L12 59L12 58L14 58L14 59L15 59L15 58L16 58L16 60L15 60L15 61L17 61L17 58L19 58L19 57L21 57L21 58L20 58L20 59L19 59L19 60L18 60L18 61L20 61L20 60L22 60L22 59L23 59L23 58L24 58L24 60L23 60L23 61L24 61L24 60L25 60L25 61L27 61L27 60L25 60L25 59L26 59L26 58L25 58L25 57L21 57L21 56L22 56L22 54L23 54L23 56L25 56L25 53L27 53L27 51L28 51L28 55L26 55L26 57L27 57L27 56L28 56L28 58L27 58L27 59L28 59L28 58L29 58L29 60L30 60L30 59L32 59L32 61L37 61L37 60L38 60L38 61L39 61L39 60L40 60L40 59L41 59L41 60L43 60L43 58L45 58L45 59L44 59L44 61L52 61L52 60L53 60L53 59L54 59L54 57L55 57L55 58L56 58L56 57L57 57L57 58L58 58L58 61L61 61L61 60L60 60L60 58L61 58L61 56L59 56L59 55L58 55L58 57L57 57L57 54L59 54L59 53L60 53L60 52L61 52L61 51L60 51L60 50L59 50L59 47L60 47L60 48L61 48L61 47L60 47L60 46L59 46L59 43L60 43L60 42L58 42L58 41L60 41L60 39L58 39L58 38L59 38L59 36L60 36L60 37L61 37L61 35L60 35L60 33L61 33L61 31L60 31L60 30L58 30L58 29L60 29L60 28L61 28L61 27L58 27L58 26L57 26L57 27L55 27L55 28L54 28L54 27L53 27L53 26L56 26L56 25L57 25L57 23L58 23L58 25L59 25L59 26L60 26L60 22L59 22L59 23L58 23L58 22L57 22L57 19L58 19L58 21L59 21L59 20L61 20L61 19L58 19L58 18L57 18L57 19L56 19L56 23L55 23L55 21L54 21L54 20L53 20L53 19L55 19L55 18L56 18L56 17L60 17L60 14L59 14L59 11L60 11L60 12L61 12L61 11L60 11L60 10L59 10L59 9L61 9L61 8L57 8L57 10L56 10L56 8L55 8L55 9L54 9L54 10L53 10L53 11L52 11L52 10L51 10L51 9L53 9L53 6L52 6L52 7L51 7L51 5L52 5L52 4L53 4L53 0L51 0L51 2L50 2L50 1L49 1L49 0L47 0L47 1L46 1L46 2L47 2L47 4L48 4L48 5L46 5L46 4L45 4L45 5L46 5L46 8L45 8L45 6L44 6L44 9L42 9L42 8L43 8L43 6L42 6L42 5L44 5L44 3L45 3L45 1L44 1L44 0L40 0L40 2L38 2L38 1L39 1L39 0L38 0L38 1L37 1L37 0L36 0L36 1L34 1L34 0L33 0L33 1L32 1L32 0L30 0L30 1L32 1L32 2L31 2L31 3L29 3L29 1L28 1L28 2L27 2L27 1L26 1L26 0L25 0L25 1L26 1L26 2L24 2L24 3L22 3L22 2L21 2L21 0L20 0L20 1L18 1L18 0L17 0L17 1L18 1L18 2L16 2L16 1L15 1L15 0L14 0L14 1L15 1L15 2L14 2L14 3L13 3L13 4L14 4L14 3L15 3L15 5L16 5L16 7L15 7L15 6L14 6L14 7L13 7L13 6L12 6L12 4L11 4L11 3L12 3L12 2L13 2L13 0ZM23 0L23 1L24 1L24 0ZM33 1L33 2L34 2L34 1ZM41 1L41 2L42 2L42 3L41 3L41 4L43 4L43 3L44 3L44 1ZM47 1L47 2L48 2L48 1ZM9 2L9 4L10 4L10 5L11 5L11 4L10 4L10 2ZM19 2L19 3L17 3L17 4L16 4L16 5L18 5L18 6L17 6L17 7L18 7L18 6L19 6L19 8L18 8L18 9L16 9L16 8L15 8L15 9L14 9L14 10L15 10L15 11L16 11L16 12L15 12L15 13L14 13L14 14L15 14L15 13L16 13L16 16L14 16L14 15L13 15L13 16L12 16L12 15L10 15L10 13L11 13L11 14L13 14L13 13L12 13L12 12L11 12L11 11L9 11L9 12L7 12L7 11L8 11L8 10L7 10L7 9L5 9L5 13L6 13L6 14L8 14L8 13L9 13L9 15L10 15L10 17L11 17L11 16L12 16L12 18L10 18L10 19L9 19L9 18L8 18L8 17L6 17L6 18L5 18L5 17L3 17L3 18L2 18L2 19L1 19L1 21L2 21L2 22L1 22L1 24L3 24L3 23L4 23L4 22L5 22L5 23L6 23L6 24L4 24L4 25L6 25L6 26L7 26L7 25L10 25L10 26L8 26L8 27L6 27L6 28L8 28L8 27L9 27L9 28L11 28L11 30L12 30L12 31L13 31L13 32L15 32L15 30L16 30L16 31L17 31L17 32L16 32L16 33L13 33L13 34L15 34L15 35L13 35L13 36L11 36L11 37L12 37L12 40L11 40L11 39L10 39L10 37L9 37L9 39L10 39L10 40L8 40L8 41L6 41L6 42L7 42L7 43L4 43L4 44L3 44L3 46L4 46L4 47L3 47L3 49L4 49L4 48L5 48L5 50L7 50L7 51L8 51L8 50L9 50L9 51L10 51L10 53L9 53L9 52L8 52L8 53L9 53L9 54L10 54L10 53L13 53L13 52L11 52L11 49L10 49L10 48L12 48L12 49L13 49L13 50L15 50L15 49L17 49L17 50L16 50L16 51L15 51L15 52L14 52L14 55L13 55L13 54L11 54L11 55L10 55L10 56L11 56L11 57L13 57L13 56L14 56L14 57L15 57L15 56L16 56L16 54L18 54L18 55L17 55L17 57L16 57L16 58L17 58L17 57L18 57L18 56L19 56L19 54L20 54L20 56L21 56L21 54L22 54L22 53L23 53L23 54L24 54L24 53L25 53L25 52L26 52L26 51L27 51L27 49L29 49L29 50L28 50L28 51L29 51L29 50L31 50L31 52L33 52L33 53L34 53L34 55L33 55L33 56L34 56L34 58L33 58L33 60L34 60L34 59L38 59L38 60L39 60L39 59L38 59L38 57L36 57L36 56L34 56L34 55L35 55L35 54L36 54L36 55L37 55L37 56L39 56L39 55L40 55L40 58L41 58L41 59L42 59L42 57L44 57L44 56L43 56L43 55L45 55L45 56L47 56L47 55L49 55L49 54L50 54L50 53L52 53L52 52L53 52L53 51L57 51L57 53L58 53L58 51L57 51L57 50L56 50L56 49L58 49L58 47L57 47L57 46L56 46L56 47L57 47L57 48L56 48L56 49L55 49L55 45L54 45L54 44L53 44L53 43L55 43L55 44L56 44L56 45L58 45L58 42L56 42L56 41L58 41L58 39L57 39L57 38L53 38L53 37L55 37L55 36L54 36L54 35L55 35L55 34L56 34L56 37L58 37L58 34L59 34L59 33L60 33L60 32L59 32L59 33L58 33L58 30L57 30L57 34L56 34L56 33L53 33L53 34L54 34L54 35L52 35L52 36L51 36L51 34L52 34L52 33L51 33L51 31L52 31L52 30L51 30L51 31L50 31L50 30L48 30L48 29L46 29L46 27L47 27L47 24L46 24L46 23L47 23L47 22L48 22L48 23L49 23L49 25L50 25L50 23L49 23L49 22L50 22L50 20L51 20L51 22L52 22L52 24L51 24L51 29L52 29L52 26L53 26L53 25L55 25L55 23L54 23L54 24L53 24L53 21L52 21L52 20L51 20L51 19L52 19L52 18L53 18L53 17L56 17L56 16L55 16L55 15L57 15L57 16L58 16L58 15L59 15L59 14L58 14L58 15L57 15L57 13L58 13L58 12L57 12L57 13L56 13L56 10L55 10L55 13L56 13L56 14L55 14L55 15L51 15L51 16L50 16L50 14L47 14L47 13L46 13L46 12L45 12L45 13L44 13L44 11L42 11L42 13L44 13L44 14L45 14L45 15L48 15L48 16L50 16L50 17L52 17L52 18L51 18L51 19L50 19L50 18L49 18L49 21L48 21L48 20L47 20L47 19L48 19L48 17L46 17L46 16L45 16L45 17L44 17L44 16L43 16L43 17L44 17L44 18L43 18L43 19L40 19L40 20L39 20L39 19L38 19L38 20L39 20L39 22L40 22L40 24L39 24L39 23L38 23L38 22L37 22L37 21L36 21L36 19L37 19L37 18L38 18L38 17L39 17L39 16L40 16L40 18L41 18L41 11L38 11L38 10L37 10L37 9L35 9L35 8L36 8L36 5L35 5L35 3L34 3L34 5L33 5L33 9L32 9L32 16L33 16L33 14L34 14L34 15L35 15L35 16L34 16L34 19L33 19L33 17L31 17L31 14L29 14L29 12L30 12L30 13L31 13L31 11L29 11L29 10L28 10L28 4L29 4L29 3L27 3L27 2L26 2L26 5L27 5L27 9L26 9L26 8L25 8L25 7L26 7L26 6L25 6L25 7L24 7L24 6L23 6L23 7L22 7L22 6L21 6L21 7L20 7L20 6L19 6L19 5L20 5L20 3L21 3L21 2ZM37 2L37 3L36 3L36 4L37 4L37 3L38 3L38 4L39 4L39 5L37 5L37 8L38 8L38 9L39 9L39 10L40 10L40 9L41 9L41 8L42 8L42 6L41 6L41 5L40 5L40 3L38 3L38 2ZM49 2L49 3L48 3L48 4L49 4L49 3L50 3L50 2ZM51 3L51 4L52 4L52 3ZM21 4L21 5L22 5L22 4ZM29 5L29 8L32 8L32 5ZM34 5L34 8L35 8L35 5ZM48 5L48 6L47 6L47 8L46 8L46 11L47 11L47 12L49 12L49 11L51 11L51 10L50 10L50 9L51 9L51 7L50 7L50 6L49 6L49 5ZM30 6L30 7L31 7L31 6ZM38 6L38 8L39 8L39 6ZM40 6L40 7L41 7L41 6ZM48 6L48 8L47 8L47 10L48 10L48 11L49 11L49 10L48 10L48 9L50 9L50 8L49 8L49 6ZM21 7L21 8L20 8L20 9L18 9L18 10L16 10L16 9L15 9L15 10L16 10L16 11L17 11L17 12L16 12L16 13L19 13L19 12L18 12L18 11L20 11L20 10L21 10L21 11L23 11L23 12L24 12L24 11L23 11L23 10L25 10L25 9L22 9L22 7ZM30 9L30 10L31 10L31 9ZM33 9L33 12L34 12L34 13L35 13L35 12L36 12L36 16L35 16L35 19L36 19L36 18L37 18L37 16L39 16L39 15L40 15L40 13L39 13L39 12L38 12L38 14L37 14L37 11L36 11L36 10L35 10L35 11L34 11L34 9ZM44 9L44 10L45 10L45 9ZM3 10L3 11L4 11L4 10ZM6 10L6 11L7 11L7 10ZM27 10L27 11L25 11L25 13L24 13L24 14L25 14L25 15L28 15L28 16L30 16L30 15L28 15L28 12L29 12L29 11L28 11L28 10ZM0 11L0 15L1 15L1 11ZM27 11L27 12L28 12L28 11ZM53 11L53 13L52 13L52 12L51 12L51 13L52 13L52 14L54 14L54 11ZM6 12L6 13L7 13L7 12ZM9 12L9 13L10 13L10 12ZM21 12L21 13L20 13L20 14L19 14L19 15L18 15L18 14L17 14L17 17L13 17L13 18L14 18L14 19L11 19L11 20L10 20L10 21L12 21L12 23L10 23L10 22L9 22L9 21L8 21L8 20L9 20L9 19L8 19L8 18L6 18L6 19L5 19L5 18L4 18L4 19L5 19L5 21L7 21L7 22L6 22L6 23L9 23L9 24L10 24L10 25L11 25L11 26L12 26L12 28L13 28L13 26L14 26L14 25L13 25L13 26L12 26L12 25L11 25L11 24L12 24L12 23L13 23L13 24L14 24L14 23L15 23L15 24L16 24L16 25L15 25L15 26L16 26L16 25L17 25L17 26L18 26L18 28L17 28L17 27L14 27L14 28L15 28L15 29L20 29L20 31L21 31L21 33L20 33L20 32L19 32L19 30L18 30L18 32L17 32L17 33L19 33L19 34L21 34L21 35L19 35L19 36L17 36L17 34L16 34L16 35L15 35L15 37L17 37L17 38L18 38L18 39L16 39L16 38L14 38L14 39L13 39L13 40L12 40L12 41L11 41L11 43L10 43L10 42L9 42L9 41L8 41L8 42L9 42L9 44L8 44L8 43L7 43L7 44L4 44L4 46L5 46L5 47L7 47L7 48L6 48L6 49L7 49L7 50L8 50L8 49L7 49L7 48L8 48L8 47L7 47L7 46L5 46L5 45L7 45L7 44L8 44L8 45L9 45L9 46L10 46L10 47L12 47L12 46L11 46L11 45L12 45L12 42L13 42L13 44L14 44L14 43L15 43L15 44L16 44L16 45L19 45L19 46L21 46L21 47L16 47L16 46L15 46L15 48L17 48L17 49L19 49L19 50L22 50L22 51L21 51L21 53L20 53L20 52L18 52L18 50L17 50L17 52L16 52L16 53L20 53L20 54L21 54L21 53L22 53L22 52L23 52L23 50L22 50L22 49L20 49L20 48L21 48L21 47L22 47L22 48L23 48L23 45L24 45L24 46L25 46L25 48L24 48L24 50L26 50L26 49L27 49L27 48L26 48L26 47L28 47L28 48L29 48L29 49L31 49L31 50L32 50L32 51L34 51L34 50L33 50L33 48L34 48L34 49L35 49L35 52L36 52L36 53L37 53L37 55L39 55L39 52L40 52L40 50L41 50L41 51L42 51L42 52L41 52L41 53L40 53L40 54L41 54L41 56L42 56L42 55L43 55L43 53L42 53L42 52L44 52L44 53L45 53L45 54L46 54L46 51L43 51L43 50L44 50L44 49L45 49L45 50L46 50L46 49L48 49L48 50L47 50L47 54L49 54L49 49L50 49L50 51L51 51L51 52L52 52L52 51L53 51L53 49L51 49L51 48L50 48L50 47L51 47L51 45L50 45L50 44L49 44L49 43L50 43L50 42L51 42L51 43L53 43L53 42L55 42L55 43L56 43L56 42L55 42L55 41L56 41L56 40L57 40L57 39L52 39L52 37L51 37L51 36L50 36L50 34L51 34L51 33L50 33L50 32L48 32L48 31L47 31L47 35L46 35L46 34L45 34L45 31L46 31L46 29L45 29L45 27L46 27L46 25L45 25L45 23L46 23L46 21L47 21L47 20L46 20L46 21L45 21L45 19L46 19L46 18L45 18L45 19L44 19L44 22L45 22L45 23L44 23L44 26L43 26L43 20L42 20L42 21L40 21L40 22L41 22L41 23L42 23L42 24L41 24L41 26L40 26L40 25L38 25L38 24L37 24L37 23L36 23L36 21L35 21L35 23L34 23L34 20L33 20L33 19L32 19L32 18L30 18L30 17L29 17L29 19L28 19L28 17L27 17L27 16L23 16L23 13L22 13L22 12ZM25 13L25 14L27 14L27 13ZM45 13L45 14L46 14L46 13ZM5 15L5 16L7 16L7 15ZM20 15L20 16L19 16L19 17L17 17L17 18L16 18L16 19L15 19L15 20L13 20L13 22L16 22L16 24L17 24L17 25L18 25L18 24L19 24L19 22L20 22L20 24L21 24L21 25L19 25L19 27L20 27L20 26L21 26L21 28L20 28L20 29L21 29L21 31L22 31L22 32L23 32L23 33L21 33L21 34L23 34L23 33L24 33L24 34L25 34L25 33L26 33L26 35L25 35L25 36L27 36L27 37L26 37L26 38L28 38L28 37L30 37L30 38L29 38L29 40L28 40L28 39L27 39L27 41L26 41L26 43L27 43L27 44L28 44L28 45L25 45L25 44L24 44L24 43L23 43L23 42L20 42L20 43L19 43L19 44L20 44L20 45L21 45L21 46L22 46L22 45L23 45L23 44L24 44L24 45L25 45L25 46L28 46L28 45L30 45L30 46L29 46L29 48L31 48L31 49L32 49L32 48L33 48L33 47L32 47L32 46L31 46L31 45L30 45L30 44L28 44L28 43L27 43L27 41L28 41L28 42L30 42L30 43L32 43L32 44L33 44L33 45L34 45L34 47L35 47L35 48L36 48L36 46L38 46L38 45L39 45L39 46L40 46L40 45L41 45L41 47L40 47L40 48L39 48L39 47L37 47L37 50L36 50L36 51L37 51L37 53L38 53L38 52L39 52L39 51L38 51L38 48L39 48L39 50L40 50L40 49L42 49L42 45L43 45L43 48L44 48L44 47L45 47L45 45L44 45L44 43L45 43L45 41L46 41L46 43L47 43L47 44L46 44L46 47L47 47L47 44L48 44L48 43L47 43L47 42L48 42L48 41L46 41L46 40L47 40L47 39L48 39L48 38L49 38L49 39L50 39L50 36L49 36L49 37L48 37L48 36L46 36L46 40L45 40L45 41L44 41L44 39L45 39L45 37L44 37L44 35L43 35L43 39L42 39L42 41L41 41L41 39L40 39L40 41L41 41L41 42L42 42L42 41L44 41L44 42L43 42L43 43L42 43L42 44L41 44L41 43L40 43L40 42L39 42L39 43L37 43L37 42L38 42L38 41L39 41L39 40L38 40L38 39L37 39L37 41L36 41L36 40L35 40L35 39L36 39L36 38L35 38L35 37L36 37L36 35L38 35L38 33L39 33L39 34L40 34L40 33L42 33L42 31L41 31L41 32L40 32L40 33L39 33L39 31L38 31L38 28L39 28L39 29L40 29L40 30L42 30L42 29L41 29L41 28L43 28L43 32L44 32L44 27L45 27L45 26L44 26L44 27L42 27L42 26L41 26L41 27L40 27L40 26L38 26L38 25L37 25L37 27L38 27L38 28L37 28L37 29L36 29L36 28L35 28L35 27L36 27L36 24L34 24L34 23L33 23L33 20L32 20L32 19L29 19L29 20L28 20L28 21L32 21L32 23L31 23L31 22L27 22L27 21L26 21L26 19L25 19L25 18L24 18L24 17L23 17L23 16L22 16L22 15ZM20 17L20 19L21 19L21 20L23 20L23 21L22 21L22 23L21 23L21 24L24 24L24 23L23 23L23 22L25 22L25 24L26 24L26 25L22 25L22 28L21 28L21 29L22 29L22 30L23 30L23 29L24 29L24 30L25 30L25 29L28 29L28 30L27 30L27 31L26 31L26 33L27 33L27 36L28 36L28 34L29 34L29 36L30 36L30 37L31 37L31 38L32 38L32 39L31 39L31 40L30 40L30 41L31 41L31 40L32 40L32 43L33 43L33 44L34 44L34 45L35 45L35 44L36 44L36 45L37 45L37 43L36 43L36 42L35 42L35 43L34 43L34 41L33 41L33 40L32 40L32 39L34 39L34 36L35 36L35 35L36 35L36 34L35 34L35 35L34 35L34 34L33 34L33 33L38 33L38 32L37 32L37 31L36 31L36 30L35 30L35 32L33 32L33 31L34 31L34 30L33 30L33 28L29 28L29 27L30 27L30 26L31 26L31 27L32 27L32 24L31 24L31 25L29 25L29 24L30 24L30 23L27 23L27 24L26 24L26 22L25 22L25 21L24 21L24 19L21 19L21 18L22 18L22 17ZM26 17L26 18L27 18L27 17ZM18 18L18 20L16 20L16 21L17 21L17 23L18 23L18 21L19 21L19 18ZM2 19L2 21L4 21L4 20L3 20L3 19ZM6 19L6 20L8 20L8 19ZM20 21L20 22L21 22L21 21ZM2 22L2 23L3 23L3 22ZM6 24L6 25L7 25L7 24ZM27 24L27 25L26 25L26 26L24 26L24 27L23 27L23 28L22 28L22 29L23 29L23 28L24 28L24 29L25 29L25 27L26 27L26 28L28 28L28 27L29 27L29 25L28 25L28 24ZM33 24L33 27L34 27L34 24ZM52 24L52 25L53 25L53 24ZM1 26L1 29L4 29L4 28L5 28L5 26ZM48 26L48 27L50 27L50 26ZM2 27L2 28L4 28L4 27ZM57 27L57 29L58 29L58 27ZM5 29L5 32L8 32L8 29ZM12 29L12 30L13 30L13 31L14 31L14 29ZM29 29L29 32L32 32L32 29ZM53 29L53 32L56 32L56 29ZM2 30L2 31L3 31L3 30ZM6 30L6 31L7 31L7 30ZM9 30L9 31L10 31L10 30ZM30 30L30 31L31 31L31 30ZM54 30L54 31L55 31L55 30ZM23 31L23 32L24 32L24 33L25 33L25 31ZM27 32L27 33L28 33L28 32ZM5 33L5 34L7 34L7 33ZM29 33L29 34L30 34L30 35L32 35L32 37L33 37L33 35L32 35L32 33ZM49 33L49 34L48 34L48 35L49 35L49 34L50 34L50 33ZM22 35L22 37L24 37L24 35ZM39 35L39 38L40 38L40 37L41 37L41 35ZM20 36L20 37L18 37L18 38L19 38L19 39L21 39L21 38L20 38L20 37L21 37L21 36ZM37 36L37 37L38 37L38 36ZM6 37L6 38L7 38L7 39L6 39L6 40L7 40L7 39L8 39L8 37ZM2 39L2 41L3 41L3 42L4 42L4 41L3 41L3 39ZM14 39L14 40L13 40L13 42L15 42L15 43L18 43L18 41L20 41L20 40L18 40L18 41L16 41L16 42L15 42L15 41L14 41L14 40L15 40L15 39ZM22 39L22 40L21 40L21 41L23 41L23 39ZM24 39L24 41L25 41L25 40L26 40L26 39ZM51 39L51 41L52 41L52 42L53 42L53 41L55 41L55 40L52 40L52 39ZM49 40L49 42L50 42L50 40ZM21 43L21 44L22 44L22 43ZM1 44L1 46L2 46L2 44ZM9 44L9 45L10 45L10 44ZM60 44L60 45L61 45L61 44ZM49 45L49 46L48 46L48 48L49 48L49 47L50 47L50 45ZM52 45L52 46L54 46L54 45ZM31 47L31 48L32 48L32 47ZM53 47L53 48L54 48L54 47ZM0 48L0 49L1 49L1 48ZM25 48L25 49L26 49L26 48ZM45 48L45 49L46 49L46 48ZM51 50L51 51L52 51L52 50ZM3 51L3 52L4 52L4 51ZM24 51L24 52L25 52L25 51ZM29 53L29 56L32 56L32 53ZM53 53L53 56L56 56L56 53ZM30 54L30 55L31 55L31 54ZM54 54L54 55L55 55L55 54ZM14 55L14 56L15 56L15 55ZM50 55L50 56L51 56L51 55ZM29 57L29 58L30 58L30 57ZM45 57L45 58L46 58L46 59L47 59L47 57ZM48 57L48 59L50 59L50 60L52 60L52 59L51 59L51 58L52 58L52 57L51 57L51 58L50 58L50 57ZM59 57L59 58L60 58L60 57ZM13 60L13 61L14 61L14 60ZM0 0L0 7L7 7L7 0ZM1 1L1 6L6 6L6 1ZM2 2L2 5L5 5L5 2ZM54 0L54 7L61 7L61 0ZM55 1L55 6L60 6L60 1ZM56 2L56 5L59 5L59 2ZM0 54L0 61L7 61L7 54ZM1 55L1 60L6 60L6 55ZM2 56L2 59L5 59L5 56Z" fill="#000000"/></g></g></svg>
