<?xml version="1.0" encoding="UTF-8"?>
<svg xmlns="http://www.w3.org/2000/svg" version="1.1" width="200" height="200" viewBox="0 0 200 200"><rect x="0" y="0" width="200" height="200" fill="#ffffff"/><g transform="scale(3.279)"><g transform="translate(0,0)"><path fill-rule="evenodd" d="M11 0L11 1L12 1L12 2L13 2L13 4L14 4L14 5L13 5L13 6L12 6L12 4L10 4L10 5L8 5L8 7L9 7L9 6L10 6L10 7L11 7L11 6L12 6L12 8L13 8L13 6L14 6L14 8L15 8L15 9L14 9L14 10L12 10L12 11L13 11L13 12L11 12L11 9L10 9L10 8L6 8L6 9L7 9L7 10L6 10L6 11L5 11L5 8L0 8L0 10L1 10L1 12L0 12L0 14L3 14L3 15L4 15L4 14L3 14L3 12L4 12L4 13L5 13L5 14L6 14L6 15L8 15L8 16L6 16L6 17L3 17L3 16L1 16L1 15L0 15L0 16L1 16L1 17L3 17L3 18L4 18L4 21L3 21L3 19L2 19L2 21L1 21L1 18L0 18L0 21L1 21L1 22L0 22L0 31L1 31L1 33L0 33L0 37L2 37L2 35L1 35L1 34L2 34L2 33L4 33L4 34L3 34L3 35L4 35L4 36L3 36L3 37L4 37L4 38L3 38L3 39L2 39L2 38L1 38L1 41L0 41L0 43L1 43L1 41L7 41L7 42L6 42L6 43L5 43L5 44L6 44L6 45L5 45L5 46L4 46L4 47L3 47L3 45L4 45L4 44L3 44L3 43L2 43L2 44L3 44L3 45L2 45L2 46L1 46L1 47L0 47L0 49L1 49L1 50L2 50L2 51L0 51L0 53L4 53L4 52L5 52L5 51L8 51L8 52L6 52L6 53L8 53L8 55L9 55L9 56L8 56L8 61L9 61L9 59L10 59L10 57L11 57L11 58L12 58L12 59L11 59L11 60L12 60L12 61L13 61L13 60L14 60L14 61L17 61L17 60L16 60L16 59L17 59L17 58L18 58L18 59L19 59L19 60L18 60L18 61L19 61L19 60L20 60L20 61L22 61L22 60L23 60L23 61L24 61L24 59L22 59L22 58L27 58L27 61L28 61L28 60L29 60L29 59L28 59L28 58L29 58L29 57L30 57L30 58L31 58L31 59L32 59L32 60L31 60L31 61L32 61L32 60L33 60L33 59L35 59L35 58L31 58L31 57L34 57L34 55L36 55L36 54L37 54L37 52L36 52L36 50L34 50L34 49L37 49L37 48L34 48L34 47L36 47L36 46L33 46L33 45L32 45L32 47L31 47L31 46L29 46L29 45L28 45L28 44L27 44L27 45L24 45L24 44L26 44L26 43L28 43L28 42L27 42L27 41L26 41L26 43L25 43L25 41L22 41L22 40L23 40L23 38L25 38L25 39L24 39L24 40L25 40L25 39L26 39L26 40L28 40L28 41L29 41L29 42L30 42L30 41L31 41L31 42L32 42L32 43L31 43L31 44L30 44L30 45L31 45L31 44L32 44L32 43L33 43L33 40L32 40L32 39L35 39L35 38L36 38L36 39L39 39L39 41L40 41L40 40L41 40L41 39L40 39L40 38L44 38L44 36L47 36L47 34L45 34L45 33L49 33L49 34L48 34L48 35L49 35L49 36L48 36L48 37L49 37L49 38L50 38L50 40L47 40L47 39L48 39L48 38L46 38L46 41L41 41L41 42L45 42L45 43L44 43L44 44L43 44L43 45L42 45L42 46L45 46L45 47L44 47L44 48L45 48L45 47L46 47L46 49L47 49L47 47L49 47L49 46L50 46L50 47L52 47L52 48L48 48L48 50L43 50L43 47L42 47L42 48L41 48L41 47L40 47L40 46L38 46L38 45L40 45L40 44L41 44L41 43L40 43L40 44L36 44L36 45L37 45L37 47L38 47L38 49L39 49L39 48L41 48L41 50L43 50L43 51L44 51L44 52L43 52L43 53L42 53L42 51L39 51L39 50L38 50L38 51L39 51L39 52L38 52L38 53L39 53L39 54L38 54L38 55L39 55L39 56L42 56L42 57L40 57L40 58L43 58L43 59L42 59L42 60L43 60L43 61L44 61L44 60L46 60L46 61L50 61L50 60L48 60L48 59L47 59L47 58L46 58L46 57L48 57L48 58L49 58L49 56L46 56L46 55L51 55L51 54L50 54L50 53L52 53L52 57L51 57L51 56L50 56L50 57L51 57L51 58L50 58L50 59L52 59L52 58L54 58L54 59L53 59L53 60L55 60L55 61L61 61L61 57L60 57L60 56L61 56L61 54L59 54L59 52L57 52L57 51L58 51L58 50L60 50L60 51L61 51L61 50L60 50L60 49L59 49L59 48L60 48L60 47L61 47L61 46L60 46L60 47L59 47L59 48L58 48L58 46L59 46L59 44L60 44L60 45L61 45L61 42L60 42L60 43L59 43L59 44L57 44L57 43L56 43L56 41L58 41L58 42L59 42L59 41L60 41L60 40L61 40L61 38L60 38L60 40L56 40L56 41L53 41L53 43L56 43L56 45L58 45L58 46L57 46L57 47L56 47L56 46L54 46L54 45L55 45L55 44L54 44L54 45L53 45L53 44L51 44L51 46L50 46L50 45L49 45L49 44L50 44L50 43L52 43L52 42L50 42L50 43L49 43L49 41L50 41L50 40L51 40L51 41L52 41L52 40L51 40L51 38L50 38L50 35L51 35L51 37L52 37L52 39L55 39L55 38L56 38L56 39L59 39L59 36L56 36L56 33L57 33L57 34L58 34L58 33L59 33L59 32L57 32L57 31L58 31L58 30L59 30L59 29L60 29L60 28L57 28L57 27L55 27L55 25L53 25L53 22L55 22L55 23L54 23L54 24L57 24L57 25L56 25L56 26L57 26L57 25L59 25L59 27L61 27L61 26L60 26L60 24L61 24L61 22L60 22L60 24L57 24L57 23L59 23L59 22L58 22L58 21L60 21L60 20L57 20L57 19L61 19L61 18L60 18L60 16L61 16L61 14L60 14L60 16L57 16L57 15L56 15L56 16L53 16L53 15L54 15L54 14L55 14L55 13L56 13L56 14L57 14L57 13L59 13L59 12L60 12L60 11L61 11L61 10L60 10L60 11L59 11L59 10L58 10L58 8L57 8L57 9L56 9L56 8L55 8L55 9L54 9L54 8L52 8L52 7L53 7L53 6L52 6L52 7L51 7L51 5L52 5L52 4L53 4L53 0L51 0L51 2L50 2L50 3L48 3L48 5L45 5L45 4L47 4L47 1L44 1L44 0L41 0L41 1L44 1L44 3L43 3L43 2L42 2L42 3L41 3L41 4L39 4L39 5L38 5L38 7L39 7L39 8L38 8L38 9L37 9L37 8L35 8L35 9L36 9L36 10L33 10L33 6L34 6L34 7L35 7L35 5L33 5L33 4L35 4L35 3L34 3L34 2L36 2L36 1L37 1L37 2L38 2L38 3L40 3L40 1L38 1L38 0L36 0L36 1L33 1L33 0L32 0L32 1L31 1L31 0L29 0L29 2L28 2L28 0L26 0L26 1L25 1L25 4L22 4L22 2L23 2L23 3L24 3L24 2L23 2L23 1L24 1L24 0L23 0L23 1L22 1L22 0L21 0L21 1L20 1L20 0L19 0L19 1L18 1L18 2L19 2L19 1L20 1L20 2L21 2L21 3L20 3L20 4L19 4L19 3L17 3L17 4L19 4L19 5L20 5L20 4L21 4L21 5L23 5L23 6L22 6L22 7L21 7L21 6L20 6L20 8L19 8L19 9L18 9L18 8L16 8L16 7L17 7L17 6L18 6L18 7L19 7L19 6L18 6L18 5L15 5L15 4L16 4L16 2L15 2L15 4L14 4L14 0ZM15 0L15 1L16 1L16 0ZM49 0L49 1L48 1L48 2L49 2L49 1L50 1L50 0ZM8 1L8 2L9 2L9 1ZM21 1L21 2L22 2L22 1ZM26 1L26 4L25 4L25 7L26 7L26 6L27 6L27 7L28 7L28 6L27 6L27 5L26 5L26 4L28 4L28 2L27 2L27 1ZM32 1L32 2L31 2L31 3L30 3L30 2L29 2L29 4L31 4L31 3L32 3L32 2L33 2L33 1ZM45 2L45 3L44 3L44 4L45 4L45 3L46 3L46 2ZM8 3L8 4L9 4L9 3ZM36 3L36 4L37 4L37 3ZM51 3L51 4L52 4L52 3ZM49 4L49 5L48 5L48 6L47 6L47 7L46 7L46 6L45 6L45 5L42 5L42 6L41 6L41 5L40 5L40 6L39 6L39 7L40 7L40 6L41 6L41 8L40 8L40 9L43 9L43 12L44 12L44 13L43 13L43 14L42 14L42 13L41 13L41 12L40 12L40 11L39 11L39 9L38 9L38 10L37 10L37 11L35 11L35 12L34 12L34 11L33 11L33 10L32 10L32 9L30 9L30 10L29 10L29 9L28 9L28 10L29 10L29 11L26 11L26 10L22 10L22 11L21 11L21 8L20 8L20 9L19 9L19 10L18 10L18 9L15 9L15 12L13 12L13 14L12 14L12 15L10 15L10 16L12 16L12 17L13 17L13 18L11 18L11 17L9 17L9 16L8 16L8 17L9 17L9 20L10 20L10 18L11 18L11 19L14 19L14 18L16 18L16 17L17 17L17 18L18 18L18 20L19 20L19 21L18 21L18 22L17 22L17 21L16 21L16 22L17 22L17 23L18 23L18 22L19 22L19 25L21 25L21 29L20 29L20 28L19 28L19 27L20 27L20 26L18 26L18 27L17 27L17 25L18 25L18 24L17 24L17 25L15 25L15 24L14 24L14 23L13 23L13 22L12 22L12 21L13 21L13 20L12 20L12 21L8 21L8 19L6 19L6 18L7 18L7 17L6 17L6 18L5 18L5 19L6 19L6 20L5 20L5 22L12 22L12 24L11 24L11 23L10 23L10 24L11 24L11 25L9 25L9 24L8 24L8 23L6 23L6 24L8 24L8 26L11 26L11 25L12 25L12 29L9 29L9 30L10 30L10 31L11 31L11 30L12 30L12 33L11 33L11 32L10 32L10 33L11 33L11 34L10 34L10 35L9 35L9 33L8 33L8 35L9 35L9 37L8 37L8 36L7 36L7 35L6 35L6 34L7 34L7 33L5 33L5 35L6 35L6 36L4 36L4 37L5 37L5 38L7 38L7 39L5 39L5 40L7 40L7 41L8 41L8 42L7 42L7 43L6 43L6 44L7 44L7 45L6 45L6 46L5 46L5 47L4 47L4 48L5 48L5 50L7 50L7 49L8 49L8 51L9 51L9 52L8 52L8 53L12 53L12 55L11 55L11 54L10 54L10 55L11 55L11 57L13 57L13 59L16 59L16 58L17 58L17 57L18 57L18 56L17 56L17 55L18 55L18 54L19 54L19 55L21 55L21 53L23 53L23 54L22 54L22 57L23 57L23 56L24 56L24 57L25 57L25 56L26 56L26 57L27 57L27 56L28 56L28 55L27 55L27 54L24 54L24 53L27 53L27 52L34 52L34 53L33 53L33 54L35 54L35 53L36 53L36 52L34 52L34 51L32 51L32 50L33 50L33 47L32 47L32 49L29 49L29 46L28 46L28 47L27 47L27 48L26 48L26 49L25 49L25 51L24 51L24 52L23 52L23 50L24 50L24 48L23 48L23 46L24 46L24 45L23 45L23 44L22 44L22 45L23 45L23 46L22 46L22 47L21 47L21 45L20 45L20 44L21 44L21 43L22 43L22 41L21 41L21 37L24 37L24 36L25 36L25 38L26 38L26 37L27 37L27 38L29 38L29 41L30 41L30 40L31 40L31 41L32 41L32 40L31 40L31 39L30 39L30 38L35 38L35 37L36 37L36 38L39 38L39 36L40 36L40 37L41 37L41 36L44 36L44 35L45 35L45 34L44 34L44 33L45 33L45 32L46 32L46 31L45 31L45 32L44 32L44 33L43 33L43 34L41 34L41 33L42 33L42 32L43 32L43 31L44 31L44 30L47 30L47 29L45 29L45 28L47 28L47 27L45 27L45 26L47 26L47 25L45 25L45 24L43 24L43 26L40 26L40 27L38 27L38 30L37 30L37 29L36 29L36 28L37 28L37 27L36 27L36 26L37 26L37 25L35 25L35 24L34 24L34 23L33 23L33 22L35 22L35 23L36 23L36 24L38 24L38 23L36 23L36 22L35 22L35 21L36 21L36 20L37 20L37 19L38 19L38 18L39 18L39 17L40 17L40 19L43 19L43 20L44 20L44 21L43 21L43 22L41 22L41 24L40 24L40 23L39 23L39 24L40 24L40 25L41 25L41 24L42 24L42 23L43 23L43 22L44 22L44 21L45 21L45 22L47 22L47 23L48 23L48 24L50 24L50 26L49 26L49 25L48 25L48 27L49 27L49 29L50 29L50 30L49 30L49 31L48 31L48 32L49 32L49 33L50 33L50 34L49 34L49 35L50 35L50 34L51 34L51 35L53 35L53 36L52 36L52 37L53 37L53 38L54 38L54 37L55 37L55 35L53 35L53 34L55 34L55 33L53 33L53 34L51 34L51 31L52 31L52 29L50 29L50 28L51 28L51 25L52 25L52 26L53 26L53 25L52 25L52 24L51 24L51 23L48 23L48 22L49 22L49 21L48 21L48 20L50 20L50 22L51 22L51 20L53 20L53 19L55 19L55 20L54 20L54 21L55 21L55 22L57 22L57 20L56 20L56 19L57 19L57 18L56 18L56 17L57 17L57 16L56 16L56 17L55 17L55 18L53 18L53 16L52 16L52 15L53 15L53 14L54 14L54 13L55 13L55 12L56 12L56 13L57 13L57 12L59 12L59 11L57 11L57 12L56 12L56 9L55 9L55 10L54 10L54 9L52 9L52 10L53 10L53 13L52 13L52 15L50 15L50 14L51 14L51 12L49 12L49 11L51 11L51 8L50 8L50 4ZM29 5L29 8L32 8L32 5ZM36 5L36 7L37 7L37 5ZM15 6L15 7L16 7L16 6ZM23 6L23 7L22 7L22 9L23 9L23 7L24 7L24 6ZM30 6L30 7L31 7L31 6ZM42 6L42 8L43 8L43 6ZM44 6L44 8L45 8L45 9L44 9L44 12L45 12L45 13L44 13L44 14L43 14L43 15L44 15L44 16L42 16L42 15L41 15L41 14L38 14L38 12L36 12L36 14L34 14L34 12L32 12L32 10L31 10L31 11L29 11L29 14L27 14L27 13L24 13L24 14L27 14L27 15L26 15L26 16L25 16L25 15L24 15L24 16L23 16L23 17L24 17L24 18L23 18L23 19L22 19L22 18L21 18L21 20L20 20L20 21L19 21L19 22L20 22L20 21L21 21L21 20L23 20L23 21L22 21L22 22L21 22L21 25L22 25L22 26L23 26L23 27L24 27L24 28L26 28L26 27L27 27L27 26L28 26L28 27L29 27L29 28L28 28L28 29L24 29L24 31L23 31L23 29L21 29L21 30L20 30L20 29L19 29L19 28L17 28L17 27L15 27L15 26L14 26L14 25L13 25L13 26L14 26L14 27L13 27L13 29L14 29L14 27L15 27L15 29L19 29L19 30L15 30L15 32L17 32L17 33L19 33L19 34L17 34L17 36L16 36L16 35L14 35L14 34L16 34L16 33L12 33L12 34L13 34L13 35L10 35L10 36L13 36L13 35L14 35L14 37L13 37L13 38L15 38L15 41L18 41L18 42L16 42L16 43L14 43L14 39L12 39L12 41L11 41L11 42L10 42L10 40L11 40L11 39L9 39L9 38L11 38L11 37L9 37L9 38L8 38L8 37L7 37L7 36L6 36L6 37L7 37L7 38L8 38L8 39L7 39L7 40L8 40L8 41L9 41L9 44L8 44L8 43L7 43L7 44L8 44L8 45L7 45L7 46L6 46L6 47L5 47L5 48L6 48L6 49L7 49L7 48L6 48L6 47L8 47L8 49L9 49L9 50L10 50L10 51L11 51L11 52L12 52L12 53L13 53L13 55L12 55L12 56L14 56L14 53L15 53L15 54L16 54L16 53L19 53L19 54L20 54L20 53L21 53L21 51L19 51L19 50L18 50L18 49L19 49L19 48L20 48L20 49L22 49L22 48L21 48L21 47L19 47L19 46L18 46L18 45L19 45L19 43L20 43L20 42L19 42L19 41L20 41L20 37L21 37L21 36L22 36L22 35L21 35L21 34L22 34L22 33L23 33L23 34L24 34L24 33L26 33L26 34L25 34L25 35L26 35L26 34L27 34L27 37L28 37L28 36L29 36L29 33L31 33L31 34L30 34L30 35L31 35L31 36L30 36L30 37L29 37L29 38L30 38L30 37L31 37L31 36L32 36L32 37L33 37L33 36L34 36L34 35L35 35L35 36L36 36L36 37L38 37L38 36L36 36L36 35L39 35L39 34L40 34L40 36L41 36L41 34L40 34L40 32L42 32L42 30L44 30L44 28L45 28L45 27L44 27L44 28L43 28L43 27L42 27L42 28L43 28L43 29L42 29L42 30L38 30L38 32L35 32L35 30L33 30L33 29L35 29L35 28L34 28L34 27L35 27L35 26L33 26L33 25L34 25L34 24L33 24L33 23L32 23L32 22L33 22L33 21L32 21L32 22L31 22L31 21L30 21L30 22L31 22L31 23L30 23L30 24L29 24L29 25L26 25L26 22L28 22L28 23L27 23L27 24L28 24L28 23L29 23L29 22L28 22L28 21L29 21L29 20L28 20L28 19L30 19L30 20L31 20L31 19L32 19L32 20L33 20L33 19L34 19L34 20L35 20L35 18L36 18L36 19L37 19L37 18L38 18L38 17L39 17L39 16L40 16L40 15L41 15L41 16L42 16L42 17L41 17L41 18L43 18L43 19L44 19L44 20L46 20L46 19L47 19L47 18L45 18L45 17L44 17L44 16L45 16L45 13L47 13L47 14L46 14L46 15L47 15L47 17L48 17L48 19L50 19L50 17L52 17L52 16L50 16L50 17L49 17L49 16L48 16L48 13L49 13L49 12L46 12L46 11L49 11L49 10L50 10L50 9L49 9L49 8L47 8L47 10L45 10L45 9L46 9L46 8L45 8L45 6ZM48 6L48 7L49 7L49 6ZM24 8L24 9L25 9L25 8ZM26 8L26 9L27 9L27 8ZM59 8L59 9L60 9L60 8ZM2 9L2 11L3 11L3 10L4 10L4 9ZM8 9L8 10L7 10L7 11L6 11L6 12L5 12L5 11L4 11L4 12L5 12L5 13L6 13L6 14L7 14L7 13L6 13L6 12L7 12L7 11L8 11L8 10L9 10L9 9ZM16 10L16 13L19 13L19 16L18 16L18 14L15 14L15 13L14 13L14 14L13 14L13 15L14 15L14 16L13 16L13 17L16 17L16 16L17 16L17 17L19 17L19 18L20 18L20 17L22 17L22 16L20 16L20 15L22 15L22 14L23 14L23 13L22 13L22 14L20 14L20 13L21 13L21 12L18 12L18 10ZM19 10L19 11L20 11L20 10ZM41 10L41 11L42 11L42 10ZM9 11L9 12L8 12L8 13L9 13L9 14L8 14L8 15L9 15L9 14L11 14L11 13L10 13L10 11ZM22 11L22 12L24 12L24 11ZM54 11L54 12L55 12L55 11ZM30 12L30 13L31 13L31 14L32 14L32 16L30 16L30 15L27 15L27 16L26 16L26 17L25 17L25 18L26 18L26 17L27 17L27 18L29 18L29 17L31 17L31 18L32 18L32 19L33 19L33 18L35 18L35 16L37 16L37 17L38 17L38 15L37 15L37 14L36 14L36 15L34 15L34 16L33 16L33 14L32 14L32 12ZM39 12L39 13L40 13L40 12ZM15 15L15 16L16 16L16 15ZM27 16L27 17L28 17L28 16ZM32 17L32 18L33 18L33 17ZM43 17L43 18L44 18L44 19L45 19L45 18L44 18L44 17ZM58 17L58 18L59 18L59 17ZM52 18L52 19L53 19L53 18ZM55 18L55 19L56 19L56 18ZM15 19L15 20L16 20L16 19ZM23 19L23 20L24 20L24 21L25 21L25 20L26 20L26 21L27 21L27 20L26 20L26 19L25 19L25 20L24 20L24 19ZM6 20L6 21L7 21L7 20ZM38 20L38 21L37 21L37 22L39 22L39 20ZM40 20L40 21L42 21L42 20ZM2 21L2 22L3 22L3 23L4 23L4 24L2 24L2 23L1 23L1 25L4 25L4 26L3 26L3 27L2 27L2 28L1 28L1 29L2 29L2 31L3 31L3 32L4 32L4 30L3 30L3 27L5 27L5 28L8 28L8 27L5 27L5 23L4 23L4 22L3 22L3 21ZM14 21L14 22L15 22L15 21ZM52 21L52 22L53 22L53 21ZM22 22L22 23L23 23L23 24L22 24L22 25L25 25L25 27L26 27L26 25L25 25L25 24L24 24L24 23L23 23L23 22ZM30 24L30 25L31 25L31 26L32 26L32 27L31 27L31 28L33 28L33 26L32 26L32 25L31 25L31 24ZM6 25L6 26L7 26L7 25ZM38 25L38 26L39 26L39 25ZM44 25L44 26L45 26L45 25ZM29 26L29 27L30 27L30 26ZM10 27L10 28L11 28L11 27ZM40 27L40 28L39 28L39 29L40 29L40 28L41 28L41 27ZM52 27L52 28L55 28L55 27ZM5 29L5 32L8 32L8 29ZM29 29L29 32L32 32L32 29ZM53 29L53 32L56 32L56 29ZM57 29L57 30L58 30L58 29ZM6 30L6 31L7 31L7 30ZM13 30L13 31L14 31L14 30ZM19 30L19 31L17 31L17 32L21 32L21 33L20 33L20 34L19 34L19 36L21 36L21 35L20 35L20 34L21 34L21 33L22 33L22 32L21 32L21 31L22 31L22 30L21 30L21 31L20 31L20 30ZM30 30L30 31L31 31L31 30ZM36 30L36 31L37 31L37 30ZM50 30L50 31L49 31L49 32L50 32L50 31L51 31L51 30ZM54 30L54 31L55 31L55 30ZM60 30L60 31L61 31L61 30ZM26 31L26 33L27 33L27 34L28 34L28 33L27 33L27 31ZM33 31L33 32L34 32L34 31ZM23 32L23 33L24 33L24 32ZM38 32L38 34L39 34L39 32ZM60 32L60 33L61 33L61 32ZM32 33L32 34L31 34L31 35L32 35L32 36L33 36L33 35L32 35L32 34L33 34L33 33ZM34 33L34 34L35 34L35 33ZM36 33L36 34L37 34L37 33ZM59 34L59 35L61 35L61 34ZM23 35L23 36L24 36L24 35ZM15 36L15 37L16 37L16 38L17 38L17 37L16 37L16 36ZM53 36L53 37L54 37L54 36ZM18 37L18 39L16 39L16 40L18 40L18 41L19 41L19 37ZM56 37L56 38L58 38L58 37ZM3 39L3 40L4 40L4 39ZM42 39L42 40L43 40L43 39ZM44 39L44 40L45 40L45 39ZM36 40L36 42L34 42L34 43L36 43L36 42L38 42L38 43L39 43L39 42L38 42L38 41L37 41L37 40ZM46 41L46 42L47 42L47 43L46 43L46 44L44 44L44 45L45 45L45 46L48 46L48 45L47 45L47 44L49 44L49 43L48 43L48 42L47 42L47 41ZM11 42L11 43L10 43L10 44L11 44L11 45L12 45L12 46L13 46L13 47L12 47L12 48L11 48L11 46L10 46L10 45L9 45L9 49L13 49L13 48L15 48L15 46L13 46L13 44L14 44L14 45L16 45L16 46L17 46L17 45L18 45L18 44L17 44L17 43L16 43L16 44L14 44L14 43L13 43L13 44L12 44L12 42ZM23 42L23 43L24 43L24 42ZM16 44L16 45L17 45L17 44ZM34 44L34 45L35 45L35 44ZM52 46L52 47L53 47L53 48L54 48L54 49L53 49L53 50L52 50L52 51L53 51L53 50L55 50L55 51L54 51L54 52L55 52L55 51L57 51L57 50L58 50L58 49L56 49L56 48L54 48L54 47L53 47L53 46ZM1 47L1 48L2 48L2 50L4 50L4 49L3 49L3 47ZM16 47L16 49L15 49L15 50L16 50L16 49L17 49L17 47ZM27 48L27 49L26 49L26 50L27 50L27 51L26 51L26 52L27 52L27 51L29 51L29 49L28 49L28 48ZM27 49L27 50L28 50L28 49ZM50 49L50 50L48 50L48 51L46 51L46 52L44 52L44 53L45 53L45 54L41 54L41 55L46 55L46 54L47 54L47 53L46 53L46 52L51 52L51 51L50 51L50 50L51 50L51 49ZM55 49L55 50L56 50L56 49ZM12 50L12 51L13 51L13 52L14 52L14 51L13 51L13 50ZM17 50L17 52L18 52L18 50ZM3 51L3 52L4 52L4 51ZM15 51L15 52L16 52L16 51ZM19 52L19 53L20 53L20 52ZM40 52L40 53L41 53L41 52ZM60 52L60 53L61 53L61 52ZM29 53L29 56L32 56L32 53ZM53 53L53 56L56 56L56 53ZM57 53L57 56L60 56L60 55L58 55L58 53ZM30 54L30 55L31 55L31 54ZM39 54L39 55L40 55L40 54ZM54 54L54 55L55 55L55 54ZM26 55L26 56L27 56L27 55ZM16 56L16 57L17 57L17 56ZM19 56L19 57L21 57L21 56ZM36 56L36 57L37 57L37 58L36 58L36 59L37 59L37 60L35 60L35 61L38 61L38 59L39 59L39 58L38 58L38 56ZM44 56L44 58L45 58L45 56ZM54 57L54 58L55 58L55 60L60 60L60 57L58 57L58 58L56 58L56 57ZM19 58L19 59L20 59L20 58ZM37 58L37 59L38 59L38 58ZM25 59L25 60L26 60L26 59ZM40 59L40 60L39 60L39 61L40 61L40 60L41 60L41 59ZM43 59L43 60L44 60L44 59ZM46 59L46 60L47 60L47 59ZM0 0L0 7L7 7L7 0ZM1 1L1 6L6 6L6 1ZM2 2L2 5L5 5L5 2ZM54 0L54 7L61 7L61 0ZM55 1L55 6L60 6L60 1ZM56 2L56 5L59 5L59 2ZM0 54L0 61L7 61L7 54ZM1 55L1 60L6 60L6 55ZM2 56L2 59L5 59L5 56Z" fill="#000000"/></g></g></svg>
