<?xml version="1.0" encoding="UTF-8"?>
<svg xmlns="http://www.w3.org/2000/svg" version="1.1" width="200" height="200" viewBox="0 0 200 200"><rect x="0" y="0" width="200" height="200" fill="#ffffff"/><g transform="scale(3.279)"><g transform="translate(0,0)"><path fill-rule="evenodd" d="M11 0L11 1L12 1L12 0ZM15 0L15 1L13 1L13 2L14 2L14 3L13 3L13 5L12 5L12 4L11 4L11 3L12 3L12 2L11 2L11 3L10 3L10 1L8 1L8 2L9 2L9 3L8 3L8 4L9 4L9 3L10 3L10 7L9 7L9 5L8 5L8 7L9 7L9 8L6 8L6 9L5 9L5 8L0 8L0 11L1 11L1 12L0 12L0 13L4 13L4 12L5 12L5 14L0 14L0 15L3 15L3 16L1 16L1 17L0 17L0 18L1 18L1 19L2 19L2 18L4 18L4 16L5 16L5 17L7 17L7 16L8 16L8 18L5 18L5 20L0 20L0 21L2 21L2 22L3 22L3 23L1 23L1 22L0 22L0 26L1 26L1 27L0 27L0 28L1 28L1 27L2 27L2 28L4 28L4 32L3 32L3 33L2 33L2 31L3 31L3 29L1 29L1 30L2 30L2 31L0 31L0 32L1 32L1 34L2 34L2 35L0 35L0 36L1 36L1 37L2 37L2 39L5 39L5 37L7 37L7 38L6 38L6 39L7 39L7 40L6 40L6 41L8 41L8 42L5 42L5 40L4 40L4 46L0 46L0 47L2 47L2 48L0 48L0 50L2 50L2 51L0 51L0 53L4 53L4 52L5 52L5 51L7 51L7 50L8 50L8 51L10 51L10 50L11 50L11 52L12 52L12 53L9 53L9 52L6 52L6 53L8 53L8 55L9 55L9 56L8 56L8 61L10 61L10 59L11 59L11 60L13 60L13 59L14 59L14 56L13 56L13 55L14 55L14 54L15 54L15 56L16 56L16 57L17 57L17 60L16 60L16 61L17 61L17 60L18 60L18 61L19 61L19 59L20 59L20 61L21 61L21 59L20 59L20 57L22 57L22 58L23 58L23 61L24 61L24 58L25 58L25 59L26 59L26 60L27 60L27 61L28 61L28 60L29 60L29 57L30 57L30 58L32 58L32 57L33 57L33 52L34 52L34 50L32 50L32 49L31 49L31 48L32 48L32 47L33 47L33 49L36 49L36 50L35 50L35 51L36 51L36 50L37 50L37 51L40 51L40 52L41 52L41 51L40 51L40 50L43 50L43 51L42 51L42 52L43 52L43 53L41 53L41 54L42 54L42 55L43 55L43 54L45 54L45 53L44 53L44 52L47 52L47 50L48 50L48 51L49 51L49 52L48 52L48 53L49 53L49 54L50 54L50 55L51 55L51 57L52 57L52 58L51 58L51 61L52 61L52 60L55 60L55 61L61 61L61 54L59 54L59 53L60 53L60 52L58 52L58 55L59 55L59 56L57 56L57 52L53 52L53 51L55 51L55 50L56 50L56 51L57 51L57 50L56 50L56 49L61 49L61 46L59 46L59 48L57 48L57 47L56 47L56 46L55 46L55 44L53 44L53 42L54 42L54 43L56 43L56 41L60 41L60 42L59 42L59 44L56 44L56 45L59 45L59 44L60 44L60 45L61 45L61 41L60 41L60 40L61 40L61 38L59 38L59 36L57 36L57 35L59 35L59 34L60 34L60 35L61 35L61 34L60 34L60 32L58 32L58 33L57 33L57 30L58 30L58 31L59 31L59 30L58 30L58 29L59 29L59 28L57 28L57 27L60 27L60 29L61 29L61 26L60 26L60 24L61 24L61 22L60 22L60 24L57 24L57 23L59 23L59 22L58 22L58 21L59 21L59 20L58 20L58 18L59 18L59 17L58 17L58 16L57 16L57 15L59 15L59 14L58 14L58 13L59 13L59 12L60 12L60 11L61 11L61 10L60 10L60 11L59 11L59 12L58 12L58 10L59 10L59 9L60 9L60 8L59 8L59 9L58 9L58 8L57 8L57 9L56 9L56 8L55 8L55 9L54 9L54 8L52 8L52 7L53 7L53 6L52 6L52 7L51 7L51 5L52 5L52 4L53 4L53 0L51 0L51 2L50 2L50 1L48 1L48 2L50 2L50 3L47 3L47 1L46 1L46 0L45 0L45 2L44 2L44 3L43 3L43 2L41 2L41 1L44 1L44 0L39 0L39 1L38 1L38 0L35 0L35 1L34 1L34 0L32 0L32 1L31 1L31 0L30 0L30 1L31 1L31 2L29 2L29 1L28 1L28 0L26 0L26 1L25 1L25 0L21 0L21 3L20 3L20 4L19 4L19 1L20 1L20 0L19 0L19 1L18 1L18 0L17 0L17 2L16 2L16 3L15 3L15 1L16 1L16 0ZM22 1L22 2L23 2L23 3L22 3L22 4L28 4L28 3L29 3L29 4L31 4L31 3L29 3L29 2L28 2L28 3L27 3L27 1L26 1L26 3L24 3L24 2L23 2L23 1ZM32 1L32 2L33 2L33 1ZM37 1L37 2L34 2L34 3L33 3L33 5L35 5L35 7L34 7L34 6L33 6L33 8L34 8L34 9L33 9L33 10L32 10L32 9L29 9L29 11L27 11L27 10L25 10L25 11L26 11L26 12L24 12L24 11L23 11L23 10L22 10L22 9L25 9L25 8L24 8L24 6L25 6L25 7L26 7L26 6L27 6L27 8L26 8L26 9L27 9L27 8L28 8L28 6L27 6L27 5L23 5L23 8L21 8L21 7L22 7L22 5L21 5L21 4L20 4L20 5L19 5L19 4L15 4L15 3L14 3L14 4L15 4L15 8L14 8L14 9L13 9L13 8L12 8L12 9L11 9L11 7L12 7L12 5L11 5L11 7L10 7L10 9L8 9L8 10L7 10L7 9L6 9L6 10L7 10L7 11L5 11L5 12L9 12L9 11L8 11L8 10L12 10L12 12L13 12L13 11L17 11L17 12L18 12L18 11L19 11L19 13L15 13L15 12L14 12L14 13L15 13L15 14L17 14L17 16L19 16L19 15L20 15L20 16L21 16L21 17L20 17L20 18L19 18L19 17L16 17L16 16L15 16L15 17L13 17L13 16L14 16L14 15L13 15L13 14L9 14L9 15L8 15L8 13L6 13L6 14L7 14L7 15L6 15L6 16L7 16L7 15L8 15L8 16L9 16L9 15L11 15L11 16L10 16L10 17L9 17L9 18L10 18L10 19L6 19L6 20L5 20L5 21L3 21L3 22L5 22L5 27L6 27L6 28L9 28L9 27L10 27L10 26L9 26L9 25L11 25L11 22L12 22L12 23L13 23L13 20L14 20L14 21L15 21L15 22L14 22L14 23L16 23L16 24L17 24L17 23L18 23L18 22L19 22L19 21L18 21L18 22L17 22L17 21L16 21L16 20L21 20L21 19L22 19L22 21L23 21L23 22L21 22L21 21L20 21L20 24L21 24L21 23L22 23L22 25L25 25L25 27L26 27L26 28L24 28L24 29L23 29L23 28L21 28L21 27L22 27L22 26L21 26L21 25L18 25L18 28L19 28L19 29L16 29L16 28L17 28L17 27L16 27L16 26L17 26L17 25L15 25L15 24L13 24L13 25L12 25L12 26L11 26L11 27L12 27L12 28L10 28L10 29L11 29L11 30L10 30L10 32L9 32L9 33L6 33L6 34L5 34L5 33L4 33L4 35L3 35L3 38L4 38L4 35L6 35L6 36L7 36L7 37L10 37L10 39L9 39L9 38L7 38L7 39L9 39L9 41L10 41L10 40L12 40L12 42L13 42L13 41L14 41L14 40L15 40L15 43L16 43L16 44L19 44L19 45L16 45L16 46L19 46L19 45L20 45L20 46L21 46L21 47L16 47L16 48L19 48L19 49L14 49L14 52L13 52L13 53L12 53L12 55L13 55L13 53L14 53L14 52L17 52L17 53L16 53L16 54L17 54L17 55L18 55L18 56L19 56L19 57L18 57L18 58L19 58L19 57L20 57L20 56L21 56L21 53L23 53L23 56L22 56L22 57L25 57L25 58L26 58L26 59L27 59L27 60L28 60L28 59L27 59L27 58L26 58L26 57L27 57L27 56L26 56L26 55L28 55L28 54L25 54L25 55L24 55L24 53L28 53L28 52L31 52L31 51L32 51L32 52L33 52L33 51L32 51L32 50L31 50L31 49L29 49L29 48L31 48L31 47L32 47L32 46L37 46L37 47L34 47L34 48L37 48L37 47L38 47L38 46L39 46L39 44L40 44L40 45L41 45L41 46L40 46L40 47L39 47L39 49L38 49L38 50L39 50L39 49L42 49L42 48L41 48L41 46L42 46L42 47L43 47L43 48L44 48L44 49L43 49L43 50L44 50L44 51L46 51L46 50L47 50L47 47L48 47L48 46L47 46L47 44L46 44L46 43L45 43L45 40L44 40L44 39L45 39L45 38L47 38L47 40L49 40L49 39L48 39L48 38L49 38L49 37L48 37L48 36L51 36L51 35L50 35L50 34L51 34L51 33L52 33L52 32L49 32L49 33L45 33L45 32L44 32L44 31L45 31L45 30L48 30L48 29L47 29L47 28L49 28L49 31L50 31L50 30L51 30L51 31L52 31L52 29L51 29L51 28L54 28L54 27L53 27L53 25L55 25L55 27L57 27L57 26L56 26L56 25L57 25L57 24L54 24L54 23L56 23L56 22L57 22L57 20L56 20L56 18L58 18L58 17L57 17L57 16L56 16L56 18L53 18L53 17L55 17L55 16L52 16L52 15L55 15L55 14L54 14L54 12L55 12L55 11L56 11L56 9L55 9L55 10L54 10L54 9L52 9L52 10L53 10L53 11L52 11L52 12L53 12L53 13L51 13L51 12L49 12L49 15L47 15L47 16L46 16L46 15L45 15L45 16L44 16L44 14L47 14L47 11L46 11L46 12L44 12L44 11L43 11L43 10L42 10L42 11L41 11L41 12L40 12L40 10L41 10L41 8L40 8L40 10L39 10L39 9L38 9L38 8L39 8L39 7L40 7L40 6L41 6L41 7L42 7L42 8L44 8L44 9L46 9L46 10L48 10L48 11L51 11L51 9L50 9L50 10L48 10L48 9L47 9L47 8L50 8L50 6L49 6L49 7L48 7L48 5L49 5L49 4L46 4L46 2L45 2L45 3L44 3L44 4L43 4L43 5L42 5L42 4L41 4L41 3L38 3L38 1ZM34 3L34 4L35 4L35 5L36 5L36 7L35 7L35 9L37 9L37 10L36 10L36 11L37 11L37 12L34 12L34 11L35 11L35 10L33 10L33 11L32 11L32 10L30 10L30 11L29 11L29 12L31 12L31 13L32 13L32 14L31 14L31 15L30 15L30 16L31 16L31 19L29 19L29 18L30 18L30 17L28 17L28 16L27 16L27 17L26 17L26 18L27 18L27 20L28 20L28 19L29 19L29 20L31 20L31 21L28 21L28 23L27 23L27 25L26 25L26 22L27 22L27 21L24 21L24 23L23 23L23 24L24 24L24 23L25 23L25 25L26 25L26 27L27 27L27 26L28 26L28 27L29 27L29 28L28 28L28 29L24 29L24 31L25 31L25 30L27 30L27 31L26 31L26 32L25 32L25 33L21 33L21 32L20 32L20 29L21 29L21 28L20 28L20 29L19 29L19 32L18 32L18 30L16 30L16 29L13 29L13 28L12 28L12 29L13 29L13 30L12 30L12 32L13 32L13 33L12 33L12 34L13 34L13 36L12 36L12 35L11 35L11 36L12 36L12 37L11 37L11 38L12 38L12 37L14 37L14 38L13 38L13 39L12 39L12 40L13 40L13 39L14 39L14 38L15 38L15 40L16 40L16 41L19 41L19 40L20 40L20 41L22 41L22 42L25 42L25 43L26 43L26 44L27 44L27 43L28 43L28 42L27 42L27 41L28 41L28 40L27 40L27 39L28 39L28 38L29 38L29 40L30 40L30 41L31 41L31 42L30 42L30 43L31 43L31 44L30 44L30 45L24 45L24 43L23 43L23 45L21 45L21 44L22 44L22 43L21 43L21 44L20 44L20 42L19 42L19 44L20 44L20 45L21 45L21 46L23 46L23 48L25 48L25 49L24 49L24 51L23 51L23 52L24 52L24 51L25 51L25 52L26 52L26 50L27 50L27 52L28 52L28 51L29 51L29 49L28 49L28 48L27 48L27 49L26 49L26 47L28 47L28 46L30 46L30 47L31 47L31 46L30 46L30 45L31 45L31 44L32 44L32 43L33 43L33 45L37 45L37 44L39 44L39 42L38 42L38 40L39 40L39 41L40 41L40 44L41 44L41 43L42 43L42 44L43 44L43 45L42 45L42 46L43 46L43 45L44 45L44 46L45 46L45 47L44 47L44 48L45 48L45 49L46 49L46 47L47 47L47 46L45 46L45 45L46 45L46 44L45 44L45 43L44 43L44 40L43 40L43 39L42 39L42 40L43 40L43 41L42 41L42 42L41 42L41 41L40 41L40 40L41 40L41 39L39 39L39 38L37 38L37 37L38 37L38 36L41 36L41 35L40 35L40 34L45 34L45 33L44 33L44 32L43 32L43 31L44 31L44 30L45 30L45 29L46 29L46 28L47 28L47 27L48 27L48 26L49 26L49 28L51 28L51 27L50 27L50 25L51 25L51 24L52 24L52 25L53 25L53 24L52 24L52 23L53 23L53 22L56 22L56 20L55 20L55 19L54 19L54 21L53 21L53 22L50 22L50 19L51 19L51 21L52 21L52 19L51 19L51 18L50 18L50 19L49 19L49 16L48 16L48 17L47 17L47 18L46 18L46 16L45 16L45 18L44 18L44 20L43 20L43 19L42 19L42 18L43 18L43 17L44 17L44 16L43 16L43 17L42 17L42 15L41 15L41 14L44 14L44 12L43 12L43 11L42 11L42 12L41 12L41 14L38 14L38 15L40 15L40 16L41 16L41 19L40 19L40 18L38 18L38 16L34 16L34 15L35 15L35 14L36 14L36 15L37 15L37 14L36 14L36 13L37 13L37 12L38 12L38 13L40 13L40 12L39 12L39 10L38 10L38 9L37 9L37 8L36 8L36 7L37 7L37 6L38 6L38 7L39 7L39 5L37 5L37 3L36 3L36 4L35 4L35 3ZM51 3L51 4L52 4L52 3ZM44 4L44 5L43 5L43 6L42 6L42 7L43 7L43 6L44 6L44 8L45 8L45 6L46 6L46 7L47 7L47 5L45 5L45 4ZM18 5L18 7L19 7L19 5ZM29 5L29 8L32 8L32 5ZM13 6L13 7L14 7L14 6ZM16 6L16 7L17 7L17 6ZM20 6L20 7L21 7L21 6ZM30 6L30 7L31 7L31 6ZM15 8L15 9L14 9L14 10L15 10L15 9L18 9L18 10L19 10L19 8ZM20 8L20 9L21 9L21 8ZM2 9L2 11L3 11L3 12L4 12L4 9ZM12 9L12 10L13 10L13 9ZM57 9L57 10L58 10L58 9ZM20 10L20 13L19 13L19 14L18 14L18 15L19 15L19 14L20 14L20 13L21 13L21 14L22 14L22 15L21 15L21 16L22 16L22 15L23 15L23 16L25 16L25 15L27 15L27 13L24 13L24 14L23 14L23 13L21 13L21 11L22 11L22 10ZM10 11L10 13L11 13L11 11ZM53 11L53 12L54 12L54 11ZM42 12L42 13L43 13L43 12ZM56 12L56 15L57 15L57 12ZM29 13L29 14L28 14L28 15L29 15L29 14L30 14L30 13ZM34 13L34 14L35 14L35 13ZM24 14L24 15L25 15L25 14ZM32 14L32 17L33 17L33 14ZM50 14L50 15L52 15L52 14ZM60 14L60 15L61 15L61 14ZM12 15L12 16L11 16L11 17L10 17L10 18L11 18L11 17L12 17L12 16L13 16L13 15ZM50 16L50 17L52 17L52 16ZM60 16L60 17L61 17L61 16ZM1 17L1 18L2 18L2 17ZM21 17L21 18L20 18L20 19L21 19L21 18L22 18L22 19L23 19L23 20L24 20L24 19L25 19L25 17ZM27 17L27 18L28 18L28 17ZM34 17L34 18L32 18L32 19L31 19L31 20L32 20L32 19L34 19L34 18L35 18L35 17ZM36 17L36 18L37 18L37 19L36 19L36 20L33 20L33 22L32 22L32 21L31 21L31 22L32 22L32 23L31 23L31 24L30 24L30 23L28 23L28 24L29 24L29 25L28 25L28 26L29 26L29 25L31 25L31 26L32 26L32 28L34 28L34 30L35 30L35 32L38 32L38 30L40 30L40 31L43 31L43 30L42 30L42 29L41 29L41 28L40 28L40 27L43 27L43 28L44 28L44 29L45 29L45 28L46 28L46 26L48 26L48 25L46 25L46 26L45 26L45 28L44 28L44 27L43 27L43 26L44 26L44 25L45 25L45 24L44 24L44 23L45 23L45 22L48 22L48 23L46 23L46 24L49 24L49 23L50 23L50 22L48 22L48 20L49 20L49 19L48 19L48 18L47 18L47 21L45 21L45 20L46 20L46 19L45 19L45 20L44 20L44 22L42 22L42 21L43 21L43 20L42 20L42 19L41 19L41 20L40 20L40 19L38 19L38 18L37 18L37 17ZM14 18L14 20L16 20L16 19L18 19L18 18ZM60 18L60 19L61 19L61 18ZM10 19L10 20L6 20L6 21L8 21L8 22L9 22L9 21L10 21L10 22L11 22L11 21L10 21L10 20L12 20L12 19ZM37 19L37 20L36 20L36 21L35 21L35 22L33 22L33 23L35 23L35 22L36 22L36 23L37 23L37 24L36 24L36 26L33 26L33 24L32 24L32 26L33 26L33 27L34 27L34 28L35 28L35 30L36 30L36 31L37 31L37 28L35 28L35 27L36 27L36 26L38 26L38 27L40 27L40 26L41 26L41 25L42 25L42 26L43 26L43 25L44 25L44 24L43 24L43 23L42 23L42 22L41 22L41 21L40 21L40 22L38 22L38 23L37 23L37 22L36 22L36 21L37 21L37 20L38 20L38 19ZM6 22L6 23L7 23L7 22ZM40 22L40 23L41 23L41 24L40 24L40 25L41 25L41 24L42 24L42 25L43 25L43 24L42 24L42 23L41 23L41 22ZM38 23L38 24L37 24L37 25L38 25L38 26L39 26L39 25L38 25L38 24L39 24L39 23ZM1 24L1 25L2 25L2 27L4 27L4 25L3 25L3 24ZM6 24L6 25L7 25L7 26L6 26L6 27L9 27L9 26L8 26L8 25L7 25L7 24ZM58 25L58 26L59 26L59 25ZM13 26L13 27L14 27L14 28L16 28L16 27L15 27L15 26ZM20 26L20 27L21 27L21 26ZM23 26L23 27L24 27L24 26ZM38 28L38 29L40 29L40 28ZM5 29L5 32L8 32L8 29ZM22 29L22 30L21 30L21 31L22 31L22 30L23 30L23 29ZM29 29L29 32L32 32L32 29ZM53 29L53 32L56 32L56 29ZM6 30L6 31L7 31L7 30ZM30 30L30 31L31 31L31 30ZM54 30L54 31L55 31L55 30ZM60 30L60 31L61 31L61 30ZM13 31L13 32L14 32L14 36L16 36L16 37L15 37L15 38L19 38L19 39L21 39L21 38L22 38L22 39L23 39L23 40L22 40L22 41L23 41L23 40L24 40L24 41L25 41L25 42L26 42L26 43L27 43L27 42L26 42L26 41L27 41L27 40L26 40L26 39L25 39L25 38L26 38L26 37L27 37L27 34L26 34L26 33L28 33L28 32L26 32L26 33L25 33L25 34L22 34L22 35L23 35L23 36L21 36L21 37L20 37L20 36L19 36L19 37L18 37L18 35L17 35L17 36L16 36L16 35L15 35L15 32L14 32L14 31ZM16 31L16 32L17 32L17 31ZM46 31L46 32L48 32L48 31ZM19 32L19 33L16 33L16 34L19 34L19 35L21 35L21 33L20 33L20 32ZM39 32L39 33L38 33L38 34L37 34L37 35L36 35L36 34L35 34L35 33L34 33L34 34L35 34L35 35L36 35L36 36L35 36L35 37L33 37L33 36L34 36L34 35L32 35L32 33L30 33L30 34L28 34L28 35L29 35L29 36L28 36L28 37L30 37L30 38L31 38L31 39L32 39L32 42L31 42L31 43L32 43L32 42L35 42L35 43L34 43L34 44L37 44L37 43L38 43L38 42L37 42L37 41L36 41L36 40L38 40L38 39L37 39L37 38L36 38L36 39L35 39L35 40L34 40L34 39L32 39L32 38L31 38L31 37L33 37L33 38L35 38L35 37L36 37L36 36L37 36L37 35L38 35L38 34L39 34L39 33L41 33L41 32ZM9 33L9 34L11 34L11 33ZM53 33L53 34L52 34L52 35L54 35L54 36L52 36L52 38L51 38L51 37L50 37L50 38L51 38L51 39L50 39L50 43L49 43L49 42L47 42L47 41L46 41L46 42L47 42L47 43L48 43L48 44L49 44L49 45L50 45L50 46L49 46L49 49L50 49L50 50L51 50L51 51L50 51L50 54L51 54L51 55L52 55L52 53L51 53L51 51L53 51L53 50L55 50L55 49L56 49L56 48L54 48L54 47L53 47L53 48L52 48L52 47L50 47L50 46L51 46L51 45L50 45L50 44L52 44L52 42L53 42L53 37L54 37L54 36L55 36L55 37L56 37L56 38L55 38L55 39L54 39L54 40L55 40L55 41L56 41L56 40L60 40L60 39L57 39L57 38L58 38L58 37L56 37L56 36L55 36L55 35L54 35L54 34L55 34L55 33ZM56 33L56 34L57 34L57 33ZM58 33L58 34L59 34L59 33ZM6 34L6 35L8 35L8 34ZM30 34L30 35L31 35L31 36L30 36L30 37L31 37L31 36L32 36L32 35L31 35L31 34ZM46 34L46 35L44 35L44 36L43 36L43 37L42 37L42 38L45 38L45 37L44 37L44 36L46 36L46 35L47 35L47 34ZM48 34L48 35L49 35L49 34ZM24 35L24 36L25 36L25 37L24 37L24 38L25 38L25 37L26 37L26 36L25 36L25 35ZM60 36L60 37L61 37L61 36ZM19 37L19 38L20 38L20 37ZM22 37L22 38L23 38L23 37ZM0 38L0 42L2 42L2 43L0 43L0 44L2 44L2 45L3 45L3 44L2 44L2 43L3 43L3 41L1 41L1 38ZM16 39L16 40L17 40L17 39ZM24 39L24 40L25 40L25 39ZM55 39L55 40L56 40L56 39ZM33 40L33 41L34 41L34 40ZM51 40L51 41L52 41L52 40ZM9 42L9 43L10 43L10 44L9 44L9 46L8 46L8 43L5 43L5 47L4 47L4 49L3 49L3 50L4 50L4 49L5 49L5 50L7 50L7 49L6 49L6 48L8 48L8 50L10 50L10 49L11 49L11 50L12 50L12 51L13 51L13 50L12 50L12 49L13 49L13 47L12 47L12 46L11 46L11 45L10 45L10 44L11 44L11 42ZM16 42L16 43L18 43L18 42ZM36 42L36 43L37 43L37 42ZM42 42L42 43L43 43L43 44L44 44L44 45L45 45L45 44L44 44L44 43L43 43L43 42ZM12 43L12 45L13 45L13 46L14 46L14 48L15 48L15 45L13 45L13 44L14 44L14 43ZM6 44L6 45L7 45L7 44ZM23 45L23 46L24 46L24 47L25 47L25 46L24 46L24 45ZM53 45L53 46L54 46L54 45ZM6 46L6 47L7 47L7 46ZM10 46L10 47L8 47L8 48L10 48L10 47L11 47L11 48L12 48L12 47L11 47L11 46ZM21 47L21 48L20 48L20 49L21 49L21 50L23 50L23 49L21 49L21 48L22 48L22 47ZM50 48L50 49L52 49L52 50L53 50L53 49L52 49L52 48ZM25 49L25 50L26 50L26 49ZM27 49L27 50L28 50L28 49ZM18 50L18 51L19 51L19 50ZM58 50L58 51L59 51L59 50ZM60 50L60 51L61 51L61 50ZM3 51L3 52L4 52L4 51ZM21 51L21 52L20 52L20 53L19 53L19 52L18 52L18 53L17 53L17 54L18 54L18 55L19 55L19 56L20 56L20 53L21 53L21 52L22 52L22 51ZM36 52L36 53L38 53L38 52ZM18 53L18 54L19 54L19 53ZM29 53L29 56L32 56L32 53ZM53 53L53 56L56 56L56 53ZM10 54L10 55L11 55L11 54ZM30 54L30 55L31 55L31 54ZM34 54L34 55L35 55L35 54ZM36 54L36 55L37 55L37 56L36 56L36 57L35 57L35 58L34 58L34 59L35 59L35 60L34 60L34 61L37 61L37 60L36 60L36 59L37 59L37 58L38 58L38 59L39 59L39 60L38 60L38 61L40 61L40 60L41 60L41 57L39 57L39 58L38 58L38 57L37 57L37 56L41 56L41 55L40 55L40 54ZM46 54L46 55L44 55L44 56L43 56L43 57L42 57L42 58L43 58L43 57L44 57L44 58L45 58L45 57L49 57L49 58L47 58L47 59L49 59L49 60L47 60L47 61L49 61L49 60L50 60L50 59L49 59L49 58L50 58L50 57L49 57L49 56L46 56L46 55L48 55L48 54ZM54 54L54 55L55 55L55 54ZM12 56L12 58L13 58L13 56ZM44 56L44 57L45 57L45 56ZM57 57L57 58L56 58L56 59L55 59L55 60L60 60L60 57L59 57L59 58L58 58L58 57ZM9 58L9 59L10 59L10 58ZM52 58L52 59L54 59L54 58ZM30 59L30 60L31 60L31 61L32 61L32 60L33 60L33 59L32 59L32 60L31 60L31 59ZM43 59L43 61L44 61L44 60L45 60L45 59ZM0 0L0 7L7 7L7 0ZM1 1L1 6L6 6L6 1ZM2 2L2 5L5 5L5 2ZM54 0L54 7L61 7L61 0ZM55 1L55 6L60 6L60 1ZM56 2L56 5L59 5L59 2ZM0 54L0 61L7 61L7 54ZM1 55L1 60L6 60L6 55ZM2 56L2 59L5 59L5 56Z" fill="#000000"/></g></g></svg>
