<?xml version="1.0" encoding="UTF-8"?>
<svg xmlns="http://www.w3.org/2000/svg" version="1.1" width="200" height="200" viewBox="0 0 200 200"><rect x="0" y="0" width="200" height="200" fill="#ffffff"/><g transform="scale(3.279)"><g transform="translate(0,0)"><path fill-rule="evenodd" d="M8 0L8 1L10 1L10 2L11 2L11 0ZM14 0L14 2L13 2L13 1L12 1L12 3L11 3L11 4L10 4L10 3L9 3L9 5L10 5L10 7L11 7L11 8L9 8L9 6L8 6L8 8L9 8L9 9L7 9L7 8L6 8L6 9L5 9L5 8L3 8L3 9L2 9L2 8L0 8L0 9L1 9L1 10L2 10L2 12L1 12L1 14L0 14L0 15L2 15L2 12L3 12L3 11L4 11L4 13L3 13L3 15L4 15L4 16L3 16L3 18L1 18L1 19L0 19L0 20L2 20L2 19L4 19L4 20L3 20L3 21L0 21L0 24L1 24L1 25L4 25L4 26L2 26L2 27L1 27L1 26L0 26L0 27L1 27L1 28L0 28L0 29L1 29L1 28L2 28L2 31L1 31L1 30L0 30L0 32L1 32L1 33L0 33L0 40L1 40L1 41L2 41L2 42L0 42L0 44L1 44L1 43L2 43L2 46L3 46L3 48L4 48L4 47L7 47L7 48L5 48L5 49L3 49L3 50L2 50L2 51L0 51L0 53L4 53L4 52L5 52L5 51L7 51L7 52L6 52L6 53L8 53L8 54L9 54L9 55L10 55L10 57L9 57L9 56L8 56L8 58L9 58L9 59L8 59L8 61L10 61L10 60L11 60L11 61L16 61L16 60L17 60L17 61L20 61L20 59L21 59L21 57L23 57L23 58L24 58L24 60L23 60L23 59L22 59L22 61L24 61L24 60L25 60L25 57L23 57L23 55L24 55L24 56L25 56L25 55L26 55L26 56L27 56L27 58L26 58L26 59L27 59L27 58L28 58L28 59L29 59L29 60L26 60L26 61L30 61L30 60L31 60L31 61L33 61L33 59L34 59L34 58L35 58L35 57L37 57L37 60L36 60L36 59L35 59L35 60L34 60L34 61L35 61L35 60L36 60L36 61L38 61L38 60L40 60L40 61L41 61L41 58L42 58L42 61L46 61L46 60L45 60L45 59L47 59L47 60L48 60L48 61L49 61L49 60L50 60L50 61L54 61L54 60L55 60L55 59L56 59L56 61L58 61L58 60L60 60L60 61L61 61L61 54L60 54L60 53L61 53L61 50L60 50L60 52L59 52L59 50L58 50L58 48L61 48L61 46L58 46L58 43L57 43L57 42L58 42L58 41L59 41L59 39L60 39L60 40L61 40L61 38L59 38L59 37L56 37L56 38L57 38L57 39L55 39L55 37L54 37L54 35L55 35L55 36L56 36L56 35L57 35L57 36L61 36L61 34L58 34L58 30L60 30L60 31L61 31L61 30L60 30L60 28L59 28L59 27L61 27L61 26L60 26L60 25L61 25L61 22L60 22L60 21L61 21L61 20L60 20L60 21L58 21L58 18L59 18L59 16L60 16L60 17L61 17L61 16L60 16L60 15L61 15L61 14L60 14L60 12L59 12L59 11L61 11L61 10L59 10L59 9L58 9L58 10L57 10L57 11L54 11L54 10L55 10L55 8L54 8L54 10L53 10L53 9L52 9L52 8L53 8L53 6L52 6L52 7L51 7L51 5L52 5L52 4L53 4L53 0L51 0L51 2L50 2L50 0L42 0L42 1L44 1L44 2L42 2L42 3L40 3L40 2L37 2L37 3L36 3L36 1L41 1L41 0L34 0L34 2L35 2L35 3L36 3L36 4L35 4L35 6L34 6L34 7L35 7L35 8L33 8L33 4L34 4L34 3L33 3L33 1L32 1L32 0L31 0L31 1L29 1L29 0L27 0L27 1L26 1L26 0L23 0L23 1L25 1L25 2L24 2L24 3L25 3L25 4L24 4L24 5L23 5L23 2L22 2L22 1L21 1L21 0L20 0L20 3L18 3L18 4L20 4L20 5L17 5L17 6L16 6L16 7L15 7L15 5L16 5L16 4L15 4L15 3L17 3L17 2L16 2L16 1L18 1L18 2L19 2L19 1L18 1L18 0ZM27 1L27 2L25 2L25 3L27 3L27 4L25 4L25 5L27 5L27 8L26 8L26 6L25 6L25 8L23 8L23 9L22 9L22 10L20 10L20 9L18 9L18 10L19 10L19 11L17 11L17 12L16 12L16 11L15 11L15 13L14 13L14 14L13 14L13 12L14 12L14 10L16 10L16 9L17 9L17 8L19 8L19 7L20 7L20 6L19 6L19 7L18 7L18 6L17 6L17 8L15 8L15 7L14 7L14 5L15 5L15 4L12 4L12 5L13 5L13 7L14 7L14 10L13 10L13 8L12 8L12 9L11 9L11 11L12 11L12 13L11 13L11 12L10 12L10 11L9 11L9 10L8 10L8 12L9 12L9 13L6 13L6 14L5 14L5 13L4 13L4 15L6 15L6 16L5 16L5 18L4 18L4 19L5 19L5 20L4 20L4 21L3 21L3 22L2 22L2 23L1 23L1 24L4 24L4 25L5 25L5 26L4 26L4 27L2 27L2 28L5 28L5 26L7 26L7 27L6 27L6 28L7 28L7 27L8 27L8 28L10 28L10 29L9 29L9 30L10 30L10 31L11 31L11 29L12 29L12 28L11 28L11 27L12 27L12 26L10 26L10 25L12 25L12 24L13 24L13 26L14 26L14 22L15 22L15 23L17 23L17 24L16 24L16 25L15 25L15 26L17 26L17 28L18 28L18 27L21 27L21 26L22 26L22 25L21 25L21 24L24 24L24 25L26 25L26 26L23 26L23 27L22 27L22 28L20 28L20 31L19 31L19 29L17 29L17 32L21 32L21 34L22 34L22 31L21 31L21 30L23 30L23 31L24 31L24 32L23 32L23 33L25 33L25 35L24 35L24 34L23 34L23 35L21 35L21 36L19 36L19 35L20 35L20 33L18 33L18 34L19 34L19 35L18 35L18 36L16 36L16 35L17 35L17 34L16 34L16 32L14 32L14 30L16 30L16 29L15 29L15 28L14 28L14 30L12 30L12 32L9 32L9 33L4 33L4 32L2 32L2 33L3 33L3 34L4 34L4 35L3 35L3 36L4 36L4 37L2 37L2 38L1 38L1 40L2 40L2 41L4 41L4 40L7 40L7 41L5 41L5 42L2 42L2 43L3 43L3 46L4 46L4 43L6 43L6 44L5 44L5 46L8 46L8 49L5 49L5 50L8 50L8 51L9 51L9 52L8 52L8 53L9 53L9 52L10 52L10 50L11 50L11 53L12 53L12 55L11 55L11 54L10 54L10 55L11 55L11 57L10 57L10 58L11 58L11 59L12 59L12 56L13 56L13 54L15 54L15 55L16 55L16 57L18 57L18 56L17 56L17 55L16 55L16 54L15 54L15 52L14 52L14 51L15 51L15 48L16 48L16 47L15 47L15 46L16 46L16 45L18 45L18 46L17 46L17 47L18 47L18 46L19 46L19 45L18 45L18 44L16 44L16 45L15 45L15 42L14 42L14 41L13 41L13 40L14 40L14 39L15 39L15 41L16 41L16 39L17 39L17 41L19 41L19 40L20 40L20 42L19 42L19 43L22 43L22 44L21 44L21 46L22 46L22 47L23 47L23 45L26 45L26 46L27 46L27 45L28 45L28 43L27 43L27 44L26 44L26 41L25 41L25 40L26 40L26 38L27 38L27 37L26 37L26 38L25 38L25 40L24 40L24 39L21 39L21 38L22 38L22 37L21 37L21 36L23 36L23 35L24 35L24 37L25 37L25 36L26 36L26 34L27 34L27 33L28 33L28 34L29 34L29 36L28 36L28 35L27 35L27 36L28 36L28 39L29 39L29 38L31 38L31 40L32 40L32 43L29 43L29 46L28 46L28 47L29 47L29 49L30 49L30 51L29 51L29 52L32 52L32 50L31 50L31 49L30 49L30 47L29 47L29 46L31 46L31 47L32 47L32 49L33 49L33 50L34 50L34 51L33 51L33 52L35 52L35 53L36 53L36 54L34 54L34 53L33 53L33 54L34 54L34 55L37 55L37 53L36 53L36 52L38 52L38 51L35 51L35 50L38 50L38 49L36 49L36 48L38 48L38 47L40 47L40 46L41 46L41 45L42 45L42 44L41 44L41 45L40 45L40 42L39 42L39 41L41 41L41 40L42 40L42 41L43 41L43 42L42 42L42 43L45 43L45 44L43 44L43 46L42 46L42 47L44 47L44 46L45 46L45 48L46 48L46 51L47 51L47 52L45 52L45 49L44 49L44 51L43 51L43 50L41 50L41 49L42 49L42 48L41 48L41 49L40 49L40 48L39 48L39 52L40 52L40 53L38 53L38 55L41 55L41 57L40 57L40 56L39 56L39 57L40 57L40 58L38 58L38 59L40 59L40 58L41 58L41 57L45 57L45 58L46 58L46 56L47 56L47 59L48 59L48 60L49 60L49 58L48 58L48 56L49 56L49 57L51 57L51 58L52 58L52 59L53 59L53 60L54 60L54 59L55 59L55 58L57 58L57 57L54 57L54 58L53 58L53 57L51 57L51 56L52 56L52 54L51 54L51 53L50 53L50 52L53 52L53 51L50 51L50 52L49 52L49 51L48 51L48 50L50 50L50 49L48 49L48 48L46 48L46 45L47 45L47 44L49 44L49 45L51 45L51 44L50 44L50 43L49 43L49 42L46 42L46 43L45 43L45 42L44 42L44 41L43 41L43 40L45 40L45 39L46 39L46 41L47 41L47 40L49 40L49 41L50 41L50 42L51 42L51 43L52 43L52 44L54 44L54 42L55 42L55 44L56 44L56 42L57 42L57 40L56 40L56 41L54 41L54 42L53 42L53 43L52 43L52 42L51 42L51 39L52 39L52 38L53 38L53 37L51 37L51 39L47 39L47 37L48 37L48 36L49 36L49 38L50 38L50 36L53 36L53 35L54 35L54 34L56 34L56 33L51 33L51 32L52 32L52 30L51 30L51 28L52 28L52 27L53 27L53 28L57 28L57 26L58 26L58 25L60 25L60 22L59 22L59 24L58 24L58 25L56 25L56 27L53 27L53 24L52 24L52 23L51 23L51 22L52 22L52 21L53 21L53 22L54 22L54 23L56 23L56 22L58 22L58 21L57 21L57 19L56 19L56 21L55 21L55 18L54 18L54 17L55 17L55 16L54 16L54 15L55 15L55 14L54 14L54 13L55 13L55 12L54 12L54 13L53 13L53 11L51 11L51 12L52 12L52 13L51 13L51 14L54 14L54 15L52 15L52 16L53 16L53 18L54 18L54 19L52 19L52 17L51 17L51 15L50 15L50 16L49 16L49 14L48 14L48 13L46 13L46 12L47 12L47 11L48 11L48 12L49 12L49 11L50 11L50 10L49 10L49 9L51 9L51 7L50 7L50 5L49 5L49 4L50 4L50 3L49 3L49 1L48 1L48 2L47 2L47 3L45 3L45 4L43 4L43 3L42 3L42 4L39 4L39 7L38 7L38 6L37 6L37 7L36 7L36 6L35 6L35 7L36 7L36 8L35 8L35 10L36 10L36 8L37 8L37 11L36 11L36 12L35 12L35 11L32 11L32 12L30 12L30 11L31 11L31 10L33 10L33 9L29 9L29 12L28 12L28 13L26 13L26 12L27 12L27 11L26 11L26 12L24 12L24 9L25 9L25 10L27 10L27 8L28 8L28 4L29 4L29 3L30 3L30 4L32 4L32 3L30 3L30 2L29 2L29 3L27 3L27 2L28 2L28 1ZM31 1L31 2L32 2L32 1ZM45 1L45 2L46 2L46 1ZM14 2L14 3L15 3L15 2ZM21 2L21 3L20 3L20 4L22 4L22 2ZM47 3L47 4L49 4L49 3ZM51 3L51 4L52 4L52 3ZM36 4L36 5L37 5L37 4ZM42 4L42 5L43 5L43 4ZM45 4L45 6L44 6L44 7L45 7L45 6L46 6L46 9L42 9L42 8L43 8L43 6L42 6L42 8L41 8L41 5L40 5L40 9L42 9L42 10L39 10L39 8L38 8L38 10L39 10L39 11L42 11L42 12L40 12L40 13L38 13L38 14L37 14L37 12L36 12L36 13L35 13L35 14L37 14L37 15L38 15L38 17L37 17L37 16L36 16L36 17L33 17L33 16L32 16L32 18L31 18L31 19L29 19L29 20L28 20L28 23L27 23L27 22L26 22L26 23L25 23L25 24L26 24L26 25L28 25L28 24L31 24L31 25L30 25L30 27L28 27L28 26L26 26L26 28L25 28L25 27L24 27L24 28L23 28L23 29L24 29L24 30L25 30L25 32L26 32L26 31L27 31L27 32L28 32L28 33L32 33L32 34L33 34L33 35L34 35L34 36L33 36L33 37L34 37L34 36L36 36L36 37L35 37L35 38L36 38L36 39L35 39L35 40L36 40L36 41L34 41L34 40L33 40L33 38L32 38L32 36L31 36L31 34L30 34L30 37L31 37L31 38L32 38L32 40L33 40L33 41L34 41L34 42L33 42L33 43L32 43L32 44L30 44L30 45L31 45L31 46L32 46L32 47L33 47L33 48L34 48L34 49L35 49L35 48L36 48L36 47L37 47L37 46L40 46L40 45L37 45L37 44L38 44L38 42L37 42L37 40L38 40L38 41L39 41L39 40L38 40L38 39L41 39L41 37L42 37L42 38L44 38L44 39L45 39L45 38L46 38L46 35L48 35L48 34L51 34L51 33L49 33L49 32L48 32L48 33L47 33L47 32L45 32L45 34L46 34L46 35L44 35L44 36L43 36L43 37L42 37L42 36L40 36L40 35L42 35L42 34L43 34L43 33L44 33L44 31L46 31L46 30L47 30L47 31L48 31L48 30L49 30L49 31L50 31L50 32L51 32L51 31L50 31L50 29L49 29L49 28L48 28L48 30L47 30L47 29L46 29L46 30L44 30L44 29L45 29L45 28L47 28L47 27L46 27L46 25L47 25L47 24L46 24L46 23L49 23L49 24L48 24L48 25L50 25L50 26L48 26L48 27L50 27L50 28L51 28L51 27L52 27L52 26L51 26L51 24L50 24L50 23L49 23L49 22L51 22L51 21L52 21L52 20L51 20L51 19L49 19L49 18L50 18L50 17L49 17L49 16L47 16L47 15L48 15L48 14L47 14L47 15L46 15L46 13L45 13L45 11L47 11L47 9L49 9L49 8L47 8L47 6L46 6L46 4ZM21 5L21 8L22 8L22 5ZM29 5L29 8L32 8L32 5ZM48 5L48 7L49 7L49 5ZM11 6L11 7L12 7L12 6ZM23 6L23 7L24 7L24 6ZM30 6L30 7L31 7L31 6ZM60 8L60 9L61 9L61 8ZM6 9L6 10L7 10L7 9ZM12 10L12 11L13 11L13 10ZM42 10L42 11L43 11L43 14L41 14L41 13L40 13L40 14L41 14L41 15L40 15L40 17L41 17L41 18L42 18L42 19L43 19L43 18L44 18L44 17L43 17L43 16L42 16L42 15L45 15L45 16L46 16L46 15L45 15L45 14L44 14L44 11L45 11L45 10L44 10L44 11L43 11L43 10ZM48 10L48 11L49 11L49 10ZM58 10L58 11L59 11L59 10ZM6 11L6 12L7 12L7 11ZM19 11L19 12L17 12L17 15L16 15L16 13L15 13L15 14L14 14L14 15L16 15L16 16L15 16L15 18L13 18L13 17L14 17L14 16L13 16L13 17L12 17L12 16L11 16L11 17L10 17L10 18L9 18L9 16L10 16L10 15L9 15L9 14L8 14L8 15L7 15L7 14L6 14L6 15L7 15L7 16L6 16L6 17L7 17L7 18L5 18L5 19L7 19L7 20L6 20L6 21L7 21L7 22L6 22L6 23L5 23L5 21L4 21L4 22L3 22L3 23L4 23L4 24L6 24L6 25L7 25L7 26L8 26L8 27L10 27L10 26L8 26L8 25L10 25L10 24L9 24L9 23L8 23L8 22L9 22L9 21L11 21L11 19L12 19L12 18L13 18L13 19L14 19L14 20L12 20L12 23L13 23L13 22L14 22L14 21L15 21L15 22L17 22L17 21L16 21L16 20L17 20L17 19L18 19L18 17L19 17L19 20L18 20L18 21L19 21L19 20L20 20L20 22L19 22L19 23L18 23L18 24L17 24L17 25L18 25L18 26L19 26L19 25L20 25L20 26L21 26L21 25L20 25L20 24L21 24L21 23L24 23L24 22L25 22L25 21L26 21L26 20L25 20L25 17L24 17L24 15L23 15L23 18L21 18L21 19L20 19L20 17L19 17L19 16L21 16L21 17L22 17L22 16L21 16L21 15L22 15L22 14L26 14L26 18L27 18L27 19L28 19L28 18L29 18L29 17L28 17L28 16L31 16L31 15L30 15L30 14L33 14L33 15L34 15L34 16L35 16L35 15L34 15L34 14L33 14L33 13L34 13L34 12L32 12L32 13L30 13L30 14L29 14L29 15L28 15L28 14L26 14L26 13L24 13L24 12L23 12L23 11ZM20 12L20 13L21 13L21 14L20 14L20 15L21 15L21 14L22 14L22 12ZM58 12L58 13L56 13L56 16L57 16L57 18L58 18L58 16L57 16L57 14L59 14L59 12ZM10 13L10 14L11 14L11 15L13 15L13 14L11 14L11 13ZM18 13L18 16L16 16L16 19L17 19L17 17L18 17L18 16L19 16L19 13ZM8 15L8 16L9 16L9 15ZM0 16L0 17L1 17L1 16ZM11 17L11 18L12 18L12 17ZM38 17L38 19L39 19L39 22L38 22L38 23L36 23L36 22L35 22L35 24L38 24L38 25L39 25L39 28L38 28L38 27L35 27L35 25L34 25L34 24L33 24L33 23L32 23L32 24L33 24L33 25L31 25L31 27L33 27L33 28L34 28L34 27L35 27L35 29L36 29L36 28L38 28L38 31L36 31L36 30L34 30L34 29L33 29L33 31L34 31L34 32L33 32L33 33L35 33L35 32L37 32L37 34L36 34L36 36L37 36L37 37L36 37L36 38L38 38L38 37L39 37L39 38L40 38L40 36L39 36L39 35L40 35L40 32L38 32L38 31L41 31L41 33L42 33L42 32L43 32L43 30L42 30L42 27L44 27L44 28L45 28L45 27L44 27L44 26L45 26L45 25L44 25L44 23L45 23L45 22L44 22L44 21L45 21L45 20L46 20L46 21L47 21L47 22L49 22L49 21L47 21L47 20L49 20L49 19L47 19L47 18L45 18L45 19L44 19L44 21L43 21L43 22L42 22L42 23L43 23L43 24L42 24L42 25L40 25L40 24L41 24L41 21L40 21L40 18L39 18L39 17ZM42 17L42 18L43 18L43 17ZM48 17L48 18L49 18L49 17ZM23 18L23 19L24 19L24 18ZM34 18L34 19L35 19L35 20L34 20L34 21L33 21L33 19L31 19L31 20L30 20L30 21L29 21L29 23L30 23L30 21L32 21L32 22L34 22L34 21L36 21L36 20L37 20L37 21L38 21L38 20L37 20L37 18ZM60 18L60 19L61 19L61 18ZM8 19L8 20L7 20L7 21L8 21L8 20L9 20L9 19ZM21 19L21 20L22 20L22 19ZM46 19L46 20L47 20L47 19ZM24 20L24 21L25 21L25 20ZM22 21L22 22L23 22L23 21ZM54 21L54 22L55 22L55 21ZM43 22L43 23L44 23L44 22ZM6 23L6 24L7 24L7 25L8 25L8 23ZM19 23L19 24L20 24L20 23ZM26 23L26 24L27 24L27 23ZM54 24L54 25L55 25L55 24ZM42 25L42 26L40 26L40 27L42 27L42 26L43 26L43 25ZM50 26L50 27L51 27L51 26ZM27 27L27 28L28 28L28 27ZM24 28L24 29L25 29L25 30L26 30L26 29L25 29L25 28ZM3 29L3 31L4 31L4 29ZM5 29L5 32L8 32L8 29ZM27 29L27 31L28 31L28 29ZM29 29L29 32L32 32L32 29ZM53 29L53 32L56 32L56 29ZM57 29L57 30L58 30L58 29ZM6 30L6 31L7 31L7 30ZM30 30L30 31L31 31L31 30ZM54 30L54 31L55 31L55 30ZM13 32L13 34L11 34L11 35L10 35L10 36L12 36L12 37L10 37L10 38L13 38L13 37L14 37L14 36L15 36L15 35L14 35L14 36L12 36L12 35L13 35L13 34L15 34L15 33L14 33L14 32ZM60 32L60 33L61 33L61 32ZM9 33L9 34L5 34L5 35L4 35L4 36L5 36L5 35L7 35L7 36L6 36L6 37L5 37L5 38L2 38L2 40L3 40L3 39L5 39L5 38L6 38L6 39L7 39L7 40L8 40L8 42L6 42L6 43L7 43L7 44L6 44L6 45L7 45L7 44L8 44L8 46L9 46L9 47L11 47L11 48L9 48L9 49L11 49L11 50L12 50L12 51L13 51L13 49L14 49L14 48L13 48L13 47L14 47L14 46L11 46L11 45L10 45L10 46L9 46L9 42L11 42L11 40L10 40L10 39L9 39L9 38L6 38L6 37L7 37L7 36L8 36L8 37L9 37L9 34L10 34L10 33ZM38 33L38 34L37 34L37 35L38 35L38 34L39 34L39 33ZM57 34L57 35L58 35L58 34ZM18 36L18 38L17 38L17 39L18 39L18 38L21 38L21 37L19 37L19 36ZM15 37L15 38L16 38L16 37ZM58 38L58 39L59 39L59 38ZM12 39L12 40L13 40L13 39ZM20 39L20 40L21 40L21 39ZM36 39L36 40L37 40L37 39ZM53 39L53 40L55 40L55 39ZM9 40L9 41L10 41L10 40ZM28 40L28 41L29 41L29 40ZM22 41L22 43L23 43L23 44L22 44L22 45L23 45L23 44L24 44L24 42L25 42L25 41L24 41L24 42L23 42L23 41ZM30 41L30 42L31 42L31 41ZM12 42L12 43L10 43L10 44L14 44L14 43L13 43L13 42ZM16 42L16 43L18 43L18 42ZM34 42L34 43L33 43L33 44L32 44L32 45L33 45L33 47L34 47L34 44L35 44L35 43L36 43L36 44L37 44L37 42ZM59 42L59 44L60 44L60 45L61 45L61 42ZM45 44L45 45L46 45L46 44ZM52 45L52 46L49 46L49 47L52 47L52 49L51 49L51 50L52 50L52 49L53 49L53 50L56 50L56 51L54 51L54 52L56 52L56 51L58 51L58 50L56 50L56 49L57 49L57 48L56 48L56 49L55 49L55 48L53 48L53 47L54 47L54 45ZM55 45L55 46L56 46L56 45ZM57 46L57 47L58 47L58 46ZM0 47L0 50L1 50L1 49L2 49L2 47ZM20 47L20 49L22 49L22 48L21 48L21 47ZM24 47L24 49L26 49L26 50L25 50L25 52L24 52L24 53L23 53L23 51L24 51L24 50L23 50L23 51L21 51L21 52L20 52L20 51L19 51L19 52L20 52L20 53L18 53L18 52L17 52L17 51L18 51L18 50L19 50L19 49L18 49L18 48L17 48L17 50L16 50L16 52L17 52L17 54L19 54L19 55L20 55L20 56L22 56L22 54L24 54L24 55L25 55L25 54L26 54L26 50L27 50L27 49L26 49L26 48L25 48L25 47ZM11 48L11 49L13 49L13 48ZM40 50L40 51L41 51L41 50ZM3 51L3 52L4 52L4 51ZM42 51L42 52L41 52L41 53L40 53L40 54L41 54L41 55L42 55L42 56L44 56L44 55L42 55L42 54L43 54L43 53L45 53L45 56L46 56L46 54L49 54L49 55L50 55L50 56L51 56L51 55L50 55L50 53L49 53L49 52L48 52L48 53L45 53L45 52L43 52L43 51ZM12 52L12 53L13 53L13 52ZM21 52L21 54L20 54L20 55L21 55L21 54L22 54L22 52ZM42 52L42 53L43 53L43 52ZM57 52L57 53L58 53L58 54L57 54L57 55L58 55L58 58L60 58L60 57L59 57L59 55L60 55L60 54L59 54L59 53L58 53L58 52ZM24 53L24 54L25 54L25 53ZM29 53L29 56L32 56L32 53ZM53 53L53 56L56 56L56 53ZM27 54L27 56L28 56L28 54ZM30 54L30 55L31 55L31 54ZM54 54L54 55L55 55L55 54ZM33 56L33 57L31 57L31 58L30 58L30 57L29 57L29 58L30 58L30 59L32 59L32 58L33 58L33 57L34 57L34 56ZM13 57L13 59L14 59L14 60L16 60L16 59L17 59L17 58L15 58L15 57ZM14 58L14 59L15 59L15 58ZM9 59L9 60L10 60L10 59ZM18 59L18 60L19 60L19 59ZM43 59L43 60L44 60L44 59ZM0 0L0 7L7 7L7 0ZM1 1L1 6L6 6L6 1ZM2 2L2 5L5 5L5 2ZM54 0L54 7L61 7L61 0ZM55 1L55 6L60 6L60 1ZM56 2L56 5L59 5L59 2ZM0 54L0 61L7 61L7 54ZM1 55L1 60L6 60L6 55ZM2 56L2 59L5 59L5 56Z" fill="#000000"/></g></g></svg>
