<?xml version="1.0" encoding="UTF-8"?>
<svg xmlns="http://www.w3.org/2000/svg" version="1.1" width="200" height="200" viewBox="0 0 200 200"><rect x="0" y="0" width="200" height="200" fill="#ffffff"/><g transform="scale(3.279)"><g transform="translate(0,0)"><path fill-rule="evenodd" d="M9 0L9 1L13 1L13 0ZM14 0L14 1L15 1L15 2L14 2L14 4L10 4L10 3L11 3L11 2L9 2L9 3L8 3L8 5L9 5L9 6L8 6L8 7L9 7L9 8L10 8L10 10L6 10L6 9L8 9L8 8L5 8L5 10L4 10L4 9L3 9L3 10L4 10L4 11L5 11L5 12L4 12L4 13L3 13L3 12L1 12L1 10L2 10L2 8L0 8L0 13L3 13L3 14L4 14L4 15L5 15L5 14L4 14L4 13L9 13L9 15L7 15L7 14L6 14L6 15L7 15L7 16L5 16L5 17L7 17L7 16L9 16L9 18L6 18L6 19L5 19L5 18L4 18L4 16L3 16L3 17L2 17L2 15L0 15L0 17L1 17L1 18L0 18L0 21L1 21L1 18L2 18L2 20L3 20L3 21L2 21L2 22L3 22L3 23L2 23L2 26L1 26L1 24L0 24L0 27L1 27L1 29L4 29L4 31L2 31L2 30L1 30L1 31L2 31L2 32L1 32L1 33L0 33L0 34L2 34L2 35L3 35L3 36L4 36L4 37L3 37L3 38L1 38L1 37L2 37L2 36L1 36L1 35L0 35L0 39L1 39L1 40L0 40L0 41L2 41L2 42L3 42L3 40L2 40L2 39L3 39L3 38L4 38L4 40L5 40L5 41L7 41L7 40L6 40L6 39L9 39L9 38L6 38L6 39L5 39L5 38L4 38L4 37L7 37L7 36L5 36L5 35L7 35L7 34L8 34L8 35L9 35L9 34L10 34L10 38L12 38L12 42L9 42L9 44L8 44L8 43L7 43L7 42L6 42L6 43L7 43L7 44L5 44L5 45L4 45L4 43L5 43L5 42L4 42L4 43L0 43L0 44L3 44L3 45L2 45L2 47L1 47L1 46L0 46L0 48L2 48L2 51L0 51L0 53L4 53L4 52L5 52L5 51L7 51L7 52L6 52L6 53L8 53L8 56L9 56L9 57L10 57L10 58L9 58L9 59L8 59L8 61L9 61L9 59L12 59L12 58L13 58L13 60L10 60L10 61L13 61L13 60L17 60L17 61L20 61L20 60L19 60L19 58L17 58L17 56L15 56L15 55L14 55L14 54L16 54L16 55L17 55L17 54L16 54L16 53L15 53L15 52L14 52L14 50L15 50L15 51L16 51L16 52L17 52L17 53L18 53L18 54L20 54L20 55L19 55L19 56L18 56L18 57L20 57L20 59L21 59L21 60L22 60L22 61L23 61L23 60L22 60L22 59L21 59L21 58L22 58L22 57L21 57L21 56L20 56L20 55L21 55L21 54L20 54L20 53L21 53L21 51L19 51L19 50L20 50L20 47L19 47L19 46L21 46L21 44L23 44L23 45L24 45L24 47L23 47L23 48L22 48L22 47L21 47L21 49L22 49L22 50L23 50L23 51L22 51L22 52L24 52L24 51L25 51L25 49L26 49L26 50L27 50L27 51L28 51L28 52L27 52L27 53L26 53L26 54L25 54L25 53L24 53L24 54L23 54L23 53L22 53L22 54L23 54L23 55L22 55L22 56L24 56L24 57L23 57L23 58L25 58L25 59L24 59L24 60L25 60L25 61L30 61L30 60L31 60L31 61L33 61L33 60L34 60L34 61L35 61L35 59L36 59L36 57L38 57L38 59L40 59L40 61L41 61L41 59L42 59L42 60L43 60L43 59L42 59L42 58L43 58L43 57L44 57L44 58L45 58L45 59L44 59L44 61L45 61L45 60L46 60L46 59L47 59L47 60L48 60L48 61L50 61L50 60L51 60L51 61L55 61L55 57L58 57L58 59L59 59L59 56L61 56L61 54L60 54L60 53L61 53L61 52L59 52L59 51L61 51L61 50L59 50L59 49L61 49L61 48L59 48L59 49L58 49L58 47L59 47L59 46L58 46L58 45L59 45L59 44L60 44L60 45L61 45L61 42L60 42L60 41L59 41L59 40L61 40L61 38L60 38L60 37L61 37L61 34L60 34L60 32L61 32L61 30L59 30L59 29L60 29L60 28L59 28L59 27L61 27L61 26L60 26L60 25L61 25L61 22L60 22L60 21L61 21L61 20L60 20L60 19L61 19L61 18L60 18L60 17L61 17L61 16L60 16L60 17L59 17L59 15L61 15L61 14L58 14L58 15L57 15L57 17L56 17L56 18L55 18L55 17L53 17L53 16L51 16L51 14L52 14L52 11L49 11L49 10L53 10L53 9L50 9L50 8L51 8L51 5L52 5L52 4L53 4L53 0L51 0L51 2L50 2L50 1L49 1L49 0L48 0L48 2L50 2L50 3L47 3L47 0L45 0L45 1L46 1L46 4L45 4L45 2L44 2L44 3L43 3L43 4L42 4L42 5L43 5L43 6L42 6L42 7L41 7L41 6L40 6L40 7L39 7L39 5L41 5L41 2L42 2L42 1L44 1L44 0L38 0L38 2L37 2L37 1L36 1L36 0L34 0L34 3L35 3L35 2L37 2L37 3L36 3L36 4L35 4L35 5L34 5L34 7L33 7L33 4L32 4L32 3L33 3L33 2L32 2L32 0L28 0L28 2L27 2L27 1L26 1L26 0L24 0L24 1L23 1L23 2L21 2L21 3L22 3L22 4L21 4L21 5L25 5L25 6L24 6L24 7L23 7L23 6L22 6L22 8L24 8L24 7L25 7L25 6L26 6L26 8L28 8L28 9L27 9L27 12L25 12L25 13L24 13L24 11L25 11L25 9L24 9L24 11L23 11L23 12L22 12L22 14L23 14L23 15L22 15L22 16L23 16L23 15L24 15L24 16L29 16L29 15L28 15L28 13L29 13L29 12L28 12L28 10L29 10L29 9L30 9L30 10L32 10L32 9L33 9L33 11L32 11L32 12L31 12L31 11L30 11L30 12L31 12L31 13L32 13L32 14L33 14L33 12L34 12L34 13L35 13L35 14L34 14L34 15L35 15L35 17L37 17L37 18L35 18L35 20L36 20L36 21L37 21L37 20L36 20L36 19L38 19L38 16L36 16L36 15L35 15L35 14L37 14L37 13L39 13L39 14L38 14L38 15L40 15L40 14L43 14L43 13L44 13L44 14L45 14L45 15L46 15L46 16L45 16L45 17L49 17L49 20L45 20L45 19L46 19L46 18L44 18L44 17L42 17L42 18L40 18L40 17L39 17L39 19L40 19L40 20L38 20L38 22L35 22L35 21L33 21L33 22L34 22L34 23L33 23L33 24L34 24L34 25L32 25L32 24L31 24L31 23L32 23L32 22L30 22L30 21L29 21L29 20L32 20L32 19L34 19L34 17L32 17L32 16L33 16L33 15L30 15L30 16L31 16L31 17L32 17L32 18L31 18L31 19L30 19L30 17L29 17L29 20L28 20L28 19L27 19L27 17L26 17L26 19L27 19L27 21L26 21L26 20L25 20L25 21L23 21L23 22L22 22L22 23L21 23L21 24L20 24L20 22L21 22L21 21L22 21L22 20L21 20L21 19L20 19L20 17L21 17L21 16L20 16L20 15L21 15L21 14L20 14L20 13L19 13L19 11L20 11L20 10L21 10L21 9L20 9L20 8L19 8L19 5L20 5L20 4L19 4L19 3L20 3L20 2L19 2L19 1L22 1L22 0L19 0L19 1L18 1L18 0ZM16 1L16 3L15 3L15 5L16 5L16 6L15 6L15 7L16 7L16 8L17 8L17 7L18 7L18 6L17 6L17 5L19 5L19 4L18 4L18 2L17 2L17 1ZM25 1L25 2L26 2L26 3L27 3L27 2L26 2L26 1ZM29 1L29 2L28 2L28 4L31 4L31 3L30 3L30 2L31 2L31 1ZM39 1L39 2L38 2L38 3L39 3L39 4L37 4L37 7L36 7L36 5L35 5L35 7L34 7L34 9L35 9L35 13L36 13L36 12L37 12L37 11L39 11L39 13L40 13L40 10L41 10L41 13L42 13L42 11L43 11L43 10L46 10L46 9L47 9L47 12L49 12L49 11L48 11L48 10L49 10L49 9L48 9L48 8L49 8L49 7L50 7L50 6L49 6L49 5L48 5L48 4L46 4L46 5L45 5L45 7L46 7L46 5L48 5L48 6L47 6L47 8L46 8L46 9L45 9L45 8L44 8L44 6L43 6L43 7L42 7L42 9L43 9L43 10L41 10L41 7L40 7L40 8L39 8L39 7L38 7L38 5L39 5L39 4L40 4L40 3L39 3L39 2L40 2L40 1ZM23 2L23 3L24 3L24 4L25 4L25 5L27 5L27 7L28 7L28 5L27 5L27 4L25 4L25 3L24 3L24 2ZM16 3L16 4L17 4L17 3ZM51 3L51 4L52 4L52 3ZM9 4L9 5L10 5L10 6L9 6L9 7L10 7L10 8L11 8L11 10L10 10L10 11L6 11L6 12L9 12L9 13L10 13L10 14L11 14L11 15L12 15L12 14L11 14L11 13L13 13L13 14L14 14L14 13L13 13L13 12L14 12L14 11L13 11L13 10L15 10L15 8L14 8L14 9L12 9L12 8L11 8L11 7L12 7L12 6L11 6L11 5L10 5L10 4ZM43 4L43 5L44 5L44 4ZM29 5L29 8L32 8L32 5ZM10 6L10 7L11 7L11 6ZM13 6L13 7L14 7L14 6ZM16 6L16 7L17 7L17 6ZM20 6L20 7L21 7L21 6ZM30 6L30 7L31 7L31 6ZM48 6L48 7L49 7L49 6ZM52 6L52 7L53 7L53 6ZM35 7L35 9L37 9L37 10L36 10L36 11L37 11L37 10L40 10L40 9L38 9L38 7L37 7L37 8L36 8L36 7ZM43 8L43 9L44 9L44 8ZM56 8L56 9L58 9L58 10L59 10L59 9L58 9L58 8ZM17 9L17 11L15 11L15 12L16 12L16 13L15 13L15 14L17 14L17 15L13 15L13 16L11 16L11 17L10 17L10 18L9 18L9 19L6 19L6 20L5 20L5 19L4 19L4 20L5 20L5 21L6 21L6 22L7 22L7 23L6 23L6 24L7 24L7 23L8 23L8 25L5 25L5 24L4 24L4 23L5 23L5 22L4 22L4 23L3 23L3 25L5 25L5 26L4 26L4 27L3 27L3 28L8 28L8 27L9 27L9 24L10 24L10 27L11 27L11 26L12 26L12 28L10 28L10 29L9 29L9 31L10 31L10 32L9 32L9 33L8 33L8 34L9 34L9 33L10 33L10 34L11 34L11 36L12 36L12 38L13 38L13 36L15 36L15 35L17 35L17 36L20 36L20 38L19 38L19 37L16 37L16 38L15 38L15 39L17 39L17 38L19 38L19 39L20 39L20 40L19 40L19 42L18 42L18 41L16 41L16 40L13 40L13 42L12 42L12 43L11 43L11 44L9 44L9 45L8 45L8 44L7 44L7 45L6 45L6 46L9 46L9 48L7 48L7 47L6 47L6 48L5 48L5 47L2 47L2 48L3 48L3 50L7 50L7 51L8 51L8 52L11 52L11 51L12 51L12 53L11 53L11 55L12 55L12 53L14 53L14 52L13 52L13 51L12 51L12 48L13 48L13 50L14 50L14 48L15 48L15 49L16 49L16 50L17 50L17 52L19 52L19 53L20 53L20 52L19 52L19 51L18 51L18 50L19 50L19 49L17 49L17 48L18 48L18 46L19 46L19 45L20 45L20 43L21 43L21 42L22 42L22 41L23 41L23 43L24 43L24 45L26 45L26 46L25 46L25 48L24 48L24 49L25 49L25 48L26 48L26 46L29 46L29 51L30 51L30 48L31 48L31 49L33 49L33 47L32 47L32 45L33 45L33 46L34 46L34 45L33 45L33 44L37 44L37 45L36 45L36 46L35 46L35 48L38 48L38 50L37 50L37 49L34 49L34 50L35 50L35 51L33 51L33 53L34 53L34 56L33 56L33 57L36 57L36 56L37 56L37 55L39 55L39 57L40 57L40 59L41 59L41 58L42 58L42 57L43 57L43 56L42 56L42 55L39 55L39 53L41 53L41 52L39 52L39 53L38 53L38 50L40 50L40 49L39 49L39 48L40 48L40 47L41 47L41 46L40 46L40 47L39 47L39 48L38 48L38 46L37 46L37 45L38 45L38 44L39 44L39 45L41 45L41 44L42 44L42 45L43 45L43 44L44 44L44 45L45 45L45 44L49 44L49 45L50 45L50 43L48 43L48 42L47 42L47 41L46 41L46 43L45 43L45 44L44 44L44 43L43 43L43 42L44 42L44 41L45 41L45 37L44 37L44 36L45 36L45 35L44 35L44 36L43 36L43 37L44 37L44 39L43 39L43 40L42 40L42 39L41 39L41 37L42 37L42 35L41 35L41 33L43 33L43 34L44 34L44 33L45 33L45 34L46 34L46 33L47 33L47 32L48 32L48 31L49 31L49 32L50 32L50 33L51 33L51 34L50 34L50 35L51 35L51 36L50 36L50 37L48 37L48 36L49 36L49 35L46 35L46 36L47 36L47 37L46 37L46 38L47 38L47 39L48 39L48 38L49 38L49 40L50 40L50 42L52 42L52 43L51 43L51 44L52 44L52 45L51 45L51 47L50 47L50 46L49 46L49 47L45 47L45 48L46 48L46 50L45 50L45 49L44 49L44 46L42 46L42 47L43 47L43 50L45 50L45 51L43 51L43 52L44 52L44 53L43 53L43 55L44 55L44 54L45 54L45 56L44 56L44 57L47 57L47 56L46 56L46 55L49 55L49 54L50 54L50 55L51 55L51 56L52 56L52 54L51 54L51 53L50 53L50 51L51 51L51 52L55 52L55 51L53 51L53 50L52 50L52 49L54 49L54 47L53 47L53 46L54 46L54 45L53 45L53 44L55 44L55 46L56 46L56 47L58 47L58 46L56 46L56 44L57 44L57 45L58 45L58 44L59 44L59 43L56 43L56 42L58 42L58 41L56 41L56 38L57 38L57 34L58 34L58 33L57 33L57 34L55 34L55 33L53 33L53 34L52 34L52 30L51 30L51 29L50 29L50 27L51 27L51 25L52 25L52 27L53 27L53 28L54 28L54 27L53 27L53 25L52 25L52 24L54 24L54 25L55 25L55 28L57 28L57 31L58 31L58 32L60 32L60 31L58 31L58 26L59 26L59 24L60 24L60 22L59 22L59 23L58 23L58 25L57 25L57 26L56 26L56 25L55 25L55 24L54 24L54 23L57 23L57 22L58 22L58 20L59 20L59 21L60 21L60 20L59 20L59 19L60 19L60 18L59 18L59 17L58 17L58 18L56 18L56 19L55 19L55 20L54 20L54 19L52 19L52 18L53 18L53 17L50 17L50 16L49 16L49 17L50 17L50 18L51 18L51 19L50 19L50 21L51 21L51 20L53 20L53 22L51 22L51 23L50 23L50 22L49 22L49 23L48 23L48 22L47 22L47 23L45 23L45 24L46 24L46 26L45 26L45 25L44 25L44 23L42 23L42 22L41 22L41 21L43 21L43 20L44 20L44 22L45 22L45 20L44 20L44 18L42 18L42 19L41 19L41 20L40 20L40 21L39 21L39 23L38 23L38 24L39 24L39 25L38 25L38 26L36 26L36 25L34 25L34 26L36 26L36 27L35 27L35 28L34 28L34 27L33 27L33 26L32 26L32 25L31 25L31 24L30 24L30 22L29 22L29 21L28 21L28 22L26 22L26 21L25 21L25 24L24 24L24 23L22 23L22 24L21 24L21 25L20 25L20 26L18 26L18 28L19 28L19 29L16 29L16 27L17 27L17 25L18 25L18 24L19 24L19 23L18 23L18 22L19 22L19 21L18 21L18 20L19 20L19 19L17 19L17 18L16 18L16 19L17 19L17 20L15 20L15 19L14 19L14 18L15 18L15 17L13 17L13 16L16 16L16 17L18 17L18 18L19 18L19 17L18 17L18 16L19 16L19 15L20 15L20 14L19 14L19 13L18 13L18 11L19 11L19 10L18 10L18 9ZM54 9L54 10L55 10L55 9ZM56 10L56 12L54 12L54 11L53 11L53 13L54 13L54 14L55 14L55 15L54 15L54 16L55 16L55 15L56 15L56 13L57 13L57 10ZM60 10L60 11L59 11L59 13L60 13L60 11L61 11L61 10ZM12 11L12 12L13 12L13 11ZM27 12L27 13L28 13L28 12ZM23 13L23 14L24 14L24 13ZM46 13L46 14L48 14L48 15L47 15L47 16L48 16L48 15L50 15L50 14L51 14L51 13L49 13L49 14L48 14L48 13ZM18 14L18 15L19 15L19 14ZM26 14L26 15L27 15L27 14ZM11 17L11 18L10 18L10 19L9 19L9 20L10 20L10 21L7 21L7 20L6 20L6 21L7 21L7 22L8 22L8 23L11 23L11 25L12 25L12 24L13 24L13 27L14 27L14 24L15 24L15 23L14 23L14 22L16 22L16 23L17 23L17 24L18 24L18 23L17 23L17 22L18 22L18 21L15 21L15 20L14 20L14 19L13 19L13 17ZM22 17L22 18L23 18L23 20L24 20L24 19L25 19L25 17ZM11 18L11 20L12 20L12 21L11 21L11 22L12 22L12 23L13 23L13 24L14 24L14 23L13 23L13 22L14 22L14 21L13 21L13 20L12 20L12 18ZM42 19L42 20L43 20L43 19ZM56 19L56 20L58 20L58 19ZM54 21L54 22L53 22L53 23L54 23L54 22L55 22L55 21ZM0 22L0 23L1 23L1 22ZM28 22L28 23L29 23L29 22ZM40 22L40 23L41 23L41 24L40 24L40 25L39 25L39 27L38 27L38 29L37 29L37 28L35 28L35 31L33 31L33 28L31 28L31 27L30 27L30 28L29 28L29 27L24 27L24 28L23 28L23 27L21 27L21 26L20 26L20 29L19 29L19 30L20 30L20 31L19 31L19 32L18 32L18 33L16 33L16 32L14 32L14 30L15 30L15 31L16 31L16 30L15 30L15 28L14 28L14 29L13 29L13 28L12 28L12 30L11 30L11 29L10 29L10 31L11 31L11 33L14 33L14 35L15 35L15 33L16 33L16 34L18 34L18 33L19 33L19 35L20 35L20 34L21 34L21 35L22 35L22 37L21 37L21 38L22 38L22 39L21 39L21 40L20 40L20 41L21 41L21 40L22 40L22 39L23 39L23 38L25 38L25 39L24 39L24 40L25 40L25 39L26 39L26 40L27 40L27 41L26 41L26 43L25 43L25 41L24 41L24 43L25 43L25 44L28 44L28 43L31 43L31 44L29 44L29 45L31 45L31 44L32 44L32 42L28 42L28 40L27 40L27 39L29 39L29 40L30 40L30 41L33 41L33 43L34 43L34 39L35 39L35 38L37 38L37 37L38 37L38 36L39 36L39 35L40 35L40 34L39 34L39 33L37 33L37 32L38 32L38 31L37 31L37 30L38 30L38 29L39 29L39 27L40 27L40 25L41 25L41 27L42 27L42 26L43 26L43 27L44 27L44 25L43 25L43 24L42 24L42 23L41 23L41 22ZM26 23L26 24L25 24L25 25L24 25L24 24L22 24L22 26L23 26L23 25L24 25L24 26L25 26L25 25L26 25L26 26L27 26L27 25L28 25L28 24L27 24L27 23ZM34 23L34 24L37 24L37 23ZM51 23L51 24L52 24L52 23ZM29 24L29 25L30 25L30 24ZM41 24L41 25L42 25L42 24ZM47 24L47 25L49 25L49 26L48 26L48 27L49 27L49 26L50 26L50 24ZM15 25L15 27L16 27L16 25ZM6 26L6 27L8 27L8 26ZM46 26L46 27L45 27L45 28L47 28L47 29L48 29L48 30L49 30L49 28L47 28L47 26ZM21 28L21 29L20 29L20 30L22 30L22 32L21 32L21 31L20 31L20 32L19 32L19 33L20 33L20 32L21 32L21 34L22 34L22 35L23 35L23 36L24 36L24 37L25 37L25 38L26 38L26 37L25 37L25 36L24 36L24 35L23 35L23 33L26 33L26 36L27 36L27 37L28 37L28 35L27 35L27 34L29 34L29 38L30 38L30 36L31 36L31 37L32 37L32 38L33 38L33 35L32 35L32 34L33 34L33 33L32 33L32 34L31 34L31 33L27 33L27 32L28 32L28 31L27 31L27 32L26 32L26 31L25 31L25 32L23 32L23 30L24 30L24 29L28 29L28 28L24 28L24 29L23 29L23 28ZM41 28L41 29L40 29L40 30L44 30L44 32L43 32L43 31L42 31L42 32L43 32L43 33L44 33L44 32L45 32L45 33L46 33L46 32L47 32L47 31L45 31L45 30L46 30L46 29L45 29L45 30L44 30L44 29L43 29L43 28ZM5 29L5 32L8 32L8 29ZM22 29L22 30L23 30L23 29ZM29 29L29 32L32 32L32 29ZM36 29L36 30L37 30L37 29ZM53 29L53 32L56 32L56 29ZM6 30L6 31L7 31L7 30ZM12 30L12 31L13 31L13 30ZM17 30L17 31L18 31L18 30ZM30 30L30 31L31 31L31 30ZM54 30L54 31L55 31L55 30ZM35 31L35 32L34 32L34 33L35 33L35 34L36 34L36 36L38 36L38 34L36 34L36 32L37 32L37 31ZM40 31L40 32L41 32L41 31ZM2 33L2 34L3 34L3 33ZM6 33L6 34L7 34L7 33ZM48 33L48 34L49 34L49 33ZM12 34L12 35L13 35L13 34ZM30 34L30 35L31 35L31 36L32 36L32 35L31 35L31 34ZM51 34L51 35L52 35L52 36L51 36L51 37L53 37L53 38L52 38L52 39L51 39L51 38L50 38L50 40L51 40L51 41L53 41L53 40L55 40L55 38L54 38L54 37L55 37L55 36L53 36L53 35L55 35L55 34L53 34L53 35L52 35L52 34ZM34 35L34 36L35 36L35 35ZM58 35L58 37L60 37L60 36L59 36L59 35ZM8 36L8 37L9 37L9 36ZM40 36L40 37L39 37L39 38L38 38L38 39L39 39L39 38L40 38L40 37L41 37L41 36ZM34 37L34 38L35 38L35 37ZM59 38L59 39L60 39L60 38ZM31 39L31 40L32 40L32 39ZM40 39L40 40L41 40L41 41L42 41L42 42L41 42L41 43L40 43L40 42L38 42L38 41L39 41L39 40L38 40L38 41L37 41L37 40L36 40L36 41L37 41L37 42L35 42L35 43L37 43L37 44L38 44L38 43L40 43L40 44L41 44L41 43L42 43L42 44L43 44L43 43L42 43L42 42L43 42L43 41L44 41L44 40L43 40L43 41L42 41L42 40L41 40L41 39ZM52 39L52 40L53 40L53 39ZM8 40L8 41L9 41L9 40ZM10 40L10 41L11 41L11 40ZM14 41L14 42L13 42L13 44L11 44L11 46L10 46L10 47L11 47L11 48L12 48L12 47L13 47L13 48L14 48L14 47L17 47L17 45L19 45L19 44L15 44L15 43L16 43L16 41ZM14 42L14 43L15 43L15 42ZM19 42L19 43L20 43L20 42ZM53 42L53 43L52 43L52 44L53 44L53 43L55 43L55 44L56 44L56 43L55 43L55 42ZM13 44L13 46L16 46L16 45L15 45L15 44ZM3 45L3 46L4 46L4 45ZM30 46L30 47L31 47L31 48L32 48L32 47L31 47L31 46ZM36 46L36 47L37 47L37 46ZM60 46L60 47L61 47L61 46ZM27 47L27 48L28 48L28 47ZM49 47L49 48L47 48L47 50L46 50L46 52L47 52L47 51L49 51L49 50L50 50L50 49L52 49L52 48L53 48L53 47L51 47L51 48L50 48L50 47ZM4 48L4 49L5 49L5 48ZM6 48L6 49L7 49L7 50L8 50L8 51L9 51L9 50L10 50L10 51L11 51L11 50L10 50L10 48L9 48L9 49L7 49L7 48ZM55 48L55 49L56 49L56 51L58 51L58 50L57 50L57 48ZM0 49L0 50L1 50L1 49ZM27 49L27 50L28 50L28 49ZM48 49L48 50L49 50L49 49ZM31 50L31 51L32 51L32 50ZM36 50L36 51L35 51L35 52L36 52L36 53L35 53L35 55L37 55L37 52L36 52L36 51L37 51L37 50ZM41 50L41 51L42 51L42 50ZM3 51L3 52L4 52L4 51ZM48 52L48 54L49 54L49 52ZM57 52L57 53L58 53L58 52ZM9 53L9 54L10 54L10 53ZM27 53L27 55L28 55L28 53ZM29 53L29 56L32 56L32 53ZM45 53L45 54L46 54L46 53ZM53 53L53 56L56 56L56 53ZM30 54L30 55L31 55L31 54ZM54 54L54 55L55 55L55 54ZM57 54L57 55L58 55L58 56L59 56L59 54ZM9 55L9 56L10 56L10 57L11 57L11 56L10 56L10 55ZM13 55L13 56L14 56L14 59L15 59L15 58L16 58L16 59L17 59L17 58L16 58L16 57L15 57L15 56L14 56L14 55ZM24 55L24 56L26 56L26 57L25 57L25 58L26 58L26 59L25 59L25 60L26 60L26 59L29 59L29 60L30 60L30 59L29 59L29 57L28 57L28 58L27 58L27 56L26 56L26 55ZM49 56L49 57L50 57L50 56ZM51 57L51 58L49 58L49 59L48 59L48 60L49 60L49 59L51 59L51 60L52 60L52 59L53 59L53 57ZM60 57L60 61L61 61L61 57ZM31 58L31 59L34 59L34 58ZM56 59L56 60L57 60L57 59ZM36 60L36 61L37 61L37 60ZM38 60L38 61L39 61L39 60ZM0 0L0 7L7 7L7 0ZM1 1L1 6L6 6L6 1ZM2 2L2 5L5 5L5 2ZM54 0L54 7L61 7L61 0ZM55 1L55 6L60 6L60 1ZM56 2L56 5L59 5L59 2ZM0 54L0 61L7 61L7 54ZM1 55L1 60L6 60L6 55ZM2 56L2 59L5 59L5 56Z" fill="#000000"/></g></g></svg>
