<?xml version="1.0" encoding="UTF-8"?>
<svg xmlns="http://www.w3.org/2000/svg" version="1.1" width="200" height="200" viewBox="0 0 200 200"><rect x="0" y="0" width="200" height="200" fill="#ffffff"/><g transform="scale(3.279)"><g transform="translate(0,0)"><path fill-rule="evenodd" d="M10 0L10 1L8 1L8 2L9 2L9 3L8 3L8 4L10 4L10 3L11 3L11 6L10 6L10 5L8 5L8 7L9 7L9 6L10 6L10 8L6 8L6 9L7 9L7 10L4 10L4 9L5 9L5 8L0 8L0 9L3 9L3 10L1 10L1 11L2 11L2 12L3 12L3 13L2 13L2 14L0 14L0 15L1 15L1 16L2 16L2 17L0 17L0 18L1 18L1 19L0 19L0 20L1 20L1 19L3 19L3 20L2 20L2 21L0 21L0 23L1 23L1 24L0 24L0 27L3 27L3 28L2 28L2 29L1 29L1 32L0 32L0 36L1 36L1 35L3 35L3 36L4 36L4 35L5 35L5 37L7 37L7 38L6 38L6 39L7 39L7 40L6 40L6 41L4 41L4 40L5 40L5 38L4 38L4 37L0 37L0 38L2 38L2 39L3 39L3 40L1 40L1 39L0 39L0 42L1 42L1 43L0 43L0 44L3 44L3 46L2 46L2 45L0 45L0 49L2 49L2 51L0 51L0 53L4 53L4 52L5 52L5 51L7 51L7 52L6 52L6 53L8 53L8 55L11 55L11 56L10 56L10 58L9 58L9 56L8 56L8 61L9 61L9 60L10 60L10 58L12 58L12 61L13 61L13 58L12 58L12 57L14 57L14 60L15 60L15 61L19 61L19 59L18 59L18 60L16 60L16 59L17 59L17 58L15 58L15 57L17 57L17 56L18 56L18 58L20 58L20 59L21 59L21 58L20 58L20 57L19 57L19 56L23 56L23 55L24 55L24 56L25 56L25 57L24 57L24 59L23 59L23 61L24 61L24 59L25 59L25 60L26 60L26 59L25 59L25 57L26 57L26 58L27 58L27 60L29 60L29 61L30 61L30 58L31 58L31 57L34 57L34 56L33 56L33 55L35 55L35 54L34 54L34 53L35 53L35 50L34 50L34 47L35 47L35 46L38 46L38 47L39 47L39 46L38 46L38 45L40 45L40 44L42 44L42 43L41 43L41 42L43 42L43 44L47 44L47 42L46 42L46 43L45 43L45 42L44 42L44 40L45 40L45 39L42 39L42 38L44 38L44 36L45 36L45 35L48 35L48 34L49 34L49 33L50 33L50 31L51 31L51 33L53 33L53 35L52 35L52 34L50 34L50 35L49 35L49 36L47 36L47 37L48 37L48 38L47 38L47 39L46 39L46 41L49 41L49 42L48 42L48 43L49 43L49 44L48 44L48 46L45 46L45 45L44 45L44 46L45 46L45 47L44 47L44 48L43 48L43 47L40 47L40 48L43 48L43 49L40 49L40 51L39 51L39 50L38 50L38 48L37 48L37 47L36 47L36 48L35 48L35 49L37 49L37 50L36 50L36 51L37 51L37 50L38 50L38 52L36 52L36 55L38 55L38 57L39 57L39 56L41 56L41 54L43 54L43 55L42 55L42 56L43 56L43 57L41 57L41 58L38 58L38 59L39 59L39 60L34 60L34 59L36 59L36 58L33 58L33 59L32 59L32 60L33 60L33 61L39 61L39 60L41 60L41 61L42 61L42 60L43 60L43 59L44 59L44 60L45 60L45 59L47 59L47 58L45 58L45 57L44 57L44 56L45 56L45 55L47 55L47 54L48 54L48 55L49 55L49 54L50 54L50 55L51 55L51 58L50 58L50 59L49 59L49 60L48 60L48 61L49 61L49 60L51 60L51 58L53 58L53 57L54 57L54 58L55 58L55 59L53 59L53 61L54 61L54 60L55 60L55 61L61 61L61 56L60 56L60 60L58 60L58 58L59 58L59 56L57 56L57 53L58 53L58 55L59 55L59 54L60 54L60 55L61 55L61 54L60 54L60 53L61 53L61 52L60 52L60 51L61 51L61 50L59 50L59 52L56 52L56 50L55 50L55 49L52 49L52 48L50 48L50 49L51 49L51 50L48 50L48 51L51 51L51 52L50 52L50 53L49 53L49 52L47 52L47 50L45 50L45 51L44 51L44 50L43 50L43 49L44 49L44 48L45 48L45 49L47 49L47 47L48 47L48 46L50 46L50 47L52 47L52 46L53 46L53 47L54 47L54 48L56 48L56 49L57 49L57 51L58 51L58 49L59 49L59 48L57 48L57 47L61 47L61 46L59 46L59 44L60 44L60 45L61 45L61 42L60 42L60 41L59 41L59 40L56 40L56 37L57 37L57 36L56 36L56 37L54 37L54 36L53 36L53 35L55 35L55 33L57 33L57 32L58 32L58 33L61 33L61 32L60 32L60 31L61 31L61 30L60 30L60 28L61 28L61 26L60 26L60 24L57 24L57 23L61 23L61 22L60 22L60 19L61 19L61 18L59 18L59 16L58 16L58 15L61 15L61 14L59 14L59 12L60 12L60 11L61 11L61 10L60 10L60 11L59 11L59 12L57 12L57 9L58 9L58 8L57 8L57 9L56 9L56 8L55 8L55 9L54 9L54 8L53 8L53 6L52 6L52 8L51 8L51 5L52 5L52 4L53 4L53 0L51 0L51 2L50 2L50 4L49 4L49 3L48 3L48 2L49 2L49 1L50 1L50 0L48 0L48 2L47 2L47 1L46 1L46 2L42 2L42 3L41 3L41 0L40 0L40 3L41 3L41 4L39 4L39 3L38 3L38 4L39 4L39 5L36 5L36 7L37 7L37 8L36 8L36 9L35 9L35 8L34 8L34 7L35 7L35 5L33 5L33 4L34 4L34 3L33 3L33 4L32 4L32 1L33 1L33 0L29 0L29 1L28 1L28 0L26 0L26 2L25 2L25 0L21 0L21 2L22 2L22 3L20 3L20 4L19 4L19 3L18 3L18 4L19 4L19 5L16 5L16 4L17 4L17 3L16 3L16 2L14 2L14 3L15 3L15 4L14 4L14 5L15 5L15 6L14 6L14 7L13 7L13 4L12 4L12 3L13 3L13 2L12 2L12 3L11 3L11 1L14 1L14 0ZM15 0L15 1L16 1L16 0ZM37 0L37 1L36 1L36 2L39 2L39 1L38 1L38 0ZM42 0L42 1L43 1L43 0ZM44 0L44 1L45 1L45 0ZM22 1L22 2L23 2L23 3L22 3L22 4L20 4L20 6L19 6L19 7L20 7L20 8L21 8L21 9L20 9L20 10L22 10L22 11L19 11L19 9L16 9L16 8L17 8L17 7L18 7L18 6L17 6L17 7L16 7L16 6L15 6L15 7L16 7L16 8L14 8L14 9L15 9L15 11L13 11L13 13L12 13L12 12L11 12L11 13L8 13L8 14L7 14L7 13L6 13L6 12L7 12L7 11L4 11L4 10L3 10L3 11L4 11L4 13L5 13L5 14L2 14L2 16L3 16L3 15L4 15L4 16L7 16L7 15L8 15L8 14L9 14L9 15L10 15L10 16L9 16L9 17L13 17L13 18L12 18L12 19L11 19L11 20L12 20L12 19L13 19L13 20L14 20L14 19L15 19L15 20L16 20L16 19L15 19L15 18L16 18L16 17L17 17L17 20L19 20L19 21L20 21L20 22L18 22L18 21L16 21L16 22L18 22L18 23L17 23L17 25L15 25L15 24L16 24L16 23L15 23L15 22L13 22L13 21L10 21L10 22L8 22L8 21L9 21L9 20L10 20L10 19L9 19L9 20L8 20L8 19L4 19L4 18L8 18L8 17L3 17L3 19L4 19L4 21L6 21L6 22L3 22L3 21L2 21L2 23L6 23L6 24L7 24L7 23L9 23L9 24L8 24L8 25L6 25L6 26L7 26L7 27L4 27L4 28L3 28L3 29L2 29L2 30L3 30L3 31L4 31L4 30L3 30L3 29L4 29L4 28L7 28L7 27L8 27L8 28L11 28L11 30L10 30L10 29L9 29L9 30L10 30L10 31L9 31L9 33L5 33L5 34L7 34L7 35L6 35L6 36L8 36L8 34L9 34L9 36L10 36L10 38L9 38L9 37L8 37L8 38L7 38L7 39L8 39L8 40L12 40L12 39L13 39L13 40L14 40L14 39L15 39L15 40L21 40L21 41L20 41L20 43L19 43L19 44L21 44L21 45L20 45L20 46L19 46L19 45L15 45L15 47L14 47L14 48L16 48L16 49L15 49L15 50L16 50L16 49L17 49L17 48L18 48L18 46L19 46L19 47L20 47L20 46L21 46L21 45L23 45L23 46L24 46L24 47L23 47L23 48L22 48L22 49L25 49L25 51L24 51L24 50L22 50L22 51L24 51L24 52L22 52L22 53L25 53L25 55L26 55L26 57L27 57L27 56L28 56L28 54L26 54L26 53L27 53L27 52L26 52L26 51L27 51L27 50L28 50L28 52L29 52L29 51L30 51L30 52L31 52L31 51L32 51L32 52L34 52L34 50L33 50L33 49L32 49L32 48L33 48L33 47L31 47L31 49L30 49L30 48L29 48L29 49L27 49L27 48L26 48L26 47L27 47L27 46L28 46L28 45L29 45L29 44L31 44L31 43L32 43L32 46L33 46L33 45L34 45L34 46L35 46L35 44L39 44L39 43L40 43L40 42L41 42L41 40L42 40L42 39L41 39L41 38L40 38L40 39L41 39L41 40L39 40L39 39L37 39L37 38L39 38L39 36L38 36L38 34L39 34L39 35L41 35L41 36L40 36L40 37L41 37L41 36L42 36L42 37L43 37L43 36L44 36L44 33L45 33L45 34L48 34L48 32L49 32L49 31L50 31L50 30L52 30L52 28L51 28L51 27L53 27L53 28L54 28L54 27L53 27L53 25L55 25L55 27L57 27L57 28L60 28L60 27L59 27L59 26L58 26L58 25L57 25L57 24L54 24L54 22L53 22L53 21L55 21L55 20L56 20L56 23L57 23L57 21L58 21L58 22L59 22L59 21L58 21L58 20L59 20L59 19L58 19L58 17L57 17L57 16L56 16L56 13L57 13L57 14L58 14L58 13L57 13L57 12L56 12L56 9L55 9L55 10L54 10L54 9L50 9L50 10L49 10L49 9L48 9L48 10L47 10L47 8L50 8L50 5L49 5L49 7L48 7L48 6L47 6L47 8L46 8L46 9L45 9L45 8L43 8L43 7L44 7L44 6L45 6L45 7L46 7L46 5L47 5L47 2L46 2L46 3L44 3L44 4L45 4L45 5L42 5L42 6L41 6L41 5L40 5L40 6L39 6L39 7L38 7L38 6L37 6L37 7L38 7L38 8L39 8L39 9L38 9L38 10L37 10L37 11L36 11L36 12L37 12L37 13L38 13L38 14L37 14L37 15L36 15L36 14L35 14L35 12L34 12L34 11L33 11L33 9L28 9L28 8L27 8L27 7L28 7L28 6L27 6L27 7L26 7L26 6L25 6L25 8L21 8L21 7L22 7L22 4L25 4L25 5L26 5L26 4L28 4L28 3L27 3L27 2L26 2L26 3L25 3L25 2L23 2L23 1ZM30 1L30 2L31 2L31 1ZM29 3L29 4L31 4L31 3ZM36 3L36 4L37 4L37 3ZM51 3L51 4L52 4L52 3ZM29 5L29 8L32 8L32 5ZM11 6L11 8L10 8L10 9L8 9L8 10L10 10L10 11L11 11L11 10L12 10L12 9L13 9L13 7L12 7L12 6ZM20 6L20 7L21 7L21 6ZM23 6L23 7L24 7L24 6ZM30 6L30 7L31 7L31 6ZM33 6L33 7L34 7L34 6ZM40 6L40 7L39 7L39 8L41 8L41 6ZM42 6L42 7L43 7L43 6ZM59 8L59 9L60 9L60 8ZM10 9L10 10L11 10L11 9ZM22 9L22 10L23 10L23 11L22 11L22 12L23 12L23 13L21 13L21 12L19 12L19 11L18 11L18 10L17 10L17 11L18 11L18 12L16 12L16 13L14 13L14 14L13 14L13 15L12 15L12 14L11 14L11 15L12 15L12 16L13 16L13 17L16 17L16 16L15 16L15 14L16 14L16 13L21 13L21 14L20 14L20 15L21 15L21 14L23 14L23 13L24 13L24 15L23 15L23 16L25 16L25 17L22 17L22 16L19 16L19 15L18 15L18 14L17 14L17 15L18 15L18 17L21 17L21 18L20 18L20 21L22 21L22 22L24 22L24 23L23 23L23 24L25 24L25 25L21 25L21 24L22 24L22 23L21 23L21 24L20 24L20 23L19 23L19 24L18 24L18 25L19 25L19 26L15 26L15 25L13 25L13 26L12 26L12 25L11 25L11 24L10 24L10 25L11 25L11 26L12 26L12 27L11 27L11 28L12 28L12 27L13 27L13 26L14 26L14 29L12 29L12 30L11 30L11 32L10 32L10 33L9 33L9 34L10 34L10 33L11 33L11 35L12 35L12 36L11 36L11 37L12 37L12 38L14 38L14 37L17 37L17 38L18 38L18 39L19 39L19 38L20 38L20 39L22 39L22 38L25 38L25 41L21 41L21 42L25 42L25 41L26 41L26 43L24 43L24 44L23 44L23 45L24 45L24 46L27 46L27 45L24 45L24 44L26 44L26 43L28 43L28 44L29 44L29 43L30 43L30 42L29 42L29 41L31 41L31 42L32 42L32 43L33 43L33 44L34 44L34 43L35 43L35 42L37 42L37 43L39 43L39 42L40 42L40 41L39 41L39 40L38 40L38 41L39 41L39 42L37 42L37 40L34 40L34 39L36 39L36 38L37 38L37 37L38 37L38 36L36 36L36 35L37 35L37 34L38 34L38 33L39 33L39 32L41 32L41 31L40 31L40 30L43 30L43 26L45 26L45 27L44 27L44 28L45 28L45 27L49 27L49 28L46 28L46 29L49 29L49 30L48 30L48 31L49 31L49 30L50 30L50 27L49 27L49 26L50 26L50 24L47 24L47 25L48 25L48 26L45 26L45 25L41 25L41 26L40 26L40 25L39 25L39 26L38 26L38 27L39 27L39 26L40 26L40 28L39 28L39 30L38 30L38 28L34 28L34 27L36 27L36 25L38 25L38 23L39 23L39 24L41 24L41 22L44 22L44 24L46 24L46 23L48 23L48 22L49 22L49 20L47 20L47 21L48 21L48 22L44 22L44 20L45 20L45 21L46 21L46 20L45 20L45 19L47 19L47 18L45 18L45 17L49 17L49 18L48 18L48 19L49 19L49 18L50 18L50 19L51 19L51 20L50 20L50 21L53 21L53 20L52 20L52 19L51 19L51 18L50 18L50 17L49 17L49 16L51 16L51 17L52 17L52 16L54 16L54 18L55 18L55 19L54 19L54 20L55 20L55 19L56 19L56 20L57 20L57 18L55 18L55 17L56 17L56 16L54 16L54 15L53 15L53 14L55 14L55 12L54 12L54 11L52 11L52 10L51 10L51 11L49 11L49 10L48 10L48 11L49 11L49 12L46 12L46 11L47 11L47 10L45 10L45 9L44 9L44 10L45 10L45 13L44 13L44 12L43 12L43 11L42 11L42 12L41 12L41 11L40 11L40 10L38 10L38 11L37 11L37 12L38 12L38 13L39 13L39 14L38 14L38 15L37 15L37 16L35 16L35 14L34 14L34 13L31 13L31 11L32 11L32 12L33 12L33 11L32 11L32 10L31 10L31 11L29 11L29 10L28 10L28 9L26 9L26 12L27 12L27 13L26 13L26 14L28 14L28 15L26 15L26 16L25 16L25 13L24 13L24 10L25 10L25 9ZM34 9L34 10L35 10L35 9ZM42 9L42 10L43 10L43 9ZM28 11L28 12L29 12L29 11ZM38 11L38 12L39 12L39 11ZM51 11L51 12L52 12L52 11ZM0 12L0 13L1 13L1 12ZM40 12L40 13L41 13L41 12ZM42 12L42 13L43 13L43 14L41 14L41 15L42 15L42 16L39 16L39 15L38 15L38 18L37 18L37 17L36 17L36 18L37 18L37 19L36 19L36 20L32 20L32 19L34 19L34 18L35 18L35 16L34 16L34 14L32 14L32 16L30 16L30 17L29 17L29 15L28 15L28 16L26 16L26 17L25 17L25 20L23 20L23 19L24 19L24 18L21 18L21 20L22 20L22 21L25 21L25 24L26 24L26 25L25 25L25 27L24 27L24 29L23 29L23 26L21 26L21 25L20 25L20 24L19 24L19 25L20 25L20 28L19 28L19 29L18 29L18 30L17 30L17 29L14 29L14 30L12 30L12 31L15 31L15 33L14 33L14 34L15 34L15 35L16 35L16 36L17 36L17 35L18 35L18 34L19 34L19 36L21 36L21 35L22 35L22 37L23 37L23 36L24 36L24 37L25 37L25 38L26 38L26 37L27 37L27 38L29 38L29 40L28 40L28 41L27 41L27 39L26 39L26 41L27 41L27 42L28 42L28 43L29 43L29 42L28 42L28 41L29 41L29 40L30 40L30 39L31 39L31 41L33 41L33 43L34 43L34 42L35 42L35 41L33 41L33 39L32 39L32 38L35 38L35 37L36 37L36 36L35 36L35 37L34 37L34 34L35 34L35 32L37 32L37 31L38 31L38 32L39 32L39 31L38 31L38 30L37 30L37 29L34 29L34 28L33 28L33 29L34 29L34 30L33 30L33 33L34 33L34 34L33 34L33 35L31 35L31 36L32 36L32 38L31 38L31 37L29 37L29 34L28 34L28 33L27 33L27 32L28 32L28 29L27 29L27 28L26 28L26 27L27 27L27 26L29 26L29 27L28 27L28 28L29 28L29 27L30 27L30 26L31 26L31 28L32 28L32 27L33 27L33 26L32 26L32 25L31 25L31 24L34 24L34 26L35 26L35 24L34 24L34 23L33 23L33 22L35 22L35 23L36 23L36 24L37 24L37 23L36 23L36 22L35 22L35 21L36 21L36 20L38 20L38 21L37 21L37 22L39 22L39 23L40 23L40 22L41 22L41 20L40 20L40 22L39 22L39 19L43 19L43 18L42 18L42 16L43 16L43 17L45 17L45 16L44 16L44 15L45 15L45 14L48 14L48 13L45 13L45 14L44 14L44 13L43 13L43 12ZM49 12L49 13L50 13L50 14L53 14L53 13L50 13L50 12ZM28 13L28 14L30 14L30 13ZM6 14L6 15L7 15L7 14ZM13 15L13 16L14 16L14 15ZM46 15L46 16L47 16L47 15ZM48 15L48 16L49 16L49 15ZM32 16L32 18L31 18L31 17L30 17L30 19L29 19L29 18L28 18L28 19L26 19L26 20L27 20L27 21L26 21L26 22L27 22L27 23L26 23L26 24L28 24L28 23L29 23L29 24L31 24L31 23L32 23L32 22L33 22L33 21L32 21L32 22L31 22L31 21L29 21L29 20L31 20L31 19L32 19L32 18L33 18L33 17L34 17L34 16ZM60 16L60 17L61 17L61 16ZM39 17L39 18L38 18L38 19L39 19L39 18L40 18L40 17ZM13 18L13 19L14 19L14 18ZM18 18L18 19L19 19L19 18ZM28 19L28 20L29 20L29 19ZM6 20L6 21L7 21L7 20ZM28 21L28 22L29 22L29 21ZM6 22L6 23L7 23L7 22ZM10 22L10 23L12 23L12 24L15 24L15 23L12 23L12 22ZM50 22L50 23L51 23L51 22ZM42 23L42 24L43 24L43 23ZM2 24L2 25L1 25L1 26L2 26L2 25L3 25L3 26L4 26L4 24ZM51 24L51 25L53 25L53 24ZM8 25L8 27L9 27L9 25ZM26 25L26 26L27 26L27 25ZM29 25L29 26L30 26L30 25ZM56 25L56 26L57 26L57 27L58 27L58 26L57 26L57 25ZM41 26L41 28L40 28L40 29L41 29L41 28L42 28L42 26ZM15 27L15 28L17 28L17 27ZM20 28L20 29L21 29L21 32L20 32L20 31L19 31L19 30L18 30L18 31L19 31L19 32L17 32L17 30L15 30L15 31L16 31L16 32L17 32L17 34L18 34L18 33L22 33L22 34L23 34L23 35L24 35L24 36L25 36L25 35L27 35L27 37L28 37L28 34L27 34L27 33L26 33L26 34L25 34L25 33L22 33L22 32L23 32L23 31L22 31L22 30L23 30L23 29L21 29L21 28ZM5 29L5 32L8 32L8 29ZM24 29L24 31L25 31L25 32L26 32L26 31L27 31L27 29ZM29 29L29 32L32 32L32 29ZM44 29L44 32L43 32L43 31L42 31L42 32L43 32L43 33L41 33L41 35L42 35L42 36L43 36L43 35L42 35L42 34L43 34L43 33L44 33L44 32L45 32L45 31L47 31L47 30L45 30L45 29ZM53 29L53 32L56 32L56 29ZM58 29L58 30L59 30L59 29ZM6 30L6 31L7 31L7 30ZM30 30L30 31L31 31L31 30ZM34 30L34 31L36 31L36 30ZM54 30L54 31L55 31L55 30ZM58 31L58 32L59 32L59 31ZM1 32L1 33L2 33L2 34L3 34L3 35L4 35L4 34L3 34L3 32ZM11 32L11 33L12 33L12 32ZM15 33L15 34L16 34L16 33ZM30 33L30 34L32 34L32 33ZM20 34L20 35L21 35L21 34ZM56 34L56 35L57 35L57 34ZM59 34L59 36L58 36L58 38L57 38L57 39L61 39L61 38L59 38L59 36L61 36L61 34ZM13 35L13 36L12 36L12 37L13 37L13 36L14 36L14 35ZM49 36L49 38L48 38L48 39L50 39L50 38L51 38L51 40L49 40L49 41L50 41L50 42L49 42L49 43L51 43L51 44L49 44L49 45L50 45L50 46L52 46L52 45L53 45L53 46L54 46L54 45L53 45L53 44L52 44L52 43L53 43L53 41L54 41L54 40L55 40L55 41L56 41L56 42L55 42L55 43L54 43L54 44L55 44L55 46L56 46L56 47L57 47L57 45L56 45L56 44L57 44L57 43L56 43L56 42L58 42L58 44L59 44L59 43L60 43L60 42L58 42L58 41L56 41L56 40L55 40L55 39L54 39L54 37L53 37L53 36L52 36L52 38L51 38L51 36ZM18 37L18 38L19 38L19 37ZM20 37L20 38L21 38L21 37ZM3 38L3 39L4 39L4 38ZM8 38L8 39L9 39L9 38ZM52 38L52 40L51 40L51 41L53 41L53 38ZM23 39L23 40L24 40L24 39ZM2 41L2 43L3 43L3 42L4 42L4 43L5 43L5 42L4 42L4 41ZM6 41L6 42L10 42L10 43L11 43L11 44L10 44L10 45L13 45L13 46L14 46L14 45L13 45L13 44L12 44L12 43L11 43L11 42L10 42L10 41ZM12 41L12 42L15 42L15 43L14 43L14 44L16 44L16 42L17 42L17 44L18 44L18 42L19 42L19 41L18 41L18 42L17 42L17 41ZM51 42L51 43L52 43L52 42ZM6 43L6 44L7 44L7 45L6 45L6 46L7 46L7 47L3 47L3 48L4 48L4 50L5 50L5 49L6 49L6 50L7 50L7 51L8 51L8 52L9 52L9 51L10 51L10 50L9 50L9 48L10 48L10 49L11 49L11 48L12 48L12 51L13 51L13 53L12 53L12 52L10 52L10 54L11 54L11 55L12 55L12 54L14 54L14 55L16 55L16 56L17 56L17 55L16 55L16 54L18 54L18 55L22 55L22 54L21 54L21 53L20 53L20 52L21 52L21 49L20 49L20 48L19 48L19 49L18 49L18 50L19 50L19 51L20 51L20 52L19 52L19 53L16 53L16 51L15 51L15 54L14 54L14 51L13 51L13 50L14 50L14 49L13 49L13 47L12 47L12 46L11 46L11 48L10 48L10 47L8 47L8 46L9 46L9 45L8 45L8 44L9 44L9 43L8 43L8 44L7 44L7 43ZM21 43L21 44L22 44L22 43ZM4 44L4 46L5 46L5 44ZM51 44L51 45L52 45L52 44ZM7 45L7 46L8 46L8 45ZM30 45L30 46L31 46L31 45ZM41 45L41 46L43 46L43 45ZM16 46L16 48L17 48L17 46ZM24 47L24 48L25 48L25 47ZM45 47L45 48L46 48L46 47ZM6 48L6 49L8 49L8 48ZM48 48L48 49L49 49L49 48ZM60 48L60 49L61 49L61 48ZM26 49L26 50L27 50L27 49ZM29 49L29 50L30 50L30 51L31 51L31 50L30 50L30 49ZM32 50L32 51L33 51L33 50ZM41 50L41 51L43 51L43 52L44 52L44 53L43 53L43 54L44 54L44 53L45 53L45 54L47 54L47 53L46 53L46 51L45 51L45 52L44 52L44 51L43 51L43 50ZM51 50L51 51L53 51L53 52L55 52L55 51L53 51L53 50ZM3 51L3 52L4 52L4 51ZM25 52L25 53L26 53L26 52ZM38 52L38 53L37 53L37 54L39 54L39 55L40 55L40 54L39 54L39 52ZM40 52L40 53L41 53L41 52ZM59 52L59 53L60 53L60 52ZM29 53L29 56L32 56L32 53ZM50 53L50 54L51 54L51 55L52 55L52 53ZM53 53L53 56L56 56L56 53ZM30 54L30 55L31 55L31 54ZM54 54L54 55L55 55L55 54ZM43 55L43 56L44 56L44 55ZM14 56L14 57L15 57L15 56ZM35 56L35 57L37 57L37 56ZM48 56L48 57L50 57L50 56ZM22 57L22 58L23 58L23 57ZM57 57L57 58L56 58L56 59L55 59L55 60L56 60L56 59L57 59L57 58L58 58L58 57ZM28 58L28 59L29 59L29 58ZM41 58L41 60L42 60L42 59L43 59L43 58ZM20 60L20 61L21 61L21 60ZM0 0L0 7L7 7L7 0ZM1 1L1 6L6 6L6 1ZM2 2L2 5L5 5L5 2ZM54 0L54 7L61 7L61 0ZM55 1L55 6L60 6L60 1ZM56 2L56 5L59 5L59 2ZM0 54L0 61L7 61L7 54ZM1 55L1 60L6 60L6 55ZM2 56L2 59L5 59L5 56Z" fill="#000000"/></g></g></svg>
