<?xml version="1.0" encoding="UTF-8"?>
<svg xmlns="http://www.w3.org/2000/svg" version="1.1" width="200" height="200" viewBox="0 0 200 200"><rect x="0" y="0" width="200" height="200" fill="#ffffff"/><g transform="scale(3.077)"><g transform="translate(0,0)"><path fill-rule="evenodd" d="M9 0L9 1L8 1L8 2L9 2L9 3L8 3L8 4L9 4L9 5L8 5L8 7L9 7L9 8L6 8L6 9L7 9L7 10L6 10L6 11L5 11L5 10L4 10L4 9L5 9L5 8L0 8L0 10L1 10L1 12L2 12L2 10L4 10L4 11L3 11L3 12L4 12L4 11L5 11L5 13L3 13L3 14L1 14L1 13L0 13L0 16L1 16L1 17L0 17L0 18L1 18L1 19L0 19L0 20L1 20L1 19L2 19L2 18L3 18L3 16L1 16L1 15L3 15L3 14L4 14L4 15L5 15L5 16L4 16L4 17L5 17L5 18L4 18L4 19L3 19L3 21L2 21L2 22L3 22L3 24L2 24L2 23L1 23L1 22L0 22L0 24L2 24L2 25L0 25L0 26L3 26L3 25L5 25L5 26L6 26L6 27L7 27L7 28L6 28L6 29L5 29L5 30L3 30L3 29L4 29L4 28L5 28L5 27L4 27L4 28L3 28L3 29L2 29L2 30L3 30L3 31L1 31L1 28L0 28L0 31L1 31L1 32L2 32L2 33L1 33L1 35L3 35L3 34L4 34L4 35L7 35L7 36L6 36L6 37L4 37L4 36L3 36L3 37L2 37L2 38L1 38L1 40L0 40L0 41L2 41L2 38L3 38L3 37L4 37L4 41L5 41L5 42L4 42L4 43L2 43L2 44L1 44L1 42L0 42L0 44L1 44L1 46L2 46L2 47L3 47L3 46L4 46L4 48L1 48L1 47L0 47L0 49L1 49L1 50L0 50L0 52L1 52L1 54L2 54L2 55L3 55L3 56L1 56L1 55L0 55L0 56L1 56L1 57L3 57L3 56L4 56L4 57L5 57L5 56L4 56L4 54L5 54L5 55L7 55L7 56L6 56L6 57L7 57L7 56L8 56L8 59L9 59L9 60L8 60L8 65L9 65L9 64L10 64L10 65L11 65L11 64L12 64L12 65L13 65L13 64L15 64L15 65L17 65L17 63L18 63L18 65L19 65L19 64L20 64L20 65L21 65L21 64L22 64L22 62L24 62L24 61L26 61L26 62L25 62L25 63L26 63L26 64L27 64L27 65L29 65L29 63L30 63L30 65L31 65L31 62L34 62L34 61L35 61L35 58L36 58L36 59L39 59L39 60L41 60L41 59L42 59L42 60L43 60L43 61L41 61L41 62L40 62L40 61L39 61L39 62L38 62L38 60L36 60L36 61L37 61L37 62L38 62L38 63L37 63L37 64L35 64L35 65L38 65L38 63L39 63L39 64L41 64L41 65L43 65L43 64L41 64L41 62L43 62L43 63L44 63L44 64L45 64L45 65L47 65L47 64L46 64L46 63L48 63L48 62L50 62L50 63L49 63L49 64L48 64L48 65L49 65L49 64L50 64L50 65L51 65L51 64L53 64L53 65L54 65L54 64L55 64L55 65L56 65L56 62L57 62L57 61L63 61L63 62L62 62L62 63L63 63L63 64L61 64L61 62L60 62L60 63L59 63L59 64L58 64L58 65L60 65L60 64L61 64L61 65L63 65L63 64L64 64L64 60L65 60L65 59L63 59L63 58L65 58L65 55L64 55L64 54L65 54L65 52L64 52L64 51L63 51L63 50L65 50L65 49L64 49L64 48L62 48L62 49L60 49L60 48L59 48L59 47L58 47L58 48L56 48L56 46L57 46L57 45L58 45L58 46L59 46L59 45L58 45L58 44L59 44L59 43L57 43L57 45L55 45L55 44L56 44L56 43L55 43L55 44L53 44L53 43L52 43L52 42L55 42L55 40L53 40L53 39L51 39L51 38L50 38L50 37L52 37L52 36L53 36L53 34L55 34L55 33L53 33L53 34L50 34L50 32L56 32L56 35L54 35L54 37L53 37L53 38L54 38L54 39L55 39L55 36L57 36L57 38L56 38L56 41L57 41L57 42L59 42L59 41L60 41L60 42L61 42L61 43L60 43L60 44L62 44L62 45L60 45L60 46L61 46L61 47L62 47L62 45L63 45L63 46L64 46L64 44L62 44L62 43L63 43L63 42L65 42L65 41L64 41L64 40L65 40L65 39L63 39L63 40L62 40L62 39L61 39L61 38L62 38L62 37L63 37L63 38L64 38L64 37L63 37L63 36L62 36L62 35L63 35L63 33L64 33L64 34L65 34L65 32L62 32L62 30L63 30L63 28L65 28L65 27L63 27L63 26L65 26L65 25L64 25L64 24L62 24L62 23L60 23L60 24L59 24L59 25L63 25L63 26L62 26L62 27L61 27L61 26L60 26L60 27L59 27L59 26L56 26L56 27L59 27L59 30L56 30L56 31L52 31L52 30L55 30L55 29L51 29L51 28L48 28L48 27L49 27L49 24L53 24L53 25L52 25L52 28L55 28L55 27L53 27L53 26L55 26L55 24L56 24L56 25L57 25L57 24L56 24L56 23L55 23L55 22L56 22L56 21L54 21L54 20L53 20L53 19L54 19L54 18L55 18L55 20L56 20L56 19L57 19L57 20L59 20L59 18L61 18L61 16L62 16L62 17L63 17L63 18L62 18L62 19L61 19L61 20L60 20L60 21L61 21L61 22L62 22L62 21L63 21L63 22L65 22L65 21L64 21L64 20L65 20L65 19L63 19L63 18L65 18L65 15L64 15L64 14L65 14L65 13L64 13L64 12L62 12L62 11L63 11L63 10L62 10L62 8L61 8L61 9L60 9L60 8L59 8L59 10L58 10L58 11L54 11L54 12L56 12L56 13L59 13L59 14L60 14L60 15L61 15L61 16L59 16L59 15L54 15L54 14L55 14L55 13L53 13L53 15L52 15L52 13L51 13L51 12L50 12L50 13L49 13L49 12L48 12L48 13L49 13L49 15L48 15L48 16L47 16L47 17L49 17L49 18L48 18L48 19L49 19L49 20L48 20L48 21L47 21L47 22L46 22L46 23L44 23L44 24L43 24L43 23L42 23L42 22L44 22L44 20L46 20L46 19L47 19L47 18L46 18L46 19L45 19L45 18L44 18L44 16L45 16L45 15L47 15L47 14L46 14L46 12L47 12L47 11L48 11L48 9L49 9L49 8L47 8L47 6L46 6L46 5L45 5L45 4L47 4L47 3L46 3L46 2L47 2L47 1L48 1L48 2L51 2L51 3L50 3L50 4L49 4L49 3L48 3L48 4L49 4L49 5L48 5L48 7L49 7L49 5L50 5L50 7L51 7L51 8L50 8L50 9L52 9L52 8L53 8L53 10L52 10L52 12L53 12L53 10L55 10L55 8L54 8L54 7L55 7L55 5L54 5L54 7L53 7L53 4L56 4L56 5L57 5L57 4L56 4L56 3L57 3L57 1L56 1L56 0L55 0L55 1L56 1L56 3L55 3L55 2L54 2L54 1L53 1L53 2L52 2L52 1L50 1L50 0L47 0L47 1L46 1L46 2L44 2L44 3L42 3L42 2L40 2L40 1L44 1L44 0L39 0L39 2L37 2L37 3L35 3L35 4L33 4L33 3L31 3L31 2L30 2L30 3L31 3L31 4L30 4L30 7L29 7L29 6L28 6L28 8L27 8L27 9L26 9L26 8L25 8L25 9L24 9L24 8L23 8L23 9L21 9L21 8L20 8L20 7L21 7L21 6L20 6L20 4L21 4L21 5L22 5L22 4L24 4L24 5L25 5L25 4L29 4L29 3L28 3L28 2L27 2L27 0L22 0L22 2L21 2L21 1L20 1L20 0L18 0L18 1L17 1L17 2L18 2L18 1L20 1L20 2L21 2L21 3L19 3L19 4L18 4L18 3L17 3L17 4L18 4L18 5L19 5L19 6L18 6L18 7L17 7L17 5L14 5L14 4L15 4L15 2L16 2L16 0L14 0L14 1L15 1L15 2L13 2L13 3L12 3L12 2L11 2L11 1L12 1L12 0ZM30 0L30 1L31 1L31 0ZM32 0L32 1L33 1L33 2L34 2L34 1L35 1L35 2L36 2L36 1L35 1L35 0L34 0L34 1L33 1L33 0ZM37 0L37 1L38 1L38 0ZM9 1L9 2L10 2L10 4L11 4L11 5L10 5L10 6L9 6L9 7L10 7L10 9L9 9L9 10L10 10L10 12L7 12L7 11L6 11L6 12L7 12L7 13L6 13L6 14L5 14L5 15L6 15L6 16L5 16L5 17L6 17L6 18L7 18L7 19L6 19L6 20L5 20L5 19L4 19L4 22L5 22L5 21L6 21L6 22L7 22L7 23L5 23L5 25L6 25L6 26L7 26L7 25L9 25L9 24L8 24L8 23L9 23L9 21L10 21L10 24L11 24L11 22L12 22L12 23L13 23L13 24L14 24L14 23L16 23L16 24L17 24L17 25L13 25L13 27L14 27L14 26L16 26L16 27L15 27L15 28L16 28L16 29L14 29L14 30L16 30L16 29L17 29L17 31L18 31L18 32L17 32L17 33L15 33L15 34L14 34L14 32L16 32L16 31L14 31L14 32L13 32L13 34L14 34L14 35L13 35L13 38L12 38L12 34L11 34L11 32L12 32L12 31L11 31L11 32L10 32L10 27L9 27L9 26L8 26L8 27L9 27L9 28L8 28L8 29L6 29L6 30L9 30L9 33L10 33L10 34L9 34L9 35L8 35L8 36L9 36L9 37L6 37L6 38L5 38L5 39L6 39L6 40L5 40L5 41L6 41L6 42L5 42L5 43L4 43L4 44L2 44L2 46L3 46L3 45L4 45L4 44L5 44L5 45L6 45L6 46L5 46L5 47L6 47L6 48L7 48L7 49L5 49L5 48L4 48L4 51L3 51L3 52L4 52L4 53L5 53L5 51L6 51L6 52L7 52L7 53L6 53L6 54L7 54L7 55L8 55L8 56L9 56L9 58L11 58L11 59L10 59L10 60L11 60L11 62L10 62L10 61L9 61L9 62L10 62L10 63L13 63L13 61L12 61L12 58L14 58L14 59L13 59L13 60L14 60L14 59L15 59L15 58L18 58L18 60L19 60L19 61L17 61L17 59L16 59L16 61L15 61L15 62L14 62L14 63L15 63L15 64L16 64L16 63L15 63L15 62L16 62L16 61L17 61L17 62L18 62L18 63L20 63L20 62L19 62L19 61L21 61L21 62L22 62L22 61L24 61L24 59L26 59L26 61L27 61L27 62L28 62L28 61L29 61L29 62L31 62L31 61L30 61L30 59L29 59L29 58L30 58L30 57L27 57L27 50L26 50L26 49L28 49L28 50L29 50L29 51L28 51L28 52L29 52L29 53L28 53L28 54L30 54L30 55L32 55L32 54L33 54L33 55L35 55L35 54L36 54L36 56L35 56L35 57L36 57L36 58L40 58L40 59L41 59L41 58L42 58L42 59L43 59L43 60L44 60L44 61L43 61L43 62L44 62L44 63L45 63L45 62L47 62L47 60L44 60L44 59L46 59L46 58L47 58L47 59L48 59L48 60L50 60L50 58L51 58L51 59L52 59L52 58L51 58L51 57L53 57L53 59L54 59L54 60L52 60L52 61L54 61L54 60L56 60L56 55L57 55L57 56L58 56L58 55L59 55L59 56L60 56L60 55L59 55L59 53L57 53L57 52L56 52L56 51L58 51L58 52L59 52L59 50L58 50L58 49L59 49L59 48L58 48L58 49L56 49L56 48L55 48L55 49L56 49L56 50L52 50L52 49L53 49L53 48L54 48L54 47L55 47L55 46L53 46L53 44L52 44L52 46L51 46L51 45L50 45L50 46L49 46L49 45L48 45L48 44L49 44L49 43L50 43L50 42L52 42L52 41L53 41L53 40L51 40L51 39L50 39L50 38L49 38L49 39L47 39L47 40L44 40L44 39L43 39L43 38L48 38L48 37L45 37L45 36L44 36L44 35L45 35L45 34L47 34L47 35L46 35L46 36L49 36L49 37L50 37L50 36L49 36L49 35L50 35L50 34L49 34L49 33L48 33L48 32L50 32L50 30L51 30L51 29L50 29L50 30L49 30L49 29L48 29L48 28L47 28L47 27L46 27L46 28L47 28L47 29L45 29L45 28L44 28L44 27L43 27L43 26L44 26L44 25L45 25L45 26L47 26L47 23L46 23L46 24L44 24L44 25L43 25L43 24L42 24L42 23L41 23L41 21L43 21L43 20L44 20L44 19L43 19L43 18L41 18L41 20L39 20L39 21L38 21L38 20L37 20L37 18L36 18L36 19L34 19L34 20L32 20L32 19L33 19L33 18L35 18L35 17L36 17L36 14L37 14L37 16L38 16L38 18L39 18L39 15L38 15L38 14L39 14L39 13L40 13L40 14L41 14L41 15L42 15L42 16L40 16L40 17L42 17L42 16L44 16L44 15L45 15L45 14L44 14L44 13L45 13L45 12L46 12L46 11L45 11L45 10L47 10L47 9L45 9L45 8L46 8L46 6L45 6L45 5L44 5L44 6L43 6L43 5L42 5L42 3L39 3L39 4L38 4L38 5L37 5L37 4L35 4L35 9L34 9L34 10L33 10L33 11L34 11L34 12L35 12L35 13L33 13L33 12L32 12L32 11L31 11L31 12L29 12L29 11L30 11L30 10L29 10L29 9L27 9L27 10L28 10L28 12L26 12L26 13L25 13L25 14L26 14L26 17L25 17L25 16L24 16L24 15L23 15L23 14L24 14L24 13L23 13L23 11L24 11L24 12L25 12L25 10L26 10L26 9L25 9L25 10L22 10L22 13L23 13L23 14L22 14L22 15L23 15L23 16L21 16L21 9L20 9L20 8L19 8L19 9L17 9L17 8L16 8L16 6L15 6L15 10L14 10L14 11L12 11L12 10L13 10L13 8L11 8L11 7L12 7L12 6L13 6L13 7L14 7L14 6L13 6L13 4L11 4L11 2L10 2L10 1ZM24 1L24 2L25 2L25 3L24 3L24 4L25 4L25 3L26 3L26 2L25 2L25 1ZM53 2L53 3L52 3L52 4L53 4L53 3L54 3L54 2ZM21 3L21 4L22 4L22 3ZM44 3L44 4L45 4L45 3ZM39 4L39 5L38 5L38 7L37 7L37 5L36 5L36 7L37 7L37 8L36 8L36 10L34 10L34 11L35 11L35 12L36 12L36 13L37 13L37 14L38 14L38 13L39 13L39 12L41 12L41 13L42 13L42 14L43 14L43 11L40 11L40 8L41 8L41 9L42 9L42 10L45 10L45 9L44 9L44 8L45 8L45 6L44 6L44 8L43 8L43 6L42 6L42 7L41 7L41 4ZM50 4L50 5L51 5L51 4ZM11 5L11 6L10 6L10 7L11 7L11 6L12 6L12 5ZM26 5L26 7L27 7L27 5ZM31 5L31 8L34 8L34 5ZM39 5L39 7L40 7L40 5ZM19 6L19 7L20 7L20 6ZM22 6L22 7L23 7L23 6ZM24 6L24 7L25 7L25 6ZM32 6L32 7L33 7L33 6ZM51 6L51 7L52 7L52 6ZM56 6L56 9L58 9L58 8L57 8L57 6ZM38 8L38 9L37 9L37 10L36 10L36 12L37 12L37 10L39 10L39 8ZM63 8L63 9L64 9L64 10L65 10L65 9L64 9L64 8ZM1 9L1 10L2 10L2 9ZM10 9L10 10L11 10L11 9ZM19 9L19 10L18 10L18 11L17 11L17 10L16 10L16 11L17 11L17 14L16 14L16 15L17 15L17 16L18 16L18 17L19 17L19 15L20 15L20 14L18 14L18 13L20 13L20 12L18 12L18 11L20 11L20 9ZM31 9L31 10L32 10L32 9ZM50 10L50 11L51 11L51 10ZM59 10L59 11L58 11L58 12L61 12L61 11L60 11L60 10ZM14 11L14 12L12 12L12 13L8 13L8 14L6 14L6 15L9 15L9 14L10 14L10 15L12 15L12 16L10 16L10 17L9 17L9 16L6 16L6 17L8 17L8 19L9 19L9 18L10 18L10 21L11 21L11 20L12 20L12 19L13 19L13 17L15 17L15 14L14 14L14 12L15 12L15 13L16 13L16 12L15 12L15 11ZM38 11L38 12L39 12L39 11ZM44 11L44 12L45 12L45 11ZM31 12L31 13L30 13L30 14L29 14L29 15L30 15L30 16L29 16L29 18L27 18L27 17L28 17L28 15L27 15L27 17L26 17L26 18L27 18L27 21L29 21L29 20L28 20L28 19L29 19L29 18L30 18L30 20L31 20L31 19L32 19L32 17L31 17L31 15L32 15L32 16L34 16L34 15L35 15L35 14L33 14L33 15L32 15L32 12ZM26 13L26 14L28 14L28 13ZM50 13L50 16L49 16L49 17L50 17L50 18L49 18L49 19L50 19L50 22L49 22L49 23L50 23L50 22L51 22L51 20L52 20L52 21L53 21L53 20L52 20L52 18L51 18L51 17L56 17L56 18L57 18L57 19L58 19L58 18L59 18L59 17L58 17L58 16L57 16L57 17L56 17L56 16L54 16L54 15L53 15L53 16L51 16L51 13ZM60 13L60 14L61 14L61 13ZM62 13L62 14L63 14L63 13ZM12 14L12 15L13 15L13 16L14 16L14 15L13 15L13 14ZM17 14L17 15L18 15L18 14ZM62 15L62 16L64 16L64 15ZM20 16L20 17L21 17L21 18L20 18L20 21L19 21L19 18L18 18L18 19L17 19L17 17L16 17L16 18L14 18L14 20L13 20L13 23L14 23L14 22L16 22L16 21L15 21L15 20L16 20L16 19L17 19L17 20L18 20L18 21L17 21L17 23L18 23L18 25L19 25L19 26L18 26L18 27L16 27L16 28L17 28L17 29L19 29L19 30L20 30L20 31L19 31L19 32L18 32L18 33L21 33L21 30L22 30L22 32L24 32L24 31L23 31L23 30L24 30L24 29L25 29L25 30L27 30L27 31L25 31L25 33L24 33L24 35L23 35L23 33L22 33L22 35L21 35L21 34L20 34L20 35L21 35L21 36L20 36L20 37L18 37L18 36L16 36L16 35L15 35L15 36L16 36L16 37L14 37L14 39L11 39L11 34L10 34L10 37L9 37L9 38L8 38L8 39L7 39L7 38L6 38L6 39L7 39L7 40L6 40L6 41L7 41L7 40L9 40L9 42L6 42L6 43L7 43L7 44L6 44L6 45L8 45L8 43L9 43L9 42L10 42L10 41L11 41L11 43L10 43L10 44L9 44L9 46L10 46L10 47L11 47L11 49L10 49L10 50L9 50L9 51L8 51L8 50L6 50L6 51L7 51L7 52L8 52L8 53L9 53L9 54L8 54L8 55L9 55L9 54L10 54L10 52L13 52L13 53L11 53L11 58L12 58L12 57L14 57L14 58L15 58L15 57L16 57L16 56L17 56L17 54L20 54L20 55L21 55L21 56L20 56L20 57L19 57L19 56L18 56L18 57L19 57L19 58L20 58L20 59L21 59L21 60L22 60L22 58L23 58L23 57L22 57L22 55L23 55L23 56L24 56L24 55L23 55L23 54L25 54L25 56L26 56L26 53L24 53L24 52L26 52L26 51L24 51L24 52L23 52L23 54L22 54L22 55L21 55L21 54L20 54L20 53L22 53L22 52L20 52L20 50L18 50L18 51L17 51L17 50L15 50L15 49L17 49L17 48L16 48L16 47L15 47L15 48L14 48L14 47L13 47L13 46L14 46L14 45L12 45L12 47L11 47L11 46L10 46L10 44L16 44L16 43L14 43L14 42L15 42L15 40L16 40L16 41L17 41L17 42L18 42L18 41L19 41L19 43L17 43L17 45L20 45L20 41L21 41L21 44L23 44L23 45L22 45L22 46L23 46L23 47L24 47L24 48L25 48L25 49L24 49L24 50L25 50L25 49L26 49L26 46L28 46L28 45L26 45L26 44L25 44L25 43L26 43L26 42L27 42L27 43L28 43L28 44L29 44L29 45L30 45L30 46L29 46L29 47L30 47L30 46L32 46L32 47L31 47L31 48L30 48L30 49L31 49L31 50L30 50L30 51L31 51L31 53L30 53L30 54L32 54L32 53L33 53L33 54L34 54L34 53L33 53L33 52L35 52L35 51L36 51L36 50L35 50L35 51L33 51L33 52L32 52L32 49L33 49L33 47L34 47L34 48L35 48L35 47L34 47L34 46L33 46L33 45L30 45L30 44L31 44L31 43L28 43L28 42L27 42L27 41L30 41L30 42L31 42L31 41L33 41L33 42L34 42L34 43L32 43L32 44L34 44L34 43L35 43L35 44L36 44L36 45L37 45L37 46L36 46L36 47L37 47L37 46L38 46L38 47L39 47L39 48L36 48L36 49L37 49L37 51L39 51L39 50L38 50L38 49L40 49L40 48L42 48L42 49L41 49L41 50L43 50L43 51L40 51L40 52L41 52L41 53L40 53L40 54L37 54L37 56L36 56L36 57L38 57L38 56L39 56L39 57L40 57L40 56L41 56L41 54L43 54L43 55L42 55L42 56L43 56L43 57L42 57L42 58L45 58L45 57L44 57L44 56L46 56L46 57L47 57L47 58L48 58L48 59L49 59L49 58L50 58L50 57L49 57L49 56L50 56L50 55L51 55L51 56L54 56L54 58L55 58L55 56L54 56L54 55L53 55L53 54L52 54L52 53L51 53L51 52L53 52L53 53L54 53L54 54L55 54L55 52L53 52L53 51L52 51L52 50L50 50L50 49L51 49L51 48L53 48L53 46L52 46L52 47L51 47L51 46L50 46L50 47L49 47L49 46L48 46L48 45L47 45L47 44L45 44L45 43L43 43L43 45L42 45L42 46L44 46L44 44L45 44L45 45L47 45L47 46L45 46L45 47L44 47L44 48L45 48L45 50L43 50L43 47L39 47L39 46L38 46L38 45L37 45L37 44L39 44L39 43L40 43L40 44L41 44L41 42L38 42L38 43L37 43L37 40L36 40L36 41L35 41L35 39L34 39L34 41L33 41L33 40L29 40L29 39L30 39L30 38L32 38L32 39L33 39L33 38L35 38L35 33L37 33L37 34L36 34L36 35L37 35L37 36L36 36L36 37L38 37L38 35L39 35L39 36L42 36L42 37L41 37L41 38L43 38L43 37L44 37L44 36L43 36L43 35L40 35L40 34L43 34L43 33L44 33L44 34L45 34L45 33L44 33L44 32L45 32L45 31L44 31L44 30L43 30L43 29L42 29L42 30L41 30L41 31L40 31L40 29L39 29L39 30L38 30L38 28L36 28L36 27L39 27L39 28L41 28L41 27L42 27L42 28L43 28L43 27L42 27L42 26L43 26L43 25L42 25L42 26L36 26L36 27L35 27L35 26L34 26L34 24L35 24L35 23L36 23L36 22L38 22L38 23L40 23L40 24L39 24L39 25L40 25L40 24L41 24L41 23L40 23L40 22L38 22L38 21L37 21L37 20L36 20L36 22L35 22L35 23L33 23L33 26L34 26L34 27L35 27L35 28L34 28L34 29L35 29L35 30L33 30L33 29L32 29L32 28L33 28L33 27L32 27L32 28L31 28L31 26L32 26L32 25L29 25L29 24L28 24L28 23L29 23L29 22L26 22L26 21L24 21L24 20L26 20L26 19L24 19L24 20L23 20L23 21L24 21L24 22L25 22L25 23L24 23L24 24L25 24L25 25L21 25L21 24L22 24L22 23L23 23L23 22L22 22L22 23L21 23L21 22L20 22L20 21L22 21L22 20L21 20L21 19L22 19L22 18L25 18L25 17L21 17L21 16ZM10 17L10 18L11 18L11 17ZM30 17L30 18L31 18L31 17ZM50 18L50 19L51 19L51 18ZM42 19L42 20L43 20L43 19ZM62 19L62 20L61 20L61 21L62 21L62 20L63 20L63 19ZM6 20L6 21L7 21L7 22L8 22L8 21L9 21L9 20ZM33 21L33 22L34 22L34 21ZM18 22L18 23L20 23L20 24L19 24L19 25L20 25L20 27L22 27L22 29L24 29L24 28L26 28L26 29L27 29L27 30L28 30L28 29L30 29L30 30L31 30L31 28L29 28L29 25L28 25L28 24L26 24L26 25L25 25L25 26L23 26L23 27L22 27L22 26L21 26L21 25L20 25L20 24L21 24L21 23L20 23L20 22ZM31 22L31 23L30 23L30 24L32 24L32 22ZM52 22L52 23L53 23L53 24L54 24L54 23L53 23L53 22ZM57 22L57 23L59 23L59 22ZM6 24L6 25L7 25L7 24ZM36 24L36 25L38 25L38 24ZM10 25L10 26L11 26L11 28L12 28L12 30L13 30L13 28L12 28L12 25ZM26 25L26 26L25 26L25 27L26 27L26 28L27 28L27 29L28 29L28 28L27 28L27 25ZM50 26L50 27L51 27L51 26ZM18 27L18 28L19 28L19 29L21 29L21 28L19 28L19 27ZM60 27L60 28L61 28L61 29L60 29L60 30L62 30L62 28L63 28L63 27L62 27L62 28L61 28L61 27ZM35 28L35 29L36 29L36 28ZM56 28L56 29L58 29L58 28ZM64 29L64 30L65 30L65 29ZM35 30L35 31L36 31L36 32L37 32L37 31L38 31L38 34L37 34L37 35L38 35L38 34L39 34L39 32L40 32L40 33L41 33L41 32L42 32L42 31L43 31L43 32L44 32L44 31L43 31L43 30L42 30L42 31L41 31L41 32L40 32L40 31L38 31L38 30ZM46 30L46 31L47 31L47 30ZM48 30L48 31L49 31L49 30ZM3 31L3 33L2 33L2 34L3 34L3 33L4 33L4 31ZM5 31L5 34L8 34L8 31ZM27 31L27 32L26 32L26 33L27 33L27 32L28 32L28 31ZM29 31L29 32L30 32L30 31ZM31 31L31 34L34 34L34 31ZM57 31L57 34L60 34L60 31ZM6 32L6 33L7 33L7 32ZM32 32L32 33L33 33L33 32ZM58 32L58 33L59 33L59 32ZM61 32L61 33L62 33L62 32ZM28 33L28 34L29 34L29 36L30 36L30 34L29 34L29 33ZM17 34L17 35L18 35L18 34ZM61 34L61 35L62 35L62 34ZM24 35L24 36L23 36L23 37L22 37L22 36L21 36L21 37L20 37L20 38L21 38L21 39L22 39L22 41L23 41L23 42L22 42L22 43L23 43L23 44L24 44L24 43L25 43L25 42L26 42L26 41L27 41L27 40L28 40L28 39L29 39L29 38L30 38L30 37L28 37L28 39L27 39L27 40L26 40L26 39L25 39L25 40L24 40L24 41L23 41L23 39L24 39L24 37L25 37L25 38L27 38L27 37L25 37L25 36L26 36L26 35ZM31 35L31 37L32 37L32 38L33 38L33 37L34 37L34 36L33 36L33 35ZM58 35L58 38L57 38L57 39L60 39L60 38L59 38L59 37L62 37L62 36L60 36L60 35ZM0 36L0 37L1 37L1 36ZM32 36L32 37L33 37L33 36ZM16 37L16 38L17 38L17 39L16 39L16 40L17 40L17 41L18 41L18 40L19 40L19 41L20 41L20 40L19 40L19 39L18 39L18 37ZM21 37L21 38L22 38L22 39L23 39L23 38L22 38L22 37ZM39 37L39 38L38 38L38 39L40 39L40 40L38 40L38 41L40 41L40 40L41 40L41 39L40 39L40 37ZM9 38L9 39L10 39L10 38ZM36 38L36 39L37 39L37 38ZM14 39L14 40L15 40L15 39ZM25 40L25 41L24 41L24 42L25 42L25 41L26 41L26 40ZM43 40L43 41L42 41L42 42L44 42L44 40ZM47 40L47 41L48 41L48 42L46 42L46 43L49 43L49 42L50 42L50 41L51 41L51 40L50 40L50 41L49 41L49 40ZM57 40L57 41L58 41L58 40ZM60 40L60 41L62 41L62 40ZM12 42L12 43L13 43L13 42ZM35 42L35 43L36 43L36 44L37 44L37 43L36 43L36 42ZM15 45L15 46L16 46L16 45ZM23 45L23 46L24 46L24 45ZM25 45L25 46L26 46L26 45ZM6 46L6 47L8 47L8 46ZM18 46L18 47L20 47L20 46ZM47 46L47 47L48 47L48 48L47 48L47 49L46 49L46 50L47 50L47 51L46 51L46 52L44 52L44 51L43 51L43 52L44 52L44 53L43 53L43 54L47 54L47 52L49 52L49 51L50 51L50 50L49 50L49 49L48 49L48 48L49 48L49 47L48 47L48 46ZM27 47L27 48L28 48L28 49L29 49L29 48L28 48L28 47ZM45 47L45 48L46 48L46 47ZM13 48L13 49L11 49L11 51L13 51L13 49L14 49L14 48ZM18 48L18 49L19 49L19 48ZM20 48L20 49L21 49L21 48ZM31 48L31 49L32 49L32 48ZM22 49L22 50L21 50L21 51L22 51L22 50L23 50L23 49ZM1 50L1 52L2 52L2 50ZM14 50L14 51L15 51L15 50ZM48 50L48 51L49 51L49 50ZM16 51L16 52L17 52L17 53L16 53L16 54L17 54L17 53L18 53L18 52L17 52L17 51ZM62 51L62 52L60 52L60 53L61 53L61 55L62 55L62 56L61 56L61 59L62 59L62 60L63 60L63 59L62 59L62 58L63 58L63 57L62 57L62 56L63 56L63 54L62 54L62 52L63 52L63 53L64 53L64 52L63 52L63 51ZM14 52L14 55L13 55L13 54L12 54L12 55L13 55L13 56L16 56L16 55L15 55L15 52ZM19 52L19 53L20 53L20 52ZM36 52L36 53L37 53L37 52ZM38 52L38 53L39 53L39 52ZM2 53L2 54L3 54L3 53ZM48 53L48 56L49 56L49 55L50 55L50 54L51 54L51 55L52 55L52 54L51 54L51 53L50 53L50 54L49 54L49 53ZM56 53L56 54L57 54L57 55L58 55L58 54L57 54L57 53ZM28 55L28 56L29 56L29 55ZM39 55L39 56L40 56L40 55ZM43 55L43 56L44 56L44 55ZM46 55L46 56L47 56L47 55ZM20 57L20 58L21 58L21 57ZM24 57L24 58L27 58L27 57ZM31 57L31 60L34 60L34 57ZM57 57L57 60L60 60L60 57ZM32 58L32 59L33 59L33 58ZM58 58L58 59L59 59L59 58ZM27 60L27 61L28 61L28 60ZM44 61L44 62L45 62L45 61ZM50 61L50 62L51 62L51 61ZM55 61L55 62L52 62L52 63L53 63L53 64L54 64L54 63L55 63L55 62L56 62L56 61ZM39 62L39 63L40 63L40 62ZM23 63L23 64L24 64L24 63ZM27 63L27 64L28 64L28 63ZM33 63L33 64L32 64L32 65L33 65L33 64L34 64L34 63ZM0 0L0 7L7 7L7 0ZM1 1L1 6L6 6L6 1ZM2 2L2 5L5 5L5 2ZM58 0L58 7L65 7L65 0ZM59 1L59 6L64 6L64 1ZM60 2L60 5L63 5L63 2ZM0 58L0 65L7 65L7 58ZM1 59L1 64L6 64L6 59ZM2 60L2 63L5 63L5 60Z" fill="#000000"/></g></g></svg>
