<?xml version="1.0" encoding="UTF-8"?>
<svg xmlns="http://www.w3.org/2000/svg" version="1.1" width="200" height="200" viewBox="0 0 200 200"><rect x="0" y="0" width="200" height="200" fill="#ffffff"/><g transform="scale(3.279)"><g transform="translate(0,0)"><path fill-rule="evenodd" d="M8 0L8 4L9 4L9 5L8 5L8 7L9 7L9 6L10 6L10 7L11 7L11 8L13 8L13 9L10 9L10 8L9 8L9 9L7 9L7 8L4 8L4 9L7 9L7 10L6 10L6 11L4 11L4 10L3 10L3 9L2 9L2 8L0 8L0 9L2 9L2 10L1 10L1 11L0 11L0 12L2 12L2 13L3 13L3 15L4 15L4 16L3 16L3 18L4 18L4 19L5 19L5 20L2 20L2 21L0 21L0 22L2 22L2 23L0 23L0 24L2 24L2 23L3 23L3 22L4 22L4 21L5 21L5 22L6 22L6 23L7 23L7 24L5 24L5 23L4 23L4 24L3 24L3 27L5 27L5 28L4 28L4 31L3 31L3 29L1 29L1 28L2 28L2 26L0 26L0 27L1 27L1 28L0 28L0 29L1 29L1 30L0 30L0 33L2 33L2 31L3 31L3 33L4 33L4 34L2 34L2 35L0 35L0 37L1 37L1 38L3 38L3 40L4 40L4 41L5 41L5 42L3 42L3 43L2 43L2 42L0 42L0 44L3 44L3 45L1 45L1 46L3 46L3 47L1 47L1 50L2 50L2 51L0 51L0 53L4 53L4 52L5 52L5 51L7 51L7 50L6 50L6 49L7 49L7 48L6 48L6 47L9 47L9 49L8 49L8 50L9 50L9 49L10 49L10 47L9 47L9 46L8 46L8 44L6 44L6 43L7 43L7 42L6 42L6 41L8 41L8 40L5 40L5 39L4 39L4 38L6 38L6 39L8 39L8 38L6 38L6 37L7 37L7 36L9 36L9 37L10 37L10 38L9 38L9 41L10 41L10 40L11 40L11 39L12 39L12 38L13 38L13 37L12 37L12 36L13 36L13 35L12 35L12 34L13 34L13 33L12 33L12 32L15 32L15 33L16 33L16 32L15 32L15 31L16 31L16 29L17 29L17 30L18 30L18 29L20 29L20 30L19 30L19 32L17 32L17 34L16 34L16 35L14 35L14 36L15 36L15 38L14 38L14 39L13 39L13 41L11 41L11 42L10 42L10 43L9 43L9 42L8 42L8 43L9 43L9 45L10 45L10 43L11 43L11 44L12 44L12 43L11 43L11 42L13 42L13 43L14 43L14 44L13 44L13 46L12 46L12 47L11 47L11 49L12 49L12 50L13 50L13 51L16 51L16 50L18 50L18 51L17 51L17 52L16 52L16 53L15 53L15 52L12 52L12 53L11 53L11 54L10 54L10 51L11 51L11 50L10 50L10 51L8 51L8 52L9 52L9 53L8 53L8 54L9 54L9 55L8 55L8 57L9 57L9 59L8 59L8 61L17 61L17 60L18 60L18 61L22 61L22 59L24 59L24 58L25 58L25 59L26 59L26 60L25 60L25 61L27 61L27 59L26 59L26 58L28 58L28 57L29 57L29 60L30 60L30 59L31 59L31 60L32 60L32 61L33 61L33 59L34 59L34 57L33 57L33 56L34 56L34 54L33 54L33 52L32 52L32 51L33 51L33 50L34 50L34 48L36 48L36 49L35 49L35 50L38 50L38 51L36 51L36 53L35 53L35 52L34 52L34 53L35 53L35 56L36 56L36 61L38 61L38 60L37 60L37 56L38 56L38 55L39 55L39 56L40 56L40 51L39 51L39 50L41 50L41 55L42 55L42 57L41 57L41 61L45 61L45 59L46 59L46 57L45 57L45 56L46 56L46 53L47 53L47 51L46 51L46 48L48 48L48 49L47 49L47 50L48 50L48 53L49 53L49 54L50 54L50 55L51 55L51 56L52 56L52 59L51 59L51 60L50 60L50 59L49 59L49 57L50 57L50 58L51 58L51 57L50 57L50 56L49 56L49 55L48 55L48 54L47 54L47 57L48 57L48 59L47 59L47 60L46 60L46 61L53 61L53 60L54 60L54 58L55 58L55 60L56 60L56 61L57 61L57 60L56 60L56 58L55 58L55 57L57 57L57 54L59 54L59 55L58 55L58 61L61 61L61 60L60 60L60 58L61 58L61 57L60 57L60 54L59 54L59 52L61 52L61 51L60 51L60 50L59 50L59 48L60 48L60 49L61 49L61 48L60 48L60 47L59 47L59 43L60 43L60 38L59 38L59 37L56 37L56 36L55 36L55 35L54 35L54 36L53 36L53 37L54 37L54 36L55 36L55 37L56 37L56 39L58 39L58 41L59 41L59 42L58 42L58 45L56 45L56 44L57 44L57 43L53 43L53 42L57 42L57 41L56 41L56 40L55 40L55 39L54 39L54 41L52 41L52 44L53 44L53 45L54 45L54 46L55 46L55 48L54 48L54 47L53 47L53 46L52 46L52 45L51 45L51 44L50 44L50 46L49 46L49 44L47 44L47 43L46 43L46 41L47 41L47 42L49 42L49 40L51 40L51 36L52 36L52 35L53 35L53 33L55 33L55 34L56 34L56 35L58 35L58 36L60 36L60 37L61 37L61 35L58 35L58 34L57 34L57 30L58 30L58 33L60 33L60 34L61 34L61 32L59 32L59 31L60 31L60 30L59 30L59 29L61 29L61 28L60 28L60 27L59 27L59 26L60 26L60 25L61 25L61 23L58 23L58 22L57 22L57 23L55 23L55 22L56 22L56 21L57 21L57 20L58 20L58 21L59 21L59 19L58 19L58 18L59 18L59 16L60 16L60 17L61 17L61 15L60 15L60 13L59 13L59 11L60 11L60 12L61 12L61 11L60 11L60 10L58 10L58 9L61 9L61 8L57 8L57 10L56 10L56 8L55 8L55 9L54 9L54 10L53 10L53 11L52 11L52 9L53 9L53 6L52 6L52 7L51 7L51 5L52 5L52 4L53 4L53 0L51 0L51 2L50 2L50 1L48 1L48 3L49 3L49 4L47 4L47 1L46 1L46 0L41 0L41 1L40 1L40 0L38 0L38 1L36 1L36 2L34 2L34 4L32 4L32 2L33 2L33 1L34 1L34 0L33 0L33 1L32 1L32 0L30 0L30 1L31 1L31 3L30 3L30 2L29 2L29 1L28 1L28 0L27 0L27 1L28 1L28 2L26 2L26 3L24 3L24 4L23 4L23 3L22 3L22 2L19 2L19 1L17 1L17 2L16 2L16 1L15 1L15 0L14 0L14 1L15 1L15 3L17 3L17 2L19 2L19 3L20 3L20 5L25 5L25 4L26 4L26 3L30 3L30 4L28 4L28 8L26 8L26 7L27 7L27 5L26 5L26 7L25 7L25 6L24 6L24 8L25 8L25 9L24 9L24 10L23 10L23 9L21 9L21 8L22 8L22 7L23 7L23 6L22 6L22 7L21 7L21 6L20 6L20 7L19 7L19 6L18 6L18 5L16 5L16 4L15 4L15 5L14 5L14 3L13 3L13 1L12 1L12 0L11 0L11 1L10 1L10 0ZM20 0L20 1L21 1L21 0ZM22 0L22 1L23 1L23 2L25 2L25 1L26 1L26 0ZM38 1L38 2L39 2L39 1ZM41 1L41 2L40 2L40 3L38 3L38 4L39 4L39 5L36 5L36 4L37 4L37 3L36 3L36 4L34 4L34 5L33 5L33 9L32 9L32 11L31 11L31 10L30 10L30 9L26 9L26 11L27 11L27 12L28 12L28 13L25 13L25 10L24 10L24 11L23 11L23 12L21 12L21 11L22 11L22 10L20 10L20 11L19 11L19 13L16 13L16 12L17 12L17 11L18 11L18 9L20 9L20 8L18 8L18 9L16 9L16 8L17 8L17 7L18 7L18 6L17 6L17 7L16 7L16 6L15 6L15 9L13 9L13 10L14 10L14 12L13 12L13 14L15 14L15 16L14 16L14 15L13 15L13 16L12 16L12 17L11 17L11 16L10 16L10 12L11 12L11 14L12 14L12 11L8 11L8 10L7 10L7 11L6 11L6 12L7 12L7 13L5 13L5 12L4 12L4 11L2 11L2 12L4 12L4 14L7 14L7 15L5 15L5 16L7 16L7 17L6 17L6 18L8 18L8 19L9 19L9 20L11 20L11 21L9 21L9 22L7 22L7 21L8 21L8 20L7 20L7 19L6 19L6 20L5 20L5 21L6 21L6 22L7 22L7 23L10 23L10 22L13 22L13 23L12 23L12 24L10 24L10 26L11 26L11 25L13 25L13 27L12 27L12 28L11 28L11 27L10 27L10 28L11 28L11 29L12 29L12 31L14 31L14 30L15 30L15 28L17 28L17 29L18 29L18 28L19 28L19 27L20 27L20 26L21 26L21 25L23 25L23 24L24 24L24 25L25 25L25 28L24 28L24 27L22 27L22 28L20 28L20 29L23 29L23 30L24 30L24 29L25 29L25 30L27 30L27 31L28 31L28 27L30 27L30 28L34 28L34 27L36 27L36 28L37 28L37 29L34 29L34 31L35 31L35 32L33 32L33 33L29 33L29 34L30 34L30 35L29 35L29 36L28 36L28 35L27 35L27 33L28 33L28 32L27 32L27 33L26 33L26 32L25 32L25 31L24 31L24 32L23 32L23 31L22 31L22 33L26 33L26 36L25 36L25 34L23 34L23 36L22 36L22 34L20 34L20 33L21 33L21 30L20 30L20 32L19 32L19 33L18 33L18 35L19 35L19 36L20 36L20 37L18 37L18 36L17 36L17 37L16 37L16 38L15 38L15 41L14 41L14 42L15 42L15 43L16 43L16 44L15 44L15 45L16 45L16 48L14 48L14 49L13 49L13 47L12 47L12 49L13 49L13 50L14 50L14 49L17 49L17 48L18 48L18 47L19 47L19 49L18 49L18 50L19 50L19 51L18 51L18 52L17 52L17 53L16 53L16 55L17 55L17 57L16 57L16 56L13 56L13 55L14 55L14 54L15 54L15 53L14 53L14 54L13 54L13 53L12 53L12 54L11 54L11 56L10 56L10 55L9 55L9 56L10 56L10 58L11 58L11 57L13 57L13 59L17 59L17 57L18 57L18 56L19 56L19 54L20 54L20 56L21 56L21 57L19 57L19 58L18 58L18 59L20 59L20 58L22 58L22 57L26 57L26 55L28 55L28 53L26 53L26 52L25 52L25 51L27 51L27 49L28 49L28 50L29 50L29 51L28 51L28 52L29 52L29 51L30 51L30 52L31 52L31 51L32 51L32 50L31 50L31 49L30 49L30 48L27 48L27 49L26 49L26 47L25 47L25 46L27 46L27 45L25 45L25 44L27 44L27 41L28 41L28 43L29 43L29 42L30 42L30 43L32 43L32 44L31 44L31 46L30 46L30 45L29 45L29 44L28 44L28 45L29 45L29 46L28 46L28 47L29 47L29 46L30 46L30 47L31 47L31 48L32 48L32 49L33 49L33 47L32 47L32 46L33 46L33 44L34 44L34 47L35 47L35 46L37 46L37 48L38 48L38 49L39 49L39 48L40 48L40 49L41 49L41 50L42 50L42 49L43 49L43 51L42 51L42 53L43 53L43 57L44 57L44 58L45 58L45 57L44 57L44 55L45 55L45 54L44 54L44 51L45 51L45 50L44 50L44 47L45 47L45 48L46 48L46 47L49 47L49 46L47 46L47 44L46 44L46 43L45 43L45 44L46 44L46 47L45 47L45 45L44 45L44 46L43 46L43 47L42 47L42 45L43 45L43 44L44 44L44 43L43 43L43 42L45 42L45 41L44 41L44 39L42 39L42 40L41 40L41 38L40 38L40 37L41 37L41 35L40 35L40 34L42 34L42 33L43 33L43 34L45 34L45 33L46 33L46 35L47 35L47 34L48 34L48 35L49 35L49 37L48 37L48 36L47 36L47 37L46 37L46 38L45 38L45 37L44 37L44 35L42 35L42 37L44 37L44 38L45 38L45 39L47 39L47 38L49 38L49 39L50 39L50 29L48 29L48 30L47 30L47 29L46 29L46 30L45 30L45 31L48 31L48 30L49 30L49 33L48 33L48 32L47 32L47 33L46 33L46 32L45 32L45 33L44 33L44 32L42 32L42 31L41 31L41 30L42 30L42 29L43 29L43 28L44 28L44 27L43 27L43 28L41 28L41 27L40 27L40 25L41 25L41 26L42 26L42 25L43 25L43 26L44 26L44 24L41 24L41 23L40 23L40 25L39 25L39 28L37 28L37 27L38 27L38 25L37 25L37 26L36 26L36 25L35 25L35 24L34 24L34 23L35 23L35 22L36 22L36 23L37 23L37 21L38 21L38 20L40 20L40 22L41 22L41 18L40 18L40 19L38 19L38 16L39 16L39 15L40 15L40 17L43 17L43 18L44 18L44 19L42 19L42 20L43 20L43 23L45 23L45 25L46 25L46 27L47 27L47 26L48 26L48 27L50 27L50 28L51 28L51 29L52 29L52 28L54 28L54 27L55 27L55 28L56 28L56 27L57 27L57 29L58 29L58 26L57 26L57 25L58 25L58 23L57 23L57 25L56 25L56 26L53 26L53 25L55 25L55 23L54 23L54 24L53 24L53 25L52 25L52 22L53 22L53 21L55 21L55 19L57 19L57 18L58 18L58 15L59 15L59 14L57 14L57 17L56 17L56 15L54 15L54 16L55 16L55 19L54 19L54 20L53 20L53 21L52 21L52 22L51 22L51 24L50 24L50 21L51 21L51 19L52 19L52 18L53 18L53 15L50 15L50 13L51 13L51 14L53 14L53 13L55 13L55 12L56 12L56 10L55 10L55 12L53 12L53 13L52 13L52 12L51 12L51 10L50 10L50 9L48 9L48 8L47 8L47 9L46 9L46 8L45 8L45 9L43 9L43 8L44 8L44 4L46 4L46 5L45 5L45 7L46 7L46 5L47 5L47 7L48 7L48 5L47 5L47 4L46 4L46 3L44 3L44 1ZM49 2L49 3L50 3L50 2ZM11 3L11 7L12 7L12 5L13 5L13 3ZM21 3L21 4L22 4L22 3ZM40 3L40 4L41 4L41 5L43 5L43 3ZM51 3L51 4L52 4L52 3ZM49 4L49 5L50 5L50 4ZM29 5L29 8L32 8L32 5ZM34 5L34 7L35 7L35 10L37 10L37 9L38 9L38 15L39 15L39 12L40 12L40 7L41 7L41 8L42 8L42 7L43 7L43 6L42 6L42 7L41 7L41 6L40 6L40 5L39 5L39 6L38 6L38 7L37 7L37 6L36 6L36 5ZM13 6L13 8L14 8L14 6ZM30 6L30 7L31 7L31 6ZM35 6L35 7L36 7L36 6ZM39 6L39 7L40 7L40 6ZM49 6L49 7L50 7L50 8L51 8L51 7L50 7L50 6ZM9 9L9 10L10 10L10 9ZM33 9L33 11L32 11L32 12L31 12L31 15L32 15L32 13L33 13L33 16L32 16L32 17L30 17L30 18L29 18L29 19L28 19L28 18L27 18L27 20L26 20L26 21L22 21L22 20L24 20L24 19L26 19L26 17L28 17L28 16L29 16L29 15L28 15L28 14L30 14L30 13L28 13L28 14L25 14L25 13L24 13L24 14L23 14L23 13L22 13L22 14L23 14L23 15L24 15L24 16L23 16L23 17L22 17L22 19L21 19L21 17L20 17L20 16L19 16L19 15L21 15L21 16L22 16L22 15L21 15L21 13L20 13L20 14L19 14L19 15L17 15L17 14L16 14L16 13L15 13L15 12L14 12L14 13L15 13L15 14L16 14L16 16L17 16L17 17L13 17L13 18L14 18L14 19L16 19L16 18L17 18L17 17L20 17L20 19L21 19L21 21L20 21L20 20L19 20L19 18L18 18L18 19L17 19L17 20L16 20L16 21L14 21L14 23L13 23L13 24L14 24L14 25L15 25L15 26L14 26L14 27L15 27L15 26L16 26L16 25L17 25L17 26L19 26L19 25L21 25L21 24L22 24L22 22L26 22L26 21L27 21L27 22L29 22L29 23L26 23L26 24L25 24L25 25L27 25L27 24L30 24L30 23L32 23L32 24L33 24L33 26L34 26L34 24L33 24L33 23L32 23L32 21L33 21L33 22L34 22L34 21L35 21L35 20L36 20L36 21L37 21L37 18L35 18L35 19L33 19L33 20L32 20L32 19L31 19L31 18L32 18L32 17L33 17L33 18L34 18L34 17L35 17L35 16L36 16L36 17L37 17L37 15L36 15L36 14L37 14L37 11L36 11L36 12L35 12L35 11L34 11L34 9ZM42 9L42 11L41 11L41 12L42 12L42 11L43 11L43 12L44 12L44 13L42 13L42 15L41 15L41 14L40 14L40 15L41 15L41 16L43 16L43 14L44 14L44 13L45 13L45 15L44 15L44 18L46 18L46 17L45 17L45 16L48 16L48 19L47 19L47 21L49 21L49 20L50 20L50 19L51 19L51 18L52 18L52 17L50 17L50 15L49 15L49 14L48 14L48 15L46 15L46 12L47 12L47 13L50 13L50 12L49 12L49 10L46 10L46 9L45 9L45 10L46 10L46 12L45 12L45 11L43 11L43 9ZM15 10L15 11L16 11L16 10ZM27 10L27 11L28 11L28 12L29 12L29 11L28 11L28 10ZM57 10L57 13L58 13L58 10ZM8 12L8 15L7 15L7 16L8 16L8 15L9 15L9 12ZM33 12L33 13L34 13L34 16L35 16L35 13L34 13L34 12ZM0 13L0 17L1 17L1 19L2 19L2 15L1 15L1 13ZM24 14L24 15L25 15L25 14ZM26 15L26 16L24 16L24 17L26 17L26 16L28 16L28 15ZM9 16L9 17L8 17L8 18L9 18L9 19L10 19L10 18L11 18L11 17L10 17L10 16ZM4 17L4 18L5 18L5 17ZM9 17L9 18L10 18L10 17ZM49 17L49 19L48 19L48 20L49 20L49 19L50 19L50 17ZM23 18L23 19L24 19L24 18ZM11 19L11 20L12 20L12 21L13 21L13 19ZM30 19L30 21L29 21L29 20L27 20L27 21L29 21L29 22L31 22L31 21L32 21L32 20L31 20L31 19ZM44 19L44 21L45 21L45 22L46 22L46 19ZM60 19L60 21L61 21L61 19ZM6 20L6 21L7 21L7 20ZM17 20L17 21L16 21L16 23L17 23L17 25L18 25L18 24L20 24L20 23L21 23L21 22L22 22L22 21L21 21L21 22L20 22L20 21L18 21L18 20ZM17 22L17 23L18 23L18 22ZM47 22L47 23L46 23L46 24L47 24L47 23L48 23L48 25L50 25L50 26L51 26L51 27L53 27L53 26L51 26L51 25L50 25L50 24L49 24L49 23L48 23L48 22ZM14 23L14 24L15 24L15 25L16 25L16 24L15 24L15 23ZM4 24L4 25L5 25L5 24ZM7 24L7 25L6 25L6 26L7 26L7 25L8 25L8 27L6 27L6 28L8 28L8 27L9 27L9 24ZM59 24L59 25L60 25L60 24ZM29 25L29 26L30 26L30 27L31 27L31 26L32 26L32 25L31 25L31 26L30 26L30 25ZM27 26L27 27L28 27L28 26ZM25 28L25 29L27 29L27 28ZM5 29L5 32L8 32L8 29ZM13 29L13 30L14 30L14 29ZM29 29L29 32L32 32L32 29ZM38 29L38 31L36 31L36 30L35 30L35 31L36 31L36 33L37 33L37 34L38 34L38 35L39 35L39 37L38 37L38 36L37 36L37 35L36 35L36 34L35 34L35 35L34 35L34 33L33 33L33 34L31 34L31 36L29 36L29 37L31 37L31 38L28 38L28 37L27 37L27 36L26 36L26 37L22 37L22 36L21 36L21 37L20 37L20 38L21 38L21 40L20 40L20 41L18 41L18 40L19 40L19 38L18 38L18 39L16 39L16 41L15 41L15 42L16 42L16 43L17 43L17 44L16 44L16 45L17 45L17 44L18 44L18 45L19 45L19 43L20 43L20 42L21 42L21 44L22 44L22 42L26 42L26 41L27 41L27 39L28 39L28 41L29 41L29 40L30 40L30 41L31 41L31 42L32 42L32 43L34 43L34 44L36 44L36 45L37 45L37 46L38 46L38 47L40 47L40 45L38 45L38 44L39 44L39 43L41 43L41 44L42 44L42 42L43 42L43 41L40 41L40 40L38 40L38 43L36 43L36 42L35 42L35 43L34 43L34 41L32 41L32 39L33 39L33 40L35 40L35 41L37 41L37 39L36 39L36 38L38 38L38 39L39 39L39 37L40 37L40 35L39 35L39 34L40 34L40 29ZM53 29L53 32L56 32L56 29ZM6 30L6 31L7 31L7 30ZM9 30L9 33L6 33L6 34L5 34L5 35L6 35L6 36L7 36L7 35L9 35L9 34L10 34L10 36L12 36L12 35L11 35L11 34L12 34L12 33L11 33L11 32L10 32L10 31L11 31L11 30ZM30 30L30 31L31 31L31 30ZM54 30L54 31L55 31L55 30ZM38 32L38 33L39 33L39 32ZM41 32L41 33L42 33L42 32ZM51 32L51 35L52 35L52 32ZM6 34L6 35L7 35L7 34ZM3 35L3 36L4 36L4 37L3 37L3 38L4 38L4 37L5 37L5 36L4 36L4 35ZM32 35L32 36L31 36L31 37L32 37L32 36L34 36L34 39L35 39L35 40L36 40L36 39L35 39L35 37L36 37L36 36L34 36L34 35ZM1 36L1 37L2 37L2 36ZM11 37L11 38L12 38L12 37ZM21 37L21 38L22 38L22 37ZM26 37L26 38L24 38L24 39L23 39L23 40L21 40L21 42L22 42L22 41L25 41L25 40L26 40L26 38L27 38L27 37ZM31 38L31 39L32 39L32 38ZM52 38L52 39L53 39L53 38ZM58 38L58 39L59 39L59 38ZM1 39L1 40L2 40L2 39ZM47 40L47 41L48 41L48 40ZM16 41L16 42L18 42L18 43L19 43L19 42L18 42L18 41ZM39 41L39 42L40 42L40 41ZM50 41L50 42L51 42L51 41ZM4 43L4 46L7 46L7 45L5 45L5 43ZM23 43L23 44L24 44L24 43ZM60 44L60 45L61 45L61 44ZM20 45L20 46L19 46L19 47L20 47L20 46L21 46L21 45ZM22 45L22 46L23 46L23 47L22 47L22 48L23 48L23 50L25 50L25 49L24 49L24 48L25 48L25 47L24 47L24 46L25 46L25 45L24 45L24 46L23 46L23 45ZM14 46L14 47L15 47L15 46ZM17 46L17 47L18 47L18 46ZM56 46L56 47L57 47L57 48L56 48L56 49L58 49L58 46ZM41 47L41 48L42 48L42 47ZM51 47L51 51L50 51L50 49L48 49L48 50L49 50L49 51L50 51L50 52L49 52L49 53L50 53L50 52L51 52L51 53L52 53L52 52L53 52L53 51L55 51L55 52L56 52L56 51L55 51L55 50L53 50L53 51L52 51L52 49L53 49L53 47ZM3 48L3 49L2 49L2 50L5 50L5 49L6 49L6 48ZM20 49L20 51L21 51L21 53L20 53L20 54L21 54L21 53L22 53L22 54L26 54L26 53L22 53L22 52L24 52L24 51L21 51L21 49ZM30 50L30 51L31 51L31 50ZM57 50L57 51L59 51L59 50ZM3 51L3 52L4 52L4 51ZM51 51L51 52L52 52L52 51ZM6 52L6 53L7 53L7 52ZM18 52L18 53L19 53L19 52ZM37 52L37 53L36 53L36 55L37 55L37 53L38 53L38 52ZM57 52L57 53L58 53L58 52ZM29 53L29 56L32 56L32 53ZM53 53L53 56L56 56L56 53ZM17 54L17 55L18 55L18 54ZM30 54L30 55L31 55L31 54ZM51 54L51 55L52 55L52 54ZM54 54L54 55L55 55L55 54ZM21 55L21 56L23 56L23 55ZM27 56L27 57L28 57L28 56ZM14 57L14 58L16 58L16 57ZM32 57L32 58L31 58L31 59L33 59L33 57ZM38 57L38 59L39 59L39 57ZM59 57L59 58L60 58L60 57ZM9 59L9 60L11 60L11 59ZM42 59L42 60L44 60L44 59ZM23 60L23 61L24 61L24 60ZM34 60L34 61L35 61L35 60ZM0 0L0 7L7 7L7 0ZM1 1L1 6L6 6L6 1ZM2 2L2 5L5 5L5 2ZM54 0L54 7L61 7L61 0ZM55 1L55 6L60 6L60 1ZM56 2L56 5L59 5L59 2ZM0 54L0 61L7 61L7 54ZM1 55L1 60L6 60L6 55ZM2 56L2 59L5 59L5 56Z" fill="#000000"/></g></g></svg>
