<?xml version="1.0" encoding="UTF-8"?>
<svg xmlns="http://www.w3.org/2000/svg" version="1.1" width="200" height="200" viewBox="0 0 200 200"><rect x="0" y="0" width="200" height="200" fill="#ffffff"/><g transform="scale(3.279)"><g transform="translate(0,0)"><path fill-rule="evenodd" d="M8 0L8 4L9 4L9 5L8 5L8 7L9 7L9 8L10 8L10 10L9 10L9 9L8 9L8 12L6 12L6 11L7 11L7 10L6 10L6 9L7 9L7 8L4 8L4 9L5 9L5 10L4 10L4 11L5 11L5 12L4 12L4 13L5 13L5 14L4 14L4 15L3 15L3 13L2 13L2 10L3 10L3 9L2 9L2 8L0 8L0 9L2 9L2 10L0 10L0 11L1 11L1 13L0 13L0 17L1 17L1 16L2 16L2 15L3 15L3 16L4 16L4 18L3 18L3 17L2 17L2 18L3 18L3 19L4 19L4 20L5 20L5 18L6 18L6 19L7 19L7 18L8 18L8 21L9 21L9 23L11 23L11 24L9 24L9 25L8 25L8 24L6 24L6 23L7 23L7 22L6 22L6 23L5 23L5 24L6 24L6 25L5 25L5 27L8 27L8 28L3 28L3 27L4 27L4 25L3 25L3 24L2 24L2 22L1 22L1 21L2 21L2 20L1 20L1 18L0 18L0 26L2 26L2 27L1 27L1 28L2 28L2 29L0 29L0 30L1 30L1 31L0 31L0 32L2 32L2 30L4 30L4 31L3 31L3 32L4 32L4 33L5 33L5 34L3 34L3 33L2 33L2 34L1 34L1 33L0 33L0 34L1 34L1 35L0 35L0 38L1 38L1 39L3 39L3 41L2 41L2 40L1 40L1 41L0 41L0 43L1 43L1 45L0 45L0 47L1 47L1 45L2 45L2 46L3 46L3 48L4 48L4 50L2 50L2 51L0 51L0 53L4 53L4 52L5 52L5 51L7 51L7 52L6 52L6 53L7 53L7 52L12 52L12 53L11 53L11 54L10 54L10 56L9 56L9 55L8 55L8 57L9 57L9 58L10 58L10 59L8 59L8 61L10 61L10 60L11 60L11 59L13 59L13 60L12 60L12 61L13 61L13 60L14 60L14 61L17 61L17 58L19 58L19 57L21 57L21 58L20 58L20 59L19 59L19 60L18 60L18 61L20 61L20 60L22 60L22 59L21 59L21 58L24 58L24 60L23 60L23 61L24 61L24 60L25 60L25 61L27 61L27 59L28 59L28 58L29 58L29 60L30 60L30 59L31 59L31 58L32 58L32 57L33 57L33 58L34 58L34 56L36 56L36 57L35 57L35 58L38 58L38 59L39 59L39 60L40 60L40 55L41 55L41 56L43 56L43 53L41 53L41 54L40 54L40 52L38 52L38 53L37 53L37 51L36 51L36 50L35 50L35 52L36 52L36 53L37 53L37 55L36 55L36 54L35 54L35 55L34 55L34 54L33 54L33 52L30 52L30 51L29 51L29 52L28 52L28 50L29 50L29 49L31 49L31 50L32 50L32 51L34 51L34 50L33 50L33 49L34 49L34 48L35 48L35 49L38 49L38 50L39 50L39 51L42 51L42 52L44 52L44 53L45 53L45 54L46 54L46 51L44 51L44 50L46 50L46 49L45 49L45 48L47 48L47 50L48 50L48 51L47 51L47 53L49 53L49 54L50 54L50 55L48 55L48 54L47 54L47 55L46 55L46 56L45 56L45 55L44 55L44 57L42 57L42 58L41 58L41 60L43 60L43 61L45 61L45 59L47 59L47 61L52 61L52 60L53 60L53 61L54 61L54 60L53 60L53 59L55 59L55 61L57 61L57 59L56 59L56 58L58 58L58 61L61 61L61 60L60 60L60 58L61 58L61 56L59 56L59 55L58 55L58 57L57 57L57 54L59 54L59 53L60 53L60 52L61 52L61 51L60 51L60 50L59 50L59 51L58 51L58 50L57 50L57 49L56 49L56 48L57 48L57 47L56 47L56 46L58 46L58 48L59 48L59 46L60 46L60 45L61 45L61 44L60 44L60 45L59 45L59 43L60 43L60 39L58 39L58 38L59 38L59 36L60 36L60 37L61 37L61 35L60 35L60 33L61 33L61 32L59 32L59 30L58 30L58 32L57 32L57 27L58 27L58 29L59 29L59 28L60 28L60 29L61 29L61 27L58 27L58 26L57 26L57 27L56 27L56 28L54 28L54 27L53 27L53 26L56 26L56 25L57 25L57 23L58 23L58 25L59 25L59 26L60 26L60 22L59 22L59 23L58 23L58 22L57 22L57 18L58 18L58 21L59 21L59 20L61 20L61 19L60 19L60 18L58 18L58 17L57 17L57 15L58 15L58 16L59 16L59 15L58 15L58 14L57 14L57 12L58 12L58 13L59 13L59 14L60 14L60 13L59 13L59 11L60 11L60 12L61 12L61 11L60 11L60 10L59 10L59 9L61 9L61 8L57 8L57 10L56 10L56 8L55 8L55 9L54 9L54 10L52 10L52 9L53 9L53 8L52 8L52 7L53 7L53 6L52 6L52 7L51 7L51 5L52 5L52 4L53 4L53 0L51 0L51 2L50 2L50 3L49 3L49 4L50 4L50 5L48 5L48 4L47 4L47 5L46 5L46 4L45 4L45 5L46 5L46 7L45 7L45 6L44 6L44 9L45 9L45 10L43 10L43 6L42 6L42 8L41 8L41 10L40 10L40 7L41 7L41 5L44 5L44 3L45 3L45 1L44 1L44 0L42 0L42 1L43 1L43 2L44 2L44 3L42 3L42 2L41 2L41 3L40 3L40 2L39 2L39 0L38 0L38 1L37 1L37 0L35 0L35 1L36 1L36 2L34 2L34 4L33 4L33 1L34 1L34 0L33 0L33 1L32 1L32 0L30 0L30 1L32 1L32 2L31 2L31 3L29 3L29 1L28 1L28 2L27 2L27 1L26 1L26 0L20 0L20 1L18 1L18 0L17 0L17 2L16 2L16 1L15 1L15 0L14 0L14 1L15 1L15 2L14 2L14 3L11 3L11 4L10 4L10 3L9 3L9 2L10 2L10 1L11 1L11 0L10 0L10 1L9 1L9 0ZM12 0L12 1L13 1L13 0ZM40 0L40 1L41 1L41 0ZM49 0L49 1L48 1L48 2L49 2L49 1L50 1L50 0ZM21 1L21 2L19 2L19 3L18 3L18 2L17 2L17 3L16 3L16 4L15 4L15 3L14 3L14 4L11 4L11 5L10 5L10 6L9 6L9 7L10 7L10 6L11 6L11 7L12 7L12 9L14 9L14 10L12 10L12 11L11 11L11 12L8 12L8 13L6 13L6 14L5 14L5 15L6 15L6 16L7 16L7 17L6 17L6 18L7 18L7 17L9 17L9 15L10 15L10 14L9 14L9 15L8 15L8 13L11 13L11 12L12 12L12 11L13 11L13 13L14 13L14 14L15 14L15 13L16 13L16 16L14 16L14 15L13 15L13 14L12 14L12 15L13 15L13 16L10 16L10 18L9 18L9 20L13 20L13 19L15 19L15 20L17 20L17 18L18 18L18 19L19 19L19 21L13 21L13 22L12 22L12 21L10 21L10 22L11 22L11 23L12 23L12 24L11 24L11 26L13 26L13 25L14 25L14 29L13 29L13 32L12 32L12 31L11 31L11 28L12 28L12 27L9 27L9 26L8 26L8 27L9 27L9 29L10 29L10 31L9 31L9 32L10 32L10 35L8 35L8 36L7 36L7 35L4 35L4 36L3 36L3 35L2 35L2 36L3 36L3 37L6 37L6 38L3 38L3 39L4 39L4 41L3 41L3 42L2 42L2 41L1 41L1 42L2 42L2 43L4 43L4 44L8 44L8 46L7 46L7 45L5 45L5 46L7 46L7 47L5 47L5 48L7 48L7 49L6 49L6 50L7 50L7 49L8 49L8 46L9 46L9 44L10 44L10 47L9 47L9 49L11 49L11 50L13 50L13 49L14 49L14 48L15 48L15 49L17 49L17 50L16 50L16 51L15 51L15 53L16 53L16 54L17 54L17 53L16 53L16 52L20 52L20 53L18 53L18 55L17 55L17 57L16 57L16 58L14 58L14 56L15 56L15 54L14 54L14 52L13 52L13 53L12 53L12 54L11 54L11 55L12 55L12 56L11 56L11 57L10 57L10 58L12 58L12 57L13 57L13 58L14 58L14 59L15 59L15 60L16 60L16 58L17 58L17 57L18 57L18 56L19 56L19 54L20 54L20 56L21 56L21 57L26 57L26 56L27 56L27 58L26 58L26 59L27 59L27 58L28 58L28 56L27 56L27 55L28 55L28 52L27 52L27 49L26 49L26 48L27 48L27 47L26 47L26 48L25 48L25 47L24 47L24 45L25 45L25 46L27 46L27 45L25 45L25 44L26 44L26 43L27 43L27 44L28 44L28 45L30 45L30 46L28 46L28 47L30 47L30 48L31 48L31 47L32 47L32 49L33 49L33 48L34 48L34 47L35 47L35 45L34 45L34 44L33 44L33 43L32 43L32 40L33 40L33 41L34 41L34 43L35 43L35 44L38 44L38 45L39 45L39 46L40 46L40 45L41 45L41 48L40 48L40 49L39 49L39 48L38 48L38 49L39 49L39 50L40 50L40 49L44 49L44 48L45 48L45 46L46 46L46 47L47 47L47 45L46 45L46 44L45 44L45 45L44 45L44 44L43 44L43 43L42 43L42 41L43 41L43 42L44 42L44 43L46 43L46 42L48 42L48 43L47 43L47 44L48 44L48 43L49 43L49 44L50 44L50 45L49 45L49 46L48 46L48 48L50 48L50 49L53 49L53 51L52 51L52 50L51 50L51 51L52 51L52 52L50 52L50 51L48 51L48 52L50 52L50 53L52 53L52 52L53 52L53 51L57 51L57 50L55 50L55 46L54 46L54 45L53 45L53 43L55 43L55 44L56 44L56 45L58 45L58 46L59 46L59 45L58 45L58 42L59 42L59 41L58 41L58 39L57 39L57 38L56 38L56 37L55 37L55 36L57 36L57 37L58 37L58 36L57 36L57 35L56 35L56 33L53 33L53 34L54 34L54 35L52 35L52 36L51 36L51 35L50 35L50 34L49 34L49 33L50 33L50 32L51 32L51 31L52 31L52 30L51 30L51 31L50 31L50 30L48 30L48 29L46 29L46 28L47 28L47 27L52 27L52 28L51 28L51 29L52 29L52 28L53 28L53 27L52 27L52 26L53 26L53 25L55 25L55 23L56 23L56 19L55 19L55 23L54 23L54 24L53 24L53 25L52 25L52 23L53 23L53 21L54 21L54 19L53 19L53 21L52 21L52 20L51 20L51 19L52 19L52 18L54 18L54 17L55 17L55 16L56 16L56 15L57 15L57 14L56 14L56 10L55 10L55 15L54 15L54 16L53 16L53 15L51 15L51 17L52 17L52 18L51 18L51 19L50 19L50 17L49 17L49 18L47 18L47 17L48 17L48 16L47 16L47 15L50 15L50 14L47 14L47 12L49 12L49 11L51 11L51 13L52 13L52 14L54 14L54 11L51 11L51 10L50 10L50 9L52 9L52 8L51 8L51 7L50 7L50 6L49 6L49 7L48 7L48 5L47 5L47 7L46 7L46 8L45 8L45 9L46 9L46 10L47 10L47 7L48 7L48 8L49 8L49 9L48 9L48 11L47 11L47 12L46 12L46 11L45 11L45 12L46 12L46 14L47 14L47 15L45 15L45 14L44 14L44 11L42 11L42 10L41 10L41 11L39 11L39 12L38 12L38 13L40 13L40 15L39 15L39 16L40 16L40 18L38 18L38 16L37 16L37 15L38 15L38 14L37 14L37 13L36 13L36 16L37 16L37 20L38 20L38 19L40 19L40 25L39 25L39 27L38 27L38 26L37 26L37 27L36 27L36 24L34 24L34 23L35 23L35 21L36 21L36 23L38 23L38 24L37 24L37 25L38 25L38 24L39 24L39 23L38 23L38 22L37 22L37 21L36 21L36 18L35 18L35 13L34 13L34 12L33 12L33 9L34 9L34 11L35 11L35 12L37 12L37 11L38 11L38 9L39 9L39 7L40 7L40 6L39 6L39 5L37 5L37 7L38 7L38 8L37 8L37 9L35 9L35 8L36 8L36 5L35 5L35 4L34 4L34 5L33 5L33 9L32 9L32 12L33 12L33 13L32 13L32 15L31 15L31 10L30 10L30 9L29 9L29 10L28 10L28 4L29 4L29 3L27 3L27 2L26 2L26 1ZM46 1L46 2L47 2L47 1ZM21 2L21 3L20 3L20 5L19 5L19 6L18 6L18 4L17 4L17 5L16 5L16 7L15 7L15 6L14 6L14 7L13 7L13 6L12 6L12 7L13 7L13 8L14 8L14 9L15 9L15 10L16 10L16 11L14 11L14 13L15 13L15 12L16 12L16 13L20 13L20 15L21 15L21 13L22 13L22 12L24 12L24 11L23 11L23 10L26 10L26 9L27 9L27 6L26 6L26 3L25 3L25 4L23 4L23 3L24 3L24 2L23 2L23 3L22 3L22 2ZM38 2L38 3L36 3L36 4L38 4L38 3L39 3L39 4L40 4L40 3L39 3L39 2ZM41 3L41 4L42 4L42 3ZM51 3L51 4L52 4L52 3ZM21 4L21 5L22 5L22 4ZM29 5L29 8L32 8L32 5ZM17 6L17 7L16 7L16 8L15 8L15 9L16 9L16 10L18 10L18 9L20 9L20 8L21 8L21 7L22 7L22 9L25 9L25 8L26 8L26 6L25 6L25 7L24 7L24 6L23 6L23 7L22 7L22 6L21 6L21 7L20 7L20 6L19 6L19 8L18 8L18 9L16 9L16 8L17 8L17 7L18 7L18 6ZM30 6L30 7L31 7L31 6ZM34 6L34 8L35 8L35 6ZM38 6L38 7L39 7L39 6ZM23 7L23 8L24 8L24 7ZM49 7L49 8L50 8L50 7ZM20 10L20 11L18 11L18 12L20 12L20 13L21 13L21 12L22 12L22 10ZM35 10L35 11L36 11L36 10ZM16 11L16 12L17 12L17 11ZM25 11L25 13L24 13L24 14L23 14L23 15L22 15L22 16L24 16L24 14L25 14L25 15L28 15L28 16L25 16L25 17L24 17L24 18L23 18L23 19L21 19L21 17L20 17L20 19L21 19L21 20L23 20L23 19L24 19L24 21L22 21L22 23L21 23L21 24L20 24L20 22L21 22L21 21L20 21L20 22L19 22L19 24L18 24L18 25L17 25L17 23L18 23L18 22L17 22L17 23L16 23L16 22L15 22L15 24L14 24L14 25L15 25L15 26L16 26L16 25L17 25L17 26L18 26L18 28L17 28L17 27L15 27L15 29L19 29L19 30L18 30L18 32L17 32L17 31L16 31L16 30L15 30L15 33L14 33L14 34L15 34L15 33L16 33L16 32L17 32L17 33L19 33L19 34L18 34L18 36L17 36L17 34L16 34L16 35L14 35L14 36L13 36L13 39L12 39L12 38L11 38L11 37L12 37L12 36L11 36L11 35L12 35L12 34L11 34L11 35L10 35L10 38L11 38L11 39L10 39L10 41L8 41L8 39L7 39L7 38L9 38L9 37L7 37L7 36L6 36L6 37L7 37L7 38L6 38L6 39L5 39L5 41L4 41L4 43L7 43L7 42L5 42L5 41L8 41L8 43L9 43L9 42L11 42L11 45L13 45L13 47L12 47L12 46L11 46L11 47L12 47L12 48L11 48L11 49L13 49L13 47L15 47L15 48L17 48L17 49L19 49L19 50L22 50L22 51L21 51L21 53L20 53L20 54L21 54L21 56L22 56L22 54L23 54L23 56L24 56L24 55L25 55L25 56L26 56L26 53L27 53L27 52L25 52L25 53L24 53L24 51L26 51L26 49L25 49L25 48L24 48L24 47L23 47L23 46L21 46L21 45L22 45L22 44L23 44L23 45L24 45L24 44L25 44L25 43L26 43L26 42L27 42L27 43L28 43L28 44L30 44L30 45L31 45L31 46L32 46L32 47L34 47L34 45L33 45L33 44L32 44L32 43L30 43L30 42L28 42L28 41L27 41L27 40L26 40L26 39L25 39L25 37L24 37L24 38L23 38L23 37L22 37L22 35L23 35L23 34L25 34L25 35L26 35L26 37L27 37L27 35L28 35L28 36L29 36L29 37L28 37L28 38L27 38L27 39L28 39L28 40L29 40L29 37L33 37L33 36L34 36L34 37L35 37L35 38L36 38L36 39L35 39L35 40L36 40L36 41L37 41L37 43L38 43L38 44L39 44L39 41L40 41L40 39L41 39L41 40L42 40L42 39L43 39L43 34L44 34L44 37L45 37L45 39L44 39L44 42L46 42L46 41L50 41L50 42L51 42L51 43L53 43L53 42L52 42L52 41L51 41L51 40L50 40L50 39L51 39L51 37L50 37L50 36L47 36L47 35L45 35L45 34L46 34L46 33L47 33L47 34L48 34L48 35L49 35L49 34L48 34L48 33L49 33L49 32L50 32L50 31L49 31L49 32L47 32L47 31L46 31L46 30L45 30L45 32L44 32L44 33L41 33L41 34L40 34L40 35L36 35L36 34L37 34L37 32L36 32L36 31L34 31L34 30L33 30L33 28L32 28L32 24L31 24L31 26L30 26L30 25L29 25L29 24L30 24L30 23L26 23L26 25L22 25L22 26L20 26L20 27L19 27L19 25L21 25L21 24L24 24L24 23L25 23L25 22L26 22L26 21L27 21L27 22L31 22L31 23L32 23L32 21L28 21L28 20L29 20L29 19L32 19L32 20L33 20L33 19L35 19L35 18L34 18L34 14L33 14L33 15L32 15L32 16L31 16L31 17L33 17L33 19L32 19L32 18L30 18L30 17L29 17L29 19L28 19L28 16L29 16L29 15L30 15L30 13L29 13L29 11ZM41 11L41 15L40 15L40 16L41 16L41 15L42 15L42 18L40 18L40 19L41 19L41 25L42 25L42 26L41 26L41 27L44 27L44 29L43 29L43 28L41 28L41 29L42 29L42 30L40 30L40 29L38 29L38 28L36 28L36 27L35 27L35 30L37 30L37 31L39 31L39 32L38 32L38 34L39 34L39 33L40 33L40 32L42 32L42 31L44 31L44 29L45 29L45 27L47 27L47 26L46 26L46 24L47 24L47 25L48 25L48 26L49 26L49 24L51 24L51 22L52 22L52 21L51 21L51 20L50 20L50 19L49 19L49 20L48 20L48 19L47 19L47 20L46 20L46 21L45 21L45 19L46 19L46 18L43 18L43 17L45 17L45 15L44 15L44 16L43 16L43 13L42 13L42 11ZM27 12L27 13L25 13L25 14L28 14L28 15L29 15L29 13L28 13L28 12ZM52 12L52 13L53 13L53 12ZM6 14L6 15L7 15L7 16L8 16L8 15L7 15L7 14ZM17 14L17 17L13 17L13 18L10 18L10 19L13 19L13 18L15 18L15 19L16 19L16 18L17 18L17 17L19 17L19 15L18 15L18 14ZM60 15L60 17L61 17L61 15ZM26 17L26 20L25 20L25 21L26 21L26 20L27 20L27 17ZM56 17L56 18L57 18L57 17ZM42 19L42 21L43 21L43 23L42 23L42 25L44 25L44 26L45 26L45 25L44 25L44 23L45 23L45 22L44 22L44 19ZM6 20L6 21L7 21L7 20ZM34 20L34 21L35 21L35 20ZM49 20L49 21L50 21L50 20ZM3 21L3 23L4 23L4 21ZM46 21L46 23L48 23L48 24L49 24L49 23L50 23L50 22L47 22L47 21ZM13 22L13 23L14 23L14 22ZM33 22L33 23L34 23L34 22ZM1 24L1 25L2 25L2 26L3 26L3 25L2 25L2 24ZM12 24L12 25L13 25L13 24ZM15 24L15 25L16 25L16 24ZM27 24L27 26L24 26L24 27L21 27L21 28L20 28L20 29L21 29L21 28L22 28L22 30L19 30L19 31L22 31L22 32L23 32L23 33L21 33L21 32L20 32L20 33L21 33L21 34L19 34L19 35L21 35L21 34L23 34L23 33L24 33L24 32L25 32L25 33L26 33L26 34L27 34L27 33L28 33L28 32L27 32L27 33L26 33L26 31L28 31L28 29L25 29L25 28L27 28L27 26L28 26L28 27L29 27L29 28L31 28L31 27L29 27L29 25L28 25L28 24ZM33 24L33 27L34 27L34 24ZM6 25L6 26L7 26L7 25ZM50 25L50 26L52 26L52 25ZM23 28L23 29L24 29L24 30L25 30L25 29L24 29L24 28ZM5 29L5 32L8 32L8 29ZM29 29L29 32L32 32L32 29ZM53 29L53 32L56 32L56 29ZM6 30L6 31L7 31L7 30ZM30 30L30 31L31 31L31 30ZM54 30L54 31L55 31L55 30ZM10 31L10 32L11 32L11 33L12 33L12 32L11 32L11 31ZM33 31L33 33L30 33L30 35L29 35L29 34L28 34L28 35L29 35L29 36L33 36L33 35L32 35L32 34L33 34L33 33L34 33L34 34L35 34L35 32L34 32L34 31ZM45 32L45 33L44 33L44 34L45 34L45 33L46 33L46 32ZM58 32L58 33L59 33L59 32ZM6 33L6 34L9 34L9 33ZM51 33L51 34L52 34L52 33ZM41 34L41 35L40 35L40 37L39 37L39 39L37 39L37 40L38 40L38 41L39 41L39 39L40 39L40 38L41 38L41 35L42 35L42 34ZM58 34L58 35L59 35L59 34ZM35 35L35 37L36 37L36 35ZM54 35L54 36L53 36L53 37L54 37L54 38L52 38L52 39L53 39L53 41L54 41L54 42L55 42L55 43L56 43L56 42L58 42L58 41L56 41L56 38L55 38L55 37L54 37L54 36L55 36L55 35ZM15 36L15 39L13 39L13 41L12 41L12 39L11 39L11 42L12 42L12 43L14 43L14 44L15 44L15 46L16 46L16 47L19 47L19 48L20 48L20 49L22 49L22 50L23 50L23 51L24 51L24 50L23 50L23 48L22 48L22 47L20 47L20 46L19 46L19 45L16 45L16 44L15 44L15 43L18 43L18 41L20 41L20 40L18 40L18 41L16 41L16 42L15 42L15 40L16 40L16 38L17 38L17 39L18 39L18 38L19 38L19 39L21 39L21 38L20 38L20 37L21 37L21 36L20 36L20 37L18 37L18 38L17 38L17 37L16 37L16 36ZM37 36L37 37L38 37L38 36ZM46 36L46 39L45 39L45 40L49 40L49 38L48 38L48 39L47 39L47 36ZM32 38L32 39L31 39L31 40L30 40L30 41L31 41L31 40L32 40L32 39L34 39L34 38ZM54 38L54 39L55 39L55 38ZM6 39L6 40L7 40L7 39ZM22 39L22 40L21 40L21 41L23 41L23 39ZM24 40L24 41L25 41L25 42L26 42L26 40ZM54 40L54 41L55 41L55 42L56 42L56 41L55 41L55 40ZM13 41L13 42L14 42L14 43L15 43L15 42L14 42L14 41ZM20 42L20 43L19 43L19 44L20 44L20 45L21 45L21 44L22 44L22 42ZM35 42L35 43L36 43L36 42ZM23 43L23 44L24 44L24 43ZM41 43L41 44L42 44L42 43ZM42 45L42 47L43 47L43 46L44 46L44 45ZM50 45L50 47L52 47L52 46L53 46L53 45ZM36 46L36 48L37 48L37 47L38 47L38 46ZM53 47L53 48L54 48L54 47ZM1 48L1 49L0 49L0 50L1 50L1 49L2 49L2 48ZM28 48L28 49L29 49L29 48ZM60 48L60 49L61 49L61 48ZM9 50L9 51L10 51L10 50ZM3 51L3 52L4 52L4 51ZM22 52L22 53L21 53L21 54L22 54L22 53L23 53L23 54L24 54L24 53L23 53L23 52ZM57 52L57 53L58 53L58 52ZM8 53L8 54L9 54L9 53ZM29 53L29 56L32 56L32 53ZM53 53L53 56L56 56L56 53ZM13 54L13 55L14 55L14 54ZM30 54L30 55L31 55L31 54ZM51 54L51 55L52 55L52 54ZM54 54L54 55L55 55L55 54ZM33 55L33 56L34 56L34 55ZM37 55L37 56L38 56L38 57L39 57L39 56L38 56L38 55ZM46 56L46 58L49 58L49 59L50 59L50 60L52 60L52 58L50 58L50 57L52 57L52 56L49 56L49 57L48 57L48 56ZM44 57L44 58L43 58L43 60L44 60L44 59L45 59L45 57ZM53 57L53 58L54 58L54 57ZM55 57L55 58L56 58L56 57ZM59 57L59 58L60 58L60 57ZM32 59L32 61L38 61L38 60L36 60L36 59L34 59L34 60L33 60L33 59ZM0 0L0 7L7 7L7 0ZM1 1L1 6L6 6L6 1ZM2 2L2 5L5 5L5 2ZM54 0L54 7L61 7L61 0ZM55 1L55 6L60 6L60 1ZM56 2L56 5L59 5L59 2ZM0 54L0 61L7 61L7 54ZM1 55L1 60L6 60L6 55ZM2 56L2 59L5 59L5 56Z" fill="#000000"/></g></g></svg>
