<?xml version="1.0" encoding="UTF-8"?>
<svg xmlns="http://www.w3.org/2000/svg" version="1.1" width="200" height="200" viewBox="0 0 200 200"><rect x="0" y="0" width="200" height="200" fill="#ffffff"/><g transform="scale(3.279)"><g transform="translate(0,0)"><path fill-rule="evenodd" d="M9 0L9 1L10 1L10 0ZM11 0L11 1L13 1L13 2L15 2L15 0ZM17 0L17 1L16 1L16 3L17 3L17 4L19 4L19 5L16 5L16 4L15 4L15 3L14 3L14 8L11 8L11 6L12 6L12 7L13 7L13 4L12 4L12 3L11 3L11 2L9 2L9 3L8 3L8 5L9 5L9 6L8 6L8 7L9 7L9 9L10 9L10 11L9 11L9 14L8 14L8 16L9 16L9 17L8 17L8 18L6 18L6 19L7 19L7 20L6 20L6 21L5 21L5 22L4 22L4 23L5 23L5 24L4 24L4 25L5 25L5 26L2 26L2 27L1 27L1 28L0 28L0 30L1 30L1 31L0 31L0 32L1 32L1 33L0 33L0 34L1 34L1 35L2 35L2 36L0 36L0 37L2 37L2 39L1 39L1 38L0 38L0 41L1 41L1 42L0 42L0 45L1 45L1 46L0 46L0 50L1 50L1 49L2 49L2 51L0 51L0 53L4 53L4 52L5 52L5 51L7 51L7 50L5 50L5 48L6 48L6 49L7 49L7 48L8 48L8 47L9 47L9 46L8 46L8 45L7 45L7 44L6 44L6 43L8 43L8 42L5 42L5 44L6 44L6 45L7 45L7 46L6 46L6 47L5 47L5 48L4 48L4 45L3 45L3 44L4 44L4 43L3 43L3 44L2 44L2 43L1 43L1 42L2 42L2 41L3 41L3 42L4 42L4 40L6 40L6 41L9 41L9 42L11 42L11 40L10 40L10 41L9 41L9 39L10 39L10 36L11 36L11 37L12 37L12 36L13 36L13 41L15 41L15 42L16 42L16 41L17 41L17 40L18 40L18 42L17 42L17 43L15 43L15 44L16 44L16 45L15 45L15 47L13 47L13 49L12 49L12 47L10 47L10 49L9 49L9 50L12 50L12 51L13 51L13 52L14 52L14 50L15 50L15 49L14 49L14 48L16 48L16 49L17 49L17 48L18 48L18 49L19 49L19 50L20 50L20 49L19 49L19 48L18 48L18 47L19 47L19 46L20 46L20 47L21 47L21 48L22 48L22 49L21 49L21 50L23 50L23 51L20 51L20 53L19 53L19 52L18 52L18 53L19 53L19 55L22 55L22 56L25 56L25 57L23 57L23 59L21 59L21 58L22 58L22 57L21 57L21 56L20 56L20 57L18 57L18 56L14 56L14 55L16 55L16 52L17 52L17 51L16 51L16 52L15 52L15 53L13 53L13 54L12 54L12 52L11 52L11 51L9 51L9 52L10 52L10 53L8 53L8 52L6 52L6 53L8 53L8 56L9 56L9 55L10 55L10 53L11 53L11 55L13 55L13 56L10 56L10 57L9 57L9 58L10 58L10 57L12 57L12 59L11 59L11 61L13 61L13 60L14 60L14 61L16 61L16 60L17 60L17 59L16 59L16 60L15 60L15 59L14 59L14 58L17 58L17 57L18 57L18 58L20 58L20 59L21 59L21 60L22 60L22 61L24 61L24 60L25 60L25 61L29 61L29 59L28 59L28 58L27 58L27 60L26 60L26 58L25 58L25 57L26 57L26 55L27 55L27 54L26 54L26 52L27 52L27 53L28 53L28 56L27 56L27 57L29 57L29 58L30 58L30 59L32 59L32 61L34 61L34 60L33 60L33 59L35 59L35 57L37 57L37 58L36 58L36 59L37 59L37 60L35 60L35 61L41 61L41 59L40 59L40 58L39 58L39 57L40 57L40 56L41 56L41 55L42 55L42 54L43 54L43 53L44 53L44 54L45 54L45 55L44 55L44 56L43 56L43 57L42 57L42 58L43 58L43 57L44 57L44 56L45 56L45 58L46 58L46 59L44 59L44 61L46 61L46 60L48 60L48 61L49 61L49 60L50 60L50 61L53 61L53 59L52 59L52 60L50 60L50 59L48 59L48 57L49 57L49 58L51 58L51 57L52 57L52 58L53 58L53 57L54 57L54 58L55 58L55 59L54 59L54 60L55 60L55 59L56 59L56 61L58 61L58 60L57 60L57 59L58 59L58 57L60 57L60 61L61 61L61 57L60 57L60 56L61 56L61 54L59 54L59 53L60 53L60 52L59 52L59 51L61 51L61 50L60 50L60 49L61 49L61 48L59 48L59 50L56 50L56 48L58 48L58 47L61 47L61 46L59 46L59 44L60 44L60 45L61 45L61 42L60 42L60 41L61 41L61 40L60 40L60 41L59 41L59 39L61 39L61 38L59 38L59 37L57 37L57 40L55 40L55 41L58 41L58 43L57 43L57 44L56 44L56 46L55 46L55 44L53 44L53 45L52 45L52 43L56 43L56 42L50 42L50 41L49 41L49 40L51 40L51 41L53 41L53 40L51 40L51 38L50 38L50 39L49 39L49 38L48 38L48 40L47 40L47 42L48 42L48 43L49 43L49 44L47 44L47 43L46 43L46 42L44 42L44 40L43 40L43 39L42 39L42 38L45 38L45 41L46 41L46 39L47 39L47 38L46 38L46 37L45 37L45 34L46 34L46 35L47 35L47 36L48 36L48 37L50 37L50 36L51 36L51 37L53 37L53 38L52 38L52 39L53 39L53 38L54 38L54 39L56 39L56 36L58 36L58 35L56 35L56 34L59 34L59 36L60 36L60 37L61 37L61 34L59 34L59 32L60 32L60 33L61 33L61 30L60 30L60 31L59 31L59 28L60 28L60 27L61 27L61 26L60 26L60 25L61 25L61 22L59 22L59 21L60 21L60 20L61 20L61 18L60 18L60 20L58 20L58 19L59 19L59 17L60 17L60 16L61 16L61 14L59 14L59 13L60 13L60 11L61 11L61 10L60 10L60 11L59 11L59 13L58 13L58 11L57 11L57 10L58 10L58 8L56 8L56 9L57 9L57 10L56 10L56 12L55 12L55 13L54 13L54 11L53 11L53 14L52 14L52 10L53 10L53 9L52 9L52 8L51 8L51 5L52 5L52 4L53 4L53 0L51 0L51 2L50 2L50 1L48 1L48 0L42 0L42 1L43 1L43 3L44 3L44 5L45 5L45 6L44 6L44 8L42 8L42 7L43 7L43 6L42 6L42 7L41 7L41 6L40 6L40 7L41 7L41 9L38 9L38 8L39 8L39 5L36 5L36 7L37 7L37 8L35 8L35 9L33 9L33 8L34 8L34 7L35 7L35 5L34 5L34 7L33 7L33 2L32 2L32 4L28 4L28 3L29 3L29 2L28 2L28 1L30 1L30 0L28 0L28 1L27 1L27 2L26 2L26 4L24 4L24 5L25 5L25 6L24 6L24 7L23 7L23 3L22 3L22 0L20 0L20 2L19 2L19 1L18 1L18 0ZM24 0L24 2L25 2L25 1L26 1L26 0ZM33 0L33 1L34 1L34 4L40 4L40 5L43 5L43 4L42 4L42 2L41 2L41 0L40 0L40 1L39 1L39 0L38 0L38 1L39 1L39 2L41 2L41 3L35 3L35 1L36 1L36 2L37 2L37 1L36 1L36 0ZM17 1L17 3L18 3L18 1ZM45 1L45 2L46 2L46 1ZM47 1L47 3L50 3L50 2L48 2L48 1ZM20 2L20 3L19 3L19 4L20 4L20 5L19 5L19 7L20 7L20 5L21 5L21 8L22 8L22 11L21 11L21 10L19 10L19 9L20 9L20 8L19 8L19 9L18 9L18 8L17 8L17 7L18 7L18 6L17 6L17 7L16 7L16 5L15 5L15 8L14 8L14 9L11 9L11 10L16 10L16 8L17 8L17 10L19 10L19 11L20 11L20 12L19 12L19 13L18 13L18 14L19 14L19 13L20 13L20 15L23 15L23 16L21 16L21 17L20 17L20 16L19 16L19 17L18 17L18 18L17 18L17 11L10 11L10 13L11 13L11 14L10 14L10 15L9 15L9 16L13 16L13 17L10 17L10 18L11 18L11 19L10 19L10 21L8 21L8 20L7 20L7 21L6 21L6 22L7 22L7 23L6 23L6 24L8 24L8 25L10 25L10 26L7 26L7 25L6 25L6 26L5 26L5 27L3 27L3 28L5 28L5 27L6 27L6 28L9 28L9 29L10 29L10 31L9 31L9 32L10 32L10 35L9 35L9 36L8 36L8 34L7 34L7 33L5 33L5 34L7 34L7 35L5 35L5 36L8 36L8 37L6 37L6 38L5 38L5 37L4 37L4 38L5 38L5 39L6 39L6 40L8 40L8 39L9 39L9 36L10 36L10 35L11 35L11 34L12 34L12 35L14 35L14 37L15 37L15 38L14 38L14 39L15 39L15 40L16 40L16 39L15 39L15 38L17 38L17 36L20 36L20 38L19 38L19 37L18 37L18 39L19 39L19 41L20 41L20 42L19 42L19 43L17 43L17 45L18 45L18 46L17 46L17 47L18 47L18 46L19 46L19 45L20 45L20 44L19 44L19 43L21 43L21 47L22 47L22 46L23 46L23 48L24 48L24 49L25 49L25 51L24 51L24 52L21 52L21 53L20 53L20 54L21 54L21 53L24 53L24 52L25 52L25 51L27 51L27 52L29 52L29 51L30 51L30 50L31 50L31 49L32 49L32 50L33 50L33 49L34 49L34 50L35 50L35 49L36 49L36 46L37 46L37 47L38 47L38 44L39 44L39 43L36 43L36 41L35 41L35 40L38 40L38 42L40 42L40 43L41 43L41 44L40 44L40 46L39 46L39 47L40 47L40 48L39 48L39 49L37 49L37 51L33 51L33 53L34 53L34 55L35 55L35 53L36 53L36 52L38 52L38 50L40 50L40 51L39 51L39 53L37 53L37 55L36 55L36 56L37 56L37 57L39 57L39 54L40 54L40 53L41 53L41 54L42 54L42 53L43 53L43 52L44 52L44 53L46 53L46 55L45 55L45 56L47 56L47 55L49 55L49 57L50 57L50 55L51 55L51 56L52 56L52 54L51 54L51 53L50 53L50 51L51 51L51 52L55 52L55 51L53 51L53 50L54 50L54 49L55 49L55 48L54 48L54 47L53 47L53 46L54 46L54 45L53 45L53 46L51 46L51 47L50 47L50 46L49 46L49 45L51 45L51 43L50 43L50 44L49 44L49 45L48 45L48 47L49 47L49 49L50 49L50 50L49 50L49 51L47 51L47 52L46 52L46 50L47 50L47 49L48 49L48 48L47 48L47 47L45 47L45 46L42 46L42 45L41 45L41 44L42 44L42 43L44 43L44 42L42 42L42 41L43 41L43 40L42 40L42 39L41 39L41 38L42 38L42 37L44 37L44 34L41 34L41 31L43 31L43 32L42 32L42 33L43 33L43 32L44 32L44 33L45 33L45 32L48 32L48 31L49 31L49 33L47 33L47 35L48 35L48 36L49 36L49 35L51 35L51 36L52 36L52 35L53 35L53 37L54 37L54 36L56 36L56 35L53 35L53 33L51 33L51 32L52 32L52 31L51 31L51 28L52 28L52 27L51 27L51 25L52 25L52 26L53 26L53 25L52 25L52 24L54 24L54 25L55 25L55 28L57 28L57 27L59 27L59 25L60 25L60 24L59 24L59 23L58 23L58 25L57 25L57 26L56 26L56 25L55 25L55 24L54 24L54 23L56 23L56 22L58 22L58 21L57 21L57 20L56 20L56 19L57 19L57 16L58 16L58 15L59 15L59 16L60 16L60 15L59 15L59 14L58 14L58 15L57 15L57 13L56 13L56 15L55 15L55 14L54 14L54 16L52 16L52 15L51 15L51 16L52 16L52 18L51 18L51 17L50 17L50 18L51 18L51 19L50 19L50 21L51 21L51 20L52 20L52 21L53 21L53 22L49 22L49 21L47 21L47 22L49 22L49 23L50 23L50 24L49 24L49 25L50 25L50 26L49 26L49 27L47 27L47 28L50 28L50 30L49 30L49 29L46 29L46 27L43 27L43 26L44 26L44 23L45 23L45 24L46 24L46 25L45 25L45 26L48 26L48 23L46 23L46 22L44 22L44 23L43 23L43 22L42 22L42 21L46 21L46 20L49 20L49 18L48 18L48 19L47 19L47 17L48 17L48 16L50 16L50 14L51 14L51 13L50 13L50 14L49 14L49 15L48 15L48 14L47 14L47 13L48 13L48 12L49 12L49 11L50 11L50 12L51 12L51 10L49 10L49 9L47 9L47 11L45 11L45 13L44 13L44 11L43 11L43 10L42 10L42 11L41 11L41 10L40 10L40 11L41 11L41 12L42 12L42 13L40 13L40 14L39 14L39 13L38 13L38 12L39 12L39 10L36 10L36 9L35 9L35 10L36 10L36 11L34 11L34 10L33 10L33 9L31 9L31 10L30 10L30 9L29 9L29 10L30 10L30 11L31 11L31 12L30 12L30 13L29 13L29 15L31 15L31 14L32 14L32 15L33 15L33 14L32 14L32 13L34 13L34 14L35 14L35 15L34 15L34 17L33 17L33 16L32 16L32 17L33 17L33 18L34 18L34 19L33 19L33 20L32 20L32 19L31 19L31 17L29 17L29 16L28 16L28 15L26 15L26 17L25 17L25 16L24 16L24 15L25 15L25 14L22 14L22 13L21 13L21 12L22 12L22 11L23 11L23 13L25 13L25 12L24 12L24 11L25 11L25 10L24 10L24 9L25 9L25 7L26 7L26 12L27 12L27 14L28 14L28 12L29 12L29 11L27 11L27 9L28 9L28 8L27 8L27 7L28 7L28 5L27 5L27 7L26 7L26 6L25 6L25 7L24 7L24 9L23 9L23 8L22 8L22 5L21 5L21 2ZM27 2L27 3L28 3L28 2ZM30 2L30 3L31 3L31 2ZM10 3L10 4L9 4L9 5L12 5L12 4L11 4L11 3ZM51 3L51 4L52 4L52 3ZM45 4L45 5L47 5L47 8L48 8L48 5L47 5L47 4ZM49 4L49 5L50 5L50 4ZM29 5L29 8L32 8L32 5ZM9 6L9 7L10 7L10 6ZM30 6L30 7L31 7L31 6ZM37 6L37 7L38 7L38 6ZM45 6L45 7L46 7L46 6ZM49 6L49 8L50 8L50 6ZM52 6L52 7L53 7L53 6ZM0 8L0 9L1 9L1 12L0 12L0 13L2 13L2 14L0 14L0 15L3 15L3 16L2 16L2 17L1 17L1 16L0 16L0 20L1 20L1 21L0 21L0 22L1 22L1 24L2 24L2 25L3 25L3 23L2 23L2 22L3 22L3 21L2 21L2 20L1 20L1 19L2 19L2 17L4 17L4 18L3 18L3 19L4 19L4 20L5 20L5 17L7 17L7 16L5 16L5 15L7 15L7 14L4 14L4 13L5 13L5 12L3 12L3 11L4 11L4 10L6 10L6 11L7 11L7 12L6 12L6 13L8 13L8 11L7 11L7 10L6 10L6 9L8 9L8 8L5 8L5 9L4 9L4 10L2 10L2 8ZM44 8L44 10L46 10L46 8ZM54 9L54 10L55 10L55 9ZM32 11L32 12L31 12L31 13L30 13L30 14L31 14L31 13L32 13L32 12L34 12L34 11ZM37 11L37 12L36 12L36 13L35 13L35 14L36 14L36 15L37 15L37 14L38 14L38 13L37 13L37 12L38 12L38 11ZM2 12L2 13L3 13L3 12ZM13 12L13 13L14 13L14 14L15 14L15 15L13 15L13 16L16 16L16 12ZM42 13L42 14L44 14L44 15L45 15L45 17L46 17L46 15L47 15L47 14L46 14L46 13L45 13L45 14L44 14L44 13ZM3 14L3 15L4 15L4 14ZM11 14L11 15L12 15L12 14ZM40 14L40 16L41 16L41 18L40 18L40 17L39 17L39 19L41 19L41 20L42 20L42 18L43 18L43 17L44 17L44 16L43 16L43 15L42 15L42 16L41 16L41 14ZM38 15L38 16L36 16L36 17L35 17L35 19L36 19L36 17L38 17L38 16L39 16L39 15ZM27 16L27 17L26 17L26 18L25 18L25 17L22 17L22 19L19 19L19 18L20 18L20 17L19 17L19 18L18 18L18 19L17 19L17 18L16 18L16 19L17 19L17 20L14 20L14 17L13 17L13 19L12 19L12 20L14 20L14 21L13 21L13 22L12 22L12 21L11 21L11 22L12 22L12 24L11 24L11 23L9 23L9 22L8 22L8 21L7 21L7 22L8 22L8 24L10 24L10 25L12 25L12 26L10 26L10 27L12 27L12 26L14 26L14 25L16 25L16 24L17 24L17 20L18 20L18 21L19 21L19 22L18 22L18 23L19 23L19 24L18 24L18 25L17 25L17 26L15 26L15 30L14 30L14 29L13 29L13 28L10 28L10 29L11 29L11 32L12 32L12 33L14 33L14 34L15 34L15 37L16 37L16 36L17 36L17 34L18 34L18 35L19 35L19 34L20 34L20 35L21 35L21 32L22 32L22 31L19 31L19 30L20 30L20 29L22 29L22 30L23 30L23 32L24 32L24 31L25 31L25 30L27 30L27 29L24 29L24 30L23 30L23 29L22 29L22 28L28 28L28 33L27 33L27 35L26 35L26 37L27 37L27 38L26 38L26 40L25 40L25 39L24 39L24 38L25 38L25 34L26 34L26 32L27 32L27 31L26 31L26 32L25 32L25 33L24 33L24 34L22 34L22 35L23 35L23 36L22 36L22 40L20 40L20 41L22 41L22 42L21 42L21 43L22 43L22 44L24 44L24 42L25 42L25 44L26 44L26 42L27 42L27 43L28 43L28 41L29 41L29 42L30 42L30 41L31 41L31 43L29 43L29 44L27 44L27 45L29 45L29 44L30 44L30 45L31 45L31 46L29 46L29 47L28 47L28 46L27 46L27 47L28 47L28 49L27 49L27 48L26 48L26 50L27 50L27 51L29 51L29 47L30 47L30 49L31 49L31 46L32 46L32 47L33 47L33 46L34 46L34 47L35 47L35 45L37 45L37 44L35 44L35 43L34 43L34 40L33 40L33 39L35 39L35 38L34 38L34 37L37 37L37 36L38 36L38 37L39 37L39 38L36 38L36 39L40 39L40 37L42 37L42 36L43 36L43 35L42 35L42 36L40 36L40 33L39 33L39 32L38 32L38 35L37 35L37 34L36 34L36 35L37 35L37 36L34 36L34 35L35 35L35 32L33 32L33 31L34 31L34 29L33 29L33 28L35 28L35 30L37 30L37 31L38 31L38 30L37 30L37 28L38 28L38 29L39 29L39 31L41 31L41 29L40 29L40 28L38 28L38 27L37 27L37 26L38 26L38 25L39 25L39 24L38 24L38 25L37 25L37 24L36 24L36 25L35 25L35 24L32 24L32 23L29 23L29 20L28 20L28 16ZM54 16L54 17L53 17L53 18L52 18L52 19L54 19L54 20L55 20L55 21L54 21L54 22L53 22L53 23L54 23L54 22L55 22L55 21L56 21L56 20L55 20L55 19L54 19L54 18L55 18L55 17L56 17L56 16ZM8 18L8 19L9 19L9 18ZM23 18L23 19L22 19L22 20L21 20L21 22L22 22L22 23L21 23L21 24L20 24L20 27L18 27L18 26L19 26L19 25L18 25L18 26L17 26L17 27L16 27L16 28L17 28L17 29L16 29L16 30L15 30L15 31L13 31L13 29L12 29L12 32L14 32L14 33L15 33L15 31L16 31L16 34L17 34L17 31L16 31L16 30L19 30L19 29L18 29L18 28L22 28L22 25L21 25L21 24L23 24L23 21L24 21L24 20L25 20L25 24L24 24L24 25L23 25L23 27L24 27L24 25L25 25L25 27L26 27L26 23L27 23L27 24L28 24L28 27L29 27L29 23L28 23L28 21L27 21L27 20L26 20L26 19L27 19L27 18L26 18L26 19L24 19L24 18ZM29 18L29 19L30 19L30 20L31 20L31 19L30 19L30 18ZM37 18L37 19L38 19L38 18ZM45 18L45 19L44 19L44 20L45 20L45 19L46 19L46 18ZM23 19L23 20L24 20L24 19ZM19 20L19 21L20 21L20 20ZM36 20L36 22L35 22L35 21L33 21L33 23L36 23L36 22L37 22L37 20ZM38 20L38 23L39 23L39 22L41 22L41 21L39 21L39 20ZM14 21L14 22L15 22L15 23L14 23L14 24L13 24L13 25L14 25L14 24L16 24L16 21ZM30 21L30 22L31 22L31 21ZM42 23L42 24L43 24L43 23ZM51 23L51 24L50 24L50 25L51 25L51 24L52 24L52 23ZM31 24L31 25L32 25L32 24ZM40 24L40 26L39 26L39 27L40 27L40 26L41 26L41 24ZM34 25L34 26L35 26L35 25ZM42 25L42 26L43 26L43 25ZM6 26L6 27L7 27L7 26ZM31 26L31 28L33 28L33 26ZM35 27L35 28L37 28L37 27ZM42 27L42 28L43 28L43 29L42 29L42 30L43 30L43 29L44 29L44 28L43 28L43 27ZM50 27L50 28L51 28L51 27ZM1 28L1 29L2 29L2 32L3 32L3 33L4 33L4 32L3 32L3 29L2 29L2 28ZM5 29L5 32L8 32L8 29ZM29 29L29 32L32 32L32 29ZM45 29L45 30L44 30L44 32L45 32L45 31L46 31L46 29ZM53 29L53 32L56 32L56 29ZM6 30L6 31L7 31L7 30ZM30 30L30 31L31 31L31 30ZM54 30L54 31L55 31L55 30ZM18 31L18 32L19 32L19 33L18 33L18 34L19 34L19 33L20 33L20 32L19 32L19 31ZM50 31L50 32L51 32L51 31ZM57 31L57 32L59 32L59 31ZM36 32L36 33L37 33L37 32ZM1 33L1 34L2 34L2 33ZM28 33L28 35L29 35L29 37L28 37L28 36L27 36L27 37L28 37L28 39L27 39L27 40L26 40L26 41L28 41L28 40L29 40L29 41L30 41L30 40L32 40L32 44L31 44L31 45L32 45L32 46L33 46L33 45L32 45L32 44L33 44L33 40L32 40L32 38L33 38L33 37L32 37L32 38L31 38L31 39L30 39L30 34L31 34L31 35L32 35L32 36L33 36L33 35L32 35L32 33ZM49 33L49 34L48 34L48 35L49 35L49 34L51 34L51 33ZM3 34L3 35L4 35L4 34ZM23 36L23 37L24 37L24 36ZM39 36L39 37L40 37L40 36ZM6 38L6 39L7 39L7 38ZM11 38L11 39L12 39L12 38ZM2 39L2 40L3 40L3 39ZM23 39L23 40L22 40L22 41L23 41L23 40L24 40L24 41L25 41L25 40L24 40L24 39ZM39 40L39 41L40 41L40 42L41 42L41 41L40 41L40 40ZM13 42L13 43L14 43L14 42ZM11 43L11 44L12 44L12 43ZM45 43L45 44L44 44L44 45L47 45L47 44L46 44L46 43ZM58 43L58 44L59 44L59 43ZM1 44L1 45L2 45L2 44ZM9 44L9 45L10 45L10 46L11 46L11 45L10 45L10 44ZM13 44L13 45L12 45L12 46L14 46L14 44ZM18 44L18 45L19 45L19 44ZM24 45L24 46L25 46L25 47L24 47L24 48L25 48L25 47L26 47L26 45ZM57 45L57 46L56 46L56 47L57 47L57 46L58 46L58 45ZM2 46L2 47L3 47L3 46ZM41 46L41 48L40 48L40 50L41 50L41 48L42 48L42 50L43 50L43 51L44 51L44 50L46 50L46 49L47 49L47 48L45 48L45 47L44 47L44 50L43 50L43 47L42 47L42 46ZM6 47L6 48L7 48L7 47ZM51 47L51 48L50 48L50 49L52 49L52 50L53 50L53 48L52 48L52 47ZM2 48L2 49L3 49L3 48ZM32 48L32 49L33 49L33 48ZM34 48L34 49L35 49L35 48ZM3 51L3 52L4 52L4 51ZM40 51L40 52L41 52L41 51ZM48 52L48 54L49 54L49 55L50 55L50 54L49 54L49 52ZM29 53L29 56L32 56L32 53ZM53 53L53 56L56 56L56 53ZM13 54L13 55L14 55L14 54ZM23 54L23 55L24 55L24 54ZM25 54L25 55L26 55L26 54ZM30 54L30 55L31 55L31 54ZM54 54L54 55L55 55L55 54ZM57 54L57 55L58 55L58 56L60 56L60 55L59 55L59 54ZM37 55L37 56L38 56L38 55ZM13 56L13 58L14 58L14 56ZM33 56L33 57L31 57L31 58L33 58L33 57L34 57L34 56ZM55 57L55 58L56 58L56 59L57 59L57 57ZM37 58L37 59L39 59L39 58ZM8 59L8 61L9 61L9 60L10 60L10 59ZM23 59L23 60L24 60L24 59ZM18 60L18 61L19 61L19 60ZM30 60L30 61L31 61L31 60ZM42 60L42 61L43 61L43 60ZM0 0L0 7L7 7L7 0ZM1 1L1 6L6 6L6 1ZM2 2L2 5L5 5L5 2ZM54 0L54 7L61 7L61 0ZM55 1L55 6L60 6L60 1ZM56 2L56 5L59 5L59 2ZM0 54L0 61L7 61L7 54ZM1 55L1 60L6 60L6 55ZM2 56L2 59L5 59L5 56Z" fill="#000000"/></g></g></svg>
