<?xml version="1.0" encoding="UTF-8"?>
<svg xmlns="http://www.w3.org/2000/svg" version="1.1" width="200" height="200" viewBox="0 0 200 200"><rect x="0" y="0" width="200" height="200" fill="#ffffff"/><g transform="scale(3.279)"><g transform="translate(0,0)"><path fill-rule="evenodd" d="M10 0L10 1L8 1L8 2L10 2L10 3L8 3L8 4L10 4L10 5L8 5L8 7L9 7L9 6L10 6L10 7L11 7L11 6L12 6L12 7L13 7L13 6L14 6L14 8L15 8L15 9L14 9L14 10L15 10L15 9L17 9L17 8L18 8L18 10L16 10L16 13L19 13L19 15L20 15L20 13L21 13L21 16L18 16L18 14L15 14L15 13L14 13L14 12L15 12L15 11L14 11L14 12L13 12L13 10L12 10L12 11L10 11L10 9L11 9L11 8L6 8L6 9L8 9L8 10L6 10L6 11L5 11L5 12L4 12L4 11L3 11L3 9L4 9L4 10L5 10L5 8L0 8L0 10L2 10L2 11L3 11L3 13L2 13L2 14L1 14L1 16L2 16L2 17L0 17L0 19L1 19L1 20L0 20L0 23L1 23L1 24L0 24L0 26L1 26L1 25L3 25L3 28L1 28L1 29L0 29L0 30L2 30L2 29L4 29L4 31L0 31L0 32L1 32L1 34L3 34L3 35L4 35L4 36L3 36L3 37L1 37L1 38L2 38L2 40L1 40L1 39L0 39L0 40L1 40L1 41L0 41L0 42L1 42L1 43L0 43L0 45L1 45L1 47L0 47L0 48L2 48L2 47L3 47L3 48L4 48L4 49L5 49L5 48L6 48L6 49L7 49L7 48L6 48L6 47L7 47L7 46L8 46L8 48L9 48L9 46L8 46L8 45L10 45L10 49L8 49L8 50L2 50L2 49L0 49L0 50L2 50L2 51L0 51L0 53L4 53L4 52L5 52L5 51L9 51L9 50L10 50L10 51L12 51L12 53L11 53L11 52L10 52L10 56L11 56L11 57L12 57L12 56L14 56L14 55L15 55L15 56L16 56L16 57L18 57L18 59L21 59L21 60L18 60L18 61L22 61L22 60L23 60L23 61L24 61L24 59L22 59L22 58L25 58L25 57L26 57L26 58L27 58L27 59L25 59L25 60L27 60L27 61L28 61L28 60L29 60L29 59L28 59L28 58L29 58L29 57L30 57L30 58L31 58L31 57L34 57L34 54L33 54L33 53L35 53L35 55L36 55L36 54L37 54L37 52L36 52L36 51L37 51L37 49L38 49L38 47L40 47L40 48L41 48L41 47L40 47L40 46L41 46L41 45L40 45L40 44L41 44L41 43L40 43L40 42L42 42L42 43L43 43L43 45L42 45L42 46L44 46L44 44L45 44L45 47L44 47L44 48L43 48L43 49L41 49L41 50L45 50L45 51L44 51L44 52L42 52L42 51L40 51L40 50L38 50L38 51L40 51L40 52L42 52L42 54L45 54L45 53L44 53L44 52L46 52L46 53L47 53L47 54L46 54L46 55L49 55L49 54L50 54L50 55L51 55L51 56L50 56L50 57L49 57L49 56L47 56L47 58L45 58L45 57L46 57L46 56L45 56L45 55L44 55L44 56L42 56L42 57L40 57L40 56L41 56L41 55L40 55L40 54L41 54L41 53L39 53L39 52L38 52L38 53L39 53L39 54L38 54L38 55L37 55L37 56L36 56L36 57L37 57L37 58L36 58L36 59L35 59L35 58L33 58L33 59L32 59L32 60L31 60L31 61L32 61L32 60L33 60L33 59L35 59L35 61L38 61L38 60L36 60L36 59L37 59L37 58L38 58L38 59L39 59L39 58L38 58L38 57L37 57L37 56L39 56L39 57L40 57L40 60L39 60L39 61L40 61L40 60L41 60L41 58L43 58L43 59L42 59L42 60L43 60L43 61L44 61L44 60L43 60L43 59L45 59L45 61L50 61L50 60L48 60L48 59L47 59L47 58L50 58L50 57L51 57L51 60L52 60L52 61L54 61L54 60L55 60L55 61L56 61L56 60L55 60L55 59L56 59L56 58L58 58L58 57L60 57L60 60L57 60L57 61L61 61L61 57L60 57L60 56L61 56L61 54L59 54L59 52L58 52L58 51L59 51L59 50L60 50L60 51L61 51L61 50L60 50L60 47L61 47L61 46L60 46L60 45L61 45L61 42L60 42L60 40L61 40L61 38L60 38L60 40L57 40L57 39L59 39L59 36L58 36L58 35L59 35L59 34L58 34L58 33L61 33L61 30L60 30L60 29L59 29L59 28L61 28L61 26L60 26L60 24L61 24L61 22L60 22L60 24L57 24L57 23L59 23L59 22L58 22L58 21L59 21L59 20L58 20L58 19L56 19L56 18L57 18L57 17L56 17L56 16L57 16L57 15L56 15L56 12L57 12L57 14L58 14L58 15L60 15L60 18L59 18L59 19L61 19L61 14L58 14L58 13L59 13L59 12L60 12L60 11L61 11L61 10L60 10L60 11L59 11L59 10L58 10L58 8L57 8L57 9L56 9L56 8L55 8L55 9L54 9L54 8L52 8L52 7L53 7L53 6L52 6L52 7L51 7L51 5L52 5L52 4L53 4L53 0L51 0L51 2L50 2L50 3L47 3L47 1L46 1L46 3L45 3L45 0L40 0L40 1L38 1L38 0L37 0L37 1L36 1L36 2L39 2L39 3L41 3L41 4L40 4L40 5L38 5L38 7L37 7L37 5L36 5L36 7L37 7L37 8L35 8L35 9L36 9L36 10L33 10L33 6L34 6L34 7L35 7L35 5L34 5L34 4L35 4L35 1L34 1L34 0L32 0L32 1L31 1L31 0L29 0L29 2L28 2L28 0L26 0L26 1L27 1L27 2L26 2L26 3L25 3L25 4L22 4L22 2L23 2L23 0L21 0L21 1L20 1L20 0L19 0L19 1L17 1L17 0L16 0L16 1L15 1L15 2L16 2L16 4L19 4L19 5L20 5L20 4L21 4L21 5L24 5L24 7L23 7L23 6L22 6L22 7L21 7L21 6L20 6L20 8L19 8L19 6L18 6L18 5L16 5L16 7L17 7L17 8L15 8L15 4L14 4L14 1L13 1L13 0ZM24 0L24 1L25 1L25 0ZM49 0L49 1L48 1L48 2L49 2L49 1L50 1L50 0ZM19 1L19 4L20 4L20 3L21 3L21 2L22 2L22 1L21 1L21 2L20 2L20 1ZM32 1L32 2L31 2L31 3L30 3L30 2L29 2L29 4L31 4L31 3L32 3L32 2L33 2L33 3L34 3L34 1ZM40 1L40 2L41 2L41 1ZM42 1L42 2L43 2L43 3L44 3L44 4L45 4L45 5L40 5L40 6L39 6L39 7L38 7L38 8L37 8L37 9L38 9L38 10L37 10L37 11L35 11L35 12L34 12L34 11L33 11L33 10L32 10L32 11L33 11L33 12L30 12L30 13L31 13L31 14L32 14L32 15L31 15L31 16L29 16L29 15L28 15L28 17L27 17L27 16L26 16L26 15L27 15L27 14L28 14L28 13L29 13L29 11L27 11L27 10L26 10L26 9L27 9L27 7L28 7L28 6L27 6L27 5L26 5L26 4L28 4L28 2L27 2L27 3L26 3L26 4L25 4L25 7L26 7L26 9L25 9L25 8L24 8L24 9L25 9L25 10L21 10L21 9L20 9L20 10L18 10L18 12L21 12L21 13L23 13L23 14L22 14L22 15L23 15L23 16L21 16L21 17L20 17L20 18L19 18L19 17L17 17L17 16L16 16L16 15L15 15L15 14L14 14L14 13L13 13L13 15L12 15L12 17L11 17L11 14L12 14L12 13L10 13L10 11L6 11L6 12L5 12L5 13L6 13L6 14L5 14L5 16L4 16L4 17L3 17L3 18L2 18L2 19L4 19L4 22L5 22L5 23L3 23L3 24L5 24L5 25L6 25L6 26L7 26L7 27L5 27L5 26L4 26L4 28L8 28L8 27L11 27L11 28L9 28L9 30L10 30L10 29L11 29L11 32L12 32L12 30L13 30L13 32L14 32L14 33L15 33L15 34L16 34L16 33L17 33L17 34L19 34L19 36L21 36L21 37L20 37L20 40L19 40L19 41L20 41L20 44L19 44L19 45L18 45L18 44L17 44L17 43L16 43L16 42L17 42L17 41L18 41L18 40L17 40L17 41L15 41L15 42L13 42L13 43L12 43L12 45L13 45L13 46L11 46L11 49L10 49L10 50L11 50L11 49L12 49L12 51L13 51L13 53L12 53L12 54L13 54L13 55L14 55L14 54L15 54L15 51L16 51L16 52L17 52L17 53L16 53L16 54L18 54L18 55L16 55L16 56L18 56L18 57L19 57L19 55L21 55L21 53L25 53L25 54L26 54L26 55L25 55L25 56L24 56L24 57L25 57L25 56L26 56L26 57L27 57L27 56L28 56L28 55L27 55L27 54L26 54L26 53L28 53L28 51L27 51L27 50L29 50L29 52L31 52L31 51L32 51L32 52L33 52L33 51L34 51L34 52L35 52L35 53L36 53L36 52L35 52L35 51L36 51L36 50L35 50L35 49L34 49L34 48L33 48L33 47L32 47L32 49L29 49L29 48L26 48L26 49L25 49L25 48L23 48L23 47L24 47L24 45L27 45L27 46L28 46L28 47L30 47L30 46L32 46L32 45L33 45L33 46L36 46L36 45L34 45L34 44L37 44L37 45L38 45L38 46L37 46L37 47L35 47L35 48L37 48L37 47L38 47L38 46L39 46L39 45L38 45L38 44L37 44L37 43L38 43L38 42L39 42L39 40L37 40L37 39L36 39L36 38L39 38L39 39L41 39L41 40L40 40L40 41L43 41L43 40L44 40L44 41L45 41L45 43L47 43L47 44L49 44L49 45L50 45L50 46L49 46L49 47L45 47L45 48L44 48L44 49L45 49L45 50L47 50L47 49L48 49L48 52L49 52L49 53L50 53L50 54L51 54L51 55L52 55L52 53L51 53L51 52L49 52L49 51L50 51L50 50L51 50L51 49L50 49L50 48L52 48L52 47L53 47L53 48L54 48L54 49L53 49L53 50L52 50L52 51L53 51L53 50L55 50L55 51L54 51L54 52L57 52L57 51L56 51L56 50L57 50L57 49L58 49L58 48L59 48L59 46L58 46L58 45L56 45L56 43L57 43L57 44L59 44L59 45L60 45L60 44L59 44L59 43L60 43L60 42L58 42L58 41L56 41L56 39L57 39L57 38L58 38L58 36L57 36L57 33L56 33L56 35L53 35L53 34L55 34L55 33L53 33L53 34L51 34L51 33L50 33L50 32L51 32L51 31L52 31L52 29L50 29L50 28L51 28L51 25L50 25L50 22L51 22L51 19L52 19L52 20L54 20L54 21L55 21L55 22L54 22L54 23L53 23L53 21L52 21L52 23L51 23L51 24L52 24L52 23L53 23L53 25L52 25L52 26L53 26L53 25L55 25L55 27L52 27L52 28L55 28L55 27L57 27L57 28L59 28L59 25L57 25L57 24L54 24L54 23L55 23L55 22L57 22L57 20L56 20L56 19L55 19L55 18L56 18L56 17L55 17L55 18L54 18L54 19L53 19L53 16L54 16L54 15L55 15L55 16L56 16L56 15L55 15L55 14L54 14L54 13L55 13L55 12L56 12L56 9L55 9L55 10L54 10L54 9L52 9L52 10L53 10L53 11L52 11L52 12L53 12L53 13L52 13L52 15L51 15L51 16L49 16L49 15L50 15L50 14L51 14L51 12L49 12L49 11L51 11L51 7L50 7L50 5L47 5L47 4L45 4L45 3L44 3L44 2L43 2L43 1ZM11 2L11 3L12 3L12 6L13 6L13 5L14 5L14 4L13 4L13 2ZM36 3L36 4L38 4L38 3ZM51 3L51 4L52 4L52 3ZM10 5L10 6L11 6L11 5ZM29 5L29 8L32 8L32 5ZM45 5L45 6L44 6L44 8L45 8L45 9L42 9L42 10L41 10L41 9L39 9L39 8L38 8L38 9L39 9L39 10L38 10L38 11L40 11L40 12L35 12L35 14L34 14L34 12L33 12L33 13L32 13L32 14L33 14L33 15L32 15L32 16L33 16L33 17L32 17L32 18L31 18L31 17L28 17L28 18L27 18L27 17L26 17L26 16L25 16L25 15L24 15L24 16L23 16L23 17L24 17L24 18L25 18L25 17L26 17L26 18L27 18L27 21L26 21L26 19L24 19L24 20L25 20L25 21L22 21L22 22L21 22L21 24L20 24L20 25L22 25L22 27L21 27L21 26L20 26L20 27L19 27L19 28L17 28L17 27L18 27L18 26L19 26L19 25L18 25L18 24L16 24L16 23L18 23L18 21L19 21L19 22L20 22L20 21L21 21L21 20L23 20L23 19L22 19L22 17L21 17L21 20L20 20L20 21L19 21L19 20L18 20L18 19L19 19L19 18L18 18L18 19L17 19L17 20L16 20L16 19L13 19L13 18L14 18L14 17L12 17L12 20L11 20L11 19L10 19L10 20L11 20L11 22L6 22L6 21L7 21L7 20L8 20L8 17L7 17L7 16L6 16L6 17L7 17L7 18L5 18L5 19L7 19L7 20L5 20L5 22L6 22L6 23L5 23L5 24L6 24L6 25L8 25L8 26L10 26L10 25L11 25L11 27L12 27L12 28L11 28L11 29L13 29L13 30L15 30L15 33L16 33L16 32L17 32L17 33L19 33L19 34L20 34L20 35L21 35L21 36L22 36L22 35L21 35L21 34L20 34L20 33L21 33L21 32L17 32L17 31L19 31L19 30L20 30L20 31L22 31L22 30L23 30L23 29L22 29L22 30L20 30L20 29L19 29L19 28L23 28L23 27L24 27L24 28L27 28L27 29L24 29L24 31L25 31L25 33L24 33L24 34L23 34L23 33L22 33L22 34L23 34L23 36L25 36L25 37L21 37L21 40L20 40L20 41L22 41L22 42L24 42L24 43L23 43L23 45L22 45L22 43L21 43L21 44L20 44L20 45L21 45L21 46L20 46L20 49L21 49L21 50L23 50L23 51L26 51L26 50L27 50L27 49L26 49L26 50L25 50L25 49L21 49L21 46L23 46L23 45L24 45L24 44L25 44L25 43L26 43L26 42L27 42L27 43L28 43L28 42L27 42L27 41L26 41L26 39L24 39L24 38L27 38L27 40L28 40L28 41L29 41L29 42L30 42L30 41L31 41L31 42L32 42L32 43L31 43L31 44L30 44L30 45L31 45L31 44L32 44L32 43L33 43L33 40L32 40L32 39L35 39L35 38L36 38L36 37L38 37L38 36L36 36L36 35L39 35L39 36L41 36L41 35L40 35L40 34L43 34L43 33L44 33L44 32L45 32L45 33L47 33L47 32L46 32L46 31L49 31L49 30L50 30L50 31L51 31L51 30L50 30L50 29L49 29L49 27L48 27L48 26L50 26L50 25L49 25L49 24L47 24L47 23L49 23L49 22L50 22L50 20L47 20L47 22L45 22L45 21L44 21L44 20L46 20L46 19L48 19L48 18L49 18L49 16L48 16L48 18L46 18L46 19L44 19L44 20L43 20L43 21L42 21L42 22L43 22L43 25L42 25L42 26L43 26L43 27L42 27L42 28L43 28L43 29L42 29L42 30L41 30L41 31L40 31L40 28L41 28L41 26L40 26L40 24L41 24L41 23L40 23L40 22L37 22L37 21L38 21L38 20L42 20L42 19L41 19L41 18L44 18L44 16L45 16L45 17L46 17L46 15L48 15L48 13L49 13L49 12L47 12L47 14L46 14L46 13L44 13L44 12L45 12L45 11L42 11L42 10L46 10L46 11L49 11L49 10L50 10L50 9L49 9L49 8L50 8L50 7L49 7L49 6L48 6L48 7L49 7L49 8L48 8L48 9L47 9L47 8L46 8L46 7L47 7L47 5ZM17 6L17 7L18 7L18 6ZM26 6L26 7L27 7L27 6ZM30 6L30 7L31 7L31 6ZM40 6L40 8L41 8L41 6ZM42 6L42 8L43 8L43 6ZM45 6L45 7L46 7L46 6ZM22 7L22 9L23 9L23 7ZM12 8L12 9L13 9L13 8ZM59 8L59 9L60 9L60 8ZM28 9L28 10L30 10L30 9ZM46 9L46 10L47 10L47 9ZM20 10L20 11L21 11L21 10ZM40 10L40 11L41 11L41 10ZM23 11L23 12L24 12L24 11ZM26 11L26 12L27 12L27 11ZM54 11L54 12L55 12L55 11ZM57 11L57 12L59 12L59 11ZM0 12L0 13L1 13L1 12ZM6 12L6 13L8 13L8 12ZM40 12L40 15L38 15L38 14L39 14L39 13L38 13L38 14L37 14L37 13L36 13L36 15L35 15L35 17L34 17L34 18L35 18L35 17L36 17L36 16L39 16L39 17L38 17L38 18L37 18L37 19L34 19L34 20L35 20L35 21L34 21L34 22L32 22L32 21L33 21L33 20L32 20L32 19L33 19L33 18L32 18L32 19L31 19L31 20L30 20L30 19L28 19L28 20L29 20L29 21L28 21L28 22L27 22L27 23L25 23L25 24L22 24L22 25L25 25L25 27L27 27L27 28L29 28L29 27L30 27L30 26L29 26L29 25L28 25L28 24L30 24L30 25L31 25L31 26L32 26L32 28L33 28L33 26L35 26L35 27L34 27L34 28L38 28L38 30L35 30L35 29L33 29L33 30L35 30L35 31L34 31L34 32L37 32L37 31L38 31L38 30L39 30L39 28L40 28L40 26L39 26L39 24L38 24L38 23L36 23L36 22L35 22L35 21L36 21L36 20L37 20L37 19L38 19L38 18L41 18L41 16L40 16L40 15L43 15L43 16L44 16L44 15L45 15L45 14L42 14L42 13L41 13L41 12ZM24 13L24 14L27 14L27 13ZM3 14L3 15L2 15L2 16L3 16L3 15L4 15L4 14ZM6 14L6 15L10 15L10 14ZM53 14L53 15L52 15L52 16L51 16L51 17L52 17L52 16L53 16L53 15L54 15L54 14ZM13 15L13 16L14 16L14 15ZM24 16L24 17L25 17L25 16ZM58 16L58 17L59 17L59 16ZM9 17L9 18L10 18L10 17ZM15 17L15 18L16 18L16 17ZM50 18L50 19L51 19L51 18ZM54 19L54 20L55 20L55 19ZM1 20L1 23L2 23L2 20ZM14 20L14 21L12 21L12 22L13 22L13 23L12 23L12 24L11 24L11 23L10 23L10 24L11 24L11 25L12 25L12 26L13 26L13 27L14 27L14 28L13 28L13 29L14 29L14 28L15 28L15 27L17 27L17 26L18 26L18 25L15 25L15 22L17 22L17 21L15 21L15 20ZM60 20L60 21L61 21L61 20ZM14 21L14 22L15 22L15 21ZM25 21L25 22L26 22L26 21ZM30 21L30 22L31 22L31 23L30 23L30 24L31 24L31 25L32 25L32 26L33 26L33 25L34 25L34 24L35 24L35 25L37 25L37 26L36 26L36 27L37 27L37 26L38 26L38 28L39 28L39 26L38 26L38 24L36 24L36 23L35 23L35 22L34 22L34 24L33 24L33 23L32 23L32 22L31 22L31 21ZM43 21L43 22L44 22L44 21ZM48 21L48 22L49 22L49 21ZM22 22L22 23L23 23L23 22ZM28 22L28 23L27 23L27 24L28 24L28 23L29 23L29 22ZM6 23L6 24L8 24L8 23ZM12 24L12 25L13 25L13 24ZM25 24L25 25L26 25L26 26L27 26L27 27L29 27L29 26L27 26L27 25L26 25L26 24ZM44 24L44 26L45 26L45 24ZM46 25L46 26L48 26L48 25ZM56 25L56 26L57 26L57 25ZM43 27L43 28L44 28L44 31L43 31L43 30L42 30L42 31L43 31L43 32L44 32L44 31L46 31L46 30L47 30L47 29L46 29L46 30L45 30L45 28L44 28L44 27ZM46 27L46 28L47 28L47 27ZM5 29L5 32L8 32L8 29ZM15 29L15 30L19 30L19 29ZM27 29L27 30L28 30L28 29ZM29 29L29 32L32 32L32 29ZM53 29L53 32L56 32L56 29ZM57 29L57 32L59 32L59 29ZM6 30L6 31L7 31L7 30ZM30 30L30 31L31 31L31 30ZM54 30L54 31L55 31L55 30ZM9 31L9 33L4 33L4 32L2 32L2 33L3 33L3 34L4 34L4 35L5 35L5 37L4 37L4 40L5 40L5 43L4 43L4 41L3 41L3 43L1 43L1 44L2 44L2 45L3 45L3 44L4 44L4 46L7 46L7 45L8 45L8 44L9 44L9 43L10 43L10 42L11 42L11 41L10 41L10 40L9 40L9 39L8 39L8 41L9 41L9 42L8 42L8 43L6 43L6 42L7 42L7 41L6 41L6 40L7 40L7 39L6 39L6 38L9 38L9 37L10 37L10 38L11 38L11 40L12 40L12 41L13 41L13 39L15 39L15 40L16 40L16 39L18 39L18 38L19 38L19 37L16 37L16 39L15 39L15 36L16 36L16 35L15 35L15 36L14 36L14 34L13 34L13 36L14 36L14 38L13 38L13 39L12 39L12 33L10 33L10 31ZM26 31L26 33L25 33L25 34L26 34L26 33L27 33L27 34L28 34L28 35L27 35L27 36L26 36L26 35L25 35L25 36L26 36L26 37L27 37L27 38L29 38L29 41L30 41L30 40L31 40L31 41L32 41L32 40L31 40L31 39L30 39L30 38L33 38L33 35L32 35L32 37L30 37L30 36L31 36L31 33L27 33L27 31ZM39 32L39 33L38 33L38 34L39 34L39 33L42 33L42 32ZM48 32L48 33L49 33L49 34L48 34L48 35L49 35L49 36L47 36L47 34L44 34L44 36L43 36L43 35L42 35L42 36L43 36L43 37L42 37L42 38L44 38L44 36L47 36L47 37L49 37L49 38L48 38L48 39L49 39L49 40L46 40L46 39L47 39L47 38L46 38L46 39L44 39L44 40L45 40L45 41L48 41L48 42L47 42L47 43L48 43L48 42L50 42L50 41L52 41L52 40L51 40L51 38L52 38L52 36L53 36L53 37L54 37L54 38L53 38L53 39L56 39L56 37L57 37L57 36L53 36L53 35L51 35L51 34L50 34L50 33L49 33L49 32ZM32 33L32 34L34 34L34 35L35 35L35 33ZM36 33L36 34L37 34L37 33ZM6 34L6 35L7 35L7 36L6 36L6 37L5 37L5 38L6 38L6 37L9 37L9 36L10 36L10 35L11 35L11 34L10 34L10 35L9 35L9 34L8 34L8 35L7 35L7 34ZM29 34L29 35L30 35L30 34ZM60 34L60 35L61 35L61 34ZM1 35L1 36L2 36L2 35ZM27 36L27 37L28 37L28 36ZM35 36L35 37L34 37L34 38L35 38L35 37L36 37L36 36ZM49 36L49 37L50 37L50 38L49 38L49 39L50 39L50 38L51 38L51 36ZM39 37L39 38L41 38L41 37ZM5 39L5 40L6 40L6 39ZM23 39L23 40L22 40L22 41L25 41L25 42L26 42L26 41L25 41L25 40L24 40L24 39ZM42 39L42 40L43 40L43 39ZM36 40L36 42L34 42L34 43L36 43L36 42L38 42L38 41L37 41L37 40ZM53 40L53 42L51 42L51 43L52 43L52 44L51 44L51 46L50 46L50 47L49 47L49 48L48 48L48 49L49 49L49 50L50 50L50 49L49 49L49 48L50 48L50 47L52 47L52 46L53 46L53 47L54 47L54 48L57 48L57 47L58 47L58 46L57 46L57 47L56 47L56 46L55 46L55 44L53 44L53 43L56 43L56 41L55 41L55 40ZM1 41L1 42L2 42L2 41ZM13 43L13 45L14 45L14 48L16 48L16 47L17 47L17 51L18 51L18 49L19 49L19 46L18 46L18 45L17 45L17 44L16 44L16 43L15 43L15 44L14 44L14 43ZM39 43L39 44L40 44L40 43ZM49 43L49 44L50 44L50 43ZM6 44L6 45L7 45L7 44ZM15 44L15 45L16 45L16 46L17 46L17 45L16 45L16 44ZM27 44L27 45L28 45L28 44ZM46 45L46 46L48 46L48 45ZM53 45L53 46L54 46L54 45ZM15 49L15 50L16 50L16 49ZM55 49L55 50L56 50L56 49ZM30 50L30 51L31 51L31 50ZM32 50L32 51L33 51L33 50ZM34 50L34 51L35 51L35 50ZM3 51L3 52L4 52L4 51ZM19 51L19 52L18 52L18 53L19 53L19 54L20 54L20 53L21 53L21 51ZM46 51L46 52L47 52L47 51ZM6 52L6 53L7 53L7 52ZM19 52L19 53L20 53L20 52ZM25 52L25 53L26 53L26 52ZM60 52L60 53L61 53L61 52ZM8 53L8 55L9 55L9 53ZM13 53L13 54L14 54L14 53ZM29 53L29 56L32 56L32 53ZM53 53L53 56L56 56L56 53ZM57 53L57 56L60 56L60 55L58 55L58 53ZM22 54L22 57L23 57L23 54ZM30 54L30 55L31 55L31 54ZM54 54L54 55L55 55L55 54ZM8 56L8 61L9 61L9 60L10 60L10 57L9 57L9 56ZM44 56L44 57L43 57L43 58L44 58L44 57L45 57L45 56ZM13 57L13 59L12 59L12 60L11 60L11 61L14 61L14 59L15 59L15 61L17 61L17 60L16 60L16 59L17 59L17 58L16 58L16 59L15 59L15 57ZM20 57L20 58L21 58L21 57ZM55 57L55 58L56 58L56 57ZM52 58L52 59L53 59L53 58ZM46 59L46 60L47 60L47 59ZM0 0L0 7L7 7L7 0ZM1 1L1 6L6 6L6 1ZM2 2L2 5L5 5L5 2ZM54 0L54 7L61 7L61 0ZM55 1L55 6L60 6L60 1ZM56 2L56 5L59 5L59 2ZM0 54L0 61L7 61L7 54ZM1 55L1 60L6 60L6 55ZM2 56L2 59L5 59L5 56Z" fill="#000000"/></g></g></svg>
