<?xml version="1.0" encoding="UTF-8"?>
<svg xmlns="http://www.w3.org/2000/svg" version="1.1" width="200" height="200" viewBox="0 0 200 200"><rect x="0" y="0" width="200" height="200" fill="#ffffff"/><g transform="scale(3.279)"><g transform="translate(0,0)"><path fill-rule="evenodd" d="M9 0L9 1L8 1L8 2L10 2L10 3L8 3L8 4L11 4L11 5L12 5L12 8L11 8L11 10L13 10L13 11L16 11L16 13L14 13L14 14L16 14L16 13L21 13L21 14L20 14L20 15L21 15L21 16L19 16L19 14L18 14L18 15L17 15L17 17L19 17L19 18L18 18L18 19L19 19L19 20L16 20L16 19L15 19L15 21L14 21L14 20L11 20L11 19L14 19L14 17L13 17L13 16L14 16L14 15L13 15L13 16L12 16L12 15L10 15L10 14L8 14L8 13L9 13L9 12L10 12L10 13L11 13L11 14L13 14L13 12L12 12L12 13L11 13L11 12L10 12L10 10L9 10L9 11L8 11L8 13L7 13L7 12L6 12L6 11L7 11L7 10L8 10L8 9L10 9L10 7L11 7L11 6L10 6L10 5L8 5L8 7L9 7L9 8L6 8L6 9L5 9L5 8L0 8L0 9L1 9L1 10L0 10L0 11L1 11L1 10L2 10L2 11L3 11L3 14L1 14L1 13L0 13L0 14L1 14L1 15L0 15L0 16L2 16L2 18L3 18L3 19L2 19L2 20L0 20L0 21L2 21L2 22L0 22L0 25L1 25L1 26L2 26L2 27L3 27L3 28L4 28L4 31L1 31L1 30L0 30L0 31L1 31L1 32L3 32L3 33L0 33L0 36L1 36L1 38L0 38L0 41L1 41L1 40L2 40L2 41L3 41L3 42L4 42L4 43L5 43L5 41L7 41L7 42L6 42L6 43L7 43L7 44L2 44L2 43L1 43L1 42L0 42L0 43L1 43L1 44L2 44L2 45L3 45L3 46L2 46L2 47L1 47L1 46L0 46L0 48L1 48L1 49L0 49L0 50L2 50L2 51L0 51L0 53L4 53L4 52L5 52L5 51L7 51L7 52L6 52L6 53L7 53L7 52L8 52L8 55L9 55L9 53L10 53L10 52L8 52L8 51L15 51L15 52L14 52L14 53L13 53L13 54L12 54L12 53L11 53L11 54L10 54L10 55L12 55L12 56L11 56L11 57L10 57L10 56L8 56L8 61L11 61L11 60L14 60L14 61L19 61L19 59L21 59L21 58L23 58L23 61L24 61L24 60L25 60L25 57L26 57L26 58L27 58L27 60L29 60L29 61L30 61L30 59L28 59L28 58L29 58L29 57L30 57L30 58L32 58L32 59L31 59L31 60L33 60L33 59L34 59L34 60L35 60L35 61L38 61L38 60L36 60L36 59L37 59L37 58L38 58L38 59L39 59L39 60L41 60L41 61L44 61L44 60L43 60L43 59L45 59L45 61L47 61L47 60L46 60L46 59L45 59L45 57L49 57L49 56L50 56L50 57L51 57L51 58L50 58L50 59L49 59L49 58L47 58L47 59L49 59L49 60L48 60L48 61L49 61L49 60L51 60L51 61L53 61L53 60L58 60L58 61L61 61L61 56L60 56L60 60L58 60L58 59L56 59L56 58L59 58L59 56L57 56L57 53L58 53L58 55L59 55L59 54L60 54L60 55L61 55L61 54L60 54L60 53L61 53L61 50L60 50L60 49L61 49L61 48L60 48L60 49L59 49L59 48L58 48L58 49L57 49L57 47L56 47L56 46L54 46L54 45L55 45L55 44L56 44L56 45L57 45L57 46L58 46L58 47L61 47L61 46L58 46L58 45L59 45L59 44L60 44L60 45L61 45L61 42L60 42L60 41L59 41L59 40L57 40L57 39L59 39L59 36L58 36L58 38L57 38L57 39L56 39L56 37L57 37L57 36L56 36L56 37L55 37L55 36L54 36L54 37L55 37L55 38L54 38L54 39L53 39L53 40L54 40L54 41L53 41L53 42L51 42L51 43L50 43L50 44L48 44L48 43L47 43L47 42L50 42L50 40L47 40L47 38L46 38L46 36L47 36L47 37L49 37L49 38L48 38L48 39L49 39L49 38L50 38L50 39L51 39L51 38L53 38L53 37L52 37L52 36L53 36L53 35L52 35L52 34L50 34L50 35L49 35L49 36L47 36L47 35L48 35L48 34L49 34L49 32L51 32L51 33L53 33L53 34L54 34L54 35L55 35L55 33L57 33L57 28L58 28L58 29L59 29L59 32L58 32L58 33L61 33L61 32L60 32L60 31L61 31L61 30L60 30L60 29L59 29L59 28L61 28L61 26L60 26L60 25L61 25L61 24L60 24L60 25L59 25L59 24L57 24L57 23L59 23L59 22L60 22L60 23L61 23L61 22L60 22L60 19L61 19L61 18L59 18L59 16L57 16L57 15L61 15L61 14L57 14L57 13L56 13L56 16L55 16L55 17L54 17L54 18L55 18L55 19L54 19L54 20L57 20L57 17L58 17L58 19L59 19L59 20L58 20L58 21L57 21L57 23L56 23L56 21L53 21L53 20L51 20L51 22L50 22L50 20L47 20L47 18L44 18L44 19L43 19L43 17L44 17L44 16L43 16L43 17L42 17L42 15L43 15L43 14L45 14L45 17L49 17L49 16L51 16L51 14L50 14L50 12L51 12L51 13L53 13L53 12L55 12L55 11L52 11L52 10L51 10L51 11L50 11L50 9L54 9L54 10L55 10L55 9L56 9L56 12L58 12L58 13L59 13L59 12L60 12L60 11L61 11L61 10L60 10L60 11L59 11L59 12L58 12L58 11L57 11L57 10L59 10L59 9L60 9L60 8L59 8L59 9L58 9L58 8L57 8L57 9L56 9L56 8L55 8L55 9L54 9L54 8L52 8L52 7L53 7L53 6L52 6L52 7L51 7L51 5L52 5L52 4L53 4L53 0L51 0L51 2L50 2L50 3L47 3L47 5L45 5L45 6L44 6L44 5L43 5L43 4L44 4L44 3L45 3L45 2L44 2L44 3L43 3L43 1L44 1L44 0L41 0L41 1L40 1L40 2L39 2L39 1L38 1L38 0L35 0L35 1L34 1L34 0L31 0L31 1L30 1L30 0L29 0L29 1L28 1L28 2L30 2L30 3L28 3L28 4L26 4L26 5L27 5L27 6L26 6L26 7L25 7L25 4L22 4L22 1L23 1L23 0L21 0L21 3L20 3L20 2L19 2L19 3L18 3L18 4L19 4L19 6L18 6L18 5L16 5L16 4L17 4L17 0L16 0L16 1L15 1L15 2L14 2L14 3L15 3L15 4L14 4L14 5L15 5L15 6L14 6L14 8L13 8L13 0ZM19 0L19 1L20 1L20 0ZM24 0L24 1L25 1L25 3L26 3L26 1L27 1L27 0L26 0L26 1L25 1L25 0ZM48 0L48 2L49 2L49 1L50 1L50 0ZM10 1L10 2L11 2L11 1ZM32 1L32 4L33 4L33 3L34 3L34 2L33 2L33 1ZM37 1L37 2L36 2L36 3L35 3L35 4L34 4L34 5L35 5L35 7L34 7L34 6L33 6L33 7L34 7L34 8L35 8L35 9L34 9L34 10L35 10L35 9L36 9L36 11L35 11L35 12L30 12L30 11L27 11L27 12L26 12L26 9L28 9L28 10L30 10L30 9L28 9L28 8L27 8L27 7L28 7L28 6L27 6L27 7L26 7L26 9L25 9L25 10L22 10L22 11L20 11L20 10L21 10L21 9L20 9L20 10L18 10L18 8L17 8L17 7L18 7L18 6L17 6L17 7L16 7L16 6L15 6L15 7L16 7L16 8L17 8L17 9L16 9L16 11L17 11L17 12L18 12L18 11L19 11L19 12L21 12L21 13L23 13L23 14L22 14L22 15L23 15L23 16L21 16L21 17L20 17L20 18L19 18L19 19L20 19L20 18L21 18L21 20L22 20L22 21L20 21L20 20L19 20L19 21L20 21L20 22L18 22L18 21L16 21L16 22L18 22L18 23L17 23L17 24L18 24L18 25L16 25L16 28L17 28L17 26L18 26L18 25L19 25L19 27L20 27L20 26L21 26L21 29L20 29L20 28L19 28L19 29L18 29L18 31L17 31L17 32L16 32L16 31L15 31L15 32L14 32L14 33L13 33L13 32L12 32L12 33L11 33L11 31L12 31L12 30L11 30L11 29L15 29L15 30L17 30L17 29L15 29L15 28L14 28L14 26L15 26L15 24L16 24L16 23L15 23L15 22L14 22L14 25L13 25L13 24L12 24L12 25L11 25L11 24L10 24L10 23L13 23L13 21L11 21L11 22L10 22L10 21L9 21L9 19L8 19L8 21L5 21L5 20L7 20L7 19L5 19L5 18L8 18L8 15L6 15L6 14L7 14L7 13L5 13L5 12L4 12L4 14L3 14L3 15L2 15L2 16L3 16L3 15L4 15L4 16L5 16L5 17L4 17L4 19L3 19L3 20L4 20L4 21L3 21L3 22L2 22L2 23L1 23L1 25L2 25L2 23L6 23L6 24L4 24L4 25L5 25L5 27L4 27L4 26L3 26L3 27L4 27L4 28L9 28L9 30L10 30L10 31L9 31L9 32L10 32L10 33L9 33L9 34L8 34L8 33L4 33L4 34L5 34L5 35L3 35L3 36L5 36L5 37L6 37L6 38L7 38L7 37L6 37L6 36L7 36L7 35L8 35L8 38L9 38L9 37L10 37L10 38L11 38L11 39L10 39L10 40L7 40L7 39L4 39L4 40L3 40L3 39L2 39L2 38L3 38L3 37L2 37L2 38L1 38L1 39L2 39L2 40L3 40L3 41L5 41L5 40L7 40L7 41L8 41L8 42L7 42L7 43L8 43L8 44L10 44L10 46L9 46L9 45L8 45L8 46L7 46L7 45L4 45L4 48L5 48L5 49L4 49L4 50L5 50L5 49L6 49L6 50L7 50L7 51L8 51L8 48L10 48L10 46L11 46L11 47L14 47L14 50L15 50L15 51L16 51L16 52L15 52L15 55L16 55L16 56L15 56L15 57L16 57L16 58L17 58L17 59L16 59L16 60L18 60L18 59L19 59L19 58L18 58L18 57L19 57L19 55L21 55L21 53L20 53L20 52L19 52L19 54L18 54L18 53L17 53L17 50L19 50L19 49L20 49L20 51L21 51L21 49L22 49L22 51L23 51L23 52L22 52L22 53L25 53L25 54L26 54L26 55L25 55L25 56L24 56L24 55L23 55L23 54L22 54L22 55L23 55L23 56L20 56L20 58L21 58L21 57L23 57L23 58L24 58L24 57L25 57L25 56L26 56L26 57L27 57L27 55L28 55L28 54L26 54L26 53L27 53L27 52L26 52L26 51L27 51L27 50L28 50L28 49L29 49L29 51L28 51L28 52L31 52L31 51L32 51L32 52L33 52L33 51L34 51L34 52L35 52L35 53L33 53L33 54L34 54L34 55L33 55L33 56L34 56L34 57L32 57L32 58L35 58L35 55L36 55L36 56L37 56L37 57L38 57L38 58L39 58L39 57L41 57L41 56L42 56L42 55L43 55L43 56L44 56L44 57L45 57L45 56L44 56L44 55L45 55L45 54L44 54L44 53L45 53L45 52L46 52L46 54L47 54L47 52L46 52L46 51L45 51L45 50L47 50L47 51L48 51L48 52L49 52L49 53L50 53L50 54L49 54L49 55L46 55L46 56L49 56L49 55L50 55L50 54L52 54L52 53L51 53L51 52L49 52L49 51L48 51L48 50L49 50L49 49L50 49L50 50L51 50L51 51L53 51L53 52L55 52L55 51L54 51L54 50L56 50L56 52L59 52L59 53L60 53L60 51L59 51L59 49L58 49L58 51L57 51L57 49L56 49L56 48L55 48L55 49L54 49L54 47L53 47L53 46L52 46L52 45L53 45L53 44L55 44L55 43L54 43L54 42L53 42L53 44L52 44L52 43L51 43L51 44L50 44L50 46L49 46L49 45L48 45L48 44L47 44L47 45L46 45L46 46L47 46L47 49L45 49L45 48L46 48L46 47L45 47L45 43L44 43L44 46L41 46L41 45L43 45L43 42L41 42L41 43L42 43L42 44L40 44L40 41L41 41L41 40L40 40L40 41L39 41L39 40L38 40L38 38L39 38L39 39L42 39L42 40L43 40L43 38L44 38L44 39L45 39L45 36L46 36L46 35L45 35L45 34L48 34L48 32L49 32L49 31L50 31L50 30L51 30L51 31L52 31L52 29L51 29L51 28L53 28L53 25L55 25L55 27L57 27L57 26L56 26L56 25L57 25L57 24L54 24L54 23L55 23L55 22L53 22L53 21L52 21L52 23L50 23L50 22L49 22L49 21L48 21L48 22L49 22L49 23L46 23L46 24L52 24L52 23L53 23L53 25L50 25L50 26L48 26L48 25L46 25L46 26L40 26L40 27L39 27L39 28L38 28L38 26L39 26L39 25L38 25L38 24L39 24L39 23L38 23L38 22L40 22L40 23L41 23L41 24L40 24L40 25L45 25L45 24L44 24L44 23L45 23L45 22L47 22L47 20L46 20L46 19L45 19L45 20L44 20L44 22L42 22L42 21L43 21L43 19L42 19L42 20L39 20L39 21L38 21L38 20L37 20L37 19L38 19L38 18L40 18L40 19L41 19L41 16L39 16L39 15L38 15L38 14L40 14L40 15L41 15L41 14L40 14L40 13L41 13L41 12L39 12L39 11L40 11L40 10L41 10L41 11L44 11L44 13L46 13L46 14L48 14L48 16L49 16L49 15L50 15L50 14L49 14L49 13L47 13L47 11L45 11L45 10L44 10L44 9L46 9L46 10L48 10L48 12L49 12L49 10L48 10L48 9L47 9L47 8L51 8L51 7L50 7L50 5L47 5L47 7L46 7L46 6L45 6L45 8L43 8L43 7L44 7L44 6L43 6L43 7L42 7L42 5L40 5L40 4L41 4L41 3L39 3L39 2L38 2L38 1ZM41 1L41 2L42 2L42 1ZM46 1L46 2L47 2L47 1ZM15 2L15 3L16 3L16 2ZM19 3L19 4L20 4L20 6L19 6L19 7L20 7L20 8L22 8L22 9L24 9L24 8L23 8L23 7L24 7L24 6L23 6L23 7L22 7L22 4L20 4L20 3ZM30 3L30 4L31 4L31 3ZM36 3L36 4L35 4L35 5L36 5L36 7L37 7L37 5L38 5L38 7L39 7L39 8L38 8L38 9L37 9L37 8L36 8L36 9L37 9L37 11L39 11L39 10L40 10L40 8L41 8L41 6L40 6L40 5L38 5L38 3ZM51 3L51 4L52 4L52 3ZM29 5L29 8L32 8L32 5ZM9 6L9 7L10 7L10 6ZM20 6L20 7L21 7L21 6ZM30 6L30 7L31 7L31 6ZM39 6L39 7L40 7L40 6ZM48 6L48 7L49 7L49 6ZM12 8L12 9L13 9L13 8ZM14 8L14 9L15 9L15 8ZM4 9L4 10L3 10L3 11L4 11L4 10L5 10L5 11L6 11L6 10L7 10L7 9L6 9L6 10L5 10L5 9ZM32 9L32 11L33 11L33 9ZM38 9L38 10L39 10L39 9ZM42 9L42 10L43 10L43 9ZM17 10L17 11L18 11L18 10ZM22 11L22 12L23 12L23 13L24 13L24 14L25 14L25 15L24 15L24 16L23 16L23 17L24 17L24 18L25 18L25 17L26 17L26 18L27 18L27 19L26 19L26 20L27 20L27 21L26 21L26 22L25 22L25 21L22 21L22 22L21 22L21 24L20 24L20 23L19 23L19 24L20 24L20 25L21 25L21 26L23 26L23 25L22 25L22 24L25 24L25 25L24 25L24 26L25 26L25 25L26 25L26 26L27 26L27 27L26 27L26 28L27 28L27 29L24 29L24 28L23 28L23 29L21 29L21 31L22 31L22 30L23 30L23 29L24 29L24 31L23 31L23 32L25 32L25 33L24 33L24 34L20 34L20 33L21 33L21 32L20 32L20 31L19 31L19 32L17 32L17 33L16 33L16 32L15 32L15 33L16 33L16 34L13 34L13 33L12 33L12 34L11 34L11 36L12 36L12 39L13 39L13 40L11 40L11 42L12 42L12 44L11 44L11 43L10 43L10 44L11 44L11 45L12 45L12 44L13 44L13 46L14 46L14 44L15 44L15 45L19 45L19 46L16 46L16 48L17 48L17 47L18 47L18 49L19 49L19 48L20 48L20 49L21 49L21 46L23 46L23 45L24 45L24 46L27 46L27 47L26 47L26 48L25 48L25 47L23 47L23 48L25 48L25 49L23 49L23 51L25 51L25 49L26 49L26 50L27 50L27 49L26 49L26 48L29 48L29 49L32 49L32 43L33 43L33 44L35 44L35 45L36 45L36 46L34 46L34 45L33 45L33 49L36 49L36 50L34 50L34 51L35 51L35 52L36 52L36 53L38 53L38 51L39 51L39 50L40 50L40 52L42 52L42 54L43 54L43 53L44 53L44 52L45 52L45 51L44 51L44 50L43 50L43 49L44 49L44 48L43 48L43 47L41 47L41 46L38 46L38 45L39 45L39 42L38 42L38 40L36 40L36 39L35 39L35 38L34 38L34 37L35 37L35 34L36 34L36 35L37 35L37 32L38 32L38 33L39 33L39 34L38 34L38 35L39 35L39 36L36 36L36 37L37 37L37 38L38 38L38 37L39 37L39 38L41 38L41 37L39 37L39 36L41 36L41 34L42 34L42 36L43 36L43 37L42 37L42 38L43 38L43 37L44 37L44 36L45 36L45 35L44 35L44 36L43 36L43 34L45 34L45 33L44 33L44 32L43 32L43 31L44 31L44 28L43 28L43 29L42 29L42 27L40 27L40 28L41 28L41 29L40 29L40 30L38 30L38 28L35 28L35 26L36 26L36 27L37 27L37 26L38 26L38 25L37 25L37 24L38 24L38 23L37 23L37 22L38 22L38 21L37 21L37 20L36 20L36 19L37 19L37 18L38 18L38 16L34 16L34 15L36 15L36 13L37 13L37 14L38 14L38 13L39 13L39 12L35 12L35 14L34 14L34 13L32 13L32 14L31 14L31 13L28 13L28 14L27 14L27 13L26 13L26 14L25 14L25 13L24 13L24 12L25 12L25 11L24 11L24 12L23 12L23 11ZM51 11L51 12L52 12L52 11ZM54 13L54 14L53 14L53 16L54 16L54 14L55 14L55 13ZM4 14L4 15L5 15L5 16L6 16L6 17L7 17L7 16L6 16L6 15L5 15L5 14ZM26 14L26 17L29 17L29 19L27 19L27 20L29 20L29 21L28 21L28 22L30 22L30 23L28 23L28 24L27 24L27 23L25 23L25 24L26 24L26 25L27 25L27 26L29 26L29 24L30 24L30 26L32 26L32 28L33 28L33 25L31 25L31 24L34 24L34 26L35 26L35 24L37 24L37 23L36 23L36 22L37 22L37 21L36 21L36 20L35 20L35 19L34 19L34 18L35 18L35 17L34 17L34 18L32 18L32 17L33 17L33 16L32 16L32 15L34 15L34 14L32 14L32 15L31 15L31 20L29 20L29 19L30 19L30 16L29 16L29 15L27 15L27 14ZM9 15L9 16L10 16L10 15ZM46 15L46 16L47 16L47 15ZM11 16L11 17L9 17L9 18L10 18L10 19L11 19L11 18L12 18L12 16ZM24 16L24 17L25 17L25 16ZM56 16L56 17L57 17L57 16ZM60 16L60 17L61 17L61 16ZM0 17L0 19L1 19L1 17ZM15 17L15 18L16 18L16 17ZM21 17L21 18L22 18L22 17ZM36 17L36 18L37 18L37 17ZM48 18L48 19L49 19L49 18ZM50 18L50 19L51 19L51 18ZM4 19L4 20L5 20L5 19ZM24 19L24 20L25 20L25 19ZM32 19L32 20L33 20L33 21L32 21L32 22L31 22L31 21L30 21L30 22L31 22L31 23L30 23L30 24L31 24L31 23L32 23L32 22L34 22L34 24L35 24L35 22L34 22L34 21L35 21L35 20L34 20L34 19ZM45 20L45 21L46 21L46 20ZM4 21L4 22L5 22L5 21ZM8 21L8 22L6 22L6 23L8 23L8 22L9 22L9 21ZM58 21L58 22L59 22L59 21ZM22 22L22 23L24 23L24 22ZM42 23L42 24L43 24L43 23ZM6 24L6 25L7 25L7 26L6 26L6 27L7 27L7 26L8 26L8 25L9 25L9 26L10 26L10 27L12 27L12 28L13 28L13 27L12 27L12 26L10 26L10 24ZM36 25L36 26L37 26L37 25ZM46 26L46 27L45 27L45 30L46 30L46 31L47 31L47 30L46 30L46 29L49 29L49 30L50 30L50 28L46 28L46 27L48 27L48 26ZM58 26L58 28L59 28L59 26ZM0 27L0 29L2 29L2 28L1 28L1 27ZM27 27L27 28L29 28L29 27ZM10 28L10 29L11 29L11 28ZM34 28L34 30L33 30L33 31L34 31L34 30L35 30L35 32L37 32L37 31L38 31L38 30L35 30L35 28ZM5 29L5 32L8 32L8 29ZM27 29L27 30L28 30L28 29ZM29 29L29 32L32 32L32 29ZM53 29L53 32L56 32L56 29ZM6 30L6 31L7 31L7 30ZM30 30L30 31L31 31L31 30ZM40 30L40 31L43 31L43 30ZM54 30L54 31L55 31L55 30ZM25 31L25 32L26 32L26 33L27 33L27 34L28 34L28 35L25 35L25 36L24 36L24 37L25 37L25 38L23 38L23 39L22 39L22 38L21 38L21 37L20 37L20 38L19 38L19 41L20 41L20 44L21 44L21 45L20 45L20 46L19 46L19 47L20 47L20 46L21 46L21 45L23 45L23 44L24 44L24 45L27 45L27 46L28 46L28 47L30 47L30 48L31 48L31 45L30 45L30 44L28 44L28 43L30 43L30 42L31 42L31 43L32 43L32 42L33 42L33 43L34 43L34 42L35 42L35 44L37 44L37 45L38 45L38 44L37 44L37 43L38 43L38 42L37 42L37 41L36 41L36 42L35 42L35 41L33 41L33 39L31 39L31 38L33 38L33 35L32 35L32 37L30 37L30 36L31 36L31 33L29 33L29 34L28 34L28 32L26 32L26 31ZM19 32L19 33L18 33L18 34L17 34L17 35L18 35L18 34L19 34L19 33L20 33L20 32ZM39 32L39 33L41 33L41 32ZM32 33L32 34L33 34L33 33ZM34 33L34 34L35 34L35 33ZM6 34L6 35L5 35L5 36L6 36L6 35L7 35L7 34ZM9 34L9 35L10 35L10 34ZM12 34L12 35L13 35L13 34ZM29 34L29 35L30 35L30 34ZM56 34L56 35L57 35L57 34ZM59 34L59 35L61 35L61 34ZM1 35L1 36L2 36L2 35ZM15 35L15 36L16 36L16 37L14 37L14 38L13 38L13 39L14 39L14 38L15 38L15 41L16 41L16 42L17 42L17 44L18 44L18 42L17 42L17 41L18 41L18 40L17 40L17 39L18 39L18 38L17 38L17 36L16 36L16 35ZM21 35L21 36L22 36L22 37L23 37L23 35ZM27 36L27 37L26 37L26 38L27 38L27 40L29 40L29 41L28 41L28 42L27 42L27 41L26 41L26 39L25 39L25 41L24 41L24 39L23 39L23 41L22 41L22 39L21 39L21 38L20 38L20 39L21 39L21 42L23 42L23 41L24 41L24 42L25 42L25 41L26 41L26 43L24 43L24 44L26 44L26 43L28 43L28 42L29 42L29 41L32 41L32 40L31 40L31 39L30 39L30 40L29 40L29 39L28 39L28 38L27 38L27 37L28 37L28 36ZM49 36L49 37L50 37L50 38L51 38L51 36ZM60 36L60 37L61 37L61 36ZM60 38L60 39L61 39L61 38ZM34 39L34 40L35 40L35 39ZM54 39L54 40L56 40L56 39ZM16 40L16 41L17 41L17 40ZM44 40L44 42L45 42L45 40ZM51 40L51 41L52 41L52 40ZM9 41L9 42L8 42L8 43L9 43L9 42L10 42L10 41ZM12 41L12 42L13 42L13 44L14 44L14 43L15 43L15 42L14 42L14 41ZM46 41L46 42L47 42L47 41ZM55 41L55 42L56 42L56 44L57 44L57 45L58 45L58 44L59 44L59 43L60 43L60 42L57 42L57 41ZM36 42L36 43L37 43L37 42ZM21 43L21 44L22 44L22 43ZM57 43L57 44L58 44L58 43ZM51 44L51 45L52 45L52 44ZM6 46L6 47L5 47L5 48L6 48L6 49L7 49L7 48L6 48L6 47L7 47L7 46ZM37 46L37 47L34 47L34 48L37 48L37 47L38 47L38 46ZM48 46L48 47L49 47L49 46ZM50 46L50 47L51 47L51 46ZM39 47L39 48L38 48L38 50L36 50L36 52L37 52L37 51L38 51L38 50L39 50L39 49L42 49L42 48L40 48L40 47ZM48 48L48 49L49 49L49 48ZM50 48L50 49L51 49L51 50L53 50L53 49L52 49L52 48ZM2 49L2 50L3 50L3 49ZM9 49L9 50L13 50L13 49ZM15 49L15 50L16 50L16 49ZM30 50L30 51L31 51L31 50ZM32 50L32 51L33 51L33 50ZM41 50L41 51L42 51L42 52L44 52L44 51L42 51L42 50ZM3 51L3 52L4 52L4 51ZM25 52L25 53L26 53L26 52ZM29 53L29 56L32 56L32 53ZM39 53L39 54L38 54L38 55L37 55L37 54L36 54L36 55L37 55L37 56L40 56L40 54L41 54L41 53ZM53 53L53 56L56 56L56 53ZM13 54L13 55L14 55L14 54ZM16 54L16 55L18 55L18 54ZM30 54L30 55L31 55L31 54ZM54 54L54 55L55 55L55 54ZM51 55L51 56L52 56L52 55ZM12 56L12 57L11 57L11 58L12 58L12 59L13 59L13 57L14 57L14 56ZM16 56L16 57L18 57L18 56ZM9 57L9 59L10 59L10 60L11 60L11 59L10 59L10 57ZM53 57L53 58L52 58L52 59L51 59L51 60L52 60L52 59L55 59L55 58L56 58L56 57ZM41 58L41 60L42 60L42 59L43 59L43 58ZM14 59L14 60L15 60L15 59ZM20 60L20 61L21 61L21 60ZM0 0L0 7L7 7L7 0ZM1 1L1 6L6 6L6 1ZM2 2L2 5L5 5L5 2ZM54 0L54 7L61 7L61 0ZM55 1L55 6L60 6L60 1ZM56 2L56 5L59 5L59 2ZM0 54L0 61L7 61L7 54ZM1 55L1 60L6 60L6 55ZM2 56L2 59L5 59L5 56Z" fill="#000000"/></g></g></svg>
