<?xml version="1.0" encoding="UTF-8"?>
<svg xmlns="http://www.w3.org/2000/svg" version="1.1" width="200" height="200" viewBox="0 0 200 200"><rect x="0" y="0" width="200" height="200" fill="#ffffff"/><g transform="scale(3.279)"><g transform="translate(0,0)"><path fill-rule="evenodd" d="M8 0L8 1L9 1L9 5L10 5L10 7L9 7L9 6L8 6L8 8L9 8L9 9L8 9L8 10L5 10L5 8L3 8L3 10L2 10L2 11L0 11L0 14L1 14L1 17L0 17L0 18L2 18L2 20L0 20L0 22L2 22L2 23L3 23L3 21L2 21L2 20L4 20L4 22L5 22L5 23L9 23L9 22L10 22L10 24L8 24L8 25L7 25L7 24L5 24L5 25L7 25L7 26L4 26L4 25L3 25L3 24L2 24L2 25L3 25L3 26L4 26L4 27L1 27L1 26L0 26L0 30L1 30L1 31L2 31L2 33L1 33L1 34L0 34L0 37L1 37L1 38L4 38L4 39L5 39L5 38L6 38L6 39L7 39L7 40L6 40L6 41L9 41L9 42L5 42L5 40L4 40L4 41L2 41L2 40L3 40L3 39L0 39L0 40L1 40L1 42L0 42L0 45L1 45L1 42L4 42L4 43L5 43L5 44L4 44L4 45L5 45L5 46L3 46L3 44L2 44L2 46L0 46L0 50L2 50L2 51L0 51L0 53L4 53L4 52L5 52L5 51L7 51L7 52L6 52L6 53L8 53L8 54L9 54L9 55L10 55L10 57L9 57L9 56L8 56L8 58L9 58L9 59L8 59L8 61L9 61L9 60L10 60L10 59L13 59L13 56L18 56L18 57L14 57L14 60L11 60L11 61L14 61L14 60L15 60L15 61L16 61L16 58L17 58L17 60L18 60L18 61L20 61L20 60L21 60L21 59L22 59L22 58L21 58L21 59L19 59L19 60L18 60L18 58L20 58L20 56L22 56L22 57L23 57L23 60L22 60L22 61L24 61L24 60L25 60L25 61L29 61L29 60L30 60L30 61L31 61L31 60L30 60L30 59L32 59L32 61L34 61L34 60L36 60L36 61L38 61L38 60L36 60L36 59L37 59L37 58L38 58L38 59L39 59L39 58L41 58L41 59L43 59L43 60L40 60L40 61L43 61L43 60L44 60L44 61L45 61L45 59L46 59L46 61L47 61L47 59L48 59L48 61L49 61L49 60L50 60L50 61L54 61L54 60L55 60L55 61L58 61L58 60L60 60L60 61L61 61L61 57L60 57L60 56L61 56L61 54L60 54L60 53L61 53L61 50L59 50L59 51L57 51L57 52L50 52L50 50L51 50L51 49L52 49L52 50L53 50L53 51L55 51L55 49L56 49L56 50L58 50L58 48L59 48L59 49L61 49L61 46L60 46L60 48L59 48L59 47L58 47L58 43L59 43L59 44L60 44L60 45L61 45L61 42L60 42L60 41L61 41L61 40L59 40L59 39L61 39L61 38L59 38L59 37L58 37L58 36L59 36L59 34L60 34L60 37L61 37L61 34L60 34L60 32L61 32L61 30L60 30L60 28L59 28L59 27L61 27L61 26L60 26L60 25L61 25L61 22L60 22L60 25L59 25L59 26L58 26L58 27L57 27L57 28L55 28L55 27L56 27L56 25L58 25L58 24L59 24L59 21L61 21L61 18L60 18L60 19L59 19L59 15L60 15L60 16L61 16L61 14L59 14L59 15L58 15L58 14L57 14L57 15L58 15L58 16L54 16L54 14L55 14L55 15L56 15L56 13L58 13L58 12L59 12L59 13L60 13L60 12L59 12L59 11L61 11L61 10L59 10L59 11L55 11L55 13L54 13L54 12L53 12L53 11L54 11L54 10L55 10L55 8L54 8L54 10L53 10L53 8L52 8L52 7L53 7L53 6L52 6L52 7L51 7L51 5L52 5L52 4L53 4L53 0L51 0L51 2L49 2L49 1L50 1L50 0L48 0L48 1L47 1L47 0L46 0L46 2L44 2L44 4L50 4L50 7L51 7L51 8L52 8L52 9L49 9L49 5L47 5L47 6L46 6L46 5L45 5L45 6L44 6L44 7L43 7L43 6L42 6L42 5L43 5L43 4L41 4L41 3L42 3L42 2L39 2L39 0L38 0L38 2L39 2L39 4L38 4L38 3L37 3L37 2L36 2L36 1L37 1L37 0L33 0L33 1L31 1L31 2L29 2L29 0L27 0L27 1L28 1L28 2L26 2L26 1L25 1L25 3L26 3L26 4L27 4L27 5L25 5L25 4L23 4L23 3L24 3L24 2L22 2L22 1L23 1L23 0L19 0L19 1L18 1L18 0L14 0L14 1L15 1L15 3L14 3L14 2L13 2L13 0L11 0L11 1L12 1L12 2L10 2L10 0ZM40 0L40 1L41 1L41 0ZM42 0L42 1L45 1L45 0ZM16 1L16 2L17 2L17 1ZM20 1L20 2L21 2L21 1ZM33 1L33 2L34 2L34 1ZM12 2L12 3L11 3L11 4L10 4L10 5L13 5L13 7L12 7L12 6L11 6L11 7L12 7L12 8L11 8L11 9L9 9L9 11L8 11L8 12L9 12L9 13L8 13L8 15L9 15L9 16L10 16L10 17L9 17L9 19L10 19L10 22L11 22L11 23L12 23L12 24L14 24L14 26L12 26L12 25L11 25L11 24L10 24L10 25L11 25L11 26L12 26L12 27L11 27L11 28L10 28L10 30L11 30L11 29L13 29L13 28L12 28L12 27L14 27L14 28L19 28L19 27L18 27L18 26L17 26L17 24L18 24L18 23L17 23L17 24L16 24L16 23L15 23L15 22L16 22L16 21L18 21L18 22L19 22L19 21L18 21L18 20L19 20L19 19L17 19L17 17L18 17L18 18L20 18L20 19L22 19L22 20L21 20L21 22L20 22L20 23L21 23L21 22L22 22L22 24L21 24L21 25L19 25L19 26L21 26L21 25L22 25L22 24L24 24L24 25L27 25L27 24L28 24L28 21L31 21L31 23L32 23L32 24L30 24L30 23L29 23L29 24L30 24L30 25L32 25L32 27L31 27L31 28L34 28L34 27L35 27L35 30L34 30L34 29L33 29L33 30L34 30L34 31L33 31L33 33L29 33L29 34L28 34L28 35L26 35L26 34L27 34L27 32L26 32L26 33L24 33L24 32L25 32L25 31L28 31L28 30L25 30L25 31L24 31L24 32L22 32L22 31L23 31L23 27L20 27L20 30L19 30L19 29L18 29L18 30L19 30L19 31L18 31L18 32L20 32L20 30L21 30L21 34L20 34L20 33L18 33L18 36L19 36L19 35L21 35L21 36L20 36L20 37L17 37L17 36L16 36L16 35L17 35L17 34L16 34L16 32L17 32L17 31L16 31L16 30L12 30L12 32L11 32L11 33L12 33L12 32L13 32L13 34L15 34L15 36L16 36L16 37L13 37L13 35L12 35L12 34L11 34L11 35L12 35L12 37L13 37L13 38L15 38L15 40L14 40L14 39L13 39L13 44L14 44L14 46L13 46L13 48L14 48L14 49L15 49L15 47L14 47L14 46L15 46L15 45L18 45L18 46L17 46L17 47L16 47L16 48L17 48L17 50L16 50L16 52L17 52L17 53L18 53L18 52L19 52L19 53L20 53L20 54L21 54L21 53L22 53L22 56L24 56L24 57L25 57L25 59L26 59L26 60L27 60L27 59L28 59L28 60L29 60L29 59L30 59L30 58L29 58L29 57L27 57L27 59L26 59L26 56L27 56L27 55L28 55L28 54L27 54L27 53L28 53L28 52L29 52L29 51L30 51L30 52L31 52L31 51L30 51L30 50L31 50L31 49L30 49L30 46L31 46L31 45L27 45L27 44L29 44L29 42L31 42L31 41L29 41L29 42L28 42L28 43L26 43L26 42L27 42L27 41L26 41L26 40L24 40L24 41L23 41L23 39L22 39L22 40L21 40L21 38L22 38L22 33L24 33L24 35L23 35L23 36L25 36L25 38L26 38L26 39L27 39L27 40L31 40L31 39L30 39L30 34L31 34L31 35L32 35L32 36L31 36L31 38L32 38L32 36L33 36L33 37L34 37L34 39L33 39L33 40L34 40L34 41L36 41L36 40L38 40L38 37L40 37L40 38L39 38L39 39L40 39L40 41L38 41L38 42L41 42L41 43L42 43L42 41L43 41L43 42L44 42L44 40L46 40L46 39L47 39L47 38L49 38L49 37L48 37L48 36L50 36L50 37L51 37L51 36L53 36L53 37L52 37L52 38L54 38L54 37L55 37L55 38L56 38L56 37L57 37L57 35L56 35L56 37L55 37L55 35L54 35L54 34L53 34L53 33L51 33L51 35L50 35L50 34L49 34L49 35L48 35L48 36L46 36L46 35L45 35L45 37L44 37L44 35L43 35L43 34L45 34L45 33L47 33L47 34L48 34L48 33L47 33L47 32L45 32L45 29L48 29L48 30L46 30L46 31L48 31L48 32L49 32L49 33L50 33L50 32L49 32L49 31L51 31L51 32L52 32L52 31L51 31L51 29L50 29L50 30L49 30L49 29L48 29L48 28L50 28L50 27L47 27L47 25L48 25L48 24L47 24L47 23L46 23L46 22L45 22L45 23L46 23L46 24L45 24L45 25L44 25L44 26L46 26L46 27L42 27L42 26L40 26L40 25L39 25L39 26L38 26L38 24L37 24L37 23L39 23L39 24L41 24L41 23L43 23L43 24L42 24L42 25L43 25L43 24L44 24L44 23L43 23L43 22L42 22L42 21L43 21L43 20L42 20L42 19L43 19L43 18L42 18L42 17L41 17L41 16L40 16L40 15L39 15L39 16L38 16L38 15L37 15L37 14L36 14L36 12L37 12L37 11L38 11L38 10L36 10L36 9L35 9L35 11L34 11L34 10L33 10L33 11L34 11L34 12L33 12L33 13L32 13L32 14L31 14L31 15L32 15L32 16L31 16L31 17L30 17L30 16L29 16L29 17L30 17L30 19L29 19L29 18L28 18L28 17L27 17L27 19L26 19L26 20L24 20L24 18L23 18L23 19L22 19L22 18L21 18L21 16L20 16L20 15L21 15L21 14L22 14L22 13L21 13L21 12L22 12L22 10L23 10L23 9L25 9L25 10L24 10L24 11L23 11L23 13L25 13L25 14L23 14L23 16L22 16L22 17L24 17L24 15L25 15L25 18L26 18L26 15L27 15L27 16L28 16L28 15L29 15L29 14L30 14L30 13L31 13L31 12L32 12L32 11L31 11L31 12L30 12L30 10L29 10L29 9L27 9L27 8L28 8L28 5L27 5L27 8L26 8L26 6L25 6L25 5L24 5L24 6L23 6L23 7L22 7L22 6L21 6L21 7L20 7L20 5L19 5L19 4L21 4L21 3L19 3L19 4L18 4L18 3L15 3L15 4L14 4L14 3L13 3L13 2ZM28 2L28 4L29 4L29 2ZM35 2L35 3L36 3L36 2ZM46 2L46 3L49 3L49 2ZM30 3L30 4L32 4L32 3ZM51 3L51 4L52 4L52 3ZM15 4L15 5L16 5L16 7L15 7L15 6L14 6L14 8L15 8L15 10L14 10L14 9L13 9L13 10L14 10L14 13L13 13L13 14L14 14L14 15L15 15L15 19L14 19L14 20L13 20L13 19L11 19L11 21L12 21L12 20L13 20L13 21L14 21L14 22L15 22L15 21L16 21L16 20L17 20L17 19L16 19L16 15L17 15L17 14L18 14L18 15L20 15L20 14L21 14L21 13L20 13L20 12L19 12L19 11L21 11L21 10L22 10L22 9L23 9L23 8L22 8L22 7L21 7L21 8L22 8L22 9L20 9L20 10L19 10L19 9L18 9L18 8L17 8L17 5L18 5L18 4L17 4L17 5L16 5L16 4ZM33 4L33 7L34 7L34 8L33 8L33 9L34 9L34 8L37 8L37 9L39 9L39 10L40 10L40 11L39 11L39 12L38 12L38 13L39 13L39 14L40 14L40 12L41 12L41 9L40 9L40 8L42 8L42 6L41 6L41 7L40 7L40 6L39 6L39 8L37 8L37 7L38 7L38 5L37 5L37 4L36 4L36 5L37 5L37 7L36 7L36 6L35 6L35 4ZM39 4L39 5L41 5L41 4ZM29 5L29 8L32 8L32 5ZM18 6L18 7L19 7L19 6ZM24 6L24 8L25 8L25 9L26 9L26 11L27 11L27 12L25 12L25 11L24 11L24 12L25 12L25 13L28 13L28 12L29 12L29 13L30 13L30 12L29 12L29 10L28 10L28 11L27 11L27 9L26 9L26 8L25 8L25 6ZM30 6L30 7L31 7L31 6ZM34 6L34 7L35 7L35 6ZM45 6L45 8L43 8L43 11L42 11L42 13L43 13L43 14L41 14L41 15L42 15L42 16L45 16L45 15L44 15L44 14L45 14L45 13L46 13L46 16L47 16L47 17L48 17L48 18L49 18L49 17L50 17L50 18L51 18L51 19L47 19L47 18L46 18L46 19L45 19L45 17L44 17L44 21L47 21L47 20L51 20L51 21L52 21L52 18L51 18L51 17L50 17L50 16L49 16L49 15L48 15L48 14L47 14L47 13L48 13L48 12L49 12L49 11L50 11L50 12L52 12L52 15L51 15L51 16L52 16L52 17L53 17L53 18L54 18L54 19L53 19L53 22L54 22L54 23L57 23L57 22L58 22L58 21L59 21L59 19L58 19L58 18L57 18L57 17L56 17L56 20L55 20L55 18L54 18L54 17L53 17L53 16L52 16L52 15L53 15L53 12L52 12L52 11L50 11L50 10L49 10L49 11L48 11L48 9L47 9L47 8L48 8L48 6L47 6L47 8L46 8L46 6ZM0 8L0 10L1 10L1 9L2 9L2 8ZM6 8L6 9L7 9L7 8ZM16 8L16 9L17 9L17 12L16 12L16 14L17 14L17 12L18 12L18 9L17 9L17 8ZM45 8L45 10L44 10L44 13L45 13L45 11L46 11L46 12L48 12L48 11L46 11L46 10L47 10L47 9L46 9L46 8ZM60 8L60 9L61 9L61 8ZM31 9L31 10L32 10L32 9ZM57 9L57 10L58 10L58 9ZM11 10L11 11L12 11L12 12L13 12L13 11L12 11L12 10ZM2 11L2 13L1 13L1 14L2 14L2 13L3 13L3 12L4 12L4 14L3 14L3 15L4 15L4 14L7 14L7 13L6 13L6 12L7 12L7 11L6 11L6 12L4 12L4 11ZM35 11L35 12L34 12L34 13L35 13L35 12L36 12L36 11ZM10 12L10 14L9 14L9 15L10 15L10 14L11 14L11 17L12 17L12 18L13 18L13 17L14 17L14 16L13 16L13 15L12 15L12 14L11 14L11 12ZM14 13L14 14L15 14L15 13ZM18 13L18 14L20 14L20 13ZM49 13L49 14L50 14L50 13ZM25 14L25 15L26 15L26 14ZM33 14L33 15L34 15L34 16L32 16L32 19L33 19L33 20L32 20L32 21L33 21L33 22L32 22L32 23L34 23L34 24L32 24L32 25L33 25L33 27L34 27L34 25L35 25L35 27L38 27L38 28L39 28L39 29L40 29L40 30L41 30L41 29L42 29L42 30L43 30L43 31L42 31L42 32L40 32L40 33L39 33L39 31L38 31L38 30L37 30L37 28L36 28L36 30L35 30L35 31L37 31L37 32L36 32L36 33L35 33L35 32L34 32L34 33L33 33L33 35L35 35L35 34L36 34L36 35L37 35L37 36L34 36L34 37L38 37L38 36L39 36L39 35L40 35L40 37L42 37L42 38L43 38L43 40L44 40L44 38L43 38L43 37L42 37L42 34L43 34L43 32L44 32L44 29L45 29L45 28L43 28L43 29L42 29L42 27L41 27L41 29L40 29L40 28L39 28L39 27L40 27L40 26L39 26L39 27L38 27L38 26L37 26L37 24L36 24L36 22L35 22L35 20L34 20L34 18L35 18L35 19L38 19L38 20L40 20L40 21L37 21L37 20L36 20L36 21L37 21L37 22L39 22L39 23L40 23L40 21L41 21L41 20L40 20L40 17L39 17L39 19L38 19L38 18L36 18L36 17L37 17L37 16L35 16L35 15L36 15L36 14L35 14L35 15L34 15L34 14ZM5 15L5 16L4 16L4 17L3 17L3 16L2 16L2 18L5 18L5 17L6 17L6 18L7 18L7 19L5 19L5 22L7 22L7 21L6 21L6 20L7 20L7 19L8 19L8 17L6 17L6 16L7 16L7 15ZM12 16L12 17L13 17L13 16ZM18 16L18 17L20 17L20 16ZM48 16L48 17L49 17L49 16ZM41 18L41 19L42 19L42 18ZM30 19L30 20L31 20L31 19ZM57 19L57 20L58 20L58 19ZM14 20L14 21L15 21L15 20ZM22 20L22 21L23 21L23 20ZM27 20L27 21L26 21L26 22L25 22L25 21L24 21L24 22L23 22L23 23L24 23L24 22L25 22L25 23L26 23L26 24L27 24L27 23L26 23L26 22L27 22L27 21L28 21L28 20ZM8 21L8 22L9 22L9 21ZM49 21L49 25L50 25L50 24L52 24L52 25L51 25L51 26L52 26L52 27L51 27L51 28L53 28L53 24L52 24L52 22L50 22L50 21ZM54 21L54 22L55 22L55 21ZM0 23L0 25L1 25L1 23ZM14 23L14 24L15 24L15 23ZM35 24L35 25L36 25L36 24ZM54 24L54 25L55 25L55 24ZM15 25L15 26L16 26L16 27L17 27L17 26L16 26L16 25ZM28 25L28 27L27 27L27 26L26 26L26 27L27 27L27 28L28 28L28 27L30 27L30 26L29 26L29 25ZM7 26L7 27L4 27L4 28L7 28L7 27L8 27L8 28L9 28L9 26ZM24 26L24 29L26 29L26 28L25 28L25 26ZM1 28L1 29L2 29L2 28ZM3 29L3 30L2 30L2 31L3 31L3 36L2 36L2 35L1 35L1 37L4 37L4 38L5 38L5 37L6 37L6 38L7 38L7 39L8 39L8 40L9 40L9 41L11 41L11 42L9 42L9 43L11 43L11 44L10 44L10 45L11 45L11 46L10 46L10 48L9 48L9 46L8 46L8 45L9 45L9 44L7 44L7 43L6 43L6 44L7 44L7 45L6 45L6 46L8 46L8 47L6 47L6 48L8 48L8 49L6 49L6 50L7 50L7 51L8 51L8 53L9 53L9 52L10 52L10 54L12 54L12 53L11 53L11 52L12 52L12 51L13 51L13 52L15 52L15 50L12 50L12 49L10 49L10 48L12 48L12 47L11 47L11 46L12 46L12 39L11 39L11 38L8 38L8 37L6 37L6 36L9 36L9 37L11 37L11 36L10 36L10 34L9 34L9 33L8 33L8 34L7 34L7 33L5 33L5 34L4 34L4 31L3 31L3 30L4 30L4 29ZM5 29L5 32L8 32L8 29ZM29 29L29 32L32 32L32 29ZM53 29L53 32L56 32L56 29ZM57 29L57 30L58 30L58 31L57 31L57 32L58 32L58 33L57 33L57 34L58 34L58 33L59 33L59 32L60 32L60 30L58 30L58 29ZM6 30L6 31L7 31L7 30ZM30 30L30 31L31 31L31 30ZM54 30L54 31L55 31L55 30ZM9 31L9 32L10 32L10 31ZM15 31L15 32L14 32L14 33L15 33L15 32L16 32L16 31ZM37 33L37 35L39 35L39 34L38 34L38 33ZM55 33L55 34L56 34L56 33ZM5 34L5 36L4 36L4 37L5 37L5 36L6 36L6 35L7 35L7 34ZM8 34L8 35L9 35L9 34ZM40 34L40 35L41 35L41 34ZM25 35L25 36L26 36L26 38L27 38L27 39L29 39L29 38L28 38L28 37L29 37L29 36L26 36L26 35ZM53 35L53 36L54 36L54 35ZM20 37L20 38L19 38L19 39L20 39L20 38L21 38L21 37ZM45 37L45 39L46 39L46 37ZM17 38L17 39L18 39L18 38ZM36 38L36 39L37 39L37 38ZM40 38L40 39L41 39L41 40L42 40L42 39L41 39L41 38ZM58 38L58 39L59 39L59 38ZM49 39L49 41L48 41L48 40L47 40L47 42L46 42L46 41L45 41L45 42L46 42L46 43L47 43L47 44L46 44L46 45L47 45L47 44L50 44L50 45L51 45L51 44L50 44L50 43L51 43L51 42L52 42L52 44L53 44L53 45L55 45L55 46L56 46L56 45L55 45L55 44L54 44L54 42L56 42L56 43L58 43L58 42L59 42L59 41L57 41L57 40L56 40L56 41L54 41L54 42L53 42L53 41L51 41L51 40L55 40L55 39L51 39L51 40L50 40L50 39ZM15 40L15 43L14 43L14 44L16 44L16 43L19 43L19 44L18 44L18 45L19 45L19 46L18 46L18 49L20 49L20 51L19 51L19 50L18 50L18 51L19 51L19 52L20 52L20 51L21 51L21 52L23 52L23 51L24 51L24 54L25 54L25 53L27 53L27 52L28 52L28 51L29 51L29 49L28 49L28 48L27 48L27 47L29 47L29 46L26 46L26 44L25 44L25 43L24 43L24 42L26 42L26 41L24 41L24 42L22 42L22 43L21 43L21 42L20 42L20 43L19 43L19 41L21 41L21 40L19 40L19 41L17 41L17 40ZM32 42L32 43L31 43L31 44L32 44L32 43L33 43L33 42ZM34 42L34 43L35 43L35 44L38 44L38 45L37 45L37 46L35 46L35 47L34 47L34 50L33 50L33 51L35 51L35 52L33 52L33 54L34 54L34 55L36 55L36 56L37 56L37 57L35 57L35 56L33 56L33 57L35 57L35 58L37 58L37 57L39 57L39 56L40 56L40 55L39 55L39 53L41 53L41 54L42 54L42 53L43 53L43 55L44 55L44 58L43 58L43 59L44 59L44 58L46 58L46 57L45 57L45 54L44 54L44 53L43 53L43 52L45 52L45 53L48 53L48 54L50 54L50 55L49 55L49 56L50 56L50 57L49 57L49 59L50 59L50 60L51 60L51 59L54 59L54 58L50 58L50 57L51 57L51 53L50 53L50 52L49 52L49 51L48 51L48 50L50 50L50 49L48 49L48 48L50 48L50 47L51 47L51 46L49 46L49 45L48 45L48 46L47 46L47 47L46 47L46 48L45 48L45 49L44 49L44 48L42 48L42 47L43 47L43 46L44 46L44 45L45 45L45 43L44 43L44 44L43 44L43 46L42 46L42 47L41 47L41 49L44 49L44 51L43 51L43 50L41 50L41 52L38 52L38 51L35 51L35 50L36 50L36 48L35 48L35 47L39 47L39 50L40 50L40 45L39 45L39 44L40 44L40 43L36 43L36 42ZM49 42L49 43L50 43L50 42ZM23 43L23 45L22 45L22 44L21 44L21 45L22 45L22 47L23 47L23 46L24 46L24 47L25 47L25 51L27 51L27 49L26 49L26 46L24 46L24 45L25 45L25 44L24 44L24 43ZM19 44L19 45L20 45L20 44ZM32 45L32 47L31 47L31 48L32 48L32 49L33 49L33 46L34 46L34 45ZM38 45L38 46L39 46L39 45ZM20 46L20 47L21 47L21 46ZM52 46L52 47L54 47L54 46ZM1 47L1 48L2 48L2 47ZM57 47L57 48L56 48L56 49L57 49L57 48L58 48L58 47ZM3 48L3 49L2 49L2 50L3 50L3 49L4 49L4 48ZM20 48L20 49L21 49L21 48ZM23 48L23 49L22 49L22 50L21 50L21 51L22 51L22 50L24 50L24 48ZM46 48L46 49L45 49L45 50L46 50L46 49L47 49L47 48ZM53 48L53 50L54 50L54 49L55 49L55 48ZM8 49L8 50L10 50L10 49ZM3 51L3 52L4 52L4 51ZM42 51L42 52L41 52L41 53L42 53L42 52L43 52L43 51ZM46 51L46 52L48 52L48 53L49 53L49 52L48 52L48 51ZM59 51L59 53L58 53L58 54L57 54L57 55L58 55L58 59L57 59L57 60L58 60L58 59L59 59L59 58L60 58L60 57L59 57L59 56L60 56L60 55L59 55L59 53L60 53L60 51ZM35 52L35 53L34 53L34 54L35 54L35 53L36 53L36 55L37 55L37 56L38 56L38 53L37 53L37 52ZM13 53L13 55L14 55L14 54L15 54L15 55L17 55L17 54L16 54L16 53ZM29 53L29 56L32 56L32 53ZM53 53L53 56L56 56L56 53ZM30 54L30 55L31 55L31 54ZM46 54L46 55L47 55L47 56L48 56L48 55L47 55L47 54ZM54 54L54 55L55 55L55 54ZM24 55L24 56L26 56L26 55ZM10 57L10 58L12 58L12 57ZM31 57L31 58L32 58L32 57ZM56 57L56 58L57 58L57 57ZM28 58L28 59L29 59L29 58ZM33 59L33 60L34 60L34 59ZM55 59L55 60L56 60L56 59ZM0 0L0 7L7 7L7 0ZM1 1L1 6L6 6L6 1ZM2 2L2 5L5 5L5 2ZM54 0L54 7L61 7L61 0ZM55 1L55 6L60 6L60 1ZM56 2L56 5L59 5L59 2ZM0 54L0 61L7 61L7 54ZM1 55L1 60L6 60L6 55ZM2 56L2 59L5 59L5 56Z" fill="#000000"/></g></g></svg>
