<?xml version="1.0" encoding="UTF-8"?>
<svg xmlns="http://www.w3.org/2000/svg" version="1.1" width="200" height="200" viewBox="0 0 200 200"><rect x="0" y="0" width="200" height="200" fill="#ffffff"/><g transform="scale(3.279)"><g transform="translate(0,0)"><path fill-rule="evenodd" d="M8 0L8 1L10 1L10 3L9 3L9 5L10 5L10 7L9 7L9 6L8 6L8 8L11 8L11 9L12 9L12 10L13 10L13 12L14 12L14 13L15 13L15 10L16 10L16 12L17 12L17 13L20 13L20 14L18 14L18 15L20 15L20 16L23 16L23 17L24 17L24 18L23 18L23 19L24 19L24 20L26 20L26 19L28 19L28 18L29 18L29 19L30 19L30 20L29 20L29 22L28 22L28 24L26 24L26 25L24 25L24 24L25 24L25 23L27 23L27 22L25 22L25 21L23 21L23 20L22 20L22 21L23 21L23 22L25 22L25 23L22 23L22 22L21 22L21 18L18 18L18 19L17 19L17 17L16 17L16 19L17 19L17 21L16 21L16 20L15 20L15 18L14 18L14 17L15 17L15 16L17 16L17 14L16 14L16 15L14 15L14 14L13 14L13 13L11 13L11 12L12 12L12 11L11 11L11 10L10 10L10 11L11 11L11 12L10 12L10 14L13 14L13 16L14 16L14 17L11 17L11 16L12 16L12 15L11 15L11 16L10 16L10 17L7 17L7 16L9 16L9 13L8 13L8 12L9 12L9 11L8 11L8 12L6 12L6 13L7 13L7 14L6 14L6 15L5 15L5 8L3 8L3 9L4 9L4 13L3 13L3 10L2 10L2 8L0 8L0 9L1 9L1 10L0 10L0 13L1 13L1 11L2 11L2 13L3 13L3 14L2 14L2 15L3 15L3 16L2 16L2 18L0 18L0 20L1 20L1 22L0 22L0 23L1 23L1 24L2 24L2 25L0 25L0 27L1 27L1 29L0 29L0 30L3 30L3 27L2 27L2 25L3 25L3 26L4 26L4 25L3 25L3 24L5 24L5 27L4 27L4 32L3 32L3 31L2 31L2 32L0 32L0 33L1 33L1 34L4 34L4 36L3 36L3 35L2 35L2 38L1 38L1 39L0 39L0 40L1 40L1 39L2 39L2 41L1 41L1 42L2 42L2 45L3 45L3 44L6 44L6 45L7 45L7 46L6 46L6 47L4 47L4 46L5 46L5 45L4 45L4 46L3 46L3 47L2 47L2 46L1 46L1 44L0 44L0 46L1 46L1 47L0 47L0 48L1 48L1 50L2 50L2 51L0 51L0 53L4 53L4 52L5 52L5 51L7 51L7 52L6 52L6 53L7 53L7 52L8 52L8 51L9 51L9 50L10 50L10 52L9 52L9 53L8 53L8 54L9 54L9 55L10 55L10 56L8 56L8 58L9 58L9 57L11 57L11 56L12 56L12 57L14 57L14 58L12 58L12 60L11 60L11 58L10 58L10 61L13 61L13 59L14 59L14 60L16 60L16 59L17 59L17 61L20 61L20 60L21 60L21 61L24 61L24 60L25 60L25 61L35 61L35 60L36 60L36 61L37 61L37 60L36 60L36 59L38 59L38 61L41 61L41 60L39 60L39 59L38 59L38 58L40 58L40 59L42 59L42 61L43 61L43 59L44 59L44 61L45 61L45 60L46 60L46 61L51 61L51 59L52 59L52 60L53 60L53 59L54 59L54 60L55 60L55 61L58 61L58 60L60 60L60 61L61 61L61 54L59 54L59 56L60 56L60 58L59 58L59 57L58 57L58 55L57 55L57 54L58 54L58 53L60 53L60 52L61 52L61 50L59 50L59 51L58 51L58 50L57 50L57 49L61 49L61 48L60 48L60 47L61 47L61 46L60 46L60 47L59 47L59 45L58 45L58 44L57 44L57 43L59 43L59 44L60 44L60 45L61 45L61 42L58 42L58 41L59 41L59 39L58 39L58 38L60 38L60 41L61 41L61 38L60 38L60 37L58 37L58 36L59 36L59 35L58 35L58 36L57 36L57 37L56 37L56 39L55 39L55 36L54 36L54 35L55 35L55 34L59 34L59 33L60 33L60 31L61 31L61 30L60 30L60 31L59 31L59 33L58 33L58 32L57 32L57 31L58 31L58 30L57 30L57 29L59 29L59 28L60 28L60 29L61 29L61 28L60 28L60 27L61 27L61 26L60 26L60 25L61 25L61 24L60 24L60 25L59 25L59 27L58 27L58 26L57 26L57 27L56 27L56 25L58 25L58 24L59 24L59 23L61 23L61 22L60 22L60 20L59 20L59 21L58 21L58 19L61 19L61 18L60 18L60 17L61 17L61 14L60 14L60 12L59 12L59 11L61 11L61 10L59 10L59 9L58 9L58 10L57 10L57 11L56 11L56 12L55 12L55 11L54 11L54 10L55 10L55 8L54 8L54 10L53 10L53 9L52 9L52 8L53 8L53 6L52 6L52 7L51 7L51 5L52 5L52 4L53 4L53 0L51 0L51 2L50 2L50 0L49 0L49 1L48 1L48 0L46 0L46 4L47 4L47 6L46 6L46 7L45 7L45 6L44 6L44 7L43 7L43 6L42 6L42 5L44 5L44 4L45 4L45 1L44 1L44 0L42 0L42 1L41 1L41 0L40 0L40 1L39 1L39 0L34 0L34 2L33 2L33 1L32 1L32 0L30 0L30 1L29 1L29 0L28 0L28 2L27 2L27 3L26 3L26 2L25 2L25 1L27 1L27 0L24 0L24 1L23 1L23 2L22 2L22 1L21 1L21 0L19 0L19 1L18 1L18 0L17 0L17 1L16 1L16 2L17 2L17 4L20 4L20 5L17 5L17 6L16 6L16 7L17 7L17 8L18 8L18 9L15 9L15 10L13 10L13 9L12 9L12 8L13 8L13 5L14 5L14 4L15 4L15 3L14 3L14 2L15 2L15 0L12 0L12 1L14 1L14 2L11 2L11 0ZM17 1L17 2L18 2L18 1ZM36 1L36 3L35 3L35 2L34 2L34 3L28 3L28 4L34 4L34 5L33 5L33 8L35 8L35 7L36 7L36 8L37 8L37 11L36 11L36 10L35 10L35 12L34 12L34 11L33 11L33 12L32 12L32 10L33 10L33 9L29 9L29 10L30 10L30 11L29 11L29 12L30 12L30 13L29 13L29 14L28 14L28 15L27 15L27 16L28 16L28 15L29 15L29 16L30 16L30 17L31 17L31 18L30 18L30 19L31 19L31 20L30 20L30 23L29 23L29 25L26 25L26 26L24 26L24 28L21 28L21 27L22 27L22 24L21 24L21 26L19 26L19 27L18 27L18 25L19 25L19 23L21 23L21 22L19 22L19 21L17 21L17 22L16 22L16 21L13 21L13 20L14 20L14 19L13 19L13 18L12 18L12 19L11 19L11 17L10 17L10 18L9 18L9 19L8 19L8 18L7 18L7 17L4 17L4 18L3 18L3 19L4 19L4 20L3 20L3 21L2 21L2 22L3 22L3 23L4 23L4 22L3 22L3 21L5 21L5 22L7 22L7 23L6 23L6 24L7 24L7 23L8 23L8 21L10 21L10 20L11 20L11 22L9 22L9 24L10 24L10 26L8 26L8 25L6 25L6 26L8 26L8 27L5 27L5 28L8 28L8 27L10 27L10 29L11 29L11 30L10 30L10 31L9 31L9 32L11 32L11 30L13 30L13 31L12 31L12 33L11 33L11 34L10 34L10 33L9 33L9 35L8 35L8 36L7 36L7 35L5 35L5 36L4 36L4 37L3 37L3 38L2 38L2 39L4 39L4 37L6 37L6 38L7 38L7 39L5 39L5 41L4 41L4 40L3 40L3 41L4 41L4 42L3 42L3 43L5 43L5 42L7 42L7 43L6 43L6 44L7 44L7 43L10 43L10 41L12 41L12 43L11 43L11 44L8 44L8 46L7 46L7 47L6 47L6 48L5 48L5 50L7 50L7 49L8 49L8 48L9 48L9 47L12 47L12 46L14 46L14 45L15 45L15 47L13 47L13 49L10 49L10 50L11 50L11 51L12 51L12 52L13 52L13 54L14 54L14 52L16 52L16 50L19 50L19 49L21 49L21 50L22 50L22 48L21 48L21 47L23 47L23 52L22 52L22 51L21 51L21 52L20 52L20 51L19 51L19 53L18 53L18 52L17 52L17 53L18 53L18 54L16 54L16 53L15 53L15 54L16 54L16 55L17 55L17 56L16 56L16 57L17 57L17 58L18 58L18 57L19 57L19 59L18 59L18 60L19 60L19 59L21 59L21 60L22 60L22 59L23 59L23 57L25 57L25 58L24 58L24 59L25 59L25 60L26 60L26 58L27 58L27 59L28 59L28 60L29 60L29 58L27 58L27 56L28 56L28 53L27 53L27 56L26 56L26 54L25 54L25 56L23 56L23 55L22 55L22 54L24 54L24 53L25 53L25 52L27 52L27 51L26 51L26 50L27 50L27 49L28 49L28 48L29 48L29 49L30 49L30 50L29 50L29 52L32 52L32 50L31 50L31 49L33 49L33 50L34 50L34 51L35 51L35 50L37 50L37 51L36 51L36 52L37 52L37 51L38 51L38 49L40 49L40 51L39 51L39 52L38 52L38 53L37 53L37 54L36 54L36 53L35 53L35 52L33 52L33 53L35 53L35 54L34 54L34 55L35 55L35 56L34 56L34 57L35 57L35 59L34 59L34 60L35 60L35 59L36 59L36 57L35 57L35 56L37 56L37 54L38 54L38 55L39 55L39 53L41 53L41 54L42 54L42 55L41 55L41 57L40 57L40 56L39 56L39 57L40 57L40 58L41 58L41 57L45 57L45 55L43 55L43 54L42 54L42 53L43 53L43 52L45 52L45 50L44 50L44 49L43 49L43 50L41 50L41 49L42 49L42 48L41 48L41 45L39 45L39 44L38 44L38 43L40 43L40 42L39 42L39 41L41 41L41 44L42 44L42 45L44 45L44 46L42 46L42 47L43 47L43 48L44 48L44 46L45 46L45 47L46 47L46 48L45 48L45 49L46 49L46 52L47 52L47 54L46 54L46 55L47 55L47 57L48 57L48 58L49 58L49 59L48 59L48 60L49 60L49 59L51 59L51 58L52 58L52 59L53 59L53 58L54 58L54 59L55 59L55 58L58 58L58 57L55 57L55 58L54 58L54 57L51 57L51 58L50 58L50 57L48 57L48 56L49 56L49 55L48 55L48 54L49 54L49 53L50 53L50 55L51 55L51 56L52 56L52 55L51 55L51 52L57 52L57 53L58 53L58 51L54 51L54 49L55 49L55 48L53 48L53 49L52 49L52 50L53 50L53 51L51 51L51 52L50 52L50 49L51 49L51 46L53 46L53 47L54 47L54 46L56 46L56 45L55 45L55 44L56 44L56 42L57 42L57 40L55 40L55 39L52 39L52 38L51 38L51 39L52 39L52 41L53 41L53 40L55 40L55 41L54 41L54 42L55 42L55 43L53 43L53 42L52 42L52 43L53 43L53 44L52 44L52 45L51 45L51 41L48 41L48 42L50 42L50 43L47 43L47 42L46 42L46 43L43 43L43 42L42 42L42 39L43 39L43 41L44 41L44 40L45 40L45 39L43 39L43 38L44 38L44 36L42 36L42 37L43 37L43 38L42 38L42 39L38 39L38 38L37 38L37 39L36 39L36 38L35 38L35 37L34 37L34 35L33 35L33 34L31 34L31 33L29 33L29 35L26 35L26 34L27 34L27 32L28 32L28 31L26 31L26 33L25 33L25 32L24 32L24 31L25 31L25 30L24 30L24 29L26 29L26 28L25 28L25 27L27 27L27 26L28 26L28 27L29 27L29 26L30 26L30 25L31 25L31 24L32 24L32 22L33 22L33 20L34 20L34 21L35 21L35 22L34 22L34 23L33 23L33 24L35 24L35 25L34 25L34 27L33 27L33 25L32 25L32 26L31 26L31 27L33 27L33 30L34 30L34 32L33 32L33 33L35 33L35 32L38 32L38 33L37 33L37 34L36 34L36 35L35 35L35 36L38 36L38 35L39 35L39 37L40 37L40 36L41 36L41 33L42 33L42 32L44 32L44 33L43 33L43 34L42 34L42 35L44 35L44 34L45 34L45 31L44 31L44 30L45 30L45 29L44 29L44 30L42 30L42 29L43 29L43 28L46 28L46 27L47 27L47 29L48 29L48 28L49 28L49 29L50 29L50 31L48 31L48 30L47 30L47 31L48 31L48 32L49 32L49 33L47 33L47 32L46 32L46 33L47 33L47 34L49 34L49 33L51 33L51 32L52 32L52 30L51 30L51 29L50 29L50 28L52 28L52 27L53 27L53 28L56 28L56 27L53 27L53 24L52 24L52 23L53 23L53 22L54 22L54 23L55 23L55 22L54 22L54 21L57 21L57 22L56 22L56 23L57 23L57 22L58 22L58 21L57 21L57 19L56 19L56 20L55 20L55 18L56 18L56 17L55 17L55 16L57 16L57 18L58 18L58 15L59 15L59 12L58 12L58 11L57 11L57 12L58 12L58 13L57 13L57 14L56 14L56 13L55 13L55 14L53 14L53 13L54 13L54 12L53 12L53 10L51 10L51 11L50 11L50 10L49 10L49 9L51 9L51 8L49 8L49 7L50 7L50 5L49 5L49 4L48 4L48 3L49 3L49 2L48 2L48 1L47 1L47 2L48 2L48 3L47 3L47 4L48 4L48 5L49 5L49 7L48 7L48 6L47 6L47 7L46 7L46 9L47 9L47 10L49 10L49 11L45 11L45 7L44 7L44 9L43 9L43 8L42 8L42 6L41 6L41 4L43 4L43 3L42 3L42 2L41 2L41 1L40 1L40 3L41 3L41 4L39 4L39 7L38 7L38 6L37 6L37 5L38 5L38 4L37 4L37 5L36 5L36 3L37 3L37 1ZM38 1L38 3L39 3L39 1ZM19 2L19 3L20 3L20 4L21 4L21 3L22 3L22 2L21 2L21 3L20 3L20 2ZM23 2L23 7L22 7L22 6L21 6L21 5L20 5L20 6L19 6L19 8L20 8L20 10L19 10L19 11L18 11L18 12L19 12L19 11L21 11L21 15L22 15L22 11L23 11L23 12L24 12L24 13L25 13L25 15L26 15L26 14L27 14L27 13L25 13L25 12L26 12L26 11L25 11L25 10L27 10L27 8L28 8L28 5L27 5L27 4L26 4L26 3L24 3L24 2ZM10 3L10 5L11 5L11 3ZM13 3L13 4L14 4L14 3ZM51 3L51 4L52 4L52 3ZM24 4L24 7L23 7L23 8L22 8L22 9L23 9L23 11L24 11L24 10L25 10L25 9L24 9L24 8L25 8L25 4ZM29 5L29 8L32 8L32 5ZM11 6L11 8L12 8L12 6ZM14 6L14 7L15 7L15 6ZM17 6L17 7L18 7L18 6ZM20 6L20 8L21 8L21 6ZM26 6L26 8L27 8L27 6ZM30 6L30 7L31 7L31 6ZM34 6L34 7L35 7L35 6ZM36 6L36 7L37 7L37 6ZM40 6L40 9L41 9L41 10L39 10L39 8L38 8L38 10L39 10L39 11L37 11L37 12L35 12L35 13L38 13L38 14L36 14L36 15L38 15L38 16L40 16L40 15L41 15L41 17L42 17L42 18L41 18L41 19L40 19L40 21L38 21L38 22L35 22L35 24L36 24L36 26L35 26L35 27L34 27L34 28L35 28L35 29L34 29L34 30L36 30L36 29L37 29L37 30L38 30L38 29L40 29L40 28L39 28L39 25L38 25L38 24L36 24L36 23L38 23L38 22L39 22L39 23L40 23L40 21L41 21L41 20L42 20L42 22L41 22L41 24L40 24L40 25L41 25L41 26L40 26L40 27L41 27L41 29L42 29L42 27L41 27L41 26L43 26L43 27L44 27L44 25L45 25L45 27L46 27L46 25L48 25L48 26L47 26L47 27L48 27L48 26L49 26L49 28L50 28L50 26L52 26L52 24L51 24L51 25L50 25L50 24L48 24L48 23L49 23L49 22L53 22L53 21L54 21L54 20L53 20L53 21L52 21L52 19L51 19L51 21L50 21L50 20L48 20L48 21L47 21L47 20L46 20L46 18L47 18L47 19L50 19L50 17L49 17L49 16L50 16L50 15L51 15L51 18L53 18L53 19L54 19L54 18L55 18L55 17L52 17L52 13L51 13L51 12L50 12L50 11L49 11L49 12L48 12L48 13L47 13L47 14L48 14L48 15L46 15L46 14L44 14L44 13L46 13L46 12L45 12L45 11L44 11L44 12L43 12L43 9L41 9L41 6ZM47 7L47 9L49 9L49 8L48 8L48 7ZM6 8L6 9L7 9L7 10L6 10L6 11L7 11L7 10L8 10L8 9L7 9L7 8ZM60 8L60 9L61 9L61 8ZM41 10L41 11L40 11L40 12L41 12L41 13L42 13L42 12L41 12L41 11L42 11L42 10ZM30 11L30 12L31 12L31 11ZM38 12L38 13L39 13L39 14L40 14L40 13L39 13L39 12ZM49 12L49 14L50 14L50 12ZM30 13L30 14L31 14L31 13ZM32 13L32 14L33 14L33 13ZM0 14L0 17L1 17L1 14ZM7 14L7 15L6 15L6 16L7 16L7 15L8 15L8 14ZM23 14L23 15L24 15L24 14ZM41 14L41 15L43 15L43 18L42 18L42 20L43 20L43 21L44 21L44 22L42 22L42 25L43 25L43 23L44 23L44 22L45 22L45 25L46 25L46 24L47 24L47 23L48 23L48 22L45 22L45 21L46 21L46 20L45 20L45 18L44 18L44 16L45 16L45 17L48 17L48 16L49 16L49 15L48 15L48 16L45 16L45 15L44 15L44 14ZM55 14L55 15L56 15L56 14ZM57 14L57 15L58 15L58 14ZM4 15L4 16L5 16L5 15ZM30 15L30 16L31 16L31 15ZM34 15L34 16L35 16L35 15ZM53 15L53 16L54 16L54 15ZM18 16L18 17L19 17L19 16ZM25 16L25 18L24 18L24 19L25 19L25 18L26 18L26 16ZM32 16L32 19L34 19L34 18L37 18L37 20L36 20L36 21L37 21L37 20L38 20L38 18L37 18L37 16L36 16L36 17L33 17L33 16ZM59 16L59 17L60 17L60 16ZM27 17L27 18L28 18L28 17ZM39 17L39 18L40 18L40 17ZM4 18L4 19L5 19L5 20L6 20L6 21L8 21L8 19L7 19L7 18ZM43 18L43 19L44 19L44 18ZM1 19L1 20L2 20L2 19ZM6 19L6 20L7 20L7 19ZM9 19L9 20L10 20L10 19ZM12 19L12 20L13 20L13 19ZM27 20L27 21L28 21L28 20ZM31 21L31 22L32 22L32 21ZM11 22L11 24L12 24L12 25L11 25L11 28L12 28L12 27L13 27L13 26L14 26L14 25L13 25L13 24L16 24L16 22L15 22L15 23L14 23L14 22ZM12 23L12 24L13 24L13 23ZM17 23L17 24L18 24L18 23ZM30 23L30 24L31 24L31 23ZM54 24L54 25L55 25L55 24ZM12 25L12 26L13 26L13 25ZM15 25L15 26L16 26L16 27L15 27L15 28L13 28L13 30L14 30L14 31L13 31L13 33L15 33L15 35L14 35L14 38L15 38L15 39L16 39L16 40L15 40L15 41L14 41L14 39L13 39L13 43L12 43L12 44L13 44L13 43L15 43L15 44L16 44L16 42L17 42L17 43L18 43L18 42L19 42L19 44L18 44L18 45L19 45L19 44L20 44L20 46L22 46L22 45L23 45L23 44L24 44L24 43L25 43L25 45L24 45L24 46L23 46L23 47L26 47L26 46L25 46L25 45L26 45L26 44L27 44L27 47L30 47L30 49L31 49L31 48L32 48L32 46L33 46L33 48L34 48L34 49L35 49L35 48L36 48L36 49L38 49L38 48L36 48L36 47L35 47L35 46L36 46L36 45L37 45L37 46L39 46L39 47L40 47L40 46L39 46L39 45L38 45L38 44L35 44L35 45L34 45L34 44L33 44L33 43L34 43L34 42L35 42L35 40L34 40L34 39L33 39L33 38L34 38L34 37L33 37L33 38L32 38L32 36L31 36L31 35L29 35L29 37L31 37L31 39L29 39L29 38L28 38L28 36L26 36L26 35L25 35L25 36L26 36L26 37L24 37L24 34L25 34L25 33L24 33L24 34L23 34L23 35L20 35L20 36L18 36L18 37L17 37L17 38L18 38L18 39L16 39L16 38L15 38L15 37L16 37L16 35L19 35L19 34L18 34L18 33L19 33L19 32L20 32L20 34L22 34L22 33L23 33L23 31L24 31L24 30L21 30L21 32L20 32L20 30L17 30L17 29L19 29L19 28L20 28L20 27L19 27L19 28L17 28L17 26L16 26L16 25ZM49 25L49 26L50 26L50 25ZM36 26L36 27L35 27L35 28L38 28L38 27L37 27L37 26ZM57 27L57 28L58 28L58 27ZM15 28L15 31L14 31L14 32L18 32L18 31L16 31L16 28ZM27 28L27 30L28 30L28 28ZM5 29L5 32L8 32L8 29ZM29 29L29 32L32 32L32 29ZM53 29L53 32L56 32L56 29ZM6 30L6 31L7 31L7 30ZM30 30L30 31L31 31L31 30ZM39 30L39 31L40 31L40 33L41 33L41 31L42 31L42 30L41 30L41 31L40 31L40 30ZM54 30L54 31L55 31L55 30ZM50 31L50 32L51 32L51 31ZM2 32L2 33L3 33L3 32ZM21 32L21 33L22 33L22 32ZM4 33L4 34L8 34L8 33ZM16 33L16 34L17 34L17 33ZM38 33L38 34L39 34L39 33ZM11 34L11 35L9 35L9 36L12 36L12 37L7 37L7 36L6 36L6 37L7 37L7 38L11 38L11 39L12 39L12 38L13 38L13 35L12 35L12 34ZM50 34L50 36L49 36L49 35L48 35L48 36L47 36L47 35L46 35L46 36L45 36L45 37L46 37L46 41L47 41L47 40L50 40L50 36L53 36L53 35L54 35L54 34ZM60 34L60 35L61 35L61 34ZM0 35L0 37L1 37L1 35ZM20 36L20 37L18 37L18 38L19 38L19 39L20 39L20 43L21 43L21 45L22 45L22 43L24 43L24 41L25 41L25 42L26 42L26 41L25 41L25 40L24 40L24 41L23 41L23 38L21 38L21 39L20 39L20 37L22 37L22 36ZM48 36L48 37L47 37L47 38L49 38L49 36ZM26 37L26 38L27 38L27 37ZM53 37L53 38L54 38L54 37ZM7 39L7 40L6 40L6 41L7 41L7 40L8 40L8 39ZM9 39L9 41L10 41L10 39ZM37 39L37 40L36 40L36 43L38 43L38 42L37 42L37 40L38 40L38 41L39 41L39 40L38 40L38 39ZM31 40L31 41L29 41L29 42L28 42L28 44L31 44L31 45L28 45L28 46L30 46L30 47L31 47L31 45L33 45L33 46L34 46L34 45L33 45L33 44L31 44L31 43L29 43L29 42L32 42L32 43L33 43L33 41L34 41L34 40ZM17 41L17 42L18 42L18 41ZM21 41L21 42L22 42L22 41ZM55 41L55 42L56 42L56 41ZM42 43L42 44L43 44L43 43ZM46 44L46 45L45 45L45 46L46 46L46 47L47 47L47 49L48 49L48 50L47 50L47 51L48 51L48 50L49 50L49 48L48 48L48 47L49 47L49 46L47 46L47 45L50 45L50 46L51 46L51 45L50 45L50 44ZM11 45L11 46L12 46L12 45ZM16 45L16 46L17 46L17 48L16 48L16 49L17 49L17 48L18 48L18 49L19 49L19 48L18 48L18 47L19 47L19 46L17 46L17 45ZM57 45L57 46L58 46L58 45ZM3 47L3 48L4 48L4 47ZM6 48L6 49L7 49L7 48ZM14 48L14 49L13 49L13 50L12 50L12 51L15 51L15 50L14 50L14 49L15 49L15 48ZM25 48L25 49L24 49L24 50L26 50L26 49L27 49L27 48ZM40 48L40 49L41 49L41 48ZM56 48L56 49L57 49L57 48ZM2 49L2 50L3 50L3 49ZM30 50L30 51L31 51L31 50ZM3 51L3 52L4 52L4 51ZM24 51L24 52L23 52L23 53L24 53L24 52L25 52L25 51ZM41 51L41 53L42 53L42 52L43 52L43 51ZM10 52L10 53L9 53L9 54L10 54L10 53L11 53L11 54L12 54L12 53L11 53L11 52ZM48 52L48 53L49 53L49 52ZM19 53L19 57L20 57L20 58L21 58L21 57L23 57L23 56L20 56L20 55L21 55L21 54L20 54L20 53ZM29 53L29 56L32 56L32 53ZM44 53L44 54L45 54L45 53ZM53 53L53 56L56 56L56 53ZM30 54L30 55L31 55L31 54ZM54 54L54 55L55 55L55 54ZM13 55L13 56L15 56L15 55ZM42 55L42 56L43 56L43 55ZM17 56L17 57L18 57L18 56ZM25 56L25 57L26 57L26 56ZM31 57L31 58L30 58L30 59L31 59L31 60L32 60L32 58L33 58L33 57ZM15 58L15 59L16 59L16 58ZM42 58L42 59L43 59L43 58ZM44 58L44 59L45 59L45 58ZM8 59L8 61L9 61L9 59ZM56 59L56 60L57 60L57 59ZM0 0L0 7L7 7L7 0ZM1 1L1 6L6 6L6 1ZM2 2L2 5L5 5L5 2ZM54 0L54 7L61 7L61 0ZM55 1L55 6L60 6L60 1ZM56 2L56 5L59 5L59 2ZM0 54L0 61L7 61L7 54ZM1 55L1 60L6 60L6 55ZM2 56L2 59L5 59L5 56Z" fill="#000000"/></g></g></svg>
