<?xml version="1.0" encoding="UTF-8"?>
<svg xmlns="http://www.w3.org/2000/svg" version="1.1" width="200" height="200" viewBox="0 0 200 200"><rect x="0" y="0" width="200" height="200" fill="#ffffff"/><g transform="scale(4.878)"><g transform="translate(0,0)"><path fill-rule="evenodd" d="M9 0L9 1L8 1L8 2L9 2L9 1L10 1L10 3L8 3L8 4L10 4L10 5L8 5L8 7L9 7L9 8L6 8L6 9L5 9L5 8L0 8L0 10L1 10L1 9L2 9L2 11L0 11L0 12L1 12L1 13L3 13L3 14L2 14L2 15L1 15L1 14L0 14L0 15L1 15L1 16L2 16L2 17L3 17L3 16L5 16L5 15L7 15L7 16L6 16L6 17L7 17L7 18L6 18L6 19L7 19L7 20L5 20L5 19L4 19L4 18L3 18L3 19L4 19L4 20L2 20L2 18L1 18L1 17L0 17L0 19L1 19L1 20L2 20L2 22L1 22L1 21L0 21L0 22L1 22L1 23L2 23L2 24L1 24L1 25L0 25L0 26L1 26L1 27L0 27L0 28L1 28L1 29L0 29L0 33L1 33L1 30L2 30L2 28L3 28L3 27L4 27L4 28L5 28L5 26L2 26L2 25L4 25L4 24L3 24L3 23L2 23L2 22L3 22L3 21L4 21L4 22L5 22L5 23L7 23L7 24L5 24L5 25L7 25L7 26L6 26L6 27L7 27L7 26L9 26L9 27L8 27L8 28L9 28L9 29L8 29L8 30L6 30L6 29L7 29L7 28L6 28L6 29L3 29L3 33L7 33L7 32L6 32L6 31L8 31L8 30L11 30L11 31L10 31L10 32L8 32L8 35L9 35L9 36L8 36L8 41L10 41L10 40L9 40L9 37L10 37L10 38L11 38L11 37L12 37L12 38L13 38L13 39L12 39L12 41L13 41L13 39L14 39L14 38L13 38L13 37L12 37L12 36L11 36L11 37L10 37L10 35L9 35L9 34L10 34L10 33L11 33L11 34L12 34L12 35L13 35L13 36L14 36L14 37L15 37L15 40L14 40L14 41L18 41L18 40L16 40L16 39L17 39L17 38L18 38L18 39L19 39L19 38L20 38L20 39L21 39L21 40L22 40L22 39L23 39L23 40L24 40L24 41L26 41L26 40L25 40L25 38L26 38L26 39L30 39L30 40L27 40L27 41L30 41L30 40L31 40L31 41L32 41L32 40L34 40L34 39L35 39L35 38L34 38L34 39L32 39L32 38L29 38L29 37L30 37L30 36L28 36L28 34L30 34L30 35L31 35L31 36L32 36L32 37L37 37L37 38L36 38L36 39L37 39L37 41L38 41L38 39L39 39L39 40L40 40L40 39L39 39L39 37L40 37L40 38L41 38L41 37L40 37L40 36L41 36L41 35L39 35L39 34L41 34L41 33L39 33L39 32L38 32L38 30L39 30L39 28L38 28L38 30L37 30L37 29L36 29L36 31L35 31L35 32L33 32L33 31L34 31L34 30L35 30L35 29L30 29L30 28L29 28L29 29L28 29L28 28L26 28L26 30L25 30L25 29L21 29L21 28L23 28L23 26L24 26L24 25L26 25L26 24L25 24L25 23L26 23L26 20L25 20L25 23L24 23L24 25L23 25L23 24L22 24L22 23L23 23L23 22L22 22L22 23L21 23L21 24L22 24L22 25L23 25L23 26L22 26L22 27L21 27L21 28L20 28L20 27L19 27L19 26L20 26L20 25L19 25L19 26L18 26L18 27L19 27L19 28L18 28L18 29L19 29L19 30L17 30L17 29L16 29L16 28L17 28L17 27L16 27L16 26L17 26L17 25L18 25L18 24L17 24L17 25L16 25L16 23L19 23L19 21L20 21L20 22L21 22L21 20L22 20L22 19L23 19L23 18L24 18L24 19L26 19L26 18L27 18L27 21L28 21L28 22L27 22L27 25L28 25L28 26L27 26L27 27L28 27L28 26L29 26L29 25L30 25L30 27L31 27L31 26L37 26L37 27L36 27L36 28L37 28L37 27L38 27L38 26L41 26L41 23L40 23L40 22L41 22L41 19L39 19L39 18L41 18L41 17L40 17L40 16L41 16L41 15L39 15L39 16L38 16L38 14L37 14L37 13L36 13L36 14L37 14L37 15L36 15L36 16L38 16L38 17L36 17L36 19L34 19L34 18L35 18L35 17L34 17L34 18L33 18L33 16L32 16L32 17L31 17L31 14L34 14L34 16L35 16L35 13L34 13L34 11L35 11L35 10L38 10L38 11L36 11L36 12L38 12L38 13L39 13L39 14L41 14L41 11L39 11L39 10L41 10L41 9L40 9L40 8L39 8L39 9L38 9L38 8L37 8L37 9L36 9L36 8L35 8L35 10L34 10L34 8L33 8L33 6L32 6L32 8L33 8L33 9L31 9L31 6L30 6L30 8L29 8L29 9L28 9L28 8L27 8L27 6L28 6L28 7L29 7L29 5L33 5L33 4L31 4L31 3L29 3L29 0L28 0L28 1L26 1L26 3L25 3L25 2L23 2L23 3L25 3L25 4L21 4L21 5L26 5L26 8L25 8L25 9L26 9L26 8L27 8L27 9L28 9L28 10L27 10L27 11L28 11L28 12L29 12L29 13L28 13L28 14L27 14L27 13L26 13L26 12L25 12L25 11L26 11L26 10L25 10L25 11L24 11L24 13L23 13L23 11L22 11L22 9L23 9L23 10L24 10L24 7L25 7L25 6L24 6L24 7L23 7L23 6L22 6L22 7L21 7L21 6L20 6L20 7L19 7L19 6L18 6L18 7L19 7L19 8L20 8L20 7L21 7L21 8L22 8L22 9L19 9L19 10L21 10L21 15L20 15L20 16L19 16L19 17L18 17L18 16L17 16L17 15L19 15L19 14L20 14L20 13L19 13L19 12L20 12L20 11L19 11L19 12L18 12L18 14L17 14L17 13L13 13L13 12L12 12L12 13L13 13L13 14L11 14L11 18L12 18L12 20L14 20L14 21L15 21L15 24L14 24L14 26L15 26L15 27L14 27L14 28L15 28L15 29L13 29L13 28L12 28L12 29L13 29L13 30L11 30L11 26L13 26L13 23L14 23L14 22L13 22L13 21L12 21L12 22L13 22L13 23L12 23L12 25L11 25L11 26L10 26L10 25L7 25L7 24L11 24L11 23L7 23L7 22L5 22L5 21L7 21L7 20L9 20L9 18L10 18L10 17L9 17L9 18L8 18L8 14L5 14L5 13L7 13L7 12L6 12L6 11L7 11L7 10L8 10L8 9L9 9L9 10L10 10L10 11L11 11L11 10L10 10L10 9L11 9L11 8L12 8L12 11L13 11L13 9L14 9L14 10L15 10L15 11L14 11L14 12L15 12L15 11L16 11L16 12L17 12L17 10L18 10L18 8L17 8L17 9L16 9L16 7L17 7L17 5L16 5L16 4L18 4L18 3L19 3L19 1L21 1L21 2L20 2L20 3L22 3L22 1L24 1L24 0L18 0L18 1L17 1L17 2L16 2L16 1L14 1L14 0L11 0L11 1L10 1L10 0ZM32 0L32 2L33 2L33 0ZM11 1L11 2L12 2L12 6L11 6L11 5L10 5L10 6L9 6L9 7L10 7L10 6L11 6L11 7L12 7L12 6L13 6L13 8L14 8L14 9L15 9L15 10L16 10L16 9L15 9L15 7L16 7L16 6L15 6L15 4L16 4L16 2L14 2L14 3L13 3L13 2L12 2L12 1ZM17 2L17 3L18 3L18 2ZM27 2L27 3L26 3L26 5L28 5L28 4L29 4L29 3L28 3L28 2ZM14 3L14 4L15 4L15 3ZM19 4L19 5L20 5L20 4ZM13 5L13 6L14 6L14 7L15 7L15 6L14 6L14 5ZM6 9L6 10L5 10L5 11L6 11L6 10L7 10L7 9ZM29 9L29 10L28 10L28 11L29 11L29 12L30 12L30 13L29 13L29 14L28 14L28 15L27 15L27 14L26 14L26 13L25 13L25 14L26 14L26 15L24 15L24 14L22 14L22 15L23 15L23 16L26 16L26 17L27 17L27 18L28 18L28 17L29 17L29 16L30 16L30 15L29 15L29 14L30 14L30 13L33 13L33 11L34 11L34 10L31 10L31 11L32 11L32 12L30 12L30 9ZM3 10L3 11L2 11L2 12L3 12L3 13L5 13L5 12L4 12L4 10ZM38 11L38 12L39 12L39 11ZM9 13L9 16L10 16L10 13ZM4 14L4 15L5 15L5 14ZM14 14L14 15L12 15L12 16L14 16L14 18L16 18L16 17L17 17L17 16L16 16L16 15L17 15L17 14ZM2 15L2 16L3 16L3 15ZM28 15L28 16L29 16L29 15ZM20 16L20 18L18 18L18 19L19 19L19 20L17 20L17 19L16 19L16 20L15 20L15 19L14 19L14 20L15 20L15 21L16 21L16 22L18 22L18 21L19 21L19 20L20 20L20 19L21 19L21 18L23 18L23 17L22 17L22 16ZM12 17L12 18L13 18L13 17ZM24 17L24 18L25 18L25 17ZM7 18L7 19L8 19L8 18ZM30 18L30 19L29 19L29 20L28 20L28 21L29 21L29 22L30 22L30 21L32 21L32 22L31 22L31 25L35 25L35 24L36 24L36 23L37 23L37 22L36 22L36 21L38 21L38 20L39 20L39 21L40 21L40 20L39 20L39 19L38 19L38 20L37 20L37 19L36 19L36 20L33 20L33 19L32 19L32 18ZM10 19L10 20L11 20L11 19ZM30 19L30 20L29 20L29 21L30 21L30 20L31 20L31 19ZM4 20L4 21L5 21L5 20ZM16 20L16 21L17 21L17 20ZM23 20L23 21L24 21L24 20ZM9 21L9 22L10 22L10 21ZM33 21L33 22L32 22L32 24L33 24L33 22L35 22L35 21ZM38 22L38 24L37 24L37 25L38 25L38 24L40 24L40 23L39 23L39 22ZM28 23L28 25L29 25L29 24L30 24L30 23ZM15 25L15 26L16 26L16 25ZM25 26L25 27L24 27L24 28L25 28L25 27L26 27L26 26ZM32 27L32 28L34 28L34 27ZM19 28L19 29L20 29L20 30L19 30L19 31L21 31L21 29L20 29L20 28ZM27 29L27 30L26 30L26 31L25 31L25 33L24 33L24 30L23 30L23 34L22 34L22 35L24 35L24 34L25 34L25 36L21 36L21 32L18 32L18 31L17 31L17 30L15 30L15 31L14 31L14 30L13 30L13 31L12 31L12 32L14 32L14 34L16 34L16 36L17 36L17 37L16 37L16 38L17 38L17 37L20 37L20 38L22 38L22 37L25 37L25 36L26 36L26 38L28 38L28 37L27 37L27 35L26 35L26 34L25 34L25 33L26 33L26 32L30 32L30 31L31 31L31 33L32 33L32 31L33 31L33 30L29 30L29 31L27 31L27 30L28 30L28 29ZM40 29L40 30L41 30L41 29ZM4 30L4 31L6 31L6 30ZM16 31L16 34L17 34L17 36L20 36L20 37L21 37L21 36L20 36L20 35L18 35L18 34L20 34L20 33L18 33L18 32L17 32L17 31ZM36 31L36 32L37 32L37 36L39 36L39 35L38 35L38 34L39 34L39 33L38 33L38 32L37 32L37 31ZM12 33L12 34L13 34L13 33ZM27 33L27 34L28 34L28 33ZM33 33L33 36L36 36L36 33ZM34 34L34 35L35 35L35 34ZM14 35L14 36L15 36L15 35ZM23 38L23 39L24 39L24 38ZM37 38L37 39L38 39L38 38ZM19 40L19 41L20 41L20 40ZM0 0L0 7L7 7L7 0ZM1 1L1 6L6 6L6 1ZM2 2L2 5L5 5L5 2ZM34 0L34 7L41 7L41 0ZM35 1L35 6L40 6L40 1ZM36 2L36 5L39 5L39 2ZM0 34L0 41L7 41L7 34ZM1 35L1 40L6 40L6 35ZM2 36L2 39L5 39L5 36Z" fill="#000000"/></g></g></svg>
