<?xml version="1.0" encoding="UTF-8"?>
<svg xmlns="http://www.w3.org/2000/svg" version="1.1" width="200" height="200" viewBox="0 0 200 200"><rect x="0" y="0" width="200" height="200" fill="#ffffff"/><g transform="scale(6.897)"><g transform="translate(0,0)"><path fill-rule="evenodd" d="M9 0L9 1L8 1L8 2L9 2L9 3L8 3L8 4L10 4L10 7L11 7L11 4L12 4L12 5L13 5L13 6L12 6L12 9L13 9L13 10L11 10L11 11L10 11L10 9L11 9L11 8L6 8L6 9L7 9L7 10L4 10L4 11L5 11L5 12L3 12L3 9L5 9L5 8L0 8L0 11L1 11L1 12L3 12L3 15L2 15L2 14L1 14L1 13L0 13L0 14L1 14L1 15L0 15L0 16L1 16L1 17L0 17L0 21L1 21L1 18L5 18L5 19L3 19L3 20L4 20L4 21L7 21L7 20L8 20L8 23L9 23L9 24L8 24L8 29L12 29L12 27L13 27L13 26L11 26L11 24L10 24L10 23L9 23L9 20L10 20L10 21L12 21L12 22L13 22L13 23L12 23L12 25L13 25L13 24L14 24L14 25L16 25L16 26L15 26L15 27L14 27L14 28L15 28L15 29L16 29L16 28L15 28L15 27L16 27L16 26L17 26L17 27L18 27L18 26L19 26L19 27L20 27L20 28L21 28L21 29L23 29L23 28L24 28L24 29L25 29L25 28L26 28L26 27L27 27L27 28L28 28L28 26L29 26L29 25L27 25L27 24L26 24L26 25L27 25L27 26L26 26L26 27L25 27L25 26L22 26L22 25L25 25L25 21L26 21L26 23L27 23L27 21L28 21L28 22L29 22L29 19L28 19L28 18L29 18L29 17L28 17L28 16L29 16L29 15L27 15L27 16L26 16L26 17L27 17L27 18L26 18L26 19L28 19L28 20L25 20L25 17L21 17L21 16L22 16L22 15L23 15L23 16L25 16L25 15L26 15L26 14L29 14L29 11L27 11L27 10L29 10L29 9L28 9L28 8L27 8L27 9L26 9L26 8L25 8L25 9L24 9L24 8L23 8L23 9L22 9L22 8L21 8L21 4L20 4L20 3L21 3L21 2L19 2L19 4L18 4L18 3L17 3L17 4L16 4L16 5L15 5L15 6L14 6L14 5L13 5L13 4L14 4L14 3L15 3L15 2L18 2L18 1L21 1L21 0L16 0L16 1L14 1L14 3L13 3L13 4L12 4L12 2L13 2L13 1L11 1L11 2L10 2L10 0ZM10 3L10 4L11 4L11 3ZM8 5L8 7L9 7L9 5ZM17 5L17 8L16 8L16 6L15 6L15 7L14 7L14 6L13 6L13 8L15 8L15 10L16 10L16 9L17 9L17 10L19 10L19 11L15 11L15 12L14 12L14 10L13 10L13 11L12 11L12 13L11 13L11 12L10 12L10 13L9 13L9 11L8 11L8 13L9 13L9 14L10 14L10 15L11 15L11 17L10 17L10 16L8 16L8 14L7 14L7 13L4 13L4 14L5 14L5 15L4 15L4 17L5 17L5 16L7 16L7 17L6 17L6 18L7 18L7 19L6 19L6 20L7 20L7 19L8 19L8 18L13 18L13 19L12 19L12 21L15 21L15 22L16 22L16 21L17 21L17 22L18 22L18 21L17 21L17 20L18 20L18 19L17 19L17 20L14 20L14 19L15 19L15 18L16 18L16 17L17 17L17 16L18 16L18 15L16 15L16 16L15 16L15 15L14 15L14 16L13 16L13 17L12 17L12 15L13 15L13 14L12 14L12 13L14 13L14 14L16 14L16 13L15 13L15 12L19 12L19 13L20 13L20 12L21 12L21 13L26 13L26 12L27 12L27 13L28 13L28 12L27 12L27 11L26 11L26 12L24 12L24 11L25 11L25 10L23 10L23 12L22 12L22 10L19 10L19 9L21 9L21 8L20 8L20 5ZM18 6L18 7L19 7L19 6ZM17 8L17 9L18 9L18 8ZM1 9L1 11L2 11L2 9ZM6 11L6 12L7 12L7 11ZM19 11L19 12L20 12L20 11ZM10 13L10 14L11 14L11 13ZM17 13L17 14L18 14L18 13ZM6 14L6 15L7 15L7 14ZM19 14L19 17L18 17L18 18L19 18L19 19L20 19L20 20L19 20L19 22L20 22L20 20L23 20L23 19L24 19L24 18L22 18L22 19L21 19L21 18L19 18L19 17L20 17L20 16L21 16L21 15L22 15L22 14ZM14 16L14 17L15 17L15 16ZM21 21L21 24L24 24L24 21ZM22 22L22 23L23 23L23 22ZM14 23L14 24L15 24L15 23ZM17 23L17 24L16 24L16 25L17 25L17 26L18 26L18 25L19 25L19 26L21 26L21 25L20 25L20 23L19 23L19 24L18 24L18 23ZM28 23L28 24L29 24L29 23ZM10 26L10 27L9 27L9 28L10 28L10 27L11 27L11 26ZM22 27L22 28L23 28L23 27ZM17 28L17 29L18 29L18 28ZM0 0L0 7L7 7L7 0ZM1 1L1 6L6 6L6 1ZM2 2L2 5L5 5L5 2ZM22 0L22 7L29 7L29 0ZM23 1L23 6L28 6L28 1ZM24 2L24 5L27 5L27 2ZM0 22L0 29L7 29L7 22ZM1 23L1 28L6 28L6 23ZM2 24L2 27L5 27L5 24Z" fill="#000000"/></g></g></svg>
