<?xml version="1.0" encoding="UTF-8"?>
<svg xmlns="http://www.w3.org/2000/svg" version="1.1" width="200" height="200" viewBox="0 0 200 200"><rect x="0" y="0" width="200" height="200" fill="#ffffff"/><g transform="scale(5.405)"><g transform="translate(0,0)"><path fill-rule="evenodd" d="M9 0L9 1L8 1L8 2L9 2L9 3L8 3L8 4L10 4L10 7L11 7L11 4L12 4L12 5L14 5L14 8L13 8L13 6L12 6L12 9L14 9L14 10L15 10L15 13L14 13L14 12L13 12L13 13L12 13L12 11L13 11L13 10L10 10L10 9L11 9L11 8L6 8L6 9L5 9L5 8L0 8L0 9L1 9L1 11L2 11L2 12L3 12L3 13L2 13L2 14L4 14L4 10L5 10L5 15L7 15L7 16L6 16L6 17L9 17L9 14L10 14L10 15L11 15L11 13L12 13L12 14L13 14L13 15L12 15L12 17L13 17L13 18L11 18L11 21L9 21L9 20L8 20L8 19L10 19L10 18L6 18L6 19L5 19L5 18L4 18L4 21L3 21L3 22L1 22L1 21L2 21L2 20L3 20L3 19L2 19L2 16L3 16L3 17L5 17L5 16L4 16L4 15L2 15L2 16L1 16L1 15L0 15L0 16L1 16L1 17L0 17L0 18L1 18L1 19L0 19L0 20L1 20L1 21L0 21L0 23L3 23L3 24L4 24L4 25L3 25L3 26L2 26L2 24L0 24L0 29L1 29L1 26L2 26L2 29L3 29L3 27L4 27L4 28L5 28L5 29L8 29L8 31L9 31L9 29L8 29L8 27L7 27L7 26L8 26L8 24L9 24L9 25L10 25L10 26L9 26L9 28L11 28L11 29L10 29L10 31L11 31L11 29L12 29L12 30L13 30L13 31L12 31L12 33L13 33L13 34L11 34L11 32L10 32L10 35L11 35L11 36L9 36L9 32L8 32L8 37L13 37L13 36L12 36L12 35L13 35L13 34L14 34L14 36L15 36L15 35L16 35L16 36L17 36L17 37L18 37L18 36L17 36L17 35L16 35L16 34L17 34L17 33L18 33L18 35L19 35L19 34L20 34L20 36L22 36L22 37L23 37L23 36L22 36L22 35L23 35L23 34L24 34L24 35L25 35L25 34L24 34L24 33L26 33L26 34L27 34L27 35L28 35L28 36L25 36L25 37L28 37L28 36L29 36L29 33L30 33L30 34L31 34L31 35L30 35L30 36L31 36L31 35L32 35L32 34L34 34L34 35L36 35L36 36L34 36L34 37L37 37L37 33L36 33L36 31L37 31L37 30L36 30L36 29L35 29L35 28L36 28L36 27L37 27L37 26L36 26L36 27L35 27L35 24L32 24L32 25L33 25L33 26L31 26L31 27L30 27L30 26L29 26L29 25L31 25L31 24L30 24L30 22L29 22L29 21L31 21L31 20L32 20L32 21L33 21L33 22L32 22L32 23L33 23L33 22L34 22L34 20L33 20L33 19L37 19L37 18L34 18L34 17L36 17L36 15L37 15L37 14L35 14L35 13L36 13L36 12L37 12L37 10L36 10L36 11L35 11L35 10L34 10L34 8L33 8L33 12L29 12L29 13L28 13L28 14L26 14L26 16L25 16L25 13L27 13L27 12L25 12L25 10L24 10L24 9L23 9L23 8L22 8L22 7L23 7L23 6L22 6L22 4L21 4L21 5L20 5L20 4L18 4L18 3L19 3L19 2L18 2L18 3L16 3L16 2L17 2L17 1L15 1L15 0L14 0L14 1L11 1L11 2L10 2L10 0ZM18 0L18 1L21 1L21 3L23 3L23 5L24 5L24 4L26 4L26 3L24 3L24 2L25 2L25 1L26 1L26 2L28 2L28 1L26 1L26 0L25 0L25 1L24 1L24 0L23 0L23 1L22 1L22 0ZM23 1L23 2L24 2L24 1ZM12 2L12 4L13 4L13 3L14 3L14 5L17 5L17 7L16 7L16 6L15 6L15 7L16 7L16 8L14 8L14 9L15 9L15 10L17 10L17 11L16 11L16 12L18 12L18 13L20 13L20 11L21 11L21 10L19 10L19 12L18 12L18 9L16 9L16 8L19 8L19 9L22 9L22 8L20 8L20 5L18 5L18 4L16 4L16 3L14 3L14 2ZM10 3L10 4L11 4L11 3ZM27 3L27 4L28 4L28 3ZM8 5L8 7L9 7L9 5ZM25 5L25 6L24 6L24 7L25 7L25 6L26 6L26 7L27 7L27 6L28 6L28 8L29 8L29 9L28 9L28 10L26 10L26 11L28 11L28 10L30 10L30 11L31 11L31 10L32 10L32 8L31 8L31 10L30 10L30 8L29 8L29 5L27 5L27 6L26 6L26 5ZM18 6L18 7L19 7L19 6ZM21 6L21 7L22 7L22 6ZM25 8L25 9L27 9L27 8ZM35 8L35 9L36 9L36 8ZM2 9L2 10L4 10L4 9ZM6 9L6 10L7 10L7 11L6 11L6 12L7 12L7 11L8 11L8 13L6 13L6 14L7 14L7 15L8 15L8 13L9 13L9 11L10 11L10 12L11 12L11 11L10 11L10 10L9 10L9 9ZM8 10L8 11L9 11L9 10ZM22 10L22 12L21 12L21 13L22 13L22 14L23 14L23 15L24 15L24 14L23 14L23 13L24 13L24 12L23 12L23 11L24 11L24 10ZM34 11L34 12L33 12L33 13L32 13L32 14L31 14L31 13L29 13L29 14L28 14L28 15L29 15L29 14L31 14L31 17L29 17L29 16L28 16L28 17L27 17L27 18L26 18L26 17L25 17L25 16L24 16L24 17L25 17L25 18L26 18L26 19L25 19L25 20L26 20L26 19L27 19L27 21L25 21L25 22L26 22L26 23L24 23L24 22L19 22L19 23L18 23L18 22L17 22L17 21L16 21L16 20L18 20L18 21L22 21L22 20L23 20L23 21L24 21L24 20L23 20L23 19L24 19L24 18L19 18L19 19L18 19L18 17L22 17L22 16L21 16L21 15L20 15L20 14L18 14L18 15L17 15L17 13L15 13L15 14L16 14L16 15L15 15L15 16L14 16L14 15L13 15L13 16L14 16L14 18L13 18L13 19L12 19L12 21L11 21L11 24L10 24L10 25L11 25L11 26L10 26L10 27L11 27L11 26L14 26L14 25L15 25L15 26L19 26L19 27L17 27L17 28L16 28L16 29L15 29L15 28L14 28L14 27L12 27L12 29L13 29L13 30L14 30L14 31L13 31L13 32L16 32L16 33L15 33L15 34L16 34L16 33L17 33L17 32L18 32L18 33L20 33L20 34L21 34L21 35L22 35L22 34L23 34L23 33L22 33L22 32L24 32L24 31L25 31L25 32L26 32L26 31L28 31L28 30L27 30L27 29L26 29L26 30L25 30L25 29L24 29L24 30L23 30L23 29L22 29L22 28L20 28L20 27L22 27L22 26L23 26L23 27L24 27L24 28L29 28L29 26L28 26L28 25L29 25L29 23L27 23L27 22L28 22L28 21L29 21L29 20L31 20L31 19L33 19L33 17L32 17L32 16L33 16L33 15L32 15L32 14L33 14L33 13L34 13L34 12L35 12L35 11ZM0 12L0 14L1 14L1 12ZM22 12L22 13L23 13L23 12ZM13 13L13 14L14 14L14 13ZM18 15L18 16L17 16L17 17L18 17L18 16L19 16L19 15ZM34 15L34 16L35 16L35 15ZM10 16L10 17L11 17L11 16ZM15 16L15 17L16 17L16 16ZM28 17L28 18L27 18L27 19L28 19L28 20L29 20L29 19L30 19L30 18L29 18L29 17ZM14 18L14 20L13 20L13 21L12 21L12 22L13 22L13 21L14 21L14 22L15 22L15 23L16 23L16 22L15 22L15 21L14 21L14 20L15 20L15 19L16 19L16 18ZM1 19L1 20L2 20L2 19ZM6 19L6 20L5 20L5 22L3 22L3 23L4 23L4 24L7 24L7 23L8 23L8 22L7 22L7 21L8 21L8 20L7 20L7 19ZM20 19L20 20L22 20L22 19ZM6 20L6 21L7 21L7 20ZM35 20L35 21L36 21L36 20ZM5 22L5 23L7 23L7 22ZM35 22L35 23L37 23L37 22ZM12 23L12 25L14 25L14 24L13 24L13 23ZM19 23L19 24L20 24L20 23ZM21 23L21 24L22 24L22 25L23 25L23 26L24 26L24 25L26 25L26 26L25 26L25 27L26 27L26 26L27 26L27 27L28 27L28 26L27 26L27 23L26 23L26 24L24 24L24 23ZM15 24L15 25L16 25L16 24ZM17 24L17 25L18 25L18 24ZM36 24L36 25L37 25L37 24ZM4 25L4 27L5 27L5 28L7 28L7 27L6 27L6 26L7 26L7 25L6 25L6 26L5 26L5 25ZM19 25L19 26L20 26L20 25ZM33 26L33 28L35 28L35 27L34 27L34 26ZM13 28L13 29L14 29L14 28ZM17 28L17 29L16 29L16 30L15 30L15 31L19 31L19 32L20 32L20 31L19 31L19 30L20 30L20 28L19 28L19 30L17 30L17 29L18 29L18 28ZM29 29L29 32L32 32L32 29ZM34 29L34 30L33 30L33 32L35 32L35 29ZM22 30L22 31L21 31L21 32L22 32L22 31L23 31L23 30ZM30 30L30 31L31 31L31 30ZM31 33L31 34L32 34L32 33ZM0 0L0 7L7 7L7 0ZM1 1L1 6L6 6L6 1ZM2 2L2 5L5 5L5 2ZM30 0L30 7L37 7L37 0ZM31 1L31 6L36 6L36 1ZM32 2L32 5L35 5L35 2ZM0 30L0 37L7 37L7 30ZM1 31L1 36L6 36L6 31ZM2 32L2 35L5 35L5 32Z" fill="#000000"/></g></g></svg>
