<?xml version="1.0" encoding="UTF-8"?>
<svg xmlns="http://www.w3.org/2000/svg" version="1.1" width="200" height="200" viewBox="0 0 200 200"><rect x="0" y="0" width="200" height="200" fill="#ffffff"/><g transform="scale(6.897)"><g transform="translate(0,0)"><path fill-rule="evenodd" d="M8 0L8 1L10 1L10 0ZM13 0L13 1L15 1L15 0ZM16 0L16 1L17 1L17 2L11 2L11 4L10 4L10 3L9 3L9 2L8 2L8 5L9 5L9 6L8 6L8 7L9 7L9 8L8 8L8 9L7 9L7 8L6 8L6 9L4 9L4 8L0 8L0 10L1 10L1 11L2 11L2 12L1 12L1 13L0 13L0 15L2 15L2 12L3 12L3 13L4 13L4 12L5 12L5 14L4 14L4 15L3 15L3 16L1 16L1 18L0 18L0 19L1 19L1 18L2 18L2 17L3 17L3 18L4 18L4 19L2 19L2 20L1 20L1 21L2 21L2 20L3 20L3 21L8 21L8 22L9 22L9 25L8 25L8 29L11 29L11 28L12 28L12 29L13 29L13 28L12 28L12 26L13 26L13 27L14 27L14 29L15 29L15 27L14 27L14 26L16 26L16 27L20 27L20 29L21 29L21 27L20 27L20 26L17 26L17 25L18 25L18 24L17 24L17 23L20 23L20 25L23 25L23 27L22 27L22 28L23 28L23 29L24 29L24 28L26 28L26 29L28 29L28 27L29 27L29 25L28 25L28 27L27 27L27 24L29 24L29 23L28 23L28 22L29 22L29 21L28 21L28 22L27 22L27 20L29 20L29 19L28 19L28 18L26 18L26 17L25 17L25 14L26 14L26 13L27 13L27 12L26 12L26 13L25 13L25 14L23 14L23 13L22 13L22 14L21 14L21 15L24 15L24 17L23 17L23 18L24 18L24 20L23 20L23 19L22 19L22 18L21 18L21 17L20 17L20 18L21 18L21 19L20 19L20 20L18 20L18 19L19 19L19 18L16 18L16 15L15 15L15 14L17 14L17 15L18 15L18 16L20 16L20 13L19 13L19 12L22 12L22 11L19 11L19 12L17 12L17 13L15 13L15 14L14 14L14 13L13 13L13 14L12 14L12 12L16 12L16 11L15 11L15 10L14 10L14 11L11 11L11 13L10 13L10 12L9 12L9 10L10 10L10 9L9 9L9 8L10 8L10 7L11 7L11 8L12 8L12 7L13 7L13 9L15 9L15 5L16 5L16 3L17 3L17 6L16 6L16 10L17 10L17 9L18 9L18 10L25 10L25 11L26 11L26 10L27 10L27 11L28 11L28 10L29 10L29 8L28 8L28 9L27 9L27 8L24 8L24 9L22 9L22 8L21 8L21 9L18 9L18 8L20 8L20 7L21 7L21 6L20 6L20 3L21 3L21 2L20 2L20 3L19 3L19 1L21 1L21 0ZM17 2L17 3L18 3L18 4L19 4L19 3L18 3L18 2ZM12 3L12 5L10 5L10 6L9 6L9 7L10 7L10 6L11 6L11 7L12 7L12 5L13 5L13 7L14 7L14 5L13 5L13 4L15 4L15 3ZM18 5L18 6L17 6L17 7L18 7L18 6L19 6L19 7L20 7L20 6L19 6L19 5ZM2 9L2 11L3 11L3 9ZM6 9L6 10L4 10L4 11L5 11L5 12L7 12L7 13L6 13L6 14L9 14L9 15L6 15L6 16L5 16L5 15L4 15L4 17L6 17L6 18L7 18L7 19L6 19L6 20L8 20L8 21L10 21L10 19L11 19L11 20L12 20L12 19L11 19L11 18L12 18L12 17L14 17L14 18L13 18L13 20L14 20L14 21L15 21L15 22L14 22L14 23L10 23L10 25L9 25L9 26L10 26L10 27L9 27L9 28L11 28L11 26L10 26L10 25L12 25L12 24L13 24L13 26L14 26L14 24L15 24L15 23L17 23L17 22L16 22L16 20L17 20L17 21L18 21L18 20L17 20L17 19L15 19L15 15L14 15L14 14L13 14L13 15L14 15L14 16L12 16L12 14L11 14L11 15L10 15L10 13L8 13L8 12L7 12L7 11L8 11L8 10L7 10L7 9ZM6 10L6 11L7 11L7 10ZM28 12L28 14L27 14L27 16L29 16L29 12ZM17 13L17 14L18 14L18 15L19 15L19 14L18 14L18 13ZM6 16L6 17L8 17L8 20L9 20L9 19L10 19L10 16ZM11 16L11 17L12 17L12 16ZM24 17L24 18L25 18L25 23L26 23L26 24L25 24L25 26L24 26L24 27L25 27L25 26L26 26L26 24L27 24L27 22L26 22L26 18L25 18L25 17ZM21 19L21 20L22 20L22 19ZM11 21L11 22L12 22L12 21ZM21 21L21 24L24 24L24 21ZM22 22L22 23L23 23L23 22ZM26 27L26 28L27 28L27 27ZM16 28L16 29L17 29L17 28ZM18 28L18 29L19 29L19 28ZM0 0L0 7L7 7L7 0ZM1 1L1 6L6 6L6 1ZM2 2L2 5L5 5L5 2ZM22 0L22 7L29 7L29 0ZM23 1L23 6L28 6L28 1ZM24 2L24 5L27 5L27 2ZM0 22L0 29L7 29L7 22ZM1 23L1 28L6 28L6 23ZM2 24L2 27L5 27L5 24Z" fill="#000000"/></g></g></svg>
