<?xml version="1.0" encoding="UTF-8"?>
<svg xmlns="http://www.w3.org/2000/svg" version="1.1" width="200" height="200" viewBox="0 0 200 200"><rect x="0" y="0" width="200" height="200" fill="#ffffff"/><g transform="scale(5.405)"><g transform="translate(0,0)"><path fill-rule="evenodd" d="M10 0L10 1L8 1L8 2L9 2L9 3L8 3L8 4L10 4L10 3L12 3L12 4L11 4L11 5L10 5L10 7L11 7L11 5L13 5L13 6L12 6L12 8L6 8L6 9L5 9L5 8L0 8L0 10L1 10L1 9L2 9L2 10L3 10L3 9L4 9L4 10L5 10L5 12L4 12L4 14L5 14L5 15L3 15L3 11L1 11L1 13L0 13L0 14L1 14L1 15L0 15L0 19L1 19L1 21L0 21L0 23L2 23L2 24L3 24L3 21L8 21L8 22L6 22L6 23L8 23L8 22L9 22L9 24L10 24L10 22L13 22L13 23L14 23L14 22L15 22L15 25L16 25L16 22L17 22L17 21L18 21L18 22L19 22L19 21L20 21L20 22L24 22L24 21L26 21L26 22L25 22L25 23L26 23L26 24L24 24L24 23L21 23L21 24L23 24L23 26L24 26L24 25L28 25L28 24L27 24L27 23L28 23L28 22L29 22L29 23L30 23L30 22L29 22L29 21L31 21L31 18L29 18L29 17L31 17L31 16L32 16L32 17L33 17L33 18L32 18L32 19L37 19L37 18L34 18L34 17L36 17L36 15L37 15L37 14L35 14L35 13L36 13L36 12L37 12L37 10L36 10L36 11L35 11L35 10L34 10L34 8L33 8L33 10L32 10L32 8L31 8L31 10L30 10L30 8L29 8L29 6L28 6L28 5L29 5L29 4L28 4L28 5L26 5L26 3L25 3L25 2L26 2L26 1L24 1L24 0L23 0L23 1L22 1L22 0L20 0L20 2L21 2L21 3L23 3L23 4L25 4L25 5L24 5L24 7L23 7L23 6L22 6L22 4L20 4L20 5L21 5L21 6L20 6L20 7L19 7L19 4L18 4L18 7L19 7L19 8L13 8L13 6L14 6L14 7L15 7L15 6L16 6L16 7L17 7L17 3L15 3L15 2L18 2L18 3L19 3L19 2L18 2L18 1L17 1L17 0L16 0L16 1L15 1L15 2L14 2L14 3L13 3L13 1L12 1L12 0ZM11 1L11 2L12 2L12 1ZM23 1L23 2L24 2L24 1ZM27 1L27 3L28 3L28 2L29 2L29 1ZM14 4L14 5L16 5L16 4ZM8 5L8 7L9 7L9 5ZM25 5L25 8L26 8L26 9L25 9L25 10L26 10L26 11L25 11L25 12L24 12L24 13L25 13L25 16L27 16L27 17L25 17L25 19L24 19L24 18L23 18L23 17L24 17L24 16L23 16L23 17L22 17L22 16L20 16L20 17L19 17L19 20L18 20L18 19L17 19L17 18L18 18L18 17L17 17L17 16L18 16L18 15L20 15L20 13L22 13L22 12L20 12L20 9L22 9L22 8L23 8L23 9L24 9L24 8L23 8L23 7L22 7L22 6L21 6L21 7L22 7L22 8L20 8L20 9L19 9L19 12L20 12L20 13L19 13L19 14L17 14L17 15L16 15L16 17L15 17L15 16L14 16L14 14L16 14L16 13L17 13L17 12L18 12L18 11L16 11L16 12L15 12L15 13L13 13L13 12L14 12L14 11L15 11L15 10L16 10L16 9L13 9L13 8L12 8L12 9L13 9L13 10L14 10L14 11L13 11L13 12L12 12L12 10L11 10L11 9L6 9L6 10L7 10L7 11L6 11L6 12L5 12L5 13L6 13L6 14L7 14L7 15L5 15L5 16L7 16L7 17L6 17L6 18L5 18L5 17L3 17L3 15L1 15L1 19L2 19L2 21L1 21L1 22L2 22L2 21L3 21L3 20L4 20L4 19L5 19L5 20L8 20L8 21L9 21L9 22L10 22L10 21L9 21L9 20L10 20L10 19L12 19L12 18L11 18L11 17L13 17L13 18L14 18L14 19L13 19L13 20L11 20L11 21L13 21L13 20L14 20L14 21L15 21L15 22L16 22L16 21L17 21L17 20L18 20L18 21L19 21L19 20L20 20L20 21L22 21L22 20L20 20L20 19L21 19L21 18L22 18L22 19L24 19L24 20L26 20L26 18L28 18L28 17L29 17L29 16L31 16L31 15L33 15L33 13L34 13L34 12L35 12L35 11L34 11L34 12L33 12L33 11L32 11L32 10L31 10L31 13L30 13L30 14L29 14L29 16L27 16L27 15L26 15L26 14L28 14L28 13L29 13L29 12L30 12L30 10L29 10L29 11L28 11L28 12L27 12L27 10L28 10L28 9L27 9L27 8L28 8L28 6L27 6L27 7L26 7L26 5ZM35 8L35 9L36 9L36 8ZM17 9L17 10L18 10L18 9ZM8 10L8 12L6 12L6 13L7 13L7 14L9 14L9 13L10 13L10 12L11 12L11 11L10 11L10 10ZM21 10L21 11L24 11L24 10ZM25 12L25 13L27 13L27 12ZM32 12L32 13L33 13L33 12ZM1 13L1 14L2 14L2 13ZM11 13L11 14L10 14L10 16L9 16L9 15L8 15L8 16L9 16L9 19L10 19L10 16L11 16L11 14L12 14L12 16L13 16L13 17L14 17L14 16L13 16L13 13ZM23 14L23 15L24 15L24 14ZM30 14L30 15L31 15L31 14ZM34 15L34 16L35 16L35 15ZM7 17L7 18L6 18L6 19L8 19L8 17ZM16 17L16 18L15 18L15 19L16 19L16 20L17 20L17 19L16 19L16 18L17 18L17 17ZM20 17L20 18L21 18L21 17ZM28 19L28 21L29 21L29 19ZM32 20L32 21L34 21L34 22L33 22L33 23L34 23L34 22L35 22L35 23L37 23L37 22L35 22L35 21L36 21L36 20L35 20L35 21L34 21L34 20ZM4 22L4 23L5 23L5 22ZM26 22L26 23L27 23L27 22ZM31 22L31 23L32 23L32 22ZM18 23L18 24L17 24L17 25L18 25L18 27L19 27L19 26L20 26L20 27L21 27L21 29L20 29L20 28L19 28L19 30L21 30L21 31L18 31L18 32L17 32L17 31L16 31L16 30L17 30L17 29L18 29L18 28L17 28L17 26L15 26L15 29L14 29L14 28L13 28L13 29L10 29L10 28L6 28L6 29L8 29L8 31L9 31L9 32L8 32L8 37L10 37L10 36L9 36L9 35L11 35L11 34L13 34L13 33L14 33L14 36L11 36L11 37L14 37L14 36L15 36L15 37L16 37L16 34L17 34L17 33L18 33L18 34L20 34L20 35L21 35L21 36L22 36L22 37L23 37L23 34L24 34L24 36L25 36L25 37L28 37L28 36L29 36L29 37L31 37L31 36L32 36L32 33L34 33L34 34L33 34L33 35L36 35L36 36L35 36L35 37L37 37L37 34L35 34L35 33L34 33L34 32L33 32L33 29L34 29L34 30L35 30L35 32L37 32L37 30L36 30L36 29L34 29L34 28L32 28L32 27L33 27L33 26L32 26L32 25L31 25L31 24L29 24L29 25L31 25L31 26L32 26L32 27L31 27L31 28L30 28L30 26L29 26L29 28L28 28L28 31L27 31L27 32L25 32L25 34L24 34L24 33L23 33L23 31L22 31L22 29L23 29L23 30L24 30L24 31L26 31L26 30L27 30L27 27L28 27L28 26L27 26L27 27L26 27L26 26L25 26L25 27L24 27L24 28L22 28L22 25L21 25L21 26L20 26L20 25L18 25L18 24L19 24L19 23ZM0 24L0 29L1 29L1 24ZM6 24L6 25L8 25L8 24ZM11 24L11 26L12 26L12 27L11 27L11 28L12 28L12 27L14 27L14 26L13 26L13 25L14 25L14 24ZM33 24L33 25L34 25L34 27L35 27L35 28L36 28L36 27L37 27L37 26L36 26L36 27L35 27L35 25L34 25L34 24ZM36 24L36 25L37 25L37 24ZM2 25L2 27L3 27L3 28L5 28L5 27L7 27L7 26L5 26L5 25ZM9 25L9 27L10 27L10 25ZM25 27L25 28L26 28L26 27ZM16 28L16 29L15 29L15 30L14 30L14 29L13 29L13 32L12 32L12 30L9 30L9 31L10 31L10 32L9 32L9 33L10 33L10 34L11 34L11 33L13 33L13 32L14 32L14 33L15 33L15 34L16 34L16 33L17 33L17 32L16 32L16 33L15 33L15 30L16 30L16 29L17 29L17 28ZM24 29L24 30L26 30L26 29ZM29 29L29 32L32 32L32 29ZM30 30L30 31L31 31L31 30ZM18 32L18 33L20 33L20 32ZM21 32L21 34L23 34L23 33L22 33L22 32ZM26 33L26 34L25 34L25 36L26 36L26 35L27 35L27 33ZM28 34L28 35L30 35L30 36L31 36L31 34ZM17 36L17 37L20 37L20 36ZM33 36L33 37L34 37L34 36ZM0 0L0 7L7 7L7 0ZM1 1L1 6L6 6L6 1ZM2 2L2 5L5 5L5 2ZM30 0L30 7L37 7L37 0ZM31 1L31 6L36 6L36 1ZM32 2L32 5L35 5L35 2ZM0 30L0 37L7 37L7 30ZM1 31L1 36L6 36L6 31ZM2 32L2 35L5 35L5 32Z" fill="#000000"/></g></g></svg>
