<?xml version="1.0" encoding="UTF-8"?>
<svg xmlns="http://www.w3.org/2000/svg" version="1.1" width="200" height="200" viewBox="0 0 200 200"><rect x="0" y="0" width="200" height="200" fill="#ffffff"/><g transform="scale(5.405)"><g transform="translate(0,0)"><path fill-rule="evenodd" d="M10 0L10 2L11 2L11 0ZM12 0L12 1L13 1L13 0ZM14 0L14 1L15 1L15 4L14 4L14 3L13 3L13 2L12 2L12 4L14 4L14 5L15 5L15 6L14 6L14 7L15 7L15 6L16 6L16 7L17 7L17 6L16 6L16 5L15 5L15 4L18 4L18 7L19 7L19 5L20 5L20 7L21 7L21 8L22 8L22 9L20 9L20 8L19 8L19 9L18 9L18 8L15 8L15 9L17 9L17 10L15 10L15 11L16 11L16 12L17 12L17 13L18 13L18 14L17 14L17 15L16 15L16 14L15 14L15 12L13 12L13 11L14 11L14 10L13 10L13 9L14 9L14 8L13 8L13 9L12 9L12 7L13 7L13 5L11 5L11 6L10 6L10 4L11 4L11 3L8 3L8 4L9 4L9 5L8 5L8 7L9 7L9 8L6 8L6 9L7 9L7 10L5 10L5 12L4 12L4 14L3 14L3 15L1 15L1 14L0 14L0 18L1 18L1 20L0 20L0 23L1 23L1 22L2 22L2 24L0 24L0 29L1 29L1 26L3 26L3 27L2 27L2 29L3 29L3 27L4 27L4 25L5 25L5 28L6 28L6 29L7 29L7 28L9 28L9 27L10 27L10 25L12 25L12 26L13 26L13 27L12 27L12 29L13 29L13 28L14 28L14 29L15 29L15 28L14 28L14 27L16 27L16 28L17 28L17 29L18 29L18 30L17 30L17 31L16 31L16 30L15 30L15 31L14 31L14 32L16 32L16 33L12 33L12 31L13 31L13 30L11 30L11 28L10 28L10 30L11 30L11 33L12 33L12 34L13 34L13 35L12 35L12 37L13 37L13 36L14 36L14 37L19 37L19 34L20 34L20 36L22 36L22 37L23 37L23 36L22 36L22 35L23 35L23 34L24 34L24 35L25 35L25 34L24 34L24 33L26 33L26 34L27 34L27 36L25 36L25 37L28 37L28 36L29 36L29 35L30 35L30 34L31 34L31 33L32 33L32 34L34 34L34 35L36 35L36 36L35 36L35 37L37 37L37 33L35 33L35 34L34 34L34 33L33 33L33 31L34 31L34 30L33 30L33 28L28 28L28 29L27 29L27 28L24 28L24 27L23 27L23 26L24 26L24 25L26 25L26 26L25 26L25 27L26 27L26 26L27 26L27 27L28 27L28 26L29 26L29 24L30 24L30 25L31 25L31 24L32 24L32 25L34 25L34 27L35 27L35 28L36 28L36 27L37 27L37 26L36 26L36 27L35 27L35 25L34 25L34 24L33 24L33 23L34 23L34 22L33 22L33 23L30 23L30 22L29 22L29 21L31 21L31 20L30 20L30 18L29 18L29 17L31 17L31 18L32 18L32 19L37 19L37 18L34 18L34 17L36 17L36 15L37 15L37 14L35 14L35 13L36 13L36 12L37 12L37 10L36 10L36 11L35 11L35 10L34 10L34 8L33 8L33 10L32 10L32 8L31 8L31 10L29 10L29 9L30 9L30 8L25 8L25 6L26 6L26 7L27 7L27 6L28 6L28 7L29 7L29 6L28 6L28 5L27 5L27 6L26 6L26 5L25 5L25 6L24 6L24 7L23 7L23 5L24 5L24 4L26 4L26 3L25 3L25 1L26 1L26 2L28 2L28 1L26 1L26 0L25 0L25 1L24 1L24 0L23 0L23 1L24 1L24 3L23 3L23 2L22 2L22 1L21 1L21 0L19 0L19 1L17 1L17 2L19 2L19 3L20 3L20 4L18 4L18 3L16 3L16 1L15 1L15 0ZM8 1L8 2L9 2L9 1ZM19 1L19 2L20 2L20 3L21 3L21 5L23 5L23 4L22 4L22 3L21 3L21 2L20 2L20 1ZM27 3L27 4L28 4L28 3ZM9 6L9 7L10 7L10 6ZM11 6L11 7L12 7L12 6ZM21 6L21 7L22 7L22 8L23 8L23 9L22 9L22 10L23 10L23 11L22 11L22 12L21 12L21 11L20 11L20 10L18 10L18 11L17 11L17 12L18 12L18 13L22 13L22 14L19 14L19 15L17 15L17 16L18 16L18 17L17 17L17 18L16 18L16 20L15 20L15 19L14 19L14 20L13 20L13 21L12 21L12 19L13 19L13 18L12 18L12 17L14 17L14 18L15 18L15 17L16 17L16 16L14 16L14 14L13 14L13 13L12 13L12 11L13 11L13 10L12 10L12 9L11 9L11 8L10 8L10 9L11 9L11 10L10 10L10 11L8 11L8 10L7 10L7 11L6 11L6 12L7 12L7 11L8 11L8 12L9 12L9 13L5 13L5 15L4 15L4 17L2 17L2 16L1 16L1 18L2 18L2 19L3 19L3 20L2 20L2 22L3 22L3 24L2 24L2 25L4 25L4 22L8 22L8 23L11 23L11 22L13 22L13 23L12 23L12 25L15 25L15 26L17 26L17 25L15 25L15 24L14 24L14 23L15 23L15 22L16 22L16 24L18 24L18 23L17 23L17 22L18 22L18 21L16 21L16 20L19 20L19 21L20 21L20 22L19 22L19 25L18 25L18 26L19 26L19 29L22 29L22 31L23 31L23 32L24 32L24 31L25 31L25 32L26 32L26 31L27 31L27 32L28 32L28 30L27 30L27 29L26 29L26 30L25 30L25 29L24 29L24 30L23 30L23 29L22 29L22 28L23 28L23 27L22 27L22 28L20 28L20 27L21 27L21 26L19 26L19 25L22 25L22 26L23 26L23 25L22 25L22 24L23 24L23 23L24 23L24 24L26 24L26 23L27 23L27 22L28 22L28 21L29 21L29 20L28 20L28 19L29 19L29 18L28 18L28 17L29 17L29 16L33 16L33 13L34 13L34 12L35 12L35 11L34 11L34 12L33 12L33 11L32 11L32 10L31 10L31 12L33 12L33 13L32 13L32 14L31 14L31 13L29 13L29 12L28 12L28 11L26 11L26 10L28 10L28 9L24 9L24 8L23 8L23 7L22 7L22 6ZM0 8L0 13L1 13L1 12L2 12L2 10L4 10L4 9L5 9L5 8ZM35 8L35 9L36 9L36 8ZM1 9L1 10L2 10L2 9ZM23 9L23 10L24 10L24 11L23 11L23 12L24 12L24 13L23 13L23 14L24 14L24 15L23 15L23 18L21 18L21 17L20 17L20 16L22 16L22 15L19 15L19 17L18 17L18 18L21 18L21 20L22 20L22 19L23 19L23 20L24 20L24 21L23 21L23 22L24 22L24 23L26 23L26 22L25 22L25 21L27 21L27 19L28 19L28 18L27 18L27 16L28 16L28 15L30 15L30 14L29 14L29 13L28 13L28 14L26 14L26 16L25 16L25 13L27 13L27 12L25 12L25 10L24 10L24 9ZM18 11L18 12L19 12L19 11ZM10 12L10 14L8 14L8 15L7 15L7 14L6 14L6 15L5 15L5 17L8 17L8 16L9 16L9 17L12 17L12 15L13 15L13 14L11 14L11 12ZM6 15L6 16L7 16L7 15ZM9 15L9 16L11 16L11 15ZM34 15L34 16L35 16L35 15ZM24 16L24 17L25 17L25 18L26 18L26 19L25 19L25 20L26 20L26 19L27 19L27 18L26 18L26 17L25 17L25 16ZM32 17L32 18L33 18L33 17ZM6 18L6 19L7 19L7 20L6 20L6 21L7 21L7 20L8 20L8 22L11 22L11 21L10 21L10 20L11 20L11 19L10 19L10 18L9 18L9 19L8 19L8 18ZM23 18L23 19L24 19L24 18ZM9 19L9 20L10 20L10 19ZM3 20L3 21L5 21L5 20ZM14 20L14 21L15 21L15 20ZM32 20L32 21L34 21L34 20ZM35 20L35 21L36 21L36 20ZM21 21L21 22L20 22L20 24L22 24L22 23L21 23L21 22L22 22L22 21ZM35 22L35 23L37 23L37 22ZM5 23L5 25L6 25L6 26L9 26L9 25L8 25L8 24L7 24L7 23ZM6 24L6 25L7 25L7 24ZM36 24L36 25L37 25L37 24ZM27 25L27 26L28 26L28 25ZM30 26L30 27L31 27L31 26ZM32 26L32 27L33 27L33 26ZM6 27L6 28L7 28L7 27ZM17 27L17 28L18 28L18 27ZM8 29L8 31L9 31L9 29ZM29 29L29 32L32 32L32 29ZM35 29L35 31L37 31L37 30L36 30L36 29ZM19 30L19 33L17 33L17 34L19 34L19 33L20 33L20 34L21 34L21 33L22 33L22 32L21 32L21 30ZM30 30L30 31L31 31L31 30ZM17 31L17 32L18 32L18 31ZM8 32L8 37L9 37L9 36L10 36L10 37L11 37L11 36L10 36L10 35L11 35L11 34L9 34L9 33L10 33L10 32ZM29 33L29 34L28 34L28 35L29 35L29 34L30 34L30 33ZM14 35L14 36L15 36L15 35ZM17 35L17 36L18 36L18 35ZM31 35L31 37L32 37L32 35ZM33 36L33 37L34 37L34 36ZM0 0L0 7L7 7L7 0ZM1 1L1 6L6 6L6 1ZM2 2L2 5L5 5L5 2ZM30 0L30 7L37 7L37 0ZM31 1L31 6L36 6L36 1ZM32 2L32 5L35 5L35 2ZM0 30L0 37L7 37L7 30ZM1 31L1 36L6 36L6 31ZM2 32L2 35L5 35L5 32Z" fill="#000000"/></g></g></svg>
