<?xml version="1.0" encoding="UTF-8"?>
<svg xmlns="http://www.w3.org/2000/svg" version="1.1" width="200" height="200" viewBox="0 0 200 200"><rect x="0" y="0" width="200" height="200" fill="#ffffff"/><g transform="scale(5.405)"><g transform="translate(0,0)"><path fill-rule="evenodd" d="M8 0L8 1L11 1L11 3L10 3L10 2L9 2L9 3L10 3L10 5L9 5L9 6L8 6L8 8L9 8L9 9L7 9L7 8L6 8L6 9L5 9L5 8L3 8L3 9L2 9L2 8L0 8L0 10L1 10L1 11L2 11L2 12L0 12L0 13L1 13L1 14L0 14L0 20L1 20L1 21L2 21L2 22L4 22L4 23L2 23L2 24L1 24L1 25L0 25L0 29L1 29L1 27L2 27L2 29L4 29L4 27L8 27L8 28L5 28L5 29L8 29L8 30L9 30L9 32L8 32L8 34L9 34L9 35L8 35L8 37L10 37L10 36L11 36L11 35L10 35L10 34L9 34L9 33L10 33L10 30L11 30L11 31L12 31L12 33L14 33L14 36L13 36L13 37L15 37L15 35L17 35L17 36L16 36L16 37L17 37L17 36L18 36L18 37L21 37L21 35L22 35L22 36L24 36L24 37L25 37L25 35L24 35L24 33L25 33L25 32L26 32L26 33L30 33L30 34L31 34L31 33L33 33L33 34L32 34L32 35L31 35L31 37L32 37L32 35L33 35L33 37L35 37L35 36L36 36L36 37L37 37L37 30L36 30L36 31L35 31L35 29L36 29L36 27L37 27L37 26L36 26L36 27L33 27L33 26L35 26L35 25L37 25L37 24L36 24L36 23L37 23L37 22L36 22L36 23L34 23L34 22L35 22L35 21L36 21L36 20L34 20L34 18L36 18L36 19L37 19L37 18L36 18L36 17L35 17L35 16L36 16L36 15L37 15L37 14L35 14L35 13L34 13L34 14L33 14L33 13L32 13L32 14L31 14L31 15L32 15L32 16L30 16L30 17L29 17L29 18L28 18L28 17L27 17L27 18L26 18L26 19L25 19L25 17L26 17L26 16L25 16L25 14L26 14L26 13L25 13L25 14L24 14L24 12L25 12L25 11L24 11L24 9L25 9L25 8L26 8L26 10L27 10L27 11L26 11L26 12L27 12L27 15L28 15L28 16L29 16L29 15L30 15L30 14L29 14L29 12L27 12L27 11L28 11L28 10L29 10L29 8L28 8L28 7L29 7L29 5L28 5L28 7L27 7L27 4L29 4L29 3L28 3L28 2L27 2L27 0L24 0L24 1L26 1L26 2L22 2L22 1L23 1L23 0L21 0L21 1L19 1L19 0L17 0L17 2L20 2L20 3L19 3L19 4L18 4L18 3L15 3L15 2L16 2L16 0L13 0L13 1L12 1L12 0ZM28 0L28 1L29 1L29 0ZM12 2L12 4L14 4L14 5L15 5L15 9L16 9L16 11L18 11L18 9L17 9L17 8L19 8L19 7L20 7L20 5L21 5L21 8L20 8L20 10L19 10L19 11L20 11L20 13L18 13L18 12L17 12L17 13L16 13L16 14L17 14L17 13L18 13L18 14L22 14L22 15L21 15L21 16L19 16L19 17L21 17L21 18L20 18L20 19L21 19L21 20L19 20L19 21L17 21L17 20L18 20L18 18L17 18L17 19L14 19L14 25L16 25L16 27L15 27L15 26L14 26L14 27L12 27L12 28L11 28L11 26L13 26L13 25L11 25L11 23L10 23L10 22L12 22L12 23L13 23L13 22L12 22L12 21L13 21L13 19L12 19L12 18L15 18L15 17L16 17L16 15L15 15L15 16L13 16L13 17L12 17L12 18L10 18L10 17L11 17L11 16L12 16L12 15L14 15L14 14L15 14L15 13L13 13L13 12L14 12L14 9L12 9L12 6L13 6L13 8L14 8L14 6L13 6L13 5L12 5L12 6L11 6L11 5L10 5L10 6L9 6L9 7L10 7L10 9L9 9L9 10L10 10L10 11L8 11L8 10L7 10L7 9L6 9L6 10L7 10L7 11L6 11L6 12L9 12L9 13L4 13L4 12L5 12L5 11L3 11L3 13L4 13L4 14L5 14L5 15L4 15L4 16L5 16L5 15L6 15L6 16L7 16L7 17L6 17L6 18L5 18L5 17L3 17L3 15L1 15L1 17L3 17L3 21L4 21L4 22L5 22L5 21L6 21L6 22L7 22L7 23L6 23L6 24L4 24L4 25L1 25L1 26L5 26L5 25L6 25L6 26L9 26L9 28L11 28L11 29L14 29L14 28L16 28L16 27L17 27L17 29L18 29L18 30L16 30L16 31L15 31L15 30L12 30L12 31L13 31L13 32L14 32L14 31L15 31L15 32L16 32L16 33L17 33L17 34L19 34L19 35L18 35L18 36L20 36L20 35L21 35L21 34L22 34L22 33L23 33L23 31L21 31L21 32L20 32L20 33L21 33L21 34L19 34L19 33L17 33L17 32L18 32L18 30L19 30L19 29L18 29L18 26L20 26L20 28L21 28L21 30L22 30L22 29L23 29L23 30L24 30L24 32L25 32L25 30L26 30L26 29L27 29L27 30L28 30L28 29L27 29L27 28L32 28L32 27L30 27L30 26L31 26L31 25L29 25L29 27L27 27L27 26L26 26L26 25L27 25L27 24L28 24L28 23L25 23L25 26L26 26L26 27L24 27L24 26L23 26L23 24L24 24L24 23L23 23L23 24L22 24L22 23L21 23L21 22L23 22L23 20L22 20L22 19L21 19L21 18L22 18L22 15L24 15L24 14L23 14L23 12L24 12L24 11L23 11L23 10L22 10L22 8L23 8L23 9L24 9L24 8L25 8L25 7L26 7L26 4L27 4L27 2L26 2L26 4L25 4L25 3L23 3L23 4L20 4L20 5L18 5L18 6L17 6L17 4L16 4L16 5L15 5L15 4L14 4L14 3L13 3L13 2ZM23 5L23 6L22 6L22 7L23 7L23 6L24 6L24 7L25 7L25 5ZM10 6L10 7L11 7L11 6ZM16 6L16 8L17 8L17 6ZM18 6L18 7L19 7L19 6ZM30 8L30 9L31 9L31 10L30 10L30 13L31 13L31 10L33 10L33 11L34 11L34 12L35 12L35 11L36 11L36 12L37 12L37 10L35 10L35 9L34 9L34 10L33 10L33 9L31 9L31 8ZM36 8L36 9L37 9L37 8ZM1 9L1 10L2 10L2 9ZM3 9L3 10L5 10L5 9ZM10 9L10 10L11 10L11 9ZM12 10L12 11L13 11L13 10ZM10 11L10 12L11 12L11 11ZM22 11L22 12L23 12L23 11ZM10 13L10 15L9 15L9 14L6 14L6 15L9 15L9 16L8 16L8 18L9 18L9 19L10 19L10 20L11 20L11 21L12 21L12 19L10 19L10 18L9 18L9 16L11 16L11 13ZM12 13L12 14L13 14L13 13ZM28 14L28 15L29 15L29 14ZM32 14L32 15L33 15L33 16L32 16L32 19L33 19L33 18L34 18L34 17L33 17L33 16L34 16L34 15L35 15L35 14L34 14L34 15L33 15L33 14ZM17 15L17 17L18 17L18 15ZM23 17L23 18L24 18L24 17ZM30 17L30 18L29 18L29 19L30 19L30 20L31 20L31 17ZM1 18L1 20L2 20L2 18ZM4 18L4 19L5 19L5 18ZM6 18L6 19L7 19L7 18ZM26 19L26 20L24 20L24 21L25 21L25 22L27 22L27 21L26 21L26 20L27 20L27 19ZM4 20L4 21L5 21L5 20ZM6 20L6 21L7 21L7 22L8 22L8 23L7 23L7 24L6 24L6 25L7 25L7 24L8 24L8 25L9 25L9 26L11 26L11 25L10 25L10 24L8 24L8 23L9 23L9 21L8 21L8 20ZM15 20L15 23L17 23L17 24L16 24L16 25L17 25L17 24L18 24L18 25L21 25L21 24L19 24L19 22L20 22L20 21L19 21L19 22L18 22L18 23L17 23L17 21L16 21L16 20ZM28 20L28 22L29 22L29 24L30 24L30 23L32 23L32 21L29 21L29 20ZM0 22L0 23L1 23L1 22ZM32 24L32 25L33 25L33 24ZM21 26L21 27L22 27L22 26ZM23 27L23 28L24 28L24 29L26 29L26 28L24 28L24 27ZM33 28L33 29L35 29L35 28ZM29 29L29 32L32 32L32 29ZM30 30L30 31L31 31L31 30ZM33 30L33 31L34 31L34 32L33 32L33 33L34 33L34 32L35 32L35 31L34 31L34 30ZM12 34L12 35L13 35L13 34ZM27 34L27 35L28 35L28 34ZM34 34L34 35L36 35L36 34ZM9 35L9 36L10 36L10 35ZM29 35L29 36L27 36L27 37L30 37L30 35ZM0 0L0 7L7 7L7 0ZM1 1L1 6L6 6L6 1ZM2 2L2 5L5 5L5 2ZM30 0L30 7L37 7L37 0ZM31 1L31 6L36 6L36 1ZM32 2L32 5L35 5L35 2ZM0 30L0 37L7 37L7 30ZM1 31L1 36L6 36L6 31ZM2 32L2 35L5 35L5 32Z" fill="#000000"/></g></g></svg>
