<?xml version="1.0" encoding="UTF-8"?>
<svg xmlns="http://www.w3.org/2000/svg" version="1.1" width="200" height="200" viewBox="0 0 200 200"><rect x="0" y="0" width="200" height="200" fill="#ffffff"/><g transform="scale(5.405)"><g transform="translate(0,0)"><path fill-rule="evenodd" d="M9 0L9 1L8 1L8 2L9 2L9 3L8 3L8 4L9 4L9 3L10 3L10 5L8 5L8 7L9 7L9 8L6 8L6 9L5 9L5 8L0 8L0 11L2 11L2 12L0 12L0 14L1 14L1 15L0 15L0 16L1 16L1 17L2 17L2 19L0 19L0 21L1 21L1 20L3 20L3 21L4 21L4 22L2 22L2 24L1 24L1 23L0 23L0 24L1 24L1 25L0 25L0 29L1 29L1 26L2 26L2 27L9 27L9 29L8 29L8 31L10 31L10 32L11 32L11 34L12 34L12 36L13 36L13 37L14 37L14 36L15 36L15 37L16 37L16 36L17 36L17 37L18 37L18 36L19 36L19 35L18 35L18 36L17 36L17 34L15 34L15 33L16 33L16 30L17 30L17 29L18 29L18 31L19 31L19 30L22 30L22 31L20 31L20 32L22 32L22 33L19 33L19 34L21 34L21 36L23 36L23 37L28 37L28 36L29 36L29 35L30 35L30 34L31 34L31 33L32 33L32 34L33 34L33 35L36 35L36 36L32 36L32 35L31 35L31 36L32 36L32 37L37 37L37 34L33 34L33 33L35 33L35 32L33 32L33 31L37 31L37 30L36 30L36 29L35 29L35 28L36 28L36 27L37 27L37 26L36 26L36 27L35 27L35 24L33 24L33 23L30 23L30 22L29 22L29 21L31 21L31 20L30 20L30 18L29 18L29 17L31 17L31 18L32 18L32 19L37 19L37 18L34 18L34 17L36 17L36 15L37 15L37 14L35 14L35 13L36 13L36 12L37 12L37 10L36 10L36 11L35 11L35 10L34 10L34 8L33 8L33 10L32 10L32 8L31 8L31 10L29 10L29 9L30 9L30 8L29 8L29 9L28 9L28 8L27 8L27 9L28 9L28 10L26 10L26 8L25 8L25 6L26 6L26 7L27 7L27 6L28 6L28 7L29 7L29 4L28 4L28 5L27 5L27 6L26 6L26 5L25 5L25 4L26 4L26 3L28 3L28 1L29 1L29 0L28 0L28 1L27 1L27 2L26 2L26 3L25 3L25 1L26 1L26 0L25 0L25 1L24 1L24 2L23 2L23 0L16 0L16 1L15 1L15 0L14 0L14 1L13 1L13 0L11 0L11 1L13 1L13 2L12 2L12 3L13 3L13 4L11 4L11 3L10 3L10 2L9 2L9 1L10 1L10 0ZM14 1L14 2L13 2L13 3L14 3L14 2L15 2L15 3L18 3L18 4L20 4L20 2L21 2L21 1L19 1L19 2L18 2L18 1L17 1L17 2L15 2L15 1ZM21 3L21 5L18 5L18 6L17 6L17 7L16 7L16 6L15 6L15 5L16 5L16 4L13 4L13 8L12 8L12 5L11 5L11 8L10 8L10 9L6 9L6 10L8 10L8 11L4 11L4 12L3 12L3 15L2 15L2 16L3 16L3 17L4 17L4 20L5 20L5 22L4 22L4 23L3 23L3 24L2 24L2 25L3 25L3 26L4 26L4 25L5 25L5 26L7 26L7 25L13 25L13 24L14 24L14 25L15 25L15 26L14 26L14 27L13 27L13 26L11 26L11 27L10 27L10 29L13 29L13 30L10 30L10 31L11 31L11 32L14 32L14 33L13 33L13 36L14 36L14 35L15 35L15 34L14 34L14 33L15 33L15 30L16 30L16 29L17 29L17 28L18 28L18 29L22 29L22 28L20 28L20 26L18 26L18 25L20 25L20 24L21 24L21 25L22 25L22 26L23 26L23 29L24 29L24 30L23 30L23 31L22 31L22 32L23 32L23 33L22 33L22 34L23 34L23 36L24 36L24 35L25 35L25 36L27 36L27 34L26 34L26 33L25 33L25 32L26 32L26 31L27 31L27 32L28 32L28 31L27 31L27 29L25 29L25 28L26 28L26 27L27 27L27 28L28 28L28 27L27 27L27 26L28 26L28 25L29 25L29 28L35 28L35 27L34 27L34 25L32 25L32 24L31 24L31 25L30 25L30 24L29 24L29 23L28 23L28 25L27 25L27 26L26 26L26 25L24 25L24 26L23 26L23 25L22 25L22 24L24 24L24 23L25 23L25 24L26 24L26 22L28 22L28 21L29 21L29 18L28 18L28 17L29 17L29 16L33 16L33 13L34 13L34 12L35 12L35 11L34 11L34 12L33 12L33 11L32 11L32 10L31 10L31 12L33 12L33 13L32 13L32 14L31 14L31 13L29 13L29 14L30 14L30 15L28 15L28 17L24 17L24 18L23 18L23 17L22 17L22 16L23 16L23 15L24 15L24 16L27 16L27 14L28 14L28 13L27 13L27 11L26 11L26 10L25 10L25 12L26 12L26 13L25 13L25 14L26 14L26 15L24 15L24 14L23 14L23 13L24 13L24 12L21 12L21 11L20 11L20 10L18 10L18 11L16 11L16 13L13 13L13 12L15 12L15 11L13 11L13 12L12 12L12 10L11 10L11 9L13 9L13 8L14 8L14 6L15 6L15 7L16 7L16 8L15 8L15 9L14 9L14 10L16 10L16 9L17 9L17 8L18 8L18 9L20 9L20 8L21 8L21 9L22 9L22 10L23 10L23 11L24 11L24 10L23 10L23 9L22 9L22 8L23 8L23 7L24 7L24 5L23 5L23 4L24 4L24 3L23 3L23 4L22 4L22 3ZM22 5L22 7L21 7L21 6L20 6L20 7L21 7L21 8L22 8L22 7L23 7L23 5ZM9 6L9 7L10 7L10 6ZM18 6L18 7L19 7L19 6ZM24 8L24 9L25 9L25 8ZM35 8L35 9L36 9L36 8ZM1 9L1 10L3 10L3 9ZM9 10L9 11L8 11L8 13L7 13L7 12L6 12L6 13L4 13L4 14L5 14L5 15L3 15L3 16L4 16L4 17L7 17L7 18L5 18L5 19L7 19L7 20L6 20L6 21L7 21L7 22L5 22L5 23L4 23L4 24L3 24L3 25L4 25L4 24L5 24L5 25L7 25L7 24L5 24L5 23L7 23L7 22L8 22L8 21L9 21L9 22L12 22L12 24L13 24L13 23L14 23L14 22L13 22L13 21L14 21L14 20L15 20L15 21L16 21L16 18L20 18L20 19L18 19L18 20L17 20L17 21L18 21L18 22L15 22L15 25L16 25L16 26L15 26L15 29L16 29L16 28L17 28L17 27L16 27L16 26L17 26L17 25L18 25L18 24L20 24L20 23L21 23L21 24L22 24L22 23L21 23L21 22L24 22L24 21L28 21L28 20L24 20L24 19L23 19L23 20L22 20L22 19L21 19L21 18L22 18L22 17L21 17L21 16L22 16L22 13L20 13L20 12L19 12L19 11L18 11L18 12L17 12L17 13L16 13L16 14L15 14L15 15L14 15L14 14L13 14L13 13L11 13L11 11L10 11L10 10ZM28 10L28 11L29 11L29 10ZM9 11L9 12L10 12L10 11ZM1 13L1 14L2 14L2 13ZM6 13L6 14L7 14L7 13ZM8 13L8 14L9 14L9 16L8 16L8 17L9 17L9 19L8 19L8 18L7 18L7 19L8 19L8 20L7 20L7 21L8 21L8 20L9 20L9 21L10 21L10 20L14 20L14 18L16 18L16 17L17 17L17 16L18 16L18 15L17 15L17 14L18 14L18 13L17 13L17 14L16 14L16 15L15 15L15 17L13 17L13 16L14 16L14 15L13 15L13 16L11 16L11 17L10 17L10 15L12 15L12 14L11 14L11 13L10 13L10 14L9 14L9 13ZM19 14L19 15L20 15L20 16L19 16L19 17L20 17L20 16L21 16L21 14ZM5 15L5 16L7 16L7 15ZM16 15L16 16L17 16L17 15ZM34 15L34 16L35 16L35 15ZM11 17L11 18L10 18L10 19L9 19L9 20L10 20L10 19L11 19L11 18L13 18L13 17ZM32 17L32 18L33 18L33 17ZM26 18L26 19L28 19L28 18ZM20 19L20 20L19 20L19 21L22 21L22 20L21 20L21 19ZM32 20L32 21L33 21L33 22L34 22L34 23L37 23L37 22L35 22L35 21L36 21L36 20L35 20L35 21L34 21L34 20ZM19 22L19 23L20 23L20 22ZM10 23L10 24L11 24L11 23ZM17 23L17 24L16 24L16 25L17 25L17 24L18 24L18 23ZM36 24L36 25L37 25L37 24ZM24 26L24 27L26 27L26 26ZM30 26L30 27L31 27L31 26ZM32 26L32 27L33 27L33 26ZM12 27L12 28L13 28L13 29L14 29L14 28L13 28L13 27ZM18 27L18 28L19 28L19 27ZM5 28L5 29L7 29L7 28ZM29 29L29 32L32 32L32 29ZM33 29L33 30L35 30L35 29ZM13 30L13 31L14 31L14 30ZM24 30L24 32L25 32L25 31L26 31L26 30ZM30 30L30 31L31 31L31 30ZM8 32L8 37L9 37L9 34L10 34L10 33L9 33L9 32ZM17 32L17 33L18 33L18 32ZM23 33L23 34L24 34L24 33ZM29 33L29 34L28 34L28 35L29 35L29 34L30 34L30 33ZM25 34L25 35L26 35L26 34ZM0 0L0 7L7 7L7 0ZM1 1L1 6L6 6L6 1ZM2 2L2 5L5 5L5 2ZM30 0L30 7L37 7L37 0ZM31 1L31 6L36 6L36 1ZM32 2L32 5L35 5L35 2ZM0 30L0 37L7 37L7 30ZM1 31L1 36L6 36L6 31ZM2 32L2 35L5 35L5 32Z" fill="#000000"/></g></g></svg>
