<?xml version="1.0" encoding="UTF-8"?>
<svg xmlns="http://www.w3.org/2000/svg" version="1.1" width="200" height="200" viewBox="0 0 200 200"><rect x="0" y="0" width="200" height="200" fill="#ffffff"/><g transform="scale(5.405)"><g transform="translate(0,0)"><path fill-rule="evenodd" d="M8 0L8 4L10 4L10 3L11 3L11 4L12 4L12 2L11 2L11 0ZM12 0L12 1L13 1L13 2L14 2L14 3L13 3L13 5L11 5L11 6L10 6L10 7L9 7L9 5L8 5L8 7L9 7L9 8L10 8L10 7L11 7L11 6L12 6L12 8L11 8L11 9L10 9L10 10L9 10L9 9L7 9L7 8L4 8L4 9L5 9L5 10L2 10L2 8L0 8L0 12L1 12L1 10L2 10L2 13L1 13L1 14L0 14L0 15L1 15L1 16L2 16L2 17L1 17L1 18L2 18L2 19L3 19L3 20L4 20L4 18L5 18L5 19L7 19L7 20L5 20L5 21L2 21L2 22L1 22L1 19L0 19L0 24L1 24L1 25L0 25L0 26L2 26L2 27L3 27L3 28L0 28L0 29L8 29L8 30L9 30L9 31L8 31L8 33L9 33L9 32L11 32L11 33L12 33L12 34L10 34L10 35L8 35L8 37L9 37L9 36L10 36L10 37L11 37L11 36L12 36L12 37L14 37L14 35L16 35L16 36L17 36L17 37L18 37L18 35L19 35L19 37L22 37L22 36L23 36L23 37L25 37L25 36L24 36L24 35L25 35L25 34L26 34L26 35L28 35L28 36L27 36L27 37L28 37L28 36L30 36L30 35L31 35L31 34L32 34L32 33L33 33L33 35L32 35L32 36L31 36L31 37L33 37L33 36L34 36L34 37L37 37L37 36L36 36L36 35L34 35L34 34L37 34L37 33L36 33L36 32L37 32L37 31L35 31L35 30L36 30L36 29L35 29L35 27L36 27L36 28L37 28L37 27L36 27L36 26L34 26L34 25L35 25L35 24L36 24L36 25L37 25L37 23L34 23L34 22L35 22L35 21L36 21L36 20L37 20L37 19L34 19L34 18L33 18L33 17L32 17L32 18L33 18L33 19L34 19L34 20L35 20L35 21L34 21L34 22L33 22L33 21L32 21L32 23L34 23L34 25L32 25L32 24L31 24L31 23L30 23L30 22L29 22L29 21L27 21L27 23L28 23L28 24L30 24L30 25L26 25L26 26L27 26L27 27L26 27L26 28L27 28L27 29L28 29L28 34L26 34L26 33L25 33L25 30L26 30L26 29L25 29L25 27L24 27L24 26L25 26L25 24L24 24L24 25L23 25L23 24L22 24L22 23L24 23L24 22L25 22L25 23L26 23L26 21L24 21L24 20L22 20L22 19L24 19L24 18L25 18L25 19L26 19L26 20L28 20L28 18L29 18L29 17L31 17L31 14L30 14L30 16L29 16L29 13L32 13L32 15L33 15L33 16L34 16L34 17L36 17L36 16L37 16L37 15L36 15L36 16L35 16L35 15L34 15L34 14L35 14L35 13L36 13L36 12L35 12L35 11L36 11L36 10L35 10L35 11L34 11L34 10L33 10L33 9L37 9L37 8L33 8L33 9L32 9L32 8L31 8L31 9L32 9L32 10L30 10L30 11L29 11L29 10L28 10L28 9L25 9L25 6L26 6L26 7L27 7L27 6L26 6L26 5L28 5L28 4L29 4L29 3L28 3L28 2L27 2L27 1L28 1L28 0L25 0L25 1L24 1L24 0L23 0L23 1L24 1L24 3L23 3L23 5L22 5L22 4L21 4L21 5L19 5L19 4L18 4L18 7L17 7L17 6L16 6L16 7L15 7L15 5L16 5L16 3L19 3L19 2L20 2L20 3L22 3L22 2L21 2L21 1L19 1L19 0L18 0L18 1L19 1L19 2L16 2L16 3L15 3L15 2L14 2L14 1L16 1L16 0L14 0L14 1L13 1L13 0ZM25 1L25 3L24 3L24 5L23 5L23 8L24 8L24 5L25 5L25 3L27 3L27 4L28 4L28 3L27 3L27 2L26 2L26 1ZM9 2L9 3L10 3L10 2ZM14 3L14 5L15 5L15 3ZM13 6L13 8L12 8L12 9L11 9L11 10L10 10L10 11L8 11L8 10L7 10L7 9L6 9L6 10L7 10L7 11L6 11L6 12L5 12L5 11L3 11L3 13L4 13L4 12L5 12L5 13L6 13L6 14L5 14L5 15L4 15L4 14L1 14L1 15L2 15L2 16L3 16L3 17L2 17L2 18L3 18L3 17L4 17L4 16L5 16L5 15L6 15L6 16L7 16L7 17L6 17L6 18L7 18L7 19L9 19L9 20L7 20L7 21L6 21L6 22L3 22L3 23L2 23L2 24L5 24L5 26L7 26L7 25L8 25L8 27L6 27L6 28L8 28L8 29L9 29L9 30L10 30L10 31L11 31L11 32L12 32L12 33L13 33L13 34L14 34L14 33L13 33L13 32L14 32L14 30L15 30L15 29L16 29L16 32L15 32L15 33L17 33L17 30L18 30L18 31L19 31L19 32L18 32L18 33L19 33L19 35L20 35L20 36L21 36L21 34L22 34L22 35L23 35L23 34L22 34L22 33L21 33L21 34L20 34L20 31L21 31L21 30L22 30L22 32L24 32L24 31L23 31L23 29L21 29L21 30L20 30L20 29L19 29L19 28L18 28L18 29L17 29L17 28L16 28L16 27L15 27L15 26L14 26L14 27L12 27L12 28L11 28L11 29L9 29L9 28L10 28L10 27L11 27L11 26L12 26L12 25L14 25L14 24L16 24L16 23L15 23L15 21L16 21L16 22L17 22L17 23L19 23L19 24L18 24L18 25L16 25L16 26L17 26L17 27L20 27L20 28L21 28L21 26L22 26L22 27L23 27L23 28L24 28L24 27L23 27L23 25L19 25L19 24L20 24L20 23L21 23L21 22L23 22L23 21L19 21L19 20L21 20L21 19L22 19L22 18L23 18L23 17L24 17L24 16L25 16L25 17L28 17L28 15L27 15L27 13L28 13L28 12L29 12L29 11L28 11L28 12L26 12L26 10L25 10L25 9L24 9L24 10L25 10L25 13L24 13L24 12L22 12L22 13L19 13L19 12L20 12L20 9L19 9L19 8L21 8L21 7L22 7L22 6L21 6L21 7L20 7L20 6L19 6L19 7L18 7L18 9L19 9L19 11L18 11L18 10L17 10L17 9L16 9L16 8L15 8L15 9L14 9L14 6ZM28 6L28 8L29 8L29 6ZM12 9L12 10L11 10L11 12L12 12L12 13L13 13L13 12L12 12L12 11L13 11L13 10L14 10L14 9ZM15 9L15 12L14 12L14 17L12 17L12 16L13 16L13 15L12 15L12 16L10 16L10 15L11 15L11 14L10 14L10 12L9 12L9 17L7 17L7 18L9 18L9 19L10 19L10 21L11 21L11 20L12 20L12 21L13 21L13 22L14 22L14 21L15 21L15 19L16 19L16 20L17 20L17 21L18 21L18 20L19 20L19 19L18 19L18 18L19 18L19 17L20 17L20 16L21 16L21 17L23 17L23 15L24 15L24 14L21 14L21 15L20 15L20 16L19 16L19 15L18 15L18 14L19 14L19 13L18 13L18 11L17 11L17 10L16 10L16 9ZM21 9L21 10L22 10L22 11L23 11L23 10L22 10L22 9ZM32 10L32 13L33 13L33 14L34 14L34 13L33 13L33 10ZM7 11L7 12L6 12L6 13L8 13L8 11ZM15 12L15 13L16 13L16 14L18 14L18 13L16 13L16 12ZM25 13L25 15L26 15L26 16L27 16L27 15L26 15L26 13ZM6 14L6 15L7 15L7 14ZM15 15L15 17L14 17L14 18L13 18L13 19L12 19L12 20L13 20L13 21L14 21L14 19L15 19L15 17L16 17L16 18L17 18L17 17L16 17L16 15ZM18 16L18 17L19 17L19 16ZM10 17L10 19L11 19L11 18L12 18L12 17ZM20 18L20 19L21 19L21 18ZM26 18L26 19L27 19L27 18ZM30 18L30 19L31 19L31 18ZM30 20L30 21L31 21L31 20ZM7 21L7 22L6 22L6 23L5 23L5 24L6 24L6 25L7 25L7 24L9 24L9 23L11 23L11 22L9 22L9 21ZM6 23L6 24L7 24L7 23ZM12 23L12 24L10 24L10 26L11 26L11 25L12 25L12 24L13 24L13 23ZM30 25L30 26L31 26L31 27L33 27L33 33L34 33L34 30L35 30L35 29L34 29L34 26L31 26L31 25ZM28 26L28 27L27 27L27 28L29 28L29 26ZM4 27L4 28L5 28L5 27ZM8 27L8 28L9 28L9 27ZM12 28L12 29L13 29L13 28ZM18 29L18 30L19 30L19 29ZM24 29L24 30L25 30L25 29ZM29 29L29 32L32 32L32 29ZM30 30L30 31L31 31L31 30ZM12 31L12 32L13 32L13 31ZM24 33L24 34L25 34L25 33ZM29 33L29 34L30 34L30 33ZM16 34L16 35L18 35L18 34ZM12 35L12 36L13 36L13 35ZM0 0L0 7L7 7L7 0ZM1 1L1 6L6 6L6 1ZM2 2L2 5L5 5L5 2ZM30 0L30 7L37 7L37 0ZM31 1L31 6L36 6L36 1ZM32 2L32 5L35 5L35 2ZM0 30L0 37L7 37L7 30ZM1 31L1 36L6 36L6 31ZM2 32L2 35L5 35L5 32Z" fill="#000000"/></g></g></svg>
