<?xml version="1.0" encoding="UTF-8"?>
<svg xmlns="http://www.w3.org/2000/svg" version="1.1" width="200" height="200" viewBox="0 0 200 200"><rect x="0" y="0" width="200" height="200" fill="#ffffff"/><g transform="scale(5.405)"><g transform="translate(0,0)"><path fill-rule="evenodd" d="M10 0L10 2L11 2L11 0ZM12 0L12 1L13 1L13 2L12 2L12 4L14 4L14 5L15 5L15 6L14 6L14 7L15 7L15 6L16 6L16 7L17 7L17 6L16 6L16 5L15 5L15 4L16 4L16 3L15 3L15 4L14 4L14 3L13 3L13 2L14 2L14 1L15 1L15 2L16 2L16 1L15 1L15 0L14 0L14 1L13 1L13 0ZM19 0L19 1L20 1L20 2L21 2L21 3L22 3L22 4L18 4L18 3L19 3L19 2L18 2L18 3L17 3L17 4L18 4L18 5L21 5L21 6L20 6L20 8L22 8L22 9L23 9L23 10L21 10L21 9L19 9L19 8L16 8L16 9L18 9L18 12L17 12L17 13L18 13L18 14L20 14L20 13L18 13L18 12L20 12L20 11L19 11L19 10L21 10L21 12L22 12L22 13L23 13L23 14L24 14L24 13L26 13L26 14L25 14L25 15L26 15L26 14L27 14L27 15L28 15L28 14L27 14L27 12L29 12L29 13L31 13L31 15L30 15L30 14L29 14L29 16L30 16L30 17L31 17L31 18L30 18L30 19L31 19L31 18L32 18L32 19L37 19L37 18L34 18L34 17L36 17L36 15L37 15L37 14L35 14L35 13L36 13L36 12L37 12L37 10L36 10L36 11L35 11L35 10L34 10L34 8L33 8L33 10L32 10L32 8L31 8L31 10L32 10L32 11L31 11L31 12L30 12L30 10L29 10L29 11L28 11L28 10L27 10L27 11L26 11L26 10L25 10L25 9L28 9L28 8L27 8L27 6L28 6L28 7L29 7L29 6L28 6L28 5L29 5L29 4L28 4L28 3L29 3L29 2L28 2L28 1L29 1L29 0L28 0L28 1L26 1L26 3L25 3L25 1L24 1L24 0ZM8 1L8 2L9 2L9 1ZM21 1L21 2L22 2L22 3L23 3L23 4L22 4L22 5L23 5L23 9L24 9L24 5L26 5L26 6L25 6L25 8L26 8L26 6L27 6L27 5L28 5L28 4L27 4L27 5L26 5L26 4L25 4L25 3L24 3L24 1ZM8 3L8 4L9 4L9 5L8 5L8 7L9 7L9 8L6 8L6 9L5 9L5 8L0 8L0 11L1 11L1 10L2 10L2 12L3 12L3 13L1 13L1 12L0 12L0 16L1 16L1 17L0 17L0 18L3 18L3 19L4 19L4 20L5 20L5 19L9 19L9 20L11 20L11 17L12 17L12 18L14 18L14 20L13 20L13 19L12 19L12 21L14 21L14 22L15 22L15 23L14 23L14 24L12 24L12 23L13 23L13 22L9 22L9 21L7 21L7 20L6 20L6 21L4 21L4 23L1 23L1 22L2 22L2 21L0 21L0 23L1 23L1 24L4 24L4 25L5 25L5 23L7 23L7 22L9 22L9 24L8 24L8 25L7 25L7 24L6 24L6 25L7 25L7 26L3 26L3 25L0 25L0 29L1 29L1 26L2 26L2 27L4 27L4 28L3 28L3 29L4 29L4 28L5 28L5 29L7 29L7 28L5 28L5 27L10 27L10 28L11 28L11 29L9 29L9 28L8 28L8 31L9 31L9 32L8 32L8 37L9 37L9 36L10 36L10 37L11 37L11 35L10 35L10 31L9 31L9 30L12 30L12 31L11 31L11 32L12 32L12 33L11 33L11 34L12 34L12 36L13 36L13 37L14 37L14 36L15 36L15 37L18 37L18 36L15 36L15 35L17 35L17 34L18 34L18 35L19 35L19 36L22 36L22 37L27 37L27 36L29 36L29 37L30 37L30 36L29 36L29 34L30 34L30 35L31 35L31 33L32 33L32 34L33 34L33 36L31 36L31 37L37 37L37 34L34 34L34 33L35 33L35 32L34 32L34 31L33 31L33 29L35 29L35 31L37 31L37 30L36 30L36 29L35 29L35 28L36 28L36 27L37 27L37 26L36 26L36 27L35 27L35 26L34 26L34 25L35 25L35 24L30 24L30 25L31 25L31 26L30 26L30 27L31 27L31 26L32 26L32 27L35 27L35 28L29 28L29 27L28 27L28 26L29 26L29 25L28 25L28 24L29 24L29 23L28 23L28 22L30 22L30 21L31 21L31 22L32 22L32 21L33 21L33 22L34 22L34 20L30 20L30 21L28 21L28 22L27 22L27 20L28 20L28 19L29 19L29 18L27 18L27 19L26 19L26 20L23 20L23 18L24 18L24 17L25 17L25 18L26 18L26 17L28 17L28 16L24 16L24 15L22 15L22 14L21 14L21 15L20 15L20 16L19 16L19 15L18 15L18 16L17 16L17 14L15 14L15 13L16 13L16 12L15 12L15 13L14 13L14 12L13 12L13 11L12 11L12 13L14 13L14 14L15 14L15 15L14 15L14 16L13 16L13 17L12 17L12 15L13 15L13 14L11 14L11 13L10 13L10 12L9 12L9 11L11 11L11 9L12 9L12 10L13 10L13 9L14 9L14 10L15 10L15 11L16 11L16 10L15 10L15 9L14 9L14 8L13 8L13 9L12 9L12 7L13 7L13 5L11 5L11 6L10 6L10 4L11 4L11 3ZM23 4L23 5L24 5L24 4ZM9 6L9 7L10 7L10 6ZM11 6L11 7L12 7L12 6ZM18 6L18 7L19 7L19 6ZM21 6L21 7L22 7L22 6ZM10 8L10 9L6 9L6 10L7 10L7 11L6 11L6 12L8 12L8 13L5 13L5 15L4 15L4 14L2 14L2 15L1 15L1 16L2 16L2 15L3 15L3 18L7 18L7 17L6 17L6 16L8 16L8 17L9 17L9 19L10 19L10 15L11 15L11 14L10 14L10 13L9 13L9 12L8 12L8 10L10 10L10 9L11 9L11 8ZM29 8L29 9L30 9L30 8ZM35 8L35 9L36 9L36 8ZM2 9L2 10L3 10L3 11L4 11L4 12L5 12L5 10L3 10L3 9ZM23 10L23 11L24 11L24 12L26 12L26 11L24 11L24 10ZM34 11L34 12L33 12L33 13L32 13L32 12L31 12L31 13L32 13L32 16L31 16L31 17L32 17L32 18L33 18L33 17L32 17L32 16L33 16L33 13L34 13L34 12L35 12L35 11ZM6 14L6 15L7 15L7 14ZM9 14L9 15L10 15L10 14ZM34 15L34 16L35 16L35 15ZM4 16L4 17L5 17L5 16ZM14 16L14 18L16 18L16 17L17 17L17 19L15 19L15 20L14 20L14 21L15 21L15 22L16 22L16 23L15 23L15 24L14 24L14 25L13 25L13 26L12 26L12 25L10 25L10 27L11 27L11 28L12 28L12 30L13 30L13 32L14 32L14 33L13 33L13 36L14 36L14 35L15 35L15 34L16 34L16 33L15 33L15 32L18 32L18 33L21 33L21 34L19 34L19 35L22 35L22 36L23 36L23 35L24 35L24 36L26 36L26 35L24 35L24 34L23 34L23 33L24 33L24 32L23 32L23 33L22 33L22 32L21 32L21 31L20 31L20 30L19 30L19 31L18 31L18 29L19 29L19 28L18 28L18 27L21 27L21 26L18 26L18 27L16 27L16 29L15 29L15 26L16 26L16 25L17 25L17 24L18 24L18 25L20 25L20 23L22 23L22 24L21 24L21 25L22 25L22 28L20 28L20 29L22 29L22 30L23 30L23 31L24 31L24 30L23 30L23 29L22 29L22 28L23 28L23 27L24 27L24 26L23 26L23 25L24 25L24 24L23 24L23 23L24 23L24 22L25 22L25 24L28 24L28 23L27 23L27 22L26 22L26 21L23 21L23 22L21 22L21 21L22 21L22 20L21 20L21 17L22 17L22 18L23 18L23 17L22 17L22 16L20 16L20 18L18 18L18 17L19 17L19 16L18 16L18 17L17 17L17 16L16 16L16 17L15 17L15 16ZM0 19L0 20L1 20L1 19ZM19 19L19 20L17 20L17 21L16 21L16 20L15 20L15 21L16 21L16 22L17 22L17 21L18 21L18 24L19 24L19 22L20 22L20 21L19 21L19 20L20 20L20 19ZM35 20L35 21L36 21L36 20ZM6 21L6 22L7 22L7 21ZM35 22L35 23L37 23L37 22ZM16 23L16 24L17 24L17 23ZM36 24L36 25L37 25L37 24ZM14 25L14 26L15 26L15 25ZM25 25L25 28L24 28L24 29L25 29L25 28L28 28L28 27L26 27L26 25ZM27 25L27 26L28 26L28 25ZM32 25L32 26L33 26L33 25ZM13 28L13 30L14 30L14 32L15 32L15 31L17 31L17 29L18 29L18 28L17 28L17 29L16 29L16 30L14 30L14 28ZM26 29L26 30L25 30L25 32L26 32L26 31L27 31L27 32L28 32L28 30L27 30L27 29ZM29 29L29 32L32 32L32 29ZM30 30L30 31L31 31L31 30ZM36 32L36 33L37 33L37 32ZM14 33L14 34L15 34L15 33ZM26 33L26 34L27 34L27 35L28 35L28 33ZM22 34L22 35L23 35L23 34ZM34 35L34 36L36 36L36 35ZM0 0L0 7L7 7L7 0ZM1 1L1 6L6 6L6 1ZM2 2L2 5L5 5L5 2ZM30 0L30 7L37 7L37 0ZM31 1L31 6L36 6L36 1ZM32 2L32 5L35 5L35 2ZM0 30L0 37L7 37L7 30ZM1 31L1 36L6 36L6 31ZM2 32L2 35L5 35L5 32Z" fill="#000000"/></g></g></svg>
