<?xml version="1.0" encoding="UTF-8"?>
<svg xmlns="http://www.w3.org/2000/svg" version="1.1" width="200" height="200" viewBox="0 0 200 200"><rect x="0" y="0" width="200" height="200" fill="#ffffff"/><g transform="scale(5.405)"><g transform="translate(0,0)"><path fill-rule="evenodd" d="M10 0L10 1L8 1L8 2L9 2L9 3L8 3L8 4L10 4L10 3L12 3L12 4L11 4L11 5L10 5L10 7L11 7L11 5L12 5L12 8L6 8L6 9L5 9L5 8L0 8L0 13L1 13L1 15L2 15L2 16L1 16L1 17L0 17L0 20L1 20L1 17L2 17L2 18L3 18L3 21L1 21L1 23L0 23L0 29L1 29L1 26L2 26L2 27L3 27L3 28L2 28L2 29L4 29L4 27L5 27L5 29L7 29L7 28L8 28L8 31L9 31L9 32L8 32L8 37L9 37L9 36L10 36L10 37L12 37L12 36L13 36L13 37L14 37L14 36L15 36L15 37L16 37L16 34L17 34L17 33L18 33L18 34L21 34L21 35L19 35L19 36L17 36L17 37L20 37L20 36L22 36L22 37L23 37L23 34L24 34L24 35L25 35L25 34L24 34L24 33L26 33L26 34L27 34L27 35L28 35L28 36L25 36L25 37L28 37L28 36L29 36L29 33L30 33L30 34L31 34L31 35L30 35L30 36L31 36L31 35L32 35L32 37L37 37L37 34L35 34L35 35L36 35L36 36L33 36L33 35L34 35L34 34L33 34L33 33L35 33L35 32L37 32L37 30L36 30L36 29L35 29L35 28L36 28L36 27L37 27L37 26L36 26L36 27L35 27L35 24L32 24L32 25L34 25L34 27L35 27L35 28L34 28L34 29L35 29L35 32L33 32L33 26L31 26L31 27L30 27L30 26L29 26L29 25L31 25L31 24L30 24L30 22L29 22L29 21L31 21L31 20L32 20L32 21L33 21L33 22L32 22L32 23L33 23L33 22L34 22L34 23L37 23L37 22L35 22L35 21L36 21L36 20L33 20L33 19L37 19L37 18L34 18L34 17L36 17L36 15L37 15L37 14L35 14L35 13L36 13L36 12L37 12L37 10L36 10L36 11L35 11L35 10L34 10L34 8L33 8L33 12L29 12L29 11L28 11L28 10L30 10L30 11L31 11L31 10L32 10L32 8L31 8L31 10L30 10L30 8L29 8L29 5L27 5L27 6L26 6L26 5L24 5L24 4L26 4L26 3L25 3L25 2L24 2L24 3L23 3L23 2L22 2L22 0L16 0L16 1L15 1L15 2L14 2L14 3L13 3L13 1L12 1L12 0ZM23 0L23 1L24 1L24 0ZM25 0L25 1L26 1L26 2L28 2L28 1L26 1L26 0ZM11 1L11 2L12 2L12 1ZM18 1L18 2L15 2L15 3L18 3L18 4L17 4L17 7L16 7L16 6L15 6L15 7L14 7L14 6L13 6L13 8L12 8L12 9L13 9L13 10L14 10L14 11L13 11L13 12L12 12L12 10L11 10L11 9L10 9L10 10L7 10L7 9L6 9L6 10L5 10L5 9L4 9L4 11L3 11L3 9L1 9L1 10L2 10L2 11L1 11L1 13L3 13L3 14L2 14L2 15L3 15L3 17L4 17L4 14L5 14L5 16L7 16L7 17L6 17L6 18L4 18L4 19L5 19L5 20L4 20L4 21L5 21L5 22L4 22L4 23L3 23L3 22L2 22L2 23L3 23L3 27L4 27L4 26L5 26L5 24L4 24L4 23L6 23L6 24L7 24L7 25L6 25L6 26L7 26L7 27L6 27L6 28L7 28L7 27L8 27L8 26L7 26L7 25L10 25L10 26L9 26L9 31L10 31L10 29L11 29L11 28L14 28L14 29L13 29L13 32L12 32L12 30L11 30L11 32L10 32L10 33L9 33L9 34L10 34L10 36L12 36L12 35L13 35L13 36L14 36L14 35L15 35L15 34L16 34L16 33L17 33L17 32L18 32L18 33L22 33L22 32L24 32L24 31L25 31L25 32L26 32L26 31L28 31L28 30L27 30L27 29L26 29L26 30L25 30L25 29L24 29L24 30L23 30L23 27L24 27L24 28L29 28L29 26L28 26L28 25L29 25L29 24L28 24L28 23L29 23L29 22L28 22L28 21L29 21L29 20L31 20L31 19L33 19L33 17L32 17L32 16L33 16L33 15L32 15L32 14L33 14L33 13L34 13L34 12L35 12L35 11L34 11L34 12L33 12L33 13L32 13L32 14L31 14L31 13L29 13L29 12L28 12L28 13L25 13L25 16L24 16L24 17L25 17L25 18L26 18L26 19L25 19L25 20L26 20L26 19L27 19L27 18L28 18L28 17L29 17L29 18L30 18L30 19L28 19L28 20L27 20L27 21L25 21L25 22L26 22L26 23L24 23L24 22L18 22L18 21L22 21L22 20L20 20L20 18L19 18L19 20L18 20L18 19L17 19L17 18L18 18L18 17L17 17L17 16L18 16L18 15L20 15L20 16L19 16L19 17L20 17L20 16L21 16L21 17L22 17L22 18L23 18L23 19L24 19L24 18L23 18L23 17L22 17L22 16L23 16L23 15L24 15L24 14L23 14L23 13L24 13L24 12L21 12L21 11L20 11L20 10L19 10L19 11L20 11L20 12L19 12L19 13L20 13L20 12L21 12L21 13L22 13L22 16L21 16L21 14L17 14L17 15L16 15L16 17L15 17L15 16L14 16L14 14L16 14L16 13L17 13L17 12L18 12L18 11L16 11L16 12L15 12L15 13L13 13L13 12L14 12L14 11L15 11L15 10L16 10L16 9L13 9L13 8L19 8L19 7L20 7L20 5L18 5L18 4L19 4L19 3L18 3L18 2L21 2L21 1ZM20 3L20 4L22 4L22 5L23 5L23 7L22 7L22 6L21 6L21 7L22 7L22 8L20 8L20 9L22 9L22 10L23 10L23 11L24 11L24 10L25 10L25 12L27 12L27 11L26 11L26 10L28 10L28 9L29 9L29 8L28 8L28 9L24 9L24 8L27 8L27 7L28 7L28 6L27 6L27 7L26 7L26 6L25 6L25 7L24 7L24 5L23 5L23 4L22 4L22 3ZM27 3L27 4L28 4L28 3ZM14 4L14 5L16 5L16 4ZM8 5L8 7L9 7L9 5ZM18 6L18 7L19 7L19 6ZM23 7L23 8L22 8L22 9L23 9L23 10L24 10L24 9L23 9L23 8L24 8L24 7ZM35 8L35 9L36 9L36 8ZM17 9L17 10L18 10L18 9ZM6 10L6 11L7 11L7 12L6 12L6 13L7 13L7 14L6 14L6 15L7 15L7 14L8 14L8 12L9 12L9 16L8 16L8 17L7 17L7 18L6 18L6 19L7 19L7 20L5 20L5 21L7 21L7 20L10 20L10 21L9 21L9 22L6 22L6 23L7 23L7 24L8 24L8 23L9 23L9 22L10 22L10 21L11 21L11 22L12 22L12 24L13 24L13 25L11 25L11 26L10 26L10 28L11 28L11 26L13 26L13 27L14 27L14 26L13 26L13 25L14 25L14 24L13 24L13 23L14 23L14 22L15 22L15 25L16 25L16 22L17 22L17 21L18 21L18 20L17 20L17 19L16 19L16 18L17 18L17 17L16 17L16 18L15 18L15 19L16 19L16 20L17 20L17 21L16 21L16 22L15 22L15 21L14 21L14 20L13 20L13 19L14 19L14 18L13 18L13 17L14 17L14 16L11 16L11 18L13 18L13 19L12 19L12 20L13 20L13 21L11 21L11 20L10 20L10 19L8 19L8 18L9 18L9 17L10 17L10 15L11 15L11 14L13 14L13 13L11 13L11 12L10 12L10 11L11 11L11 10L10 10L10 11L7 11L7 10ZM2 11L2 12L3 12L3 11ZM4 12L4 13L5 13L5 12ZM28 13L28 14L26 14L26 16L25 16L25 17L26 17L26 18L27 18L27 17L28 17L28 15L29 15L29 17L31 17L31 14L29 14L29 13ZM34 15L34 16L35 16L35 15ZM23 20L23 21L24 21L24 20ZM27 22L27 23L26 23L26 24L24 24L24 23L21 23L21 24L20 24L20 25L18 25L18 24L19 24L19 23L18 23L18 24L17 24L17 25L18 25L18 27L19 27L19 26L21 26L21 28L22 28L22 27L23 27L23 26L24 26L24 25L26 25L26 26L25 26L25 27L26 27L26 26L27 26L27 27L28 27L28 26L27 26L27 25L28 25L28 24L27 24L27 23L28 23L28 22ZM10 23L10 24L11 24L11 23ZM1 24L1 25L2 25L2 24ZM21 24L21 25L22 25L22 24ZM36 24L36 25L37 25L37 24ZM15 26L15 29L14 29L14 30L15 30L15 31L14 31L14 32L13 32L13 33L10 33L10 34L15 34L15 33L16 33L16 32L17 32L17 31L16 31L16 30L17 30L17 29L18 29L18 28L17 28L17 26ZM16 28L16 29L15 29L15 30L16 30L16 29L17 29L17 28ZM19 29L19 30L20 30L20 32L22 32L22 29L21 29L21 30L20 30L20 29ZM29 29L29 32L32 32L32 29ZM30 30L30 31L31 31L31 30ZM18 31L18 32L19 32L19 31ZM14 32L14 33L15 33L15 32ZM31 33L31 34L32 34L32 35L33 35L33 34L32 34L32 33ZM0 0L0 7L7 7L7 0ZM1 1L1 6L6 6L6 1ZM2 2L2 5L5 5L5 2ZM30 0L30 7L37 7L37 0ZM31 1L31 6L36 6L36 1ZM32 2L32 5L35 5L35 2ZM0 30L0 37L7 37L7 30ZM1 31L1 36L6 36L6 31ZM2 32L2 35L5 35L5 32Z" fill="#000000"/></g></g></svg>
