<?xml version="1.0" encoding="UTF-8"?>
<svg xmlns="http://www.w3.org/2000/svg" version="1.1" width="200" height="200" viewBox="0 0 200 200"><rect x="0" y="0" width="200" height="200" fill="#ffffff"/><g transform="scale(5.405)"><g transform="translate(0,0)"><path fill-rule="evenodd" d="M9 0L9 3L8 3L8 5L9 5L9 4L10 4L10 8L9 8L9 10L6 10L6 11L7 11L7 12L6 12L6 13L7 13L7 14L4 14L4 13L5 13L5 11L4 11L4 10L5 10L5 9L8 9L8 8L5 8L5 9L4 9L4 10L2 10L2 8L0 8L0 14L1 14L1 16L0 16L0 18L1 18L1 19L0 19L0 21L1 21L1 22L0 22L0 23L1 23L1 24L0 24L0 29L1 29L1 24L2 24L2 27L4 27L4 28L2 28L2 29L4 29L4 28L5 28L5 26L6 26L6 27L7 27L7 28L6 28L6 29L7 29L7 28L9 28L9 29L8 29L8 32L9 32L9 35L8 35L8 37L9 37L9 36L10 36L10 35L11 35L11 34L13 34L13 33L14 33L14 32L13 32L13 31L12 31L12 30L13 30L13 29L14 29L14 28L15 28L15 30L14 30L14 31L20 31L20 33L19 33L19 34L20 34L20 33L21 33L21 30L20 30L20 29L18 29L18 28L19 28L19 27L18 27L18 28L17 28L17 29L16 29L16 28L15 28L15 27L16 27L16 26L17 26L17 23L18 23L18 24L19 24L19 25L18 25L18 26L22 26L22 29L23 29L23 32L22 32L22 34L21 34L21 35L18 35L18 36L20 36L20 37L21 37L21 35L22 35L22 36L23 36L23 37L25 37L25 35L26 35L26 36L27 36L27 35L26 35L26 34L25 34L25 35L22 35L22 34L24 34L24 33L23 33L23 32L25 32L25 33L29 33L29 34L28 34L28 37L29 37L29 36L30 36L30 37L34 37L34 35L36 35L36 37L37 37L37 34L35 34L35 32L34 32L34 31L35 31L35 30L36 30L36 31L37 31L37 30L36 30L36 29L35 29L35 28L36 28L36 27L37 27L37 26L36 26L36 27L35 27L35 25L37 25L37 24L35 24L35 25L34 25L34 23L37 23L37 22L34 22L34 23L33 23L33 26L34 26L34 27L33 27L33 28L32 28L32 27L31 27L31 26L32 26L32 22L33 22L33 21L34 21L34 18L33 18L33 19L32 19L32 17L36 17L36 15L37 15L37 14L35 14L35 13L34 13L34 14L32 14L32 13L31 13L31 12L32 12L32 10L33 10L33 11L35 11L35 12L37 12L37 10L36 10L36 11L35 11L35 9L34 9L34 8L32 8L32 10L30 10L30 11L31 11L31 12L28 12L28 10L27 10L27 8L28 8L28 7L29 7L29 1L28 1L28 3L27 3L27 4L28 4L28 7L27 7L27 5L25 5L25 4L26 4L26 3L25 3L25 2L27 2L27 0L24 0L24 2L23 2L23 3L22 3L22 1L20 1L20 3L19 3L19 4L18 4L18 3L17 3L17 4L16 4L16 7L17 7L17 6L18 6L18 8L17 8L17 9L18 9L18 8L19 8L19 6L18 6L18 5L20 5L20 8L21 8L21 6L22 6L22 7L23 7L23 8L22 8L22 9L23 9L23 10L21 10L21 11L20 11L20 13L19 13L19 11L18 11L18 14L17 14L17 12L15 12L15 16L13 16L13 17L9 17L9 16L6 16L6 15L7 15L7 14L8 14L8 13L9 13L9 10L13 10L13 11L17 11L17 10L16 10L16 9L15 9L15 6L14 6L14 8L13 8L13 4L14 4L14 3L15 3L15 2L14 2L14 0L12 0L12 1L13 1L13 2L14 2L14 3L13 3L13 4L10 4L10 1L11 1L11 0ZM17 0L17 1L16 1L16 2L17 2L17 1L19 1L19 0ZM23 3L23 4L22 4L22 6L23 6L23 7L24 7L24 8L27 8L27 7L26 7L26 6L25 6L25 7L24 7L24 5L23 5L23 4L24 4L24 3ZM11 5L11 8L10 8L10 9L13 9L13 8L12 8L12 5ZM8 6L8 7L9 7L9 6ZM19 9L19 10L20 10L20 9ZM24 9L24 10L23 10L23 11L24 11L24 12L22 12L22 11L21 11L21 13L22 13L22 14L21 14L21 16L20 16L20 14L19 14L19 17L21 17L21 18L20 18L20 19L21 19L21 20L19 20L19 21L20 21L20 22L19 22L19 24L20 24L20 22L22 22L22 20L23 20L23 21L24 21L24 22L23 22L23 24L22 24L22 23L21 23L21 25L22 25L22 26L23 26L23 28L24 28L24 27L25 27L25 28L26 28L26 26L27 26L27 25L28 25L28 23L27 23L27 22L26 22L26 21L27 21L27 17L28 17L28 18L31 18L31 17L32 17L32 16L34 16L34 15L32 15L32 16L31 16L31 17L30 17L30 15L31 15L31 13L28 13L28 15L29 15L29 17L28 17L28 16L26 16L26 15L27 15L27 13L26 13L26 11L27 11L27 10L25 10L25 9ZM33 9L33 10L34 10L34 9ZM1 10L1 11L2 11L2 10ZM10 11L10 12L11 12L11 11ZM2 12L2 13L1 13L1 14L3 14L3 17L4 17L4 14L3 14L3 12ZM12 12L12 13L10 13L10 14L13 14L13 15L14 15L14 14L13 14L13 12ZM24 12L24 13L23 13L23 14L22 14L22 16L23 16L23 18L21 18L21 19L26 19L26 16L25 16L25 15L26 15L26 14L25 14L25 15L24 15L24 16L23 16L23 14L24 14L24 13L25 13L25 12ZM16 14L16 16L15 16L15 17L13 17L13 18L14 18L14 19L13 19L13 20L12 20L12 19L11 19L11 18L10 18L10 19L9 19L9 17L6 17L6 16L5 16L5 18L2 18L2 17L1 17L1 18L2 18L2 19L1 19L1 20L2 20L2 21L3 21L3 20L2 20L2 19L5 19L5 22L4 22L4 23L5 23L5 22L7 22L7 23L6 23L6 24L5 24L5 25L6 25L6 26L7 26L7 27L9 27L9 26L7 26L7 25L10 25L10 27L11 27L11 28L12 28L12 29L13 29L13 28L14 28L14 27L15 27L15 26L14 26L14 27L13 27L13 26L11 26L11 25L12 25L12 24L13 24L13 25L14 25L14 24L16 24L16 23L15 23L15 22L14 22L14 21L15 21L15 20L16 20L16 21L17 21L17 22L18 22L18 21L17 21L17 20L18 20L18 19L19 19L19 18L18 18L18 19L15 19L15 17L17 17L17 16L18 16L18 15L17 15L17 14ZM29 14L29 15L30 15L30 14ZM10 15L10 16L11 16L11 15ZM24 17L24 18L25 18L25 17ZM5 18L5 19L7 19L7 18ZM36 18L36 19L37 19L37 18ZM8 19L8 20L6 20L6 21L7 21L7 22L8 22L8 21L9 21L9 22L10 22L10 23L11 23L11 22L13 22L13 23L14 23L14 22L13 22L13 21L14 21L14 20L15 20L15 19L14 19L14 20L13 20L13 21L9 21L9 19ZM10 19L10 20L11 20L11 19ZM28 19L28 21L29 21L29 20L31 20L31 21L30 21L30 22L29 22L29 25L30 25L30 26L29 26L29 27L28 27L28 28L27 28L27 29L24 29L24 30L26 30L26 31L25 31L25 32L26 32L26 31L28 31L28 28L31 28L31 27L30 27L30 26L31 26L31 25L30 25L30 22L31 22L31 21L32 21L32 20L31 20L31 19ZM25 20L25 21L26 21L26 20ZM35 20L35 21L36 21L36 20ZM24 22L24 24L23 24L23 26L24 26L24 24L25 24L25 23L26 23L26 22ZM7 23L7 24L6 24L6 25L7 25L7 24L8 24L8 23ZM3 24L3 25L4 25L4 24ZM12 27L12 28L13 28L13 27ZM20 27L20 28L21 28L21 27ZM33 28L33 29L34 29L34 30L33 30L33 31L34 31L34 30L35 30L35 29L34 29L34 28ZM9 29L9 30L11 30L11 29ZM17 29L17 30L18 30L18 29ZM29 29L29 32L32 32L32 29ZM30 30L30 31L31 31L31 30ZM9 31L9 32L10 32L10 33L11 33L11 32L12 32L12 33L13 33L13 32L12 32L12 31L11 31L11 32L10 32L10 31ZM15 32L15 35L14 35L14 37L17 37L17 33L18 33L18 32L17 32L17 33L16 33L16 32ZM31 33L31 34L29 34L29 35L31 35L31 36L32 36L32 35L34 35L34 34L33 34L33 33ZM31 34L31 35L32 35L32 34ZM12 35L12 36L13 36L13 35ZM15 35L15 36L16 36L16 35ZM0 0L0 7L7 7L7 0ZM1 1L1 6L6 6L6 1ZM2 2L2 5L5 5L5 2ZM30 0L30 7L37 7L37 0ZM31 1L31 6L36 6L36 1ZM32 2L32 5L35 5L35 2ZM0 30L0 37L7 37L7 30ZM1 31L1 36L6 36L6 31ZM2 32L2 35L5 35L5 32Z" fill="#000000"/></g></g></svg>
