<?xml version="1.0" encoding="UTF-8"?>
<svg xmlns="http://www.w3.org/2000/svg" version="1.1" width="200" height="200" viewBox="0 0 200 200"><rect x="0" y="0" width="200" height="200" fill="#ffffff"/><g transform="scale(5.405)"><g transform="translate(0,0)"><path fill-rule="evenodd" d="M8 0L8 1L9 1L9 2L10 2L10 3L11 3L11 1L13 1L13 2L12 2L12 4L11 4L11 5L10 5L10 4L9 4L9 5L10 5L10 8L9 8L9 6L8 6L8 8L9 8L9 11L7 11L7 10L6 10L6 11L7 11L7 12L6 12L6 13L4 13L4 12L3 12L3 10L4 10L4 11L5 11L5 10L4 10L4 9L5 9L5 8L3 8L3 10L2 10L2 12L3 12L3 13L2 13L2 14L1 14L1 15L0 15L0 17L1 17L1 18L3 18L3 17L7 17L7 18L5 18L5 19L3 19L3 20L1 20L1 19L0 19L0 21L4 21L4 22L3 22L3 24L1 24L1 23L0 23L0 24L1 24L1 25L0 25L0 29L1 29L1 27L2 27L2 29L3 29L3 28L5 28L5 29L7 29L7 28L9 28L9 27L10 27L10 29L8 29L8 30L10 30L10 31L9 31L9 32L8 32L8 34L9 34L9 32L10 32L10 33L11 33L11 34L10 34L10 35L8 35L8 37L9 37L9 36L11 36L11 37L12 37L12 36L13 36L13 34L15 34L15 35L14 35L14 37L17 37L17 36L18 36L18 37L21 37L21 35L23 35L23 37L24 37L24 35L25 35L25 34L24 34L24 33L25 33L25 32L26 32L26 33L29 33L29 35L30 35L30 34L31 34L31 36L30 36L30 37L31 37L31 36L33 36L33 37L34 37L34 36L36 36L36 37L37 37L37 34L36 34L36 35L35 35L35 33L37 33L37 32L35 32L35 33L34 33L34 31L35 31L35 29L36 29L36 27L37 27L37 26L36 26L36 27L35 27L35 26L34 26L34 24L35 24L35 25L37 25L37 24L36 24L36 23L37 23L37 22L36 22L36 23L33 23L33 21L34 21L34 22L35 22L35 21L36 21L36 20L34 20L34 18L36 18L36 19L37 19L37 18L36 18L36 17L35 17L35 16L36 16L36 15L37 15L37 14L35 14L35 13L34 13L34 14L33 14L33 13L32 13L32 12L31 12L31 10L33 10L33 11L34 11L34 12L35 12L35 11L36 11L36 12L37 12L37 10L35 10L35 9L34 9L34 10L33 10L33 9L31 9L31 8L30 8L30 9L29 9L29 6L28 6L28 8L27 8L27 6L26 6L26 5L27 5L27 3L26 3L26 1L27 1L27 0L26 0L26 1L25 1L25 3L24 3L24 2L23 2L23 0L22 0L22 1L21 1L21 0L20 0L20 1L19 1L19 0L18 0L18 1L19 1L19 2L18 2L18 3L17 3L17 1L16 1L16 7L15 7L15 6L14 6L14 5L15 5L15 2L14 2L14 1L15 1L15 0L11 0L11 1L9 1L9 0ZM28 0L28 1L29 1L29 0ZM19 2L19 4L20 4L20 3L21 3L21 2ZM28 2L28 4L29 4L29 2ZM12 4L12 5L11 5L11 7L12 7L12 8L13 8L13 9L14 9L14 10L15 10L15 9L16 9L16 10L18 10L18 11L20 11L20 10L22 10L22 9L23 9L23 10L25 10L25 13L27 13L27 10L26 10L26 8L25 8L25 7L26 7L26 6L25 6L25 5L26 5L26 4L22 4L22 5L19 5L19 7L20 7L20 8L21 8L21 9L20 9L20 10L18 10L18 9L19 9L19 8L18 8L18 5L17 5L17 8L18 8L18 9L16 9L16 8L13 8L13 7L14 7L14 6L13 6L13 7L12 7L12 5L14 5L14 4ZM22 5L22 7L23 7L23 6L24 6L24 7L25 7L25 6L24 6L24 5ZM20 6L20 7L21 7L21 6ZM0 8L0 9L2 9L2 8ZM6 8L6 9L7 9L7 8ZM23 8L23 9L25 9L25 8ZM36 8L36 9L37 9L37 8ZM10 9L10 10L12 10L12 12L11 12L11 11L10 11L10 12L9 12L9 13L8 13L8 15L9 15L9 16L8 16L8 19L5 19L5 20L4 20L4 21L5 21L5 22L8 22L8 23L10 23L10 24L11 24L11 23L10 23L10 22L11 22L11 21L13 21L13 24L12 24L12 25L14 25L14 27L13 27L13 26L11 26L11 29L10 29L10 30L12 30L12 31L11 31L11 33L16 33L16 35L15 35L15 36L16 36L16 35L17 35L17 34L18 34L18 36L20 36L20 35L21 35L21 34L18 34L18 33L19 33L19 32L18 32L18 31L19 31L19 30L18 30L18 31L17 31L17 32L18 32L18 33L16 33L16 32L15 32L15 31L14 31L14 29L13 29L13 30L12 30L12 28L14 28L14 27L15 27L15 28L16 28L16 30L17 30L17 29L20 29L20 28L21 28L21 30L22 30L22 31L21 31L21 32L20 32L20 33L23 33L23 32L24 32L24 31L25 31L25 29L24 29L24 28L26 28L26 30L27 30L27 31L26 31L26 32L28 32L28 30L27 30L27 29L28 29L28 28L26 28L26 27L27 27L27 24L26 24L26 23L23 23L23 21L24 21L24 20L22 20L22 19L23 19L23 18L24 18L24 17L25 17L25 19L26 19L26 20L25 20L25 22L26 22L26 20L27 20L27 19L26 19L26 17L27 17L27 16L28 16L28 21L27 21L27 22L28 22L28 23L30 23L30 24L29 24L29 25L28 25L28 26L30 26L30 28L31 28L31 26L32 26L32 28L33 28L33 26L32 26L32 25L33 25L33 23L31 23L31 22L32 22L32 21L29 21L29 19L30 19L30 18L32 18L32 19L33 19L33 18L34 18L34 17L33 17L33 16L34 16L34 15L35 15L35 14L34 14L34 15L33 15L33 14L32 14L32 16L31 16L31 15L30 15L30 14L31 14L31 13L30 13L30 12L28 12L28 13L30 13L30 14L28 14L28 15L25 15L25 16L23 16L23 15L24 15L24 14L23 14L23 12L24 12L24 11L23 11L23 12L22 12L22 11L21 11L21 13L20 13L20 12L17 12L17 14L16 14L16 15L17 15L17 17L16 17L16 22L18 22L18 24L17 24L17 26L16 26L16 27L15 27L15 25L16 25L16 23L14 23L14 22L15 22L15 20L11 20L11 19L10 19L10 20L9 20L9 18L12 18L12 17L9 17L9 16L11 16L11 15L12 15L12 14L13 14L13 16L14 16L14 15L15 15L15 14L13 14L13 13L14 13L14 12L16 12L16 11L13 11L13 10L12 10L12 9ZM28 9L28 11L29 11L29 9ZM30 9L30 10L31 10L31 9ZM0 10L0 12L1 12L1 10ZM3 13L3 16L5 16L5 14L4 14L4 13ZM6 13L6 14L7 14L7 13ZM10 13L10 14L12 14L12 13ZM18 13L18 15L20 15L20 17L19 17L19 19L18 19L18 17L17 17L17 19L18 19L18 20L17 20L17 21L18 21L18 22L20 22L20 23L19 23L19 24L18 24L18 28L19 28L19 27L23 27L23 28L22 28L22 30L23 30L23 31L22 31L22 32L23 32L23 31L24 31L24 30L23 30L23 28L24 28L24 27L23 27L23 26L24 26L24 25L25 25L25 26L26 26L26 25L25 25L25 24L24 24L24 25L23 25L23 26L22 26L22 25L21 25L21 23L22 23L22 24L23 24L23 23L22 23L22 21L21 21L21 22L20 22L20 20L19 20L19 19L22 19L22 18L21 18L21 15L22 15L22 14L19 14L19 13ZM1 15L1 16L2 16L2 15ZM6 15L6 16L7 16L7 15ZM28 15L28 16L29 16L29 15ZM22 16L22 17L23 17L23 16ZM25 16L25 17L26 17L26 16ZM30 16L30 17L29 17L29 18L30 18L30 17L31 17L31 16ZM13 17L13 19L14 19L14 17ZM5 20L5 21L9 21L9 22L10 22L10 21L9 21L9 20ZM18 20L18 21L19 21L19 20ZM6 23L6 24L5 24L5 25L3 25L3 26L2 26L2 27L3 27L3 26L4 26L4 27L5 27L5 28L7 28L7 27L6 27L6 26L7 26L7 25L6 25L6 24L7 24L7 23ZM8 24L8 25L9 25L9 24ZM14 24L14 25L15 25L15 24ZM19 24L19 26L21 26L21 25L20 25L20 24ZM30 24L30 25L32 25L32 24ZM5 25L5 26L6 26L6 25ZM16 27L16 28L17 28L17 27ZM29 29L29 32L32 32L32 29ZM30 30L30 31L31 31L31 30ZM33 30L33 31L34 31L34 30ZM36 30L36 31L37 31L37 30ZM12 31L12 32L14 32L14 31ZM31 33L31 34L34 34L34 33ZM26 34L26 35L28 35L28 34ZM27 36L27 37L29 37L29 36ZM0 0L0 7L7 7L7 0ZM1 1L1 6L6 6L6 1ZM2 2L2 5L5 5L5 2ZM30 0L30 7L37 7L37 0ZM31 1L31 6L36 6L36 1ZM32 2L32 5L35 5L35 2ZM0 30L0 37L7 37L7 30ZM1 31L1 36L6 36L6 31ZM2 32L2 35L5 35L5 32Z" fill="#000000"/></g></g></svg>
